<?xml version="1.0" encoding="UTF-8" standalone="no"?>
<svg xmlns:ffdec="https://www.free-decompiler.com/flash" xmlns:xlink="http://www.w3.org/1999/xlink" ffdec:objectType="frame" height="500.0px" width="500.0px" xmlns="http://www.w3.org/2000/svg">
  <g transform="matrix(5.0, 0.0, 0.0, 5.0, 0.0, 0.0)">
    <use ffdec:characterId="1" height="54.5" transform="matrix(1.0, 0.0, 0.0, 1.0, 0.0, 0.0)" width="57.5" xlink:href="#shape0"/>
  </g>
  <defs>
    <g id="shape0">
      <path d="M52.2 36.2 L52.15 38.4 Q52.15 39.55 52.5 42.2 52.5 43.6 51.25 43.6 50.15 43.6 49.65 40.0 L49.4 36.4 49.4 36.25 Q45.25 36.55 42.7 37.65 L39.25 39.7 Q36.4 40.95 34.25 44.5 31.5 48.85 31.2 49.9 31.0 50.45 31.0 53.9 L38.25 53.7 Q39.25 53.7 39.4 54.95 39.4 55.75 38.85 55.95 L33.65 56.35 31.1 56.25 Q31.4 61.4 33.45 64.2 35.05 66.4 39.8 69.25 L44.2 71.8 44.85 72.15 45.25 72.1 47.55 72.3 48.4 72.25 48.4 72.2 Q48.4 71.05 49.5 70.95 L49.5 69.2 Q49.5 65.1 50.9 65.1 52.0 65.1 52.15 66.35 52.15 69.65 51.85 71.35 L52.3 71.45 Q56.9 71.45 61.4 69.8 66.35 67.9 67.1 65.25 L69.05 60.75 Q69.9 57.85 69.9 56.25 L69.8 54.85 68.25 54.95 Q67.45 54.95 67.1 54.35 L66.9 53.7 Q66.9 52.45 69.35 52.25 L69.0 50.8 Q68.1 47.15 67.35 45.95 64.75 41.65 63.7 40.8 59.0 36.95 57.6 36.4 L52.35 36.15 52.2 36.15 52.2 36.2 M50.1 26.1 Q57.95 26.1 61.55 27.8 63.75 28.8 67.5 31.55 72.65 34.4 75.35 38.9 78.0 43.2 78.7 46.45 79.15 48.55 79.15 53.5 79.15 58.35 78.35 61.2 77.15 65.25 73.7 69.15 L70.35 73.05 Q68.2 75.3 65.2 76.8 54.95 80.6 47.25 80.6 42.7 80.6 39.0 79.0 34.85 77.2 34.35 74.2 29.85 71.2 26.1 65.8 21.65 59.35 21.65 48.8 21.65 42.5 26.8 36.7 34.75 27.5 47.25 26.15 L50.1 26.1 M44.95 49.4 L48.2 51.2 50.95 53.1 51.35 53.4 53.95 49.3 Q57.1 44.7 58.25 44.7 59.25 44.7 59.4 45.95 59.4 47.6 55.9 50.9 L54.25 53.5 52.75 55.35 Q52.6 56.35 51.45 56.35 50.85 56.35 48.5 54.65 L45.7 52.55 Q40.4 50.8 40.4 49.2 40.4 47.95 41.8 47.95 42.1 47.95 44.95 49.4" fill="#000000" fill-rule="evenodd" stroke="none"/>
      <path d="M52.2 36.2 L52.2 36.15 52.35 36.15 57.6 36.4 Q59.0 36.95 63.7 40.8 64.75 41.65 67.35 45.95 68.1 47.15 69.0 50.8 L69.35 52.25 Q66.9 52.45 66.9 53.7 L67.1 54.35 Q67.45 54.95 68.25 54.95 L69.8 54.85 69.9 56.25 Q69.9 57.85 69.05 60.75 L67.1 65.25 Q66.35 67.9 61.4 69.8 56.9 71.45 52.3 71.45 L51.85 71.35 Q52.15 69.65 52.15 66.35 52.0 65.1 50.9 65.1 49.5 65.1 49.5 69.2 L49.5 70.95 Q48.4 71.05 48.4 72.2 L48.4 72.25 47.55 72.3 45.25 72.1 44.85 72.15 44.2 71.8 39.8 69.25 Q35.05 66.4 33.45 64.2 31.4 61.4 31.1 56.25 L33.65 56.35 38.85 55.95 Q39.4 55.75 39.4 54.95 39.25 53.7 38.25 53.7 L31.0 53.9 Q31.0 50.45 31.2 49.9 31.5 48.85 34.25 44.5 36.4 40.95 39.25 39.7 L42.7 37.65 Q45.25 36.55 49.4 36.25 L49.4 36.4 49.65 40.0 Q50.15 43.6 51.25 43.6 52.5 43.6 52.5 42.2 52.15 39.55 52.15 38.4 L52.2 36.2 M44.95 49.4 Q42.1 47.95 41.8 47.95 40.4 47.95 40.4 49.2 40.4 50.8 45.7 52.55 L48.5 54.65 Q50.85 56.35 51.45 56.35 52.6 56.35 52.75 55.35 L54.25 53.5 55.9 50.9 Q59.4 47.6 59.4 45.95 59.25 44.7 58.25 44.7 57.1 44.7 53.95 49.3 L51.35 53.4 50.95 53.1 48.2 51.2 44.95 49.4" fill="#ffffff" fill-rule="evenodd" stroke="none"/>
    </g>
  </defs>
</svg>
