<?xml version="1.0" encoding="UTF-8" standalone="no"?>
<svg xmlns:ffdec="https://www.free-decompiler.com/flash" xmlns:xlink="http://www.w3.org/1999/xlink" ffdec:objectType="frame" height="500.0px" width="500.0px" xmlns="http://www.w3.org/2000/svg">
  <g transform="matrix(5.0, 0.0, 0.0, 5.0, 0.0, 0.0)">
    <use ffdec:characterId="2" height="47.85" transform="matrix(1.0, 0.0, 0.0, 1.0, 0.0, 0.0)" width="68.75" xlink:href="#shape0"/>
  </g>
  <defs>
    <g id="shape0">
      <path d="M39.85 51.35 Q38.5 51.35 38.5 52.6 38.5 53.7 39.95 54.1 L43.7 54.8 50.5 56.35 50.95 56.3 51.35 56.35 Q53.0 56.35 58.75 54.35 L62.0 53.2 Q63.75 53.15 63.75 51.75 63.7 50.45 62.6 50.45 61.15 50.45 56.0 52.4 L52.45 53.4 51.2 53.9 50.45 53.55 47.45 52.85 39.85 51.35 M40.75 39.9 L49.2 39.95 49.0 41.45 49.35 43.2 Q49.95 44.95 51.15 44.95 52.4 44.95 52.4 43.55 51.5 42.15 51.5 41.3 L51.75 40.1 51.75 40.0 62.95 40.55 Q65.4 40.5 66.55 41.05 L68.1 42.1 Q71.5 44.3 72.2 46.2 L74.05 50.65 74.45 51.75 Q73.55 51.9 72.85 52.3 L70.55 52.5 Q70.15 52.5 69.95 52.85 69.65 53.15 69.65 53.7 L69.85 54.35 Q70.3 54.95 71.65 54.95 L74.75 54.65 Q74.7 61.05 69.1 62.65 58.65 67.3 53.45 67.3 L49.75 67.35 49.65 64.55 49.85 62.45 Q49.75 60.95 48.4 60.95 47.35 60.95 47.15 62.9 L47.15 65.15 47.15 67.35 39.5 67.45 38.2 68.5 Q35.0 68.5 30.9 66.65 27.2 64.95 26.65 63.9 25.25 61.15 25.25 57.65 L25.45 54.35 26.25 54.6 Q31.25 54.6 31.25 52.95 31.25 51.7 29.65 51.7 26.9 51.7 25.8 52.3 26.35 49.6 27.55 47.3 31.45 39.7 40.75 39.9" fill="#ffffff" fill-rule="evenodd" stroke="none"/>
      <path d="M85.0 53.15 Q85.0 60.65 79.75 67.9 78.7 69.3 75.15 71.6 L69.7 75.1 Q68.3 76.1 63.8 77.1 56.8 78.7 47.4 78.7 L43.0 78.4 Q42.4 78.0 41.7 77.75 L38.55 77.15 Q34.2 76.3 31.55 75.2 27.0 73.2 22.0 69.2 16.25 64.6 16.25 55.85 16.25 52.05 17.3 49.15 18.1 47.0 20.95 41.85 22.0 39.95 30.25 34.9 35.1 31.9 42.05 31.1 L51.0 30.85 Q69.45 30.85 78.5 40.05 82.35 44.05 83.7 46.75 85.0 49.35 85.0 53.15 M40.75 39.9 Q31.45 39.7 27.55 47.3 26.35 49.6 25.8 52.3 26.9 51.7 29.65 51.7 31.25 51.7 31.25 52.95 31.25 54.6 26.25 54.6 L25.45 54.35 25.25 57.65 Q25.25 61.15 26.65 63.9 27.2 64.95 30.9 66.65 35.0 68.5 38.2 68.5 L39.5 67.45 47.15 67.35 47.15 65.15 47.15 62.9 Q47.35 60.95 48.4 60.95 49.75 60.95 49.85 62.45 L49.65 64.55 49.75 67.35 53.45 67.3 Q58.65 67.3 69.1 62.65 74.7 61.05 74.75 54.65 L71.65 54.95 Q70.3 54.95 69.85 54.35 L69.65 53.7 Q69.65 53.15 69.95 52.85 70.15 52.5 70.55 52.5 L72.85 52.3 Q73.55 51.9 74.45 51.75 L74.05 50.65 72.2 46.2 Q71.5 44.3 68.1 42.1 L66.55 41.05 Q65.4 40.5 62.95 40.55 L51.75 40.0 51.75 40.1 51.5 41.3 Q51.5 42.15 52.4 43.55 52.4 44.95 51.15 44.95 49.95 44.95 49.35 43.2 L49.0 41.45 49.2 39.95 40.75 39.9 M39.85 51.35 L47.45 52.85 50.45 53.55 51.2 53.9 52.45 53.4 56.0 52.4 Q61.15 50.45 62.6 50.45 63.7 50.45 63.75 51.75 63.75 53.15 62.0 53.2 L58.75 54.35 Q53.0 56.35 51.35 56.35 L50.95 56.3 50.5 56.35 43.7 54.8 39.95 54.1 Q38.5 53.7 38.5 52.6 38.5 51.35 39.85 51.35" fill="#000000" fill-rule="evenodd" stroke="none"/>
    </g>
  </defs>
</svg>
