<?xml version="1.0" encoding="UTF-8" standalone="no"?>
<svg xmlns:ffdec="https://www.free-decompiler.com/flash" xmlns:xlink="http://www.w3.org/1999/xlink" ffdec:objectType="shape" height="252.5px" width="388.0px" xmlns="http://www.w3.org/2000/svg">
  <g transform="matrix(5.0, 0.0, 0.0, 5.0, 30.0, -23.75)">
    <path d="M51.4 11.95 L45.45 22.65 Q43.0 26.8 41.15 28.55 44.25 28.65 44.25 29.45 L44.0 30.25 38.75 30.75 Q28.0 30.75 20.85 26.8 19.1 25.8 15.0 22.1 L17.35 29.75 Q19.5 37.3 19.5 39.35 L19.4 40.35 19.55 40.4 Q18.75 41.7 18.75 43.25 L18.8 43.35 Q14.6 42.15 9.05 39.5 1.8 36.05 -2.3 33.15 L1.2 38.85 Q3.55 42.15 6.9 44.4 10.9 47.1 18.8 49.85 21.75 50.85 23.3 51.65 L33.45 52.6 Q48.7 52.6 57.9 43.1 66.0 34.7 68.25 20.25 L68.15 20.0 61.8 25.55 Q57.15 29.5 56.0 29.5 L55.8 29.5 55.8 29.55 56.0 31.1 Q56.0 33.75 54.75 33.75 53.05 33.75 52.3 25.3 L51.5 12.0 51.4 11.9 51.4 11.95 M70.45 23.5 Q68.8 30.75 65.5 36.75 55.3 55.25 33.35 55.25 28.75 55.25 24.2 54.2 L23.6 54.25 Q14.05 54.25 3.75 45.0 -6.0 36.25 -6.0 29.8 -6.0 27.75 -4.6 27.75 4.9 35.05 8.1 36.25 L17.35 39.6 16.4 36.1 14.4 27.75 Q10.25 18.15 10.25 14.3 10.25 13.0 11.5 13.0 12.15 13.0 14.9 17.1 17.9 21.6 18.75 22.25 22.55 25.2 26.35 26.25 32.3 27.85 37.5 28.35 L37.5 28.3 Q37.5 27.9 40.4 24.05 L45.65 16.5 49.35 9.65 Q52.05 4.75 53.0 4.75 53.95 4.75 54.5 18.0 L55.55 27.3 70.25 14.5 Q71.9 14.5 71.5 16.35 71.5 18.8 70.45 23.5" fill="#000000" fill-rule="evenodd" stroke="none"/>
    <path d="M56.0 29.5 Q57.15 29.5 61.8 25.55 L68.15 20.0 68.25 20.25 Q66.0 34.7 57.9 43.1 48.7 52.6 33.45 52.6 L23.3 51.65 Q21.75 50.85 18.8 49.85 10.9 47.1 6.9 44.4 3.55 42.15 1.2 38.85 L-2.3 33.15 Q1.8 36.05 9.05 39.5 14.6 42.15 18.8 43.35 L18.75 43.25 Q18.75 41.7 19.55 40.4 L19.4 40.35 19.5 39.35 Q19.5 37.3 17.35 29.75 L15.0 22.1 Q19.1 25.8 20.85 26.8 28.0 30.75 38.75 30.75 L44.0 30.25 44.25 29.45 Q44.25 28.65 41.15 28.55 43.0 26.8 45.45 22.65 L51.4 11.95 51.5 12.0 52.3 25.3 Q53.05 33.75 54.75 33.75 56.0 33.75 56.0 31.1 L55.8 29.55 56.0 29.5" fill="#ffb600" fill-rule="evenodd" stroke="none"/>
  </g>
</svg>
