<?xml version="1.0" encoding="UTF-8" standalone="no"?>
<svg xmlns:ffdec="https://www.free-decompiler.com/flash" xmlns:xlink="http://www.w3.org/1999/xlink" ffdec:objectType="shape" height="298.75px" width="329.25px" xmlns="http://www.w3.org/2000/svg">
  <g transform="matrix(5.0, 0.0, 0.0, 5.0, 0.0, 0.0)">
    <path d="M65.75 16.05 Q65.75 37.75 58.35 48.4 50.45 59.75 33.35 59.75 27.75 59.75 22.75 57.75 16.35 55.2 16.25 50.65 L11.2 47.1 Q6.55 43.2 4.5 40.25 0.0 33.65 0.0 28.2 0.0 24.25 1.6 24.25 2.2 24.25 4.2 25.85 L8.6 29.4 Q14.5 33.85 19.4 34.4 L20.0 28.25 Q20.0 21.55 18.4 15.0 16.75 9.6 16.75 8.55 16.75 7.0 18.0 7.0 19.35 7.0 20.5 10.05 L23.15 16.85 Q27.0 24.85 35.35 26.3 L35.25 25.8 41.25 12.85 44.1 5.35 Q46.15 0.0 46.75 0.0 48.65 0.0 50.65 15.65 L51.95 23.85 52.4 27.7 Q53.4 25.85 57.5 19.85 63.25 11.5 64.5 11.5 66.15 11.5 65.75 16.05 M46.45 7.2 L41.35 19.1 Q38.9 24.9 37.5 26.6 L39.35 26.65 44.35 25.25 Q45.6 25.25 45.75 26.45 45.75 29.25 37.75 29.25 29.8 29.25 25.3 24.25 23.85 22.65 22.1 18.75 22.5 20.65 22.5 28.1 23.25 39.25 20.25 39.25 19.25 39.25 19.05 38.5 L19.0 37.7 19.05 37.5 18.6 37.5 Q15.5 37.5 9.8 33.5 L2.5 27.85 2.5 30.25 Q4.15 36.25 8.15 40.75 9.5 42.3 16.0 46.6 22.0 50.55 22.0 50.75 22.0 52.0 20.75 52.0 L20.35 52.0 Q25.8 57.15 26.9 57.15 37.8 57.15 44.05 55.5 50.7 53.8 54.45 49.65 58.15 45.6 60.2 38.0 61.95 31.45 63.25 19.15 L63.25 16.75 Q54.85 29.75 53.25 29.75 L52.5 29.55 52.5 31.4 Q52.9 36.25 51.25 36.25 50.2 36.25 49.75 30.65 L49.0 21.65 Q47.6 12.05 46.5 7.25 L46.5 7.1 46.5 7.15 46.45 7.2" fill="#000000" fill-rule="evenodd" stroke="none"/>
    <path d="M46.5 7.25 L46.45 7.2 46.5 7.15 46.5 7.25" fill="#9cb9cb" fill-rule="evenodd" stroke="none"/>
    <path d="M46.5 7.25 Q47.6 12.05 49.0 21.65 L49.75 30.65 Q50.2 36.25 51.25 36.25 52.9 36.25 52.5 31.4 L52.5 29.55 53.25 29.75 Q54.85 29.75 63.25 16.75 L63.25 19.15 Q61.95 31.45 60.2 38.0 58.15 45.6 54.45 49.65 50.7 53.8 44.05 55.5 37.8 57.15 26.9 57.15 25.8 57.15 20.35 52.0 L20.75 52.0 Q22.0 52.0 22.0 50.75 22.0 50.55 16.0 46.6 9.5 42.3 8.15 40.75 4.15 36.25 2.5 30.25 L2.5 27.85 9.8 33.5 Q15.5 37.5 18.6 37.5 L19.05 37.5 19.0 37.7 19.05 38.5 Q19.25 39.25 20.25 39.25 23.25 39.25 22.5 28.1 22.5 20.65 22.1 18.75 23.85 22.65 25.3 24.25 29.8 29.25 37.75 29.25 45.75 29.25 45.75 26.45 45.6 25.25 44.35 25.25 L39.35 26.65 37.5 26.6 Q38.9 24.9 41.35 19.1 L46.45 7.2 46.5 7.25" fill="#ffb600" fill-rule="evenodd" stroke="none"/>
  </g>
</svg>
