<?xml version="1.0" encoding="UTF-8" standalone="no"?>
<svg xmlns:ffdec="https://www.free-decompiler.com/flash" xmlns:xlink="http://www.w3.org/1999/xlink" ffdec:objectType="frame" height="500.0px" width="500.0px" xmlns="http://www.w3.org/2000/svg">
  <g transform="matrix(5.0, 0.0, 0.0, 5.0, 0.0, 0.0)">
    <use ffdec:characterId="1" height="44.5" transform="matrix(1.0, 0.0, 0.0, 1.0, 0.0, 0.0)" width="40.3" xlink:href="#shape0"/>
  </g>
  <defs>
    <g id="shape0">
      <path d="M60.35 47.3 L54.5 52.3 54.75 52.55 59.75 48.2 59.8 48.2 Q58.95 51.2 58.95 52.05 L59.15 53.2 58.95 53.2 Q57.95 53.25 57.95 53.55 L59.15 53.8 63.4 53.05 67.15 51.6 64.75 55.65 63.55 57.75 62.25 59.7 62.55 59.95 65.55 55.25 68.35 50.65 68.1 50.4 63.9 52.25 61.95 53.0 59.45 53.2 59.6 53.05 59.45 52.05 59.9 49.7 60.6 47.55 60.35 47.3 M51.75 45.7 Q50.05 45.7 50.15 49.8 50.1 52.8 50.55 53.3 49.65 54.4 49.65 57.3 49.65 58.35 50.15 59.6 50.9 61.4 52.25 61.4 53.45 61.4 53.45 60.7 L53.2 60.45 Q52.9 60.45 52.25 60.9 50.55 60.9 50.15 57.3 50.15 56.15 50.45 54.95 51.05 53.05 52.6 53.05 53.9 53.05 54.85 53.9 55.6 54.6 55.6 55.15 L55.4 55.75 55.4 55.85 Q54.2 56.75 53.95 59.15 53.95 62.25 57.0 62.25 58.9 62.25 59.95 60.9 60.45 60.3 60.45 59.1 60.45 55.3 57.3 55.3 56.5 55.3 55.9 55.6 L56.1 55.15 Q56.1 52.55 52.2 52.55 51.5 52.55 50.95 52.95 L50.7 51.5 50.65 49.8 Q50.6 46.2 51.7 46.2 52.35 46.2 53.15 49.25 L53.8 52.45 54.05 51.55 53.4 48.4 Q52.6 45.7 51.75 45.7 M71.55 58.7 Q71.55 59.8 68.65 60.75 L66.4 61.45 64.3 61.8 Q63.9 61.0 63.45 61.0 L63.15 61.25 63.7 61.95 Q64.25 62.45 64.25 63.1 64.25 65.6 60.65 67.45 57.7 68.95 55.4 68.95 49.6 68.95 44.9 64.25 43.05 62.3 43.05 57.75 L43.15 56.9 Q43.55 58.85 45.7 60.1 47.85 61.3 50.25 61.3 50.75 61.3 50.75 61.05 L47.15 60.05 Q43.55 58.8 43.55 55.95 L43.6 54.6 43.95 53.55 46.1 51.8 45.85 51.55 45.5 51.9 45.45 51.9 Q45.45 51.55 45.15 51.55 44.1 51.55 43.4 52.5 42.9 53.15 42.9 53.6 L42.95 53.9 Q42.7 54.7 42.55 57.75 L42.85 60.3 41.65 59.55 Q40.15 58.85 38.85 58.85 37.65 58.85 37.0 59.65 36.85 59.4 36.05 59.4 35.35 59.4 35.05 60.0 L33.7 59.85 Q32.75 59.85 32.5 60.3 L32.25 60.95 Q31.75 61.75 31.75 62.15 31.75 63.05 32.4 63.95 L32.2 65.1 Q32.2 67.25 33.9 67.25 34.9 67.25 36.0 66.5 L36.5 66.1 Q37.55 66.95 37.85 66.95 38.6 66.95 39.3 66.45 L39.9 65.75 Q39.9 65.2 39.2 64.4 L38.75 63.95 Q39.15 63.65 39.15 63.0 39.15 62.0 38.75 62.0 L38.45 62.25 38.65 62.95 Q38.65 63.45 38.2 63.65 L38.0 63.6 37.8 63.7 37.7 63.7 Q36.75 63.7 35.95 62.5 35.35 61.55 35.35 61.0 35.35 59.9 35.8 59.9 L36.75 60.05 36.6 60.4 Q36.35 60.4 36.2 61.1 L36.65 62.05 37.6 62.85 38.1 62.4 Q38.2 61.95 39.35 61.95 41.55 61.95 42.95 63.25 L44.0 64.55 44.25 64.25 44.5 64.6 Q45.5 65.9 47.7 67.2 51.35 69.45 55.4 69.45 57.0 69.45 59.5 68.4 L59.7 69.0 59.6 69.2 60.95 71.35 Q61.15 71.9 61.15 73.7 61.15 75.55 60.3 76.8 L59.35 77.9 58.85 77.8 Q57.55 77.8 54.8 79.25 L53.55 79.05 53.55 79.0 53.5 79.0 53.45 79.05 Q51.5 78.4 50.3 76.2 50.1 76.2 50.05 76.45 50.05 77.1 51.35 78.3 52.25 79.1 53.3 79.5 L53.35 80.05 53.25 80.1 52.9 79.85 52.95 79.8 50.45 78.5 50.35 78.55 50.15 78.45 Q50.7 78.45 50.7 78.1 L50.5 77.85 50.1 77.95 50.0 77.95 49.8 77.85 49.7 77.9 Q49.3 77.7 49.3 77.05 49.9 73.9 51.1 73.9 52.6 73.9 52.6 74.5 L52.45 75.1 52.7 75.35 53.1 74.45 Q53.1 73.4 51.65 73.4 L51.55 73.4 51.85 73.05 51.5 72.15 52.05 71.0 52.65 69.9 52.4 69.65 Q52.1 69.65 51.25 71.75 50.55 70.75 49.85 70.75 49.05 70.75 48.75 71.5 48.45 71.15 47.5 71.15 47.05 71.15 46.7 73.55 L45.9 74.75 Q45.5 75.2 45.5 76.0 45.5 78.7 48.1 78.7 49.15 78.7 49.25 78.2 L49.4 78.35 49.0 80.8 Q49.0 81.3 49.9 82.25 L51.65 83.3 49.3 85.0 47.15 86.35 47.8 85.2 47.95 85.25 48.2 85.0 47.7 84.35 47.1 83.8 44.7 86.95 42.75 89.9 46.2 90.2 51.1 89.8 50.9 88.55 Q50.9 87.45 50.55 87.45 L48.2 87.6 53.15 84.1 53.05 84.45 53.3 84.7 54.4 83.85 Q55.1 83.0 55.65 83.0 L57.3 84.75 58.4 86.6 60.7 84.6 61.65 84.95 61.95 84.55 61.9 83.75 61.95 83.7 65.85 81.05 64.35 79.75 63.0 78.35 Q62.55 78.35 61.55 80.0 L61.5 80.05 Q61.2 78.05 60.9 78.05 60.7 78.05 60.65 78.3 L60.95 80.45 Q60.25 80.95 59.9 81.2 L59.95 80.5 59.9 79.5 60.05 79.2 59.75 78.15 60.7 77.1 Q61.65 75.95 61.65 73.7 61.65 69.55 60.3 69.05 L59.85 68.25 62.3 67.05 Q64.75 65.7 64.75 63.1 L64.5 62.15 64.75 62.15 Q67.15 62.15 69.65 60.9 72.05 59.7 72.05 58.7 72.05 57.75 70.85 57.75 69.85 57.75 66.45 59.25 L63.85 59.9 61.15 60.5 61.5 60.75 Q63.55 60.75 66.9 59.55 L70.85 58.3 Q71.55 58.3 71.55 58.7 M41.55 60.1 L42.95 61.2 43.05 61.1 43.1 61.4 43.7 63.25 43.1 62.65 Q41.6 61.4 39.35 61.4 L37.7 61.7 37.6 62.3 37.55 62.35 Q36.7 61.5 36.7 61.05 L36.9 60.65 Q37.45 59.35 39.25 59.35 40.4 59.35 41.55 60.1 M34.9 60.5 L34.85 61.0 Q34.85 61.6 35.55 62.75 36.5 64.2 37.75 64.2 L38.05 64.2 38.55 64.55 Q39.4 65.1 39.4 65.75 39.4 66.0 37.8 66.45 L36.8 65.8 37.05 65.25 36.8 65.0 36.3 65.45 36.25 65.4 35.95 65.65 36.05 65.75 35.9 65.9 Q34.85 66.75 33.85 66.75 32.9 66.75 32.7 65.65 L32.75 64.8 33.0 64.0 Q32.25 63.05 32.25 62.15 32.25 61.75 32.7 61.15 33.3 60.35 34.1 60.35 L34.9 60.5 M58.35 61.25 L58.0 61.15 57.8 61.55 57.0 61.75 Q54.45 61.75 54.45 59.15 54.7 55.85 57.75 55.85 58.2 55.85 58.9 56.5 L59.55 57.3 Q59.95 57.85 59.95 59.1 59.95 61.25 58.35 61.25 M58.4 58.65 Q57.9 58.65 57.9 59.2 57.9 59.65 58.55 59.65 59.2 59.65 59.2 59.35 59.2 58.65 58.4 58.65 M53.45 56.95 Q52.9 56.95 52.9 57.75 52.9 58.1 53.2 58.1 53.9 58.1 53.9 57.55 53.9 56.95 53.45 56.95 M58.65 72.15 Q58.35 70.25 57.9 70.25 57.7 70.25 57.65 70.5 L58.35 74.2 Q58.35 76.4 56.25 76.4 L54.1 76.15 54.85 73.15 55.95 70.05 55.7 69.75 Q55.45 69.75 54.35 73.1 53.75 74.95 53.65 76.0 52.6 75.6 52.0 74.8 50.9 74.8 50.9 76.05 L51.15 76.35 Q51.75 76.35 51.75 75.3 L53.15 76.25 53.75 76.5 53.85 76.55 56.25 76.9 Q58.85 76.9 58.85 74.2 L58.65 72.15 M51.35 73.4 Q48.8 73.55 48.8 77.1 48.8 77.55 48.95 77.85 L48.15 78.2 Q46.0 78.2 46.0 76.05 46.0 75.3 46.5 75.05 47.05 74.7 47.2 74.0 L47.5 71.75 47.6 71.7 48.55 72.05 48.6 72.0 48.55 72.7 48.55 73.0 48.2 73.15 Q47.95 73.15 47.9 73.45 47.9 73.75 48.2 73.75 L49.3 73.15 49.05 72.9 49.0 72.9 49.1 72.25 Q49.25 71.25 49.8 71.25 50.4 71.25 50.9 72.1 L51.3 73.2 51.35 73.4 M53.7 79.85 L53.65 79.6 54.05 79.7 53.8 79.8 53.7 79.85 M61.4 84.05 L61.4 84.25 61.25 84.15 61.4 84.05 M53.95 81.6 Q56.2 80.5 57.25 80.5 57.6 80.5 57.6 80.65 L57.4 81.05 57.1 81.0 Q56.0 81.0 55.65 81.7 L56.15 82.75 55.5 82.5 Q54.75 82.5 53.85 83.7 L53.8 83.7 54.0 81.85 53.95 81.6" fill="#000000" fill-rule="evenodd" stroke="none"/>
    </g>
  </defs>
</svg>
