<?xml version="1.0" encoding="UTF-8" standalone="no"?>
<svg xmlns:ffdec="https://www.free-decompiler.com/flash" xmlns:xlink="http://www.w3.org/1999/xlink" ffdec:objectType="frame" height="500.0px" width="500.0px" xmlns="http://www.w3.org/2000/svg">
  <g transform="matrix(5.0, 0.0, 0.0, 5.0, 0.0, 0.0)">
    <use ffdec:characterId="2" height="44.15" transform="matrix(1.0, 0.0, 0.0, 1.0, 0.0, 0.0)" width="40.8" xlink:href="#shape0"/>
  </g>
  <defs>
    <g id="shape0">
      <path d="M59.0 49.3 L57.5 50.6 Q57.2 50.8 54.85 52.5 L54.8 52.45 55.05 52.15 54.6 50.7 54.6 49.15 Q54.7 46.3 53.25 46.3 51.7 46.3 51.75 49.75 L52.05 52.05 51.55 52.85 50.6 54.2 Q49.8 55.9 49.8 57.0 49.8 61.05 52.6 61.05 53.45 61.05 53.45 60.6 53.45 60.35 53.25 60.35 L52.6 60.55 Q50.3 60.55 50.3 57.0 L51.05 54.45 Q51.55 53.0 52.15 52.5 52.35 53.55 52.5 53.55 L52.75 53.2 52.55 52.25 52.9 52.15 Q53.75 52.15 54.35 52.85 L54.05 53.05 Q54.05 53.3 54.35 53.3 L54.65 53.2 54.9 53.6 Q55.4 54.6 55.4 55.3 L55.1 56.55 55.25 56.8 Q54.0 57.65 54.0 59.45 54.0 61.95 57.25 61.95 58.25 61.95 58.25 61.55 L58.0 61.25 57.25 61.45 Q54.5 61.45 54.5 59.45 54.5 58.35 55.65 57.4 56.7 56.55 57.6 56.55 61.0 56.55 61.0 58.65 61.0 60.35 59.65 60.85 L58.35 61.55 58.6 61.8 Q60.3 61.8 61.0 60.4 61.5 59.65 61.5 58.65 61.5 56.05 58.4 56.05 56.75 56.05 55.7 56.55 L55.85 56.05 55.9 55.3 Q55.9 54.5 55.35 53.35 L55.15 52.95 56.7 51.9 59.35 49.65 Q58.8 51.75 58.8 53.35 L58.35 52.8 58.05 53.05 Q58.05 54.05 60.2 54.05 L65.1 53.4 67.2 52.65 65.75 54.6 64.7 56.55 62.35 60.35 62.35 60.5 61.4 60.65 Q61.4 60.9 62.05 60.9 L62.9 60.85 63.25 61.4 Q63.85 62.4 63.85 63.15 63.85 64.95 62.15 66.75 60.0 69.05 56.25 69.05 54.3 69.05 49.25 66.95 46.25 65.45 45.25 64.0 44.7 63.15 44.05 60.55 L43.5 57.55 Q44.3 61.25 50.25 61.25 L51.0 61.0 47.45 60.4 Q43.9 59.6 43.9 56.3 L43.95 55.2 44.5 54.15 44.5 54.1 44.8 53.85 Q45.75 53.15 45.75 52.75 L45.15 52.15 Q43.65 52.15 43.0 54.4 L43.2 54.9 42.95 56.4 Q42.95 57.85 43.5 60.6 43.85 62.95 44.95 64.45 46.5 66.45 50.45 68.05 L52.15 68.7 Q51.8 69.1 51.1 71.65 L50.7 72.8 Q50.45 72.1 49.75 72.1 48.95 72.1 48.65 72.9 L47.8 72.8 Q45.7 72.8 45.5 76.55 45.5 79.4 47.6 79.4 L48.6 78.95 49.05 79.4 49.0 79.6 Q49.0 80.85 50.2 82.3 L51.1 83.2 49.25 84.35 49.15 84.3 48.8 84.5 Q48.75 84.0 48.3 84.0 L42.55 88.5 42.55 88.55 42.15 88.9 Q42.15 89.75 42.5 89.95 L46.1 90.4 48.65 89.95 49.45 89.9 49.45 90.2 49.75 90.45 50.15 88.1 Q50.15 87.3 49.6 87.3 L48.15 87.35 52.25 84.15 52.2 84.05 52.3 83.8 52.55 83.8 52.95 83.95 53.2 84.25 Q54.75 83.0 55.05 83.0 L56.7 84.4 57.1 84.0 57.45 84.05 58.15 84.8 60.15 86.1 Q60.7 84.3 62.5 82.4 L64.45 80.5 66.4 78.6 62.1 76.1 Q61.95 76.1 61.3 78.6 L59.4 80.95 59.75 79.7 Q59.75 78.7 58.65 78.4 61.05 76.75 61.05 72.9 L60.9 70.9 Q60.65 69.0 60.05 69.0 59.8 69.0 59.75 69.25 L60.4 71.05 60.55 72.9 Q60.55 74.95 59.55 76.35 58.65 77.6 57.35 78.3 L55.25 79.05 53.7 79.15 Q51.2 79.15 50.15 78.4 L49.25 77.55 Q49.0 77.55 49.0 77.85 L49.45 78.55 49.2 78.85 48.95 77.9 48.95 77.85 49.15 76.8 Q49.6 75.6 50.5 75.6 51.25 75.6 51.25 76.05 51.3 76.45 51.55 76.45 L51.8 76.05 Q51.8 75.15 50.8 75.05 L50.85 74.65 50.85 73.75 50.85 73.55 50.9 73.35 51.5 71.95 52.55 69.05 52.5 68.85 55.1 69.5 Q54.6 70.3 53.7 73.0 L52.55 76.6 52.8 76.9 Q53.1 76.9 54.15 73.25 L55.7 69.55 56.3 69.55 Q60.25 69.55 62.55 67.05 64.35 65.15 64.35 63.2 64.35 62.15 63.95 61.45 L63.4 60.75 66.35 60.05 Q68.85 59.3 70.55 59.3 71.6 59.3 71.8 59.6 L71.8 59.9 Q71.8 62.05 65.35 62.05 L64.55 61.95 Q64.3 61.95 64.25 62.2 64.25 62.55 65.35 62.55 72.3 62.55 72.3 59.9 72.3 58.8 70.9 58.8 68.25 58.8 66.05 59.6 L63.15 60.35 63.1 60.3 65.35 56.3 68.15 52.05 67.9 51.8 64.95 52.8 60.2 53.55 59.15 53.45 59.55 50.85 60.75 48.25 60.5 48.0 Q60.1 48.0 59.0 49.3 M54.2 48.0 L54.1 49.7 Q54.1 51.3 54.35 52.0 53.85 51.65 53.25 51.65 L52.45 51.8 52.25 49.75 Q52.25 46.8 53.05 46.8 54.1 46.8 54.2 48.0 M39.15 61.05 L38.9 60.8 37.8 61.4 37.2 61.25 37.05 61.3 Q35.95 60.9 35.9 59.2 L35.9 59.0 Q35.9 58.25 36.25 58.25 L36.75 58.4 36.55 58.85 Q36.3 58.85 36.35 59.2 L36.7 60.15 Q37.1 60.9 37.25 60.9 37.25 60.55 38.55 60.55 40.65 60.55 42.05 61.4 L43.5 63.0 43.75 62.55 Q43.75 61.7 42.2 60.9 40.55 60.0 38.5 60.0 L37.35 60.25 36.85 59.2 Q37.6 58.45 37.95 58.45 41.5 58.45 42.45 59.4 42.75 60.3 43.1 60.3 L43.35 60.0 Q43.35 57.95 38.65 57.95 L37.5 58.05 Q37.35 57.75 36.5 57.75 35.25 57.75 35.35 58.9 L35.05 58.7 33.9 58.3 Q32.75 58.3 31.5 60.65 L32.1 62.3 32.85 63.45 32.25 64.9 Q32.25 65.9 34.05 65.9 35.5 65.9 36.55 65.25 L37.35 64.45 38.45 64.7 Q39.45 64.7 39.45 63.8 39.45 63.25 38.9 62.4 L38.25 61.65 39.15 61.05 M35.4 59.4 Q35.6 61.7 37.4 61.9 L37.95 62.25 Q38.95 62.95 38.95 63.8 38.95 64.2 38.45 64.2 L36.7 63.55 36.8 63.4 36.55 63.15 36.0 63.65 35.55 64.05 Q35.55 64.3 35.85 64.3 L36.2 64.1 36.3 64.1 36.5 64.0 36.85 64.2 36.4 64.7 Q35.55 65.4 34.1 65.4 32.75 65.4 32.75 64.8 L33.35 63.45 Q33.35 62.15 32.5 62.05 L32.0 60.65 Q33.3 58.8 33.8 58.8 L35.4 59.4 M43.55 54.2 Q43.75 53.1 45.2 52.7 L43.55 54.2 M59.25 59.15 Q59.25 58.5 58.75 58.5 58.5 58.5 58.5 58.85 58.5 59.45 58.95 59.45 L59.25 59.15 M53.2 57.55 Q53.2 58.15 53.7 58.15 L54.1 57.85 Q54.1 57.1 53.55 57.1 53.1 57.1 53.2 57.55 M57.75 70.4 L58.4 73.35 Q58.4 74.4 57.85 75.55 L57.2 76.5 56.8 77.0 54.75 77.4 51.85 76.9 50.7 76.1 50.6 76.1 50.65 76.1 50.85 75.95 50.6 75.7 Q49.6 75.7 49.25 76.95 49.25 77.3 49.5 77.3 L49.95 76.6 50.5 76.2 50.45 76.4 Q50.45 76.85 51.6 77.35 52.95 77.9 54.75 77.9 L56.9 77.6 Q57.55 77.25 58.35 75.7 58.9 74.6 58.9 73.4 58.9 70.15 58.0 70.15 57.8 70.15 57.75 70.4 M50.35 73.2 L50.35 73.65 49.95 74.6 50.2 74.85 50.1 75.15 Q49.45 75.35 48.95 76.2 48.45 77.1 48.45 77.9 L48.5 78.6 47.6 78.9 Q46.0 78.9 46.0 76.6 46.0 75.8 46.4 74.7 46.9 73.3 47.55 73.3 L48.5 73.6 48.5 74.0 48.5 74.15 47.9 74.05 Q47.7 74.05 47.65 74.3 47.65 74.65 48.7 74.65 L49.65 74.25 49.4 74.0 48.95 74.1 49.15 73.5 Q49.35 72.65 49.8 72.65 50.25 72.65 50.35 73.2 M54.45 79.65 L53.25 80.85 53.1 79.65 53.75 79.65 54.45 79.65 M53.35 83.45 L53.35 83.0 56.25 80.7 Q57.85 80.7 57.9 81.3 L57.9 81.55 56.85 83.35 56.65 83.65 Q55.95 82.45 55.05 82.45 54.1 82.45 53.4 83.5 L53.35 83.45" fill="#000000" fill-rule="evenodd" stroke="none"/>
    </g>
  </defs>
</svg>
