<?xml version="1.0" encoding="UTF-8" standalone="no"?>
<svg xmlns:ffdec="https://www.free-decompiler.com/flash" xmlns:xlink="http://www.w3.org/1999/xlink" ffdec:objectType="frame" height="500.0px" width="500.0px" xmlns="http://www.w3.org/2000/svg">
  <g transform="matrix(5.0, 0.0, 0.0, 5.0, 0.0, 0.0)">
    <use ffdec:characterId="4" height="34.2" transform="matrix(1.0, 0.0, 0.0, 1.0, 0.0, 0.0)" width="69.0" xlink:href="#shape0"/>
  </g>
  <defs>
    <g id="shape0">
      <path d="M82.4 67.65 L83.55 67.25 83.95 67.65 83.95 67.7 84.0 69.3 84.0 69.4 91.1 70.85 Q91.8 71.05 91.8 71.8 91.8 73.8 89.1 73.8 86.75 73.35 85.75 72.8 L85.45 72.95 Q86.4 73.25 86.4 73.8 86.4 74.2 85.6 75.05 84.65 76.05 83.6 76.05 81.85 76.05 78.85 74.9 79.35 75.15 79.4 76.1 79.4 77.65 78.5 77.65 L74.0 73.85 71.75 72.8 Q71.2 73.5 70.6 73.5 L70.5 73.5 Q69.8 73.5 69.65 72.85 L69.6 72.3 57.15 69.9 50.5 78.8 Q50.2 78.8 50.15 78.25 50.05 77.7 49.8 77.7 47.4 79.45 46.75 79.45 46.3 79.45 46.2 78.65 L46.15 77.75 Q46.15 76.6 46.4 76.15 L45.85 76.2 Q45.1 76.2 44.45 75.7 L44.2 75.4 43.8 75.05 38.3 77.05 Q34.45 78.2 31.2 78.2 L30.05 78.1 28.0 79.6 26.65 81.1 Q26.1 82.3 25.8 82.3 L24.6 80.95 Q22.8 80.75 22.8 79.8 22.8 78.4 24.5 77.05 L26.15 75.85 23.95 73.65 Q23.95 73.4 27.6 70.65 30.75 67.95 32.05 67.95 32.35 67.95 32.35 68.6 32.35 70.05 31.45 72.05 L31.1 72.8 Q36.0 69.65 36.6 69.45 45.3 65.4 46.25 65.4 L46.3 65.45 46.55 65.35 46.75 65.3 47.2 64.9 47.8 64.55 Q46.8 63.3 46.8 61.95 46.8 61.2 47.35 60.05 L47.0 60.1 44.65 59.45 Q42.85 58.75 42.15 58.1 40.1 56.15 40.1 55.3 40.1 54.65 41.0 54.65 L46.2 56.6 Q48.05 57.3 48.9 57.85 L45.25 50.1 Q45.25 49.8 45.55 49.8 46.3 49.8 48.15 51.0 L50.8 51.75 Q51.95 51.75 51.95 49.95 51.9 48.1 52.55 48.1 L57.55 53.7 57.55 53.65 Q57.55 53.0 58.35 51.15 L58.65 49.85 Q58.9 49.2 59.9 48.95 60.95 49.1 61.6 50.9 62.2 52.45 62.2 53.95 62.05 56.9 61.55 57.1 L61.25 57.8 61.15 58.0 61.1 58.1 61.65 58.05 Q66.55 57.65 66.55 60.4 66.55 61.55 64.9 61.75 L65.45 62.2 65.35 62.4 68.55 62.55 73.35 62.05 73.55 61.9 73.95 60.9 Q74.35 60.2 74.7 60.2 L75.3 59.8 Q75.55 59.8 75.55 60.15 74.8 62.05 74.15 62.25 L70.4 66.5 Q74.75 66.5 77.9 67.35 L82.1 67.85 82.4 67.65 M83.65 71.1 L83.0 71.75 84.2 72.75 84.85 72.8 84.95 72.85 Q85.0 72.3 85.5 72.2 L85.6 72.05 Q86.4 72.05 88.7 73.15 90.7 73.15 91.2 71.7 L83.95 70.35 83.65 71.1 M83.4 68.8 L83.35 68.2 83.05 68.25 83.35 68.8 83.05 69.1 82.75 68.95 82.55 69.3 83.4 69.35 83.4 68.8 M81.2 71.05 L81.05 71.0 81.1 71.05 81.15 71.05 81.35 71.35 81.7 71.55 81.55 71.8 Q81.65 71.95 81.85 71.95 L82.25 71.65 82.25 71.6 82.35 71.6 83.1 70.8 83.35 70.25 Q82.45 70.0 82.25 69.75 L81.65 70.55 81.9 70.9 81.6 71.2 81.2 71.05 M82.35 68.7 L81.95 68.5 73.25 67.5 Q70.15 67.2 69.85 66.9 L69.3 67.15 78.55 69.5 Q79.25 69.6 80.35 70.0 L81.1 70.3 82.0 69.2 82.35 68.7 M82.5 72.2 L82.1 72.5 82.8 72.6 82.5 72.2 M85.75 73.95 Q85.0 73.55 76.15 72.6 74.3 72.35 72.35 71.7 L72.25 71.9 72.0 72.4 Q72.45 72.55 73.1 72.85 L73.8 73.2 73.8 73.1 74.1 73.05 78.5 76.85 78.75 76.15 Q78.1 75.95 78.0 74.95 L78.35 74.8 78.7 74.85 76.45 73.9 76.8 73.45 Q77.3 73.45 79.7 74.4 L83.1 75.4 Q84.85 75.4 85.75 73.95 M52.6 49.0 L52.35 51.15 Q52.05 52.35 51.05 52.35 49.1 52.35 46.35 50.85 L49.3 57.6 49.8 57.8 Q50.25 56.55 53.95 56.55 56.2 56.55 58.95 57.65 L59.8 58.1 60.85 58.1 60.75 58.0 59.75 57.2 Q58.9 56.55 58.9 56.25 L58.95 56.2 52.65 49.0 52.6 49.0 M30.65 73.8 L30.55 73.8 30.15 74.45 29.65 75.45 29.55 75.65 29.9 75.8 Q31.2 76.55 31.25 77.15 L34.55 77.15 37.6 76.5 41.15 75.15 40.75 74.7 Q39.85 73.9 36.85 73.9 L35.05 74.2 Q34.7 74.2 34.65 74.0 L33.15 73.9 31.2 74.05 Q30.7 74.05 30.65 73.8 M31.55 73.05 L33.9 72.85 Q35.55 72.85 35.95 73.25 L39.05 73.45 Q41.4 73.55 41.55 74.65 L50.15 69.8 Q51.45 69.15 52.25 68.85 L49.85 68.45 Q49.85 68.0 52.05 68.15 L49.8 66.4 48.3 65.15 48.2 65.2 48.2 65.25 47.35 65.75 45.95 66.1 45.65 66.05 Q37.9 69.05 31.65 72.95 L31.55 73.05 M61.2 56.55 L61.6 53.95 Q61.05 49.8 60.0 49.6 59.35 49.75 59.1 50.65 L57.95 54.15 59.7 56.4 60.25 56.95 60.85 57.45 60.95 57.1 61.2 56.55 M62.55 59.8 Q62.55 59.3 62.95 59.3 L63.35 59.35 63.4 59.8 63.35 60.3 63.05 60.4 62.55 59.8 M64.1 61.75 L59.75 61.05 59.8 60.9 59.45 61.1 Q58.25 61.85 56.8 61.85 55.05 61.85 52.45 60.55 50.2 59.4 49.85 58.5 L49.8 58.5 49.45 58.3 49.5 58.5 49.15 58.8 48.85 58.65 47.4 62.0 Q47.4 63.1 48.3 64.05 L51.5 67.1 63.0 68.4 67.6 67.15 67.55 67.05 Q67.55 66.75 67.95 66.75 L68.3 66.85 69.85 66.15 Q70.65 65.75 73.1 62.8 L68.5 63.15 64.8 62.95 64.5 63.1 Q64.15 63.1 63.6 62.7 L63.0 62.05 Q63.0 61.65 64.15 61.8 L64.1 61.75 M65.95 60.4 Q65.95 58.7 62.65 58.65 L60.15 58.55 Q60.5 59.05 60.5 59.75 L60.0 60.7 60.2 60.75 60.2 60.8 64.25 61.15 Q65.95 61.15 65.95 60.4 M69.9 69.15 L70.45 68.7 Q70.7 68.5 71.0 68.4 L68.3 67.55 65.05 68.6 69.65 69.4 Q69.65 69.15 69.9 69.15 M70.5 69.6 L70.75 69.8 71.05 70.05 71.2 69.8 Q71.5 69.8 71.5 70.3 71.5 72.0 70.15 72.25 L70.2 72.4 70.65 72.85 71.15 72.55 71.0 72.45 Q71.0 72.2 71.25 72.2 L71.4 72.2 71.75 71.5 72.25 69.9 72.0 68.8 70.75 69.25 70.5 69.6 M70.85 70.75 L70.9 70.55 70.4 70.1 63.05 69.0 58.45 69.35 57.55 69.35 69.75 71.7 Q70.65 71.7 70.85 70.75 M72.85 69.9 L72.55 71.2 72.65 71.2 75.55 71.85 81.15 72.4 Q80.85 72.1 80.85 71.55 L80.65 71.3 80.45 70.75 79.6 70.35 77.85 70.0 Q75.6 69.35 74.6 69.25 L72.65 68.8 72.85 69.9 M50.7 57.6 Q50.35 57.8 50.35 58.1 L50.6 58.25 50.45 58.45 51.9 59.55 Q53.35 60.35 54.0 60.35 L54.75 60.8 56.85 61.25 Q58.0 61.25 59.05 60.6 L59.9 59.75 Q59.9 57.4 53.35 57.2 L53.1 57.2 Q52.5 57.8 51.9 57.5 L50.7 57.6 M57.25 58.7 Q57.45 58.75 57.55 58.95 L57.55 59.7 57.3 59.8 56.95 59.75 56.95 58.9 57.0 58.75 57.25 58.7 M40.7 55.3 Q41.05 56.75 42.95 57.9 L47.45 59.8 48.4 58.4 Q46.95 57.55 45.65 57.05 L41.3 55.3 40.7 55.3 M47.75 73.55 L48.7 74.45 55.5 69.6 53.75 69.2 53.3 69.05 50.1 70.6 Q48.1 71.55 47.25 72.2 L47.75 73.55 M52.2 68.3 L52.05 68.15 51.2 68.15 52.2 68.3 M56.35 69.75 L51.75 72.85 Q49.05 75.35 47.1 76.0 L47.15 76.15 46.75 77.75 46.95 78.8 Q49.15 77.05 49.85 77.05 50.25 77.05 50.6 77.55 L56.45 69.8 56.35 69.75 M59.75 68.75 L53.9 68.2 58.45 68.75 59.75 68.75" fill="#000000" fill-rule="evenodd" stroke="none"/>
      <path d="M82.35 68.7 L82.0 69.2 81.1 70.3 80.35 70.0 Q79.25 69.6 78.55 69.5 L69.3 67.15 69.85 66.9 Q70.15 67.2 73.25 67.5 L81.95 68.5 82.35 68.7 M52.6 49.0 L52.65 49.0 58.95 56.2 58.9 56.25 Q58.9 56.55 59.75 57.2 L60.75 58.0 60.85 58.1 59.8 58.1 58.95 57.65 Q56.2 56.55 53.95 56.55 50.25 56.55 49.8 57.8 L49.3 57.6 46.35 50.85 Q49.1 52.35 51.05 52.35 52.05 52.35 52.35 51.15 L52.6 49.0 M61.2 56.55 L60.95 57.1 60.85 57.45 60.25 56.95 59.7 56.4 57.95 54.15 59.1 50.65 Q59.35 49.75 60.0 49.6 61.05 49.8 61.6 53.95 L61.2 56.55 M31.55 73.05 L31.65 72.95 Q37.9 69.05 45.65 66.05 L45.95 66.1 47.35 65.75 48.2 65.25 48.2 65.2 48.3 65.15 49.8 66.4 52.05 68.15 Q49.85 68.0 49.85 68.45 L52.25 68.85 Q51.45 69.15 50.15 69.8 L41.55 74.65 Q41.4 73.55 39.05 73.45 L35.95 73.25 Q35.55 72.85 33.9 72.85 L31.55 73.05 M70.85 70.75 Q70.65 71.7 69.75 71.7 L57.55 69.35 58.45 69.35 63.05 69.0 70.4 70.1 70.9 70.55 70.85 70.75 M40.7 55.3 L41.3 55.3 45.65 57.05 Q46.95 57.55 48.4 58.4 L47.45 59.8 42.95 57.9 Q41.05 56.75 40.7 55.3 M56.35 69.75 L56.45 69.8 50.6 77.55 Q50.25 77.05 49.85 77.05 49.15 77.05 46.95 78.8 L46.75 77.75 47.15 76.15 47.1 76.0 Q49.05 75.35 51.75 72.85 L56.35 69.75" fill="#ffb600" fill-rule="evenodd" stroke="none"/>
      <path d="M47.75 73.55 L47.25 72.2 Q48.1 71.55 50.1 70.6 L53.3 69.05 53.75 69.2 55.5 69.6 48.7 74.45 47.75 73.55" fill="#a800a0" fill-rule="evenodd" stroke="none"/>
      <path d="M64.1 61.75 L64.15 61.8 Q63.0 61.65 63.0 62.05 L63.6 62.7 Q64.15 63.1 64.5 63.1 L64.8 62.95 68.5 63.15 73.1 62.8 Q70.65 65.75 69.85 66.15 L68.3 66.85 67.95 66.75 Q67.55 66.75 67.55 67.05 L67.6 67.15 63.0 68.4 51.5 67.1 48.3 64.05 Q47.4 63.1 47.4 62.0 L48.85 58.65 49.15 58.8 49.5 58.5 49.45 58.3 49.8 58.5 49.85 58.5 Q50.2 59.4 52.45 60.55 55.05 61.85 56.8 61.85 58.25 61.85 59.45 61.1 L59.8 60.9 59.75 61.05 64.1 61.75" fill="#9cb9cb" fill-rule="evenodd" stroke="none"/>
      <path d="M83.65 71.1 L83.95 70.35 91.2 71.7 Q90.7 73.15 88.7 73.15 86.4 72.05 85.6 72.05 L85.5 72.2 Q85.0 72.3 84.95 72.85 L84.85 72.8 84.2 72.75 83.0 71.75 83.65 71.1 M83.35 68.8 L83.4 68.8 83.4 69.35 82.55 69.3 82.75 68.95 83.05 69.1 83.35 68.8 M81.15 71.05 L81.2 71.05 81.6 71.2 81.9 70.9 81.65 70.55 82.25 69.75 Q82.45 70.0 83.35 70.25 L83.1 70.8 82.35 71.6 82.25 71.6 82.25 71.65 81.85 71.95 Q81.65 71.95 81.55 71.8 L81.7 71.55 81.35 71.35 81.15 71.05 M85.75 73.95 Q84.85 75.4 83.1 75.4 L79.7 74.4 Q77.3 73.45 76.8 73.45 L76.45 73.9 78.7 74.85 78.35 74.8 78.0 74.95 Q78.1 75.95 78.75 76.15 L78.5 76.85 74.1 73.05 73.8 73.1 73.8 73.2 73.1 72.85 Q72.45 72.55 72.0 72.4 L72.25 71.9 72.35 71.7 Q74.3 72.35 76.15 72.6 85.0 73.55 85.75 73.95 M62.55 59.8 L63.05 60.4 63.35 60.3 63.4 59.8 63.35 59.35 62.95 59.3 Q62.55 59.3 62.55 59.8 M65.95 60.4 Q65.95 61.15 64.25 61.15 L60.2 60.8 60.2 60.75 60.0 60.7 60.5 59.75 Q60.5 59.05 60.15 58.55 L62.65 58.65 Q65.95 58.7 65.95 60.4 M70.5 69.6 L70.75 69.25 72.0 68.8 72.25 69.9 71.75 71.5 71.4 72.2 71.25 72.2 Q71.0 72.2 71.0 72.45 L71.15 72.55 70.65 72.85 70.2 72.4 70.15 72.25 Q71.5 72.0 71.5 70.3 71.5 69.8 71.2 69.8 L71.05 70.05 70.75 69.8 70.5 69.6 M57.25 58.7 L57.0 58.75 56.95 58.9 56.95 59.75 57.3 59.8 57.55 59.7 57.55 58.95 Q57.45 58.75 57.25 58.7 M50.7 57.6 L51.9 57.5 Q52.5 57.8 53.1 57.2 L53.35 57.2 Q59.9 57.4 59.9 59.75 L59.05 60.6 Q58.0 61.25 56.85 61.25 L54.75 60.8 54.0 60.35 Q53.35 60.35 51.9 59.55 L50.45 58.45 50.6 58.25 50.35 58.1 Q50.35 57.8 50.7 57.6" fill="#ffffff" fill-rule="evenodd" stroke="none"/>
    </g>
  </defs>
</svg>
