<?xml version="1.0" encoding="UTF-8" standalone="no"?>
<svg xmlns:ffdec="https://www.free-decompiler.com/flash" xmlns:xlink="http://www.w3.org/1999/xlink" ffdec:objectType="frame" height="500.0px" width="500.0px" xmlns="http://www.w3.org/2000/svg">
  <g transform="matrix(5.0, 0.0, 0.0, 5.0, 0.0, 0.0)">
    <use ffdec:characterId="3" height="46.2" transform="matrix(1.0, 0.0, 0.0, 1.0, 0.0, 0.0)" width="40.6" xlink:href="#shape0"/>
  </g>
  <defs>
    <g id="shape0">
      <path d="M53.4 81.8 L52.85 81.75 Q52.6 83.65 51.1 84.35 L50.45 87.25 57.65 87.35 57.95 87.7 58.6 88.45 59.8 90.05 Q59.85 90.35 59.5 90.4 L54.1 90.4 54.75 90.35 54.15 90.35 51.25 90.35 49.75 90.15 47.75 90.2 47.4 90.15 47.35 90.2 34.25 90.25 Q34.35 89.85 35.5 89.15 L37.2 87.95 44.3 87.15 44.45 85.95 Q44.1 84.45 44.1 83.1 L44.15 82.4 Q41.95 83.9 38.75 85.65 L38.45 85.35 40.4 81.45 38.35 82.05 38.25 82.15 37.2 83.1 Q35.95 84.05 35.35 84.05 34.05 84.05 33.3 82.3 32.8 81.15 32.8 80.4 L32.8 80.35 31.95 79.5 Q31.45 78.75 31.45 78.25 31.45 76.95 32.55 76.85 L32.45 75.8 Q32.45 73.25 34.25 70.8 34.75 70.05 37.5 68.1 40.4 65.95 41.3 65.95 L41.45 65.95 41.35 65.9 40.3 64.9 39.25 63.75 38.85 63.25 Q37.15 61.1 37.05 59.65 35.35 59.65 33.05 58.7 L30.8 57.6 29.95 55.0 Q29.95 54.2 31.1 54.2 L38.35 57.05 42.0 57.9 41.3 56.85 41.35 56.6 41.4 56.6 Q39.95 54.65 36.95 48.7 L37.0 48.25 37.3 48.2 47.55 52.6 47.3 52.3 Q47.3 51.85 55.2 44.2 L55.6 44.25 55.65 44.55 Q55.65 46.3 53.5 52.65 L53.55 52.75 55.35 51.75 56.25 50.05 Q57.4 48.3 58.4 48.3 60.3 48.3 60.3 50.55 59.3 55.7 58.05 56.3 L58.05 57.55 57.8 59.15 61.05 59.65 Q66.25 59.65 67.0 58.95 L67.4 58.3 68.35 57.7 68.35 56.7 68.55 55.3 68.7 55.2 68.95 55.25 68.95 54.7 70.15 53.55 70.5 53.6 70.55 54.7 Q70.55 58.55 68.65 58.55 L68.6 58.55 68.65 58.7 Q68.6 59.85 66.75 62.05 64.95 64.1 63.4 65.1 L60.55 66.65 60.1 66.85 57.05 67.95 58.1 69.1 59.55 71.4 60.1 73.9 Q60.2 73.7 60.6 73.7 L61.05 73.8 61.45 73.7 Q63.3 73.7 63.3 77.25 63.3 79.9 62.3 79.9 L62.25 79.9 61.75 80.85 60.85 82.2 Q59.75 83.4 58.9 83.4 L58.2 83.4 58.05 83.4 57.7 83.35 57.45 83.3 57.9 84.65 57.85 84.95 57.65 85.05 Q57.0 85.05 55.4 83.85 L53.3 82.4 53.3 81.85 53.4 81.85 53.6 81.8 56.9 84.0 56.2 82.05 Q55.8 81.65 55.8 80.75 L55.8 80.7 Q55.45 79.2 55.45 77.9 55.45 76.95 56.35 76.95 L56.9 77.0 57.4 76.8 57.5 76.8 Q55.75 74.3 55.5 73.2 54.3 70.4 54.3 69.15 L54.45 68.8 54.6 68.8 55.65 71.75 55.9 71.7 Q57.85 71.7 58.35 76.9 59.1 76.6 59.05 75.95 59.0 75.3 59.5 75.05 L59.6 75.15 59.55 75.05 Q59.35 74.6 59.3 73.95 L58.95 71.9 Q57.9 69.3 56.15 68.25 L51.3 69.3 51.3 69.95 Q51.85 71.45 51.8 74.55 L52.8 79.2 52.65 79.4 52.9 80.65 53.8 81.45 53.4 81.8 M54.6 45.75 L54.6 45.65 54.55 45.7 47.65 52.65 49.55 53.45 Q49.55 53.8 49.15 53.8 48.3 53.8 37.7 49.05 38.6 50.95 42.8 57.2 L42.55 57.5 42.95 58.15 46.3 58.85 46.3 58.8 Q46.3 57.8 47.2 56.8 48.4 55.45 50.45 55.45 51.8 55.45 52.45 56.25 L52.45 55.1 Q52.7 54.25 53.4 53.85 L53.15 53.3 52.95 53.0 53.0 52.85 52.8 52.35 52.85 52.1 53.1 52.05 53.15 52.05 54.6 45.75 M30.55 54.85 L30.65 56.1 Q30.8 56.85 31.65 57.4 32.3 57.8 36.2 58.8 L36.05 58.35 36.35 58.3 37.25 58.55 Q37.5 57.95 38.2 57.95 L38.6 58.1 38.65 58.25 38.15 59.05 38.95 59.65 39.25 59.15 Q39.4 58.55 39.8 58.4 L40.0 58.2 Q36.4 57.05 31.7 54.85 L30.55 54.85 M38.65 60.15 L37.7 59.95 Q37.85 60.75 38.7 62.0 L38.7 61.6 Q38.7 60.7 38.85 60.15 L38.65 60.15 M40.05 59.65 L39.85 59.95 Q39.3 60.8 39.3 61.55 39.3 62.55 39.7 63.2 L40.95 64.6 Q43.85 67.55 46.85 68.35 L46.95 68.05 47.1 68.05 47.55 68.55 49.0 68.65 50.75 68.6 51.0 68.45 51.2 68.55 Q55.4 68.15 60.1 66.2 L60.55 66.0 61.95 65.2 Q67.25 62.05 68.05 59.0 L67.05 59.55 Q65.4 60.3 63.2 60.3 L60.55 60.25 60.1 60.2 57.4 59.75 Q56.65 60.55 55.15 60.55 54.05 60.55 53.6 60.05 L52.9 59.8 52.35 60.65 Q51.3 61.9 49.65 61.9 48.2 61.9 47.2 60.8 46.55 60.1 46.4 59.4 L46.25 59.4 43.1 59.05 42.95 59.05 42.85 59.0 40.65 58.4 40.1 59.6 40.05 59.65 M39.8 84.3 L45.05 81.05 Q45.8 81.05 45.8 84.0 47.95 80.85 47.95 75.15 L47.45 70.0 46.95 68.9 Q44.15 68.15 41.85 66.3 L40.45 66.8 Q38.8 67.6 37.8 68.55 L34.95 70.9 Q33.05 72.65 33.05 75.85 33.05 76.5 33.2 76.95 L33.35 76.7 33.45 77.5 Q33.85 77.95 34.5 77.95 L35.1 77.55 35.4 77.8 35.4 78.0 36.1 77.7 Q35.65 77.35 35.4 76.2 L35.2 74.45 Q35.2 72.8 36.3 71.2 37.8 68.95 40.75 68.95 41.55 68.95 41.55 69.25 L41.2 69.3 42.05 70.2 42.0 70.4 41.75 70.55 41.35 70.5 41.3 70.85 41.3 72.2 41.4 73.3 41.55 76.95 41.55 77.55 Q42.4 77.55 42.4 80.2 42.4 81.1 40.95 81.35 L39.75 84.3 39.55 84.45 39.8 84.3 M36.85 71.45 Q35.8 72.45 35.8 74.4 L36.05 75.75 Q36.1 75.3 37.1 75.3 37.7 75.3 38.05 75.7 L39.05 74.55 40.95 77.0 40.8 72.25 Q40.55 71.3 40.55 70.0 L40.75 69.55 40.7 69.35 40.05 69.5 Q38.3 70.0 36.85 71.45 M37.2 82.4 Q36.45 82.4 36.45 81.85 L37.05 81.75 38.0 81.6 38.1 81.45 38.2 81.55 39.1 81.0 39.55 80.85 39.6 80.85 40.8 80.2 Q41.5 79.75 41.5 79.35 41.45 78.5 40.85 78.25 L40.85 78.1 40.65 78.15 40.65 78.2 40.1 78.1 39.4 78.15 39.2 77.35 39.5 77.2 Q39.95 77.2 40.4 77.75 L40.65 77.45 Q39.05 75.95 39.2 75.35 L39.05 75.3 38.3 76.7 38.3 76.95 Q38.3 77.75 37.9 78.5 L37.75 78.6 36.85 79.3 36.35 79.65 36.25 80.0 36.3 80.15 Q35.3 80.65 34.0 80.65 L33.4 80.6 33.85 81.7 Q34.55 83.35 35.25 83.35 36.2 83.35 37.2 82.45 L37.25 82.4 37.2 82.4 M34.95 79.9 L37.6 78.0 37.7 76.95 37.75 76.75 37.7 76.75 37.7 76.6 37.6 76.3 Q37.4 75.7 36.6 76.05 L36.15 76.05 36.8 77.65 36.9 77.75 33.6 79.65 Q33.15 79.65 33.05 78.9 L33.05 78.15 32.75 77.7 32.05 78.35 Q32.05 78.75 32.7 79.35 33.4 80.0 34.05 80.0 L34.95 79.95 35.0 79.95 34.95 79.9 M33.7 78.95 L34.2 78.65 33.6 78.5 33.65 78.9 33.7 78.95 M56.2 51.3 Q56.35 51.3 56.5 51.45 L56.55 51.6 Q56.55 52.1 53.7 53.25 L53.8 53.65 55.2 53.45 Q57.25 53.45 57.85 55.35 59.7 52.8 59.7 50.55 59.6 48.95 58.4 48.95 57.75 48.95 56.8 50.35 L56.2 51.3 M53.55 54.5 L53.05 55.2 Q52.9 55.75 53.05 56.45 L52.8 56.55 52.65 56.55 Q53.15 57.3 53.15 58.6 L53.15 59.0 54.4 59.75 54.4 59.8 54.65 59.9 Q56.1 59.9 56.8 59.3 L56.8 59.1 57.0 59.1 Q57.45 58.5 57.45 57.55 L57.4 56.35 57.3 56.35 57.2 56.1 57.3 56.0 Q56.85 54.1 55.1 54.1 L53.9 54.3 53.85 54.45 53.65 54.55 53.6 54.45 53.55 54.5 M52.45 58.95 L52.55 58.9 52.55 58.6 Q52.55 56.1 49.7 56.1 48.55 56.1 47.65 57.25 46.9 58.2 46.9 58.8 46.9 61.1 49.25 61.1 52.15 61.1 52.5 59.2 L52.45 58.95 M56.35 56.3 Q56.9 56.3 56.9 57.0 56.9 57.8 56.3 57.8 55.9 57.8 55.8 57.4 L55.8 57.0 Q55.8 56.3 56.35 56.3 M50.3 58.05 Q50.9 58.05 50.9 58.95 L50.25 59.55 49.95 59.4 49.95 58.1 50.3 58.05 M47.9 69.55 Q48.2 69.85 48.4 72.3 L48.55 75.15 48.35 79.5 52.05 78.95 Q51.25 76.2 50.95 74.0 L50.95 71.3 50.7 71.25 50.7 69.3 50.45 69.3 47.75 69.05 47.9 69.55 M56.2 73.45 Q56.5 74.4 57.7 76.15 L57.5 75.5 Q57.0 73.45 55.9 72.5 L56.2 73.45 M59.8 75.6 Q59.75 77.4 58.7 77.55 L59.05 78.05 59.05 78.1 Q60.05 77.2 60.8 75.15 L60.15 74.25 60.15 75.1 59.95 75.8 59.8 75.6 M58.6 78.3 L57.3 77.75 57.65 78.2 57.4 78.55 57.4 78.75 58.65 78.4 58.8 78.3 58.6 78.3 M56.7 77.6 L56.05 77.6 56.05 78.3 56.25 79.15 56.55 79.05 56.7 79.05 Q56.45 78.75 56.45 78.2 L56.65 78.05 56.7 78.05 56.7 77.6 M62.45 79.15 L62.7 78.55 62.7 77.3 62.6 75.4 61.4 74.2 61.4 75.2 Q61.4 75.9 60.3 77.5 58.95 79.4 57.45 79.4 L57.05 79.35 56.6 80.4 56.95 81.75 57.7 81.85 57.75 81.8 58.15 82.5 58.8 82.7 Q60.3 82.7 60.85 81.65 L60.7 81.45 61.05 80.55 61.05 80.35 61.15 80.35 61.35 79.95 62.1 78.7 62.4 79.1 62.4 79.15 62.45 79.15 M41.55 79.05 L41.45 80.05 41.3 80.55 41.8 80.2 41.55 79.05 M45.65 85.4 L45.8 86.55 45.85 86.45 46.0 86.45 Q47.05 86.45 47.35 89.2 48.25 88.0 48.9 87.5 L49.45 85.2 49.6 84.75 48.7 84.8 46.55 84.45 45.65 85.4" fill="#000000" fill-rule="evenodd" stroke="none"/>
      <path d="M40.05 59.65 L40.1 59.6 40.65 58.4 42.85 59.0 42.95 59.05 43.1 59.05 46.25 59.4 46.4 59.4 Q46.55 60.1 47.2 60.8 48.2 61.9 49.65 61.9 51.3 61.9 52.35 60.65 L52.9 59.8 53.6 60.05 Q54.05 60.55 55.15 60.55 56.65 60.55 57.4 59.75 L60.1 60.2 60.55 60.25 63.2 60.3 Q65.4 60.3 67.05 59.55 L68.05 59.0 Q67.25 62.05 61.95 65.2 L60.55 66.0 60.1 66.2 Q55.4 68.15 51.2 68.55 L51.0 68.45 50.75 68.6 49.0 68.65 47.55 68.55 47.1 68.05 46.95 68.05 46.85 68.35 Q43.85 67.55 40.95 64.6 L39.7 63.2 Q39.3 62.55 39.3 61.55 39.3 60.8 39.85 59.95 L40.05 59.65" fill="#9cb9cb" fill-rule="evenodd" stroke="none"/>
      <path d="M53.4 81.85 L53.4 81.8 53.8 81.45 52.9 80.65 52.65 79.4 52.8 79.2 51.8 74.55 Q51.85 71.45 51.3 69.95 L51.3 69.3 56.15 68.25 Q57.9 69.3 58.95 71.9 L59.3 73.95 Q59.35 74.6 59.55 75.05 L59.5 75.05 Q59.0 75.3 59.05 75.95 59.1 76.6 58.35 76.9 57.85 71.7 55.9 71.7 L55.65 71.75 54.6 68.8 54.45 68.8 54.3 69.15 Q54.3 70.4 55.5 73.2 55.75 74.3 57.5 76.8 L57.4 76.8 56.9 77.0 56.35 76.95 Q55.45 76.95 55.45 77.9 55.45 79.2 55.8 80.7 L55.8 80.75 Q55.8 81.65 56.2 82.05 L56.9 84.0 53.6 81.8 53.4 81.85 M54.55 45.7 L54.6 45.75 53.15 52.05 53.1 52.05 52.85 52.1 52.8 52.35 53.0 52.85 52.95 53.0 53.15 53.3 53.4 53.85 Q52.7 54.25 52.45 55.1 L52.45 56.25 Q51.8 55.45 50.45 55.45 48.4 55.45 47.2 56.8 46.3 57.8 46.3 58.8 L46.3 58.85 42.95 58.15 42.55 57.5 42.8 57.2 Q38.6 50.95 37.7 49.05 48.3 53.8 49.15 53.8 49.55 53.8 49.55 53.45 L47.65 52.65 54.55 45.7 M30.55 54.85 L31.7 54.85 Q36.4 57.05 40.0 58.2 L39.8 58.4 Q39.4 58.55 39.25 59.15 L38.95 59.65 38.15 59.05 38.65 58.25 38.6 58.1 38.2 57.95 Q37.5 57.95 37.25 58.55 L36.35 58.3 36.05 58.35 36.2 58.8 Q32.3 57.8 31.65 57.4 30.8 56.85 30.65 56.1 L30.55 54.85 M39.75 84.3 L40.95 81.35 Q42.4 81.1 42.4 80.2 42.4 77.55 41.55 77.55 L41.55 76.95 41.4 73.3 41.3 72.2 41.3 70.85 41.35 70.5 41.75 70.55 42.0 70.4 42.05 70.2 41.2 69.3 41.55 69.25 Q41.55 68.95 40.75 68.95 37.8 68.95 36.3 71.2 35.2 72.8 35.2 74.45 L35.4 76.2 Q35.65 77.35 36.1 77.7 L35.4 78.0 35.4 77.8 35.1 77.55 34.5 77.95 Q33.85 77.95 33.45 77.5 L33.35 76.7 33.2 76.95 Q33.05 76.5 33.05 75.85 33.05 72.65 34.95 70.9 L37.8 68.55 Q38.8 67.6 40.45 66.8 L41.85 66.3 Q44.15 68.15 46.95 68.9 L47.45 70.0 47.95 75.15 Q47.95 80.85 45.8 84.0 45.8 81.05 45.05 81.05 L39.8 84.3 39.75 84.3 M56.2 51.3 L56.8 50.35 Q57.75 48.95 58.4 48.95 59.6 48.95 59.7 50.55 59.7 52.8 57.85 55.35 57.25 53.45 55.2 53.45 L53.8 53.65 53.7 53.25 Q56.55 52.1 56.55 51.6 L56.5 51.45 Q56.35 51.3 56.2 51.3" fill="#ffb600" fill-rule="evenodd" stroke="none"/>
      <path d="M47.9 69.55 L47.75 69.05 50.45 69.3 50.7 69.3 50.7 71.25 50.95 71.3 50.95 74.0 Q51.25 76.2 52.05 78.95 L48.35 79.5 48.55 75.15 48.4 72.3 Q48.2 69.85 47.9 69.55" fill="#a800a0" fill-rule="evenodd" stroke="none"/>
      <path d="M37.2 82.45 Q36.2 83.35 35.25 83.35 34.55 83.35 33.85 81.7 L33.4 80.6 34.0 80.65 Q35.3 80.65 36.3 80.15 L36.25 80.0 36.35 79.65 36.85 79.3 37.75 78.6 37.9 78.5 Q38.3 77.75 38.3 76.95 L38.3 76.7 39.05 75.3 39.2 75.35 Q39.05 75.95 40.65 77.45 L40.4 77.75 Q39.95 77.2 39.5 77.2 L39.2 77.35 39.4 78.15 40.1 78.1 40.65 78.2 40.65 78.15 40.85 78.1 40.85 78.25 Q41.45 78.5 41.5 79.35 41.5 79.75 40.8 80.2 L39.6 80.85 39.55 80.85 39.1 81.0 38.2 81.55 38.1 81.45 38.0 81.6 37.05 81.75 36.45 81.85 Q36.45 82.4 37.2 82.4 L37.2 82.45 M34.95 79.95 L34.05 80.0 Q33.4 80.0 32.7 79.35 32.05 78.75 32.05 78.35 L32.75 77.7 33.05 78.15 33.05 78.9 Q33.15 79.65 33.6 79.65 L36.9 77.75 36.8 77.65 36.15 76.05 36.6 76.05 Q37.4 75.7 37.6 76.3 L37.7 76.6 37.7 76.75 37.75 76.75 37.7 76.95 37.6 78.0 34.95 79.9 34.95 79.95 M53.55 54.5 L53.65 54.55 53.85 54.45 53.9 54.3 55.1 54.1 Q56.85 54.1 57.3 56.0 L57.2 56.1 57.3 56.35 57.4 56.35 57.45 57.55 Q57.45 58.5 57.0 59.1 L56.8 59.1 56.8 59.3 Q56.1 59.9 54.65 59.9 L54.4 59.8 54.4 59.75 53.15 59.0 53.15 58.6 Q53.15 57.3 52.65 56.55 L52.8 56.55 53.05 56.45 Q52.9 55.75 53.05 55.2 L53.55 54.5 M50.3 58.05 L49.95 58.1 49.95 59.4 50.25 59.55 50.9 58.95 Q50.9 58.05 50.3 58.05 M56.35 56.3 Q55.8 56.3 55.8 57.0 L55.8 57.4 Q55.9 57.8 56.3 57.8 56.9 57.8 56.9 57.0 56.9 56.3 56.35 56.3 M52.45 58.95 L52.5 59.2 Q52.15 61.1 49.25 61.1 46.9 61.1 46.9 58.8 46.9 58.2 47.65 57.25 48.55 56.1 49.7 56.1 52.55 56.1 52.55 58.6 L52.55 58.9 52.45 58.95 M58.65 78.4 L57.4 78.75 57.4 78.55 57.65 78.2 57.3 77.75 58.6 78.3 58.65 78.4 M62.4 79.1 L62.1 78.7 61.35 79.95 61.15 80.35 61.05 80.35 61.05 80.55 60.7 81.45 60.85 81.65 Q60.3 82.7 58.8 82.7 L58.15 82.5 57.75 81.8 57.7 81.85 56.95 81.75 56.6 80.4 57.05 79.35 57.45 79.4 Q58.95 79.4 60.3 77.5 61.4 75.9 61.4 75.2 L61.4 74.2 62.6 75.4 62.7 77.3 62.7 78.55 62.45 79.15 62.4 79.1" fill="#ffffff" fill-rule="evenodd" stroke="none"/>
    </g>
  </defs>
</svg>
