<?xml version="1.0" encoding="UTF-8" standalone="no"?>
<svg xmlns:ffdec="https://www.free-decompiler.com/flash" xmlns:xlink="http://www.w3.org/1999/xlink" ffdec:objectType="frame" height="500.0px" width="500.0px" xmlns="http://www.w3.org/2000/svg">
  <g transform="matrix(5.0, 0.0, 0.0, 5.0, 0.0, 0.0)">
    <use ffdec:characterId="1" height="55.35" transform="matrix(1.0, 0.0, 0.0, 1.0, 0.0, 0.0)" width="35.0" xlink:href="#shape0"/>
  </g>
  <defs>
    <g id="shape0">
      <path d="M59.25 36.45 Q60.1 36.45 60.5 37.0 60.9 37.55 61.75 37.45 L63.0 39.15 63.3 39.0 63.3 38.85 63.5 39.05 63.7 40.25 Q63.7 41.1 63.3 41.45 61.7 41.85 61.4 42.5 L60.85 42.45 59.4 42.7 Q59.35 42.55 59.15 42.55 59.85 42.55 60.8 41.6 61.4 41.6 61.4 41.3 L61.3 41.0 60.7 40.95 Q59.7 41.9 59.0 41.9 58.45 41.9 58.0 40.9 L57.65 39.75 Q57.7 38.95 57.9 38.1 58.3 36.45 59.25 36.45 M58.65 42.45 L59.15 42.55 58.7 42.7 58.6 42.65 58.65 42.45 M57.05 39.6 L57.05 39.85 Q57.05 40.4 57.5 41.3 L58.15 42.15 56.65 41.75 56.55 40.8 57.05 39.6 M59.0 45.35 L58.65 44.8 Q58.65 43.1 60.75 43.1 62.7 43.1 62.7 45.05 L62.45 45.65 62.45 45.75 62.05 45.75 62.05 44.8 Q62.05 43.3 60.55 43.3 59.55 43.3 59.55 43.85 L59.5 43.8 59.0 45.35 M52.6 48.55 Q53.15 47.35 54.7 47.35 56.5 47.35 56.55 51.85 55.9 55.25 53.65 55.25 52.5 54.55 52.2 54.55 52.55 53.7 52.55 52.55 52.75 50.9 52.05 50.0 L52.6 48.55 M35.35 46.6 L35.2 46.65 34.5 46.95 34.5 47.0 33.8 47.55 34.1 47.9 34.3 47.8 34.25 48.35 34.05 48.25 33.75 48.4 Q33.4 47.95 33.15 47.95 L33.0 48.0 32.9 47.8 33.3 46.45 Q33.95 45.1 35.2 45.1 L35.55 45.15 35.35 46.6 M33.4 38.2 Q33.65 37.45 35.1 37.45 36.2 37.45 37.05 41.3 37.05 43.4 34.55 43.4 L33.25 42.8 33.05 43.0 Q33.4 44.05 34.9 44.05 L36.4 43.8 36.25 44.15 35.85 44.55 35.25 44.45 34.2 44.65 33.3 44.5 33.2 44.5 33.0 44.45 Q32.25 44.25 31.85 43.15 31.15 41.75 31.15 41.35 32.3 41.15 33.2 39.35 L33.4 38.2 M37.65 41.35 Q37.65 40.4 37.1 38.9 L37.0 38.65 38.1 37.7 Q39.05 37.7 39.05 40.35 38.95 42.85 37.35 42.9 L37.65 41.35 M35.9 46.35 L35.9 46.05 36.1 45.3 36.85 45.9 37.05 45.85 37.25 46.1 36.9 46.05 35.9 46.35 M51.95 52.5 L51.5 54.25 Q51.3 53.3 50.2 53.3 49.45 53.3 49.45 54.25 L49.7 55.35 50.05 55.4 50.9 55.1 Q49.95 55.9 48.2 55.9 47.9 55.9 47.45 55.6 48.3 55.7 48.3 55.25 45.9 54.6 45.9 52.75 45.9 51.3 48.3 49.6 51.85 48.6 51.95 52.5 M55.9 53.05 L55.85 52.95 55.1 52.7 54.8 52.75 54.7 53.95 55.0 54.4 Q55.9 53.7 55.9 53.05" fill="#ffffff" fill-rule="evenodd" stroke="none"/>
      <path d="M59.25 36.45 Q58.3 36.45 57.9 38.1 57.7 38.95 57.65 39.75 L58.0 40.9 Q58.45 41.9 59.0 41.9 59.7 41.9 60.7 40.95 L61.3 41.0 61.4 41.3 Q61.4 41.6 60.8 41.6 59.85 42.55 59.15 42.55 59.35 42.55 59.4 42.7 L60.85 42.45 61.4 42.5 Q61.7 41.85 63.3 41.45 63.7 41.1 63.7 40.25 L63.5 39.05 63.3 38.85 63.3 39.0 63.0 39.15 61.75 37.45 Q60.9 37.55 60.5 37.0 60.1 36.45 59.25 36.45 M50.35 42.7 L51.5 45.75 51.55 44.5 Q51.55 42.1 51.95 41.15 L51.7 39.4 Q51.75 37.95 53.15 37.95 55.8 37.95 55.15 42.35 L54.85 46.7 Q57.25 46.7 57.15 51.85 57.15 52.85 56.4 54.15 L56.3 54.3 56.8 54.35 56.7 54.25 58.85 45.9 Q58.2 45.85 58.05 45.4 L58.05 44.9 Q58.05 43.8 58.65 43.2 L58.2 42.75 57.6 42.8 Q56.2 42.8 55.95 41.85 L55.95 40.8 Q55.95 38.1 57.35 37.45 L57.45 37.45 Q58.0 35.8 59.3 35.8 60.2 35.8 60.75 36.3 61.25 36.8 61.75 36.8 62.15 36.8 62.5 37.1 L62.55 37.1 Q62.85 37.1 63.25 37.6 L63.5 37.45 Q64.0 37.45 64.25 39.2 L64.4 39.55 64.3 39.8 64.3 40.25 Q64.2 42.55 62.3 42.8 63.3 43.4 63.3 45.1 L63.4 45.3 Q63.4 46.25 62.1 46.25 L62.0 46.25 Q61.65 50.4 59.4 53.65 61.3 52.7 62.65 51.15 63.05 50.65 63.15 49.3 63.2 48.25 63.95 47.85 L63.85 47.55 63.7 46.5 Q63.7 44.45 64.45 44.45 65.45 44.45 65.4 46.2 65.4 48.1 64.8 48.5 64.8 52.65 63.6 57.6 62.9 59.95 61.25 61.65 58.95 63.95 55.4 64.8 L56.0 67.7 Q56.75 70.3 58.8 72.0 L58.4 72.3 Q57.3 71.7 56.4 71.7 55.75 71.7 55.65 72.0 L55.65 72.35 Q55.65 73.25 56.85 75.8 58.05 78.35 58.05 79.0 58.15 79.55 57.75 79.55 57.2 79.55 55.25 78.6 L53.8 78.25 53.45 78.9 55.45 81.25 Q56.0 80.5 56.5 80.3 L56.8 81.2 56.75 82.8 58.5 84.9 62.9 78.7 Q64.65 78.7 65.55 80.3 61.4 89.4 60.4 89.4 59.7 89.4 58.9 88.45 L58.4 87.65 57.2 86.9 Q57.1 86.55 57.4 86.5 L57.7 86.05 56.7 84.95 56.65 86.7 49.05 91.15 Q48.65 91.15 48.4 90.2 L48.2 89.1 47.3 87.1 47.35 86.8 47.55 86.75 47.4 85.8 47.45 82.55 47.15 80.6 Q46.4 80.25 46.35 79.55 L46.15 79.65 Q45.45 79.65 45.15 78.9 44.85 78.1 44.25 78.1 43.7 78.1 42.8 79.5 L41.6 81.15 Q41.45 80.8 41.45 77.55 L41.45 73.85 Q41.45 68.0 40.55 64.7 L40.55 64.45 40.0 64.05 Q36.65 64.0 35.2 56.7 34.2 51.85 34.2 49.3 L34.2 48.8 33.9 48.95 33.6 49.15 Q32.6 49.15 32.35 48.5 L32.3 47.8 Q32.3 47.0 32.85 46.0 L33.55 45.1 33.5 45.05 33.05 45.15 Q32.05 45.15 31.2 43.25 L30.55 41.3 Q30.55 40.65 31.35 40.15 32.4 39.55 32.7 38.95 32.65 38.25 32.85 37.75 33.3 36.8 35.1 36.8 36.05 36.8 36.8 38.15 L37.1 37.65 Q37.6 37.05 38.1 37.05 39.75 37.05 39.65 40.3 39.65 43.55 37.7 43.55 L37.0 43.4 36.8 43.55 36.85 43.95 36.85 44.1 Q37.95 44.25 38.85 46.25 L40.1 49.45 41.6 52.15 42.75 53.55 43.75 54.25 43.4 53.25 43.3 53.25 43.2 52.75 43.15 52.6 43.15 52.55 40.95 40.7 Q40.95 40.45 41.1 40.3 L41.25 40.3 43.45 42.65 Q45.85 45.0 46.8 45.0 L47.45 45.0 47.4 44.95 47.55 44.65 47.55 43.35 48.1 37.2 Q49.7 40.5 50.35 42.7 M42.05 42.5 Q42.05 44.0 43.0 48.15 43.85 52.1 44.3 53.05 L44.25 53.2 44.65 54.25 44.65 54.4 44.95 54.45 45.75 54.4 Q45.3 53.45 45.3 52.8 45.3 52.0 46.05 50.8 47.2 48.95 49.35 48.95 50.9 48.95 51.7 49.65 51.75 49.1 52.1 48.5 51.45 48.1 50.4 44.95 48.95 40.5 48.35 39.55 L48.15 43.95 48.2 44.25 48.05 45.0 49.0 44.85 49.15 45.0 Q49.15 45.65 47.55 45.65 45.65 45.65 44.0 44.15 L42.1 42.35 42.05 42.5 M57.05 39.6 L56.55 40.8 56.65 41.75 58.15 42.15 57.5 41.3 Q57.05 40.4 57.05 39.85 L57.05 39.6 M58.65 42.45 L58.6 42.65 58.7 42.7 59.15 42.55 58.65 42.45 M53.7 38.6 L52.65 38.6 52.15 45.65 52.05 45.7 51.95 46.85 52.45 47.95 Q53.15 46.95 54.3 46.75 L54.2 46.45 54.55 42.35 Q54.55 39.3 53.7 38.6 M52.6 48.55 L52.05 50.0 Q52.75 50.9 52.55 52.55 52.55 53.7 52.2 54.55 52.5 54.55 53.65 55.25 55.9 55.25 56.55 51.85 56.5 47.35 54.7 47.35 53.15 47.35 52.6 48.55 M59.0 45.35 L59.5 43.8 59.55 43.85 Q59.55 43.3 60.55 43.3 62.05 43.3 62.05 44.8 L62.05 45.75 62.45 45.75 62.45 45.65 62.7 45.05 Q62.7 43.1 60.75 43.1 58.65 43.1 58.65 44.8 L59.0 45.35 M59.85 44.15 L59.55 43.85 59.8 44.15 Q59.8 45.15 58.6 49.6 L57.15 54.45 58.9 53.85 58.8 53.75 Q61.1 49.85 61.4 46.15 L61.2 45.8 Q61.2 45.55 61.45 45.55 L61.45 44.9 Q61.45 43.95 60.55 43.95 L59.85 44.15 M64.3 46.1 L64.55 45.35 64.5 45.35 64.3 46.1 M37.65 41.35 L37.35 42.9 Q38.95 42.85 39.05 40.35 39.05 37.7 38.1 37.7 L37.0 38.65 37.1 38.9 Q37.65 40.4 37.65 41.35 M33.4 38.2 L33.2 39.35 Q32.3 41.15 31.15 41.35 31.15 41.75 31.85 43.15 32.25 44.25 33.0 44.45 L33.2 44.5 33.3 44.5 34.2 44.65 35.25 44.45 35.85 44.55 36.25 44.15 36.4 43.8 34.9 44.05 Q33.4 44.05 33.05 43.0 L33.25 42.8 34.55 43.4 Q37.05 43.4 37.05 41.3 36.2 37.45 35.1 37.45 33.65 37.45 33.4 38.2 M35.35 46.6 L35.55 45.15 35.2 45.1 Q33.95 45.1 33.3 46.45 L32.9 47.8 33.0 48.0 33.15 47.95 Q33.4 47.95 33.75 48.4 L34.05 48.25 34.25 48.35 34.3 47.8 34.1 47.9 33.8 47.55 34.5 47.0 34.5 46.95 35.2 46.65 35.35 46.6 M35.3 47.3 L34.7 47.6 Q35.0 48.85 34.8 51.1 L35.7 55.35 Q36.8 61.0 40.4 63.7 L40.8 64.0 40.85 63.95 Q42.05 63.95 42.05 71.8 L41.9 79.6 Q43.35 77.45 44.25 77.45 45.05 77.45 46.05 78.85 46.25 77.5 46.6 76.7 47.25 75.2 48.75 75.2 49.85 75.2 50.1 75.5 49.15 68.0 48.3 65.45 L48.3 64.85 48.45 64.85 Q47.25 64.35 45.75 63.45 43.6 62.1 42.8 61.25 L42.4 61.4 Q39.2 61.4 37.9 54.55 L37.25 53.7 37.45 53.15 37.45 52.7 37.6 52.9 Q37.0 49.75 36.85 47.2 L36.8 47.15 36.85 47.0 36.8 46.7 Q36.55 46.7 35.9 47.05 L35.9 47.3 35.85 47.3 Q35.3 47.3 35.3 47.9 L35.3 47.3 M35.3 47.9 L35.4 48.7 Q35.4 50.5 35.75 51.25 L35.85 51.6 Q35.35 50.75 35.3 47.9 M35.9 46.35 L36.9 46.05 37.25 46.1 37.05 45.85 36.85 45.9 36.1 45.3 35.9 46.05 35.9 46.35 M36.7 45.0 L36.75 45.0 37.2 45.1 36.75 44.7 36.4 44.8 36.6 44.95 36.7 45.0 M37.45 46.7 L37.35 46.3 37.4 46.95 37.45 46.7 M37.4 47.45 Q37.65 51.3 38.35 53.6 L38.4 53.75 40.55 55.55 40.55 55.5 Q40.55 53.8 40.85 53.45 L41.05 53.8 41.55 53.05 Q40.55 51.85 39.65 49.8 L37.95 46.25 37.95 46.75 Q37.95 47.35 37.4 47.45 M39.0 55.5 L39.7 57.35 Q40.5 59.8 42.45 60.85 40.65 58.5 40.55 55.8 L40.15 55.9 Q39.6 55.9 39.0 55.5 M63.45 52.35 L63.6 50.85 61.5 53.2 Q59.1 55.15 57.35 55.15 56.35 55.15 56.0 54.8 55.0 55.9 53.65 55.9 52.9 55.9 51.95 55.2 L51.95 54.95 Q50.9 56.55 48.1 56.55 46.95 56.55 46.05 55.0 L45.95 54.85 45.0 54.95 44.25 54.9 Q43.0 54.75 41.85 53.4 L41.1 54.4 41.15 55.65 Q41.15 59.15 44.7 62.1 47.75 64.65 50.05 64.65 L54.9 64.2 Q54.95 63.8 55.1 63.7 L55.2 64.1 Q58.2 63.35 60.3 61.7 62.3 59.6 63.05 57.1 63.35 56.0 63.45 52.35 M56.8 54.5 L56.9 54.5 56.8 54.4 56.8 54.5 M55.9 53.05 Q55.9 53.7 55.0 54.4 L54.7 53.95 54.8 52.75 55.1 52.7 55.85 52.95 55.9 53.05 M51.95 52.5 Q51.85 48.6 48.3 49.6 45.9 51.3 45.9 52.75 45.9 54.6 48.3 55.25 48.3 55.7 47.45 55.6 47.9 55.9 48.2 55.9 49.95 55.9 50.9 55.1 L50.05 55.4 49.7 55.35 49.45 54.25 Q49.45 53.3 50.2 53.3 51.3 53.3 51.5 54.25 L51.95 52.5 M48.9 65.0 Q49.65 65.8 49.85 70.35 L50.6 73.7 Q52.85 73.75 53.15 73.2 L53.2 73.2 Q52.5 71.45 50.85 65.3 L50.6 65.3 48.9 65.0 M51.25 65.3 L53.9 73.55 53.9 73.6 Q54.45 73.85 54.3 75.4 L54.0 77.75 Q55.55 77.8 56.0 78.15 L57.3 78.6 Q55.05 72.85 55.05 72.4 55.05 70.95 56.75 70.95 54.8 67.75 54.8 65.15 L54.8 64.95 51.25 65.3 M54.6 82.3 L52.75 79.75 Q51.4 80.9 48.9 80.9 L48.6 80.9 49.05 86.05 53.0 83.55 54.6 82.3 M56.15 82.05 L56.2 81.35 56.1 81.35 55.85 81.7 56.15 82.05 M46.95 79.55 L46.8 78.5 46.5 79.2 46.95 79.55" fill="#000000" fill-rule="evenodd" stroke="none"/>
      <path d="M42.05 42.5 L42.1 42.35 44.0 44.15 Q45.65 45.65 47.55 45.65 49.15 45.65 49.15 45.0 L49.0 44.85 48.05 45.0 48.2 44.25 48.15 43.95 48.35 39.55 Q48.95 40.5 50.4 44.95 51.45 48.1 52.1 48.5 51.75 49.1 51.7 49.65 50.9 48.95 49.35 48.95 47.2 48.95 46.05 50.8 45.3 52.0 45.3 52.8 45.3 53.45 45.75 54.4 L44.95 54.45 44.65 54.4 44.65 54.25 44.25 53.2 44.3 53.05 Q43.85 52.1 43.0 48.15 42.05 44.0 42.05 42.5 M53.7 38.6 Q54.55 39.3 54.55 42.35 L54.2 46.45 54.3 46.75 Q53.15 46.95 52.45 47.95 L51.95 46.85 52.05 45.7 52.15 45.65 52.65 38.6 53.7 38.6 M59.8 44.15 L59.85 44.15 60.55 43.95 Q61.45 43.95 61.45 44.9 L61.45 45.55 Q61.2 45.55 61.2 45.8 L61.4 46.15 Q61.1 49.85 58.8 53.75 L58.9 53.85 57.15 54.45 58.6 49.6 Q59.8 45.15 59.8 44.15 M35.3 47.3 L35.3 47.9 Q35.3 47.3 35.85 47.3 L35.9 47.3 35.9 47.05 Q36.55 46.7 36.8 46.7 L36.85 47.0 36.8 47.15 36.85 47.2 Q37.0 49.75 37.6 52.9 L37.45 52.7 37.45 53.15 37.25 53.7 37.9 54.55 Q39.2 61.4 42.4 61.4 L42.8 61.25 Q43.6 62.1 45.75 63.45 47.25 64.35 48.45 64.85 L48.3 64.85 48.3 65.45 Q49.15 68.0 50.1 75.5 49.85 75.2 48.75 75.2 47.25 75.2 46.6 76.7 46.25 77.5 46.05 78.85 45.05 77.45 44.25 77.45 43.35 77.45 41.9 79.6 L42.05 71.8 Q42.05 63.95 40.85 63.95 L40.8 64.0 40.4 63.7 Q36.8 61.0 35.7 55.35 L34.8 51.1 Q35.0 48.85 34.7 47.6 L35.3 47.3 M35.3 47.9 Q35.35 50.75 35.85 51.6 L35.75 51.25 Q35.4 50.5 35.4 48.7 L35.3 47.9 M37.4 47.45 Q37.95 47.35 37.95 46.75 L37.95 46.25 39.65 49.8 Q40.55 51.85 41.55 53.05 L41.05 53.8 40.85 53.45 Q40.55 53.8 40.55 55.5 L40.55 55.55 38.4 53.75 38.35 53.6 Q37.65 51.3 37.4 47.45 M51.25 65.3 L54.8 64.95 54.8 65.15 Q54.8 67.75 56.75 70.95 55.05 70.95 55.05 72.4 55.05 72.85 57.3 78.6 L56.0 78.15 Q55.55 77.8 54.0 77.75 L54.3 75.4 Q54.45 73.85 53.9 73.6 L53.9 73.55 51.25 65.3" fill="#ffb600" fill-rule="evenodd" stroke="none"/>
      <path d="M63.45 52.35 Q63.35 56.0 63.05 57.1 62.3 59.6 60.3 61.7 58.2 63.35 55.2 64.1 L55.1 63.7 Q54.95 63.8 54.9 64.2 L50.05 64.65 Q47.75 64.65 44.7 62.1 41.15 59.15 41.15 55.65 L41.1 54.4 41.85 53.4 Q43.0 54.75 44.25 54.9 L45.0 54.95 45.95 54.85 46.05 55.0 Q46.95 56.55 48.1 56.55 50.9 56.55 51.95 54.95 L51.95 55.2 Q52.9 55.9 53.65 55.9 55.0 55.9 56.0 54.8 56.35 55.15 57.35 55.15 59.1 55.15 61.5 53.2 L63.6 50.85 63.45 52.35" fill="#9cb9cb" fill-rule="evenodd" stroke="none"/>
      <path d="M48.9 65.0 L50.6 65.3 50.85 65.3 Q52.5 71.45 53.2 73.2 L53.15 73.2 Q52.85 73.75 50.6 73.7 L49.85 70.35 Q49.65 65.8 48.9 65.0" fill="#a800a0" fill-rule="evenodd" stroke="none"/>
    </g>
  </defs>
</svg>
