<?xml version="1.0" encoding="UTF-8" standalone="no"?>
<svg xmlns:ffdec="https://www.free-decompiler.com/flash" xmlns:xlink="http://www.w3.org/1999/xlink" ffdec:objectType="frame" height="500.0px" width="500.0px" xmlns="http://www.w3.org/2000/svg">
  <g transform="matrix(5.0, 0.0, 0.0, 5.0, 0.0, 0.0)">
    <use ffdec:characterId="2" height="58.0" transform="matrix(1.0, 0.0, 0.0, 1.0, 0.0, 0.0)" width="33.75" xlink:href="#shape0"/>
  </g>
  <defs>
    <g id="shape0">
      <path d="M54.55 34.8 Q55.8 34.8 62.4 41.55 L62.4 41.6 Q64.1 41.75 63.95 44.05 64.2 44.05 64.15 44.4 64.15 45.85 63.5 46.05 L64.55 48.75 64.55 62.75 64.75 62.7 65.0 62.85 65.05 63.0 63.35 64.55 63.05 64.5 63.0 64.4 Q62.1 65.25 61.25 65.25 L61.05 65.15 60.9 65.25 Q59.6 67.15 55.2 67.3 L54.85 68.75 Q54.95 70.35 54.45 70.35 L54.4 70.15 53.25 74.95 Q52.85 77.05 52.25 78.25 L52.3 78.25 53.0 78.05 53.35 78.1 53.4 78.4 Q53.4 78.9 52.65 78.9 L52.5 78.9 52.9 79.2 Q54.0 80.1 54.35 81.0 L55.3 83.15 55.7 83.25 56.85 83.2 58.95 82.15 61.5 80.05 Q62.15 80.7 62.15 84.35 62.15 85.65 61.8 85.8 L52.15 88.15 51.9 88.1 51.8 87.8 53.95 83.7 54.15 83.4 53.15 81.6 50.7 79.85 49.0 80.15 48.35 80.05 45.2 85.55 Q49.8 88.9 49.8 89.1 47.9 92.8 47.45 92.8 46.65 92.8 39.05 87.2 39.05 86.85 41.1 86.0 43.15 85.05 43.2 84.6 L43.8 84.55 44.1 84.8 45.9 82.05 45.65 82.05 Q45.3 82.05 44.4 80.65 43.5 79.2 43.05 79.2 L39.0 81.9 Q38.6 81.1 38.8 78.35 L37.95 78.35 Q38.05 77.25 39.5 75.55 L41.8 72.8 Q44.95 67.95 45.5 67.45 L45.7 67.65 45.9 66.5 46.2 65.25 45.6 62.55 43.8 59.2 Q42.45 58.75 39.85 56.15 37.45 53.75 37.45 53.0 37.45 52.7 37.85 52.7 L42.35 53.95 41.5 52.05 Q40.85 50.7 39.2 49.2 L38.7 48.7 38.05 49.05 Q37.85 49.7 36.85 49.7 L36.55 49.55 36.35 49.55 Q35.55 49.55 35.55 48.4 35.55 47.45 36.65 46.05 35.95 45.75 35.5 44.45 L35.45 44.4 35.55 44.7 35.2 44.8 33.55 41.65 Q31.3 40.05 31.3 38.5 31.3 36.95 33.45 36.95 35.5 36.95 36.8 39.95 36.9 36.8 37.9 36.8 39.3 36.8 39.15 40.2 39.15 42.05 38.6 43.45 L39.7 44.1 41.0 43.95 Q42.2 43.95 42.3 44.3 L42.3 44.75 42.25 44.8 42.25 45.2 42.2 45.55 44.75 47.1 44.8 45.9 Q44.8 44.8 44.05 43.1 43.3 41.4 43.3 41.1 L43.35 40.75 43.6 40.7 54.4 49.25 54.4 49.3 Q56.1 50.35 56.1 50.55 L56.0 50.8 Q57.25 51.65 57.85 53.6 L57.95 53.3 57.45 48.8 Q57.35 47.95 55.55 43.95 L55.85 43.8 Q55.3 43.55 54.7 42.55 53.95 41.4 53.95 41.1 53.95 40.3 54.4 40.3 L54.6 40.35 Q53.7 39.2 53.7 38.6 53.7 38.0 54.35 37.95 L52.95 36.5 Q52.95 34.8 54.55 34.8 M53.55 36.55 L55.3 38.1 Q56.5 38.45 58.0 39.65 59.6 40.95 60.25 42.0 60.85 41.6 61.75 41.55 55.35 35.45 54.5 35.45 53.95 35.45 53.7 36.0 53.55 36.25 53.55 36.55 M41.15 44.6 L40.85 44.6 40.6 44.6 41.75 45.3 41.75 45.15 41.7 44.75 41.15 44.6 M41.25 46.25 L41.2 46.25 41.2 46.3 42.4 48.65 Q44.65 51.45 46.3 54.45 L46.0 54.65 46.15 54.95 47.9 55.4 48.0 55.35 48.75 55.35 48.3 54.45 48.5 53.25 Q49.0 52.2 50.55 52.2 L51.35 52.25 Q50.95 51.9 50.95 51.25 50.95 49.95 53.1 49.95 L55.1 50.3 54.05 49.55 Q53.1 49.35 49.45 46.3 L44.3 41.85 Q45.4 45.2 45.4 45.9 45.4 47.8 44.7 47.8 43.7 47.8 41.25 46.25 M58.15 41.0 L58.1 41.15 57.85 41.3 55.1 38.75 54.85 38.6 54.3 38.6 Q54.5 39.15 58.4 42.2 L58.55 42.3 59.4 43.05 59.9 42.25 58.15 40.9 58.15 41.0 M56.75 43.05 Q57.45 43.05 58.35 44.75 L61.3 51.45 Q62.45 54.55 62.4 55.65 62.35 56.35 62.65 58.6 L63.1 56.85 62.9 53.95 Q62.9 51.35 62.6 50.45 L61.15 46.0 61.05 46.0 61.05 46.05 60.75 46.15 Q59.45 46.15 59.2 45.2 L59.2 44.25 59.2 44.15 57.75 42.65 55.9 41.65 56.45 43.35 56.6 43.05 56.75 43.05 M60.55 43.2 L60.95 43.8 Q61.9 43.2 62.75 43.2 L63.3 43.25 Q63.1 42.2 62.1 42.2 60.6 42.2 60.05 43.15 L59.9 43.55 60.2 43.85 59.95 44.1 59.8 44.0 59.8 44.25 59.8 44.6 60.5 44.05 60.2 43.25 60.55 43.2 M59.2 43.5 L59.25 43.55 59.25 43.5 59.2 43.5 M60.2 45.15 L60.8 45.5 60.95 45.5 60.7 44.7 60.2 45.15 M56.25 43.9 Q57.35 44.6 58.3 50.2 L58.3 52.8 58.45 53.0 Q58.45 54.15 58.0 54.2 L58.15 55.3 Q58.15 55.8 57.65 55.8 L56.95 55.7 56.7 55.7 56.4 55.65 56.4 56.0 Q56.4 57.55 54.25 57.55 53.0 57.05 52.4 57.05 L52.1 57.3 Q50.5 57.3 49.25 55.95 L49.1 55.8 48.5 55.9 48.3 55.85 48.2 55.9 46.35 55.6 46.1 55.8 45.85 55.5 45.25 55.4 45.35 55.6 Q48.0 61.75 48.55 65.0 L49.75 65.7 Q51.5 66.65 52.05 66.65 L52.55 66.65 52.95 66.05 53.2 66.35 53.05 66.6 58.1 66.35 Q59.05 66.0 60.95 63.3 62.2 61.05 62.2 59.7 L61.8 55.55 Q61.45 53.25 60.6 51.5 L59.0 47.45 56.55 43.7 56.25 43.9 M61.75 44.2 Q62.5 44.2 63.25 45.5 L63.5 44.95 63.55 44.8 63.35 43.55 61.75 44.15 61.5 44.25 61.75 44.2 M61.55 45.3 L61.8 45.55 61.7 45.85 63.55 51.7 63.55 57.4 63.3 57.55 63.25 57.95 63.05 59.55 62.95 59.6 62.85 59.25 Q62.85 58.65 63.0 58.4 L62.95 58.3 62.7 59.05 62.8 59.7 Q62.8 60.7 61.4 63.8 L61.2 64.7 61.85 64.3 Q62.65 63.7 63.4 63.65 L63.7 63.35 64.25 62.95 63.95 53.8 Q64.05 47.55 61.45 44.55 L61.45 44.25 61.2 44.35 61.5 45.35 61.55 45.4 61.55 45.3 M38.05 37.6 L37.85 37.6 37.35 40.8 37.2 40.9 37.65 42.5 37.6 42.8 37.55 42.9 38.15 43.2 Q38.55 42.0 38.55 40.2 38.55 38.75 38.05 37.6 M36.15 42.3 L37.25 42.75 36.0 40.25 Q34.75 37.6 33.4 37.6 31.9 37.6 31.9 38.45 L33.35 40.65 34.95 43.35 35.25 43.65 35.2 43.45 Q35.35 43.3 35.5 43.3 36.15 43.3 37.2 45.4 L37.8 44.9 Q35.85 42.8 35.8 42.35 L36.15 42.3 M39.05 44.8 L39.35 45.1 39.45 45.05 39.1 44.8 39.05 44.8 M37.2 49.1 L38.45 48.35 Q37.95 47.65 37.95 47.05 37.95 46.15 38.5 45.6 L38.1 45.2 Q37.65 45.4 37.35 45.7 L37.4 45.8 37.05 46.15 36.15 47.95 36.15 48.8 37.1 48.95 37.15 49.05 37.15 49.1 37.2 49.1 M38.55 47.05 Q38.55 47.45 41.95 51.5 L43.1 54.2 43.2 54.2 44.35 54.55 41.45 48.5 39.25 46.35 38.55 47.05 M39.3 78.85 L39.3 80.85 43.1 78.55 Q44.1 78.55 44.75 79.65 L45.4 81.05 Q46.35 79.0 47.05 77.7 47.1 76.8 47.6 76.8 L47.7 76.6 Q49.1 74.25 49.9 71.95 51.0 68.5 51.85 67.55 L51.9 67.6 52.25 67.1 Q50.2 66.75 48.65 65.7 L48.6 66.95 48.4 67.05 48.05 67.0 47.85 65.15 46.9 64.25 46.65 63.95 46.9 65.0 46.9 67.15 46.6 67.3 46.45 66.5 Q46.1 68.5 45.8 68.5 L45.55 68.25 43.0 72.0 38.85 77.55 Q39.3 77.8 39.3 78.85 M56.45 55.05 L56.7 54.95 57.25 55.05 57.35 55.05 57.5 55.1 Q57.1 53.05 55.6 51.75 54.3 50.6 53.05 50.6 L52.45 50.65 Q51.95 50.7 51.7 50.95 51.55 51.15 51.55 51.3 51.55 51.6 52.8 52.2 L52.6 52.4 Q54.3 52.75 55.3 53.7 56.1 54.45 56.3 55.3 56.35 55.2 56.45 55.2 L56.45 55.05 M54.05 52.15 L52.95 51.65 52.2 51.0 52.25 50.8 52.5 50.7 54.4 51.8 54.05 52.15 M50.85 54.6 L50.45 54.65 Q49.8 54.65 49.8 53.85 L50.1 53.7 Q50.9 53.7 50.9 54.3 L50.85 54.6 M51.2 55.85 L51.5 55.8 Q51.6 55.8 52.35 56.35 L54.2 56.85 Q55.8 56.85 55.8 56.0 55.8 52.85 49.6 52.85 L48.9 54.4 Q48.9 54.95 51.3 56.45 L51.2 55.85 M43.35 54.95 L43.7 56.0 Q44.95 58.25 46.2 62.4 L47.6 64.3 47.75 64.4 Q46.95 60.6 44.7 55.25 L43.35 54.95 M44.0 52.25 L45.0 54.7 45.6 54.85 45.35 54.15 44.0 52.25 M43.2 56.6 L43.35 56.6 42.65 54.75 38.45 53.55 Q39.4 54.9 43.2 57.9 L43.2 56.6 M44.6 59.65 L44.4 59.15 44.35 59.2 44.6 59.65 M54.45 67.3 L52.75 67.2 51.95 68.35 50.7 71.9 48.65 76.05 48.5 76.45 51.75 78.0 52.0 77.4 53.9 69.5 53.85 69.5 53.6 69.25 54.05 68.6 Q54.2 68.05 54.3 67.95 L54.7 67.3 54.45 67.3 M47.3 79.0 L47.25 78.65 Q46.25 80.5 46.05 81.85 L47.6 79.5 47.3 79.0" fill="#000000" fill-rule="evenodd" stroke="none"/>
      <path d="M41.2 46.3 L41.25 46.25 Q43.7 47.8 44.7 47.8 45.4 47.8 45.4 45.9 45.4 45.2 44.3 41.85 L49.45 46.3 Q53.1 49.35 54.05 49.55 L55.1 50.3 53.1 49.95 Q50.95 49.95 50.95 51.25 50.95 51.9 51.35 52.25 L50.55 52.2 Q49.0 52.2 48.5 53.25 L48.3 54.45 48.75 55.35 48.0 55.35 47.9 55.4 46.15 54.95 46.0 54.65 46.3 54.45 Q44.65 51.45 42.4 48.65 L41.2 46.3 M61.5 45.35 L61.2 44.35 61.45 44.25 61.45 44.55 Q64.05 47.55 63.95 53.8 L64.25 62.95 63.7 63.35 63.4 63.65 Q62.65 63.7 61.85 64.3 L61.2 64.7 61.4 63.8 Q62.8 60.7 62.8 59.7 L62.7 59.05 62.95 58.3 63.0 58.4 Q62.85 58.65 62.85 59.25 L62.95 59.6 63.05 59.55 63.25 57.95 63.3 57.55 63.55 57.4 63.55 51.7 61.7 45.85 61.8 45.55 61.55 45.3 61.5 45.35 M39.3 78.85 Q39.3 77.8 38.85 77.55 L43.0 72.0 45.55 68.25 45.8 68.5 Q46.1 68.5 46.45 66.5 L46.6 67.3 46.9 67.15 46.9 65.0 46.65 63.95 46.9 64.25 47.85 65.15 48.05 67.0 48.4 67.05 48.6 66.95 48.65 65.7 Q50.2 66.75 52.25 67.1 L51.9 67.6 51.85 67.55 Q51.0 68.5 49.9 71.95 49.1 74.25 47.7 76.6 L47.6 76.8 Q47.1 76.8 47.05 77.7 46.35 79.0 45.4 81.05 L44.75 79.65 Q44.1 78.55 43.1 78.55 L39.3 80.85 39.3 78.85 M38.55 47.05 L39.25 46.35 41.45 48.5 44.35 54.55 43.2 54.2 43.1 54.2 41.95 51.5 Q38.55 47.45 38.55 47.05 M43.35 54.95 L44.7 55.25 Q46.95 60.6 47.75 64.4 L47.6 64.3 46.2 62.4 Q44.95 58.25 43.7 56.0 L43.35 54.95 M43.2 56.6 L43.2 57.9 Q39.4 54.9 38.45 53.55 L42.65 54.75 43.35 56.6 43.2 56.6" fill="#ffb600" fill-rule="evenodd" stroke="none"/>
      <path d="M56.25 43.9 L56.55 43.7 59.0 47.45 60.6 51.5 Q61.45 53.25 61.8 55.55 L62.2 59.7 Q62.2 61.05 60.95 63.3 59.05 66.0 58.1 66.35 L53.05 66.6 53.2 66.35 52.95 66.05 52.55 66.65 52.05 66.65 Q51.5 66.65 49.75 65.7 L48.55 65.0 Q48.0 61.75 45.35 55.6 L45.25 55.4 45.85 55.5 46.1 55.8 46.35 55.6 48.2 55.9 48.3 55.85 48.5 55.9 49.1 55.8 49.25 55.95 Q50.5 57.3 52.1 57.3 L52.4 57.05 Q53.0 57.05 54.25 57.55 56.4 57.55 56.4 56.0 L56.4 55.65 56.7 55.7 56.95 55.7 57.65 55.8 Q58.15 55.8 58.15 55.3 L58.0 54.2 Q58.45 54.15 58.45 53.0 L58.3 52.8 58.3 50.2 Q57.35 44.6 56.25 43.9" fill="#9cb9cb" fill-rule="evenodd" stroke="none"/>
      <path d="M54.45 67.3 L54.7 67.3 54.3 67.95 Q54.2 68.05 54.05 68.6 L53.6 69.25 53.85 69.5 53.9 69.5 52.0 77.4 51.75 78.0 48.5 76.45 48.65 76.05 50.7 71.9 51.95 68.35 52.75 67.2 54.45 67.3" fill="#a800a0" fill-rule="evenodd" stroke="none"/>
      <path d="M53.55 36.55 Q53.55 36.25 53.7 36.0 53.95 35.45 54.5 35.45 55.35 35.45 61.75 41.55 60.85 41.6 60.25 42.0 59.6 40.95 58.0 39.65 56.5 38.45 55.3 38.1 L53.55 36.55 M58.15 41.0 L58.15 40.9 59.9 42.25 59.4 43.05 58.55 42.3 58.4 42.2 Q54.5 39.15 54.3 38.6 L54.85 38.6 55.1 38.75 57.85 41.3 58.1 41.15 58.15 41.0 M60.55 43.2 L60.2 43.25 60.5 44.05 59.8 44.6 59.8 44.25 59.8 44.0 59.95 44.1 60.2 43.85 59.9 43.55 60.05 43.15 Q60.6 42.2 62.1 42.2 63.1 42.2 63.3 43.25 L62.75 43.2 Q61.9 43.2 60.95 43.8 L60.55 43.2 M60.2 45.15 L60.7 44.7 60.95 45.5 60.8 45.5 60.2 45.15 M61.75 44.15 L63.35 43.55 63.55 44.8 63.5 44.95 63.25 45.5 Q62.5 44.2 61.75 44.2 L61.75 44.15 M36.15 42.3 L35.8 42.35 Q35.85 42.8 37.8 44.9 L37.2 45.4 Q36.15 43.3 35.5 43.3 35.35 43.3 35.2 43.45 L35.25 43.65 34.95 43.35 33.35 40.65 31.9 38.45 Q31.9 37.6 33.4 37.6 34.75 37.6 36.0 40.25 L37.25 42.75 36.15 42.3 M38.05 37.6 Q38.55 38.75 38.55 40.2 38.55 42.0 38.15 43.2 L37.55 42.9 37.6 42.8 37.65 42.5 37.2 40.9 37.35 40.8 37.85 37.6 38.05 37.6 M37.15 49.05 L37.1 48.95 36.15 48.8 36.15 47.95 37.05 46.15 37.4 45.8 37.35 45.7 Q37.65 45.4 38.1 45.2 L38.5 45.6 Q37.95 46.15 37.95 47.05 37.95 47.65 38.45 48.35 L37.2 49.1 37.15 49.05 M51.2 55.85 L51.3 56.45 Q48.9 54.95 48.9 54.4 L49.6 52.85 Q55.8 52.85 55.8 56.0 55.8 56.85 54.2 56.85 L52.35 56.35 Q51.6 55.8 51.5 55.8 L51.2 55.85 M50.85 54.6 L50.9 54.3 Q50.9 53.7 50.1 53.7 L49.8 53.85 Q49.8 54.65 50.45 54.65 L50.85 54.6 M54.05 52.15 L54.4 51.8 52.5 50.7 52.25 50.8 52.2 51.0 52.95 51.65 54.05 52.15 M56.45 55.05 L56.45 55.2 Q56.35 55.2 56.3 55.3 56.1 54.45 55.3 53.7 54.3 52.75 52.6 52.4 L52.8 52.2 Q51.55 51.6 51.55 51.3 51.55 51.15 51.7 50.95 51.95 50.7 52.45 50.65 L53.05 50.6 Q54.3 50.6 55.6 51.75 57.1 53.05 57.5 55.1 L57.35 55.05 57.25 55.05 56.7 54.95 56.45 55.05" fill="#ffffff" fill-rule="evenodd" stroke="none"/>
    </g>
  </defs>
</svg>
