<?xml version="1.0" encoding="UTF-8" standalone="no"?>
<svg xmlns:ffdec="https://www.free-decompiler.com/flash" xmlns:xlink="http://www.w3.org/1999/xlink" ffdec:objectType="frame" height="500.0px" width="500.0px" xmlns="http://www.w3.org/2000/svg">
  <g transform="matrix(5.0, 0.0, 0.0, 5.0, 0.0, 0.0)">
    <use ffdec:characterId="2" height="58.0" transform="matrix(1.0, 0.0, 0.0, 1.0, 0.0, 0.0)" width="33.75" xlink:href="#shape0"/>
  </g>
  <defs>
    <g id="shape0">
      <path d="M53.55 36.55 L55.3 38.1 Q56.5 38.45 58.0 39.65 59.6 40.95 60.25 42.0 60.85 41.6 61.75 41.55 55.35 35.45 54.5 35.45 53.95 35.45 53.7 36.0 53.55 36.25 53.55 36.55 M54.55 34.8 Q55.8 34.8 62.4 41.55 L62.4 41.6 Q64.2 41.75 63.9 44.4 L63.8 45.05 63.6 45.15 63.35 43.55 61.2 44.35 62.0 46.45 63.55 51.7 63.55 57.4 63.25 57.55 Q62.9 56.5 62.9 53.95 62.9 51.35 62.6 50.45 L60.7 44.7 60.05 45.25 61.05 45.8 61.05 46.05 60.75 46.15 Q59.45 46.15 59.2 45.2 L59.2 44.25 Q59.2 42.9 59.9 42.25 L58.15 40.9 58.15 41.0 58.1 41.15 57.85 41.3 55.1 38.75 54.85 38.6 54.3 38.6 Q54.5 39.15 58.55 42.3 L58.15 42.65 Q57.05 42.65 55.9 41.65 L56.45 43.35 56.6 43.05 56.75 43.05 Q57.45 43.05 58.35 44.75 L59.6 47.2 61.3 51.45 Q62.45 54.55 62.4 55.65 62.35 56.5 62.8 59.7 62.8 60.7 61.4 63.8 61.0 67.3 54.45 67.3 51.05 67.3 48.65 65.7 L48.65 66.4 48.6 66.95 48.4 67.05 48.05 67.0 47.85 65.15 46.9 64.25 46.65 63.95 46.9 65.0 46.9 67.15 46.6 67.3 46.05 64.7 45.6 62.55 43.8 59.2 Q42.45 58.75 39.85 56.15 37.45 53.75 37.45 53.0 37.45 52.7 37.85 52.7 L42.35 53.95 41.5 52.05 Q40.85 50.7 39.2 49.2 37.95 48.0 37.95 47.05 37.95 46.15 38.5 45.6 L38.1 45.2 Q37.65 45.4 37.35 45.7 L37.4 45.8 37.05 46.15 36.15 47.95 36.15 48.8 37.1 48.95 37.15 49.05 Q37.15 49.45 36.35 49.55 35.55 49.55 35.55 48.4 35.55 47.45 36.65 46.05 35.7 45.65 35.2 43.45 35.35 43.3 35.5 43.3 36.15 43.3 37.2 45.4 L37.8 44.9 Q35.85 42.8 35.8 42.35 L36.15 42.3 37.25 42.75 36.0 40.25 Q34.75 37.6 33.4 37.6 31.9 37.6 31.9 38.45 L33.35 40.65 Q34.95 43.05 35.55 44.7 L35.2 44.8 33.55 41.65 Q31.3 40.05 31.3 38.5 31.3 36.95 33.45 36.95 35.5 36.95 36.8 39.95 36.9 36.8 37.9 36.8 39.3 36.8 39.15 40.2 39.15 42.05 38.6 43.45 L39.7 44.1 41.0 43.95 Q42.2 43.95 42.3 44.3 L42.3 44.75 42.0 44.9 Q42.3 44.6 40.85 44.6 L40.6 44.6 44.75 47.1 44.8 45.9 Q44.8 44.8 44.05 43.1 43.3 41.4 43.3 41.1 L43.35 40.75 43.6 40.7 49.05 44.95 54.4 49.25 54.35 49.45 54.15 49.55 Q53.3 49.55 49.45 46.3 L44.3 41.85 Q45.4 45.2 45.4 45.9 45.4 47.8 44.7 47.8 43.7 47.8 41.15 46.2 L42.4 48.65 Q44.65 51.45 46.3 54.45 L46.0 54.65 Q45.55 54.65 44.0 52.25 L45.0 54.7 48.65 55.55 48.2 55.9 45.25 55.4 45.35 55.6 Q48.0 61.75 48.55 65.0 L49.75 65.7 Q51.5 66.65 52.05 66.65 L58.1 66.35 Q59.05 66.0 60.95 63.3 62.2 61.05 62.2 59.7 L61.8 55.55 Q61.45 53.25 60.6 51.5 L59.0 47.45 56.55 43.7 56.25 43.9 Q57.35 44.6 58.3 50.2 L58.3 53.5 58.0 53.65 57.45 48.8 Q57.35 47.95 55.55 43.95 L55.85 43.8 Q55.3 43.55 54.7 42.55 53.95 41.4 53.95 41.1 53.95 40.3 54.4 40.3 L54.6 40.35 Q53.7 39.2 53.7 38.6 53.7 38.0 54.35 37.95 L52.95 36.5 Q52.95 34.8 54.55 34.8 M60.55 43.2 L60.95 43.8 Q61.9 43.2 62.75 43.2 L63.3 43.25 Q63.1 42.2 62.1 42.2 60.6 42.2 60.05 43.15 59.8 43.6 59.8 44.25 L59.8 44.6 60.5 44.05 60.2 43.25 60.55 43.2 M61.75 44.2 Q62.65 44.2 63.5 46.05 L64.55 48.75 64.55 62.75 64.75 62.7 65.0 62.85 65.05 63.0 63.35 64.55 63.05 64.5 62.95 64.25 Q62.95 64.0 63.7 63.35 L64.25 62.95 63.95 58.4 63.95 53.8 Q64.05 47.55 61.45 44.55 L61.45 44.25 61.75 44.2 M38.05 37.6 L37.85 37.6 37.35 40.8 37.2 40.9 37.65 42.5 37.6 42.8 37.55 42.9 38.15 43.2 Q38.55 42.0 38.55 40.2 38.55 38.75 38.05 37.6 M39.05 44.8 L39.35 45.1 39.45 45.05 39.1 44.8 39.05 44.8 M38.55 47.05 Q38.55 47.45 41.95 51.5 L43.1 54.2 43.2 54.2 44.35 54.55 44.0 53.75 41.45 48.5 39.25 46.35 38.55 47.05 M40.05 87.3 Q40.05 87.5 43.85 89.8 L47.35 92.1 Q47.65 92.1 49.15 89.1 L44.75 86.2 43.6 87.35 42.85 86.75 43.6 85.6 40.1 87.15 40.05 87.3 M39.5 75.55 L41.8 72.8 Q44.95 67.95 45.5 67.45 L45.8 67.75 Q45.8 68.05 43.0 72.0 L38.85 77.55 Q39.3 77.8 39.3 78.85 L39.3 80.85 43.1 78.55 Q44.1 78.55 44.75 79.65 L45.4 81.05 Q46.35 79.0 47.05 77.7 47.1 76.8 47.6 76.8 L47.7 76.6 Q49.1 74.25 49.9 71.95 51.0 68.5 51.85 67.55 L52.15 67.8 50.7 71.9 48.65 76.05 48.5 76.45 51.75 78.0 52.0 77.4 52.7 73.85 54.25 68.05 54.55 68.95 Q54.55 70.05 53.25 74.95 52.85 77.05 52.25 78.25 L52.3 78.25 53.0 78.05 53.35 78.1 53.4 78.4 Q53.4 78.9 52.65 78.9 L52.5 78.9 52.9 79.2 Q54.0 80.1 54.35 81.0 L55.3 83.15 55.7 83.25 56.85 83.2 58.95 82.15 61.5 80.05 Q62.15 80.7 62.15 84.35 62.15 85.65 61.8 85.8 L58.1 86.6 52.15 88.15 51.9 88.1 51.8 87.8 53.95 83.7 54.15 83.4 53.15 81.6 50.7 79.85 49.0 80.15 48.35 80.05 45.2 85.55 Q49.8 88.9 49.8 89.1 47.9 92.8 47.45 92.8 46.65 92.8 39.05 87.2 39.05 86.85 41.1 86.0 43.15 85.05 43.2 84.6 L43.8 84.55 44.1 84.8 45.9 82.05 45.65 82.05 Q45.3 82.05 44.4 80.65 43.5 79.2 43.05 79.2 L39.0 81.9 Q38.6 81.1 38.8 78.35 L37.95 78.35 Q38.05 77.25 39.5 75.55 M57.5 55.1 Q57.1 53.05 55.6 51.75 54.3 50.6 53.05 50.6 52.05 50.6 51.7 50.95 51.55 51.15 51.55 51.3 51.55 51.6 52.8 52.2 L52.6 52.4 Q54.3 52.75 55.3 53.7 56.4 54.75 56.4 56.0 56.4 57.55 54.25 57.55 53.0 57.05 52.4 57.05 L52.1 57.3 Q50.5 57.3 49.25 55.95 48.3 54.9 48.3 54.45 L48.5 53.25 Q49.0 52.2 50.55 52.2 L51.35 52.25 Q50.95 51.9 50.95 51.25 50.95 49.95 53.1 49.95 57.55 49.95 58.15 55.3 58.15 55.8 57.65 55.8 56.85 55.8 56.45 55.4 L56.45 55.05 56.7 54.95 57.5 55.1 M54.05 52.15 L52.95 51.65 52.2 51.0 52.25 50.8 52.5 50.7 54.4 51.8 54.05 52.15 M50.85 54.6 L50.45 54.65 Q49.8 54.65 49.8 53.85 L50.1 53.7 Q50.9 53.7 50.9 54.3 L50.85 54.6 M51.2 55.85 L51.5 55.8 Q51.6 55.8 52.35 56.35 L54.2 56.85 Q55.8 56.85 55.8 56.0 55.8 52.85 49.6 52.85 L48.9 54.4 Q48.9 54.95 51.3 56.45 L51.2 55.85 M43.35 54.95 L43.7 56.0 Q44.95 58.25 46.2 62.4 L47.6 64.3 47.75 64.4 Q46.95 60.6 44.7 55.25 L43.35 54.95 M43.35 56.6 L42.65 54.75 38.45 53.55 Q39.4 54.9 43.2 57.9 L43.2 56.6 43.35 56.6 M44.4 59.15 L44.35 59.2 44.6 59.65 44.4 59.15 M54.55 84.1 L52.7 87.1 52.6 87.2 58.1 85.95 60.6 85.5 Q61.55 85.3 61.55 84.4 61.15 82.25 61.2 81.3 L61.1 81.3 Q58.5 83.45 55.6 84.0 55.55 84.45 55.1 84.45 54.9 84.45 54.65 84.1 L54.55 84.1 M48.0 78.85 L48.25 78.45 Q48.9 78.45 48.85 79.1 L48.7 79.4 49.0 79.45 50.15 79.3 49.85 78.8 Q49.85 78.3 50.4 78.2 L49.6 77.8 48.2 77.0 47.65 77.9 47.9 78.7 48.0 78.85 M47.3 79.0 L47.25 78.65 Q46.25 80.5 46.05 81.85 L47.6 79.5 47.3 79.0" fill="#000000" fill-rule="evenodd" stroke="none"/>
    </g>
  </defs>
</svg>
