<?xml version="1.0" encoding="UTF-8" standalone="no"?>
<svg xmlns:ffdec="https://www.free-decompiler.com/flash" xmlns:xlink="http://www.w3.org/1999/xlink" ffdec:objectType="frame" height="500.0px" width="500.0px" xmlns="http://www.w3.org/2000/svg">
  <g transform="matrix(5.0, 0.0, 0.0, 5.0, 0.0, 0.0)">
    <use ffdec:characterId="3" height="49.6" transform="matrix(1.0, 0.0, 0.0, 1.0, 0.0, 0.0)" width="42.35" xlink:href="#shape0"/>
  </g>
  <defs>
    <g id="shape0">
      <path d="M48.9 46.05 Q48.9 50.3 48.25 50.3 L43.55 46.7 Q45.85 52.7 47.25 55.7 48.5 55.85 49.0 58.05 L49.55 61.3 Q50.3 61.3 50.3 61.6 L49.95 61.75 51.95 63.3 54.9 66.3 56.15 67.75 56.85 67.75 57.1 67.7 57.25 67.75 63.3 67.2 Q65.8 66.1 68.0 60.45 L69.75 56.6 Q70.55 53.35 71.0 52.8 L71.3 53.7 Q71.3 54.65 69.95 57.95 L72.8 52.45 Q72.8 50.25 71.55 48.1 L70.5 46.3 68.3 47.5 Q70.05 48.45 70.15 51.95 70.55 50.8 70.8 50.8 L71.25 50.85 71.3 51.1 Q71.3 52.65 70.35 53.8 L70.4 53.95 70.05 54.9 69.8 55.95 Q68.55 58.25 67.8 58.95 65.85 61.55 63.6 61.55 62.4 61.55 62.2 60.75 L62.4 60.55 63.7 60.85 Q65.3 60.85 66.85 59.2 L66.8 59.0 69.05 55.95 69.35 55.35 69.55 52.4 69.5 49.85 Q67.7 48.1 67.7 47.5 67.7 47.15 68.75 46.45 69.75 45.75 70.25 45.7 L70.35 45.7 70.45 45.55 70.6 45.55 Q71.7 45.55 72.85 48.95 73.4 50.8 73.4 52.4 73.4 53.1 70.95 57.3 L68.45 61.45 Q66.25 68.4 58.55 68.4 L57.35 68.4 57.25 69.0 Q58.4 70.45 58.4 71.15 L57.95 72.35 Q57.45 73.15 56.9 73.15 L56.45 73.1 Q55.25 78.65 54.6 78.65 54.2 78.65 53.55 77.65 L52.7 76.2 51.55 79.95 51.3 80.05 50.8 79.45 Q50.8 79.0 51.55 77.35 52.35 75.55 52.7 75.55 53.2 75.55 54.45 77.65 L55.7 72.8 54.0 71.75 52.35 73.95 Q51.6 77.8 48.45 77.8 48.1 77.8 47.55 77.35 L47.55 76.6 47.75 76.55 Q48.15 76.55 48.15 77.1 L48.25 77.15 Q49.9 77.15 50.85 76.0 L48.45 74.95 45.05 78.65 Q44.45 78.65 43.75 78.0 43.0 77.35 42.1 77.35 39.95 77.35 36.35 80.3 36.2 80.15 36.2 78.6 36.2 77.45 35.4 77.45 L34.55 77.65 34.2 77.6 34.2 77.1 Q35.8 74.95 39.25 72.15 43.25 68.8 45.15 68.8 L45.6 68.95 45.65 69.05 Q40.55 71.85 35.3 76.6 L35.25 76.7 Q36.75 76.95 36.8 77.75 L36.8 79.05 36.8 79.1 39.1 77.8 Q41.1 76.7 42.15 76.7 43.5 76.7 44.9 77.9 L48.0 74.45 48.0 74.35 48.05 74.35 51.75 70.05 Q49.25 68.1 48.2 66.6 L48.4 66.55 Q50.6 68.25 52.2 69.5 L52.85 68.75 51.8 67.8 51.2 67.15 Q48.5 65.75 46.65 62.05 45.15 62.7 45.15 63.3 45.15 64.6 47.85 64.35 L47.9 64.5 47.45 64.8 Q44.55 64.8 44.55 63.25 44.55 62.9 45.1 62.3 43.95 61.95 42.45 58.8 L41.05 55.25 41.1 55.05 40.95 54.55 Q40.95 53.7 41.8 53.7 42.35 53.7 46.6 56.35 L46.75 56.05 45.2 52.65 Q43.2 47.95 42.55 45.65 L42.75 45.45 Q44.15 45.45 48.15 49.45 L48.3 47.2 48.2 45.35 47.2 43.35 47.5 43.2 Q47.95 43.2 56.7 54.8 L57.7 55.15 Q57.75 54.05 60.0 54.05 62.85 54.05 63.55 58.95 63.55 60.65 61.35 60.65 59.95 60.65 59.6 60.15 59.0 61.15 56.85 61.15 L55.25 60.85 54.4 60.05 53.9 60.3 Q52.6 60.3 52.15 58.65 L51.95 57.0 Q51.95 54.55 54.65 54.55 L55.85 54.65 48.95 46.05 48.9 46.05 M68.65 43.3 Q64.4 41.15 62.95 40.85 L61.1 40.85 61.05 41.35 Q61.05 42.1 64.05 43.7 L63.65 44.05 Q62.6 44.05 61.45 42.8 60.45 41.75 60.45 41.35 60.45 40.2 61.85 40.2 64.4 40.2 66.35 41.3 L68.9 43.0 68.85 43.25 68.65 43.3 M64.65 46.25 Q63.8 46.9 63.1 46.9 61.95 46.9 61.05 46.25 60.3 45.7 60.3 45.4 60.3 44.2 63.45 44.2 64.55 44.2 64.8 44.55 L63.45 44.85 61.1 45.35 61.05 45.5 62.7 46.25 64.2 45.95 64.5 46.0 64.65 46.25 M66.6 48.15 L68.4 49.3 68.05 49.65 Q65.7 49.65 65.7 47.6 65.7 43.45 70.15 43.45 71.5 43.45 72.05 44.2 L72.05 45.25 71.75 45.4 Q71.55 45.35 71.4 44.7 71.25 44.1 70.05 44.1 67.95 44.1 66.95 45.65 66.3 46.6 66.3 47.5 66.3 48.0 66.6 48.15 M32.45 78.45 Q32.7 78.45 32.85 78.6 L32.9 78.75 Q32.9 79.85 32.3 81.65 31.65 83.45 31.65 84.8 L31.8 86.75 31.85 86.8 33.2 86.35 36.45 86.0 36.45 85.35 Q35.9 81.6 34.2 80.3 L34.2 80.25 34.55 79.95 Q36.4 79.95 37.15 86.35 L36.7 86.8 35.35 86.6 Q34.15 86.6 33.0 87.1 L31.75 87.55 Q31.15 87.55 31.05 86.2 L31.05 84.8 Q31.05 83.1 31.35 82.05 L32.05 78.5 32.45 78.45 M61.05 57.4 Q61.05 58.05 60.4 58.05 L60.15 58.0 60.05 57.75 Q60.05 57.3 60.75 56.95 L61.05 57.4 M62.25 56.6 Q61.3 54.7 59.9 54.7 59.65 54.7 58.25 55.5 59.8 56.65 59.8 59.2 L59.8 59.6 59.9 59.8 62.3 60.0 Q62.95 60.0 62.95 58.85 62.95 58.0 62.25 56.6 M55.45 57.35 L55.75 57.3 56.4 57.7 55.9 58.15 55.45 57.9 55.45 57.35 M52.75 58.4 Q53.15 59.7 54.15 59.7 L54.5 59.45 55.25 60.0 Q55.85 60.5 56.85 60.5 59.2 60.5 59.2 59.2 59.2 55.2 53.75 55.2 52.9 55.2 52.65 56.05 L52.55 57.0 52.75 58.4 M41.55 54.75 L41.9 54.7 43.1 55.0 42.15 54.35 41.55 54.35 41.55 54.75 M41.8 55.35 Q42.6 56.65 46.55 59.1 L46.55 58.6 46.6 58.6 45.5 57.1 44.85 56.25 44.65 56.05 44.1 55.7 44.0 55.65 44.3 55.95 44.25 56.15 44.0 56.3 42.4 55.35 41.8 55.35 M45.55 61.85 Q46.0 61.4 46.55 61.2 L46.55 59.65 Q45.55 59.65 43.8 58.4 L42.35 57.25 Q43.4 59.35 45.55 61.85 M47.55 56.5 L47.55 56.95 47.95 57.2 47.55 56.5 M46.2 57.05 L46.35 57.4 46.45 57.4 46.45 57.2 46.2 57.05 M46.85 58.55 L47.3 60.9 47.3 61.0 47.85 60.95 Q48.2 60.95 48.35 61.1 L48.4 61.25 48.2 61.4 49.15 61.3 48.35 58.1 47.1 57.6 47.1 57.65 46.85 58.55 M49.25 61.9 L48.6 62.1 50.1 63.45 52.0 65.45 53.3 67.45 55.5 67.75 54.2 66.35 Q50.8 63.75 49.4 62.1 L49.25 62.15 49.25 61.9 M48.35 62.15 L47.7 62.3 48.4 62.55 48.2 62.2 48.35 62.15 M48.65 63.3 L48.1 63.3 48.2 63.45 50.1 65.55 50.05 65.45 Q50.15 65.3 50.25 65.3 L51.8 66.8 52.2 67.0 48.95 63.3 48.65 63.3 M55.3 69.6 L54.45 71.15 55.85 72.1 56.6 69.05 56.15 68.5 56.0 68.3 53.7 68.0 54.4 69.0 54.35 69.2 54.1 69.3 53.25 69.0 52.6 69.8 53.85 70.7 55.0 69.2 55.3 69.6 M52.15 70.4 L48.8 74.55 51.15 75.6 51.25 75.35 52.0 73.25 53.35 71.3 52.6 70.75 52.15 70.4 M56.75 68.4 L56.75 68.35 56.7 68.35 56.75 68.4 M57.1 69.7 L56.55 72.5 56.7 72.5 Q57.6 72.5 57.8 71.15 L57.1 69.7 M52.85 84.35 L52.9 84.6 51.85 87.35 51.5 88.65 Q51.15 89.8 50.55 89.8 L42.2 88.05 Q42.2 87.15 43.95 86.1 L47.0 84.05 47.3 84.35 46.8 84.85 52.35 84.3 52.85 84.35 M42.85 87.9 L50.3 89.15 52.1 85.05 Q48.6 84.95 45.75 85.95 43.3 86.8 42.85 87.75 L42.85 87.9" fill="#000000" fill-rule="evenodd" stroke="none"/>
    </g>
  </defs>
</svg>
