<?xml version="1.0" encoding="UTF-8" standalone="no"?>
<svg xmlns:ffdec="https://www.free-decompiler.com/flash" xmlns:xlink="http://www.w3.org/1999/xlink" ffdec:objectType="frame" height="500.0px" width="500.0px" xmlns="http://www.w3.org/2000/svg">
  <g transform="matrix(5.0, 0.0, 0.0, 5.0, 0.0, 0.0)">
    <use ffdec:characterId="4" height="43.3" transform="matrix(1.0, 0.0, 0.0, 1.0, 0.0, 0.0)" width="52.4" xlink:href="#shape0"/>
  </g>
  <defs>
    <g id="shape0">
      <path d="M49.75 46.65 L58.0 54.05 Q58.0 53.75 58.2 53.75 L58.85 53.05 Q59.7 52.2 60.4 52.2 62.45 52.2 62.45 54.35 L62.3 55.4 Q65.1 55.9 65.1 58.65 L64.8 59.65 66.8 59.6 68.2 58.95 70.1 57.35 71.4 55.65 71.0 55.15 70.3 53.85 Q70.3 53.0 71.0 53.0 L71.95 53.1 72.1 52.85 71.95 51.8 Q71.95 51.0 72.1 50.45 72.4 49.25 73.25 49.25 74.75 49.25 75.8 54.55 L75.8 54.6 75.85 55.15 76.05 55.95 76.0 56.15 Q76.45 56.45 76.45 57.1 L75.95 58.05 75.05 58.75 74.85 58.75 74.7 58.7 74.6 58.9 74.8 58.85 Q76.9 58.85 76.9 61.0 76.9 62.15 74.5 63.05 L74.15 63.15 74.25 63.35 74.25 63.45 74.25 63.5 73.6 64.45 73.1 64.95 71.4 66.3 Q71.25 66.9 70.5 66.9 L69.65 66.7 68.15 68.55 65.75 70.1 60.5 70.7 56.85 70.25 54.95 73.8 Q54.15 76.2 54.1 78.55 L53.5 78.1 Q53.5 80.5 52.9 80.5 52.5 80.5 51.55 79.85 L50.8 79.2 50.75 79.15 49.9 78.65 49.4 79.05 Q48.5 79.05 48.5 77.15 L48.15 77.15 47.25 78.5 46.55 79.65 44.15 82.3 41.55 86.2 42.2 86.2 42.85 86.2 45.45 85.3 Q48.6 84.05 48.7 84.05 49.0 84.05 48.95 84.65 L48.8 87.85 Q48.65 89.1 47.85 89.2 L43.35 89.75 42.9 89.65 42.25 89.95 31.25 88.75 33.35 87.0 32.55 87.6 31.5 88.1 31.4 88.15 30.15 88.25 29.8 87.1 28.95 84.65 27.75 82.6 Q25.75 80.85 26.1 80.45 26.45 80.0 28.1 79.8 L29.5 79.75 Q30.1 79.15 31.0 79.9 L31.1 80.0 31.15 80.05 31.15 80.1 34.65 79.8 36.4 79.5 40.35 78.75 44.1 78.0 46.65 76.45 46.55 76.35 45.95 76.8 44.65 76.35 43.5 77.15 41.9 77.9 36.35 78.5 Q34.1 78.5 32.3 77.2 30.65 76.2 30.65 75.75 L30.75 75.5 30.55 75.15 Q29.15 77.55 29.15 78.6 L29.35 79.4 29.1 79.7 Q27.4 78.45 25.85 78.45 L24.75 78.55 24.5 78.3 Q25.75 75.8 26.35 74.85 27.5 72.55 27.95 72.05 28.5 71.45 30.25 71.45 31.95 71.45 31.95 71.9 31.95 72.6 30.9 74.5 L31.6 75.7 32.9 76.7 Q34.5 77.7 36.45 77.7 L41.3 77.2 43.25 76.55 43.75 76.1 42.6 75.95 41.05 76.2 40.7 76.45 Q40.45 76.45 40.1 75.9 39.75 75.35 38.5 75.35 L37.25 75.55 36.1 75.8 35.45 75.05 Q35.2 74.8 34.85 74.8 L33.0 74.55 Q33.0 73.95 38.25 70.3 43.6 66.45 45.2 66.25 L46.2 65.45 48.75 64.4 Q47.65 63.05 47.65 61.35 47.65 60.9 48.1 59.9 L47.85 59.9 47.4 59.95 Q45.95 59.95 42.95 58.35 41.05 57.25 41.05 55.85 41.05 54.45 42.8 54.45 44.8 54.45 46.75 55.9 L47.3 56.3 46.2 52.55 45.6 50.2 44.3 48.0 Q44.3 47.75 44.55 47.75 L46.05 49.0 Q47.7 50.15 49.05 50.2 L48.95 50.1 49.5 48.35 49.75 46.65 M36.25 75.25 L39.05 74.85 Q40.0 74.85 40.7 75.9 L41.95 75.45 Q44.3 75.45 45.9 76.25 L49.1 72.1 50.9 70.15 52.0 68.75 51.2 68.1 51.4 67.85 52.4 68.3 52.6 68.1 52.9 68.35 52.85 68.55 53.75 69.05 54.05 69.2 Q54.15 69.1 54.2 69.1 L54.45 69.35 56.25 69.8 Q56.75 69.0 57.05 69.0 L57.3 69.25 57.0 69.95 60.5 70.2 Q65.75 70.2 67.9 68.05 L69.5 66.0 69.45 65.95 Q68.8 66.2 68.2 65.6 67.8 65.7 67.65 65.95 L67.35 66.55 Q66.65 67.1 65.75 67.3 63.0 68.1 59.15 68.1 L53.55 67.6 53.1 67.4 52.5 67.3 Q51.0 66.9 49.0 64.7 L44.65 67.1 44.6 67.1 38.95 70.4 33.85 74.3 Q35.5 74.15 35.8 74.7 L36.25 75.25 M31.0 80.6 Q30.95 80.95 31.35 81.45 L31.3 81.4 31.35 82.05 Q31.85 84.2 33.3 85.4 L33.85 85.8 Q34.65 84.75 40.4 81.3 L44.25 78.85 45.5 77.9 44.45 78.55 40.85 79.3 Q34.4 80.6 32.1 80.6 L31.0 80.6 M37.7 82.65 L37.6 82.7 37.7 82.65 M35.5 85.5 L36.5 85.95 40.6 86.15 42.15 84.2 43.9 81.7 46.1 79.25 46.8 77.95 47.05 77.6 44.85 79.25 41.05 81.7 Q39.65 82.4 37.6 84.05 L35.5 85.5 M74.35 50.9 Q73.95 49.8 73.25 49.8 72.65 49.8 72.5 50.75 72.4 51.25 72.45 51.8 L72.5 52.2 73.0 51.55 Q73.6 51.55 73.55 52.2 73.55 53.65 73.05 54.1 L73.25 54.55 73.0 54.8 72.5 54.3 72.45 54.3 72.3 54.3 72.3 54.5 72.3 54.95 72.25 55.75 72.7 56.1 72.45 56.35 72.15 56.3 71.3 58.9 69.85 61.6 71.4 60.5 71.7 60.3 71.5 60.15 Q72.1 59.8 72.55 58.9 L72.6 58.85 72.4 58.65 72.1 58.9 71.7 58.3 Q71.7 57.6 72.35 56.9 73.25 55.9 74.8 55.9 L75.75 56.05 75.35 55.15 75.4 54.65 74.85 52.5 74.35 50.9 M72.95 52.4 L72.95 52.85 73.0 52.85 73.05 52.2 72.95 52.4 M71.05 53.55 Q70.8 53.55 70.8 53.85 70.8 54.35 71.6 55.15 L72.0 53.8 71.05 53.55 M75.55 57.0 L75.3 57.3 75.2 57.25 75.2 57.3 74.85 58.35 75.2 58.2 75.2 58.15 75.95 57.1 Q75.9 56.4 74.75 56.4 73.4 56.4 72.7 57.25 72.2 57.8 72.2 58.2 L72.25 58.3 72.35 58.2 72.65 58.5 Q72.9 57.45 73.05 57.45 L73.2 57.5 73.8 57.15 Q74.6 56.7 75.05 56.7 L75.55 57.0 M73.3 57.9 L72.85 59.6 Q73.5 59.2 74.0 59.05 L73.95 59.0 74.75 57.4 73.3 57.9 M71.65 56.1 L70.45 57.7 Q68.15 60.4 65.3 60.4 L64.05 60.25 60.95 60.75 Q58.8 60.75 58.7 60.15 57.8 60.95 55.8 60.95 51.55 60.95 51.1 58.4 L49.65 58.25 49.0 59.2 Q48.15 60.45 48.15 61.3 48.15 62.8 49.3 64.3 L49.35 64.4 49.5 64.55 51.1 66.05 51.65 66.3 Q51.65 66.15 51.8 66.15 52.1 66.15 52.9 66.65 L57.9 67.05 Q62.7 67.05 64.7 66.05 L66.25 65.05 66.35 65.1 66.35 65.0 Q66.35 64.15 67.35 63.9 L66.15 62.95 Q64.9 62.2 64.9 61.6 64.9 60.9 66.5 60.9 67.3 60.9 68.4 61.7 L68.75 62.0 Q70.2 60.15 70.95 58.2 L71.65 56.1 M71.55 60.95 L69.35 62.5 69.15 62.3 69.1 62.3 69.4 62.8 69.15 63.05 Q68.15 61.4 66.45 61.4 L65.45 61.55 65.4 61.6 66.7 62.65 Q67.75 63.35 67.95 63.8 L68.4 63.75 68.9 63.8 Q69.7 63.8 70.4 64.35 70.5 63.7 73.4 62.85 76.4 62.0 76.4 61.0 76.4 59.35 75.0 59.35 73.8 59.35 71.55 60.95 M61.8 55.3 L61.85 55.3 61.8 55.25 61.95 54.35 Q61.95 52.75 60.55 52.75 59.6 52.75 59.1 53.5 L58.55 54.15 58.65 54.3 58.5 54.5 59.55 55.45 59.55 55.5 60.9 55.25 61.8 55.3 M61.15 58.25 Q61.15 57.9 61.6 57.9 L61.85 58.25 61.55 58.55 61.15 58.25 M64.6 58.65 Q64.6 55.75 60.25 55.75 L58.45 56.6 58.5 56.65 Q59.4 57.5 59.4 58.4 59.4 59.3 59.0 59.85 L60.95 60.25 Q64.6 60.25 64.6 58.65 M68.35 64.25 Q67.45 64.2 66.85 65.0 L67.45 65.5 Q67.75 65.05 68.4 65.05 69.15 65.05 69.25 65.4 L69.8 65.55 70.1 65.05 70.35 65.3 70.1 65.95 70.1 66.0 69.9 66.25 69.75 66.5 70.9 66.4 70.9 66.3 70.7 66.1 70.95 65.95 70.95 65.9 Q70.95 65.05 69.8 64.6 L68.85 64.25 68.35 64.25 M67.3 65.75 L67.2 65.75 66.5 65.5 Q66.25 66.0 64.6 66.6 62.0 67.55 57.85 67.55 L57.1 67.55 59.1 67.6 Q63.0 67.6 65.75 66.75 L67.2 65.95 67.3 65.75 M73.3 64.0 L73.8 63.25 72.25 63.7 70.75 64.6 71.45 65.6 72.1 65.15 72.0 65.05 Q72.0 64.9 73.15 64.15 L73.3 64.0 M51.7 58.2 L51.6 58.35 Q52.0 60.45 55.8 60.45 58.9 60.45 58.9 58.35 58.9 55.95 54.5 55.95 53.3 55.95 52.35 56.7 51.55 57.3 51.55 57.8 L51.6 58.15 51.7 58.2 M49.65 50.1 Q49.95 50.1 49.95 50.35 49.95 50.7 49.2 50.7 48.1 50.7 45.8 49.35 46.35 50.45 46.9 53.1 L48.05 56.7 48.05 56.85 48.65 57.3 48.65 57.2 48.85 57.0 50.05 57.6 51.05 58.0 51.05 57.75 Q51.05 57.1 52.0 56.35 53.15 55.4 54.85 55.4 56.8 55.4 58.05 56.25 58.2 56.05 58.9 55.75 L59.15 55.65 Q57.95 55.0 50.0 47.5 50.0 49.5 49.65 50.1 L49.6 50.15 49.65 50.1 M56.75 58.1 Q56.75 58.5 56.4 58.5 L56.1 58.2 Q56.1 57.75 56.5 57.75 56.75 57.75 56.75 58.1 M46.9 59.3 L47.1 59.1 48.2 59.6 48.35 59.3 Q48.8 58.3 49.2 57.95 L49.2 57.9 48.95 57.95 47.8 57.0 47.6 56.9 Q45.0 55.0 42.8 55.0 41.55 55.0 41.55 55.85 41.55 57.4 44.75 58.6 L46.9 59.35 46.9 59.3 M49.25 57.65 L49.2 57.65 49.25 57.7 49.25 57.65 M54.25 69.75 L51.85 73.35 Q50.35 76.7 48.9 77.1 L49.35 78.6 49.85 78.15 50.65 78.75 50.8 78.65 Q51.2 78.65 51.65 79.35 L52.8 80.0 Q52.75 77.1 53.2 77.1 L53.9 77.8 Q53.9 74.7 54.65 73.1 L56.05 70.15 54.85 70.0 54.25 69.75 M53.7 69.55 L52.5 69.0 49.45 72.5 47.9 74.3 48.0 74.25 48.95 74.65 49.05 74.6 49.55 74.95 50.6 75.1 50.7 74.75 Q51.05 73.65 51.6 72.8 53.0 70.35 53.7 69.55" fill="#000000" fill-rule="evenodd" stroke="none"/>
      <path d="M36.25 75.25 L35.8 74.7 Q35.5 74.15 33.85 74.3 L38.95 70.4 44.6 67.1 44.65 67.1 49.0 64.7 Q51.0 66.9 52.5 67.3 L53.1 67.4 53.55 67.6 59.15 68.1 Q63.0 68.1 65.75 67.3 66.65 67.1 67.35 66.55 L67.65 65.95 Q67.8 65.7 68.2 65.6 68.8 66.2 69.45 65.95 L69.5 66.0 67.9 68.05 Q65.75 70.2 60.5 70.2 L57.0 69.95 57.3 69.25 57.05 69.0 Q56.75 69.0 56.25 69.8 L54.45 69.35 54.2 69.1 Q54.15 69.1 54.05 69.2 L53.75 69.05 52.85 68.55 52.9 68.35 52.6 68.1 52.4 68.3 51.4 67.85 51.2 68.1 52.0 68.75 50.9 70.15 49.1 72.1 45.9 76.25 Q44.3 75.45 41.95 75.45 L40.7 75.9 Q40.0 74.85 39.05 74.85 L36.25 75.25 M73.3 57.9 L74.75 57.4 73.95 59.0 74.0 59.05 Q73.5 59.2 72.85 59.6 L73.3 57.9 M61.85 55.3 L61.8 55.3 60.9 55.25 59.55 55.5 59.55 55.45 58.5 54.5 58.65 54.3 58.55 54.15 59.1 53.5 Q59.6 52.75 60.55 52.75 61.95 52.75 61.95 54.35 L61.8 55.25 61.85 55.3 M73.3 64.0 L73.15 64.15 Q72.0 64.9 72.0 65.05 L72.1 65.15 71.45 65.6 70.75 64.6 72.25 63.7 73.8 63.25 73.3 64.0 M49.65 50.1 Q50.0 49.5 50.0 47.5 57.95 55.0 59.15 55.65 L58.9 55.75 Q58.2 56.05 58.05 56.25 56.8 55.4 54.85 55.4 53.15 55.4 52.0 56.35 51.05 57.1 51.05 57.75 L51.05 58.0 50.05 57.6 48.85 57.0 48.65 57.2 48.65 57.3 48.05 56.85 48.05 56.7 46.9 53.1 Q46.35 50.45 45.8 49.35 48.1 50.7 49.2 50.7 49.95 50.7 49.95 50.35 49.95 50.1 49.65 50.1 M46.9 59.35 L44.75 58.6 Q41.55 57.4 41.55 55.85 41.55 55.0 42.8 55.0 45.0 55.0 47.6 56.9 L47.8 57.0 48.95 57.95 49.2 57.9 49.2 57.95 Q48.8 58.3 48.35 59.3 L48.2 59.6 47.1 59.1 46.9 59.3 46.9 59.35 M54.25 69.75 L54.85 70.0 56.05 70.15 54.65 73.1 Q53.9 74.7 53.9 77.8 L53.2 77.1 Q52.75 77.1 52.8 80.0 L51.65 79.35 Q51.2 78.65 50.8 78.65 L50.65 78.75 49.85 78.15 49.35 78.6 48.9 77.1 Q50.35 76.7 51.85 73.35 L54.25 69.75" fill="#ffb600" fill-rule="evenodd" stroke="none"/>
      <path d="M53.7 69.55 Q53.0 70.35 51.6 72.8 51.05 73.65 50.7 74.75 L50.6 75.1 49.55 74.95 49.05 74.6 48.95 74.65 48.0 74.25 47.9 74.3 49.45 72.5 52.5 69.0 53.7 69.55" fill="#a800a0" fill-rule="evenodd" stroke="none"/>
      <path d="M74.35 50.9 L74.85 52.5 75.4 54.65 75.35 55.15 75.75 56.05 74.8 55.9 Q73.25 55.9 72.35 56.9 71.7 57.6 71.7 58.3 L72.1 58.9 72.4 58.65 72.6 58.85 72.55 58.9 Q72.1 59.8 71.5 60.15 L71.7 60.3 71.4 60.5 69.85 61.6 71.3 58.9 72.15 56.3 72.45 56.35 72.7 56.1 72.25 55.75 72.3 54.95 72.3 54.5 72.3 54.3 72.45 54.3 72.5 54.3 73.0 54.8 73.25 54.55 73.05 54.1 Q73.55 53.65 73.55 52.2 73.6 51.55 73.0 51.55 L72.5 52.2 72.45 51.8 Q72.4 51.25 72.5 50.75 72.65 49.8 73.25 49.8 73.95 49.8 74.35 50.9 M75.55 57.0 L75.05 56.7 Q74.6 56.7 73.8 57.15 L73.2 57.5 73.05 57.45 Q72.9 57.45 72.65 58.5 L72.35 58.2 72.25 58.3 72.2 58.2 Q72.2 57.8 72.7 57.25 73.4 56.4 74.75 56.4 75.9 56.4 75.95 57.1 L75.2 58.15 75.2 58.2 74.85 58.35 75.2 57.3 75.2 57.25 75.3 57.3 75.55 57.0 M71.55 60.95 Q73.8 59.35 75.0 59.35 76.4 59.35 76.4 61.0 76.4 62.0 73.4 62.85 70.5 63.7 70.4 64.35 69.7 63.8 68.9 63.8 L68.4 63.75 67.95 63.8 Q67.75 63.35 66.7 62.65 L65.4 61.6 65.45 61.55 66.45 61.4 Q68.15 61.4 69.15 63.05 L69.4 62.8 69.1 62.3 69.15 62.3 69.35 62.5 71.55 60.95 M68.35 64.25 L68.85 64.25 69.8 64.6 Q70.95 65.05 70.95 65.9 L70.95 65.95 70.7 66.1 70.9 66.3 70.9 66.4 69.75 66.5 69.9 66.25 70.1 66.0 70.1 65.95 70.35 65.3 70.1 65.05 69.8 65.55 69.25 65.4 Q69.15 65.05 68.4 65.05 67.75 65.05 67.45 65.5 L66.85 65.0 Q67.45 64.2 68.35 64.25 M64.6 58.65 Q64.6 60.25 60.95 60.25 L59.0 59.85 Q59.4 59.3 59.4 58.4 59.4 57.5 58.5 56.65 L58.45 56.6 60.25 55.75 Q64.6 55.75 64.6 58.65 M61.15 58.25 L61.55 58.55 61.85 58.25 61.6 57.9 Q61.15 57.9 61.15 58.25 M51.7 58.2 L51.6 58.15 51.55 57.8 Q51.55 57.3 52.35 56.7 53.3 55.95 54.5 55.95 58.9 55.95 58.9 58.35 58.9 60.45 55.8 60.45 52.0 60.45 51.6 58.35 L51.7 58.2 M56.75 58.1 Q56.75 57.75 56.5 57.75 56.1 57.75 56.1 58.2 L56.4 58.5 Q56.75 58.5 56.75 58.1" fill="#ffffff" fill-rule="evenodd" stroke="none"/>
      <path d="M71.65 56.1 L70.95 58.2 Q70.2 60.15 68.75 62.0 L68.4 61.7 Q67.3 60.9 66.5 60.9 64.9 60.9 64.9 61.6 64.9 62.2 66.15 62.95 L67.35 63.9 Q66.35 64.15 66.35 65.0 L66.35 65.1 66.25 65.05 64.7 66.05 Q62.7 67.05 57.9 67.05 L52.9 66.65 Q52.1 66.15 51.8 66.15 51.65 66.15 51.65 66.3 L51.1 66.05 49.5 64.55 49.35 64.4 49.3 64.3 Q48.15 62.8 48.15 61.3 48.15 60.45 49.0 59.2 L49.65 58.25 51.1 58.4 Q51.55 60.95 55.8 60.95 57.8 60.95 58.7 60.15 58.8 60.75 60.95 60.75 L64.05 60.25 65.3 60.4 Q68.15 60.4 70.45 57.7 L71.65 56.1" fill="#9cb9cb" fill-rule="evenodd" stroke="none"/>
    </g>
  </defs>
</svg>
