<?xml version="1.0" encoding="UTF-8" standalone="no"?>
<svg xmlns:ffdec="https://www.free-decompiler.com/flash" xmlns:xlink="http://www.w3.org/1999/xlink" ffdec:objectType="frame" height="500.0px" width="500.0px" xmlns="http://www.w3.org/2000/svg">
  <g transform="matrix(5.0, 0.0, 0.0, 5.0, 0.0, 0.0)">
    <use ffdec:characterId="4" height="34.2" transform="matrix(1.0, 0.0, 0.0, 1.0, 0.0, 0.0)" width="69.0" xlink:href="#shape0"/>
  </g>
  <defs>
    <g id="shape0">
      <path d="M82.4 67.65 L83.55 67.25 Q84.15 67.25 84.0 69.3 L84.0 69.4 88.75 70.4 91.1 70.85 Q91.8 71.05 91.8 71.8 91.8 73.8 89.1 73.8 86.0 73.2 85.25 72.45 L85.6 72.05 Q86.4 72.05 88.7 73.15 90.7 73.15 91.2 71.7 L85.4 70.6 83.95 70.35 83.65 71.1 83.0 71.75 84.2 72.75 84.85 72.8 Q86.4 73.1 86.4 73.8 86.4 74.2 85.6 75.05 84.65 76.05 83.6 76.05 81.85 76.05 78.85 74.9 79.35 75.15 79.4 76.1 79.4 77.65 78.5 77.65 L76.25 75.95 73.8 73.7 73.8 73.1 74.1 73.05 78.5 76.85 78.75 76.15 Q78.1 75.95 78.0 74.95 L78.35 74.8 78.7 74.85 76.45 73.9 76.8 73.45 Q77.3 73.45 79.7 74.4 L83.1 75.4 Q84.85 75.4 85.75 73.95 85.0 73.55 76.15 72.6 74.3 72.35 72.35 71.7 L72.25 71.9 Q71.5 73.5 70.6 73.5 69.7 73.5 69.7 72.8 69.7 72.4 70.05 72.4 70.5 72.4 70.65 72.85 71.1 72.85 71.75 71.5 L72.25 69.9 72.0 68.8 70.75 69.25 70.45 69.6 70.75 69.8 Q70.75 70.1 70.4 70.1 L66.9 69.4 63.05 69.0 58.45 69.35 57.55 69.35 61.0 70.15 69.75 71.7 Q70.65 71.7 70.85 70.75 71.0 69.8 71.2 69.8 71.5 69.8 71.5 70.3 71.5 72.3 69.7 72.3 L64.2 71.55 60.55 70.7 57.15 69.9 53.95 74.15 50.5 78.8 Q50.2 78.8 50.15 78.25 50.05 77.7 49.8 77.7 47.4 79.45 46.75 79.45 46.3 79.45 46.2 78.65 L46.15 77.75 Q46.15 76.6 46.4 76.15 L45.85 76.2 Q45.1 76.2 44.45 75.7 L43.85 74.95 Q43.85 74.55 44.15 74.55 44.35 74.55 45.6 75.6 L47.9 74.9 Q46.9 74.4 46.9 72.65 L46.95 72.45 41.4 75.45 40.75 74.7 Q39.85 73.9 36.85 73.9 L35.05 74.2 Q34.6 74.2 34.6 73.85 L34.85 73.5 30.55 73.8 29.7 75.2 29.4 74.9 30.0 73.6 29.9 73.5 30.1 73.4 31.7 69.15 31.7 68.8 Q28.4 70.15 24.85 73.6 L26.55 75.4 27.45 74.55 29.9 75.8 Q31.25 76.6 31.25 77.2 L28.0 79.6 26.65 81.1 Q26.1 82.3 25.8 82.3 L24.6 80.95 Q22.8 80.75 22.8 79.8 22.8 78.4 24.5 77.05 L26.15 75.85 23.95 73.65 Q23.95 73.4 27.6 70.65 30.75 67.95 32.05 67.95 32.35 67.95 32.35 68.6 32.35 70.05 31.45 72.05 L31.1 72.8 Q36.0 69.65 36.6 69.45 45.3 65.4 46.25 65.4 L46.55 65.7 Q38.25 68.8 31.65 72.95 L31.55 73.05 33.9 72.85 Q35.55 72.85 35.95 73.25 L39.05 73.45 Q41.4 73.55 41.55 74.65 L47.05 71.55 50.15 69.8 Q51.45 69.15 52.25 68.85 L49.85 68.45 Q49.85 68.0 52.05 68.15 L51.5 67.7 51.0 67.35 49.8 66.4 Q46.8 64.3 46.8 61.95 46.8 61.2 47.35 60.05 L47.0 60.1 44.65 59.45 Q42.85 58.75 42.15 58.1 40.1 56.15 40.1 55.3 40.1 54.65 41.0 54.65 L46.2 56.6 Q48.05 57.3 48.9 57.85 L47.45 54.2 45.25 50.1 Q45.25 49.8 45.55 49.8 46.3 49.8 48.15 51.0 L50.8 51.75 Q51.95 51.75 51.95 49.95 51.9 48.1 52.55 48.1 L56.35 52.3 57.55 53.7 57.55 53.65 Q57.55 53.0 58.35 51.15 L58.65 49.85 Q58.9 49.2 59.9 48.95 60.95 49.1 61.6 50.9 62.2 52.45 62.2 53.95 62.05 57.1 61.45 57.1 61.15 57.1 61.15 56.7 L61.6 53.95 Q61.05 49.8 60.0 49.6 59.35 49.75 59.1 50.65 L58.75 51.95 57.95 54.15 59.8 56.55 59.5 56.85 52.65 49.0 52.6 49.0 52.35 51.15 Q52.05 52.35 51.05 52.35 49.1 52.35 46.35 50.85 49.45 57.4 49.45 58.2 L49.45 58.3 49.5 58.5 49.15 58.8 48.85 58.65 47.4 62.0 Q47.4 63.1 48.3 64.05 L50.4 66.1 51.5 67.1 62.7 68.35 63.0 68.4 67.6 67.15 67.55 67.05 Q67.55 66.75 67.95 66.75 L68.3 66.85 69.85 66.15 Q70.65 65.75 73.1 62.8 L68.5 63.15 Q63.85 63.15 63.85 62.4 63.85 62.1 64.15 62.1 64.6 62.1 64.5 62.35 L68.55 62.55 73.35 62.05 73.55 61.9 73.95 60.9 Q74.35 60.2 74.7 60.2 L75.3 59.8 Q75.55 59.8 75.55 60.15 74.8 62.05 74.15 62.25 L72.35 64.35 70.4 66.5 Q74.75 66.5 77.9 67.35 L81.25 67.7 82.1 67.85 82.4 67.65 M83.35 68.8 L83.05 69.1 81.95 68.5 80.0 68.3 76.95 67.85 73.25 67.5 Q70.15 67.2 69.85 66.9 L69.3 67.15 72.05 68.0 75.35 68.75 78.55 69.5 Q79.25 69.6 80.35 70.0 81.9 70.5 81.9 70.9 L81.6 71.2 79.6 70.35 77.85 70.0 Q75.6 69.35 74.6 69.25 L72.65 68.8 72.85 69.9 72.55 71.2 72.65 71.2 74.6 71.65 75.55 71.85 79.2 72.1 81.15 72.4 Q80.85 72.1 80.85 71.55 80.85 71.05 81.15 71.05 L81.45 71.5 Q81.5 71.95 81.85 71.95 L82.25 71.65 82.25 71.6 82.35 71.6 83.1 70.8 83.35 70.25 Q82.2 69.95 82.2 69.6 L82.25 69.4 82.5 69.3 83.4 69.35 83.35 67.95 82.9 68.15 Q83.35 68.4 83.35 68.8 M82.5 72.2 L82.1 72.5 82.8 72.6 82.5 72.2 M23.4 79.8 Q24.75 80.0 25.7 81.35 28.3 78.2 30.5 77.0 30.25 76.7 27.4 75.2 27.15 76.1 24.95 77.45 L23.4 79.8 M62.15 61.55 L59.75 61.05 59.8 60.9 59.45 61.1 Q58.25 61.85 56.8 61.85 55.05 61.85 52.45 60.55 49.75 59.2 49.75 58.15 49.75 56.55 53.95 56.55 56.2 56.55 58.95 57.65 L59.8 58.1 61.65 58.05 Q66.55 57.65 66.55 60.4 66.55 61.75 64.2 61.75 L62.15 61.55 M62.95 59.3 L63.35 59.35 63.4 59.8 63.35 60.3 63.05 60.4 62.55 59.8 Q62.55 59.3 62.95 59.3 M65.95 60.4 Q65.95 58.7 62.65 58.65 L60.15 58.55 Q60.5 59.05 60.5 59.75 L60.0 60.7 60.2 60.75 60.2 60.8 64.25 61.15 Q65.95 61.15 65.95 60.4 M70.45 68.7 Q70.7 68.5 71.0 68.4 L68.3 67.55 65.05 68.6 67.15 68.9 69.75 69.4 Q69.85 69.1 70.45 68.7 M54.0 60.35 L54.75 60.8 56.85 61.25 Q58.0 61.25 59.05 60.6 L59.9 59.75 Q59.9 57.4 53.35 57.2 L53.1 57.2 Q52.5 57.8 51.9 57.5 L50.7 57.6 Q50.35 57.8 50.35 58.15 50.35 58.7 51.9 59.55 53.35 60.35 54.0 60.35 M57.25 58.7 Q57.45 58.75 57.55 58.95 L57.55 59.7 57.3 59.8 56.95 59.75 56.95 58.9 57.0 58.75 57.25 58.7 M40.7 55.3 Q41.05 56.75 42.95 57.9 L45.55 59.1 47.45 59.8 48.4 58.4 Q46.95 57.55 45.65 57.05 L41.3 55.3 40.7 55.3 M47.75 73.55 L48.7 74.45 49.1 74.15 51.55 72.25 54.15 70.45 55.5 69.6 53.75 69.2 53.3 69.05 50.1 70.6 Q48.1 71.55 47.25 72.2 L47.75 73.55 M52.05 68.15 L51.2 68.15 52.2 68.3 52.05 68.15 M55.5 70.95 L56.45 69.8 56.35 69.75 51.75 72.85 Q49.05 75.35 47.1 76.0 L47.15 76.15 46.75 77.75 46.95 78.8 Q49.15 77.05 49.85 77.05 50.25 77.05 50.6 77.55 L53.8 73.25 55.5 70.95 M59.75 68.75 L53.9 68.2 58.45 68.75 59.75 68.75" fill="#000000" fill-rule="evenodd" stroke="none"/>
    </g>
  </defs>
</svg>
