<?xml version="1.0" encoding="UTF-8" standalone="no"?>
<svg xmlns:ffdec="https://www.free-decompiler.com/flash" xmlns:xlink="http://www.w3.org/1999/xlink" ffdec:objectType="frame" height="500.0px" width="500.0px" xmlns="http://www.w3.org/2000/svg">
  <g transform="matrix(5.0, 0.0, 0.0, 5.0, 0.0, 0.0)">
    <use ffdec:characterId="6" height="38.65" transform="matrix(1.0, 0.0, 0.0, 1.0, 0.0, 0.0)" width="66.95" xlink:href="#shape0"/>
  </g>
  <defs>
    <g id="shape0">
      <path d="M50.15 58.85 L49.9 58.25 Q49.55 58.05 49.65 57.45 L44.3 47.0 Q44.35 46.75 44.6 46.8 L46.65 48.45 Q48.75 50.1 50.55 50.45 L51.3 50.4 51.25 50.35 51.3 49.5 50.55 47.1 Q49.6 44.55 49.7 43.95 L50.0 43.7 Q50.7 43.8 54.05 49.35 L56.2 52.55 56.5 53.05 Q56.15 52.4 56.0 50.95 55.75 49.0 55.9 48.3 56.15 46.55 57.0 46.7 58.65 47.0 59.55 51.45 L60.35 56.3 61.5 56.5 Q62.2 56.6 64.1 58.15 64.55 58.5 64.35 60.0 64.1 61.45 63.1 62.1 L65.2 62.45 66.4 62.4 68.9 61.7 Q70.05 61.35 72.2 59.95 L72.3 59.75 72.2 59.2 Q72.2 58.9 72.75 58.2 73.3 57.35 73.55 57.4 73.8 57.45 73.8 58.2 73.5 60.1 72.95 60.65 L72.95 60.75 Q72.85 61.65 71.15 64.2 L70.0 65.6 79.2 67.2 79.05 67.0 79.1 66.8 78.9 66.8 78.7 66.5 Q78.8 65.9 80.15 66.05 L80.7 66.0 80.95 66.2 Q81.55 66.3 82.0 66.65 L82.15 66.6 82.75 66.65 82.7 66.6 85.95 66.85 Q91.25 67.9 90.85 70.75 90.7 71.65 89.05 71.35 L87.0 70.2 86.75 70.1 86.95 72.5 Q86.9 72.85 86.4 72.75 85.75 72.6 84.15 70.95 L82.75 69.35 Q82.4 70.3 81.65 70.35 83.6 71.1 83.45 72.5 83.3 73.15 82.95 73.3 L77.55 72.7 Q78.2 73.0 78.4 74.8 78.3 75.5 77.2 75.3 76.3 75.15 75.0 73.85 L73.65 72.7 73.45 72.7 71.95 72.55 Q71.4 73.05 70.65 72.9 69.55 72.8 69.5 71.95 L66.9 71.4 Q60.65 70.2 57.0 70.05 L57.0 70.1 56.55 71.65 56.9 71.3 57.1 71.6 Q57.0 72.3 53.4 75.2 L49.5 78.65 Q49.45 77.35 48.9 77.25 L47.85 77.9 47.65 77.6 47.65 77.55 47.65 77.6 47.05 77.9 Q46.85 77.85 46.9 77.6 47.0 76.9 47.2 76.55 L44.6 76.6 43.65 76.05 43.45 75.85 41.65 77.35 Q41.45 77.3 41.5 76.5 L37.2 77.65 31.25 78.35 28.1 82.35 Q26.55 81.4 26.0 81.15 L23.95 80.2 26.55 77.75 27.85 76.25 27.1 75.55 Q25.4 74.4 25.5 74.05 L30.75 69.65 Q30.8 69.45 31.1 69.5 L31.5 69.6 31.7 69.55 Q32.3 69.65 32.9 70.4 34.15 69.1 35.3 68.75 L39.9 67.0 45.35 65.85 Q45.55 65.85 45.6 66.0 L47.5 65.4 Q45.8 63.3 46.15 61.0 L46.4 59.75 46.35 59.75 46.3 59.7 46.0 59.8 Q44.95 59.6 43.15 58.15 L41.35 56.55 Q39.55 54.9 39.8 53.3 39.95 52.3 40.7 52.45 L44.9 55.85 Q46.15 56.75 48.3 57.75 L49.75 58.6 50.1 58.9 49.65 59.05 49.5 58.95 49.4 58.95 48.0 58.4 47.05 59.4 Q46.85 59.6 46.65 61.05 46.3 63.25 48.1 65.3 L50.5 67.0 52.55 68.1 65.85 68.8 Q67.35 68.05 68.6 66.55 L70.85 63.7 72.55 60.85 72.35 60.85 72.2 60.7 Q71.45 61.25 69.5 62.05 66.2 63.2 63.95 62.8 62.65 62.55 62.7 62.25 L60.1 62.3 Q57.9 61.85 58.0 60.95 56.75 62.15 53.3 61.5 51.85 61.25 50.9 60.05 L50.3 59.05 50.2 59.05 50.15 58.85 M82.45 67.15 L82.55 67.3 82.95 68.4 82.9 68.8 Q83.65 68.95 84.55 70.6 L86.45 72.25 86.5 71.85 86.3 70.5 85.8 69.6 84.75 68.95 Q84.8 68.65 85.4 68.8 86.2 68.95 87.35 69.85 88.4 70.7 89.15 70.85 90.3 71.05 90.35 70.65 L89.65 68.95 Q88.7 67.9 85.85 67.35 L84.1 67.1 84.1 67.2 83.8 67.45 83.1 67.2 82.45 67.15 M81.35 69.85 Q82.2 70.0 82.5 68.3 82.65 67.0 80.8 66.65 L80.2 66.7 79.55 66.95 79.7 67.25 79.9 67.1 80.6 67.4 Q81.15 67.9 81.15 69.2 L81.2 69.2 81.25 69.4 81.1 69.6 81.35 69.85 M82.95 72.4 Q83.1 71.05 79.95 70.45 L73.0 69.7 72.8 69.5 72.8 70.35 Q72.65 71.4 72.3 72.05 L72.6 72.1 73.0 72.0 Q74.05 72.0 74.05 72.45 L74.05 72.55 75.25 73.45 Q76.7 74.7 77.3 74.8 77.85 74.9 77.9 74.65 L77.1 72.85 77.25 72.65 75.0 72.35 Q74.7 72.25 74.75 72.05 74.8 71.55 81.9 73.05 L82.8 72.8 82.95 72.4 M56.4 48.4 Q56.05 50.75 57.25 53.25 L57.1 53.5 57.1 53.9 57.05 54.0 57.75 55.5 57.45 55.7 Q57.1 55.65 55.8 52.9 L52.45 47.5 50.4 44.95 51.65 49.0 51.8 49.7 51.85 50.1 51.8 50.15 51.75 50.4 52.3 50.35 52.7 49.95 52.95 50.25 Q52.8 51.4 50.55 50.95 48.55 50.55 47.35 49.65 L45.35 48.0 47.8 52.7 49.95 57.0 49.95 56.9 Q50.15 56.9 50.2 57.45 50.95 54.95 55.35 55.8 57.3 56.2 58.15 57.2 58.35 56.25 60.0 56.3 L59.2 52.05 Q58.35 47.55 57.0 47.3 L56.4 48.4 M30.9 73.65 L30.9 73.7 31.2 73.65 31.35 73.55 31.55 73.65 34.1 73.9 Q34.8 74.0 34.75 74.6 L34.15 75.6 41.55 74.35 Q42.1 74.45 42.15 75.4 L43.8 74.9 45.25 74.0 45.2 73.95 Q45.2 73.7 45.45 73.75 L45.6 73.8 46.75 73.1 Q50.15 70.95 51.6 70.45 L51.55 70.35 52.25 69.9 52.2 69.8 Q52.2 69.65 52.8 69.55 L53.3 69.3 53.5 69.4 53.5 69.5 55.2 69.5 54.45 69.35 62.95 70.1 62.7 70.15 67.55 70.95 69.7 71.45 69.95 71.55 70.55 71.15 70.35 71.15 70.1 70.85 70.85 70.15 70.75 70.0 70.7 70.05 66.0 69.15 65.45 69.4 Q65.35 69.2 65.05 69.15 L65.0 69.15 65.15 69.1 54.15 68.7 54.15 68.65 Q53.65 68.35 53.6 68.85 L53.75 69.1 52.55 68.65 51.2 68.6 51.0 68.3 51.55 68.15 47.75 65.65 45.5 66.35 45.4 66.35 40.35 67.4 35.95 69.0 Q34.85 69.4 33.3 70.95 L33.5 71.3 Q33.45 71.55 33.2 71.55 L32.95 71.3 32.35 71.9 32.45 71.9 Q33.3 72.0 33.3 72.45 33.2 72.85 32.05 72.65 L31.8 72.6 30.9 73.65 M31.9 77.5 L36.55 76.95 40.75 75.95 41.6 75.6 41.45 74.85 33.55 76.3 33.35 75.95 34.25 74.7 34.25 74.45 33.6 74.3 31.4 74.2 30.3 75.55 Q32.4 76.0 32.35 76.35 L31.9 77.5 M63.65 60.0 Q63.5 60.8 62.65 60.65 62.25 60.55 62.3 60.25 62.4 59.35 63.25 59.5 63.65 59.6 63.65 60.0 M61.45 57.0 L59.1 57.2 58.4 57.65 Q58.8 58.4 58.65 59.55 L58.2 60.7 58.3 60.7 Q58.65 60.75 60.25 61.85 63.45 62.45 63.85 59.9 64.2 57.5 61.45 57.0 M68.2 67.5 L66.6 68.85 67.75 68.9 69.85 69.35 70.25 69.5 70.3 69.45 70.2 69.35 70.3 68.9 70.25 68.8 Q70.25 68.65 71.05 68.35 L72.25 68.05 Q72.75 68.15 72.8 69.35 73.3 68.65 80.15 70.0 L80.6 70.05 Q80.35 69.85 80.4 69.6 L80.45 69.5 71.0 67.65 70.9 67.75 69.05 67.8 69.5 67.8 68.3 67.65 68.2 67.5 M68.8 67.0 L68.85 67.0 70.95 67.3 72.4 67.4 80.7 69.05 80.6 68.6 79.85 67.65 70.6 66.15 69.75 65.9 68.8 67.0 M70.75 69.35 L70.8 69.35 71.1 69.45 71.2 69.55 71.25 69.4 Q71.55 69.45 71.45 69.95 71.15 71.85 70.2 72.05 L70.2 72.15 70.3 72.15 70.75 72.4 Q71.65 72.55 72.3 70.3 L72.2 68.55 71.05 68.95 70.7 69.35 70.75 69.35 M53.2 60.8 Q53.25 60.55 53.45 60.6 53.75 60.65 54.7 61.25 57.45 61.75 58.05 59.9 57.85 60.3 57.45 60.25 L56.95 59.55 Q57.0 58.9 57.5 59.0 58.1 59.15 58.15 59.45 L58.15 59.4 Q58.45 57.35 57.0 56.75 L53.7 56.05 Q52.65 55.85 51.65 56.6 50.65 57.3 50.6 58.0 50.4 59.05 53.0 60.95 L53.25 61.0 53.2 60.8 M45.2 58.8 L45.35 58.75 46.5 59.4 46.65 59.15 47.6 58.2 44.55 56.15 Q41.15 53.0 40.75 52.95 40.35 52.9 40.3 53.4 40.05 55.0 42.05 56.55 L45.2 58.8 M55.1 70.5 L55.3 70.85 53.85 72.15 53.4 72.7 53.3 72.6 51.35 74.3 Q49.4 75.85 47.6 76.4 L47.45 77.2 Q47.55 77.0 48.85 76.7 L48.85 76.75 49.0 76.75 Q49.4 76.85 49.7 77.7 51.3 76.1 53.25 74.65 L56.25 71.9 56.2 71.6 Q56.3 70.6 56.65 70.0 L55.2 70.05 55.25 70.25 55.1 70.5 54.9 70.75 55.1 70.5 M52.4 70.3 L52.5 70.35 52.65 70.15 52.35 70.3 52.4 70.3 M52.25 70.85 L46.0 74.1 47.35 76.0 47.65 75.1 47.75 75.85 47.75 75.9 47.8 75.9 48.35 75.65 51.15 73.85 53.3 72.25 54.95 70.1 53.1 70.15 52.4 71.0 52.25 70.9 52.25 70.85" fill="#000000" fill-rule="evenodd" stroke="none"/>
      <path d="M52.25 70.85 L52.25 70.9 52.4 71.0 53.1 70.15 54.95 70.1 53.3 72.25 51.15 73.85 48.35 75.65 47.8 75.9 47.75 75.85 47.65 75.1 47.35 76.0 46.0 74.1 52.25 70.85" fill="#a800a0" fill-rule="evenodd" stroke="none"/>
      <path d="M30.9 73.65 L31.8 72.6 32.05 72.65 Q33.2 72.85 33.3 72.45 33.3 72.0 32.45 71.9 L32.35 71.9 32.95 71.3 33.2 71.55 Q33.45 71.55 33.5 71.3 L33.3 70.95 Q34.85 69.4 35.95 69.0 L40.35 67.4 45.4 66.35 45.5 66.35 47.75 65.65 51.55 68.15 51.0 68.3 51.2 68.6 52.55 68.65 53.75 69.1 53.6 68.85 Q53.65 68.35 54.15 68.65 L54.15 68.7 65.15 69.1 65.0 69.15 65.05 69.15 Q65.35 69.2 65.45 69.4 L66.0 69.15 70.7 70.05 70.75 70.0 70.85 70.15 70.1 70.85 70.35 71.15 70.55 71.15 69.95 71.55 69.7 71.45 67.55 70.95 62.7 70.15 62.95 70.1 54.45 69.35 55.2 69.5 53.5 69.5 53.5 69.4 53.3 69.3 52.8 69.55 Q52.2 69.65 52.2 69.8 L52.25 69.9 51.55 70.35 51.6 70.45 Q50.15 70.95 46.75 73.1 L45.6 73.8 45.45 73.75 Q45.2 73.7 45.2 73.95 L45.25 74.0 43.8 74.9 42.15 75.4 Q42.1 74.45 41.55 74.35 L34.15 75.6 34.75 74.6 Q34.8 74.0 34.1 73.9 L31.55 73.65 31.35 73.55 31.2 73.65 30.9 73.7 30.9 73.65 M56.4 48.4 L57.0 47.3 Q58.35 47.55 59.2 52.05 L60.0 56.3 Q58.35 56.25 58.15 57.2 57.3 56.2 55.35 55.8 50.95 54.95 50.2 57.45 50.15 56.9 49.95 56.9 L49.95 57.0 47.8 52.7 45.35 48.0 47.35 49.65 Q48.55 50.55 50.55 50.95 52.8 51.4 52.95 50.25 L52.7 49.95 52.3 50.35 51.75 50.4 51.8 50.15 51.85 50.1 51.8 49.7 51.65 49.0 50.4 44.95 52.45 47.5 55.8 52.9 Q57.1 55.65 57.45 55.7 L57.75 55.5 57.05 54.0 57.1 53.9 57.1 53.5 57.25 53.25 Q56.05 50.75 56.4 48.4 M68.8 67.0 L69.75 65.9 70.6 66.15 79.85 67.65 80.6 68.6 80.7 69.05 72.4 67.4 70.95 67.3 68.85 67.0 68.8 67.0 M55.1 70.5 L55.25 70.25 55.2 70.05 56.65 70.0 Q56.3 70.6 56.2 71.6 L56.25 71.9 53.25 74.65 Q51.3 76.1 49.7 77.7 49.4 76.85 49.0 76.75 L48.85 76.75 48.85 76.7 Q47.55 77.0 47.45 77.2 L47.6 76.4 Q49.4 75.85 51.35 74.3 L53.3 72.6 53.4 72.7 53.85 72.15 55.3 70.85 55.1 70.5 M45.2 58.8 L42.05 56.55 Q40.05 55.0 40.3 53.4 40.35 52.9 40.75 52.95 41.15 53.0 44.55 56.15 L47.6 58.2 46.65 59.15 46.5 59.4 45.35 58.75 45.2 58.8" fill="#ffb600" fill-rule="evenodd" stroke="none"/>
      <path d="M50.1 58.9 L50.15 58.85 50.2 59.05 50.3 59.05 50.9 60.05 Q51.85 61.25 53.3 61.5 56.75 62.15 58.0 60.95 57.9 61.85 60.1 62.3 L62.7 62.25 Q62.65 62.55 63.95 62.8 66.2 63.2 69.5 62.05 71.45 61.25 72.2 60.7 L72.35 60.85 72.55 60.85 70.85 63.7 68.6 66.55 Q67.35 68.05 65.85 68.8 L52.55 68.1 50.5 67.0 48.1 65.3 Q46.3 63.25 46.65 61.05 46.85 59.6 47.05 59.4 L48.0 58.4 49.4 58.95 49.5 58.95 49.65 59.05 50.1 58.9" fill="#9cb9cb" fill-rule="evenodd" stroke="none"/>
      <path d="M82.95 72.4 L82.8 72.8 81.9 73.05 Q74.8 71.55 74.75 72.05 74.7 72.25 75.0 72.35 L77.25 72.65 77.1 72.85 77.9 74.65 Q77.85 74.9 77.3 74.8 76.7 74.7 75.25 73.45 L74.05 72.55 74.05 72.45 Q74.05 72.0 73.0 72.0 L72.6 72.1 72.3 72.05 Q72.65 71.4 72.8 70.35 L72.8 69.5 73.0 69.7 79.95 70.45 Q83.1 71.05 82.95 72.4 M81.35 69.85 L81.1 69.6 81.25 69.4 81.2 69.2 81.15 69.2 Q81.15 67.9 80.6 67.4 L79.9 67.1 79.7 67.25 79.55 66.95 80.2 66.7 80.8 66.65 Q82.65 67.0 82.5 68.3 82.2 70.0 81.35 69.85 M82.45 67.15 L83.1 67.2 83.8 67.45 84.1 67.2 84.1 67.1 85.85 67.35 Q88.7 67.9 89.65 68.95 L90.35 70.65 Q90.3 71.05 89.15 70.85 88.4 70.7 87.35 69.85 86.2 68.95 85.4 68.8 84.8 68.65 84.75 68.95 L85.8 69.6 86.3 70.5 86.5 71.85 86.45 72.25 84.55 70.6 Q83.65 68.95 82.9 68.8 L82.95 68.4 82.55 67.3 82.45 67.15 M61.45 57.0 Q64.2 57.5 63.85 59.9 63.45 62.45 60.25 61.85 58.65 60.75 58.3 60.7 L58.2 60.7 58.65 59.55 Q58.8 58.4 58.4 57.65 L59.1 57.2 61.45 57.0 M63.65 60.0 Q63.65 59.6 63.25 59.5 62.4 59.35 62.3 60.25 62.25 60.55 62.65 60.65 63.5 60.8 63.65 60.0 M53.2 60.8 L53.25 61.0 53.0 60.95 Q50.4 59.05 50.6 58.0 50.65 57.3 51.65 56.6 52.65 55.85 53.7 56.05 L57.0 56.75 Q58.45 57.35 58.15 59.4 L58.15 59.45 Q58.1 59.15 57.5 59.0 57.0 58.9 56.95 59.55 L57.45 60.25 Q57.85 60.3 58.05 59.9 57.45 61.75 54.7 61.25 53.75 60.65 53.45 60.6 53.25 60.55 53.2 60.8 M70.75 69.35 L70.7 69.35 71.05 68.95 72.2 68.55 72.3 70.3 Q71.65 72.55 70.75 72.4 L70.3 72.15 70.2 72.15 70.2 72.05 Q71.15 71.85 71.45 69.95 71.55 69.45 71.25 69.4 L71.2 69.55 71.1 69.45 70.8 69.35 70.75 69.35" fill="#ffffff" fill-rule="evenodd" stroke="none"/>
    </g>
  </defs>
</svg>
