<?xml version="1.0" encoding="UTF-8" standalone="no"?>
<svg xmlns:ffdec="https://www.free-decompiler.com/flash" xmlns:xlink="http://www.w3.org/1999/xlink" ffdec:objectType="frame" height="500.0px" width="500.0px" xmlns="http://www.w3.org/2000/svg">
  <g transform="matrix(5.0, 0.0, 0.0, 5.0, 0.0, 0.0)">
    <use ffdec:characterId="1" height="42.95" transform="matrix(1.0, 0.0, 0.0, 1.0, 0.0, 0.0)" width="48.1" xlink:href="#shape0"/>
  </g>
  <defs>
    <g id="shape0">
      <path d="M44.9 46.1 L44.85 46.1 44.85 46.15 Q46.4 50.8 49.2 55.7 L52.8 56.6 54.7 56.9 54.5 55.35 Q54.5 52.7 58.3 52.6 L58.25 52.45 Q58.25 51.85 59.95 51.85 L60.25 51.85 Q60.25 51.15 61.8 48.6 55.85 51.2 53.85 51.35 L54.2 51.6 53.85 51.95 Q53.2 51.95 49.7 49.6 L44.9 46.1 M44.1 44.75 L53.3 51.0 Q54.0 50.55 62.8 47.35 L63.1 47.65 61.6 50.75 61.75 50.6 61.75 50.55 Q63.0 48.85 65.15 48.85 66.6 48.85 66.35 49.8 66.35 51.4 65.6 52.45 L63.4 55.1 63.35 55.2 63.05 57.5 Q68.25 56.8 71.1 53.5 L71.1 52.75 71.4 51.0 Q71.65 49.5 72.3 49.5 73.35 49.5 73.1 50.7 73.0 52.65 72.45 53.4 L72.45 53.45 Q72.45 56.85 68.1 61.0 63.75 65.15 57.85 66.0 L57.6 66.55 Q64.5 66.5 67.9 65.15 L67.9 65.1 67.8 65.1 Q67.5 65.0 67.5 64.55 67.5 63.1 69.45 63.1 L69.9 63.15 69.85 62.95 69.75 62.9 69.75 61.5 70.1 60.85 Q70.35 60.5 71.3 60.5 L72.15 60.65 72.2 60.4 Q72.75 59.75 74.65 59.75 77.45 59.75 77.35 62.5 77.35 63.7 76.65 65.25 75.65 67.45 73.85 67.45 73.35 67.45 72.55 66.85 L72.05 66.45 71.7 66.2 Q71.5 68.1 69.75 68.1 L69.2 67.85 68.65 67.45 68.4 67.15 68.15 67.25 Q67.5 68.35 57.2 68.45 L57.2 68.55 57.3 68.55 57.35 68.8 56.95 70.8 Q56.95 74.1 57.7 76.35 L57.7 76.8 57.4 76.95 57.3 76.95 57.85 78.05 57.45 78.35 Q57.1 77.9 55.6 77.9 L54.85 78.0 Q54.6 79.1 54.0 79.85 L56.85 81.95 59.8 84.05 61.25 81.85 Q62.35 79.55 62.6 77.8 L63.0 77.75 63.55 77.95 Q66.65 77.95 66.55 77.5 L66.85 77.8 Q66.85 79.05 64.5 82.9 L61.15 87.7 Q60.8 87.7 59.95 86.55 59.05 85.4 58.55 85.35 58.25 85.25 58.25 84.85 L58.3 84.6 Q57.15 84.0 55.35 82.6 L53.05 80.7 52.9 80.8 52.85 80.85 Q51.65 81.45 49.85 81.45 L48.2 81.35 46.85 82.1 Q45.15 82.75 42.9 82.75 40.25 82.75 38.4 81.15 L37.3 80.05 Q34.1 82.45 32.05 85.1 L31.75 84.7 32.0 83.35 31.1 81.8 35.2 78.45 Q38.0 75.0 38.45 75.0 39.15 75.0 40.6 77.65 L38.5 79.2 39.25 79.95 39.35 80.05 Q39.4 79.35 41.65 76.25 L43.6 72.6 Q44.45 68.85 45.85 66.65 L45.9 66.6 46.2 66.0 44.2 64.4 Q41.55 62.4 39.1 62.4 L37.6 62.55 37.85 63.45 37.65 64.1 Q38.25 64.45 38.2 65.9 38.2 67.85 36.25 67.85 L35.45 67.6 Q34.8 68.7 33.1 68.7 30.95 68.7 29.9 67.0 29.25 65.95 29.25 65.05 29.25 64.7 30.15 63.35 30.75 62.4 31.25 62.05 L31.0 61.8 Q31.0 61.55 32.15 60.9 L33.2 60.35 Q33.45 59.35 35.15 59.35 36.7 59.35 36.7 60.25 L36.7 60.45 36.8 60.5 Q37.5 60.1 39.0 60.1 42.65 60.1 46.55 63.45 46.9 63.45 47.25 63.85 L47.3 63.8 47.05 63.6 Q44.35 61.25 44.25 57.95 42.8 57.35 41.75 55.8 40.5 53.95 40.5 52.6 40.5 50.85 41.85 50.85 L46.25 53.95 46.45 54.1 46.95 54.5 47.7 55.0 Q46.3 52.6 43.75 44.8 L44.1 44.75 M34.0 60.3 L34.6 60.75 34.55 60.95 34.3 61.1 33.7 60.95 Q33.7 61.55 34.25 62.65 34.9 64.05 35.75 64.05 37.25 64.05 37.25 63.4 L37.0 62.9 36.45 63.35 Q34.85 63.35 34.85 61.55 34.85 60.35 36.4 60.35 36.2 60.0 35.1 60.0 34.3 60.0 34.0 60.3 M31.75 61.85 L32.05 62.0 32.1 62.15 29.85 65.1 Q29.85 65.7 30.5 66.75 31.3 68.05 32.35 68.05 35.15 68.05 35.25 65.95 35.25 64.25 33.8 64.25 L31.8 64.95 31.5 64.65 Q31.5 64.4 32.45 64.0 L33.85 63.6 34.05 63.6 33.6 62.8 33.15 61.05 31.75 61.85 M36.35 61.65 L36.25 61.4 36.3 61.1 36.2 61.1 Q35.5 61.15 35.5 61.6 35.5 62.6 36.3 62.6 L36.8 62.2 Q37.25 61.75 39.05 61.75 42.85 61.75 46.4 65.65 L47.05 64.25 46.8 64.1 46.65 64.1 Q41.75 60.75 39.0 60.75 37.65 60.75 37.1 61.25 L36.6 61.7 36.35 61.65 M35.55 64.7 L35.75 65.25 35.9 65.25 Q36.7 65.25 36.7 65.85 L36.65 66.15 36.4 66.2 35.85 65.95 35.7 67.0 36.05 67.2 Q37.6 67.2 37.6 65.85 L37.05 64.55 35.85 64.7 35.55 64.7 M71.65 53.85 Q71.3 54.95 69.0 56.4 66.1 58.2 63.25 58.2 L62.8 58.1 Q62.15 59.35 60.65 59.35 L59.9 59.15 Q59.0 60.1 57.75 60.1 56.2 60.1 55.0 57.75 L54.95 57.6 Q52.1 57.55 49.9 56.6 L48.85 56.05 48.75 56.1 48.2 55.75 46.6 55.0 46.2 54.7 45.2 56.0 45.15 55.95 44.85 56.5 44.85 57.4 46.7 58.0 46.35 58.35 44.85 58.15 Q45.0 60.2 46.65 62.2 49.35 65.55 54.75 65.55 L55.85 65.55 56.05 65.1 56.3 65.4 56.3 65.5 Q63.3 65.0 68.05 60.2 71.65 56.55 71.9 53.85 L71.65 53.85 M61.0 51.95 Q63.3 52.3 63.4 54.4 65.75 51.8 65.75 49.8 L65.2 49.5 Q62.9 49.5 62.25 51.3 L62.1 51.35 62.05 51.35 61.75 51.6 61.0 51.9 61.0 51.95 M62.75 55.05 Q62.7 52.85 59.8 52.8 61.6 53.35 61.2 55.9 61.2 56.95 60.5 58.25 L60.45 58.35 60.6 58.65 Q61.4 58.65 61.95 57.95 L61.85 57.9 61.9 57.6 62.15 57.6 62.55 56.55 62.2 56.6 Q61.65 56.6 61.6 56.25 L61.6 55.85 Q61.6 55.0 62.35 55.0 L62.7 55.15 62.75 55.05 M70.35 63.25 Q71.6 63.75 71.7 65.8 L71.7 65.95 71.8 65.9 71.8 65.85 71.95 65.75 73.85 66.8 Q75.3 66.8 76.15 64.85 76.75 63.45 76.75 62.55 76.8 60.4 74.6 60.4 72.4 60.4 72.4 62.25 L72.2 62.35 71.85 62.3 71.85 61.15 70.85 61.15 Q70.45 61.55 70.45 62.6 L70.4 62.85 70.35 62.9 70.35 63.0 70.35 63.25 M68.15 64.5 L68.15 64.6 68.25 64.7 68.25 64.55 68.6 64.5 Q69.75 64.5 70.1 65.95 L70.1 66.0 70.1 66.05 69.15 66.7 69.3 66.75 Q69.8 66.75 69.75 67.25 L69.75 67.35 Q71.1 67.65 71.1 65.75 71.1 63.75 69.45 63.75 68.4 63.75 68.15 64.5 M40.9 79.05 Q44.15 78.65 45.35 81.0 45.65 81.0 46.55 80.4 L46.6 80.15 46.8 80.1 46.9 80.15 47.45 79.75 Q49.1 78.5 50.45 78.5 51.2 78.5 52.3 79.6 51.85 74.85 54.15 69.2 L54.1 69.0 54.15 68.45 52.6 68.45 52.6 68.3 52.65 68.0 55.4 67.95 55.6 67.5 Q55.85 67.5 55.85 67.8 L55.8 67.95 56.7 67.95 56.85 67.9 57.0 67.95 65.15 67.75 66.15 67.4 67.15 66.95 67.15 66.75 Q68.4 66.45 69.35 65.95 L68.7 65.45 65.25 66.3 56.65 67.2 53.35 67.0 Q53.2 66.7 52.5 66.55 L52.5 66.15 52.9 66.1 53.45 66.35 54.6 66.5 54.55 66.4 54.55 66.2 Q50.4 66.15 47.6 64.05 L47.1 65.45 47.2 65.55 44.45 72.35 40.9 79.0 40.85 79.05 40.9 79.05 M57.6 59.45 Q58.95 59.55 59.75 58.4 L59.75 58.35 59.8 58.35 59.95 58.1 60.4 57.2 59.25 57.05 59.25 56.4 Q59.7 55.35 60.1 55.35 L60.65 55.55 Q60.65 53.25 57.85 53.25 55.1 53.25 55.1 55.4 55.1 56.3 55.4 57.05 55.95 57.2 55.95 57.3 L55.6 57.6 Q56.2 58.55 57.85 59.0 L57.55 59.35 57.35 59.4 57.6 59.45 M41.2 52.05 L41.1 52.6 Q41.1 55.5 44.25 57.1 L44.25 56.25 Q44.35 54.95 44.95 54.85 L45.7 54.3 41.85 51.5 Q41.4 51.5 41.2 52.05 M56.8 66.55 L57.1 66.55 57.15 66.1 56.15 66.15 56.05 66.55 56.8 66.55 M55.05 66.2 L55.1 66.55 55.4 66.55 55.4 66.5 55.55 66.2 55.05 66.2 M54.85 69.0 L55.15 68.45 54.9 68.45 54.7 68.85 53.15 74.85 53.05 75.75 54.0 75.65 Q53.9 72.15 55.0 69.35 54.85 69.25 54.85 69.0 M55.6 68.95 L54.95 72.75 54.85 74.85 54.7 75.65 54.95 76.5 54.9 77.45 55.3 77.35 56.6 76.9 56.25 75.55 56.55 75.5 56.75 75.85 Q56.4 74.35 56.35 70.9 L56.6 68.55 56.7 68.55 56.65 68.45 55.6 68.45 55.45 68.75 55.6 68.95 M44.9 81.35 L44.15 80.7 Q43.15 79.65 41.95 79.65 L39.8 80.35 Q41.4 81.5 42.9 81.5 L44.9 81.35" fill="#000000" fill-rule="evenodd" stroke="none"/>
      <path d="M54.85 69.0 Q54.85 69.25 55.0 69.35 53.9 72.15 54.0 75.65 L53.05 75.75 53.15 74.85 54.7 68.85 54.9 68.45 55.15 68.45 54.85 69.0 M55.05 66.2 L55.55 66.2 55.4 66.5 55.4 66.55 55.1 66.55 55.05 66.2" fill="#a800a0" fill-rule="evenodd" stroke="none"/>
      <path d="M44.85 46.15 L44.9 46.1 49.7 49.6 Q53.2 51.95 53.85 51.95 L54.2 51.6 53.85 51.35 Q55.85 51.2 61.8 48.6 60.25 51.15 60.25 51.85 L59.95 51.85 Q58.25 51.85 58.25 52.45 L58.3 52.6 Q54.5 52.7 54.5 55.35 L54.7 56.9 52.8 56.6 49.2 55.7 Q46.4 50.8 44.85 46.15 M36.35 61.65 L36.6 61.7 37.1 61.25 Q37.65 60.75 39.0 60.75 41.75 60.75 46.65 64.1 L46.8 64.1 47.05 64.25 46.4 65.65 Q42.85 61.75 39.05 61.75 37.25 61.75 36.8 62.2 L36.3 62.6 Q35.5 62.6 35.5 61.6 35.5 61.15 36.2 61.1 L36.3 61.1 36.25 61.4 36.35 61.65 M61.0 51.9 L61.75 51.6 62.05 51.35 62.1 51.35 62.25 51.3 Q62.9 49.5 65.2 49.5 L65.75 49.8 Q65.75 51.8 63.4 54.4 63.3 52.3 61.0 51.95 L61.0 51.9 M40.9 79.0 L44.45 72.35 47.2 65.55 47.1 65.45 47.6 64.05 Q50.4 66.15 54.55 66.2 L54.55 66.4 54.6 66.5 53.45 66.35 52.9 66.1 52.5 66.15 52.5 66.55 Q53.2 66.7 53.35 67.0 L56.65 67.2 65.25 66.3 68.7 65.45 69.35 65.95 Q68.4 66.45 67.15 66.75 L67.15 66.95 66.15 67.4 65.15 67.75 57.0 67.95 56.85 67.9 56.7 67.95 55.8 67.95 55.85 67.8 Q55.85 67.5 55.6 67.5 L55.4 67.95 52.65 68.0 52.6 68.3 52.6 68.45 54.15 68.45 54.1 69.0 54.15 69.2 Q51.85 74.85 52.3 79.6 51.2 78.5 50.45 78.5 49.1 78.5 47.45 79.75 L46.9 80.15 46.8 80.1 46.6 80.15 46.55 80.4 Q45.65 81.0 45.35 81.0 44.15 78.65 40.9 79.05 L40.9 79.0 M56.8 66.55 L56.05 66.55 56.15 66.15 57.15 66.1 57.1 66.55 56.8 66.55 M41.2 52.05 Q41.4 51.5 41.85 51.5 L45.7 54.3 44.95 54.85 Q44.35 54.95 44.25 56.25 L44.25 57.1 Q41.1 55.5 41.1 52.6 L41.2 52.05 M55.6 68.95 L55.45 68.75 55.6 68.45 56.65 68.45 56.7 68.55 56.6 68.55 56.35 70.9 Q56.4 74.35 56.75 75.85 L56.55 75.5 56.25 75.55 56.6 76.9 55.3 77.35 54.9 77.45 54.95 76.5 54.7 75.65 54.85 74.85 54.95 72.75 55.6 68.95" fill="#ffb600" fill-rule="evenodd" stroke="none"/>
      <path d="M31.75 61.85 L33.15 61.05 33.6 62.8 34.05 63.6 33.85 63.6 32.45 64.0 Q31.5 64.4 31.5 64.65 L31.8 64.95 33.8 64.25 Q35.25 64.25 35.25 65.95 35.15 68.05 32.35 68.05 31.3 68.05 30.5 66.75 29.85 65.7 29.85 65.1 L32.1 62.15 32.05 62.0 31.75 61.85 M34.0 60.3 Q34.3 60.0 35.1 60.0 36.2 60.0 36.4 60.35 34.85 60.35 34.85 61.55 34.85 63.35 36.45 63.35 L37.0 62.9 37.25 63.4 Q37.25 64.05 35.75 64.05 34.9 64.05 34.25 62.65 33.7 61.55 33.7 60.95 L34.3 61.1 34.55 60.95 34.6 60.75 34.0 60.3 M35.55 64.7 L35.85 64.7 37.05 64.55 37.6 65.85 Q37.6 67.2 36.05 67.2 L35.7 67.0 35.85 65.95 36.4 66.2 36.65 66.15 36.7 65.85 Q36.7 65.25 35.9 65.25 L35.75 65.25 35.55 64.7 M70.35 63.25 L70.35 63.0 70.35 62.9 70.4 62.85 70.45 62.6 Q70.45 61.55 70.85 61.15 L71.85 61.15 71.85 62.3 72.2 62.35 72.4 62.25 Q72.4 60.4 74.6 60.4 76.8 60.4 76.75 62.55 76.75 63.45 76.15 64.85 75.3 66.8 73.85 66.8 L71.95 65.75 71.8 65.85 71.8 65.9 71.7 65.95 71.7 65.8 Q71.6 63.75 70.35 63.25 M62.75 55.05 L62.7 55.15 62.35 55.0 Q61.6 55.0 61.6 55.85 L61.6 56.25 Q61.65 56.6 62.2 56.6 L62.55 56.55 62.15 57.6 61.9 57.6 61.85 57.9 61.95 57.95 Q61.4 58.65 60.6 58.65 L60.45 58.35 60.5 58.25 Q61.2 56.95 61.2 55.9 61.6 53.35 59.8 52.8 62.7 52.85 62.75 55.05 M68.25 64.55 L68.15 64.5 Q68.4 63.75 69.45 63.75 71.1 63.75 71.1 65.75 71.1 67.65 69.75 67.35 L69.75 67.25 Q69.8 66.75 69.3 66.75 L69.15 66.7 70.1 66.05 70.1 66.0 70.1 65.95 Q69.75 64.5 68.6 64.5 L68.25 64.55 M57.55 59.35 L57.85 59.0 Q56.2 58.55 55.6 57.6 L55.95 57.3 Q55.95 57.2 55.4 57.05 55.1 56.3 55.1 55.4 55.1 53.25 57.85 53.25 60.65 53.25 60.65 55.55 L60.1 55.35 Q59.7 55.35 59.25 56.4 L59.25 57.05 60.4 57.2 59.95 58.1 59.8 58.35 59.75 58.35 59.75 58.4 Q58.95 59.55 57.6 59.45 L57.55 59.35" fill="#ffffff" fill-rule="evenodd" stroke="none"/>
      <path d="M71.65 53.85 L71.9 53.85 Q71.65 56.55 68.05 60.2 63.3 65.0 56.3 65.5 L56.3 65.4 56.05 65.1 55.85 65.55 54.75 65.55 Q49.35 65.55 46.65 62.2 45.0 60.2 44.85 58.15 L46.35 58.35 46.7 58.0 44.85 57.4 44.85 56.5 45.15 55.95 45.2 56.0 46.2 54.7 46.6 55.0 48.2 55.75 48.75 56.1 48.85 56.05 49.9 56.6 Q52.1 57.55 54.95 57.6 L55.0 57.75 Q56.2 60.1 57.75 60.1 59.0 60.1 59.9 59.15 L60.65 59.35 Q62.15 59.35 62.8 58.1 L63.25 58.2 Q66.1 58.2 69.0 56.4 71.3 54.95 71.65 53.85" fill="#9cb9cb" fill-rule="evenodd" stroke="none"/>
    </g>
  </defs>
</svg>
