<?xml version="1.0" encoding="UTF-8" standalone="no"?>
<svg xmlns:ffdec="https://www.free-decompiler.com/flash" xmlns:xlink="http://www.w3.org/1999/xlink" ffdec:objectType="frame" height="500.0px" width="500.0px" xmlns="http://www.w3.org/2000/svg">
  <g transform="matrix(5.0, 0.0, 0.0, 5.0, 0.0, 0.0)">
    <use ffdec:characterId="10" height="43.5" transform="matrix(1.0, 0.0, 0.0, 1.0, 0.0, 0.0)" width="38.1" xlink:href="#shape0"/>
  </g>
  <defs>
    <g id="shape0">
      <path d="M47.1 56.85 L48.1 56.8 48.2 56.8 48.4 56.65 49.45 56.7 50.2 56.8 Q50.8 54.45 54.65 54.45 56.15 54.45 56.9 55.2 57.0 54.9 57.4 54.85 L56.85 54.05 56.2 52.65 55.8 51.55 56.05 48.8 56.0 48.05 Q54.7 48.95 53.75 50.5 L52.35 52.75 53.15 52.45 Q53.45 52.45 53.6 52.6 L53.65 52.75 51.7 53.4 Q48.65 53.4 44.0 50.3 L43.9 50.35 46.7 55.5 46.8 55.65 47.4 56.45 47.1 56.8 46.95 56.8 46.95 56.85 47.1 56.85 M56.65 48.45 L56.4 51.5 56.55 52.25 58.55 54.8 58.85 54.8 60.75 55.05 67.85 54.3 68.3 54.3 Q68.95 54.3 69.05 54.7 L63.6 57.15 62.55 57.75 62.55 57.85 Q62.55 59.8 61.6 60.85 L63.3 60.9 Q66.1 60.9 70.25 58.65 L70.55 57.75 Q71.2 56.3 71.9 56.05 L72.25 56.1 72.3 56.4 71.5 58.1 71.35 58.45 71.3 58.5 71.35 58.45 71.65 58.85 Q71.65 61.2 67.05 64.6 61.5 68.65 54.6 68.65 L52.5 68.6 52.65 70.7 52.65 70.9 52.8 71.6 52.55 74.85 52.6 74.95 52.55 75.1 52.35 76.05 53.45 75.3 Q55.3 74.2 56.95 74.2 59.35 74.2 59.35 76.35 L59.3 76.85 60.55 77.75 60.0 78.1 60.15 78.4 60.1 78.7 59.9 78.8 59.3 78.55 50.95 83.45 51.05 84.15 51.65 85.65 52.5 85.65 59.0 85.3 59.3 85.8 58.8 88.55 Q58.7 89.45 58.15 89.85 L51.25 90.45 47.05 90.4 46.95 90.4 46.55 90.4 45.9 90.15 45.6 90.3 Q45.3 90.2 45.3 89.75 L45.3 89.35 45.5 89.35 46.6 87.35 47.0 86.1 Q47.2 85.4 48.2 85.45 L50.25 85.55 49.95 84.85 48.95 82.1 48.45 81.15 Q48.45 80.9 48.7 80.6 L48.7 80.45 48.8 80.15 48.4 80.15 Q47.4 80.15 47.1 79.6 L47.0 79.6 Q46.1 79.6 44.25 81.25 L41.7 82.9 Q41.2 82.9 40.4 81.4 L39.85 80.25 Q39.55 80.1 39.45 79.45 L39.45 78.6 Q39.45 77.3 40.05 76.6 40.4 75.45 40.9 75.0 L40.55 74.5 40.55 74.2 40.35 73.9 Q40.35 73.6 40.85 73.1 L40.95 73.0 41.0 72.8 Q40.55 72.15 40.55 71.05 40.55 69.95 41.05 68.6 41.8 66.5 43.35 66.45 L44.55 65.85 45.2 65.65 Q43.95 64.05 43.95 61.7 43.95 60.05 44.75 58.8 L44.3 58.7 43.85 58.65 43.7 58.65 39.0 58.45 35.75 58.75 34.9 59.05 Q33.95 59.05 34.3 58.35 L38.65 57.5 46.55 56.85 46.45 56.5 Q45.7 55.9 44.7 53.95 43.3 51.2 43.05 49.25 L43.45 49.2 46.5 51.0 Q49.75 52.75 51.0 52.75 L51.8 52.75 Q51.8 52.35 53.55 49.7 54.75 47.6 56.35 46.95 56.65 47.1 56.65 48.45 M40.25 79.25 Q41.1 82.2 41.85 82.2 42.35 82.2 44.15 80.6 45.5 79.35 46.45 79.05 L46.4 79.05 Q42.75 79.05 41.55 76.25 L41.55 75.9 41.35 75.7 40.75 76.8 Q40.05 77.7 40.05 78.65 L40.15 79.25 40.25 79.25 M64.1 56.45 L66.85 55.05 61.9 55.65 Q62.55 56.2 62.6 57.25 L63.3 56.85 63.65 56.65 63.8 56.6 63.85 56.55 64.05 56.45 64.1 56.45 M61.95 57.6 Q61.85 56.25 60.65 55.75 L59.15 55.9 58.3 55.6 58.3 55.55 57.7 55.65 57.3 55.7 Q57.65 56.35 57.65 57.35 57.65 58.1 56.4 59.75 L55.7 60.55 56.1 61.0 56.25 61.1 Q56.8 61.5 57.8 61.5 61.9 61.5 61.95 58.0 L61.7 57.75 61.95 57.6 M60.9 57.75 Q60.9 58.55 60.55 58.55 60.15 58.55 60.05 58.15 L60.05 57.7 Q60.05 57.2 60.55 56.95 L60.85 57.0 60.9 57.75 M46.55 57.65 L46.75 57.85 Q46.75 58.05 46.1 58.2 L45.6 58.5 45.7 58.75 45.4 59.0 45.35 59.0 45.2 59.3 Q44.55 60.55 44.55 61.55 44.55 63.9 45.9 65.4 L47.1 65.2 47.6 65.35 47.65 65.5 Q47.65 65.8 46.6 66.05 49.1 68.0 54.6 68.0 65.4 68.0 70.35 59.9 L70.05 59.45 67.85 60.4 Q64.8 61.55 63.25 61.55 L61.15 61.3 Q59.95 62.15 57.8 62.15 56.25 62.15 55.45 61.35 L55.45 61.1 55.3 60.9 Q54.15 61.8 52.95 61.8 51.45 61.8 50.6 59.95 50.05 58.7 50.05 57.8 L50.1 57.35 49.4 57.35 46.55 57.6 46.5 57.6 46.55 57.65 M55.35 57.45 L55.75 57.5 55.8 57.8 Q55.8 58.9 55.15 58.9 L54.7 58.85 54.7 58.35 54.7 57.75 Q54.75 57.4 55.35 57.45 M52.35 61.15 Q55.65 61.15 57.05 57.4 57.2 54.65 53.5 55.1 50.65 55.45 50.65 57.75 L50.75 59.2 Q51.1 59.8 52.8 60.55 52.65 60.9 52.1 60.9 L51.9 60.85 52.35 61.15 M44.95 58.25 Q45.0 57.8 45.75 57.65 L41.05 57.85 44.35 58.05 44.65 58.2 44.95 58.25 M46.95 67.85 L46.05 68.4 45.85 68.65 45.3 69.15 44.8 69.85 Q44.55 70.35 44.55 71.05 L44.6 71.6 45.05 71.5 Q45.75 71.5 45.75 71.85 L45.7 71.95 Q46.45 71.95 46.45 72.9 L46.95 72.55 Q48.25 71.7 48.95 71.7 49.45 71.7 49.7 72.15 L50.55 69.85 50.7 69.2 50.65 69.1 50.75 68.8 50.8 68.4 Q47.45 67.85 45.75 66.25 L44.85 66.4 43.15 67.55 42.9 67.5 Q42.15 68.0 41.7 68.8 41.15 69.7 41.15 71.0 41.15 72.4 43.4 73.25 43.4 73.55 42.85 73.55 L41.65 73.35 41.75 73.55 Q42.25 74.4 43.05 74.4 44.15 74.4 44.45 74.0 L44.6 73.7 Q44.2 73.4 44.05 72.45 L43.95 71.05 Q43.95 69.3 44.6 68.65 44.7 67.6 46.5 67.6 46.95 67.6 46.95 67.85 M41.1 74.0 L41.1 73.95 41.05 73.95 41.0 74.0 41.05 74.05 41.4 74.7 Q41.85 75.6 42.8 75.6 45.65 75.6 45.8 73.65 L45.7 73.55 45.8 73.4 Q45.8 72.35 45.2 72.4 L45.3 72.05 45.05 72.05 44.75 72.2 45.15 73.5 45.1 73.7 45.15 73.85 Q45.15 75.05 43.55 75.05 41.6 75.05 41.1 74.0 M49.3 73.6 L49.3 73.25 49.1 72.35 48.45 72.35 46.4 73.7 Q46.25 76.3 42.95 76.3 L42.2 76.2 42.85 77.05 Q44.2 78.4 46.05 78.4 L48.25 78.15 48.7 75.95 47.7 75.3 47.7 74.55 48.0 74.45 48.15 74.6 48.6 74.65 49.05 74.6 49.2 73.95 49.3 73.6 M51.4 69.1 Q51.4 70.25 50.8 71.75 L49.9 74.05 49.7 74.85 49.8 74.95 51.4 74.7 51.75 74.75 51.75 74.8 51.9 74.75 51.95 74.55 Q51.9 73.1 52.1 72.0 L52.05 70.8 52.25 68.55 51.45 68.5 51.4 69.1 M57.1 75.5 L52.5 77.2 52.15 76.85 51.85 77.55 52.1 77.7 52.15 77.8 Q52.15 78.3 51.55 78.85 53.3 78.0 56.1 76.95 L56.35 77.2 57.15 76.75 Q57.7 76.4 58.1 76.25 58.0 75.5 57.1 75.5 M49.35 75.8 L48.85 77.95 Q49.7 77.5 49.7 76.6 L49.35 75.8 M48.2 78.9 L47.55 79.0 48.2 79.2 48.2 78.9" fill="#000000" fill-rule="evenodd" stroke="none"/>
      <path d="M47.1 56.8 L47.4 56.45 46.8 55.65 46.7 55.5 43.9 50.35 44.0 50.3 Q48.65 53.4 51.7 53.4 L53.65 52.75 53.6 52.6 Q53.45 52.45 53.15 52.45 L52.35 52.75 53.75 50.5 Q54.7 48.95 56.0 48.05 L56.05 48.8 55.8 51.55 56.2 52.65 56.85 54.05 57.4 54.85 Q57.0 54.9 56.9 55.2 56.15 54.45 54.65 54.45 50.8 54.45 50.2 56.8 L49.45 56.7 48.4 56.65 48.2 56.8 48.1 56.8 47.1 56.85 47.1 56.8 M64.1 56.45 L64.05 56.45 63.85 56.55 63.8 56.6 63.65 56.65 63.3 56.85 62.6 57.25 Q62.55 56.2 61.9 55.65 L66.85 55.05 64.1 56.45 M40.25 79.25 L40.15 79.25 40.05 78.65 Q40.05 77.7 40.75 76.8 L41.35 75.7 41.55 75.9 41.55 76.25 Q42.75 79.05 46.4 79.05 L46.45 79.05 Q45.5 79.35 44.15 80.6 42.35 82.2 41.85 82.2 41.1 82.2 40.25 79.25 M46.95 67.85 Q46.95 67.6 46.5 67.6 44.7 67.6 44.6 68.65 43.95 69.3 43.95 71.05 L44.05 72.45 Q44.2 73.4 44.6 73.7 L44.45 74.0 Q44.15 74.4 43.05 74.4 42.25 74.4 41.75 73.55 L41.65 73.35 42.85 73.55 Q43.4 73.55 43.4 73.25 41.15 72.4 41.15 71.0 41.15 69.7 41.7 68.8 42.15 68.0 42.9 67.5 L43.15 67.55 44.85 66.4 45.75 66.25 Q47.45 67.85 50.8 68.4 L50.75 68.8 50.65 69.1 50.7 69.2 50.55 69.85 49.7 72.15 Q49.45 71.7 48.95 71.7 48.25 71.7 46.95 72.55 L46.45 72.9 Q46.45 71.95 45.7 71.95 L45.75 71.85 Q45.75 71.5 45.05 71.5 L44.6 71.6 44.55 71.05 Q44.55 70.35 44.8 69.85 L45.3 69.15 45.85 68.65 46.05 68.4 46.95 67.85 M44.95 58.25 L44.65 58.2 44.35 58.05 41.05 57.85 45.75 57.65 Q45.0 57.8 44.95 58.25" fill="#ffb600" fill-rule="evenodd" stroke="none"/>
      <path d="M51.4 69.1 L51.45 68.5 52.25 68.55 52.05 70.8 52.1 72.0 Q51.9 73.1 51.95 74.55 L51.9 74.75 51.75 74.8 51.75 74.75 51.4 74.7 49.8 74.95 49.7 74.85 49.9 74.05 50.8 71.75 Q51.4 70.25 51.4 69.1" fill="#a800a0" fill-rule="evenodd" stroke="none"/>
      <path d="M46.55 57.6 L49.4 57.35 50.1 57.35 50.05 57.8 Q50.05 58.7 50.6 59.95 51.45 61.8 52.95 61.8 54.15 61.8 55.3 60.9 L55.45 61.1 55.45 61.35 Q56.25 62.15 57.8 62.15 59.95 62.15 61.15 61.3 L63.25 61.55 Q64.8 61.55 67.85 60.4 L70.05 59.45 70.35 59.9 Q65.4 68.0 54.6 68.0 49.1 68.0 46.6 66.05 47.65 65.8 47.65 65.5 L47.6 65.35 47.1 65.2 45.9 65.4 Q44.55 63.9 44.55 61.55 44.55 60.55 45.2 59.3 L45.35 59.0 45.4 59.0 45.7 58.75 45.6 58.5 46.1 58.2 Q46.75 58.05 46.75 57.85 L46.55 57.65 46.55 57.6" fill="#9cb9cb" fill-rule="evenodd" stroke="none"/>
      <path d="M60.9 57.75 L60.85 57.0 60.55 56.95 Q60.05 57.2 60.05 57.7 L60.05 58.15 Q60.15 58.55 60.55 58.55 60.9 58.55 60.9 57.75 M61.95 57.6 L61.7 57.75 61.95 58.0 Q61.9 61.5 57.8 61.5 56.8 61.5 56.25 61.1 L56.1 61.0 55.7 60.55 56.4 59.75 Q57.65 58.1 57.65 57.35 57.65 56.35 57.3 55.7 L57.7 55.65 58.3 55.55 58.3 55.6 59.15 55.9 60.65 55.75 Q61.85 56.25 61.95 57.6 M52.35 61.15 L51.9 60.85 52.1 60.9 Q52.65 60.9 52.8 60.55 51.1 59.8 50.75 59.2 L50.65 57.75 Q50.65 55.45 53.5 55.1 57.2 54.65 57.05 57.4 55.65 61.15 52.35 61.15 M55.35 57.45 Q54.75 57.4 54.7 57.75 L54.7 58.35 54.7 58.85 55.15 58.9 Q55.8 58.9 55.8 57.8 L55.75 57.5 55.35 57.45 M41.05 73.95 L41.1 74.0 Q41.6 75.05 43.55 75.05 45.15 75.05 45.15 73.85 L45.1 73.7 45.15 73.5 44.75 72.2 45.05 72.05 45.3 72.05 45.2 72.4 Q45.8 72.35 45.8 73.4 L45.7 73.55 45.8 73.65 Q45.65 75.6 42.8 75.6 41.85 75.6 41.4 74.7 L41.05 74.05 41.0 74.0 41.05 73.95 M49.3 73.6 L49.2 73.95 49.05 74.6 48.6 74.65 48.15 74.6 48.0 74.45 47.7 74.55 47.7 75.3 48.7 75.95 48.25 78.15 46.05 78.4 Q44.2 78.4 42.85 77.05 L42.2 76.2 42.95 76.3 Q46.25 76.3 46.4 73.7 L48.45 72.35 49.1 72.35 49.3 73.25 49.3 73.6 M49.35 75.8 L49.7 76.6 Q49.7 77.5 48.85 77.95 L49.35 75.8" fill="#ffffff" fill-rule="evenodd" stroke="none"/>
    </g>
  </defs>
</svg>
