<?xml version="1.0" encoding="UTF-8" standalone="no"?>
<svg xmlns:ffdec="https://www.free-decompiler.com/flash" xmlns:xlink="http://www.w3.org/1999/xlink" ffdec:objectType="frame" height="500.0px" width="500.0px" xmlns="http://www.w3.org/2000/svg">
  <g transform="matrix(5.0, 0.0, 0.0, 5.0, 0.0, 0.0)">
    <use ffdec:characterId="11" height="42.55" transform="matrix(1.0, 0.0, 0.0, 1.0, 0.0, 0.0)" width="36.85" xlink:href="#shape0"/>
  </g>
  <defs>
    <g id="shape0">
      <path d="M60.85 48.1 L60.9 48.25 Q60.9 49.4 59.55 51.5 L59.3 52.7 Q62.3 52.85 62.3 55.5 L62.1 56.45 65.75 60.45 65.3 60.75 62.3 59.95 65.85 61.95 Q69.15 63.5 69.9 64.6 70.65 64.85 73.4 68.5 L73.35 68.8 73.05 68.9 71.45 67.85 70.45 67.2 69.85 66.5 68.45 67.05 64.45 67.8 54.45 67.1 54.55 67.75 54.65 67.65 54.85 67.55 55.15 67.8 55.15 67.9 54.9 68.35 54.75 68.65 54.6 68.95 54.75 69.2 54.55 69.45 54.45 70.0 55.1 70.95 57.0 73.7 57.25 73.55 58.2 73.85 58.75 73.1 Q59.55 72.25 60.65 72.25 61.1 72.25 61.2 72.95 L60.85 73.9 Q62.1 74.0 62.1 75.4 62.1 76.0 61.5 76.85 60.7 77.95 59.5 77.95 L58.65 77.75 57.65 79.6 Q55.9 85.05 55.3 85.05 L52.2 81.85 55.2 77.35 55.6 76.5 Q55.05 76.5 55.05 76.2 L54.9 76.05 54.95 75.85 54.55 75.3 54.15 76.0 Q54.0 77.1 53.2 78.3 52.05 79.95 50.05 80.3 L50.05 80.6 Q50.05 81.45 49.35 82.3 L47.9 86.45 48.05 86.7 50.55 86.75 55.65 86.3 56.0 86.35 56.05 87.25 55.7 89.05 Q55.6 89.3 55.65 89.9 55.4 90.55 53.35 90.5 L49.2 90.3 42.95 90.25 42.95 89.6 Q43.2 88.45 43.55 87.65 44.15 86.05 45.05 86.05 L45.6 86.05 45.55 86.0 Q45.55 85.7 46.65 83.45 L47.75 81.5 48.15 80.4 Q46.55 80.25 45.65 79.35 45.05 78.75 45.0 78.25 L44.95 78.25 43.3 79.65 Q42.95 79.65 42.55 79.2 42.2 78.7 41.65 78.7 41.0 78.7 40.2 79.4 L39.0 80.4 38.7 80.05 Q38.7 79.25 39.95 77.6 L40.15 75.2 Q40.45 72.65 41.95 70.9 L41.95 70.45 43.6 67.2 Q44.45 65.75 45.3 65.15 L45.55 65.0 Q45.9 64.8 46.3 64.75 L46.35 64.7 46.75 64.6 Q43.5 62.6 42.95 59.5 L42.35 59.55 39.7 61.4 37.4 63.4 Q36.7 63.4 36.55 62.35 L36.55 61.25 Q36.55 54.95 45.8 54.95 L46.2 54.95 44.0 52.85 Q41.3 51.5 41.3 51.0 L45.85 50.55 51.75 50.8 Q52.2 50.55 53.5 50.25 L56.3 49.7 60.45 47.95 Q60.7 47.95 60.85 48.1 M39.45 60.65 Q41.5 58.8 42.5 58.8 L42.75 58.85 42.85 58.95 42.8 58.05 Q42.8 57.4 43.05 56.9 L43.0 56.85 43.1 56.75 43.5 56.05 43.6 56.15 44.0 55.7 Q37.15 56.25 37.15 61.25 L37.4 62.75 39.45 60.65 M46.5 74.8 Q45.25 74.5 44.55 73.2 43.95 72.15 43.95 71.35 43.95 69.7 45.8 67.7 47.5 65.8 48.6 65.8 L49.1 65.95 49.15 66.05 46.85 67.8 Q44.55 69.7 44.55 71.4 44.55 72.2 45.35 73.15 46.1 73.95 47.0 74.15 L47.9 73.6 Q47.0 73.4 46.7 72.4 L46.55 71.1 Q46.55 67.8 49.65 67.8 50.35 67.8 50.3 68.1 L49.25 68.25 Q48.1 68.5 47.65 69.55 47.15 70.75 47.15 71.1 47.15 71.45 47.5 71.95 L47.85 71.65 Q48.4 71.2 48.9 71.2 L49.55 71.35 Q49.75 71.05 50.1 71.05 L50.3 71.05 50.3 69.1 50.8 69.05 50.65 68.75 Q50.65 68.5 50.9 68.5 L51.5 69.15 Q52.1 69.4 52.15 70.25 L52.4 70.6 52.5 69.7 53.0 70.2 Q52.45 70.0 52.4 70.65 L53.45 72.4 54.45 74.4 55.7 75.8 57.2 74.85 51.5 67.2 Q51.5 66.95 51.75 66.95 L52.8 67.8 52.95 66.85 Q49.55 66.15 47.35 64.95 L46.55 65.3 45.75 65.85 Q44.45 66.85 44.0 68.15 L43.0 69.75 42.6 70.7 42.65 70.75 42.5 71.0 42.55 71.45 42.3 71.55 42.2 71.55 41.8 72.25 Q40.95 73.8 40.85 74.8 40.5 78.15 40.0 78.75 L39.95 78.85 41.65 78.05 Q43.0 78.05 43.3 78.9 L44.9 77.55 Q46.75 76.2 48.1 76.2 L48.2 76.2 48.2 76.0 48.2 75.85 46.9 76.05 46.45 76.0 46.45 74.85 46.5 74.85 46.55 74.85 46.5 74.8 M61.15 55.5 L60.8 56.65 60.5 56.8 60.2 56.1 Q60.2 55.35 60.7 55.2 L61.1 55.25 61.15 55.5 M62.4 59.6 Q63.35 59.6 64.6 60.1 L61.95 56.95 Q61.5 58.3 60.7 59.0 L62.05 59.8 Q62.1 59.6 62.4 59.6 M61.7 55.55 Q61.7 53.35 58.9 53.35 L57.45 53.6 57.65 53.95 57.8 54.1 57.75 54.15 57.9 55.7 Q57.9 57.25 57.25 58.2 L57.4 58.6 Q57.45 59.1 58.4 59.1 59.65 59.1 60.75 57.75 61.7 56.55 61.7 55.55 M69.3 64.85 L64.9 62.25 60.4 59.25 Q59.55 59.8 58.4 59.8 57.2 59.8 56.8 58.9 L56.8 58.7 Q55.8 59.55 53.85 59.55 50.45 59.55 50.45 55.95 L50.45 55.8 45.85 55.6 44.6 55.65 43.85 56.35 43.8 56.65 43.4 58.05 Q43.4 61.35 46.85 63.7 49.25 65.3 53.05 66.2 L53.05 66.1 53.35 66.05 53.6 66.3 63.45 67.15 Q67.45 67.15 69.5 65.95 L69.3 64.9 69.3 64.85 M58.95 51.55 Q58.95 50.45 59.8 49.05 55.85 51.15 52.8 51.4 L52.3 51.55 52.2 51.4 52.05 51.4 51.85 51.3 49.7 51.2 42.55 51.2 46.55 54.85 46.5 54.95 50.55 55.15 Q51.0 52.55 54.85 52.55 56.3 52.55 57.1 53.2 57.5 52.7 58.85 52.7 L59.1 51.7 58.95 51.55 M51.4 55.5 L51.05 55.8 51.05 55.9 Q51.05 58.85 54.1 58.85 57.15 58.85 57.3 55.7 57.3 53.2 53.95 53.2 52.5 53.2 51.65 54.45 L51.2 55.3 51.4 55.5 M55.65 56.05 L55.0 56.9 54.55 56.3 Q54.55 55.8 55.15 55.8 L55.6 55.85 55.65 56.05 M50.1 71.6 L49.8 72.6 Q49.8 74.35 49.05 75.25 L48.8 76.05 48.8 76.25 Q49.6 76.35 50.05 76.7 51.1 75.25 51.75 73.45 L51.5 73.2 51.85 72.15 51.85 72.0 51.65 72.05 51.4 72.0 51.3 71.65 Q51.3 71.35 51.6 71.2 L51.55 70.65 51.5 70.25 51.35 69.95 50.9 69.7 50.9 71.05 51.15 71.55 51.1 71.8 50.85 71.9 50.5 71.7 50.1 71.6 M48.5 71.85 L47.85 72.45 48.3 72.9 48.6 72.7 48.9 73.0 48.8 73.45 48.8 73.55 48.75 73.6 48.3 74.15 47.9 74.5 Q47.9 74.9 47.3 74.9 L47.0 74.9 46.95 74.9 47.05 75.3 48.35 74.8 Q48.55 74.2 48.9 73.9 L49.2 73.25 49.2 71.85 48.5 71.85 M53.6 66.95 L53.35 68.5 53.5 68.7 54.0 68.1 54.0 68.05 54.1 67.05 53.6 66.95 M54.15 69.45 L53.6 68.85 54.2 69.7 54.15 69.45 M52.25 71.45 L52.25 71.5 52.3 71.5 52.25 71.45 M52.3 71.5 L52.7 72.85 52.95 73.15 53.9 74.25 53.05 72.7 52.3 71.5 M52.8 73.75 L52.95 73.15 52.6 74.15 53.2 74.05 52.9 74.0 52.8 73.75 M53.4 74.05 L53.45 74.05 53.25 74.05 53.4 74.05 M60.65 72.8 Q58.6 73.55 58.6 74.2 L58.7 74.5 58.5 74.75 57.45 75.75 57.1 76.0 56.45 76.6 57.45 77.0 57.6 76.7 58.2 77.15 58.6 77.25 59.0 77.15 58.9 77.35 59.5 77.45 Q61.1 77.45 61.6 75.4 61.6 74.95 61.0 74.6 L60.55 74.35 60.45 74.55 60.8 74.85 60.5 75.1 59.7 74.4 Q59.7 74.15 59.95 74.15 L60.1 74.3 60.7 73.0 60.65 72.8 M59.1 76.95 L59.0 76.55 59.45 76.3 59.1 76.95 M57.7 74.85 L58.0 74.6 57.2 74.1 57.55 74.65 57.7 74.85 M55.85 76.5 L55.95 76.6 55.95 76.45 55.85 76.5 M48.65 81.5 L48.65 81.45 48.55 81.75 48.65 81.5" fill="#000000" fill-rule="evenodd" stroke="none"/>
      <path d="M46.5 74.85 L46.45 74.85 46.45 76.0 46.9 76.05 48.2 75.85 48.2 76.0 48.2 76.2 48.1 76.2 Q46.75 76.2 44.9 77.55 L43.3 78.9 Q43.0 78.05 41.65 78.05 L39.95 78.85 40.0 78.75 Q40.5 78.15 40.85 74.8 40.95 73.8 41.8 72.25 L42.2 71.55 42.3 71.55 42.55 71.45 42.5 71.0 42.65 70.75 42.6 70.7 43.0 69.75 44.0 68.15 Q44.45 66.85 45.75 65.85 L46.55 65.3 47.35 64.95 Q49.55 66.15 52.95 66.85 L52.8 67.8 51.75 66.95 Q51.5 66.95 51.5 67.2 L57.2 74.85 55.7 75.8 54.45 74.4 53.45 72.4 52.4 70.65 Q52.45 70.0 53.0 70.2 L52.5 69.7 52.4 70.6 52.15 70.25 Q52.1 69.4 51.5 69.15 L50.9 68.5 Q50.65 68.5 50.65 68.75 L50.8 69.05 50.3 69.1 50.3 71.05 50.1 71.05 Q49.75 71.05 49.55 71.35 L48.9 71.2 Q48.4 71.2 47.85 71.65 L47.5 71.95 Q47.15 71.45 47.15 71.1 47.15 70.75 47.65 69.55 48.1 68.5 49.25 68.25 L50.3 68.1 Q50.35 67.8 49.65 67.8 46.55 67.8 46.55 71.1 L46.7 72.4 Q47.0 73.4 47.9 73.6 L47.0 74.15 Q46.1 73.95 45.35 73.15 44.55 72.2 44.55 71.4 44.55 69.7 46.85 67.8 L49.15 66.05 49.1 65.95 48.6 65.8 Q47.5 65.8 45.8 67.7 43.95 69.7 43.95 71.35 43.95 72.15 44.55 73.2 45.25 74.5 46.5 74.8 L46.5 74.85 M39.45 60.65 L37.4 62.75 37.15 61.25 Q37.15 56.25 44.0 55.7 L43.6 56.15 43.5 56.05 43.1 56.75 43.0 56.85 43.05 56.9 Q42.8 57.4 42.8 58.05 L42.85 58.95 42.75 58.85 42.5 58.8 Q41.5 58.8 39.45 60.65 M62.4 59.6 Q62.1 59.6 62.05 59.8 L60.7 59.0 Q61.5 58.3 61.95 56.95 L64.6 60.1 Q63.35 59.6 62.4 59.6 M58.95 51.55 L59.1 51.7 58.85 52.7 Q57.5 52.7 57.1 53.2 56.3 52.55 54.85 52.55 51.0 52.55 50.55 55.15 L46.5 54.95 46.55 54.85 42.55 51.2 49.7 51.2 51.85 51.3 52.05 51.4 52.2 51.4 52.3 51.55 52.8 51.4 Q55.85 51.15 59.8 49.05 58.95 50.45 58.95 51.55" fill="#ffb600" fill-rule="evenodd" stroke="none"/>
      <path d="M53.6 66.95 L54.1 67.05 54.0 68.05 54.0 68.1 53.5 68.7 53.35 68.5 53.6 66.95 M52.8 73.75 L52.9 74.0 53.2 74.05 52.6 74.15 52.95 73.15 52.8 73.75 M52.3 71.5 L53.05 72.7 53.9 74.25 52.95 73.15 52.7 72.85 52.3 71.5" fill="#a800a0" fill-rule="evenodd" stroke="none"/>
      <path d="M69.3 64.85 L69.3 64.9 69.5 65.95 Q67.45 67.15 63.45 67.15 L53.6 66.3 53.35 66.05 53.05 66.1 53.05 66.2 Q49.25 65.3 46.85 63.7 43.4 61.35 43.4 58.05 L43.8 56.65 43.85 56.35 44.6 55.65 45.85 55.6 50.45 55.8 50.45 55.95 Q50.45 59.55 53.85 59.55 55.8 59.55 56.8 58.7 L56.8 58.9 Q57.2 59.8 58.4 59.8 59.55 59.8 60.4 59.25 L64.9 62.25 69.3 64.85" fill="#9cb9cb" fill-rule="evenodd" stroke="none"/>
      <path d="M61.15 55.5 L61.1 55.25 60.7 55.2 Q60.2 55.35 60.2 56.1 L60.5 56.8 60.8 56.65 61.15 55.5 M61.7 55.55 Q61.7 56.55 60.75 57.75 59.65 59.1 58.4 59.1 57.45 59.1 57.4 58.6 L57.25 58.2 Q57.9 57.25 57.9 55.7 L57.75 54.15 57.8 54.1 57.65 53.95 57.45 53.6 58.9 53.35 Q61.7 53.35 61.7 55.55 M48.5 71.85 L49.2 71.85 49.2 73.25 48.9 73.9 Q48.55 74.2 48.35 74.8 L47.05 75.3 46.95 74.9 47.0 74.9 47.3 74.9 Q47.9 74.9 47.9 74.5 L48.3 74.15 48.75 73.6 48.8 73.55 48.8 73.45 48.9 73.0 48.6 72.7 48.3 72.9 47.85 72.45 48.5 71.85 M50.1 71.6 L50.5 71.7 50.85 71.9 51.1 71.8 51.15 71.55 50.9 71.05 50.9 69.7 51.35 69.95 51.5 70.25 51.55 70.65 51.6 71.2 Q51.3 71.35 51.3 71.65 L51.4 72.0 51.65 72.05 51.85 72.0 51.85 72.15 51.5 73.2 51.75 73.45 Q51.1 75.25 50.05 76.7 49.6 76.35 48.8 76.25 L48.8 76.05 49.05 75.25 Q49.8 74.35 49.8 72.6 L50.1 71.6 M55.65 56.05 L55.6 55.85 55.15 55.8 Q54.55 55.8 54.55 56.3 L55.0 56.9 55.65 56.05 M51.4 55.5 L51.2 55.3 51.65 54.45 Q52.5 53.2 53.95 53.2 57.3 53.2 57.3 55.7 57.15 58.85 54.1 58.85 51.05 58.85 51.05 55.9 L51.05 55.8 51.4 55.5 M60.65 72.8 L60.7 73.0 60.1 74.3 59.95 74.15 Q59.7 74.15 59.7 74.4 L60.5 75.1 60.8 74.85 60.45 74.55 60.55 74.35 61.0 74.6 Q61.6 74.95 61.6 75.4 61.1 77.45 59.5 77.45 L58.9 77.35 59.0 77.15 58.6 77.25 58.2 77.15 57.6 76.7 57.45 77.0 56.45 76.6 57.1 76.0 57.45 75.75 58.5 74.75 58.7 74.5 58.6 74.2 Q58.6 73.55 60.65 72.8 M59.1 76.95 L59.45 76.3 59.0 76.55 59.1 76.95 M57.7 74.85 L57.55 74.65 57.2 74.1 58.0 74.6 57.7 74.85" fill="#ffffff" fill-rule="evenodd" stroke="none"/>
    </g>
  </defs>
</svg>
