<?xml version="1.0" encoding="UTF-8" standalone="no"?>
<svg xmlns:ffdec="https://www.free-decompiler.com/flash" xmlns:xlink="http://www.w3.org/1999/xlink" ffdec:objectType="frame" height="500.0px" width="500.0px" xmlns="http://www.w3.org/2000/svg">
  <g transform="matrix(5.0, 0.0, 0.0, 5.0, 0.0, 0.0)">
    <use ffdec:characterId="12" height="42.5" transform="matrix(1.0, 0.0, 0.0, 1.0, 0.0, 0.0)" width="41.5" xlink:href="#shape0"/>
  </g>
  <defs>
    <g id="shape0">
      <path d="M42.85 48.1 L43.15 48.05 Q44.2 48.05 47.45 49.6 L51.6 50.95 51.6 50.8 61.5 49.3 61.8 49.65 61.05 50.65 60.95 50.75 60.6 51.45 60.8 51.5 Q61.45 51.05 63.85 50.75 L67.3 50.45 67.85 50.5 67.9 50.75 Q67.9 54.3 63.45 54.4 L62.55 55.1 62.55 56.1 62.4 57.45 64.2 58.8 Q65.65 60.05 67.45 60.05 L68.75 60.05 67.45 59.85 69.55 59.45 69.65 59.3 69.9 59.35 69.95 59.4 71.25 59.25 71.2 58.95 72.2 57.7 73.65 56.55 74.0 56.6 74.05 56.85 73.8 57.2 74.05 57.8 73.25 58.85 72.05 59.65 71.9 59.65 Q71.6 60.15 69.6 60.15 L67.75 61.65 64.8 63.7 Q61.7 65.75 54.4 65.8 L54.4 65.9 54.55 66.2 54.4 66.85 54.6 68.7 54.5 70.1 54.95 70.6 Q56.45 71.7 57.45 71.85 L60.6 72.4 60.55 72.25 Q60.55 71.55 62.8 71.55 63.65 71.55 64.0 72.0 L64.25 71.8 64.35 71.75 Q64.7 70.95 67.1 70.95 69.0 70.95 68.55 72.05 L68.55 72.65 68.8 72.8 68.85 72.8 Q69.65 72.8 70.05 75.85 70.05 78.55 65.7 78.55 63.75 78.55 62.75 77.45 L61.8 76.05 61.8 75.4 61.55 75.4 60.95 75.35 60.95 74.9 60.45 74.9 Q57.0 74.9 54.45 73.35 L54.2 74.6 55.9 74.35 Q57.4 74.35 58.1 75.95 L58.5 75.95 Q62.9 75.95 63.4 80.2 63.4 80.8 62.4 81.7 L61.0 82.55 60.55 82.5 Q60.1 78.6 57.65 78.6 56.75 78.6 56.2 79.15 L55.5 79.9 55.2 79.45 56.1 77.6 56.1 76.5 Q56.15 76.25 56.6 76.15 L56.1 75.65 Q54.4 75.65 54.05 76.7 53.75 77.65 53.4 77.7 53.4 81.4 49.05 81.4 48.0 81.4 46.4 80.35 L40.9 84.3 39.3 85.75 37.25 87.6 40.1 87.6 40.15 87.9 39.8 89.55 Q40.75 90.55 33.95 90.55 32.75 90.55 32.55 90.2 L32.55 89.85 Q32.55 89.15 32.85 88.6 L32.7 88.35 35.0 86.05 34.95 85.85 37.9 83.2 37.8 82.95 Q37.95 82.8 38.15 82.8 L38.3 82.85 38.35 82.8 38.4 82.9 40.1 83.4 41.85 82.05 Q44.05 80.4 45.15 79.8 44.7 79.75 44.4 79.35 44.05 78.85 42.4 78.85 L39.85 79.15 39.45 79.1 39.45 77.7 40.8 74.65 39.95 74.8 39.75 74.8 39.2 75.65 Q38.15 76.9 36.35 76.9 34.0 76.9 33.2 75.6 32.8 75.0 32.8 74.15 32.8 72.65 34.5 71.5 L34.45 71.45 34.2 70.3 Q34.2 68.85 34.75 68.6 35.0 67.4 37.45 65.35 40.75 62.55 44.35 62.55 L44.9 62.6 Q43.7 61.2 43.7 59.6 L43.9 58.3 43.2 58.25 41.2 58.3 Q37.5 58.3 36.55 57.25 36.3 57.0 36.3 56.0 36.3 53.8 43.9 53.8 L46.0 53.85 44.8 51.35 42.8 48.35 42.85 48.1 M38.7 57.6 L43.05 57.75 43.45 57.7 44.0 57.75 44.15 57.2 Q44.6 55.6 45.35 55.1 L45.75 54.5 43.9 54.45 Q36.9 54.45 36.9 56.1 36.9 56.95 37.6 57.3 L38.7 57.6 M35.4 68.8 L35.35 69.2 36.95 69.9 37.25 69.85 Q37.4 68.8 38.95 66.95 41.1 64.3 43.6 64.3 L44.0 64.45 44.05 64.6 44.6 64.55 Q47.45 64.55 48.15 65.8 L47.8 66.15 47.1 65.8 46.6 66.5 Q45.9 67.5 45.9 68.15 L45.6 68.3 45.45 68.15 43.95 70.25 Q41.55 74.0 40.05 77.85 L40.05 78.4 42.45 78.2 Q44.15 78.2 45.1 79.15 L45.2 79.1 45.2 78.75 45.5 78.7 45.7 78.9 Q46.5 78.5 48.45 77.55 49.25 77.55 49.95 78.25 L50.95 79.3 Q51.4 78.0 52.35 71.6 51.3 70.45 51.3 69.55 51.3 69.2 51.45 69.05 L51.6 69.05 Q51.8 69.05 53.85 72.2 L54.0 72.35 54.15 72.05 54.5 72.1 54.55 72.35 54.55 72.75 56.0 73.55 Q58.95 74.7 61.15 74.6 L61.8 74.6 61.8 74.25 Q61.85 73.75 62.2 73.6 L61.7 73.15 61.7 73.05 Q57.45 72.95 54.35 70.65 53.15 69.75 51.8 67.95 L51.8 67.3 52.1 67.2 52.95 68.25 Q53.0 67.5 53.55 66.65 L53.7 65.8 Q48.3 65.7 45.6 63.3 L45.05 62.75 Q43.7 62.6 40.8 64.25 L38.05 65.7 Q35.75 67.5 35.35 68.7 L35.4 68.8 M38.25 69.3 L38.5 69.35 38.65 69.55 Q38.65 70.05 37.8 70.35 L37.8 70.4 37.5 70.55 37.4 70.45 36.65 70.55 35.45 70.1 35.1 69.85 34.8 70.25 35.05 71.1 Q35.45 71.85 36.2 71.85 37.6 71.85 38.4 70.9 L38.95 69.75 38.45 68.85 38.25 69.3 38.2 69.35 38.25 69.3 M34.25 72.6 Q33.4 73.45 33.4 74.1 33.4 76.25 35.45 76.25 39.25 76.25 39.3 74.1 39.3 73.35 37.85 73.35 L36.95 74.05 36.55 73.65 Q36.55 72.7 37.85 72.7 39.85 72.7 39.9 74.05 41.05 73.75 41.05 72.55 41.05 71.25 40.15 71.0 L39.35 70.75 38.8 71.5 Q37.85 72.55 36.2 72.55 35.3 72.55 34.8 72.0 L34.25 72.6 M38.85 68.45 Q39.65 68.45 39.55 69.85 L39.5 70.35 40.1 70.3 Q42.15 70.3 41.65 72.6 L41.65 72.9 Q43.4 69.65 45.5 67.25 L46.0 66.35 46.55 65.55 46.25 65.4 43.75 64.95 41.2 65.6 Q40.3 65.95 39.6 67.1 L38.7 68.45 38.85 68.45 M67.15 51.1 L64.85 51.5 61.9 51.7 61.55 51.85 Q62.3 52.5 62.5 54.55 L62.75 54.3 62.7 54.1 Q62.7 53.7 66.1 52.85 66.95 52.4 67.15 51.1 M61.75 54.6 L61.8 54.95 Q61.8 56.05 60.9 56.05 L60.45 56.0 60.45 54.95 61.4 54.55 61.75 54.6 M61.7 57.45 L61.95 57.35 61.95 56.05 61.9 54.9 Q61.55 52.1 60.35 52.1 L58.7 52.9 Q59.75 53.7 59.55 55.6 59.55 56.9 58.8 58.0 L59.3 58.35 59.3 58.4 59.5 58.55 Q61.25 58.75 61.8 57.8 L61.7 57.45 M62.1 58.15 Q61.5 59.15 60.1 59.15 59.15 59.15 58.55 58.7 L58.55 58.4 58.5 58.35 57.7 59.1 Q56.05 60.4 54.55 60.4 52.45 60.4 52.45 59.0 L52.8 58.5 52.2 55.25 52.2 55.0 51.15 55.05 51.15 55.15 Q51.1 55.3 50.85 55.3 L50.9 55.05 50.45 55.05 49.05 54.6 46.7 54.5 46.75 54.7 Q46.75 55.45 46.1 55.9 L45.5 56.6 Q44.3 58.25 44.3 59.65 44.3 60.95 45.95 62.75 48.1 65.15 51.35 65.15 L53.85 65.1 Q54.1 64.1 54.5 63.95 L54.8 64.25 54.65 65.05 Q61.9 64.65 65.95 62.25 67.6 61.25 68.75 60.25 L67.15 60.4 Q65.0 60.4 63.45 58.95 L62.1 58.15 M62.7 74.6 Q63.55 74.2 63.55 73.1 63.55 72.2 62.75 72.2 L61.45 72.5 61.9 72.6 62.0 72.55 62.5 72.7 63.15 72.75 62.8 73.0 62.8 73.45 62.3 74.55 62.65 74.55 62.65 74.6 62.7 74.6 M65.05 72.05 L64.65 72.3 64.55 72.3 64.2 72.45 64.15 73.15 Q64.15 75.0 62.45 75.35 L62.6 76.2 Q63.2 77.9 64.85 77.9 69.35 77.9 69.35 75.85 L68.55 73.25 68.4 73.15 68.3 73.4 68.55 73.75 68.5 74.1 68.25 74.15 Q67.95 74.15 67.4 73.65 L66.8 72.85 Q66.95 72.7 67.1 72.7 L67.7 72.9 67.95 72.1 Q67.95 71.6 66.95 71.6 L66.15 71.65 66.15 71.8 65.9 72.05 Q65.7 71.9 65.35 71.9 L65.05 72.05 M59.9 51.35 L59.8 51.1 60.5 50.3 60.55 50.2 60.5 50.2 52.4 51.3 52.1 51.55 Q50.95 51.55 47.9 50.55 L44.25 49.35 Q46.05 51.8 46.5 53.85 L49.85 54.3 52.3 54.45 Q52.85 52.3 56.4 52.3 57.55 52.3 58.3 52.65 L58.45 52.75 58.35 52.65 58.3 52.6 Q58.3 51.65 59.9 51.5 L59.95 51.4 59.95 51.35 59.9 51.35 M52.85 54.95 L52.8 55.25 Q52.8 57.7 54.15 59.2 L53.75 59.55 53.65 59.6 54.45 59.75 Q58.15 59.75 58.95 55.55 58.95 52.95 55.45 52.95 54.05 52.95 53.3 54.05 52.95 54.5 52.9 54.9 L52.85 54.95 M56.05 55.85 Q56.05 55.05 56.8 55.05 57.55 55.05 57.55 55.9 57.55 56.9 56.95 56.9 56.15 56.9 56.05 56.4 L56.05 55.85 M54.05 68.15 L54.0 68.15 53.9 68.15 53.55 68.75 53.45 68.8 54.15 69.6 54.1 68.6 54.05 68.15 M53.75 72.85 L53.45 72.6 52.95 72.15 52.35 75.7 52.9 75.75 53.0 75.55 53.35 74.15 53.75 72.85 M56.6 78.2 L56.55 78.1 56.55 78.2 56.6 78.2 M51.65 80.1 L51.7 80.05 51.6 80.0 51.65 80.1" fill="#000000" fill-rule="evenodd" stroke="none"/>
      <path d="M35.4 68.8 L35.35 68.7 Q35.75 67.5 38.05 65.7 L40.8 64.25 Q43.7 62.6 45.05 62.75 L45.6 63.3 Q48.3 65.7 53.7 65.8 L53.55 66.65 Q53.0 67.5 52.95 68.25 L52.1 67.2 51.8 67.3 51.8 67.95 Q53.15 69.75 54.35 70.65 57.45 72.95 61.7 73.05 L61.7 73.15 62.2 73.6 Q61.85 73.75 61.8 74.25 L61.8 74.6 61.15 74.6 Q58.95 74.7 56.0 73.55 L54.55 72.75 54.55 72.35 54.5 72.1 54.15 72.05 54.0 72.35 53.85 72.2 Q51.8 69.05 51.6 69.05 L51.45 69.05 Q51.3 69.2 51.3 69.55 51.3 70.45 52.35 71.6 51.4 78.0 50.95 79.3 L49.95 78.25 Q49.25 77.55 48.45 77.55 46.5 78.5 45.7 78.9 L45.5 78.7 45.2 78.75 45.2 79.1 45.1 79.15 Q44.15 78.2 42.45 78.2 L40.05 78.4 40.05 77.85 Q41.55 74.0 43.95 70.25 L45.45 68.15 45.6 68.3 45.9 68.15 Q45.9 67.5 46.6 66.5 L47.1 65.8 47.8 66.15 48.15 65.8 Q47.45 64.55 44.6 64.55 L44.05 64.6 44.0 64.45 43.6 64.3 Q41.1 64.3 38.95 66.95 37.4 68.8 37.25 69.85 L36.95 69.9 35.35 69.2 35.4 68.8 M38.7 57.6 L37.6 57.3 Q36.9 56.95 36.9 56.1 36.9 54.45 43.9 54.45 L45.75 54.5 45.35 55.1 Q44.6 55.6 44.15 57.2 L44.0 57.75 43.45 57.7 43.05 57.75 38.7 57.6 M67.15 51.1 Q66.95 52.4 66.1 52.85 62.7 53.7 62.7 54.1 L62.75 54.3 62.5 54.55 Q62.3 52.5 61.55 51.85 L61.9 51.7 64.85 51.5 67.15 51.1 M58.3 52.65 Q57.55 52.3 56.4 52.3 52.85 52.3 52.3 54.45 L49.85 54.3 46.5 53.85 Q46.05 51.8 44.25 49.35 L47.9 50.55 Q50.95 51.55 52.1 51.55 L52.4 51.3 60.5 50.2 60.55 50.2 60.5 50.3 59.8 51.1 59.9 51.35 59.95 51.4 59.9 51.5 Q58.3 51.65 58.3 52.6 L58.35 52.65 58.3 52.65" fill="#ffb600" fill-rule="evenodd" stroke="none"/>
      <path d="M62.1 58.15 L63.45 58.95 Q65.0 60.4 67.15 60.4 L68.75 60.25 Q67.6 61.25 65.95 62.25 61.9 64.65 54.65 65.05 L54.8 64.25 54.5 63.95 Q54.1 64.1 53.85 65.1 L51.35 65.15 Q48.1 65.15 45.95 62.75 44.3 60.95 44.3 59.65 44.3 58.25 45.5 56.6 L46.1 55.9 Q46.75 55.45 46.75 54.7 L46.7 54.5 49.05 54.6 50.45 55.05 50.9 55.05 50.85 55.3 Q51.1 55.3 51.15 55.15 L51.15 55.05 52.2 55.0 52.2 55.25 52.8 58.5 52.45 59.0 Q52.45 60.4 54.55 60.4 56.05 60.4 57.7 59.1 L58.5 58.35 58.55 58.4 58.55 58.7 Q59.15 59.15 60.1 59.15 61.5 59.15 62.1 58.15" fill="#9cb9cb" fill-rule="evenodd" stroke="none"/>
      <path d="M53.75 72.85 L53.35 74.15 53.0 75.55 52.9 75.75 52.35 75.7 52.95 72.15 53.45 72.6 53.75 72.85 M54.05 68.15 L54.1 68.6 54.15 69.6 53.45 68.8 53.55 68.75 53.9 68.15 54.0 68.15 54.05 68.15" fill="#a800a0" fill-rule="evenodd" stroke="none"/>
      <path d="M38.25 69.3 L38.45 68.85 38.95 69.75 38.4 70.9 Q37.6 71.85 36.2 71.85 35.45 71.85 35.05 71.1 L34.8 70.25 35.1 69.85 35.45 70.1 36.65 70.55 37.4 70.45 37.5 70.55 37.8 70.4 37.8 70.35 Q38.65 70.05 38.65 69.55 L38.5 69.35 38.25 69.3 M34.25 72.6 L34.8 72.0 Q35.3 72.55 36.2 72.55 37.85 72.55 38.8 71.5 L39.35 70.75 40.15 71.0 Q41.05 71.25 41.05 72.55 41.05 73.75 39.9 74.05 39.85 72.7 37.85 72.7 36.55 72.7 36.55 73.65 L36.95 74.05 37.85 73.35 Q39.3 73.35 39.3 74.1 39.25 76.25 35.45 76.25 33.4 76.25 33.4 74.1 33.4 73.45 34.25 72.6 M61.7 57.45 L61.8 57.8 Q61.25 58.75 59.5 58.55 L59.3 58.4 59.3 58.35 58.8 58.0 Q59.55 56.9 59.55 55.6 59.75 53.7 58.7 52.9 L60.35 52.1 Q61.55 52.1 61.9 54.9 L61.95 56.05 61.95 57.35 61.7 57.45 M61.75 54.6 L61.4 54.55 60.45 54.95 60.45 56.0 60.9 56.05 Q61.8 56.05 61.8 54.95 L61.75 54.6 M62.65 74.55 L62.3 74.55 62.8 73.45 62.8 73.0 63.15 72.75 62.5 72.7 62.0 72.55 61.9 72.6 61.45 72.5 62.75 72.2 Q63.55 72.2 63.55 73.1 63.55 74.2 62.7 74.6 L62.65 74.55 M65.05 72.05 L65.35 71.9 Q65.7 71.9 65.9 72.05 L66.15 71.8 66.15 71.65 66.95 71.6 Q67.95 71.6 67.95 72.1 L67.7 72.9 67.1 72.7 Q66.95 72.7 66.8 72.85 L67.4 73.65 Q67.95 74.15 68.25 74.15 L68.5 74.1 68.55 73.75 68.3 73.4 68.4 73.15 68.55 73.25 69.35 75.85 Q69.35 77.9 64.85 77.9 63.2 77.9 62.6 76.2 L62.45 75.35 Q64.15 75.0 64.15 73.15 L64.2 72.45 64.55 72.3 64.65 72.3 65.05 72.05 M56.05 55.85 L56.05 56.4 Q56.15 56.9 56.95 56.9 57.55 56.9 57.55 55.9 57.55 55.05 56.8 55.05 56.05 55.05 56.05 55.85 M52.85 54.95 L52.9 54.9 Q52.95 54.5 53.3 54.05 54.05 52.95 55.45 52.95 58.95 52.95 58.95 55.55 58.15 59.75 54.45 59.75 L53.65 59.6 53.75 59.55 54.15 59.2 Q52.8 57.7 52.8 55.25 L52.85 54.95" fill="#ffffff" fill-rule="evenodd" stroke="none"/>
    </g>
  </defs>
</svg>
