<?xml version="1.0" encoding="UTF-8" standalone="no"?>
<svg xmlns:ffdec="https://www.free-decompiler.com/flash" xmlns:xlink="http://www.w3.org/1999/xlink" ffdec:objectType="frame" height="500.0px" width="500.0px" xmlns="http://www.w3.org/2000/svg">
  <g transform="matrix(5.0, 0.0, 0.0, 5.0, 0.0, 0.0)">
    <use ffdec:characterId="2" height="42.35" transform="matrix(1.0, 0.0, 0.0, 1.0, 0.0, 0.0)" width="39.25" xlink:href="#shape0"/>
  </g>
  <defs>
    <g id="shape0">
      <path d="M45.35 48.45 L47.9 50.4 Q50.7 52.4 53.85 54.1 L61.6 49.45 Q61.9 49.5 61.9 49.9 61.9 51.45 60.8 53.85 L61.35 53.05 Q62.3 51.8 63.15 51.8 64.4 51.8 64.3 53.2 L63.8 55.0 62.55 56.9 61.9 57.8 61.9 58.45 Q61.9 60.55 60.75 61.35 L62.0 61.4 Q65.0 61.4 67.3 55.4 67.05 55.0 67.05 54.2 L67.85 51.45 Q68.75 51.45 68.65 53.55 L68.45 55.35 68.55 57.45 Q68.55 59.45 67.8 61.7 67.0 64.05 66.05 64.6 L62.95 68.05 Q60.25 70.8 55.95 70.8 L55.35 70.8 55.5 71.65 55.65 73.55 55.9 74.15 56.3 74.15 Q60.2 74.15 62.05 71.6 L63.45 69.65 63.3 69.4 Q63.3 68.1 64.35 67.85 L64.95 66.6 Q65.8 65.05 66.3 65.05 67.4 65.05 67.8 66.45 L68.05 66.25 Q69.25 65.45 70.15 65.45 71.65 65.45 71.4 67.65 70.6 72.3 67.35 72.3 L67.1 72.3 Q66.95 73.15 66.25 73.15 65.6 73.15 65.3 72.8 L63.7 74.25 Q60.55 76.7 56.45 76.8 57.0 77.7 57.65 80.15 L57.6 80.45 57.4 80.55 55.65 79.7 55.55 80.45 55.8 81.7 55.8 82.15 55.5 82.3 54.8 81.5 54.25 80.45 53.95 80.5 53.9 80.5 53.1 81.6 53.3 81.7 53.4 81.7 Q53.75 81.7 56.0 84.05 L58.9 87.4 59.0 87.5 58.95 87.4 58.95 87.35 Q58.95 87.1 62.45 85.2 L65.05 83.45 Q65.45 83.45 66.3 85.35 L66.9 87.25 Q66.9 88.0 61.8 89.1 L57.15 90.8 55.55 89.2 Q55.55 88.9 57.0 88.1 55.4 87.0 52.5 83.4 51.7 83.3 51.4 82.75 L49.7 83.2 Q49.55 84.0 48.35 84.75 46.8 85.7 44.6 85.7 42.1 85.7 39.7 84.35 L38.2 83.35 37.55 83.55 34.2 85.15 33.8 85.1 32.8 82.25 Q32.8 82.15 38.4 79.2 38.6 79.2 38.75 79.35 L38.8 79.5 38.85 79.45 Q42.5 72.55 45.25 68.6 L43.85 67.75 43.6 67.8 41.35 67.6 38.7 67.95 38.0 68.7 37.95 68.75 38.0 68.7 Q39.35 68.7 39.15 69.95 L39.15 70.2 39.95 70.05 Q41.25 70.05 41.65 71.8 41.65 72.25 40.9 73.1 40.05 74.05 39.1 74.05 L38.2 73.9 37.8 74.85 Q36.8 76.55 34.85 76.55 32.2 76.55 32.2 74.4 32.2 73.9 33.1 72.25 33.95 70.6 34.65 70.35 L34.55 69.9 Q34.55 69.0 35.4 68.5 35.7 67.65 36.6 66.55 38.55 64.05 41.8 64.05 43.4 64.05 44.0 64.5 43.7 63.55 43.7 62.45 L43.75 61.1 43.0 60.55 Q41.35 60.35 40.15 57.7 L39.2 54.8 Q39.2 52.8 40.6 52.8 42.9 52.8 44.8 56.8 45.25 57.8 47.7 59.0 47.25 58.15 47.25 56.45 L47.05 53.85 45.05 48.6 45.35 48.45 M39.8 54.8 Q39.8 56.0 40.9 57.65 42.1 59.5 43.65 60.2 L43.55 60.45 43.9 60.7 45.35 59.2 45.4 59.25 45.8 58.8 44.15 57.0 Q41.5 53.45 40.65 53.45 39.95 53.45 39.8 54.1 L39.8 54.8 M35.15 69.9 Q35.15 71.0 36.5 71.0 38.55 71.0 38.55 70.0 L37.85 68.95 37.65 69.75 37.65 69.8 37.6 70.1 37.55 70.25 37.25 70.4 37.15 70.35 36.4 70.4 35.75 69.85 35.5 69.9 35.25 69.65 35.15 69.9 M35.2 73.1 Q35.2 71.8 36.9 71.8 L37.95 72.0 Q38.2 71.45 38.9 71.45 39.3 71.45 39.65 71.8 39.4 72.1 38.95 72.1 L38.4 72.8 38.35 73.3 38.6 73.4 Q40.05 73.4 41.0 71.85 41.0 70.7 40.0 70.7 L39.1 70.9 38.95 70.75 Q38.45 71.65 36.55 71.65 35.45 71.65 34.95 71.05 L34.05 72.05 Q32.8 73.55 32.8 74.4 32.8 75.9 34.35 75.9 37.5 75.9 37.75 73.35 L37.7 73.05 37.7 72.85 37.0 72.45 Q36.1 72.45 35.9 72.95 L35.55 73.4 35.3 73.35 35.2 73.1 M36.15 68.95 L36.25 68.95 36.55 69.25 36.25 69.65 36.3 69.75 36.95 69.6 Q37.15 66.95 41.4 66.95 L43.2 66.95 43.45 66.9 43.7 66.95 43.9 66.95 44.0 67.1 44.9 67.6 45.65 68.1 46.05 67.55 45.95 67.45 Q44.85 66.55 44.3 65.3 L43.65 64.9 43.6 64.9 43.5 64.8 41.75 64.7 Q39.6 64.7 37.6 66.55 36.7 67.35 36.3 68.15 L36.6 68.05 36.9 68.3 36.25 68.9 36.15 68.95 M38.7 82.05 Q40.3 81.3 41.05 81.3 L41.5 81.45 41.55 81.6 40.7 82.25 41.1 82.75 43.15 81.8 Q45.15 80.95 46.4 80.95 47.75 80.95 47.9 81.45 L49.4 79.55 49.75 79.6 49.8 79.85 49.7 80.2 49.75 80.2 51.1 77.6 51.2 76.35 Q48.75 75.8 48.8 74.4 L49.0 74.3 50.4 75.25 51.3 75.65 51.6 75.05 51.9 75.85 53.3 76.1 53.35 75.95 53.5 76.1 54.6 76.15 Q58.9 76.15 61.2 75.05 63.55 73.9 65.75 70.85 65.35 69.7 64.4 69.25 L64.35 69.2 64.15 69.15 64.3 69.3 64.15 69.95 64.15 70.25 63.95 70.4 62.3 72.3 Q59.7 74.8 56.25 74.8 52.3 74.8 51.1 73.85 50.3 72.6 49.45 71.9 L49.45 71.35 49.75 71.3 50.75 72.75 Q51.2 73.2 51.95 73.5 L51.95 71.75 52.3 70.35 Q50.65 69.95 49.05 69.2 47.6 68.55 46.4 67.75 L46.0 68.6 45.95 68.7 44.3 71.45 42.15 75.1 Q40.55 77.25 38.35 81.9 L38.7 82.05 M39.65 82.75 L40.15 83.15 Q42.05 84.45 44.45 84.45 46.55 84.45 47.8 83.4 L47.95 83.3 Q46.75 83.15 46.75 82.55 L45.45 81.9 41.15 83.4 Q40.5 83.4 40.4 82.95 L40.1 82.55 39.65 82.75 M67.9 53.65 L67.95 53.7 67.9 53.6 67.9 53.65 M61.2 50.35 L61.15 50.4 Q55.65 54.05 54.35 54.4 L54.8 54.6 54.35 55.05 Q52.9 55.05 46.35 50.15 47.9 53.2 47.9 57.1 L47.7 59.0 47.7 59.05 49.8 59.95 50.6 60.0 50.55 59.3 Q50.55 55.2 53.75 55.2 55.4 55.2 56.3 56.45 56.35 55.6 56.8 55.5 57.25 55.05 58.65 55.05 L59.6 55.15 61.2 50.45 61.2 50.35 M61.35 54.35 L61.15 54.6 61.05 54.8 60.85 54.9 60.35 55.35 Q61.45 55.85 61.75 57.2 L62.65 56.0 62.75 56.0 Q63.7 54.75 63.7 53.15 63.7 52.45 63.05 52.45 62.1 52.45 61.3 54.25 L61.35 54.35 M67.7 55.75 L67.65 55.75 67.65 55.85 Q67.65 57.25 66.35 59.3 64.6 62.05 61.9 62.05 L60.75 61.95 60.7 61.6 60.7 61.4 Q60.0 61.8 58.95 61.8 57.7 61.8 57.05 61.4 L56.65 61.15 56.6 61.2 Q55.65 62.4 54.05 62.4 L53.55 62.35 53.2 62.35 52.2 61.9 52.8 62.45 52.5 62.65 Q51.1 62.65 50.7 61.0 L50.7 60.65 50.3 60.55 49.95 60.55 Q47.9 60.55 46.1 59.05 L45.65 59.55 45.0 60.55 Q44.3 61.55 44.3 62.45 44.3 66.55 49.25 68.7 52.65 70.15 55.85 70.15 58.7 70.15 60.65 68.95 L62.7 67.2 66.3 63.4 Q67.9 59.5 67.95 58.8 67.8 57.75 67.8 55.8 L67.7 55.75 M67.15 67.05 L67.0 66.55 Q66.9 65.7 66.35 65.7 65.9 65.7 65.55 66.95 L65.25 67.85 Q67.1 68.15 67.15 71.65 70.0 71.6 70.8 67.65 70.8 66.1 70.2 66.1 67.6 67.8 67.25 67.8 L66.8 67.65 67.15 67.05 M64.7 68.65 Q65.75 68.95 66.1 70.6 L66.3 70.85 65.85 72.15 66.15 72.45 66.5 72.35 66.55 72.15 66.2 71.9 Q66.2 71.45 66.55 71.45 66.3 68.45 64.9 68.45 L64.7 68.65 M60.6 54.35 L60.55 54.45 60.4 54.7 60.6 54.55 60.55 54.45 60.6 54.35 M55.35 58.05 Q55.85 58.05 56.05 58.95 56.05 59.65 55.4 59.65 L54.8 59.4 54.8 58.1 55.35 58.05 M51.2 60.2 L51.45 60.5 51.3 60.75 51.5 61.15 51.75 61.45 51.9 61.4 52.55 61.55 52.45 61.4 52.45 60.55 52.65 60.45 53.0 60.5 52.9 61.3 Q53.0 61.7 54.2 61.75 L54.25 61.65 54.55 61.75 Q55.5 61.7 56.15 60.75 L56.7 59.5 Q56.7 58.4 56.05 57.3 55.15 55.85 53.65 55.85 51.9 55.85 51.35 57.55 51.1 58.4 51.15 59.3 L51.2 60.2 M59.6 56.15 L59.3 55.8 59.35 55.75 59.3 55.75 58.65 55.7 57.2 55.85 57.0 56.15 57.15 56.5 56.85 56.65 Q57.0 57.1 56.75 57.2 L57.3 59.45 57.0 60.6 57.95 61.0 58.5 61.15 Q61.7 61.0 61.3 58.5 61.3 56.35 59.8 55.85 L59.6 56.15 M60.55 58.35 Q60.55 58.95 59.85 59.15 L59.55 58.8 Q59.55 58.05 60.15 57.95 L60.5 58.0 60.55 58.35 M53.55 70.6 L53.65 71.3 53.45 73.25 53.75 74.0 55.2 74.15 55.05 73.75 54.9 72.65 54.95 71.25 55.05 70.8 53.55 70.6 M52.9 70.5 L52.6 73.75 53.0 73.85 52.8 73.15 53.05 70.55 52.9 70.5 M53.25 73.85 L53.2 73.9 53.3 73.9 53.25 73.85 M53.65 76.75 L53.55 77.55 Q54.1 77.9 54.15 79.45 L54.15 79.5 54.2 79.5 Q54.45 79.5 54.5 79.75 L54.5 79.95 54.55 79.95 54.9 80.3 54.95 80.3 Q54.85 80.05 55.05 79.55 55.2 78.95 55.55 78.95 55.9 78.95 56.6 79.45 L55.65 76.8 53.65 76.75 M51.9 76.5 L51.65 77.8 51.8 77.75 52.7 77.6 52.9 77.5 53.1 77.05 53.15 76.7 51.9 76.5" fill="#000000" fill-rule="evenodd" stroke="none"/>
      <path d="M39.8 54.8 L39.8 54.1 Q39.95 53.45 40.65 53.45 41.5 53.45 44.15 57.0 L45.8 58.8 45.4 59.25 45.35 59.2 43.9 60.7 43.55 60.45 43.65 60.2 Q42.1 59.5 40.9 57.65 39.8 56.0 39.8 54.8 M38.7 82.05 L38.35 81.9 Q40.55 77.25 42.15 75.1 L44.3 71.45 45.95 68.7 46.0 68.6 46.4 67.75 Q47.6 68.55 49.05 69.2 50.65 69.95 52.3 70.35 L51.95 71.75 51.95 73.5 Q51.2 73.2 50.75 72.75 L49.75 71.3 49.45 71.35 49.45 71.9 Q50.3 72.6 51.1 73.85 52.3 74.8 56.25 74.8 59.7 74.8 62.3 72.3 L63.95 70.4 64.15 70.25 64.15 69.95 64.3 69.3 64.15 69.15 64.35 69.2 64.4 69.25 Q65.35 69.7 65.75 70.85 63.55 73.9 61.2 75.05 58.9 76.15 54.6 76.15 L53.5 76.1 53.35 75.95 53.3 76.1 51.9 75.85 51.6 75.05 51.3 75.65 50.4 75.25 49.0 74.3 48.8 74.4 Q48.75 75.8 51.2 76.35 L51.1 77.6 49.75 80.2 49.7 80.2 49.8 79.85 49.75 79.6 49.4 79.55 47.9 81.45 Q47.75 80.95 46.4 80.95 45.15 80.95 43.15 81.8 L41.1 82.75 40.7 82.25 41.55 81.6 41.5 81.45 41.05 81.3 Q40.3 81.3 38.7 82.05 M36.15 68.95 L36.25 68.9 36.9 68.3 36.6 68.05 36.3 68.15 Q36.7 67.35 37.6 66.55 39.6 64.7 41.75 64.7 L43.5 64.8 43.6 64.9 43.65 64.9 44.3 65.3 Q44.85 66.55 45.95 67.45 L46.05 67.55 45.65 68.1 44.9 67.6 44.0 67.1 43.9 66.95 43.7 66.95 43.45 66.9 43.2 66.95 41.4 66.95 Q37.15 66.95 36.95 69.6 L36.3 69.75 36.25 69.65 36.55 69.25 36.25 68.95 36.15 68.95 M61.35 54.35 L61.3 54.25 Q62.1 52.45 63.05 52.45 63.7 52.45 63.7 53.15 63.7 54.75 62.75 56.0 L62.65 56.0 61.75 57.2 Q61.45 55.85 60.35 55.35 L60.85 54.9 61.05 54.8 61.15 54.6 61.35 54.35 M61.2 50.35 L61.2 50.45 59.6 55.15 58.65 55.05 Q57.25 55.05 56.8 55.5 56.35 55.6 56.3 56.45 55.4 55.2 53.75 55.2 50.55 55.2 50.55 59.3 L50.6 60.0 49.8 59.95 47.7 59.05 47.7 59.0 47.9 57.1 Q47.9 53.2 46.35 50.15 52.9 55.05 54.35 55.05 L54.8 54.6 54.35 54.4 Q55.65 54.05 61.15 50.4 L61.2 50.35 M53.55 70.6 L55.05 70.8 54.95 71.25 54.9 72.65 55.05 73.75 55.2 74.15 53.75 74.0 53.45 73.25 53.65 71.3 53.55 70.6 M53.65 76.75 L55.65 76.8 56.6 79.45 Q55.9 78.95 55.55 78.95 55.2 78.95 55.05 79.55 54.85 80.05 54.95 80.3 L54.9 80.3 54.55 79.95 54.5 79.95 54.5 79.75 Q54.45 79.5 54.2 79.5 L54.15 79.5 54.15 79.45 Q54.1 77.9 53.55 77.55 L53.65 76.75" fill="#ffb600" fill-rule="evenodd" stroke="none"/>
      <path d="M35.2 73.1 L35.3 73.35 35.55 73.4 35.9 72.95 Q36.1 72.45 37.0 72.45 L37.7 72.85 37.7 73.05 37.75 73.35 Q37.5 75.9 34.35 75.9 32.8 75.9 32.8 74.4 32.8 73.55 34.05 72.05 L34.95 71.05 Q35.45 71.65 36.55 71.65 38.45 71.65 38.95 70.75 L39.1 70.9 40.0 70.7 Q41.0 70.7 41.0 71.85 40.05 73.4 38.6 73.4 L38.35 73.3 38.4 72.8 38.95 72.1 Q39.4 72.1 39.65 71.8 39.3 71.45 38.9 71.45 38.2 71.45 37.95 72.0 L36.9 71.8 Q35.2 71.8 35.2 73.1 M35.15 69.9 L35.25 69.65 35.5 69.9 35.75 69.85 36.4 70.4 37.15 70.35 37.25 70.4 37.55 70.25 37.6 70.1 37.65 69.8 37.65 69.75 37.85 68.95 38.55 70.0 Q38.55 71.0 36.5 71.0 35.15 71.0 35.15 69.9 M64.7 68.65 L64.9 68.45 Q66.3 68.45 66.55 71.45 66.2 71.45 66.2 71.9 L66.55 72.15 66.5 72.35 66.15 72.45 65.85 72.15 66.3 70.85 66.1 70.6 Q65.75 68.95 64.7 68.65 M67.15 67.05 L66.8 67.65 67.25 67.8 Q67.6 67.8 70.2 66.1 70.8 66.1 70.8 67.65 70.0 71.6 67.15 71.65 67.1 68.15 65.25 67.85 L65.55 66.95 Q65.9 65.7 66.35 65.7 66.9 65.7 67.0 66.55 L67.15 67.05 M60.55 58.35 L60.5 58.0 60.15 57.95 Q59.55 58.05 59.55 58.8 L59.85 59.15 Q60.55 58.95 60.55 58.35 M59.6 56.15 L59.8 55.85 Q61.3 56.35 61.3 58.5 61.7 61.0 58.5 61.15 L57.95 61.0 57.0 60.6 57.3 59.45 56.75 57.2 Q57.0 57.1 56.85 56.65 L57.15 56.5 57.0 56.15 57.2 55.85 58.65 55.7 59.3 55.75 59.35 55.75 59.3 55.8 59.6 56.15 M51.2 60.2 L51.15 59.3 Q51.1 58.4 51.35 57.55 51.9 55.85 53.65 55.85 55.15 55.85 56.05 57.3 56.7 58.4 56.7 59.5 L56.15 60.75 Q55.5 61.7 54.55 61.75 L54.25 61.65 54.2 61.75 Q53.0 61.7 52.9 61.3 L53.0 60.5 52.65 60.45 52.45 60.55 52.45 61.4 52.55 61.55 51.9 61.4 51.75 61.45 51.5 61.15 51.3 60.75 51.45 60.5 51.2 60.2 M55.35 58.05 L54.8 58.1 54.8 59.4 55.4 59.65 Q56.05 59.65 56.05 58.95 55.85 58.05 55.35 58.05" fill="#ffffff" fill-rule="evenodd" stroke="none"/>
      <path d="M67.7 55.75 L67.8 55.8 Q67.8 57.75 67.95 58.8 67.9 59.5 66.3 63.4 L62.7 67.2 60.65 68.95 Q58.7 70.15 55.85 70.15 52.65 70.15 49.25 68.7 44.3 66.55 44.3 62.45 44.3 61.55 45.0 60.55 L45.65 59.55 46.1 59.05 Q47.9 60.55 49.95 60.55 L50.3 60.55 50.7 60.65 50.7 61.0 Q51.1 62.65 52.5 62.65 L52.8 62.45 52.2 61.9 53.2 62.35 53.55 62.35 54.05 62.4 Q55.65 62.4 56.6 61.2 L56.65 61.15 57.05 61.4 Q57.7 61.8 58.95 61.8 60.0 61.8 60.7 61.4 L60.7 61.6 60.75 61.95 61.9 62.05 Q64.6 62.05 66.35 59.3 67.65 57.25 67.65 55.85 L67.65 55.75 67.7 55.75" fill="#9cb9cb" fill-rule="evenodd" stroke="none"/>
      <path d="M52.9 70.5 L53.05 70.55 52.8 73.15 53.0 73.85 52.6 73.75 52.9 70.5 M51.9 76.5 L53.15 76.7 53.1 77.05 52.9 77.5 52.7 77.6 51.8 77.75 51.65 77.8 51.9 76.5" fill="#a800a0" fill-rule="evenodd" stroke="none"/>
    </g>
  </defs>
</svg>
