<?xml version="1.0" encoding="UTF-8" standalone="no"?>
<svg xmlns:ffdec="https://www.free-decompiler.com/flash" xmlns:xlink="http://www.w3.org/1999/xlink" ffdec:objectType="frame" height="500.0px" width="500.0px" xmlns="http://www.w3.org/2000/svg">
  <g transform="matrix(5.0, 0.0, 0.0, 5.0, 0.0, 0.0)">
    <use ffdec:characterId="3" height="42.85" transform="matrix(1.0, 0.0, 0.0, 1.0, 0.0, 0.0)" width="30.85" xlink:href="#shape0"/>
  </g>
  <defs>
    <g id="shape0">
      <path d="M47.1 47.95 Q47.35 47.95 50.25 51.85 L52.75 54.5 53.1 54.15 55.0 51.45 56.8 48.45 57.1 48.5 57.7 56.55 57.85 56.1 57.8 55.95 Q57.8 55.4 58.25 54.2 58.85 52.55 59.75 52.55 61.15 52.55 60.8 53.85 60.8 55.5 59.35 58.35 61.75 59.0 61.3 62.1 61.3 63.15 60.75 63.85 L61.45 64.15 61.5 64.15 Q63.55 64.15 64.85 61.5 L66.2 57.65 66.15 57.55 66.1 57.55 Q65.6 57.55 65.15 56.4 L64.8 55.2 Q64.8 53.55 65.55 53.55 66.45 53.55 66.55 56.35 L66.55 57.1 Q67.45 57.35 67.4 60.95 67.4 64.0 65.6 67.5 63.5 71.5 56.65 72.25 L56.05 74.1 Q55.9 74.95 55.9 75.9 L56.15 76.5 56.85 76.45 57.45 76.5 57.45 76.45 Q57.45 73.8 59.9 73.8 60.3 73.8 60.7 74.8 61.65 73.95 62.85 73.95 64.9 73.95 64.9 77.5 64.9 80.8 61.6 80.8 59.45 80.8 58.95 79.85 L58.6 80.4 Q58.05 81.15 57.3 81.35 L58.35 82.95 58.0 83.2 Q56.85 82.45 55.2 82.45 L55.1 82.7 55.3 84.3 Q55.85 85.35 55.85 86.35 L55.85 86.9 57.9 86.9 59.1 86.7 Q61.45 86.55 61.9 86.05 L64.3 90.1 Q64.3 90.8 60.35 90.8 L52.8 90.7 Q52.95 90.55 51.8 90.35 L51.8 89.7 53.25 87.15 Q53.5 86.75 54.55 86.8 L54.6 86.4 Q54.6 85.7 54.05 85.0 54.1 85.9 53.45 85.9 52.7 85.9 52.7 85.0 L53.3 84.85 53.3 84.3 52.65 83.85 52.1 83.5 Q50.95 84.75 49.85 84.9 49.55 85.65 48.65 86.6 46.95 88.35 44.4 88.35 42.85 88.35 42.0 87.3 L41.75 86.85 38.85 87.8 38.45 87.75 38.35 87.2 37.8 87.55 37.55 87.5 37.45 86.45 Q36.55 86.25 36.55 85.65 36.55 84.75 40.3 77.65 L41.15 75.8 40.65 75.35 40.8 75.55 40.4 75.8 Q39.7 75.8 39.55 75.05 L39.55 74.3 Q39.55 73.35 40.5 70.95 41.45 68.45 42.5 68.05 L42.35 67.95 Q42.35 67.7 42.6 67.7 L43.35 68.05 43.9 68.1 Q42.8 66.65 42.8 65.05 42.8 64.4 42.95 63.9 L42.8 63.7 Q42.45 63.75 42.0 63.1 L41.6 62.3 41.7 62.0 41.45 60.8 41.2 57.9 Q41.2 53.55 43.15 53.55 44.25 53.55 45.3 58.65 45.55 59.9 46.25 61.2 46.35 61.5 47.5 62.15 L47.45 61.8 47.7 60.7 Q47.45 59.2 47.55 55.6 47.55 53.3 46.8 49.9 L46.8 48.05 47.1 47.95 M40.2 74.55 L40.2 74.05 40.15 74.3 40.2 74.55 M38.85 86.15 Q44.1 83.2 45.35 83.2 46.6 83.2 47.3 84.0 L47.45 83.65 47.45 83.45 Q47.55 83.35 47.6 83.35 L48.9 80.35 Q47.75 79.65 47.0 78.55 45.95 77.0 45.95 75.2 45.95 73.4 47.25 71.8 L47.55 72.1 46.55 75.2 Q46.55 76.45 47.55 78.2 48.2 79.35 49.05 79.95 L49.35 79.3 49.8 79.6 49.55 80.25 Q50.35 80.65 51.3 80.65 L55.55 80.7 55.55 80.3 55.75 80.2 56.35 80.35 56.3 80.2 56.55 79.05 56.4 78.25 Q56.45 78.15 56.2 78.15 55.35 79.05 53.3 79.05 50.6 79.05 49.3 77.5 48.45 76.5 48.45 75.5 48.45 73.45 49.4 72.95 L49.75 73.0 49.8 73.25 49.05 75.4 49.3 76.3 Q49.3 75.75 49.85 73.7 L50.3 72.05 Q47.85 71.5 45.85 70.0 L44.25 68.55 43.8 68.6 42.8 68.9 42.35 68.85 Q41.6 69.6 41.1 71.25 L40.25 73.85 40.5 73.8 41.45 75.15 41.85 74.35 41.45 73.7 Q41.45 73.1 42.05 72.0 42.8 70.6 43.75 70.55 L44.25 69.7 44.55 70.1 40.9 77.9 Q38.0 83.55 37.35 85.5 37.95 85.55 38.0 86.0 L38.05 86.6 38.2 86.5 38.05 85.7 38.35 85.55 Q38.65 85.55 38.85 86.15 M39.1 86.95 L39.05 86.9 39.05 86.95 39.1 86.95 M66.55 58.9 Q65.5 64.45 61.9 64.65 L61.55 64.8 60.95 64.45 60.55 64.35 60.6 64.25 60.4 64.15 Q59.55 64.8 57.85 64.8 L56.55 64.65 Q56.0 64.6 55.85 64.35 54.75 65.8 52.85 65.8 L51.0 65.55 Q49.5 65.55 49.2 64.45 L49.2 63.55 Q46.75 63.3 45.6 61.45 L44.25 62.35 44.2 62.4 44.3 62.5 43.4 65.05 Q43.4 68.55 47.8 70.45 50.8 71.75 53.4 71.75 63.15 71.75 65.05 67.05 66.8 62.5 66.8 60.95 L66.55 58.9 M56.55 49.8 Q55.9 52.05 53.25 54.9 L53.15 54.8 53.1 54.9 53.9 55.7 53.55 56.05 Q53.05 56.05 52.4 55.55 L52.35 55.55 52.25 55.45 50.35 53.3 47.4 49.35 Q48.15 53.65 48.15 57.35 L48.1 61.3 48.0 61.35 47.95 61.5 47.9 62.35 48.1 62.45 49.25 62.95 Q49.3 61.95 49.75 60.95 50.75 58.8 53.25 58.8 54.75 58.8 55.6 59.45 55.8 58.4 57.3 58.25 57.1 57.45 57.0 55.2 L56.6 49.85 56.55 49.8 M59.75 53.2 Q59.1 53.2 58.8 54.5 L58.15 56.35 57.8 57.45 57.8 58.2 57.95 58.2 58.8 58.25 Q60.2 54.75 60.2 53.8 60.2 53.2 59.75 53.2 M56.05 59.9 Q56.65 60.7 56.65 62.1 L56.2 63.8 57.3 64.1 57.6 64.15 Q60.7 64.0 60.7 61.95 60.7 58.85 57.85 58.85 56.75 58.85 56.35 59.4 L56.05 59.9 M58.8 61.75 L58.55 62.65 Q58.5 62.8 58.25 62.8 57.8 62.8 57.7 62.4 L57.7 61.95 Q57.7 61.3 58.3 61.3 58.8 61.3 58.8 61.75 M44.75 59.1 Q43.75 54.2 43.15 54.2 42.0 54.2 41.8 56.05 L41.8 57.9 Q41.8 60.2 42.45 62.05 L43.15 63.15 Q43.25 62.75 43.85 62.0 44.65 61.0 45.35 61.0 L44.75 59.1 M49.85 63.55 Q49.9 64.7 50.8 64.9 L51.25 64.45 52.6 65.15 Q56.05 65.15 56.05 62.05 56.05 59.45 52.45 59.45 51.05 59.45 50.3 61.3 49.9 62.15 49.8 63.15 L50.55 63.25 Q50.55 63.55 49.85 63.55 M54.55 62.7 Q54.55 63.3 53.95 63.3 53.2 63.3 53.2 62.65 53.2 61.9 54.0 62.05 L54.5 62.1 54.55 62.7 M50.8 72.2 Q50.7 75.05 49.6 76.8 L49.8 77.1 Q50.8 78.4 52.35 78.4 L53.05 78.4 53.0 78.0 53.0 77.95 52.8 77.25 Q53.25 73.65 53.7 72.4 L53.35 72.4 50.8 72.2 M55.0 78.15 L54.55 77.5 Q54.55 76.75 55.8 76.55 L55.7 76.35 55.6 76.4 Q55.3 76.2 55.3 75.25 55.3 73.3 55.85 72.35 L54.15 72.4 54.15 72.55 53.5 77.35 53.75 77.65 53.6 78.4 55.1 78.2 55.35 78.15 56.35 77.45 Q57.15 77.45 57.15 79.1 L57.0 79.95 57.25 80.0 57.3 80.25 57.1 80.7 Q58.35 80.5 58.55 78.95 58.55 77.8 57.9 77.35 L57.75 77.4 57.6 77.25 56.8 77.1 Q55.35 77.1 55.3 78.05 L55.0 78.15 M60.55 75.85 L60.0 76.65 59.7 76.3 Q59.7 75.8 60.3 75.15 L59.8 74.45 Q58.75 74.45 58.3 75.8 L58.1 76.75 Q59.1 77.3 59.15 79.0 L59.15 79.35 61.05 80.15 Q64.3 80.15 64.3 77.5 64.3 74.6 62.8 74.6 61.55 74.6 60.9 75.4 L60.8 75.8 60.6 75.9 60.6 75.85 60.55 75.85 M54.8 81.25 L55.0 82.05 55.1 81.9 Q56.7 81.9 57.45 82.4 L56.9 81.4 56.7 81.4 55.6 81.3 55.65 81.2 54.8 81.25 M53.3 81.3 L52.95 82.25 53.0 82.3 53.2 82.05 Q53.95 82.05 54.3 82.8 L54.2 81.3 53.3 81.3 M47.4 84.65 L46.65 84.2 46.6 85.45 46.85 85.6 46.9 85.75 46.45 85.85 46.25 85.9 43.05 86.55 Q43.45 87.05 44.25 87.05 47.0 87.05 48.15 85.25 L48.45 84.75 47.75 84.3 47.4 84.65" fill="#000000" fill-rule="evenodd" stroke="none"/>
      <path d="M38.85 86.15 Q38.65 85.55 38.35 85.55 L38.05 85.7 38.2 86.5 38.05 86.6 38.0 86.0 Q37.95 85.55 37.35 85.5 38.0 83.55 40.9 77.9 L44.55 70.1 44.25 69.7 43.75 70.55 Q42.8 70.6 42.05 72.0 41.45 73.1 41.45 73.7 L41.85 74.35 41.45 75.15 40.5 73.8 40.25 73.85 41.1 71.25 Q41.6 69.6 42.35 68.85 L42.8 68.9 43.8 68.6 44.25 68.55 45.85 70.0 Q47.85 71.5 50.3 72.05 L49.85 73.7 Q49.3 75.75 49.3 76.3 L49.05 75.4 49.8 73.25 49.75 73.0 49.4 72.95 Q48.45 73.45 48.45 75.5 48.45 76.5 49.3 77.5 50.6 79.05 53.3 79.05 55.35 79.05 56.2 78.15 56.45 78.15 56.4 78.25 L56.55 79.05 56.3 80.2 56.35 80.35 55.75 80.2 55.55 80.3 55.55 80.7 51.3 80.65 Q50.35 80.65 49.55 80.25 L49.8 79.6 49.35 79.3 49.05 79.95 Q48.2 79.35 47.55 78.2 46.55 76.45 46.55 75.2 L47.55 72.1 47.25 71.8 Q45.95 73.4 45.95 75.2 45.95 77.0 47.0 78.55 47.75 79.65 48.9 80.35 L47.6 83.35 Q47.55 83.35 47.45 83.45 L47.45 83.65 47.3 84.0 Q46.6 83.2 45.35 83.2 44.1 83.2 38.85 86.15 M59.75 53.2 Q60.2 53.2 60.2 53.8 60.2 54.75 58.8 58.25 L57.95 58.2 57.8 58.2 57.8 57.45 58.15 56.35 58.8 54.5 Q59.1 53.2 59.75 53.2 M56.55 49.8 L56.6 49.85 57.0 55.2 Q57.1 57.45 57.3 58.25 55.8 58.4 55.6 59.45 54.75 58.8 53.25 58.8 50.75 58.8 49.75 60.95 49.3 61.95 49.25 62.95 L48.1 62.45 47.9 62.35 47.95 61.5 48.0 61.35 48.1 61.3 48.15 57.35 Q48.15 53.65 47.4 49.35 L50.35 53.3 52.25 55.45 52.35 55.55 52.4 55.55 Q53.05 56.05 53.55 56.05 L53.9 55.7 53.1 54.9 53.15 54.8 53.25 54.9 Q55.9 52.05 56.55 49.8 M44.75 59.1 L45.35 61.0 Q44.65 61.0 43.85 62.0 43.25 62.75 43.15 63.15 L42.45 62.05 Q41.8 60.2 41.8 57.9 L41.8 56.05 Q42.0 54.2 43.15 54.2 43.75 54.2 44.75 59.1 M55.1 78.2 L53.6 78.4 53.75 77.65 53.5 77.35 54.15 72.55 54.15 72.4 55.85 72.35 Q55.3 73.3 55.3 75.25 55.3 76.2 55.6 76.4 L55.7 76.35 55.8 76.55 Q54.55 76.75 54.55 77.5 L55.0 78.15 55.1 78.2 M54.8 81.25 L55.65 81.2 55.6 81.3 56.7 81.4 56.9 81.4 57.45 82.4 Q56.7 81.9 55.1 81.9 L55.0 82.05 54.8 81.25" fill="#ffb600" fill-rule="evenodd" stroke="none"/>
      <path d="M50.8 72.2 L53.35 72.4 53.7 72.4 Q53.25 73.65 52.8 77.25 L53.0 77.95 53.0 78.0 53.05 78.4 52.35 78.4 Q50.8 78.4 49.8 77.1 L49.6 76.8 Q50.7 75.05 50.8 72.2" fill="#a800a0" fill-rule="evenodd" stroke="none"/>
      <path d="M66.55 58.9 L66.8 60.95 Q66.8 62.5 65.05 67.05 63.15 71.75 53.4 71.75 50.8 71.75 47.8 70.45 43.4 68.55 43.4 65.05 L44.3 62.5 44.2 62.4 44.25 62.35 45.6 61.45 Q46.75 63.3 49.2 63.55 L49.2 64.45 Q49.5 65.55 51.0 65.55 L52.85 65.8 Q54.75 65.8 55.85 64.35 56.0 64.6 56.55 64.65 L57.85 64.8 Q59.55 64.8 60.4 64.15 L60.6 64.25 60.55 64.35 60.95 64.45 61.55 64.8 61.9 64.65 Q65.5 64.45 66.55 58.9" fill="#9cb9cb" fill-rule="evenodd" stroke="none"/>
      <path d="M58.8 61.75 Q58.8 61.3 58.3 61.3 57.7 61.3 57.7 61.95 L57.7 62.4 Q57.8 62.8 58.25 62.8 58.5 62.8 58.55 62.65 L58.8 61.75 M56.05 59.9 L56.35 59.4 Q56.75 58.85 57.85 58.85 60.7 58.85 60.7 61.95 60.7 64.0 57.6 64.15 L57.3 64.1 56.2 63.8 56.65 62.1 Q56.65 60.7 56.05 59.9 M54.55 62.7 L54.5 62.1 54.0 62.05 Q53.2 61.9 53.2 62.65 53.2 63.3 53.95 63.3 54.55 63.3 54.55 62.7 M49.85 63.55 Q50.55 63.55 50.55 63.25 L49.8 63.15 Q49.9 62.15 50.3 61.3 51.05 59.45 52.45 59.45 56.05 59.45 56.05 62.05 56.05 65.15 52.6 65.15 L51.25 64.45 50.8 64.9 Q49.9 64.7 49.85 63.55 M55.3 78.05 Q55.35 77.1 56.8 77.1 L57.6 77.25 57.75 77.4 57.9 77.35 Q58.55 77.8 58.55 78.95 58.35 80.5 57.1 80.7 L57.3 80.25 57.25 80.0 57.0 79.95 57.15 79.1 Q57.15 77.45 56.35 77.45 L55.35 78.15 55.3 78.05 M60.55 75.85 L60.6 75.9 60.8 75.8 60.9 75.4 Q61.55 74.6 62.8 74.6 64.3 74.6 64.3 77.5 64.3 80.15 61.05 80.15 L59.15 79.35 59.15 79.0 Q59.1 77.3 58.1 76.75 L58.3 75.8 Q58.75 74.45 59.8 74.45 L60.3 75.15 Q59.7 75.8 59.7 76.3 L60.0 76.65 60.55 75.85" fill="#ffffff" fill-rule="evenodd" stroke="none"/>
    </g>
  </defs>
</svg>
