<?xml version="1.0" encoding="UTF-8" standalone="no"?>
<svg xmlns:ffdec="https://www.free-decompiler.com/flash" xmlns:xlink="http://www.w3.org/1999/xlink" ffdec:objectType="frame" height="500.0px" width="500.0px" xmlns="http://www.w3.org/2000/svg">
  <g transform="matrix(5.0, 0.0, 0.0, 5.0, 0.0, 0.0)">
    <use ffdec:characterId="4" height="41.5" transform="matrix(1.0, 0.0, 0.0, 1.0, 0.0, 0.0)" width="38.7" xlink:href="#shape0"/>
  </g>
  <defs>
    <g id="shape0">
      <path d="M35.8 58.55 L37.6 59.8 41.15 60.9 Q41.4 59.85 42.4 58.8 L42.05 58.65 37.1 57.7 35.8 57.7 35.8 58.55 M35.2 58.1 Q35.2 57.05 36.45 57.05 L45.1 58.65 44.05 55.7 42.9 53.9 Q42.45 53.2 42.45 52.35 L42.5 52.0 42.9 51.95 46.65 52.6 Q50.2 53.35 51.45 54.1 L57.15 49.8 Q57.9 49.8 57.9 52.45 L57.9 56.25 59.05 56.2 Q62.9 56.2 62.55 59.1 62.55 60.6 61.2 61.2 L62.9 62.35 Q64.7 63.65 65.75 63.65 L70.05 63.45 70.05 63.25 Q72.1 61.2 72.9 61.2 73.6 61.2 73.55 61.5 L71.95 63.3 71.95 63.35 72.0 63.35 Q72.55 63.25 73.6 62.45 L73.9 62.75 Q73.9 64.05 70.85 64.15 L68.95 65.85 66.1 67.7 Q61.05 69.55 55.5 69.85 L55.55 70.15 55.25 73.1 55.35 74.45 55.6 75.35 Q56.6 75.55 56.8 77.6 L56.8 77.9 Q57.6 78.2 58.3 79.35 59.05 80.65 59.05 81.45 59.05 82.6 58.05 83.25 L58.1 84.5 58.1 85.45 Q57.85 86.1 56.35 86.1 55.45 86.1 54.7 85.6 L54.1 85.0 54.2 84.6 50.75 85.05 49.65 85.4 50.35 86.4 60.0 86.45 Q60.3 86.45 60.3 86.8 L60.3 88.75 Q60.5 91.05 59.65 91.05 L51.95 90.6 46.1 91.3 45.8 91.25 45.7 91.0 Q45.7 90.5 46.75 88.45 47.9 86.2 48.5 86.2 L48.65 86.25 48.4 85.75 47.95 85.8 Q47.3 85.8 47.2 84.6 L47.2 83.5 Q46.8 84.25 44.85 85.35 42.2 86.8 39.7 86.8 37.65 86.8 37.1 85.7 36.95 85.4 36.95 84.45 36.95 83.65 37.7 82.55 38.35 81.5 39.3 81.2 L39.3 81.15 38.65 80.5 38.3 79.75 Q38.3 79.3 38.65 79.2 L39.35 78.7 Q39.45 77.6 39.8 76.6 L39.7 76.35 42.85 70.05 42.55 70.0 42.45 69.75 Q42.45 69.4 43.05 68.4 L43.5 67.8 43.4 67.7 43.85 67.25 Q44.1 67.0 44.3 66.95 41.05 64.55 41.05 61.6 L41.05 61.4 Q39.35 61.4 37.3 60.3 35.2 59.15 35.2 58.1 M40.35 79.9 L41.7 79.7 Q41.7 78.0 42.9 74.65 44.15 71.1 45.1 70.45 L45.3 70.65 Q45.4 69.75 45.75 69.45 L46.05 69.75 45.8 71.75 Q45.8 73.45 47.6 76.9 49.35 80.25 49.95 80.25 50.5 80.25 50.7 79.3 L49.5 77.8 48.6 76.2 48.4 76.7 48.8 77.35 48.45 77.55 Q47.8 77.55 47.8 76.75 47.8 76.1 48.1 75.0 L48.05 74.8 Q47.55 72.5 47.55 70.05 L47.65 68.8 44.9 67.35 44.7 67.2 44.55 67.4 44.6 67.45 44.65 67.55 43.55 69.25 43.6 69.25 43.65 69.5 40.75 75.75 39.9 79.7 40.35 79.9 M39.3 79.6 L39.3 79.5 39.25 79.55 38.85 79.95 39.9 80.9 40.3 81.1 40.45 81.15 41.1 81.5 Q43.35 81.5 43.65 79.95 L43.7 79.85 43.7 79.45 42.9 78.6 42.5 78.5 42.35 79.05 42.4 79.05 42.75 79.2 42.8 79.35 42.25 80.05 Q41.6 80.55 40.85 80.55 39.3 80.55 39.3 79.6 M39.05 82.4 Q37.55 83.55 37.55 84.45 37.55 86.15 39.05 86.15 41.45 86.15 44.2 84.95 46.7 83.85 46.7 83.15 L45.65 82.2 Q44.6 81.55 44.7 81.2 L44.9 81.05 45.4 81.15 46.15 80.3 45.9 80.1 44.5 80.9 44.2 80.6 44.3 80.4 44.2 80.35 Q43.7 82.15 41.15 82.15 L40.0 81.75 39.05 82.4 M66.95 64.3 Q61.9 64.3 60.65 61.35 L58.9 61.55 Q56.95 61.55 56.45 60.95 56.0 62.55 53.75 62.55 L52.8 62.3 52.25 62.65 Q49.95 62.65 49.55 60.05 L49.25 60.05 47.55 60.0 46.95 59.9 46.8 59.85 44.1 59.3 42.9 58.95 42.3 59.9 41.75 61.0 42.3 61.1 Q42.3 61.3 41.7 61.4 L41.65 61.65 Q41.65 63.95 44.1 66.2 45.65 67.6 47.75 68.4 L47.85 68.2 47.9 68.45 50.45 69.05 Q50.55 68.95 50.6 68.95 L50.75 69.1 53.5 69.25 53.6 69.25 53.75 69.05 53.95 69.25 Q61.4 69.2 65.65 67.1 67.05 66.4 69.85 64.05 L66.95 64.3 M56.95 50.7 Q52.5 54.55 51.55 54.55 L51.45 54.55 51.25 54.55 47.45 53.35 43.15 52.65 Q44.65 54.7 45.5 58.7 L48.7 59.45 49.5 59.55 49.45 58.7 Q49.45 55.2 52.35 55.2 55.25 55.2 56.15 57.1 56.4 56.55 57.4 56.35 57.15 55.85 57.1 54.3 L57.0 50.8 56.95 50.7 M52.75 60.95 L53.1 61.0 Q53.1 61.9 53.5 61.9 55.95 61.9 55.95 59.45 55.95 55.85 51.4 55.85 50.7 55.85 50.3 57.3 50.1 58.0 50.05 58.75 50.05 62.2 52.6 62.05 L52.55 61.05 52.75 60.95 M51.8 59.25 Q51.8 58.5 52.85 58.3 L53.35 58.35 53.4 58.9 Q53.4 59.8 52.5 59.8 L51.8 59.25 M59.25 58.6 L59.3 58.9 58.75 59.9 Q58.45 59.6 58.45 59.25 58.45 58.55 58.9 58.55 L59.25 58.6 M56.45 57.85 L56.55 59.5 56.55 60.4 56.65 60.3 57.05 60.6 Q57.25 60.9 57.95 60.9 62.35 60.9 61.95 59.1 62.1 56.85 59.0 56.85 56.85 56.85 56.7 57.2 56.85 57.6 56.45 57.85 M42.65 78.05 L43.1 78.1 43.2 78.05 Q44.65 78.05 44.3 79.4 L44.3 79.75 44.8 80.05 44.95 79.9 Q45.65 79.45 45.9 79.45 46.8 79.45 46.8 80.15 46.6 81.05 46.2 81.4 L46.3 81.35 46.45 81.35 46.65 81.2 Q47.25 81.2 47.65 81.75 L47.65 81.7 Q47.4 79.6 47.95 78.7 L46.55 76.35 Q45.2 74.0 45.2 71.75 L45.2 71.4 43.45 75.45 42.6 78.05 42.65 78.05 M48.9 72.35 L50.1 69.55 48.05 68.95 Q48.5 71.25 48.55 73.4 L48.9 72.35 M53.9 69.9 L53.1 72.1 52.85 74.5 52.9 74.8 Q52.9 75.9 52.4 77.0 L52.4 77.35 52.5 77.65 55.05 75.55 54.85 74.55 54.75 73.15 55.3 69.85 53.9 69.9 M52.8 71.4 L53.3 69.9 50.75 69.7 48.95 75.15 49.7 76.5 49.95 76.9 50.9 76.7 51.85 76.85 52.3 74.75 52.2 73.9 52.8 71.4 M50.3 81.7 Q50.45 81.7 50.6 81.85 L50.65 82.0 50.35 82.2 51.0 82.6 Q52.05 83.25 54.55 83.25 L55.3 83.2 Q55.4 83.05 55.6 83.05 L55.85 83.15 56.45 83.0 Q56.5 82.45 57.1 82.45 L57.5 82.55 Q58.45 81.95 58.45 81.45 58.45 80.7 57.7 79.65 L56.4 78.5 55.75 78.9 55.45 78.6 55.9 78.25 55.55 78.15 Q55.45 77.7 55.95 77.7 L56.2 77.7 56.2 77.5 Q56.2 76.0 55.3 76.0 L52.65 78.15 52.55 78.15 52.4 78.95 52.4 79.25 52.3 79.3 51.85 80.2 Q51.2 81.3 50.3 81.7 L50.2 81.7 50.3 81.7 M51.65 79.35 L51.85 78.6 51.8 77.6 Q51.45 77.2 50.25 77.35 L50.8 78.2 50.8 77.85 51.0 77.8 51.35 77.85 51.4 78.7 51.4 79.1 51.55 79.3 51.35 79.55 50.95 80.55 51.65 79.35 M54.6 83.9 L54.6 83.95 55.1 83.9 54.6 83.9 M56.75 83.75 L56.25 83.8 56.3 84.0 Q56.3 84.55 55.4 84.55 L55.7 84.8 56.85 84.8 56.85 83.95 56.75 83.75 M48.55 79.9 L48.3 81.0 Q48.3 81.25 49.1 81.25 50.15 81.25 50.85 80.7 L50.1 80.9 Q49.45 80.9 48.2 79.1 L48.3 79.65 48.55 79.9 M48.3 81.85 L48.35 81.85 48.3 81.8 48.3 81.85 M46.0 81.5 L46.05 81.55 46.1 81.45 46.0 81.5 M47.1 82.65 L47.0 82.65 47.1 82.75 47.1 82.65 M47.8 84.45 L47.9 85.1 48.15 85.05 47.8 83.9 47.8 84.45" fill="#000000" fill-rule="evenodd" stroke="none"/>
      <path d="M35.8 58.55 L35.8 57.7 37.1 57.7 42.05 58.65 42.4 58.8 Q41.4 59.85 41.15 60.9 L37.6 59.8 35.8 58.55 M40.35 79.9 L39.9 79.7 40.75 75.75 43.65 69.5 43.6 69.25 43.55 69.25 44.65 67.55 44.6 67.45 44.55 67.4 44.7 67.2 44.9 67.35 47.65 68.8 47.55 70.05 Q47.55 72.5 48.05 74.8 L48.1 75.0 Q47.8 76.1 47.8 76.75 47.8 77.55 48.45 77.55 L48.8 77.35 48.4 76.7 48.6 76.2 49.5 77.8 50.7 79.3 Q50.5 80.25 49.95 80.25 49.35 80.25 47.6 76.9 45.8 73.45 45.8 71.75 L46.05 69.75 45.75 69.45 Q45.4 69.75 45.3 70.65 L45.1 70.45 Q44.15 71.1 42.9 74.65 41.7 78.0 41.7 79.7 L40.35 79.9 M56.95 50.7 L57.0 50.8 57.1 54.3 Q57.15 55.85 57.4 56.35 56.4 56.55 56.15 57.1 55.25 55.2 52.35 55.2 49.45 55.2 49.45 58.7 L49.5 59.55 48.7 59.45 45.5 58.7 Q44.65 54.7 43.15 52.65 L47.45 53.35 51.25 54.55 51.45 54.55 51.55 54.55 Q52.5 54.55 56.95 50.7 M42.6 78.05 L43.45 75.45 45.2 71.4 45.2 71.75 Q45.2 74.0 46.55 76.35 L47.95 78.7 Q47.4 79.6 47.65 81.7 L47.65 81.75 Q47.25 81.2 46.65 81.2 L46.45 81.35 46.3 81.35 46.2 81.4 Q46.6 81.05 46.8 80.15 46.8 79.45 45.9 79.45 45.65 79.45 44.95 79.9 L44.8 80.05 44.3 79.75 44.3 79.4 Q44.65 78.05 43.2 78.05 L43.1 78.1 42.65 78.05 42.6 78.05 M53.9 69.9 L55.3 69.85 54.75 73.15 54.85 74.55 55.05 75.55 52.5 77.65 52.4 77.35 52.4 77.0 Q52.9 75.9 52.9 74.8 L52.85 74.5 53.1 72.1 53.9 69.9 M48.9 72.35 L48.55 73.4 Q48.5 71.25 48.05 68.95 L50.1 69.55 48.9 72.35" fill="#ffb600" fill-rule="evenodd" stroke="none"/>
      <path d="M52.8 71.4 L52.2 73.9 52.3 74.75 51.85 76.85 50.9 76.7 49.95 76.9 49.7 76.5 48.95 75.15 50.75 69.7 53.3 69.9 52.8 71.4" fill="#a800a0" fill-rule="evenodd" stroke="none"/>
      <path d="M66.95 64.3 L69.85 64.05 Q67.05 66.4 65.65 67.1 61.4 69.2 53.95 69.25 L53.75 69.05 53.6 69.25 53.5 69.25 50.75 69.1 50.6 68.95 Q50.55 68.95 50.45 69.05 L47.9 68.45 47.85 68.2 47.75 68.4 Q45.65 67.6 44.1 66.2 41.65 63.95 41.65 61.65 L41.7 61.4 Q42.3 61.3 42.3 61.1 L41.75 61.0 42.3 59.9 42.9 58.95 44.1 59.3 46.8 59.85 46.95 59.9 47.55 60.0 49.25 60.05 49.55 60.05 Q49.95 62.65 52.25 62.65 L52.8 62.3 53.75 62.55 Q56.0 62.55 56.45 60.95 56.95 61.55 58.9 61.55 L60.65 61.35 Q61.9 64.3 66.95 64.3" fill="#9cb9cb" fill-rule="evenodd" stroke="none"/>
      <path d="M39.25 79.55 L39.3 79.6 Q39.3 80.55 40.85 80.55 41.6 80.55 42.25 80.05 L42.8 79.35 42.75 79.2 42.4 79.05 42.35 79.05 42.5 78.5 42.9 78.6 43.7 79.45 43.7 79.85 43.65 79.95 Q43.35 81.5 41.1 81.5 L40.45 81.15 40.3 81.1 39.9 80.9 38.85 79.95 39.25 79.55 M39.05 82.4 L40.0 81.75 41.15 82.15 Q43.7 82.15 44.2 80.35 L44.3 80.4 44.2 80.6 44.5 80.9 45.9 80.1 46.15 80.3 45.4 81.15 44.9 81.05 44.7 81.2 Q44.6 81.55 45.65 82.2 L46.7 83.15 Q46.7 83.85 44.2 84.95 41.45 86.15 39.05 86.15 37.55 86.15 37.55 84.45 37.55 83.55 39.05 82.4 M56.45 57.85 Q56.85 57.6 56.7 57.2 56.85 56.85 59.0 56.85 62.1 56.85 61.95 59.1 62.35 60.9 57.95 60.9 57.25 60.9 57.05 60.6 L56.65 60.3 56.55 60.4 56.55 59.5 56.45 57.85 M59.25 58.6 L58.9 58.55 Q58.45 58.55 58.45 59.25 58.45 59.6 58.75 59.9 L59.3 58.9 59.25 58.6 M51.8 59.25 L52.5 59.8 Q53.4 59.8 53.4 58.9 L53.35 58.35 52.85 58.3 Q51.8 58.5 51.8 59.25 M52.75 60.95 L52.55 61.05 52.6 62.05 Q50.05 62.2 50.05 58.75 50.1 58.0 50.3 57.3 50.7 55.85 51.4 55.85 55.95 55.85 55.95 59.45 55.95 61.9 53.5 61.9 53.1 61.9 53.1 61.0 L52.75 60.95 M50.3 81.7 Q51.2 81.3 51.85 80.2 L52.3 79.3 52.4 79.25 52.4 78.95 52.55 78.15 52.65 78.15 55.3 76.0 Q56.2 76.0 56.2 77.5 L56.2 77.7 55.95 77.7 Q55.45 77.7 55.55 78.15 L55.9 78.25 55.45 78.6 55.75 78.9 56.4 78.5 57.7 79.65 Q58.45 80.7 58.45 81.45 58.45 81.95 57.5 82.55 L57.1 82.45 Q56.5 82.45 56.45 83.0 L55.85 83.15 55.6 83.05 Q55.4 83.05 55.3 83.2 L54.55 83.25 Q52.05 83.25 51.0 82.6 L50.35 82.2 50.65 82.0 50.6 81.85 Q50.45 81.7 50.3 81.7 M51.55 79.3 L51.4 79.1 51.4 78.7 51.35 77.85 51.0 77.8 50.8 77.85 50.8 78.2 50.25 77.35 Q51.45 77.2 51.8 77.6 L51.85 78.6 51.65 79.35 51.55 79.3 M48.55 79.9 L48.3 79.65 48.2 79.1 Q49.45 80.9 50.1 80.9 L50.85 80.7 Q50.15 81.25 49.1 81.25 48.3 81.25 48.3 81.0 L48.55 79.9" fill="#ffffff" fill-rule="evenodd" stroke="none"/>
    </g>
  </defs>
</svg>
