<?xml version="1.0" encoding="UTF-8" standalone="no"?>
<svg xmlns:ffdec="https://www.free-decompiler.com/flash" xmlns:xlink="http://www.w3.org/1999/xlink" ffdec:objectType="frame" height="500.0px" width="500.0px" xmlns="http://www.w3.org/2000/svg">
  <g transform="matrix(5.0, 0.0, 0.0, 5.0, 0.0, 0.0)">
    <use ffdec:characterId="5" height="43.45" transform="matrix(1.0, 0.0, 0.0, 1.0, 0.0, 0.0)" width="44.2" xlink:href="#shape0"/>
  </g>
  <defs>
    <g id="shape0">
      <path d="M59.45 47.2 L59.85 47.25 59.9 48.05 Q59.55 50.95 59.0 51.8 L58.9 52.05 58.9 52.55 60.3 52.2 Q62.75 52.2 62.55 55.45 L62.55 55.5 Q63.6 55.6 64.6 57.45 65.55 59.05 65.55 59.7 65.55 60.7 64.6 60.7 63.7 60.7 62.4 59.65 L61.25 58.55 60.85 58.8 61.55 59.4 64.65 61.3 Q67.65 63.3 69.5 64.85 69.65 64.7 69.9 64.7 71.8 64.7 73.4 68.2 L72.8 68.65 70.3 67.35 Q69.25 66.95 69.2 65.95 68.75 66.35 66.05 66.95 L61.6 67.65 56.0 67.2 56.95 69.9 Q57.6 71.05 58.45 71.45 58.6 69.2 59.85 69.2 60.9 69.2 61.5 69.75 61.7 69.4 62.3 69.4 63.3 69.4 64.4 71.4 L64.5 71.05 Q64.8 71.2 64.8 72.05 L64.8 72.25 64.85 72.35 64.8 72.6 Q64.65 76.15 62.4 76.15 L61.6 76.05 61.5 76.05 Q60.4 76.05 60.0 75.05 L60.0 74.85 59.8 74.85 59.2 76.4 58.1 78.95 Q55.85 83.65 55.35 83.65 L52.8 82.7 Q52.8 82.45 54.25 79.85 55.75 77.15 56.5 76.15 L55.8 76.0 Q56.25 75.4 57.05 74.9 L57.0 74.5 56.95 73.9 55.8 73.35 53.8 75.15 53.8 75.25 53.75 75.45 53.7 75.55 53.65 75.55 Q53.6 76.65 52.65 78.1 51.4 80.0 49.35 80.25 L46.9 86.7 53.15 86.75 54.65 86.55 Q55.4 86.55 55.4 87.0 55.4 90.1 54.35 90.55 L50.1 90.65 43.4 90.35 42.8 89.7 44.3 87.7 44.85 86.7 45.7 86.7 47.05 82.55 47.9 80.25 Q45.75 79.95 44.8 77.7 L44.8 77.65 44.7 77.75 Q43.2 79.05 42.85 79.05 41.05 77.6 40.0 77.6 L39.0 77.8 38.65 77.75 38.55 77.5 Q38.55 77.15 39.3 77.0 L39.2 77.0 39.2 76.45 Q40.65 72.75 41.45 71.45 L40.15 72.35 Q38.85 73.25 37.25 74.9 L37.75 76.15 37.55 76.45 Q37.45 77.25 36.35 77.95 L36.2 78.05 37.85 78.7 Q38.3 78.85 38.3 79.5 38.3 81.4 36.2 81.4 L35.0 81.15 34.4 81.95 Q33.4 83.05 32.2 83.05 30.1 83.05 29.45 81.35 29.2 80.7 29.2 79.4 29.2 78.8 29.7 77.7 30.35 76.2 31.3 76.2 L31.8 76.3 31.8 76.2 32.2 75.2 Q32.65 74.5 33.1 74.45 L33.2 74.4 Q33.75 74.05 33.85 74.05 L34.6 74.2 35.9 72.6 Q37.9 70.4 38.45 70.05 L42.0 67.6 Q44.85 65.75 46.15 65.5 L46.35 65.35 44.8 64.15 Q43.3 62.7 43.3 60.15 L43.3 59.5 38.85 62.55 Q37.45 62.55 37.45 61.15 37.45 59.6 39.85 57.45 42.3 55.25 45.5 54.9 44.2 53.95 41.45 50.85 L41.55 50.6 53.8 50.45 54.3 50.1 Q54.45 49.8 55.85 49.1 L59.45 47.2 M59.3 48.0 L56.05 49.7 54.8 50.6 52.85 51.6 42.55 51.2 46.5 54.8 46.85 54.8 Q49.1 54.8 50.15 55.3 50.65 52.95 55.1 52.95 56.45 52.95 57.1 53.9 L57.05 53.75 58.1 52.95 58.25 52.85 58.4 51.7 Q58.6 50.7 58.9 50.5 L59.3 48.45 59.3 48.0 M45.0 55.6 Q42.5 56.1 40.4 57.85 38.05 59.8 38.05 61.05 38.05 61.85 38.7 61.85 L41.35 59.85 43.35 58.45 43.4 58.2 Q43.5 57.85 44.5 56.6 L44.4 56.5 Q44.4 56.2 45.0 55.65 L45.05 55.6 45.0 55.6 M36.3 72.95 L34.65 75.3 34.4 75.65 34.85 76.35 Q35.75 75.0 39.7 71.95 45.35 67.3 47.4 67.3 47.6 67.3 47.75 67.45 L47.8 67.6 42.45 70.8 42.5 70.85 42.55 71.0 39.8 76.95 40.15 76.95 Q40.8 76.95 42.8 78.35 L44.65 77.1 Q46.4 75.8 47.1 75.8 48.25 75.8 49.25 76.55 L49.7 76.75 Q50.1 71.4 52.85 67.4 L52.3 67.4 Q49.45 67.4 46.8 65.7 L46.8 65.75 Q46.8 66.2 39.05 70.4 37.05 71.8 36.3 72.95 M37.0 75.45 L36.9 75.2 35.3 76.9 35.3 76.95 35.2 77.0 34.85 77.4 34.55 77.0 Q33.8 76.8 33.8 75.65 33.8 75.05 34.15 74.65 L33.9 74.55 33.35 75.0 32.4 76.25 Q32.4 76.65 32.85 77.3 33.35 78.0 33.9 78.0 36.95 78.0 36.8 75.55 L37.0 75.45 M35.85 78.25 L34.0 78.65 Q32.2 78.65 31.9 77.05 L31.3 76.85 Q30.6 76.85 30.15 78.15 L29.8 79.45 30.05 81.0 Q30.5 82.4 31.55 82.4 34.55 82.4 34.55 80.05 L34.75 79.95 35.1 80.0 35.15 80.6 35.45 80.75 Q37.55 80.75 37.8 80.2 L37.7 79.35 Q35.8 79.35 35.8 78.35 L35.85 78.25 M61.6 58.2 L62.65 59.15 Q63.9 60.2 64.6 60.2 65.2 60.2 65.05 59.65 65.05 58.9 63.6 57.25 L62.55 56.15 Q62.35 57.45 61.6 58.2 M61.05 60.05 L60.9 59.9 60.3 59.5 60.3 59.2 60.2 59.05 58.2 59.3 Q57.4 59.3 57.15 58.8 L57.15 58.65 56.7 58.5 Q55.75 59.4 53.85 59.4 51.15 59.4 50.35 57.8 50.05 57.2 50.05 56.0 L50.05 55.9 Q49.4 55.45 46.8 55.45 L46.55 55.45 45.4 55.95 45.25 56.2 45.3 56.25 44.6 57.6 44.5 57.85 44.75 57.8 45.0 57.85 45.15 58.05 44.1 58.95 43.9 60.15 Q43.9 63.05 46.85 65.05 L46.95 65.15 Q49.35 66.75 51.3 66.75 L55.35 66.55 61.6 67.0 Q65.3 67.0 68.85 65.45 L69.25 65.5 61.15 60.05 61.05 60.05 M62.5 69.9 L62.3 70.1 62.75 70.3 62.5 69.9 M60.85 71.75 L60.65 72.3 60.4 73.9 60.5 74.6 61.15 74.55 Q61.15 74.85 60.65 74.9 L61.35 75.35 61.55 75.3 61.75 75.35 62.25 74.8 62.6 74.85 62.65 75.05 62.6 75.5 Q63.9 75.4 64.05 73.75 L64.2 72.3 63.9 71.9 63.9 72.25 63.6 72.4 Q63.3 70.7 61.75 70.7 61.25 70.7 60.9 71.55 L60.85 71.75 M57.15 54.0 Q57.55 54.7 57.55 55.9 57.55 57.35 56.95 58.2 L57.2 58.25 57.25 58.2 Q57.85 58.2 58.2 58.6 L58.3 58.6 Q61.95 58.55 61.95 55.35 61.95 52.85 60.2 52.85 L57.4 54.05 57.15 54.0 M58.85 55.5 L58.9 55.75 58.75 56.5 58.45 56.55 58.05 56.5 58.05 55.95 58.55 55.45 58.85 55.5 M51.65 54.45 Q50.65 55.3 50.65 56.05 50.65 58.75 53.2 58.75 56.95 58.75 56.95 55.9 56.95 55.25 56.45 54.45 55.75 53.3 54.55 53.6 52.85 53.35 51.65 54.45 M53.15 56.9 L52.8 56.85 52.8 56.1 Q53.05 55.85 53.25 55.8 L53.55 56.35 53.5 56.85 53.15 56.9 M55.75 67.25 L56.0 67.2 55.65 67.2 54.8 70.15 55.15 70.85 55.25 70.8 55.7 71.6 56.75 71.35 56.95 71.35 Q56.3 70.85 55.95 69.9 L55.7 67.7 55.75 67.25 M53.5 67.35 L51.05 72.55 50.1 76.9 50.95 76.75 Q51.05 76.05 52.8 73.95 L53.35 73.35 Q53.55 68.95 54.95 67.25 L53.5 67.35 M54.15 72.55 L55.0 71.95 54.95 71.6 54.6 70.75 54.3 71.45 54.15 72.55 M59.15 70.85 L59.05 71.6 60.2 71.55 Q60.45 70.7 61.0 70.35 60.05 69.85 59.85 69.85 59.35 69.85 59.15 70.85 M56.9 73.15 L56.85 72.65 Q56.7 72.7 56.5 72.85 L56.9 73.15 M59.05 72.05 L59.25 73.3 59.75 73.2 59.85 73.25 60.05 72.05 59.35 72.05 59.05 72.05 M58.55 73.4 L58.45 72.0 57.85 71.85 Q58.25 72.35 58.35 73.4 L58.55 73.4 M58.35 74.15 L58.55 74.05 58.35 74.05 58.35 74.15 M59.1 74.7 L59.15 74.7 59.15 74.65 59.1 74.7" fill="#000000" fill-rule="evenodd" stroke="none"/>
      <path d="M45.0 55.65 Q44.4 56.2 44.4 56.5 L44.5 56.6 Q43.5 57.85 43.4 58.2 L43.35 58.45 41.35 59.85 38.7 61.85 Q38.05 61.85 38.05 61.05 38.05 59.8 40.4 57.85 42.5 56.1 45.0 55.6 L45.0 55.65 M59.3 48.0 L59.3 48.45 58.9 50.5 Q58.6 50.7 58.4 51.7 L58.25 52.85 58.1 52.95 57.05 53.75 57.1 53.9 Q56.45 52.95 55.1 52.95 50.65 52.95 50.15 55.3 49.1 54.8 46.85 54.8 L46.5 54.8 42.55 51.2 52.85 51.6 54.8 50.6 56.05 49.7 59.3 48.0 M36.3 72.95 Q37.05 71.8 39.05 70.4 46.8 66.2 46.8 65.75 L46.8 65.7 Q49.45 67.4 52.3 67.4 L52.85 67.4 Q50.1 71.4 49.7 76.75 L49.25 76.55 Q48.25 75.8 47.1 75.8 46.4 75.8 44.65 77.1 L42.8 78.35 Q40.8 76.95 40.15 76.95 L39.8 76.95 42.55 71.0 42.5 70.85 42.45 70.8 47.8 67.6 47.75 67.45 Q47.6 67.3 47.4 67.3 45.35 67.3 39.7 71.95 35.75 75.0 34.85 76.35 L34.4 75.65 34.65 75.3 36.3 72.95 M61.6 58.2 Q62.35 57.45 62.55 56.15 L63.6 57.25 Q65.05 58.9 65.05 59.65 65.2 60.2 64.6 60.2 63.9 60.2 62.65 59.15 L61.6 58.2 M55.75 67.25 L55.7 67.7 55.95 69.9 Q56.3 70.85 56.95 71.35 L56.75 71.35 55.7 71.6 55.25 70.8 55.15 70.85 54.8 70.15 55.65 67.2 56.0 67.2 55.75 67.25 M56.9 73.15 L56.5 72.85 Q56.7 72.7 56.85 72.65 L56.9 73.15 M58.55 73.4 L58.35 73.4 Q58.25 72.35 57.85 71.85 L58.45 72.0 58.55 73.4" fill="#ffb600" fill-rule="evenodd" stroke="none"/>
      <path d="M53.5 67.35 L54.95 67.25 Q53.55 68.95 53.35 73.35 L52.8 73.95 Q51.05 76.05 50.95 76.75 L50.1 76.9 51.05 72.55 53.5 67.35" fill="#a800a0" fill-rule="evenodd" stroke="none"/>
      <path d="M61.05 60.05 L61.15 60.05 69.25 65.5 68.85 65.45 Q65.3 67.0 61.6 67.0 L55.35 66.55 51.3 66.75 Q49.35 66.75 46.95 65.15 L46.85 65.05 Q43.9 63.05 43.9 60.15 L44.1 58.95 45.15 58.05 45.0 57.85 44.75 57.8 44.5 57.85 44.6 57.6 45.3 56.25 45.25 56.2 45.4 55.95 46.55 55.45 46.8 55.45 Q49.4 55.45 50.05 55.9 L50.05 56.0 Q50.05 57.2 50.35 57.8 51.15 59.4 53.85 59.4 55.75 59.4 56.7 58.5 L57.15 58.65 57.15 58.8 Q57.4 59.3 58.2 59.3 L60.2 59.05 60.3 59.2 60.3 59.5 60.9 59.9 61.05 60.05" fill="#9cb9cb" fill-rule="evenodd" stroke="none"/>
      <path d="M35.85 78.25 L35.8 78.35 Q35.8 79.35 37.7 79.35 L37.8 80.2 Q37.55 80.75 35.45 80.75 L35.15 80.6 35.1 80.0 34.75 79.95 34.55 80.05 Q34.55 82.4 31.55 82.4 30.5 82.4 30.05 81.0 L29.8 79.45 30.15 78.15 Q30.6 76.85 31.3 76.85 L31.9 77.05 Q32.2 78.65 34.0 78.65 L35.85 78.25 M37.0 75.45 L36.8 75.55 Q36.95 78.0 33.9 78.0 33.35 78.0 32.85 77.3 32.4 76.65 32.4 76.25 L33.35 75.0 33.9 74.55 34.15 74.65 Q33.8 75.05 33.8 75.65 33.8 76.8 34.55 77.0 L34.85 77.4 35.2 77.0 35.3 76.95 35.3 76.9 36.9 75.2 37.0 75.45 M53.15 56.9 L53.5 56.85 53.55 56.35 53.25 55.8 Q53.05 55.85 52.8 56.1 L52.8 56.85 53.15 56.9 M51.65 54.45 Q52.85 53.35 54.55 53.6 55.75 53.3 56.45 54.45 56.95 55.25 56.95 55.9 56.95 58.75 53.2 58.75 50.65 58.75 50.65 56.05 50.65 55.3 51.65 54.45 M58.85 55.5 L58.55 55.45 58.05 55.95 58.05 56.5 58.45 56.55 58.75 56.5 58.9 55.75 58.85 55.5 M57.15 54.0 L57.4 54.05 60.2 52.85 Q61.95 52.85 61.95 55.35 61.95 58.55 58.3 58.6 L58.2 58.6 Q57.85 58.2 57.25 58.2 L57.2 58.25 56.95 58.2 Q57.55 57.35 57.55 55.9 57.55 54.7 57.15 54.0 M60.85 71.75 L60.9 71.55 Q61.25 70.7 61.75 70.7 63.3 70.7 63.6 72.4 L63.9 72.25 63.9 71.9 64.2 72.3 64.05 73.75 Q63.9 75.4 62.6 75.5 L62.65 75.05 62.6 74.85 62.25 74.8 61.75 75.35 61.55 75.3 61.35 75.35 60.65 74.9 Q61.15 74.85 61.15 74.55 L60.5 74.6 60.4 73.9 60.65 72.3 60.85 71.75 M59.15 70.85 Q59.35 69.85 59.85 69.85 60.05 69.85 61.0 70.35 60.45 70.7 60.2 71.55 L59.05 71.6 59.15 70.85" fill="#ffffff" fill-rule="evenodd" stroke="none"/>
    </g>
  </defs>
</svg>
