<?xml version="1.0" encoding="UTF-8" standalone="no"?>
<svg xmlns:ffdec="https://www.free-decompiler.com/flash" xmlns:xlink="http://www.w3.org/1999/xlink" ffdec:objectType="frame" height="500.0px" width="500.0px" xmlns="http://www.w3.org/2000/svg">
  <g transform="matrix(5.0, 0.0, 0.0, 5.0, 0.0, 0.0)">
    <use ffdec:characterId="6" height="42.7" transform="matrix(1.0, 0.0, 0.0, 1.0, 0.0, 0.0)" width="48.3" xlink:href="#shape0"/>
  </g>
  <defs>
    <g id="shape0">
      <path d="M60.15 48.75 Q60.15 50.0 59.4 51.05 L59.35 51.85 59.85 51.8 Q63.15 51.8 63.65 55.0 63.65 55.95 62.95 56.95 L61.85 58.0 64.2 58.0 Q68.3 58.0 69.65 57.25 L70.3 56.9 70.35 56.85 Q70.65 55.15 74.55 53.95 L75.0 54.0 75.05 54.3 73.7 55.95 Q73.05 56.4 72.9 56.8 L72.05 56.9 70.65 57.55 70.55 57.55 Q70.2 58.4 68.65 59.8 L64.85 62.55 Q59.8 65.05 56.3 65.85 58.85 68.4 60.7 68.4 L64.4 68.35 64.45 68.2 Q64.85 66.95 65.65 66.95 66.2 66.95 66.65 67.3 67.05 66.55 67.85 66.55 69.15 66.55 70.05 67.65 L70.25 67.9 70.3 67.95 70.3 68.0 70.65 70.1 Q70.65 71.25 69.6 72.45 68.65 73.55 67.95 73.55 L67.45 73.4 68.1 72.8 Q66.6 72.65 66.3 71.45 L66.3 71.15 66.15 71.15 Q64.6 71.15 64.25 70.45 L61.45 70.55 Q56.45 70.55 55.7 68.85 L55.5 69.6 Q54.8 72.45 54.8 75.4 L54.85 76.05 55.95 75.5 Q58.1 74.55 59.15 74.55 L60.05 74.6 60.35 74.2 Q60.6 74.3 60.6 74.75 L61.1 74.95 Q67.8 75.05 67.8 80.45 67.8 81.55 67.25 81.55 63.3 78.1 61.7 78.1 60.6 79.05 59.9 79.05 L59.45 79.0 59.45 77.6 59.55 76.4 55.7 77.7 55.3 77.95 55.9 78.9 55.85 79.25 55.55 79.3 54.0 78.8 52.9 79.3 52.6 79.25 Q51.55 81.15 47.75 81.15 L45.55 80.9 Q44.4 82.1 38.05 86.4 L37.4 86.85 37.15 87.1 38.85 87.05 41.6 87.2 41.65 87.35 41.65 87.7 41.3 89.55 40.95 90.3 33.2 90.65 32.8 90.6 32.8 89.2 Q36.7 82.7 38.1 82.7 38.55 82.7 39.2 83.45 L40.7 82.3 Q43.5 79.95 44.1 79.95 L44.15 79.95 43.55 79.2 43.55 78.65 42.25 79.55 Q41.9 79.55 40.2 77.65 40.2 76.95 41.25 74.55 L42.6 71.9 Q43.95 68.8 45.4 67.15 L45.25 67.0 45.8 66.15 45.9 65.75 45.55 65.7 38.85 66.05 Q37.4 66.2 36.1 67.15 L34.8 68.25 Q35.6 68.4 35.55 69.7 L35.1 70.85 Q36.75 71.0 36.65 72.4 36.65 74.4 34.35 74.4 L32.75 73.85 Q31.0 75.3 29.85 75.3 27.55 75.3 26.95 73.9 L26.8 72.4 Q26.7 71.45 27.0 70.55 27.55 68.8 29.4 68.8 L30.45 68.9 30.45 68.75 Q30.45 67.45 31.9 67.45 L32.75 66.55 34.5 65.05 Q37.45 63.2 41.3 63.2 44.45 63.2 46.15 63.8 L46.65 63.45 45.05 62.05 44.75 61.8 44.65 61.8 Q43.65 61.8 43.45 60.45 L43.0 59.9 43.2 58.65 42.25 58.6 40.45 58.8 40.3 58.75 37.5 59.3 Q35.95 59.3 35.95 58.1 35.95 57.3 38.0 55.45 39.5 53.7 44.55 53.7 L46.35 53.75 Q45.45 53.25 41.7 48.7 L42.1 48.45 Q42.85 48.45 46.35 49.8 L49.95 50.1 Q52.3 50.2 53.1 50.7 53.7 50.15 55.3 49.55 L59.85 47.95 Q60.15 48.15 60.15 48.75 M59.5 48.8 Q54.5 51.3 53.2 51.3 L53.1 51.3 52.95 51.3 53.05 51.3 52.8 51.15 48.75 50.9 46.4 50.45 43.7 49.7 43.6 49.7 43.65 49.75 Q45.7 52.65 46.9 53.45 L46.75 53.75 47.25 53.75 48.05 53.85 48.15 53.8 51.55 54.15 52.2 53.55 Q53.8 52.2 54.55 52.2 55.7 52.2 56.4 53.4 L57.4 52.6 Q57.95 52.25 58.55 52.05 L58.8 51.4 58.55 51.15 59.55 48.95 59.5 48.8 M40.15 58.2 L40.6 58.05 40.65 58.05 40.65 58.15 42.25 57.95 43.5 58.0 43.7 56.75 Q44.15 55.8 46.1 54.35 L44.5 54.35 Q39.55 54.35 38.45 55.95 L36.55 58.0 Q36.55 58.65 37.1 58.65 L39.85 58.25 39.85 58.2 40.15 58.2 M28.05 69.85 Q27.75 70.2 27.6 70.7 27.4 71.15 27.4 72.35 27.4 74.65 29.1 74.65 30.85 74.65 31.95 73.7 L33.15 72.7 33.6 72.85 33.65 73.0 33.35 73.35 33.35 73.4 Q33.5 73.75 34.3 73.75 35.55 73.75 36.05 72.45 36.05 72.2 34.25 71.25 L32.95 71.4 Q30.55 71.4 30.45 69.0 L29.95 68.9 Q28.85 68.7 28.05 69.85 M32.65 67.75 L32.05 68.25 32.4 68.6 Q32.5 69.0 32.9 69.0 L33.25 68.95 Q33.4 68.0 35.45 66.8 38.35 65.05 42.7 65.05 L46.4 65.25 46.55 65.5 46.55 65.55 46.65 65.8 46.45 66.4 46.55 66.5 44.1 70.9 Q41.5 75.5 40.85 77.4 L42.1 78.8 43.95 77.45 Q45.15 76.55 46.8 76.55 48.15 76.55 49.15 77.05 L50.1 71.65 Q50.75 68.7 52.0 66.75 L51.9 66.65 52.0 66.0 Q49.65 65.6 47.3 63.95 L47.05 64.2 47.4 64.45 47.1 64.8 Q44.25 63.85 41.4 63.85 37.1 63.85 34.35 66.0 L32.65 67.6 32.65 67.75 M34.35 68.65 L34.05 69.0 34.05 69.1 Q34.05 69.65 32.9 69.65 32.3 69.65 31.85 69.05 L31.5 68.55 31.05 68.8 Q31.05 69.2 31.35 69.85 31.75 70.75 32.45 70.75 34.95 70.75 34.95 69.65 34.5 69.15 34.35 68.65 M38.65 83.95 L38.75 83.85 38.35 83.45 38.35 83.55 38.65 83.95 M36.75 86.95 L36.55 87.15 36.9 87.1 36.75 86.95 M71.35 56.5 L72.4 55.8 72.3 55.8 Q71.85 55.8 71.35 56.45 L71.35 56.5 M62.3 53.5 Q61.35 52.45 59.95 52.45 L59.0 52.6 58.75 52.65 57.65 53.2 56.7 54.05 Q57.15 55.15 57.3 56.9 L57.3 57.35 57.55 57.45 57.6 57.45 59.25 57.85 Q62.95 57.85 63.05 54.95 63.05 54.3 62.3 53.5 M64.2 58.65 L60.6 58.55 60.6 58.45 59.3 58.55 Q57.8 58.55 57.45 58.0 L57.2 57.85 Q56.6 59.9 53.4 59.9 52.7 59.9 52.15 59.1 L51.35 58.05 Q50.45 57.5 50.45 56.25 50.45 55.5 51.1 54.7 L49.9 54.6 49.85 54.8 49.6 54.9 Q49.75 54.7 49.1 54.6 L48.6 54.55 48.15 54.45 46.8 54.4 46.8 54.5 46.05 55.0 Q45.15 55.65 44.55 56.7 44.2 57.25 44.1 58.1 L44.65 58.55 44.6 58.85 44.35 58.9 Q44.4 58.8 44.05 58.7 L44.05 59.1 44.05 59.75 45.05 61.1 Q48.75 65.05 52.7 65.45 L52.8 65.45 52.95 65.5 53.55 65.5 Q58.5 65.5 64.35 62.05 66.55 60.65 69.3 57.9 L64.2 58.65 M67.1 67.7 L67.55 68.3 67.25 68.65 66.95 68.4 66.9 68.5 66.9 69.85 66.9 70.65 67.75 70.6 67.8 70.75 Q67.8 71.05 66.95 71.15 67.15 72.15 68.05 72.15 L68.7 72.1 68.7 71.65 68.9 71.55 69.25 71.6 69.3 71.85 69.45 71.7 Q70.05 71.2 70.05 70.1 L69.6 68.05 Q68.5 67.2 67.75 67.2 67.35 67.2 67.1 67.7 M64.8 69.55 L64.85 69.9 65.05 70.1 65.05 70.15 66.3 70.6 66.3 69.85 66.3 68.85 64.95 69.0 64.8 69.55 M65.75 68.3 L66.1 68.2 66.35 68.25 66.35 68.2 66.4 68.0 65.6 67.6 65.25 68.3 65.75 68.3 M64.25 69.05 L63.2 69.05 Q59.65 69.05 57.55 67.9 L56.15 66.8 55.8 68.3 55.9 68.3 57.05 69.05 Q58.2 69.8 63.9 69.8 L64.2 69.8 64.2 69.6 64.25 69.05 M58.1 54.8 L58.55 55.2 58.55 55.95 58.2 56.05 57.8 56.0 57.8 54.85 58.1 54.8 M52.15 54.45 L52.05 54.75 51.85 54.75 Q51.05 55.8 51.05 56.2 51.05 56.5 53.9 59.25 56.7 59.25 56.7 56.95 56.25 52.85 54.35 52.85 53.3 52.85 52.1 54.4 L52.15 54.45 M52.75 56.9 Q52.2 56.7 52.2 56.0 L53.1 55.2 53.4 55.8 Q53.4 56.35 52.75 56.9 M43.25 58.65 L43.45 58.95 43.45 58.65 43.25 58.65 M52.55 66.6 L50.7 72.35 49.85 76.3 51.8 75.9 51.8 75.85 52.1 75.7 Q52.7 75.15 52.3 74.1 52.25 73.05 53.1 71.45 L55.45 66.7 55.4 66.65 55.85 65.9 53.6 66.15 52.85 66.15 52.5 66.55 52.55 66.6 M53.65 72.05 Q52.9 74.2 52.9 74.85 L52.65 75.9 52.95 76.65 Q53.2 76.2 54.1 76.2 L54.25 76.25 54.2 75.35 Q54.2 73.4 54.75 70.05 L54.85 69.4 53.65 72.05 M52.85 78.4 L52.85 78.55 52.95 78.4 52.85 78.4 M43.5 81.65 L44.9 80.65 44.7 80.5 44.7 80.6 43.5 81.65" fill="#000000" fill-rule="evenodd" stroke="none"/>
      <path d="M40.15 58.2 L39.85 58.2 39.85 58.25 37.1 58.65 Q36.55 58.65 36.55 58.0 L38.45 55.95 Q39.55 54.35 44.5 54.35 L46.1 54.35 Q44.15 55.8 43.7 56.75 L43.5 58.0 42.25 57.95 40.65 58.15 40.65 58.05 40.6 58.05 40.15 58.2 M59.5 48.8 L59.55 48.95 58.55 51.15 58.8 51.4 58.55 52.05 Q57.95 52.25 57.4 52.6 L56.4 53.4 Q55.7 52.2 54.55 52.2 53.8 52.2 52.2 53.55 L51.55 54.15 48.15 53.8 48.05 53.85 47.25 53.75 46.75 53.75 46.9 53.45 Q45.7 52.65 43.65 49.75 L43.6 49.7 43.7 49.7 46.4 50.45 48.75 50.9 52.8 51.15 53.05 51.3 52.95 51.3 53.1 51.3 53.2 51.3 Q54.5 51.3 59.5 48.8 M32.65 67.75 L32.65 67.6 34.35 66.0 Q37.1 63.85 41.4 63.85 44.25 63.85 47.1 64.8 L47.4 64.45 47.05 64.2 47.3 63.95 Q49.65 65.6 52.0 66.0 L51.9 66.65 52.0 66.75 Q50.75 68.7 50.1 71.65 L49.15 77.05 Q48.15 76.55 46.8 76.55 45.15 76.55 43.95 77.45 L42.1 78.8 40.85 77.4 Q41.5 75.5 44.1 70.9 L46.55 66.5 46.45 66.4 46.65 65.8 46.55 65.55 46.55 65.5 46.4 65.25 42.7 65.05 Q38.35 65.05 35.45 66.8 33.4 68.0 33.25 68.95 L32.9 69.0 Q32.5 69.0 32.4 68.6 L32.05 68.25 32.65 67.75 M64.25 69.05 L64.2 69.6 64.2 69.8 63.9 69.8 Q58.2 69.8 57.05 69.05 L55.9 68.3 55.8 68.3 56.15 66.8 57.55 67.9 Q59.65 69.05 63.2 69.05 L64.25 69.05 M53.65 72.05 L54.85 69.4 54.75 70.05 Q54.2 73.4 54.2 75.35 L54.25 76.25 54.1 76.2 Q53.2 76.2 52.95 76.65 L52.65 75.9 52.9 74.85 Q52.9 74.2 53.65 72.05" fill="#ffb600" fill-rule="evenodd" stroke="none"/>
      <path d="M52.55 66.6 L52.5 66.55 52.85 66.15 53.6 66.15 55.85 65.9 55.4 66.65 55.45 66.7 53.1 71.45 Q52.25 73.05 52.3 74.1 52.7 75.15 52.1 75.7 L51.8 75.85 51.8 75.9 49.85 76.3 50.7 72.35 52.55 66.6" fill="#a800a0" fill-rule="evenodd" stroke="none"/>
      <path d="M64.2 58.65 L69.3 57.9 Q66.55 60.65 64.35 62.05 58.5 65.5 53.55 65.5 L52.95 65.5 52.8 65.45 52.7 65.45 Q48.75 65.05 45.05 61.1 L44.05 59.75 44.05 59.1 44.05 58.7 Q44.4 58.8 44.35 58.9 L44.6 58.85 44.65 58.55 44.1 58.1 Q44.2 57.25 44.55 56.7 45.15 55.65 46.05 55.0 L46.8 54.5 46.8 54.4 48.15 54.45 48.6 54.55 49.1 54.6 Q49.75 54.7 49.6 54.9 L49.85 54.8 49.9 54.6 51.1 54.7 Q50.45 55.5 50.45 56.25 50.45 57.5 51.35 58.05 L52.15 59.1 Q52.7 59.9 53.4 59.9 56.6 59.9 57.2 57.85 L57.45 58.0 Q57.8 58.55 59.3 58.55 L60.6 58.45 60.6 58.55 64.2 58.65" fill="#9cb9cb" fill-rule="evenodd" stroke="none"/>
      <path d="M28.05 69.85 Q28.85 68.7 29.95 68.9 L30.45 69.0 Q30.55 71.4 32.95 71.4 L34.25 71.25 Q36.05 72.2 36.05 72.45 35.55 73.75 34.3 73.75 33.5 73.75 33.35 73.4 L33.35 73.35 33.65 73.0 33.6 72.85 33.15 72.7 31.95 73.7 Q30.85 74.65 29.1 74.65 27.4 74.65 27.4 72.35 27.4 71.15 27.6 70.7 27.75 70.2 28.05 69.85 M34.35 68.65 Q34.5 69.15 34.95 69.65 34.95 70.75 32.45 70.75 31.75 70.75 31.35 69.85 31.05 69.2 31.05 68.8 L31.5 68.55 31.85 69.05 Q32.3 69.65 32.9 69.65 34.05 69.65 34.05 69.1 L34.05 69.0 34.35 68.65 M62.3 53.5 Q63.05 54.3 63.05 54.95 62.95 57.85 59.25 57.85 L57.6 57.45 57.55 57.45 57.3 57.35 57.3 56.9 Q57.15 55.15 56.7 54.05 L57.65 53.2 58.75 52.65 59.0 52.6 59.95 52.45 Q61.35 52.45 62.3 53.5 M65.75 68.3 L65.25 68.3 65.6 67.6 66.4 68.0 66.35 68.2 66.35 68.25 66.1 68.2 65.75 68.3 M64.8 69.55 L64.95 69.0 66.3 68.85 66.3 69.85 66.3 70.6 65.05 70.15 65.05 70.1 64.85 69.9 64.8 69.55 M67.1 67.7 Q67.35 67.2 67.75 67.2 68.5 67.2 69.6 68.05 L70.05 70.1 Q70.05 71.2 69.45 71.7 L69.3 71.85 69.25 71.6 68.9 71.55 68.7 71.65 68.7 72.1 68.05 72.15 Q67.15 72.15 66.95 71.15 67.8 71.05 67.8 70.75 L67.75 70.6 66.9 70.65 66.9 69.85 66.9 68.5 66.95 68.4 67.25 68.65 67.55 68.3 67.1 67.7 M52.75 56.9 Q53.4 56.35 53.4 55.8 L53.1 55.2 52.2 56.0 Q52.2 56.7 52.75 56.9 M52.15 54.45 L52.1 54.4 Q53.3 52.85 54.35 52.85 56.25 52.85 56.7 56.95 56.7 59.25 53.9 59.25 51.05 56.5 51.05 56.2 51.05 55.8 51.85 54.75 L52.05 54.75 52.15 54.45 M58.1 54.8 L57.8 54.85 57.8 56.0 58.2 56.05 58.55 55.95 58.55 55.2 58.1 54.8" fill="#ffffff" fill-rule="evenodd" stroke="none"/>
    </g>
  </defs>
</svg>
