<?xml version="1.0" encoding="UTF-8" standalone="no"?>
<svg xmlns:ffdec="https://www.free-decompiler.com/flash" xmlns:xlink="http://www.w3.org/1999/xlink" ffdec:objectType="frame" height="500.0px" width="500.0px" xmlns="http://www.w3.org/2000/svg">
  <g transform="matrix(5.0, 0.0, 0.0, 5.0, 0.0, 0.0)">
    <use ffdec:characterId="7" height="42.45" transform="matrix(1.0, 0.0, 0.0, 1.0, 0.0, 0.0)" width="48.1" xlink:href="#shape0"/>
  </g>
  <defs>
    <g id="shape0">
      <path d="M35.7 61.6 L36.0 61.45 Q36.5 61.45 36.4 62.7 L36.15 63.8 36.6 63.8 Q39.5 63.8 38.8 65.35 38.8 67.15 37.4 67.15 L36.7 67.1 Q36.2 68.4 33.6 68.4 29.7 68.4 29.7 64.4 29.7 63.1 30.65 62.75 L30.9 62.5 Q31.45 62.05 31.9 62.05 L32.1 62.1 31.95 61.05 Q31.95 59.7 32.9 59.7 L33.6 59.75 Q33.65 59.25 33.85 59.2 L34.05 59.6 34.1 59.55 34.05 59.5 Q34.05 58.05 36.1 58.05 38.0 58.05 46.3 63.85 L45.0 62.35 Q43.15 59.75 43.05 57.3 41.45 57.2 40.0 54.7 38.8 52.6 38.8 51.9 38.8 49.7 41.15 49.7 43.1 49.7 46.25 53.4 L46.85 53.95 Q43.2 47.15 43.2 45.35 L43.25 45.0 43.5 44.95 48.6 48.8 Q50.25 49.75 53.65 51.2 54.45 50.75 57.0 49.65 L58.5 48.5 Q59.15 47.7 59.85 47.45 L60.15 47.9 59.7 49.75 59.3 51.0 59.9 50.95 60.05 50.95 59.85 50.7 Q59.85 49.65 61.65 49.65 62.75 49.65 62.7 50.9 L62.4 52.05 Q62.95 53.0 62.65 54.8 L62.35 56.9 Q67.7 55.45 69.95 53.4 69.7 52.7 69.7 51.7 L69.95 50.2 Q70.25 49.85 70.85 49.85 L71.65 49.2 Q72.5 49.2 72.4 50.0 L71.35 52.25 71.1 53.65 71.3 53.9 69.9 57.7 Q69.6 58.8 67.45 61.45 66.05 62.5 64.65 63.35 L67.9 63.2 68.0 63.2 67.8 62.95 68.1 62.55 67.9 62.5 67.8 62.25 Q67.8 61.2 70.3 61.2 71.35 61.2 71.8 61.95 L71.95 60.95 Q72.2 59.95 72.65 59.95 73.15 59.95 73.65 60.6 74.05 60.2 74.55 60.2 75.4 60.2 75.65 60.7 L75.8 61.35 77.05 62.55 77.05 62.8 77.05 62.85 77.15 63.85 76.8 65.3 Q76.35 66.45 75.9 66.5 L75.7 66.65 Q75.05 67.15 74.65 67.15 L74.2 67.15 73.2 67.3 Q72.0 67.3 71.0 66.4 70.2 67.65 69.3 67.65 L68.55 67.4 68.55 67.0 68.5 66.9 68.45 66.5 68.5 66.3 61.1 66.35 59.2 66.55 58.55 66.35 57.05 66.45 57.05 66.5 56.55 70.3 Q56.55 72.95 58.4 78.85 L58.35 79.25 58.0 79.3 56.1 77.95 56.05 78.3 55.75 78.4 55.65 78.35 55.35 78.7 54.65 79.6 Q54.3 79.6 53.7 78.55 L53.45 78.2 53.1 79.3 55.05 81.65 58.1 83.9 Q60.05 82.2 60.8 80.05 60.55 78.35 60.8 77.65 61.15 76.45 65.1 76.45 L65.5 76.5 65.55 76.85 Q60.95 87.4 60.55 87.4 L59.05 86.1 Q57.85 85.3 57.8 84.95 L57.85 84.95 57.8 84.95 Q56.35 84.7 54.1 82.45 L52.15 80.2 Q50.4 81.3 46.75 81.3 L46.65 81.3 Q45.8 82.45 42.75 82.45 41.0 82.45 38.85 81.2 L38.05 80.7 37.9 80.7 Q36.3 80.7 35.55 79.45 34.65 80.05 33.1 81.9 L30.7 84.8 29.05 81.75 Q29.05 81.15 31.2 79.65 L33.65 77.8 34.95 75.8 Q36.25 74.05 36.8 74.05 37.65 74.05 39.6 76.2 41.0 74.25 42.4 71.35 L44.95 66.45 44.8 66.3 45.15 65.65 45.45 65.25 Q39.85 61.1 36.9 61.1 36.3 61.1 35.95 61.35 L35.7 61.6 35.6 61.7 34.85 62.3 Q33.8 62.3 33.6 61.35 L33.55 60.3 32.55 60.35 32.55 61.8 Q33.8 63.65 34.55 63.65 L35.8 63.55 35.7 61.6 M44.05 46.25 Q47.8 53.55 47.8 54.05 L47.75 54.35 47.45 54.4 Q48.7 55.2 50.9 56.1 L50.8 55.65 Q50.8 54.85 51.55 53.45 52.2 52.25 53.05 51.8 49.7 51.05 44.1 46.1 L44.05 46.25 M59.2 48.85 Q56.25 51.05 54.5 51.45 56.0 51.5 56.75 52.75 56.85 52.2 57.7 51.65 58.15 51.35 58.65 51.2 L59.25 48.95 59.2 48.85 M39.4 51.95 Q39.4 53.75 43.1 56.6 43.2 55.35 43.9 54.05 L43.85 54.0 44.3 53.4 44.35 53.3 44.4 53.35 44.4 53.3 45.0 52.95 Q42.1 50.35 41.15 50.35 39.9 50.35 39.55 51.1 39.4 51.4 39.4 51.95 M35.35 61.0 Q35.55 60.45 36.95 60.45 39.95 60.45 47.05 65.8 L46.65 66.15 45.95 65.65 Q45.9 66.55 45.6 66.75 44.7 69.4 39.55 77.2 40.85 78.25 40.65 78.85 L42.5 77.6 Q44.35 76.45 45.95 76.45 48.1 76.45 48.2 77.2 L48.75 75.65 48.2 74.95 Q48.1 74.7 48.6 74.7 L48.9 74.75 49.2 71.45 50.05 66.0 Q48.25 65.4 46.9 64.35 L46.85 64.45 46.65 64.55 42.2 61.65 Q38.0 58.7 36.1 58.7 35.2 58.7 34.85 59.1 L34.1 60.8 Q34.15 61.55 34.8 61.55 L35.35 61.0 M30.3 64.4 Q30.3 67.75 33.65 67.75 35.55 67.75 36.05 66.9 L35.35 66.4 34.95 65.55 35.15 65.45 36.05 65.95 35.8 65.0 36.0 64.8 Q36.9 64.8 36.8 66.4 L36.8 66.5 Q38.65 66.5 38.2 65.35 L38.1 64.6 35.15 64.35 35.1 64.3 34.95 64.3 Q33.1 64.3 32.35 62.75 L32.2 62.35 31.85 62.6 32.0 62.7 32.05 62.85 31.55 63.2 30.35 63.55 30.3 64.4 M37.0 78.85 L37.3 79.0 37.6 78.95 39.45 80.1 Q41.5 81.2 42.7 81.2 L45.0 80.9 43.45 79.8 42.4 78.55 40.65 79.55 Q40.1 79.55 39.95 78.8 39.8 78.05 38.95 78.05 L38.55 78.0 38.55 77.6 37.6 78.1 37.0 78.85 M71.75 49.85 L71.55 49.85 71.1 51.2 71.1 51.35 Q71.8 50.75 71.8 50.05 L71.75 49.85 M72.6 60.65 L72.55 62.6 73.2 61.15 72.6 60.65 M76.15 65.3 L76.65 63.85 76.15 62.8 75.35 61.9 74.55 60.85 Q74.25 60.85 74.0 61.2 L74.4 62.05 74.05 62.3 73.65 61.75 73.15 63.0 72.65 65.15 Q72.65 66.5 74.45 66.5 75.65 66.5 76.1 65.3 L76.15 65.35 76.15 65.3 M70.35 54.15 L70.2 54.0 Q69.65 54.8 66.6 56.05 63.55 57.25 62.15 57.4 61.35 58.8 59.45 58.8 L59.2 58.75 59.1 58.75 57.55 58.25 56.9 58.0 Q56.15 58.95 54.45 59.05 L54.6 59.25 54.25 59.5 Q53.75 59.5 53.75 59.25 L53.45 59.5 52.85 59.15 52.75 59.15 Q51.8 59.15 51.2 57.4 L51.1 56.85 Q49.0 56.5 45.8 53.65 L45.45 53.35 44.85 53.65 44.55 54.05 43.65 57.1 Q43.65 59.55 45.6 62.15 48.4 65.9 53.6 65.9 L55.35 65.8 55.4 65.7 55.75 65.75 Q58.95 65.35 62.5 63.65 66.25 61.9 67.05 60.8 L69.35 57.15 69.75 55.25 Q69.9 54.6 70.35 54.15 M62.2 50.9 Q62.2 50.15 61.95 50.15 60.75 50.15 60.5 50.6 L60.2 50.95 Q61.35 51.0 62.0 51.55 L62.2 50.9 M61.55 57.35 L61.45 57.1 61.9 57.0 Q62.3 56.2 62.05 54.8 62.05 51.6 59.95 51.6 L59.05 51.65 58.95 51.8 58.8 51.7 Q57.3 52.0 57.3 53.3 L57.0 53.4 57.3 55.7 57.25 57.3 57.95 57.4 57.95 57.1 58.25 57.05 Q58.5 57.05 58.7 57.6 L59.35 57.75 Q59.95 57.75 60.1 58.1 61.1 57.95 61.65 57.4 L61.55 57.35 M68.6 62.7 L69.8 63.1 69.8 66.3 69.4 66.4 69.15 66.35 69.15 66.2 68.95 66.25 68.95 66.6 69.05 66.8 69.35 67.0 Q70.25 67.0 71.55 63.05 71.55 61.85 70.2 61.85 69.25 61.85 68.8 62.2 L68.5 62.7 68.6 62.7 M68.45 63.2 L68.65 63.25 68.45 63.2 M68.95 63.5 Q66.15 63.5 62.35 64.9 L62.15 64.7 58.85 65.9 58.9 65.95 65.05 65.7 69.1 65.85 69.15 66.0 69.2 64.65 68.95 63.5 M72.25 63.05 L72.15 63.05 Q72.15 64.0 71.4 65.65 L71.4 65.7 72.0 66.3 72.45 66.4 Q72.05 65.95 72.05 65.25 L72.45 63.05 72.25 63.05 M58.55 54.95 Q58.55 55.9 58.05 55.9 L57.45 55.0 Q57.45 54.6 58.25 54.2 L58.55 54.95 M51.4 55.65 L51.5 56.35 52.05 56.55 51.7 56.9 52.0 57.55 Q52.05 57.45 52.2 57.45 L52.65 58.25 52.85 58.1 52.8 57.85 53.0 57.7 Q53.85 57.7 53.85 58.4 56.7 58.4 56.7 55.7 56.7 52.1 54.3 52.1 53.05 52.1 52.1 53.8 51.4 55.05 51.4 55.65 M53.1 55.0 L53.15 55.8 53.75 55.75 53.9 56.0 52.75 56.8 51.95 55.9 Q51.95 55.05 52.65 54.95 L53.1 55.0 M55.7 66.5 L54.35 71.45 53.55 75.55 53.55 75.65 53.55 76.6 53.55 77.4 53.85 77.75 54.5 78.95 55.45 77.9 Q55.45 77.3 56.0 77.3 56.95 77.3 57.35 78.2 L57.55 78.25 Q55.95 73.5 55.95 70.3 L56.35 66.45 56.25 66.45 55.7 66.5 M50.65 66.35 L49.8 72.25 49.7 75.0 50.15 75.6 51.15 75.85 Q53.25 75.85 53.55 72.95 54.0 68.9 55.05 66.55 L54.1 66.55 50.65 66.15 50.65 66.35" fill="#000000" fill-rule="evenodd" stroke="none"/>
      <path d="M35.35 61.0 L34.8 61.55 Q34.15 61.55 34.1 60.8 L34.85 59.1 Q35.2 58.7 36.1 58.7 38.0 58.7 42.2 61.65 L46.65 64.55 46.85 64.45 46.9 64.35 Q48.25 65.4 50.05 66.0 L49.2 71.45 48.9 74.75 48.6 74.7 Q48.1 74.7 48.2 74.95 L48.75 75.65 48.2 77.2 Q48.1 76.45 45.95 76.45 44.35 76.45 42.5 77.6 L40.65 78.85 Q40.85 78.25 39.55 77.2 44.7 69.4 45.6 66.75 45.9 66.55 45.95 65.65 L46.65 66.15 47.05 65.8 Q39.95 60.45 36.95 60.45 35.55 60.45 35.35 61.0 M39.4 51.95 Q39.4 51.4 39.55 51.1 39.9 50.35 41.15 50.35 42.1 50.35 45.0 52.95 L44.4 53.3 44.4 53.35 44.35 53.3 44.3 53.4 43.85 54.0 43.9 54.05 Q43.2 55.35 43.1 56.6 39.4 53.75 39.4 51.95 M59.2 48.85 L59.25 48.95 58.65 51.2 Q58.15 51.35 57.7 51.65 56.85 52.2 56.75 52.75 56.0 51.5 54.5 51.45 56.25 51.05 59.2 48.85 M44.05 46.25 L44.1 46.1 Q49.7 51.05 53.05 51.8 52.2 52.25 51.55 53.45 50.8 54.85 50.8 55.65 L50.9 56.1 Q48.7 55.2 47.45 54.4 L47.75 54.35 47.8 54.05 Q47.8 53.55 44.05 46.25 M62.2 50.9 L62.0 51.55 Q61.35 51.0 60.2 50.95 L60.5 50.6 Q60.75 50.15 61.95 50.15 62.2 50.15 62.2 50.9 M68.95 63.5 L69.2 64.65 69.15 66.0 69.1 65.85 65.05 65.7 58.9 65.95 58.85 65.9 62.15 64.7 62.35 64.9 Q66.15 63.5 68.95 63.5 M55.7 66.5 L56.25 66.45 56.35 66.45 55.95 70.3 Q55.95 73.5 57.55 78.25 L57.35 78.2 Q56.95 77.3 56.0 77.3 55.45 77.3 55.45 77.9 L54.5 78.95 53.85 77.75 53.55 77.4 53.55 76.6 53.55 75.65 53.55 75.55 54.35 71.45 55.7 66.5" fill="#ffb600" fill-rule="evenodd" stroke="none"/>
      <path d="M50.65 66.35 L50.65 66.15 54.1 66.55 55.05 66.55 Q54.0 68.9 53.55 72.95 53.25 75.85 51.15 75.85 L50.15 75.6 49.7 75.0 49.8 72.25 50.65 66.35" fill="#a800a0" fill-rule="evenodd" stroke="none"/>
      <path d="M35.7 61.6 L35.8 63.55 34.55 63.65 Q33.8 63.65 32.55 61.8 L32.55 60.35 33.55 60.3 33.6 61.35 Q33.8 62.3 34.85 62.3 L35.6 61.7 35.7 61.6 M30.3 64.4 L30.35 63.55 31.55 63.2 32.05 62.85 32.0 62.7 31.85 62.6 32.2 62.35 32.35 62.75 Q33.1 64.3 34.95 64.3 L35.1 64.3 35.15 64.35 38.1 64.6 38.2 65.35 Q38.65 66.5 36.8 66.5 L36.8 66.4 Q36.9 64.8 36.0 64.8 L35.8 65.0 36.05 65.95 35.15 65.45 34.95 65.55 35.35 66.4 36.05 66.9 Q35.55 67.75 33.65 67.75 30.3 67.75 30.3 64.4 M76.1 65.3 Q75.65 66.5 74.45 66.5 72.65 66.5 72.65 65.15 L73.15 63.0 73.65 61.75 74.05 62.3 74.4 62.05 74.0 61.2 Q74.25 60.85 74.55 60.85 L75.35 61.9 76.15 62.8 76.65 63.85 76.15 65.3 76.1 65.3 M72.6 60.65 L73.2 61.15 72.55 62.6 72.6 60.65 M68.6 62.7 L68.5 62.7 68.8 62.2 Q69.25 61.85 70.2 61.85 71.55 61.85 71.55 63.05 70.25 67.0 69.35 67.0 L69.05 66.8 68.95 66.6 68.95 66.25 69.15 66.2 69.15 66.35 69.4 66.4 69.8 66.3 69.8 63.1 68.6 62.7 M61.55 57.35 L61.65 57.4 Q61.1 57.95 60.1 58.1 59.95 57.75 59.35 57.75 L58.7 57.6 Q58.5 57.05 58.25 57.05 L57.95 57.1 57.95 57.4 57.25 57.3 57.3 55.7 57.0 53.4 57.3 53.3 Q57.3 52.0 58.8 51.7 L58.95 51.8 59.05 51.65 59.95 51.6 Q62.05 51.6 62.05 54.8 62.3 56.2 61.9 57.0 L61.45 57.1 61.55 57.35 M53.1 55.0 L52.65 54.95 Q51.95 55.05 51.95 55.9 L52.75 56.8 53.9 56.0 53.75 55.75 53.15 55.8 53.1 55.0 M51.4 55.65 Q51.4 55.05 52.1 53.8 53.05 52.1 54.3 52.1 56.7 52.1 56.7 55.7 56.7 58.4 53.85 58.4 53.85 57.7 53.0 57.7 L52.8 57.85 52.85 58.1 52.65 58.25 52.2 57.45 Q52.05 57.45 52.0 57.55 L51.7 56.9 52.05 56.55 51.5 56.35 51.4 55.65 M58.55 54.95 L58.25 54.2 Q57.45 54.6 57.45 55.0 L58.05 55.9 Q58.55 55.9 58.55 54.95 M72.25 63.05 L72.45 63.05 72.05 65.25 Q72.05 65.95 72.45 66.4 L72.0 66.3 71.4 65.7 71.4 65.65 Q72.15 64.0 72.15 63.05 L72.25 63.05" fill="#ffffff" fill-rule="evenodd" stroke="none"/>
      <path d="M70.35 54.15 Q69.9 54.6 69.75 55.25 L69.35 57.15 67.05 60.8 Q66.25 61.9 62.5 63.65 58.95 65.35 55.75 65.75 L55.4 65.7 55.35 65.8 53.6 65.9 Q48.4 65.9 45.6 62.15 43.65 59.55 43.65 57.1 L44.55 54.05 44.85 53.65 45.45 53.35 45.8 53.65 Q49.0 56.5 51.1 56.85 L51.2 57.4 Q51.8 59.15 52.75 59.15 L52.85 59.15 53.45 59.5 53.75 59.25 Q53.75 59.5 54.25 59.5 L54.6 59.25 54.45 59.05 Q56.15 58.95 56.9 58.0 L57.55 58.25 59.1 58.75 59.2 58.75 59.45 58.8 Q61.35 58.8 62.15 57.4 63.55 57.25 66.6 56.05 69.65 54.8 70.2 54.0 L70.35 54.15" fill="#9cb9cb" fill-rule="evenodd" stroke="none"/>
    </g>
  </defs>
</svg>
