<?xml version="1.0" encoding="UTF-8" standalone="no"?>
<svg xmlns:ffdec="https://www.free-decompiler.com/flash" xmlns:xlink="http://www.w3.org/1999/xlink" ffdec:objectType="frame" height="500.0px" width="500.0px" xmlns="http://www.w3.org/2000/svg">
  <g transform="matrix(5.0, 0.0, 0.0, 5.0, 0.0, 0.0)">
    <use ffdec:characterId="8" height="46.75" transform="matrix(1.0, 0.0, 0.0, 1.0, 0.0, 0.0)" width="38.35" xlink:href="#shape0"/>
  </g>
  <defs>
    <g id="shape0">
      <path d="M50.0 46.8 L51.25 50.05 52.95 52.25 53.0 52.2 Q53.0 51.85 53.5 51.85 L53.6 51.85 Q54.3 50.65 54.85 48.4 55.45 45.6 56.6 44.3 56.9 44.9 56.9 46.75 L56.65 53.25 56.8 54.3 Q57.2 54.0 57.7 53.95 L57.7 53.9 Q57.7 53.5 58.7 51.8 59.85 49.8 60.85 49.8 61.8 49.8 61.55 51.2 61.55 52.65 60.8 54.05 L60.05 55.35 Q60.85 56.9 60.65 60.15 L60.5 61.85 60.65 61.85 60.7 61.85 Q62.7 60.3 64.25 57.0 64.6 56.2 65.0 51.7 64.6 51.35 64.45 50.7 L64.3 49.3 64.35 48.3 65.15 48.2 Q66.0 48.2 66.3 50.95 L66.1 51.95 Q66.4 53.1 66.4 56.0 63.95 69.15 56.3 70.7 L56.15 72.5 Q56.3 74.1 59.05 74.1 61.0 74.1 62.0 73.45 L62.35 73.1 62.8 72.65 63.0 72.35 63.2 72.0 63.25 72.0 63.9 71.2 64.05 70.5 Q64.5 68.95 65.65 68.95 66.9 68.95 67.4 69.85 L68.2 69.7 Q68.6 69.7 69.75 70.8 L70.3 71.35 70.55 71.6 70.4 71.9 70.4 73.4 70.35 75.25 Q69.9 76.65 67.85 76.65 65.9 76.65 65.2 74.85 L65.2 74.0 65.5 73.95 65.55 74.0 65.6 74.1 65.55 73.95 65.55 73.65 65.5 73.65 65.35 73.65 65.15 73.9 64.8 74.25 64.3 74.65 64.25 74.55 62.35 75.65 Q59.65 77.05 58.2 77.05 56.65 77.05 56.15 76.65 L55.85 76.2 55.85 76.5 Q55.95 77.85 57.8 81.1 L57.75 81.35 57.4 81.4 Q56.1 81.4 55.7 80.55 L55.7 81.1 Q55.7 82.25 55.4 82.25 L53.65 81.3 53.2 82.05 53.2 82.1 Q53.95 82.55 55.5 84.75 L57.35 87.6 Q59.2 86.2 62.65 81.7 L66.05 85.15 Q66.05 85.95 61.3 88.1 58.55 91.05 57.9 91.05 L54.55 87.65 54.75 87.45 Q55.2 87.45 55.4 87.85 55.65 88.2 56.05 88.2 L56.55 88.1 Q55.65 87.45 52.45 83.0 51.4 83.9 50.05 83.9 L47.7 83.5 Q47.55 85.2 43.3 85.2 L40.05 84.75 39.15 85.15 38.5 84.5 38.0 84.7 37.1 85.15 37.05 85.1 35.0 85.9 Q34.8 85.9 32.55 81.75 L32.6 81.45 Q34.95 81.15 39.0 79.3 L39.15 79.5 39.85 79.45 41.2 76.75 Q43.0 70.5 44.0 68.9 L42.05 67.25 Q39.7 65.1 38.75 65.1 37.3 65.1 36.95 65.8 37.9 65.95 38.05 67.9 L38.05 68.1 Q38.35 67.7 39.7 67.7 41.15 67.7 41.15 68.85 41.15 69.4 40.55 70.1 L40.4 70.25 Q40.4 74.8 35.95 74.8 32.2 74.8 32.2 71.05 32.2 68.75 33.6 68.5 L33.6 68.45 33.55 67.4 Q33.55 66.0 34.1 65.7 L34.25 65.85 34.8 65.3 34.8 65.15 35.0 65.05 Q35.15 64.25 35.7 63.2 36.75 61.2 38.55 61.2 42.15 61.2 45.1 66.7 45.3 66.5 45.75 66.5 45.2 65.1 45.2 63.25 L45.25 62.25 44.55 61.6 44.25 61.0 44.2 60.75 44.2 60.65 44.2 60.45 Q43.65 59.2 43.45 54.85 43.4 53.85 43.7 52.95 44.25 51.2 45.8 51.2 46.65 51.2 47.45 55.7 47.9 58.15 48.95 59.3 L48.8 58.85 49.8 52.85 49.7 46.85 50.0 46.8 M56.25 45.75 L55.15 49.85 Q54.6 52.55 53.7 52.55 L53.6 52.55 53.45 52.65 54.3 53.2 Q54.3 53.55 53.9 53.55 52.75 53.55 51.55 51.75 50.65 50.4 50.45 49.6 L50.4 49.6 Q50.75 52.7 49.2 59.55 49.75 60.0 50.4 60.15 L50.95 58.4 Q52.0 55.95 54.0 55.95 54.75 55.95 55.25 56.55 55.4 56.1 55.7 55.55 L56.2 54.8 56.05 53.2 56.3 45.8 56.25 45.7 56.25 45.75 M35.7 64.95 L35.7 65.0 35.6 65.75 36.15 66.55 Q35.95 66.0 36.75 65.25 37.6 64.45 38.85 64.45 40.55 64.45 45.15 69.05 L44.85 69.4 44.4 69.2 41.85 76.55 Q40.95 78.95 37.85 84.05 L38.55 83.8 38.6 83.8 39.1 83.6 Q39.1 82.95 39.75 82.95 L40.3 83.15 40.45 83.05 40.75 83.1 40.9 83.3 40.85 83.4 41.1 83.5 43.7 81.95 44.7 81.5 44.55 81.25 44.75 81.05 45.15 81.25 45.65 80.95 48.75 80.85 Q49.05 71.15 50.1 70.4 47.15 69.5 46.0 67.1 L45.45 67.35 45.8 68.1 45.55 68.3 43.1 65.1 Q40.85 61.85 38.4 61.85 36.25 61.85 35.7 64.9 L35.7 64.95 M37.15 67.4 L36.85 67.65 34.8 65.9 34.35 66.4 34.15 67.35 Q34.15 68.75 35.4 68.75 37.45 68.75 37.45 67.8 L37.4 67.35 36.8 66.55 37.15 67.4 M33.55 69.65 Q32.8 70.5 32.8 71.1 32.8 71.7 33.35 72.7 34.1 74.15 35.3 74.15 38.95 74.15 39.55 72.5 L39.75 70.75 38.95 70.9 38.8 70.9 38.9 71.7 38.55 72.05 Q38.2 72.05 37.95 71.15 L37.8 70.2 Q37.8 69.9 38.1 69.8 L38.6 70.35 38.95 70.25 Q39.9 70.25 40.55 68.85 40.55 68.35 39.55 68.35 38.85 68.35 38.25 68.65 L38.0 68.4 Q37.6 69.4 35.35 69.4 L34.05 69.1 33.55 69.65 M39.35 84.35 L39.4 84.35 39.35 84.25 39.35 84.35 M60.8 50.45 Q60.25 50.45 59.3 52.0 58.55 53.15 58.4 54.0 59.05 54.15 59.5 54.6 L59.65 54.35 60.95 51.85 60.95 50.6 60.8 50.45 M64.55 57.8 Q62.15 62.65 60.5 62.65 L60.3 62.55 Q59.6 64.3 57.6 64.3 56.9 64.3 56.6 64.0 L56.55 63.85 55.9 63.5 55.85 63.45 Q55.35 65.3 53.85 65.3 52.45 65.3 52.45 64.15 50.8 63.7 50.45 62.85 50.3 62.55 50.3 61.2 L50.3 60.9 Q48.75 60.85 47.9 59.2 L47.1 59.9 Q46.9 60.65 46.5 60.65 L46.35 60.95 45.95 62.05 45.95 62.2 45.8 63.2 Q45.8 70.25 54.05 70.25 L55.0 70.25 Q55.1 68.95 55.35 68.95 55.85 69.45 55.9 70.1 L56.1 70.05 56.15 70.15 Q61.85 69.25 63.3 63.4 65.75 57.0 65.75 55.95 L65.55 53.7 Q65.35 55.95 64.55 57.8 M64.6 70.8 L64.4 72.05 Q64.4 73.0 65.6 73.4 65.7 70.9 66.85 70.1 66.1 69.6 65.65 69.6 64.95 69.6 64.6 70.8 M64.65 73.5 L64.6 73.5 63.9 72.9 63.8 72.15 63.7 72.3 63.5 72.6 63.4 72.9 61.85 74.05 Q60.2 74.8 59.0 74.8 56.6 74.8 56.0 74.0 L55.8 72.85 55.8 70.8 55.75 70.8 55.55 71.85 55.75 75.3 57.3 76.4 Q62.05 76.4 64.6 73.55 L64.65 73.6 64.75 73.55 64.65 73.5 M66.15 73.95 Q66.15 74.75 66.6 74.75 L67.55 74.45 67.7 73.95 68.15 74.25 Q68.15 75.4 66.9 75.4 66.25 75.4 65.95 75.05 66.3 76.0 67.85 76.0 70.45 76.0 69.8 73.45 L69.6 71.75 68.2 70.35 Q67.15 70.35 66.55 72.1 66.15 73.25 66.15 73.95 M57.8 54.6 Q57.3 54.6 56.9 55.0 L57.15 56.5 57.1 56.7 56.9 56.8 Q56.55 56.8 56.35 55.7 55.95 56.35 55.7 57.4 56.05 58.4 56.05 60.1 L55.95 62.9 56.3 63.2 56.65 63.3 57.55 63.6 Q60.2 63.6 60.05 60.15 60.05 57.55 59.6 56.15 L59.0 57.15 58.7 56.8 Q58.7 56.2 59.15 55.3 58.7 54.75 58.1 54.65 L58.0 54.65 57.95 54.6 57.8 54.6 M51.35 60.25 L51.4 60.5 50.95 60.85 50.9 61.25 Q50.9 62.8 51.8 63.25 L53.05 63.85 Q53.05 64.65 53.75 64.65 54.85 64.65 55.25 63.0 L55.2 62.85 Q55.2 62.65 55.35 62.6 L55.45 60.1 Q55.1 55.8 53.3 56.6 52.35 56.55 51.55 58.55 L51.05 60.2 51.35 60.25 M55.0 59.25 L55.05 60.0 Q55.2 60.9 54.6 60.9 L53.95 60.1 Q53.95 59.5 54.65 59.2 L55.0 59.25 M58.1 59.3 L58.6 58.7 Q59.05 58.7 59.15 59.25 59.15 60.55 58.55 60.55 L57.7 60.0 58.1 59.3 M44.05 54.75 Q44.05 57.45 44.65 59.5 L44.85 60.1 44.85 60.2 44.95 60.4 45.15 60.7 44.95 61.0 45.25 61.5 45.3 61.3 46.6 59.3 46.8 59.5 47.6 58.85 47.7 58.9 Q47.25 57.85 46.95 56.4 46.1 51.85 45.65 51.85 44.7 51.85 44.3 53.3 44.1 54.0 44.05 54.75 M54.15 70.9 L50.65 70.55 49.65 76.15 49.6 77.7 51.05 78.2 51.15 78.3 51.2 78.35 53.2 78.35 53.05 76.2 Q53.05 73.65 54.3 70.9 L54.15 70.9 M54.8 70.9 L54.8 71.0 53.65 76.25 53.9 78.3 53.85 78.55 Q54.15 78.75 54.05 79.55 L53.85 80.75 55.2 81.55 Q55.2 79.9 55.45 79.9 L55.55 79.95 55.55 79.85 55.75 79.7 56.45 79.95 Q54.95 78.25 54.95 71.95 L55.0 70.9 54.8 70.9 M41.9 83.95 Q45.9 83.95 46.85 83.1 L46.3 82.8 45.1 82.0 Q44.0 82.4 42.7 83.2 L41.65 83.85 41.9 83.95 M62.6 82.5 L62.6 82.55 62.65 82.5 62.6 82.5" fill="#000000" fill-rule="evenodd" stroke="none"/>
      <path d="M33.55 69.65 L34.05 69.1 35.35 69.4 Q37.6 69.4 38.0 68.4 L38.25 68.65 Q38.85 68.35 39.55 68.35 40.55 68.35 40.55 68.85 39.9 70.25 38.95 70.25 L38.6 70.35 38.1 69.8 Q37.8 69.9 37.8 70.2 L37.95 71.15 Q38.2 72.05 38.55 72.05 L38.9 71.7 38.8 70.9 38.95 70.9 39.75 70.75 39.55 72.5 Q38.95 74.15 35.3 74.15 34.1 74.15 33.35 72.7 32.8 71.7 32.8 71.1 32.8 70.5 33.55 69.65 M37.15 67.4 L36.8 66.55 37.4 67.35 37.45 67.8 Q37.45 68.75 35.4 68.75 34.15 68.75 34.15 67.35 L34.35 66.4 34.8 65.9 36.85 67.65 37.15 67.4 M64.6 70.8 Q64.95 69.6 65.65 69.6 66.1 69.6 66.85 70.1 65.7 70.9 65.6 73.4 64.4 73.0 64.4 72.05 L64.6 70.8 M58.1 59.3 L57.7 60.0 58.55 60.55 Q59.15 60.55 59.15 59.25 59.05 58.7 58.6 58.7 L58.1 59.3 M55.0 59.25 L54.65 59.2 Q53.95 59.5 53.95 60.1 L54.6 60.9 Q55.2 60.9 55.05 60.0 L55.0 59.25 M51.35 60.25 L51.05 60.2 51.55 58.55 Q52.35 56.55 53.3 56.6 55.1 55.8 55.45 60.1 L55.35 62.6 Q55.2 62.65 55.2 62.85 L55.25 63.0 Q54.85 64.65 53.75 64.65 53.05 64.65 53.05 63.85 L51.8 63.25 Q50.9 62.8 50.9 61.25 L50.95 60.85 51.4 60.5 51.35 60.25 M57.8 54.6 L57.95 54.6 58.0 54.65 58.1 54.65 Q58.7 54.75 59.15 55.3 58.7 56.2 58.7 56.8 L59.0 57.15 59.6 56.15 Q60.05 57.55 60.05 60.15 60.2 63.6 57.55 63.6 L56.65 63.3 56.3 63.2 55.95 62.9 56.05 60.1 Q56.05 58.4 55.7 57.4 55.95 56.35 56.35 55.7 56.55 56.8 56.9 56.8 L57.1 56.7 57.15 56.5 56.9 55.0 Q57.3 54.6 57.8 54.6 M66.15 73.95 Q66.15 73.25 66.55 72.1 67.15 70.35 68.2 70.35 L69.6 71.75 69.8 73.45 Q70.45 76.0 67.85 76.0 66.3 76.0 65.95 75.05 66.25 75.4 66.9 75.4 68.15 75.4 68.15 74.25 L67.7 73.95 67.55 74.45 66.6 74.75 Q66.15 74.75 66.15 73.95" fill="#ffffff" fill-rule="evenodd" stroke="none"/>
      <path d="M35.7 64.95 L35.7 64.9 Q36.25 61.85 38.4 61.85 40.85 61.85 43.1 65.1 L45.55 68.3 45.8 68.1 45.45 67.35 46.0 67.1 Q47.15 69.5 50.1 70.4 49.05 71.15 48.75 80.85 L45.65 80.95 45.15 81.25 44.75 81.05 44.55 81.25 44.7 81.5 43.7 81.95 41.1 83.5 40.85 83.4 40.9 83.3 40.75 83.1 40.45 83.05 40.3 83.15 39.75 82.95 Q39.1 82.95 39.1 83.6 L38.6 83.8 38.55 83.8 37.85 84.05 Q40.95 78.95 41.85 76.55 L44.4 69.2 44.85 69.4 45.15 69.05 Q40.55 64.45 38.85 64.45 37.6 64.45 36.75 65.25 35.95 66.0 36.15 66.55 L35.6 65.75 35.7 65.0 35.7 64.95 M56.25 45.75 L56.25 45.7 56.3 45.8 56.05 53.2 56.2 54.8 55.7 55.55 Q55.4 56.1 55.25 56.55 54.75 55.95 54.0 55.95 52.0 55.95 50.95 58.4 L50.4 60.15 Q49.75 60.0 49.2 59.55 50.75 52.7 50.4 49.6 L50.45 49.6 Q50.65 50.4 51.55 51.75 52.75 53.55 53.9 53.55 54.3 53.55 54.3 53.2 L53.45 52.65 53.6 52.55 53.7 52.55 Q54.6 52.55 55.15 49.85 L56.25 45.75 M60.8 50.45 L60.95 50.6 60.95 51.85 59.65 54.35 59.5 54.6 Q59.05 54.15 58.4 54.0 58.55 53.15 59.3 52.0 60.25 50.45 60.8 50.45 M64.6 73.55 Q62.05 76.4 57.3 76.4 L55.75 75.3 55.55 71.85 55.75 70.8 55.8 70.8 55.8 72.85 56.0 74.0 Q56.6 74.8 59.0 74.8 60.2 74.8 61.85 74.05 L63.4 72.9 63.5 72.6 63.7 72.3 63.8 72.15 63.9 72.9 64.6 73.5 64.65 73.5 64.6 73.55 M44.05 54.75 Q44.1 54.0 44.3 53.3 44.7 51.85 45.65 51.85 46.1 51.85 46.95 56.4 47.25 57.85 47.7 58.9 L47.6 58.85 46.8 59.5 46.6 59.3 45.3 61.3 45.25 61.5 44.95 61.0 45.15 60.7 44.95 60.4 44.85 60.2 44.85 60.1 44.65 59.5 Q44.05 57.45 44.05 54.75 M54.8 70.9 L55.0 70.9 54.95 71.95 Q54.95 78.25 56.45 79.95 L55.75 79.7 55.55 79.85 55.55 79.95 55.45 79.9 Q55.2 79.9 55.2 81.55 L53.85 80.75 54.05 79.55 Q54.15 78.75 53.85 78.55 L53.9 78.3 53.65 76.25 54.8 71.0 54.8 70.9" fill="#ffb600" fill-rule="evenodd" stroke="none"/>
      <path d="M54.15 70.9 L54.3 70.9 Q53.05 73.65 53.05 76.2 L53.2 78.35 51.2 78.35 51.15 78.3 51.05 78.2 49.6 77.7 49.65 76.15 50.65 70.55 54.15 70.9" fill="#a800a0" fill-rule="evenodd" stroke="none"/>
      <path d="M64.55 57.8 Q65.35 55.95 65.55 53.7 L65.75 55.95 Q65.75 57.0 63.3 63.4 61.85 69.25 56.15 70.15 L56.1 70.05 55.9 70.1 Q55.85 69.45 55.35 68.95 55.1 68.95 55.0 70.25 L54.05 70.25 Q45.8 70.25 45.8 63.2 L45.95 62.2 45.95 62.05 46.35 60.95 46.5 60.65 Q46.9 60.65 47.1 59.9 L47.9 59.2 Q48.75 60.85 50.3 60.9 L50.3 61.2 Q50.3 62.55 50.45 62.85 50.8 63.7 52.45 64.15 52.45 65.3 53.85 65.3 55.35 65.3 55.85 63.45 L55.9 63.5 56.55 63.85 56.6 64.0 Q56.9 64.3 57.6 64.3 59.6 64.3 60.3 62.55 L60.5 62.65 Q62.15 62.65 64.55 57.8" fill="#9cb9cb" fill-rule="evenodd" stroke="none"/>
    </g>
  </defs>
</svg>
