<?xml version="1.0" encoding="UTF-8" standalone="no"?>
<svg xmlns:ffdec="https://www.free-decompiler.com/flash" xmlns:xlink="http://www.w3.org/1999/xlink" ffdec:objectType="frame" height="500.0px" width="500.0px" xmlns="http://www.w3.org/2000/svg">
  <g transform="matrix(5.0, 0.0, 0.0, 5.0, 0.0, 0.0)">
    <use ffdec:characterId="9" height="42.6" transform="matrix(1.0, 0.0, 0.0, 1.0, 0.0, 0.0)" width="30.95" xlink:href="#shape0"/>
  </g>
  <defs>
    <g id="shape0">
      <path d="M53.25 54.65 L52.95 54.35 54.65 51.05 55.15 49.25 Q55.45 48.1 56.0 47.8 56.65 49.95 57.15 54.05 L57.45 53.95 57.75 54.05 58.2 53.2 Q59.0 51.8 59.6 51.8 60.5 51.8 60.8 54.2 L60.25 56.35 59.45 58.3 59.3 58.2 59.25 58.35 Q61.15 58.85 61.15 61.95 61.15 63.25 60.45 64.0 64.6 65.45 66.3 58.3 L66.0 57.65 Q64.95 57.3 64.75 56.45 L64.7 55.15 64.7 54.2 Q64.8 53.3 65.25 53.3 66.15 53.3 66.65 56.45 L66.6 57.15 66.8 57.4 67.0 57.3 Q67.9 57.3 67.9 61.3 67.9 64.7 65.85 67.75 63.05 71.55 56.55 72.25 L56.55 72.5 56.25 74.45 56.25 74.5 56.25 74.8 Q56.7 74.3 57.15 74.3 58.1 74.3 58.35 75.5 L58.55 75.45 Q60.2 75.45 61.4 78.0 L61.35 78.3 61.2 78.4 Q59.7 82.65 57.65 82.65 L57.0 82.6 57.15 83.0 57.1 83.2 56.9 83.3 56.5 83.15 56.3 83.15 55.5 82.7 55.15 82.4 55.5 83.35 55.35 83.7 55.55 83.9 Q56.1 84.5 56.1 86.2 L56.1 86.45 60.9 86.3 63.8 86.55 63.85 87.2 64.3 88.05 64.9 89.8 Q64.9 90.25 64.1 90.3 L53.35 90.4 51.2 90.15 51.2 89.6 Q51.85 89.7 52.25 89.1 L52.8 87.95 53.5 86.95 Q53.75 86.7 54.75 86.6 L54.85 86.1 Q54.85 84.55 53.05 83.7 L52.85 83.6 52.8 83.6 51.35 84.8 Q47.9 88.2 45.55 88.2 43.45 88.2 41.9 86.7 L41.1 87.05 38.1 88.4 Q37.6 88.4 37.2 86.65 L37.05 86.6 37.05 86.1 36.95 85.6 37.05 85.55 37.05 85.1 Q37.55 83.25 38.6 82.7 L38.7 82.8 39.15 82.05 39.65 81.25 Q38.35 81.0 37.65 80.15 37.05 79.45 37.05 78.75 L37.15 78.1 36.95 77.9 Q36.95 77.5 37.6 76.5 L37.8 76.2 Q37.3 75.45 37.3 74.9 37.3 74.1 37.75 73.9 L37.75 73.85 37.7 73.6 37.7 72.7 Q37.7 67.7 40.95 67.7 41.9 67.7 43.8 69.1 L45.0 70.05 44.95 69.75 Q44.95 69.4 45.1 69.2 42.8 67.05 42.8 65.1 42.8 64.45 43.25 63.25 L43.0 63.3 Q42.1 63.3 42.05 61.75 L42.2 59.55 42.05 55.65 42.05 54.55 Q42.2 53.55 43.05 53.55 44.15 53.55 44.65 55.55 L45.2 58.45 Q45.8 60.75 47.55 62.1 L47.55 59.35 Q47.95 57.65 47.95 54.05 L47.55 48.9 Q47.55 48.55 47.9 48.55 48.1 48.55 50.1 51.65 52.1 54.75 52.8 54.75 L53.25 54.7 54.45 54.55 54.85 54.6 54.9 54.8 Q54.9 55.4 53.5 55.4 50.2 55.4 48.45 50.1 L48.55 54.0 48.1 62.2 47.9 62.3 48.3 62.55 48.35 62.55 49.15 62.75 49.9 63.1 49.8 62.3 Q49.8 58.45 52.65 58.45 54.6 58.45 55.55 59.6 55.55 58.6 57.0 58.3 56.5 56.75 56.3 54.6 L55.8 50.1 Q54.35 53.65 53.25 54.65 M40.4 71.15 L41.1 74.4 41.35 74.3 42.0 74.35 42.05 74.65 42.4 74.1 Q42.65 72.45 43.25 71.65 L40.6 69.9 40.4 69.95 40.4 71.15 M50.05 73.2 L49.8 73.3 49.45 73.25 49.45 72.4 49.75 71.9 Q47.4 71.2 45.6 69.65 L45.65 70.35 45.6 70.7 45.55 70.75 45.55 70.8 45.5 71.0 45.25 71.15 Q42.45 68.35 40.8 68.35 39.1 68.35 38.55 70.5 38.25 71.55 38.3 72.65 38.3 73.75 38.9 74.1 L38.85 74.35 38.65 74.4 38.9 74.7 39.8 75.25 Q40.55 75.25 40.55 74.8 39.8 72.3 39.8 70.55 39.8 69.2 40.5 69.2 41.8 69.2 44.65 72.05 L44.35 72.4 43.7 71.95 42.7 74.8 42.95 74.6 Q43.75 74.05 44.3 74.05 45.15 74.05 45.15 75.35 45.15 76.55 44.5 77.4 L44.65 78.25 44.65 78.3 Q44.6 81.4 41.05 81.4 L40.3 81.4 38.75 83.65 38.65 83.55 37.65 85.55 37.7 85.8 37.75 85.9 40.9 84.15 Q44.4 82.45 46.45 82.45 L48.25 82.7 48.65 80.4 48.45 80.0 48.7 79.95 50.1 73.2 50.05 72.6 50.05 73.2 M38.05 74.8 L37.9 74.95 38.2 75.65 38.35 75.45 38.65 75.75 38.6 76.15 Q39.1 76.75 39.65 76.75 41.5 76.75 41.55 75.7 L41.55 75.55 41.45 75.45 41.5 75.3 41.45 74.95 41.15 74.9 Q41.1 75.9 39.8 75.9 38.45 75.9 38.35 74.95 L38.05 74.8 M37.85 77.75 L37.9 78.0 37.65 78.8 Q37.65 79.4 38.65 80.1 L40.05 80.75 40.1 80.7 40.15 80.75 Q43.7 80.75 44.1 78.65 L43.3 78.2 42.3 77.4 Q42.2 76.95 42.7 76.95 43.2 76.95 43.75 77.4 L44.55 76.05 44.55 74.75 44.3 74.7 Q43.7 74.7 43.1 75.2 L42.6 75.8 42.45 75.7 42.15 75.75 Q42.15 77.4 39.65 77.4 38.85 77.4 38.3 76.85 L37.8 77.7 37.75 77.75 37.85 77.75 M55.7 64.2 L55.25 64.6 Q53.9 65.8 52.1 65.8 50.4 65.8 49.95 64.1 L49.95 63.8 49.85 63.8 Q48.45 63.8 48.15 63.25 47.15 62.85 46.1 61.4 L45.8 61.0 Q45.75 61.35 45.3 61.45 L44.5 62.4 Q43.4 63.8 43.4 65.05 43.4 66.75 46.0 69.0 47.85 70.6 50.05 71.25 L50.5 70.45 Q50.8 70.5 50.8 70.9 L50.65 71.4 53.5 71.75 53.8 71.75 54.0 71.55 54.2 71.75 59.35 71.05 61.85 70.2 Q63.55 69.65 65.35 67.3 67.3 64.6 67.3 61.3 67.3 60.1 66.9 58.3 66.9 59.5 65.7 61.6 L64.9 63.25 Q63.9 64.55 61.85 64.55 L60.3 64.25 60.35 64.1 Q59.4 64.9 57.4 64.9 56.4 64.9 55.7 64.2 L55.7 64.15 55.7 64.2 M57.65 55.0 L57.35 55.8 57.55 58.25 58.3 58.2 58.8 58.25 59.05 57.9 59.05 57.85 Q60.2 54.85 60.2 54.2 L59.55 52.45 57.75 55.15 57.65 55.0 M57.25 59.05 Q56.55 59.3 55.95 60.05 L55.85 60.0 Q56.4 60.95 56.4 62.55 L55.95 63.85 56.1 63.8 57.55 64.25 Q60.55 64.25 60.55 61.9 60.55 59.25 58.8 58.9 L58.35 59.45 58.1 59.15 58.3 58.85 58.15 58.85 57.45 58.95 57.25 59.05 M59.0 61.35 L59.05 61.95 Q59.05 62.65 57.95 62.65 L57.55 62.6 57.55 61.85 Q57.75 61.3 58.35 61.3 L59.0 61.35 M45.55 60.6 L44.7 58.95 43.25 54.2 42.8 54.2 Q42.65 54.7 42.65 55.6 42.65 57.55 42.8 59.35 42.9 61.6 43.3 63.1 L43.4 62.75 Q44.2 60.7 45.1 60.7 L45.2 60.7 45.5 60.6 45.55 60.6 M53.9 62.05 Q54.45 62.05 54.55 62.65 54.55 63.65 53.75 63.65 53.05 63.65 53.05 63.15 53.05 62.05 53.9 62.05 M54.75 64.05 Q55.8 63.1 55.8 62.5 55.8 59.1 52.15 59.1 51.0 59.1 50.6 60.7 L50.4 62.3 Q50.4 65.05 52.55 65.05 53.6 65.05 54.75 64.05 M50.65 72.45 L50.65 72.95 50.65 73.1 Q50.65 74.75 49.4 78.35 L49.2 80.25 50.65 81.2 50.65 81.25 53.25 80.75 53.3 80.6 Q52.95 78.7 52.95 77.95 52.95 74.85 53.6 73.65 L53.45 73.5 53.55 72.4 50.65 72.1 50.65 72.45 M56.05 82.2 Q55.75 81.3 55.6 79.7 L55.45 76.2 55.45 76.1 55.45 76.0 Q55.45 74.25 55.6 73.25 L55.85 73.2 55.95 72.3 54.3 72.4 54.3 72.55 54.1 73.5 54.15 73.55 53.55 78.05 Q53.55 78.85 54.05 80.65 L54.1 80.45 Q54.4 80.5 54.4 80.9 L53.95 82.2 54.9 82.9 Q54.75 82.75 54.75 82.3 L54.85 81.95 54.8 81.85 Q54.95 81.7 55.1 81.7 L56.0 82.2 56.05 82.25 56.05 82.2 M59.35 81.0 L59.85 80.15 60.8 78.0 Q59.25 76.1 58.5 76.1 L58.45 76.15 58.4 76.85 Q58.4 78.5 57.25 78.85 L57.15 79.7 Q57.15 80.75 58.4 80.75 L59.0 80.55 59.3 80.85 59.0 81.25 58.05 81.4 Q56.55 81.4 56.55 79.8 L56.7 78.9 56.65 78.9 56.4 78.85 56.3 78.6 56.85 78.35 57.05 77.55 57.75 76.0 Q57.6 74.95 57.1 74.95 56.7 74.95 56.4 75.7 L56.05 76.3 56.2 78.65 Q56.4 80.45 56.9 82.15 L57.6 82.0 Q58.4 82.0 59.05 81.35 L59.35 81.0 M42.45 74.75 L42.35 74.85 42.4 75.05 42.45 75.05 42.7 74.8 42.45 74.75 M43.5 86.3 Q44.35 86.95 44.85 86.95 46.7 86.95 48.65 85.55 L47.1 85.4 47.05 85.5 Q47.05 86.05 46.2 86.05 L45.45 86.1 43.5 86.3 M49.15 81.0 L49.2 81.0 49.15 80.95 49.15 81.0" fill="#000000" fill-rule="evenodd" stroke="none"/>
      <path d="M53.25 54.7 L53.25 54.65 Q54.35 53.65 55.8 50.1 L56.3 54.6 Q56.5 56.75 57.0 58.3 55.55 58.6 55.55 59.6 54.6 58.45 52.65 58.45 49.8 58.45 49.8 62.3 L49.9 63.1 49.15 62.75 48.35 62.55 48.3 62.55 47.9 62.3 48.1 62.2 48.55 54.0 48.45 50.1 Q50.2 55.4 53.5 55.4 54.9 55.4 54.9 54.8 L54.85 54.6 54.45 54.55 53.25 54.7 M50.1 73.2 L48.7 79.95 48.45 80.0 48.65 80.4 48.25 82.7 46.45 82.45 Q44.4 82.45 40.9 84.15 L37.75 85.9 37.7 85.8 37.65 85.55 38.65 83.55 38.75 83.65 40.3 81.4 41.05 81.4 Q44.6 81.4 44.65 78.3 L44.65 78.25 44.5 77.4 Q45.15 76.55 45.15 75.35 45.15 74.05 44.3 74.05 43.75 74.05 42.95 74.6 L42.7 74.8 43.7 71.95 44.35 72.4 44.65 72.05 Q41.8 69.2 40.5 69.2 39.8 69.2 39.8 70.55 39.8 72.3 40.55 74.8 40.55 75.25 39.8 75.25 L38.9 74.7 38.65 74.4 38.85 74.35 38.9 74.1 Q38.3 73.75 38.3 72.65 38.25 71.55 38.55 70.5 39.1 68.35 40.8 68.35 42.45 68.35 45.25 71.15 L45.5 71.0 45.55 70.8 45.55 70.75 45.6 70.7 45.65 70.35 45.6 69.65 Q47.4 71.2 49.75 71.9 L49.45 72.4 49.45 73.25 49.8 73.3 50.05 73.2 50.1 73.2 M57.65 55.0 L57.75 55.15 59.55 52.45 60.2 54.2 Q60.2 54.85 59.05 57.85 L59.05 57.9 58.8 58.25 58.3 58.2 57.55 58.25 57.35 55.8 57.65 55.0 M45.5 60.6 L45.2 60.7 45.1 60.7 Q44.2 60.7 43.4 62.75 L43.3 63.1 Q42.9 61.6 42.8 59.35 42.65 57.55 42.65 55.6 42.65 54.7 42.8 54.2 L43.25 54.2 44.7 58.95 45.55 60.6 45.5 60.6 M56.0 82.2 L55.1 81.7 Q54.95 81.7 54.8 81.85 L54.85 81.95 54.75 82.3 Q54.75 82.75 54.9 82.9 L53.95 82.2 54.4 80.9 Q54.4 80.5 54.1 80.45 L54.05 80.65 Q53.55 78.85 53.55 78.05 L54.15 73.55 54.1 73.5 54.3 72.55 54.3 72.4 55.95 72.3 55.85 73.2 55.6 73.25 Q55.45 74.25 55.45 76.0 L55.45 76.1 55.45 76.2 55.6 79.7 Q55.75 81.3 56.05 82.2 L56.0 82.2" fill="#ffb600" fill-rule="evenodd" stroke="none"/>
      <path d="M50.65 72.45 L50.65 72.1 53.55 72.4 53.45 73.5 53.6 73.65 Q52.95 74.85 52.95 77.95 52.95 78.7 53.3 80.6 L53.25 80.75 50.65 81.25 50.65 81.2 49.2 80.25 49.4 78.35 Q50.65 74.75 50.65 73.1 L50.65 72.95 50.65 72.45" fill="#a800a0" fill-rule="evenodd" stroke="none"/>
      <path d="M55.7 64.2 Q56.4 64.9 57.4 64.9 59.4 64.9 60.35 64.1 L60.3 64.25 61.85 64.55 Q63.9 64.55 64.9 63.25 L65.7 61.6 Q66.9 59.5 66.9 58.3 67.3 60.1 67.3 61.3 67.3 64.6 65.35 67.3 63.55 69.65 61.85 70.2 L59.35 71.05 54.2 71.75 54.0 71.55 53.8 71.75 53.5 71.75 50.65 71.4 50.8 70.9 Q50.8 70.5 50.5 70.45 L50.05 71.25 Q47.85 70.6 46.0 69.0 43.4 66.75 43.4 65.05 43.4 63.8 44.5 62.4 L45.3 61.45 Q45.75 61.35 45.8 61.0 L46.1 61.4 Q47.15 62.85 48.15 63.25 48.45 63.8 49.85 63.8 L49.95 63.8 49.95 64.1 Q50.4 65.8 52.1 65.8 53.9 65.8 55.25 64.6 L55.7 64.2" fill="#9cb9cb" fill-rule="evenodd" stroke="none"/>
      <path d="M38.05 74.8 L38.35 74.95 Q38.45 75.9 39.8 75.9 41.1 75.9 41.15 74.9 L41.45 74.95 41.5 75.3 41.45 75.45 41.55 75.55 41.55 75.7 Q41.5 76.75 39.65 76.75 39.1 76.75 38.6 76.15 L38.65 75.75 38.35 75.45 38.2 75.65 37.9 74.95 38.05 74.8 M37.85 77.75 L37.8 77.7 38.3 76.85 Q38.85 77.4 39.65 77.4 42.15 77.4 42.15 75.75 L42.45 75.7 42.6 75.8 43.1 75.2 Q43.7 74.7 44.3 74.7 L44.55 74.75 44.55 76.05 43.75 77.4 Q43.2 76.95 42.7 76.95 42.2 76.95 42.3 77.4 L43.3 78.2 44.1 78.65 Q43.7 80.75 40.15 80.75 L40.1 80.7 40.05 80.75 38.65 80.1 Q37.65 79.4 37.65 78.8 L37.9 78.0 37.85 77.75 M59.0 61.35 L58.35 61.3 Q57.75 61.3 57.55 61.85 L57.55 62.6 57.95 62.65 Q59.05 62.65 59.05 61.95 L59.0 61.35 M57.25 59.05 L57.45 58.95 58.15 58.85 58.3 58.85 58.1 59.15 58.35 59.45 58.8 58.9 Q60.55 59.25 60.55 61.9 60.55 64.25 57.55 64.25 L56.1 63.8 55.95 63.85 56.4 62.55 Q56.4 60.95 55.85 60.0 L55.95 60.05 Q56.55 59.3 57.25 59.05 M54.75 64.05 Q53.6 65.05 52.55 65.05 50.4 65.05 50.4 62.3 L50.6 60.7 Q51.0 59.1 52.15 59.1 55.8 59.1 55.8 62.5 55.8 63.1 54.75 64.05 M53.9 62.05 Q53.05 62.05 53.05 63.15 53.05 63.65 53.75 63.65 54.55 63.65 54.55 62.65 54.45 62.05 53.9 62.05 M59.3 80.85 L59.0 80.55 58.4 80.75 Q57.15 80.75 57.15 79.7 L57.25 78.85 Q58.4 78.5 58.4 76.85 L58.45 76.15 58.5 76.1 Q59.25 76.1 60.8 78.0 L59.85 80.15 59.35 81.0 59.3 80.85 M59.05 81.35 Q58.4 82.0 57.6 82.0 L56.9 82.15 Q56.4 80.45 56.2 78.65 L56.05 76.3 56.4 75.7 Q56.7 74.95 57.1 74.95 57.6 74.95 57.75 76.0 L57.05 77.55 56.85 78.35 56.3 78.6 56.4 78.85 56.65 78.9 56.7 78.9 56.55 79.8 Q56.55 81.4 58.05 81.4 L59.0 81.25 59.05 81.35" fill="#ffffff" fill-rule="evenodd" stroke="none"/>
    </g>
  </defs>
</svg>
