<?xml version="1.0" encoding="UTF-8" standalone="no"?>
<svg xmlns:ffdec="https://www.free-decompiler.com/flash" xmlns:xlink="http://www.w3.org/1999/xlink" ffdec:objectType="frame" height="500.0px" width="500.0px" xmlns="http://www.w3.org/2000/svg">
  <g transform="matrix(5.0, 0.0, 0.0, 5.0, 0.0, 0.0)">
    <use ffdec:characterId="1" height="54.5" transform="matrix(1.0, 0.0, 0.0, 1.0, 0.0, 0.0)" width="28.25" xlink:href="#shape0"/>
  </g>
  <defs>
    <g id="shape0">
      <path d="M49.3 45.95 L51.15 49.95 52.8 54.15 Q53.15 55.45 54.55 58.15 54.55 58.55 53.1 59.2 51.6 59.85 50.5 59.85 49.25 59.85 46.3 58.7 43.65 57.75 43.65 56.95 43.65 56.65 43.95 56.65 L44.25 56.75 Q44.6 56.75 45.55 54.15 L46.3 51.6 Q47.25 48.25 47.25 46.15 L47.05 42.6 Q47.05 42.1 47.4 42.1 47.7 42.1 49.3 45.95 M47.85 46.15 Q47.85 52.25 44.8 57.15 L46.85 58.3 Q48.9 59.25 50.5 59.25 52.95 59.25 53.85 57.95 53.0 56.45 50.9 50.9 L47.75 44.0 47.85 46.15" fill="#000000" fill-rule="evenodd" stroke="none"/>
      <path d="M47.85 46.15 L47.75 44.0 50.9 50.9 Q53.0 56.45 53.85 57.95 52.95 59.25 50.5 59.25 48.9 59.25 46.85 58.3 L44.8 57.15 Q47.85 52.25 47.85 46.15" fill="#ffb600" fill-rule="evenodd" stroke="none"/>
      <path d="M56.6 46.35 Q56.85 46.35 56.85 46.75 56.85 47.8 55.4 50.7 L54.25 53.55 Q55.3 54.3 55.75 55.75 57.3 55.8 60.3 58.8 62.5 61.0 62.5 62.2 62.5 63.2 60.9 63.2 60.3 63.2 59.45 62.65 L59.35 62.65 58.15 61.8 57.2 64.3 55.0 68.7 54.75 69.15 54.8 69.15 54.85 69.3 Q54.85 68.75 55.2 68.75 55.55 68.75 57.25 74.9 57.8 76.35 60.1 80.8 L59.75 81.15 57.65 80.05 57.45 80.65 Q57.45 81.6 58.4 83.0 L58.1 83.3 56.2 82.35 55.8 82.15 56.05 83.15 Q56.05 85.45 54.5 85.45 52.15 85.45 51.5 84.5 L51.55 85.35 51.5 87.25 51.95 87.35 54.05 92.65 55.1 94.7 Q55.75 96.1 54.5 96.2 L54.65 96.1 54.1 96.2 51.85 96.15 49.9 96.0 Q49.7 95.6 49.9 91.7 L49.7 89.55 49.35 87.9 Q49.4 87.8 50.5 87.45 L50.65 85.35 50.55 84.0 48.85 84.5 47.45 84.0 47.1 88.6 Q47.8 88.9 47.85 89.25 47.6 90.5 47.85 92.0 L48.1 95.9 Q48.0 96.3 45.8 96.45 L43.2 96.6 Q42.8 96.5 42.9 96.15 43.0 95.6 43.8 94.35 L44.4 92.3 Q45.35 88.15 45.9 88.25 L46.25 88.35 46.35 85.7 46.65 83.6 46.05 83.2 45.4 83.0 Q45.0 85.85 42.75 85.85 40.9 85.85 40.9 83.85 L40.95 83.65 40.75 83.7 39.25 84.2 Q38.7 84.2 38.7 83.8 L40.0 81.65 39.75 81.6 38.35 81.7 Q37.6 81.7 37.6 81.3 L40.05 78.15 41.3 74.55 42.5 69.05 42.5 68.55 Q42.5 67.85 42.8 67.75 L42.9 67.2 Q42.9 66.8 43.4 66.8 L43.6 66.9 42.8 65.65 Q41.35 63.5 41.0 62.2 L38.5 63.8 Q36.3 65.55 35.4 65.55 34.25 65.55 34.25 64.0 34.25 62.95 34.95 62.25 L37.1 60.5 39.05 58.95 Q41.0 57.55 42.15 57.55 L42.25 57.6 42.3 57.2 42.15 57.2 39.75 54.95 Q36.95 53.1 36.95 52.75 L42.3 52.35 43.6 52.45 Q43.4 51.8 42.05 50.35 L39.55 48.45 Q39.55 48.15 39.9 48.15 40.7 48.15 42.8 50.25 44.05 51.6 44.2 52.45 L47.45 52.8 49.65 51.4 52.05 49.7 54.15 47.95 56.6 46.35 M53.7 49.0 L51.7 50.65 Q48.35 53.4 47.3 53.4 L46.9 53.1 46.6 53.1 44.2 53.0 Q44.1 54.2 43.2 54.2 42.25 54.2 42.25 53.75 42.25 53.45 42.55 53.45 L43.1 53.6 Q43.5 53.6 43.6 53.0 L41.45 52.95 38.4 53.05 38.3 53.1 Q39.85 54.0 40.65 54.95 L42.35 56.75 Q42.75 53.85 45.95 53.85 47.55 53.85 48.55 54.95 48.55 54.25 49.85 53.55 51.3 52.8 53.2 52.9 L52.9 52.9 53.75 53.2 56.0 47.55 53.7 49.0 M37.75 60.75 L35.7 62.4 Q34.85 63.2 34.85 64.05 34.85 64.9 35.45 64.9 L40.9 61.7 40.85 61.4 41.25 60.15 Q41.7 59.1 42.25 59.1 L42.4 59.1 42.25 58.1 39.85 59.2 37.75 60.75 M38.55 81.1 L40.0 80.95 Q40.6 80.95 40.6 81.65 40.6 82.4 39.6 83.55 L41.15 82.8 41.55 81.75 Q42.05 80.65 42.5 80.35 41.9 80.2 41.85 79.55 41.65 79.45 41.65 78.85 41.65 77.85 42.55 77.85 L42.5 76.55 42.5 72.2 42.05 74.05 41.65 75.8 40.9 77.55 Q40.15 79.7 38.55 81.05 L38.55 81.1 M61.9 62.25 Q61.65 60.75 59.5 58.95 L58.0 57.95 Q58.4 58.65 58.4 59.85 L58.25 61.3 Q58.5 61.3 58.95 61.65 L60.9 62.6 61.9 62.25 M53.4 54.0 L53.55 53.7 52.75 53.55 Q51.4 53.55 50.0 54.25 L48.9 55.35 49.0 55.5 Q49.85 56.75 49.85 58.25 L49.6 59.2 49.65 59.6 50.5 60.25 Q51.4 60.75 52.05 60.75 53.55 60.75 54.55 59.55 55.35 58.6 55.35 57.75 55.35 54.8 54.05 53.95 L53.7 54.35 Q53.4 54.35 53.4 54.0 M52.05 61.4 Q50.9 61.4 49.85 60.55 L49.15 59.9 48.7 60.35 Q47.35 61.8 45.8 61.8 43.25 61.8 42.55 59.65 L41.45 61.4 Q41.45 63.0 45.8 69.05 L49.75 75.8 Q49.9 75.55 50.2 75.55 L50.4 75.95 52.2 72.2 54.55 68.2 Q56.15 64.6 56.45 64.15 57.8 62.05 57.8 59.8 L57.75 59.05 57.5 58.35 Q57.3 57.95 56.5 57.8 L55.95 57.6 55.95 57.75 Q55.95 58.7 55.1 59.85 53.95 61.4 52.05 61.4 M51.2 59.75 Q51.2 58.8 51.85 58.8 52.1 58.8 52.1 59.45 52.1 60.2 51.65 60.2 51.2 60.2 51.2 59.75 M55.95 57.1 L56.15 57.05 56.7 57.1 55.9 56.55 55.95 57.1 M44.7 60.9 L45.55 61.2 46.0 61.2 Q46.75 61.25 48.0 60.05 49.25 58.9 49.25 58.25 49.25 57.1 48.5 55.95 47.4 54.3 45.45 54.5 42.85 54.95 42.85 57.65 42.85 59.2 43.3 59.65 L44.45 60.45 44.7 60.9 M46.05 60.85 Q45.7 60.85 45.7 60.3 45.7 59.8 46.15 59.8 46.45 59.8 46.45 60.3 46.45 60.85 46.05 60.85 M43.65 67.1 L43.15 69.4 43.1 76.25 43.0 78.2 Q44.55 78.2 44.55 75.05 L44.05 69.85 Q44.05 69.0 44.4 69.0 L45.15 75.05 45.1 76.05 45.5 75.95 Q46.05 75.95 46.05 77.05 L45.9 77.85 45.95 77.85 46.75 80.0 46.8 80.25 47.5 79.2 47.4 79.15 Q46.8 79.05 46.8 78.6 46.8 78.3 47.15 78.3 L47.2 78.3 47.2 78.2 47.45 75.75 47.2 73.2 47.35 72.95 45.25 69.45 43.6 66.9 43.65 67.1 M54.5 69.6 L53.65 71.0 53.65 71.05 53.7 71.05 54.1 74.55 53.65 77.35 53.85 77.55 Q54.45 77.55 54.4 75.75 54.35 74.35 54.6 74.05 L54.55 73.1 54.4 71.0 54.5 69.6 M53.25 76.45 L53.5 74.55 53.35 71.6 52.5 73.05 52.15 73.7 Q52.45 73.7 52.5 75.3 L52.45 76.45 52.95 76.25 53.2 76.55 52.75 77.65 Q52.75 78.7 53.7 78.7 L55.3 78.35 54.7 77.35 Q54.4 78.15 53.85 78.15 53.05 78.15 53.05 77.4 L53.25 76.45 M55.25 74.1 Q55.25 74.8 55.05 74.95 L54.95 76.45 55.55 77.25 55.9 78.3 Q55.9 78.9 55.15 79.15 L55.3 79.95 55.25 80.15 55.65 81.5 57.4 82.25 Q56.85 81.15 56.85 80.65 56.85 79.4 57.55 79.4 L58.9 80.0 Q55.45 72.8 54.95 70.1 L55.05 71.65 55.25 74.1 M50.7 77.05 L50.5 78.4 50.5 79.25 Q51.9 78.55 51.9 75.3 L51.85 74.4 51.2 75.95 50.7 77.05 M52.0 78.4 L52.25 78.3 52.2 77.95 52.0 78.4 M53.65 79.3 Q52.85 79.3 52.5 78.85 L50.35 81.55 Q50.35 81.9 50.7 81.9 L51.85 81.5 Q52.15 80.7 52.4 80.7 L52.7 81.0 52.35 82.15 52.4 82.4 52.1 82.95 51.85 83.6 Q51.85 84.65 53.15 84.7 L53.15 84.75 54.25 84.85 Q55.45 84.85 55.45 83.15 L55.2 81.85 54.65 81.55 Q54.65 81.25 54.95 81.25 L55.05 81.3 54.7 79.75 54.7 79.65 54.55 79.25 53.65 79.3 M47.7 78.45 L47.9 78.6 47.9 78.55 48.15 78.85 48.15 78.9 49.35 79.35 49.35 79.4 49.8 79.4 49.4 77.6 49.5 76.45 47.65 73.5 48.05 75.75 47.85 77.55 47.7 78.45 M45.05 76.55 Q44.65 78.85 42.85 78.85 42.6 78.85 42.55 78.7 L42.3 78.9 42.4 79.3 Q42.4 79.75 42.8 79.75 44.6 79.75 45.45 77.55 L45.45 76.6 45.05 76.55 M43.15 80.35 L43.15 80.45 42.35 81.8 41.85 82.6 41.95 82.8 41.6 83.25 41.5 83.85 Q41.5 85.25 42.8 85.25 44.65 85.25 44.8 82.9 45.0 80.55 45.15 80.55 45.55 80.55 45.45 81.8 L45.45 81.85 46.35 82.6 Q46.8 82.6 46.8 82.05 L45.65 78.4 45.3 78.95 Q44.4 80.2 43.15 80.35" fill="#000000" fill-rule="evenodd" stroke="none"/>
      <path d="M52.05 61.4 Q53.95 61.4 55.1 59.85 55.95 58.7 55.95 57.75 L55.95 57.6 56.5 57.8 Q57.3 57.95 57.5 58.35 L57.75 59.05 57.8 59.8 Q57.8 62.05 56.45 64.15 56.15 64.6 54.55 68.2 L52.2 72.2 50.4 75.95 50.2 75.55 Q49.9 75.55 49.75 75.8 L45.8 69.05 Q41.45 63.0 41.45 61.4 L42.55 59.65 Q43.25 61.8 45.8 61.8 47.35 61.8 48.7 60.35 L49.15 59.9 49.85 60.55 Q50.9 61.4 52.05 61.4" fill="#9cb9cb" fill-rule="evenodd" stroke="none"/>
      <path d="M53.4 54.0 Q53.4 54.35 53.7 54.35 L54.05 53.95 Q55.35 54.8 55.35 57.75 55.35 58.6 54.55 59.55 53.55 60.75 52.05 60.75 51.4 60.75 50.5 60.25 L49.65 59.6 49.6 59.2 49.85 58.25 Q49.85 56.75 49.0 55.5 L48.9 55.35 50.0 54.25 Q51.4 53.55 52.75 53.55 L53.55 53.7 53.4 54.0 M51.2 59.75 Q51.2 60.2 51.65 60.2 52.1 60.2 52.1 59.45 52.1 58.8 51.85 58.8 51.2 58.8 51.2 59.75 M46.05 60.85 Q46.45 60.85 46.45 60.3 46.45 59.8 46.15 59.8 45.7 59.8 45.7 60.3 45.7 60.85 46.05 60.85 M44.7 60.9 L44.45 60.45 43.3 59.65 Q42.85 59.2 42.85 57.65 42.85 54.95 45.45 54.5 47.4 54.3 48.5 55.95 49.25 57.1 49.25 58.25 49.25 58.9 48.0 60.05 46.75 61.25 46.0 61.2 L45.55 61.2 44.7 60.9 M53.2 76.55 L53.25 76.45 53.05 77.4 Q53.05 78.15 53.85 78.15 54.4 78.15 54.7 77.35 L55.3 78.35 53.7 78.7 Q52.75 78.7 52.75 77.65 L53.2 76.55 M53.65 79.3 L54.55 79.25 54.7 79.65 54.7 79.75 55.05 81.3 54.95 81.25 Q54.65 81.25 54.65 81.55 L55.2 81.85 55.45 83.15 Q55.45 84.85 54.25 84.85 L53.15 84.75 53.15 84.7 Q51.85 84.65 51.85 83.6 L52.1 82.95 52.4 82.4 52.35 82.15 52.7 81.0 52.4 80.7 Q52.15 80.7 51.85 81.5 L50.7 81.9 Q50.35 81.9 50.35 81.55 L52.5 78.85 Q52.85 79.3 53.65 79.3 M43.15 80.35 Q44.4 80.2 45.3 78.95 L45.65 78.4 46.8 82.05 Q46.8 82.6 46.35 82.6 L45.45 81.85 45.45 81.8 Q45.55 80.55 45.15 80.55 45.0 80.55 44.8 82.9 44.65 85.25 42.8 85.25 41.5 85.25 41.5 83.85 L41.6 83.25 41.95 82.8 41.85 82.6 42.35 81.8 43.15 80.45 43.15 80.35 M45.05 76.55 L45.45 76.6 45.45 77.55 Q44.6 79.75 42.8 79.75 42.4 79.75 42.4 79.3 L42.3 78.9 42.55 78.7 Q42.6 78.85 42.85 78.85 44.65 78.85 45.05 76.55" fill="#ffffff" fill-rule="evenodd" stroke="none"/>
      <path d="M61.9 62.25 L60.9 62.6 58.95 61.65 Q58.5 61.3 58.25 61.3 L58.4 59.85 Q58.4 58.65 58.0 57.95 L59.5 58.95 Q61.65 60.75 61.9 62.25 M38.55 81.1 L38.55 81.05 Q40.15 79.7 40.9 77.55 L41.65 75.8 42.05 74.05 42.5 72.2 42.5 76.55 42.55 77.85 Q41.65 77.85 41.65 78.85 41.65 79.45 41.85 79.55 41.9 80.2 42.5 80.35 42.05 80.65 41.55 81.75 L41.15 82.8 39.6 83.55 Q40.6 82.4 40.6 81.65 40.6 80.95 40.0 80.95 L38.55 81.1 M37.75 60.75 L39.85 59.2 42.25 58.1 42.4 59.1 42.25 59.1 Q41.7 59.1 41.25 60.15 L40.85 61.4 40.9 61.7 35.45 64.9 Q34.85 64.9 34.85 64.05 34.85 63.2 35.7 62.4 L37.75 60.75 M53.7 49.0 L56.0 47.55 53.75 53.2 52.9 52.9 53.2 52.9 Q51.3 52.8 49.85 53.55 48.55 54.25 48.55 54.95 47.55 53.85 45.95 53.85 42.75 53.85 42.35 56.75 L40.65 54.95 Q39.85 54.0 38.3 53.1 L38.4 53.05 41.45 52.95 43.6 53.0 Q43.5 53.6 43.1 53.6 L42.55 53.45 Q42.25 53.45 42.25 53.75 42.25 54.2 43.2 54.2 44.1 54.2 44.2 53.0 L46.6 53.1 46.9 53.1 47.3 53.4 Q48.35 53.4 51.7 50.65 L53.7 49.0 M55.95 57.1 L55.9 56.55 56.7 57.1 56.15 57.05 55.95 57.1 M53.2 76.55 L52.95 76.25 52.45 76.45 52.5 75.3 Q52.45 73.7 52.15 73.7 L52.5 73.05 53.35 71.6 53.5 74.55 53.25 76.45 53.2 76.55 M54.5 69.6 L54.4 71.0 54.55 73.1 54.6 74.05 Q54.35 74.35 54.4 75.75 54.45 77.55 53.85 77.55 L53.65 77.35 54.1 74.55 53.7 71.05 53.65 71.05 53.65 71.0 54.5 69.6 M43.65 67.1 L43.6 66.9 45.25 69.45 47.35 72.95 47.2 73.2 47.45 75.75 47.2 78.2 47.2 78.3 47.15 78.3 Q46.8 78.3 46.8 78.6 46.8 79.05 47.4 79.15 L47.5 79.2 46.8 80.25 46.75 80.0 45.95 77.85 45.9 77.85 46.05 77.05 Q46.05 75.95 45.5 75.95 L45.1 76.05 45.15 75.05 44.4 69.0 Q44.05 69.0 44.05 69.85 L44.55 75.05 Q44.55 78.2 43.0 78.2 L43.1 76.25 43.15 69.4 43.65 67.1 M55.25 74.1 L55.05 71.65 54.95 70.1 Q55.45 72.8 58.9 80.0 L57.55 79.4 Q56.85 79.4 56.85 80.65 56.85 81.15 57.4 82.25 L55.65 81.5 55.25 80.15 55.3 79.95 55.15 79.15 Q55.9 78.9 55.9 78.3 L55.55 77.25 54.95 76.45 55.05 74.95 Q55.25 74.8 55.25 74.1" fill="#ffb600" fill-rule="evenodd" stroke="none"/>
      <path d="M50.7 77.05 L51.2 75.95 51.85 74.4 51.9 75.3 Q51.9 78.55 50.5 79.25 L50.5 78.4 50.7 77.05 M47.7 78.45 L47.85 77.55 48.05 75.75 47.65 73.5 49.5 76.45 49.4 77.6 49.8 79.4 49.35 79.4 49.35 79.35 48.15 78.9 48.15 78.85 47.9 78.55 47.9 78.6 47.7 78.45" fill="#a800a0" fill-rule="evenodd" stroke="none"/>
    </g>
  </defs>
</svg>
