<?xml version="1.0" encoding="UTF-8" standalone="no"?>
<svg xmlns:ffdec="https://www.free-decompiler.com/flash" xmlns:xlink="http://www.w3.org/1999/xlink" ffdec:objectType="frame" height="500.0px" width="500.0px" xmlns="http://www.w3.org/2000/svg">
  <g transform="matrix(5.0, 0.0, 0.0, 5.0, 0.0, 0.0)">
    <use ffdec:characterId="2" height="54.0" transform="matrix(1.0, 0.0, 0.0, 1.0, 0.0, 0.0)" width="28.15" xlink:href="#shape0"/>
  </g>
  <defs>
    <g id="shape0">
      <path d="M48.7 45.95 L49.15 46.9 49.95 48.55 50.6 50.15 51.2 51.6 51.7 52.9 52.35 54.55 52.7 55.45 53.4 57.0 53.85 57.95 53.3 58.5 52.55 58.85 51.7 59.2 49.7 59.2 47.95 58.6 46.65 58.2 45.6 57.6 44.8 57.15 45.2 56.55 45.55 55.95 45.85 55.35 46.45 54.05 46.9 52.65 47.25 51.3 47.55 49.9 47.75 48.45 47.8 47.7 47.85 46.15 47.75 44.0 48.25 45.0 48.7 45.95" fill="#ffb600" fill-rule="evenodd" stroke="none"/>
      <path d="M47.05 42.6 Q47.2 42.35 47.35 42.5 47.6 42.4 47.85 42.7 L48.65 44.3 49.3 45.95 49.65 46.8 51.5 50.75 52.25 52.55 52.45 53.1 52.6 53.55 52.7 53.95 53.1 54.9 54.0 56.9 54.5 58.2 54.5 58.4 54.2 58.65 53.8 58.95 Q52.25 59.8 50.5 59.8 L48.9 59.5 48.35 59.45 47.7 59.25 47.05 59.0 45.25 58.2 Q44.5 57.85 44.0 57.25 L43.85 56.75 43.95 56.65 44.2 56.65 Q44.8 56.3 45.15 55.3 L45.5 54.15 46.3 51.6 46.5 50.85 46.9 49.35 47.1 47.95 47.2 46.2 47.05 42.6 M48.7 45.95 L48.25 45.0 47.75 44.0 47.85 46.15 47.8 47.7 47.75 48.45 47.55 49.9 47.25 51.3 46.9 52.65 46.45 54.05 45.85 55.35 45.55 55.95 45.2 56.55 44.8 57.15 45.6 57.6 46.65 58.2 47.95 58.6 49.7 59.2 51.7 59.2 52.55 58.85 53.3 58.5 53.85 57.95 53.4 57.0 52.7 55.45 52.35 54.55 51.7 52.9 51.2 51.6 50.6 50.15 49.95 48.55 49.15 46.9 48.7 45.95" fill="#000000" fill-rule="evenodd" stroke="none"/>
      <path d="M56.0 47.55 L53.7 49.0 53.1 49.5 52.15 50.4 50.95 51.35 49.5 52.3 48.95 52.75 48.45 53.1 47.3 53.4 46.9 53.1 44.2 53.0 44.15 53.55 43.65 54.15 43.2 54.2 42.85 54.2 42.55 54.05 42.25 53.75 42.4 53.6 42.55 53.5 43.1 53.5 43.45 53.45 43.5 53.3 43.55 53.2 42.55 53.05 Q40.5 52.9 38.3 53.1 L39.7 54.05 40.25 54.55 40.65 54.95 42.35 56.75 42.85 55.55 Q43.1 55.05 43.5 54.65 L44.55 54.05 45.95 53.85 46.75 54.0 48.05 54.5 48.65 54.65 49.3 53.95 49.85 53.55 50.65 53.3 53.2 52.9 53.75 53.2 56.0 47.55 M56.65 46.55 L56.85 46.75 56.7 47.4 55.95 49.3 Q55.35 50.5 55.05 51.6 L54.25 53.55 54.8 54.0 Q55.4 54.65 55.75 55.75 57.15 56.15 58.3 57.0 L59.6 58.15 60.8 59.4 61.6 60.4 62.35 61.6 Q62.8 62.4 62.1 62.95 L60.9 63.05 60.0 62.8 59.2 62.6 Q58.6 62.35 58.15 61.8 L57.7 63.0 57.2 64.3 56.35 66.1 55.4 68.0 55.05 68.85 Q55.4 68.6 55.6 69.1 L56.55 72.25 56.85 73.5 57.3 74.85 58.3 77.15 59.15 78.75 Q59.95 79.95 60.05 81.1 L59.0 80.65 57.65 80.05 57.55 80.65 Q57.55 81.2 57.85 81.7 58.3 82.5 58.35 83.25 L58.15 83.2 55.8 82.15 55.95 82.6 56.05 83.1 56.05 84.2 Q55.9 85.1 55.2 85.35 L53.5 85.35 Q52.45 85.35 51.5 84.5 L51.5 87.25 51.95 87.35 52.3 88.25 52.9 89.85 53.4 91.15 54.15 92.6 55.4 95.35 55.25 96.0 55.05 96.1 54.85 96.15 54.65 96.1 49.9 96.0 49.85 95.6 49.8 94.75 49.8 93.45 49.85 91.7 49.65 89.55 49.55 88.6 49.5 87.85 50.5 87.45 50.6 86.35 Q50.75 85.15 50.55 84.0 49.65 84.5 48.7 84.5 L47.45 84.0 47.35 86.45 47.1 88.6 47.85 89.25 47.8 89.95 47.8 91.3 47.95 92.85 48.05 94.15 48.2 95.45 Q48.25 95.95 47.95 96.1 L42.95 96.45 Q42.8 96.05 43.15 95.4 L43.7 94.35 44.2 92.9 44.65 91.4 45.25 89.25 Q45.35 88.8 45.8 88.35 L45.9 88.3 46.25 88.35 46.45 85.7 46.45 84.55 46.3 83.4 45.4 83.0 45.25 83.7 44.8 84.75 44.15 85.4 43.35 85.85 Q42.3 86.15 41.4 85.35 40.75 84.75 40.95 83.65 L40.75 83.7 39.85 84.1 38.85 84.1 39.3 83.1 40.0 81.65 37.65 81.5 38.2 80.75 39.75 78.6 40.45 77.1 41.3 74.55 42.5 69.05 42.55 68.55 42.7 67.75 Q42.8 66.85 43.4 66.8 L43.5 66.85 42.25 64.7 Q41.55 63.55 41.0 62.2 L40.05 62.8 38.6 63.9 36.7 65.25 34.95 65.5 34.55 65.2 34.4 64.0 Q34.4 62.5 35.5 61.8 L36.55 60.95 37.95 59.8 39.05 58.95 Q40.25 58.05 41.6 57.65 L42.05 57.4 42.3 57.2 42.15 57.2 41.2 56.3 39.95 55.25 39.1 54.55 37.15 53.05 Q36.9 52.85 37.05 52.75 L37.75 52.65 39.1 52.55 42.3 52.35 42.95 52.3 43.45 52.1 42.65 51.15 41.45 50.05 40.2 49.05 39.55 48.45 39.65 48.25 40.35 48.4 Q41.1 48.8 41.85 49.35 L43.45 50.9 Q44.1 51.6 44.2 52.45 L47.4 52.8 47.4 52.75 49.0 51.8 50.6 50.8 Q51.3 50.2 52.05 49.7 L52.9 49.0 54.2 48.05 Q54.95 47.5 55.6 47.15 56.1 46.7 56.65 46.55 M39.9 79.5 L39.25 80.35 38.55 81.1 40.0 80.95 40.35 81.2 40.55 81.65 40.5 82.1 40.3 82.55 40.05 83.05 39.85 83.5 40.6 83.05 41.15 82.8 41.35 82.35 41.6 81.75 42.1 80.85 42.5 80.35 42.3 80.2 42.05 80.1 41.95 79.9 41.8 79.55 41.7 79.35 41.7 78.85 41.9 78.1 42.55 77.85 42.5 72.2 42.3 73.1 42.0 74.05 41.3 76.55 40.9 77.55 40.45 78.6 39.9 79.5 M39.3 59.6 L37.75 60.75 36.35 62.0 35.1 63.25 Q34.55 63.9 35.0 64.7 L35.45 64.8 36.0 64.7 37.85 63.65 39.25 62.8 40.9 61.7 Q40.7 61.15 41.05 60.6 L41.8 59.45 Q41.95 59.15 42.4 59.1 L41.95 58.35 40.75 58.9 39.3 59.6 M51.65 60.2 L51.4 59.9 Q51.0 59.1 51.85 58.8 L51.95 58.85 Q52.35 59.95 51.65 60.2 M52.75 53.55 L51.4 53.75 50.7 54.0 Q49.2 54.5 49.0 55.5 L49.35 56.2 49.7 57.55 49.75 58.7 49.7 59.2 49.75 59.75 49.9 59.9 51.4 60.5 52.75 60.45 Q53.4 60.4 53.9 59.95 54.6 59.35 54.95 58.55 L55.25 57.15 54.9 55.45 Q54.55 54.65 53.85 54.2 L53.7 54.35 53.6 54.3 53.55 53.7 52.75 53.55 M52.05 61.4 L51.0 61.1 Q50.4 60.85 49.9 60.45 L49.15 59.9 48.0 61.0 Q47.1 61.75 45.8 61.8 L43.85 61.1 43.05 60.65 42.4 60.0 41.45 61.4 41.8 62.45 42.6 64.15 42.9 64.7 43.2 65.2 43.95 66.35 45.7 69.1 46.9 71.15 47.95 72.8 49.1 74.75 49.75 75.8 50.2 75.55 50.4 75.95 51.35 73.85 52.55 71.65 53.25 70.45 53.6 69.95 54.15 69.05 54.55 68.2 55.3 66.6 56.3 64.65 56.95 63.1 57.6 60.95 57.6 59.05 57.4 58.2 57.15 58.05 56.5 57.8 55.95 57.6 55.95 57.75 55.65 58.75 55.0 59.8 53.7 60.85 52.05 61.4 M58.5 60.6 L58.6 61.4 60.05 62.35 61.9 62.25 Q61.4 60.65 60.0 59.5 59.05 58.65 58.0 57.95 58.45 59.3 58.5 60.6 M55.9 56.55 L55.95 57.1 56.7 57.1 55.9 56.55 M46.05 60.85 Q45.6 60.65 45.7 60.3 45.9 59.65 46.4 59.95 46.7 60.55 46.05 60.85 M47.85 55.45 Q47.15 54.9 46.35 54.8 L44.95 54.85 Q44.2 55.1 43.7 55.7 43.2 56.3 42.95 57.05 42.7 57.85 43.0 58.95 43.35 60.1 44.45 60.45 L44.75 60.85 45.0 61.05 45.55 61.2 46.4 61.05 47.4 60.55 49.2 58.65 49.2 58.25 48.7 56.6 47.85 55.45 M53.25 76.45 L53.4 75.25 53.45 74.55 53.35 71.6 52.15 73.7 Q52.5 73.9 52.5 74.6 52.45 75.5 52.95 75.9 L53.2 76.55 52.95 77.25 52.75 77.65 53.0 78.45 55.3 78.35 54.7 77.35 54.15 78.1 53.3 77.95 53.1 77.75 53.05 77.4 53.25 76.45 M54.5 69.6 L53.7 71.05 54.0 74.6 53.9 75.65 Q53.55 76.65 53.85 77.55 L54.15 77.45 54.35 76.85 54.45 75.15 54.45 74.65 54.5 74.05 Q54.35 71.8 54.5 69.6 M43.95 67.55 L43.65 67.1 43.15 69.4 43.1 76.25 43.2 77.45 43.4 78.2 43.7 78.05 43.95 77.75 44.3 76.95 44.55 75.05 44.1 69.85 44.15 69.25 44.25 69.05 44.7 71.6 45.0 73.45 45.05 74.15 45.1 74.95 Q45.1 75.5 45.35 75.9 L45.8 76.05 45.9 76.3 46.05 77.05 45.95 77.85 46.25 78.4 Q46.7 79.2 46.8 80.25 L47.05 79.8 47.4 79.15 46.95 79.0 46.85 78.6 46.95 78.45 47.15 78.3 47.3 77.45 47.35 76.8 47.4 75.75 47.2 74.0 Q47.1 73.4 47.35 72.95 L46.4 71.35 45.85 70.45 44.85 68.8 43.95 67.55 M54.95 70.1 L55.25 74.1 55.15 74.7 55.1 74.95 54.95 76.45 55.8 77.9 55.9 78.6 55.7 78.8 55.25 79.25 55.25 79.5 55.3 80.15 55.65 81.5 57.4 82.25 57.1 81.25 Q56.95 80.7 57.05 80.15 57.1 79.8 57.3 79.5 L57.55 79.45 58.0 79.55 58.9 80.0 58.5 79.15 57.8 77.5 57.1 76.0 56.75 75.3 56.2 73.95 55.4 71.75 54.95 70.1 M51.85 74.4 L51.2 75.95 50.8 77.05 Q50.6 77.7 50.65 78.4 L50.85 79.1 51.1 78.8 51.65 77.45 51.8 76.15 51.85 74.4 M52.8 79.0 L52.5 78.85 50.45 81.85 50.7 81.9 51.85 81.5 52.4 80.7 52.5 80.8 52.45 82.15 Q52.4 82.9 51.85 83.6 L52.35 84.25 Q52.95 84.75 53.65 84.75 L54.8 84.75 55.05 84.4 55.3 83.15 55.2 81.85 54.75 81.45 54.75 81.35 54.85 81.25 54.85 80.3 54.55 79.25 53.65 79.3 52.8 79.0 M47.8 78.45 L47.9 78.55 48.05 78.65 48.15 78.9 48.55 79.1 Q49.2 79.5 49.8 79.4 L49.6 78.65 Q49.3 77.5 49.5 76.45 L47.65 73.5 48.0 75.1 48.05 76.65 47.8 78.45 M44.75 79.45 Q44.05 80.25 43.15 80.35 L43.0 80.95 41.85 82.6 41.9 82.8 41.9 83.05 Q41.7 83.45 41.65 83.85 41.45 84.8 42.25 85.2 L44.0 85.0 44.2 84.7 44.55 83.9 44.75 82.9 44.9 81.15 Q44.9 80.45 45.35 80.65 L45.4 80.9 45.45 81.3 45.45 81.8 45.45 81.85 46.4 82.5 46.7 82.5 46.75 82.4 46.35 80.8 45.65 78.4 44.75 79.45 M42.3 78.9 L42.4 79.05 42.4 79.3 42.5 79.65 44.0 79.4 44.65 78.9 45.35 77.5 Q45.75 76.5 45.05 76.55 L44.7 77.55 Q44.35 78.4 43.7 78.75 L42.3 78.9" fill="#000000" fill-rule="evenodd" stroke="none"/>
      <path d="M56.0 47.55 L53.75 53.2 53.2 52.9 50.65 53.3 49.85 53.55 49.3 53.95 48.65 54.65 48.05 54.5 46.75 54.0 45.95 53.85 44.55 54.05 43.5 54.65 Q43.1 55.05 42.85 55.55 L42.35 56.75 40.65 54.95 40.25 54.55 39.7 54.05 38.3 53.1 Q40.5 52.9 42.55 53.05 L43.55 53.2 43.5 53.3 43.45 53.45 43.1 53.5 42.55 53.5 42.4 53.6 42.25 53.75 42.55 54.05 42.85 54.2 43.2 54.2 43.65 54.15 44.15 53.55 44.2 53.0 46.9 53.1 47.3 53.4 48.45 53.1 48.95 52.75 49.5 52.3 50.95 51.35 52.15 50.4 53.1 49.5 53.7 49.0 56.0 47.55 M39.3 59.6 L40.75 58.9 41.95 58.35 42.4 59.1 Q41.95 59.15 41.8 59.45 L41.05 60.6 Q40.7 61.15 40.9 61.7 L39.25 62.8 37.85 63.65 36.0 64.7 35.45 64.8 35.0 64.7 Q34.55 63.9 35.1 63.25 L36.35 62.0 37.75 60.75 39.3 59.6 M39.9 79.5 L40.45 78.6 40.9 77.55 41.3 76.55 42.0 74.05 42.3 73.1 42.5 72.2 42.55 77.85 41.9 78.1 41.7 78.85 41.7 79.35 41.8 79.55 41.95 79.9 42.05 80.1 42.3 80.2 42.5 80.35 42.1 80.85 41.6 81.75 41.35 82.35 41.15 82.8 40.6 83.05 39.85 83.5 40.05 83.05 40.3 82.55 40.5 82.1 40.55 81.65 40.35 81.2 40.0 80.95 38.55 81.1 39.25 80.35 39.9 79.5 M55.9 56.55 L56.7 57.1 55.95 57.1 55.9 56.55 M58.5 60.6 Q58.45 59.3 58.0 57.95 59.05 58.65 60.0 59.5 61.4 60.65 61.9 62.25 L60.05 62.35 58.6 61.4 58.5 60.6 M43.95 67.55 L44.85 68.8 45.85 70.45 46.4 71.35 47.35 72.95 Q47.1 73.4 47.2 74.0 L47.4 75.75 47.35 76.8 47.3 77.45 47.15 78.3 46.95 78.45 46.85 78.6 46.95 79.0 47.4 79.15 47.05 79.8 46.8 80.25 Q46.7 79.2 46.25 78.4 L45.95 77.85 46.05 77.05 45.9 76.3 45.8 76.05 45.35 75.9 Q45.1 75.5 45.1 74.95 L45.05 74.15 45.0 73.45 44.7 71.6 44.25 69.05 44.15 69.25 44.1 69.85 44.55 75.05 44.3 76.95 43.95 77.75 43.7 78.05 43.4 78.2 43.2 77.45 43.1 76.25 43.15 69.4 43.65 67.1 43.95 67.55 M54.5 69.6 Q54.35 71.8 54.5 74.05 L54.45 74.65 54.45 75.15 54.35 76.85 54.15 77.45 53.85 77.55 Q53.55 76.65 53.9 75.65 L54.0 74.6 53.7 71.05 54.5 69.6 M53.2 76.55 L52.95 75.9 Q52.45 75.5 52.5 74.6 52.5 73.9 52.15 73.7 L53.35 71.6 53.45 74.55 53.4 75.25 53.25 76.45 53.2 76.55 M54.95 70.1 L55.4 71.75 56.2 73.95 56.75 75.3 57.1 76.0 57.8 77.5 58.5 79.15 58.9 80.0 58.0 79.55 57.55 79.45 57.3 79.5 Q57.1 79.8 57.05 80.15 56.95 80.7 57.1 81.25 L57.4 82.25 55.65 81.5 55.3 80.15 55.25 79.5 55.25 79.25 55.7 78.8 55.9 78.6 55.8 77.9 54.95 76.45 55.1 74.95 55.15 74.7 55.25 74.1 54.95 70.1" fill="#ffb600" fill-rule="evenodd" stroke="none"/>
      <path d="M52.75 53.55 L53.55 53.7 53.6 54.3 53.7 54.35 53.85 54.2 Q54.55 54.65 54.9 55.45 L55.25 57.15 54.95 58.55 Q54.6 59.35 53.9 59.95 53.4 60.4 52.75 60.45 L51.4 60.5 49.9 59.9 49.75 59.75 49.7 59.2 49.75 58.7 49.7 57.55 49.35 56.2 49.0 55.5 Q49.2 54.5 50.7 54.0 L51.4 53.75 52.75 53.55 M51.65 60.2 Q52.35 59.95 51.95 58.85 L51.85 58.8 Q51.0 59.1 51.4 59.9 L51.65 60.2 M47.85 55.45 L48.7 56.6 49.2 58.25 49.2 58.65 47.4 60.55 46.4 61.05 45.55 61.2 45.0 61.05 44.75 60.85 44.45 60.45 Q43.35 60.1 43.0 58.95 42.7 57.85 42.95 57.05 43.2 56.3 43.7 55.7 44.2 55.1 44.95 54.85 L46.35 54.8 Q47.15 54.9 47.85 55.45 M46.05 60.85 Q46.7 60.55 46.4 59.95 45.9 59.65 45.7 60.3 45.6 60.65 46.05 60.85 M53.25 76.45 L53.05 77.4 53.1 77.75 53.3 77.95 54.15 78.1 54.7 77.35 55.3 78.35 53.0 78.45 52.75 77.65 52.95 77.25 53.2 76.55 53.25 76.45 M52.8 79.0 L53.65 79.3 54.55 79.25 54.85 80.3 54.85 81.25 54.75 81.35 54.75 81.45 55.2 81.85 55.3 83.15 55.05 84.4 54.8 84.75 53.65 84.75 Q52.95 84.75 52.35 84.25 L51.85 83.6 Q52.4 82.9 52.45 82.15 L52.5 80.8 52.4 80.7 51.85 81.5 50.7 81.9 50.45 81.85 52.5 78.85 52.8 79.0 M42.3 78.9 L43.7 78.75 Q44.35 78.4 44.7 77.55 L45.05 76.55 Q45.75 76.5 45.35 77.5 L44.65 78.9 44.0 79.4 42.5 79.65 42.4 79.3 42.4 79.05 42.3 78.9 M44.75 79.45 L45.65 78.4 46.35 80.8 46.75 82.4 46.7 82.5 46.4 82.5 45.45 81.85 45.45 81.8 45.45 81.3 45.4 80.9 45.35 80.65 Q44.9 80.45 44.9 81.15 L44.75 82.9 44.55 83.9 44.2 84.7 44.0 85.0 42.25 85.2 Q41.45 84.8 41.65 83.85 41.7 83.45 41.9 83.05 L41.9 82.8 41.85 82.6 43.0 80.95 43.15 80.35 Q44.05 80.25 44.75 79.45" fill="#ffffff" fill-rule="evenodd" stroke="none"/>
      <path d="M52.05 61.4 L53.7 60.85 55.0 59.8 55.65 58.75 55.95 57.75 55.95 57.6 56.5 57.8 57.15 58.05 57.4 58.2 57.6 59.05 57.6 60.95 56.95 63.1 56.3 64.65 55.3 66.6 54.55 68.2 54.15 69.05 53.6 69.95 53.25 70.45 52.55 71.65 51.35 73.85 50.4 75.95 50.2 75.55 49.75 75.8 49.1 74.75 47.95 72.8 46.9 71.15 45.7 69.1 43.95 66.35 43.2 65.2 42.9 64.7 42.6 64.15 41.8 62.45 41.45 61.4 42.4 60.0 43.05 60.65 43.85 61.1 45.8 61.8 Q47.1 61.75 48.0 61.0 L49.15 59.9 49.9 60.45 Q50.4 60.85 51.0 61.1 L52.05 61.4" fill="#9cb9cb" fill-rule="evenodd" stroke="none"/>
      <path d="M51.85 74.4 L51.8 76.15 51.65 77.45 51.1 78.8 50.85 79.1 50.65 78.4 Q50.6 77.7 50.8 77.05 L51.2 75.95 51.85 74.4 M47.8 78.45 L48.05 76.65 48.0 75.1 47.65 73.5 49.5 76.45 Q49.3 77.5 49.6 78.65 L49.8 79.4 Q49.2 79.5 48.55 79.1 L48.15 78.9 48.05 78.65 47.9 78.55 47.8 78.45" fill="#a800a0" fill-rule="evenodd" stroke="none"/>
    </g>
  </defs>
</svg>
