<?xml version="1.0" encoding="UTF-8" standalone="no"?>
<svg xmlns:ffdec="https://www.free-decompiler.com/flash" xmlns:xlink="http://www.w3.org/1999/xlink" ffdec:objectType="frame" height="500.0px" width="500.0px" xmlns="http://www.w3.org/2000/svg">
  <g transform="matrix(5.0, 0.0, 0.0, 5.0, 0.0, 0.0)">
    <use ffdec:characterId="1" height="32.4" transform="matrix(1.0, 0.0, 0.0, 1.0, 0.0, 0.0)" width="41.75" xlink:href="#shape0"/>
  </g>
  <defs>
    <g id="shape0">
      <path d="M29.5 68.2 Q29.65 67.5 30.3 67.45 30.3 66.4 30.7 65.05 31.3 62.8 32.5 62.8 34.1 62.8 36.8 67.35 L40.1 73.55 39.85 72.2 Q39.55 71.15 39.55 68.0 39.4 66.9 39.55 65.95 39.8 64.05 41.1 64.05 42.65 64.05 43.2 69.75 43.6 74.1 44.8 75.1 L45.35 75.4 45.6 75.4 Q46.0 75.4 46.1 74.8 L46.25 74.85 45.95 74.05 45.95 73.8 45.7 73.75 45.7 72.15 47.45 60.6 47.65 60.55 48.0 60.6 48.95 67.6 49.05 67.75 Q50.0 66.2 50.2 62.75 50.4 59.2 50.85 58.45 51.7 60.85 52.05 66.5 52.7 67.2 53.15 70.4 L53.25 70.35 Q53.0 69.7 53.05 68.6 L53.2 65.85 Q53.2 63.45 54.5 63.45 56.2 63.45 55.8 66.75 L55.45 70.25 Q58.2 70.5 57.9 74.0 57.9 74.8 57.35 75.75 L58.25 75.9 Q59.55 75.9 62.8 74.55 63.3 74.3 63.45 73.7 63.5 73.15 63.9 73.05 L64.1 73.1 Q65.05 71.55 64.95 70.6 L65.2 70.55 65.6 70.6 65.55 71.6 66.5 69.8 66.8 70.35 64.55 74.5 Q64.5 77.4 61.95 80.35 58.45 84.4 51.6 84.85 L53.1 85.3 54.75 86.05 Q57.1 85.35 62.1 84.95 L62.5 85.0 62.9 89.15 Q62.9 90.2 56.55 90.3 L56.1 90.55 54.7 90.35 53.4 90.55 Q52.15 90.55 52.05 90.2 52.2 89.8 53.15 89.7 52.85 89.4 52.7 88.7 L52.55 87.5 Q52.55 87.1 53.05 86.8 L51.3 86.05 49.35 85.85 48.95 85.9 48.4 85.75 45.2 85.5 44.45 85.4 43.85 86.65 46.9 86.5 48.4 86.2 48.75 86.35 48.8 86.5 47.65 88.6 Q46.5 90.3 43.95 90.3 L42.5 90.25 Q42.1 90.8 38.65 90.8 L36.55 90.85 Q36.8 90.75 36.25 90.4 L35.95 90.1 Q35.95 89.95 36.35 89.9 L36.3 89.75 39.2 87.95 Q39.25 87.35 39.9 87.35 L40.05 87.35 Q40.2 87.2 40.85 86.9 L42.25 86.75 43.2 85.4 Q41.65 85.3 40.95 84.85 L40.65 85.05 Q40.2 85.05 38.9 82.6 38.9 87.8 38.4 87.8 L37.05 84.95 36.55 82.05 Q34.95 86.3 33.2 86.3 32.35 86.3 32.05 83.6 L31.95 81.05 Q32.1 78.35 32.7 75.75 33.65 71.7 35.25 70.8 L33.6 66.55 33.05 68.2 Q33.85 68.25 33.65 70.45 33.65 71.8 33.05 72.25 L33.15 72.95 32.6 74.05 31.6 74.9 31.65 75.0 Q30.55 77.55 30.1 77.55 L28.35 76.65 Q26.0 76.65 25.7 76.25 25.05 75.4 25.05 74.0 25.05 72.95 25.55 72.05 26.35 70.55 28.3 70.35 L28.35 70.05 29.35 69.95 29.5 69.95 29.45 69.85 29.45 69.05 29.5 68.2 M30.05 69.05 L30.1 69.7 30.25 69.85 30.5 69.85 30.55 70.05 31.05 70.4 30.65 70.65 30.45 70.65 31.05 71.15 Q31.75 71.65 32.2 71.7 L32.05 70.9 Q32.05 70.7 32.2 70.55 L32.35 70.55 Q32.65 70.55 32.9 71.5 33.2 71.15 33.05 70.4 L32.75 69.05 32.3 70.4 31.05 69.9 Q30.45 69.45 30.45 69.2 L30.45 69.15 30.2 68.35 Q30.05 68.65 30.05 69.05 M27.9 71.3 Q25.65 72.25 25.65 74.05 25.65 75.7 27.2 75.7 28.55 75.7 30.05 76.85 L30.55 75.9 30.5 75.9 Q29.95 75.9 29.95 75.4 L30.35 74.15 Q30.75 73.15 31.0 73.05 L31.3 73.35 31.1 74.05 Q31.35 74.05 31.4 74.25 L32.55 73.0 32.35 72.4 Q31.05 72.4 30.25 71.4 L29.9 70.7 27.9 71.3 M31.05 65.35 Q30.8 66.55 30.9 67.6 L31.4 68.05 31.15 68.35 31.4 68.75 31.25 69.0 32.15 69.7 Q32.45 65.8 33.45 65.8 34.15 65.8 35.85 69.95 L36.1 70.55 36.25 70.55 Q37.65 70.55 40.25 74.95 L36.95 69.25 Q33.45 63.45 32.45 63.45 31.45 63.45 31.05 65.35 M35.45 71.35 Q34.4 71.75 33.9 73.3 33.5 74.4 33.25 76.1 32.55 78.25 32.55 81.05 32.55 83.45 33.25 85.55 34.4 84.7 35.05 83.25 L36.2 80.8 36.4 80.7 Q37.4 80.7 38.2 86.3 L38.25 86.3 38.3 81.35 38.6 81.3 Q39.15 81.3 40.45 83.85 L40.5 83.8 40.65 83.9 41.6 81.95 Q39.7 80.35 39.7 78.5 39.7 77.8 40.35 76.7 L40.55 76.4 38.6 73.8 Q37.0 71.7 36.4 71.3 L37.4 74.1 37.35 74.3 37.1 74.4 Q36.65 74.4 35.45 71.35 M30.6 75.25 L30.7 75.55 31.1 74.85 30.85 74.7 30.6 75.25 M47.75 63.55 L47.7 63.45 47.7 63.55 46.45 72.6 Q47.1 71.95 48.55 71.95 50.15 71.95 51.0 72.6 51.15 71.75 51.55 71.25 51.8 70.9 52.3 70.65 L52.15 69.95 51.3 66.35 51.45 66.35 50.85 64.15 50.8 64.15 50.35 66.75 Q50.0 68.55 49.1 68.55 47.95 68.55 47.75 63.55 M41.45 64.7 L40.95 64.7 Q40.15 66.7 40.15 67.9 40.15 72.15 41.4 75.6 L41.65 75.45 Q42.25 75.1 43.7 75.1 43.2 74.45 42.95 73.5 L42.55 70.45 42.3 67.55 Q42.1 65.8 41.45 64.7 M46.65 73.3 L46.55 74.0 Q46.55 75.0 47.9 76.6 L47.85 76.75 47.6 76.9 Q47.45 76.9 47.25 76.7 L47.15 77.1 47.35 77.4 Q50.7 77.4 51.25 75.75 L51.05 75.8 50.45 75.0 50.5 74.75 50.75 74.7 Q51.15 74.7 51.3 74.95 51.35 72.6 47.85 72.6 46.9 72.6 46.65 73.3 M54.1 64.1 Q53.9 65.25 53.9 69.0 L53.9 70.25 54.6 70.2 55.2 66.75 Q55.2 64.45 54.95 64.1 L54.1 64.1 M53.25 71.0 L53.4 72.15 53.1 72.3 Q52.8 72.3 52.55 71.4 52.1 71.8 51.6 73.35 51.95 74.05 51.9 75.1 L51.7 76.3 52.2 76.7 52.5 76.75 52.55 77.0 52.55 77.05 52.9 77.4 Q55.2 77.25 56.45 75.85 57.3 74.85 57.3 74.0 57.3 70.85 54.75 70.85 L53.25 71.0 M56.25 74.05 Q56.65 74.05 56.65 74.7 56.65 75.2 56.25 75.4 L55.95 75.25 55.95 74.1 56.25 74.05 M57.05 76.2 L57.0 76.25 Q55.65 78.05 53.1 78.05 52.05 78.05 51.7 77.65 L51.55 77.2 51.6 77.0 51.35 76.9 Q50.4 78.05 47.85 78.05 46.55 78.05 46.55 77.05 L46.8 76.05 46.55 75.5 Q46.4 76.05 45.7 76.05 44.95 76.05 44.35 75.7 L44.3 75.7 43.5 75.9 42.35 76.0 41.55 76.55 Q40.3 77.5 40.3 78.45 40.3 79.95 41.85 81.4 L42.1 80.6 42.25 80.55 42.6 80.6 42.65 80.85 42.3 81.8 42.7 82.1 Q44.15 83.2 46.0 83.75 L46.25 83.2 Q46.35 81.95 46.85 81.7 L47.15 82.1 Q47.15 83.2 46.8 83.95 L47.3 84.05 47.3 83.55 47.6 83.45 48.25 84.15 50.0 84.25 Q58.5 84.25 61.95 79.3 62.9 77.9 63.55 75.8 L64.0 74.5 63.85 74.3 62.7 75.25 Q60.75 76.55 58.15 76.55 57.4 76.55 57.05 76.2" fill="#000000" fill-rule="evenodd" stroke="none"/>
      <path d="M35.45 71.35 Q36.65 74.4 37.1 74.4 L37.35 74.3 37.4 74.1 36.4 71.3 Q37.0 71.7 38.6 73.8 L40.55 76.4 40.35 76.7 Q39.7 77.8 39.7 78.5 39.7 80.35 41.6 81.95 L40.65 83.9 40.5 83.8 40.45 83.85 Q39.15 81.3 38.6 81.3 L38.3 81.35 38.25 86.3 38.2 86.3 Q37.4 80.7 36.4 80.7 L36.2 80.8 35.05 83.25 Q34.4 84.7 33.25 85.55 32.55 83.45 32.55 81.05 32.55 78.25 33.25 76.1 33.5 74.4 33.9 73.3 34.4 71.75 35.45 71.35 M31.05 65.35 Q31.45 63.45 32.45 63.45 33.45 63.45 36.95 69.25 L40.25 74.95 Q37.65 70.55 36.25 70.55 L36.1 70.55 35.85 69.95 Q34.15 65.8 33.45 65.8 32.45 65.8 32.15 69.7 L31.25 69.0 31.4 68.75 31.15 68.35 31.4 68.05 30.9 67.6 Q30.8 66.55 31.05 65.35 M47.7 63.55 L47.75 63.55 Q47.95 68.55 49.1 68.55 50.0 68.55 50.35 66.75 L50.8 64.15 50.85 64.15 51.45 66.35 51.3 66.35 52.15 69.95 52.3 70.65 Q51.8 70.9 51.55 71.25 51.15 71.75 51.0 72.6 50.15 71.95 48.55 71.95 47.1 71.95 46.45 72.6 L47.7 63.55 M41.45 64.7 Q42.1 65.8 42.3 67.55 L42.55 70.45 42.95 73.5 Q43.2 74.45 43.7 75.1 42.25 75.1 41.65 75.45 L41.4 75.6 Q40.15 72.15 40.15 67.9 40.15 66.7 40.95 64.7 L41.45 64.7 M54.1 64.1 L54.95 64.1 Q55.2 64.45 55.2 66.75 L54.6 70.2 53.9 70.25 53.9 69.0 Q53.9 65.25 54.1 64.1" fill="#ffb600" fill-rule="evenodd" stroke="none"/>
      <path d="M57.05 76.2 Q57.4 76.55 58.15 76.55 60.75 76.55 62.7 75.25 L63.85 74.3 64.0 74.5 63.55 75.8 Q62.9 77.9 61.95 79.3 58.5 84.25 50.0 84.25 L48.25 84.15 47.6 83.45 47.3 83.55 47.3 84.05 46.8 83.95 Q47.15 83.2 47.15 82.1 L46.85 81.7 Q46.35 81.95 46.25 83.2 L46.0 83.75 Q44.15 83.2 42.7 82.1 L42.3 81.8 42.65 80.85 42.6 80.6 42.25 80.55 42.1 80.6 41.85 81.4 Q40.3 79.95 40.3 78.45 40.3 77.5 41.55 76.55 L42.35 76.0 43.5 75.9 44.3 75.7 44.35 75.7 Q44.95 76.05 45.7 76.05 46.4 76.05 46.55 75.5 L46.8 76.05 46.55 77.05 Q46.55 78.05 47.85 78.05 50.4 78.05 51.35 76.9 L51.6 77.0 51.55 77.2 51.7 77.65 Q52.05 78.05 53.1 78.05 55.65 78.05 57.0 76.25 L57.05 76.2" fill="#9cb9cb" fill-rule="evenodd" stroke="none"/>
      <path d="M27.9 71.3 L29.9 70.7 30.25 71.4 Q31.05 72.4 32.35 72.4 L32.55 73.0 31.4 74.25 Q31.35 74.05 31.1 74.05 L31.3 73.35 31.0 73.05 Q30.75 73.15 30.35 74.15 L29.95 75.4 Q29.95 75.9 30.5 75.9 L30.55 75.9 30.05 76.85 Q28.55 75.7 27.2 75.7 25.65 75.7 25.65 74.05 25.65 72.25 27.9 71.3 M30.05 69.05 Q30.05 68.65 30.2 68.35 L30.45 69.15 30.45 69.2 Q30.45 69.45 31.05 69.9 L32.3 70.4 32.75 69.05 33.05 70.4 Q33.2 71.15 32.9 71.5 32.65 70.55 32.35 70.55 L32.2 70.55 Q32.05 70.7 32.05 70.9 L32.2 71.7 Q31.75 71.65 31.05 71.15 L30.45 70.65 30.65 70.65 31.05 70.4 30.55 70.05 30.5 69.85 30.25 69.85 30.1 69.7 30.05 69.05 M46.65 73.3 Q46.9 72.6 47.85 72.6 51.35 72.6 51.3 74.95 51.15 74.7 50.75 74.7 L50.5 74.75 50.45 75.0 51.05 75.8 51.25 75.75 Q50.7 77.4 47.35 77.4 L47.15 77.1 47.25 76.7 Q47.45 76.9 47.6 76.9 L47.85 76.75 47.9 76.6 Q46.55 75.0 46.55 74.0 L46.65 73.3 M56.25 74.05 L55.95 74.1 55.95 75.25 56.25 75.4 Q56.65 75.2 56.65 74.7 56.65 74.05 56.25 74.05 M53.25 71.0 L54.75 70.85 Q57.3 70.85 57.3 74.0 57.3 74.85 56.45 75.85 55.2 77.25 52.9 77.4 L52.55 77.05 52.55 77.0 52.5 76.75 52.2 76.7 51.7 76.3 51.9 75.1 Q51.95 74.05 51.6 73.35 52.1 71.8 52.55 71.4 52.8 72.3 53.1 72.3 L53.4 72.15 53.25 71.0" fill="#ffffff" fill-rule="evenodd" stroke="none"/>
    </g>
  </defs>
</svg>
