<?xml version="1.0" encoding="UTF-8" standalone="no"?>
<svg xmlns:ffdec="https://www.free-decompiler.com/flash" xmlns:xlink="http://www.w3.org/1999/xlink" ffdec:objectType="frame" height="500.0px" width="500.0px" xmlns="http://www.w3.org/2000/svg">
  <g transform="matrix(5.0, 0.0, 0.0, 5.0, 0.0, 0.0)">
    <use ffdec:characterId="2" height="46.1" transform="matrix(1.0, 0.0, 0.0, 1.0, 0.0, 0.0)" width="41.7" xlink:href="#shape0"/>
  </g>
  <defs>
    <g id="shape0">
      <path d="M44.05 49.3 L44.45 49.2 45.45 49.0 Q45.55 47.45 54.75 45.2 55.05 45.3 55.05 45.7 55.05 46.9 54.45 48.2 L57.3 47.55 65.55 46.7 65.95 46.45 Q66.95 46.45 67.9 47.1 L68.65 47.9 Q68.65 49.8 64.4 49.8 L61.1 49.55 Q60.45 50.0 58.65 50.2 58.7 50.2 63.35 52.65 67.7 54.45 70.85 54.55 L71.45 54.6 72.4 53.95 Q73.4 53.4 73.9 53.3 L74.35 53.35 74.4 53.7 Q74.4 54.0 73.65 54.55 L72.75 55.05 Q71.75 55.8 64.7 57.95 58.1 59.65 52.15 59.8 52.6 61.05 52.5 62.7 L52.3 66.05 52.05 69.25 Q51.9 70.6 52.1 71.75 L52.25 71.55 52.55 71.85 51.9 75.45 51.8 77.65 52.4 77.95 Q53.85 78.1 53.65 79.45 55.25 79.55 55.55 81.85 56.0 84.65 52.6 84.65 51.35 84.65 50.2 83.5 L49.65 82.95 49.55 83.95 49.25 84.15 48.95 84.05 49.3 84.8 Q49.65 85.3 49.55 86.15 L53.2 85.8 53.75 85.85 53.8 86.45 53.3 88.65 53.15 89.8 52.9 90.35 47.4 90.35 Q46.2 91.3 41.0 91.3 38.55 91.3 38.55 90.7 L39.05 88.55 39.1 86.5 39.05 84.25 39.1 83.65 38.95 83.65 Q36.75 83.65 36.3 82.9 L36.3 82.05 Q36.3 80.6 38.15 79.35 38.8 78.9 39.35 78.7 L39.2 78.35 39.3 77.95 39.3 77.85 39.3 77.8 Q39.3 76.65 39.9 74.15 L39.7 74.3 Q39.05 74.3 39.0 72.7 38.9 71.1 38.45 71.1 L34.95 73.05 34.65 73.0 34.55 72.75 Q34.55 72.3 38.3 65.5 41.55 59.55 42.45 58.7 L42.45 58.65 43.05 57.85 Q42.45 57.3 42.2 56.6 L41.95 56.45 41.3 56.8 37.95 59.05 Q34.8 62.55 33.4 62.55 32.8 62.55 32.7 62.2 L32.7 61.8 Q32.7 58.6 40.35 53.55 L40.5 53.7 41.35 53.15 41.0 52.8 40.9 52.8 Q37.25 52.85 35.8 52.15 35.95 51.4 38.05 51.05 L41.25 50.1 40.45 49.85 Q40.45 49.4 42.65 49.45 L44.05 49.3 M47.15 48.7 L50.05 48.55 53.0 48.75 Q53.2 48.6 53.7 48.4 53.7 47.75 54.3 46.1 L49.75 47.35 47.15 48.7 M60.65 48.9 L59.1 48.7 54.5 49.5 54.55 49.8 54.55 49.9 58.85 49.45 60.65 48.9 M59.3 48.05 Q61.4 48.05 61.4 48.95 L61.6 48.95 63.8 49.15 Q65.95 49.15 67.95 48.15 L68.05 47.95 66.3 47.25 65.25 47.35 Q60.95 47.35 57.7 48.1 L59.3 48.05 M40.3 51.95 Q40.4 51.8 40.6 51.8 L41.25 52.25 Q41.9 52.35 41.9 52.5 L41.8 52.7 41.9 52.75 42.1 52.65 Q42.35 52.05 43.25 51.85 L42.9 51.6 Q41.95 50.95 41.95 50.6 L42.2 50.15 41.55 50.15 41.6 50.2 41.65 50.3 Q41.65 50.7 40.25 51.1 L37.35 51.9 40.4 52.15 40.3 51.95 M39.25 54.8 L37.75 55.9 Q34.55 58.25 33.3 61.75 L33.3 61.9 Q34.55 61.9 36.2 60.0 L38.05 58.1 39.2 57.3 40.6 56.55 Q40.7 55.8 41.8 55.6 41.8 54.45 41.95 53.65 L39.55 54.9 39.3 54.85 39.25 54.8 M41.35 71.95 Q41.95 71.95 42.8 73.3 L43.3 71.3 43.3 70.55 Q43.3 68.45 44.25 66.55 44.75 63.8 45.5 61.95 L45.8 62.5 45.3 65.55 45.2 65.9 44.65 68.35 47.15 59.55 Q44.9 59.15 43.65 58.3 43.45 59.25 42.35 60.05 L40.5 62.7 Q37.55 67.25 35.85 71.7 L35.85 71.75 Q35.95 71.65 38.5 70.45 39.65 70.45 39.7 71.6 L39.7 73.35 40.3 72.7 41.45 68.55 43.8 60.85 44.1 60.8 44.4 61.2 41.75 69.95 41.3 71.95 41.35 71.95 M40.1 77.5 Q42.0 77.5 42.45 75.9 L42.6 74.45 42.3 74.0 41.35 72.6 41.05 72.95 39.95 77.5 40.1 77.5 M39.85 78.4 L39.95 78.45 40.8 78.3 Q40.95 78.3 41.1 78.45 L41.15 78.55 40.8 78.75 41.05 78.75 Q43.05 78.75 43.05 77.65 L42.75 76.8 Q42.1 78.1 40.05 78.15 L39.85 78.4 M39.05 79.65 Q36.9 80.75 36.9 81.9 36.9 83.0 39.0 83.0 L39.2 83.0 Q39.35 82.55 39.6 82.55 L40.85 82.75 42.9 79.05 41.1 79.4 39.9 79.2 39.05 79.65 M71.3 54.8 L70.85 54.8 Q66.2 54.8 62.15 52.9 59.45 51.65 58.3 50.35 L58.55 50.2 56.2 50.3 54.55 50.05 Q54.2 51.65 48.3 51.65 L48.15 51.65 47.55 51.9 46.85 52.15 45.45 52.4 44.0 52.15 43.55 52.3 Q43.25 52.45 43.05 52.7 L42.55 55.05 42.55 55.2 42.55 55.55 42.6 55.55 Q43.4 55.55 43.4 55.8 L42.7 56.05 42.9 56.3 42.75 56.55 Q42.9 57.2 43.35 57.7 L43.5 57.75 43.65 58.0 43.65 58.05 Q44.9 59.15 47.6 59.15 59.85 59.15 66.7 56.85 L71.4 55.05 71.3 54.8 M51.0 59.8 L51.05 60.65 Q51.05 62.7 50.05 67.3 49.75 71.3 49.0 72.4 L48.3 73.05 48.3 73.3 48.5 73.2 Q48.8 73.2 50.45 74.45 L50.55 71.4 50.75 71.3 Q51.25 71.3 51.5 71.6 L51.75 59.8 51.15 59.8 51.0 59.8 M46.6 51.75 L47.05 51.55 47.15 51.5 46.8 51.2 48.3 51.0 Q52.45 51.0 53.85 49.9 52.45 49.2 49.9 49.2 L45.05 49.6 Q45.05 50.0 43.4 50.1 L42.55 50.6 43.75 51.55 46.4 51.7 46.6 51.75 M47.8 59.65 L47.8 59.75 45.15 69.1 45.25 69.05 49.0 69.35 49.45 66.4 Q50.4 61.75 50.45 59.8 L47.8 59.65 M44.0 73.15 L43.4 75.05 43.15 75.0 42.9 76.25 43.05 76.2 Q43.75 76.2 43.7 77.35 L44.95 73.5 44.0 73.15 M46.4 73.55 L45.6 75.85 44.6 78.5 Q45.25 78.75 45.15 79.75 45.15 80.7 44.4 80.9 L44.55 81.45 Q44.55 82.9 42.2 83.4 42.65 84.65 42.65 86.55 L42.65 86.7 42.85 87.45 45.55 86.5 45.45 84.45 Q45.45 82.35 45.6 82.2 L47.0 82.05 46.95 81.1 47.1 77.8 47.1 75.1 46.7 73.5 46.4 73.55 M51.15 72.3 Q51.15 75.15 50.8 75.15 L50.1 74.95 50.25 76.15 Q50.35 77.75 51.1 78.5 L51.3 75.05 Q51.3 73.4 51.65 72.5 L51.15 72.3 M51.75 78.25 L51.65 79.0 Q51.65 79.3 51.1 79.3 L51.05 79.3 51.05 79.35 50.75 80.0 51.45 80.25 Q53.55 80.25 53.05 79.5 52.35 79.45 51.9 78.35 L51.75 78.25 M54.4 80.85 L53.6 80.0 Q53.3 80.9 51.95 80.9 51.0 80.9 50.5 80.55 L50.3 80.85 Q50.3 81.35 50.9 81.8 51.05 81.4 51.5 81.2 51.8 81.25 51.8 81.65 51.8 82.9 51.05 82.9 L50.8 82.85 50.75 82.75 50.55 82.85 50.75 83.1 Q51.65 84.0 52.2 84.0 55.45 84.0 54.95 81.9 54.95 81.35 54.4 80.85 M49.2 74.45 Q48.35 73.85 48.3 73.35 L48.35 74.75 48.35 78.3 48.35 81.8 48.7 81.85 48.85 81.8 48.95 81.9 49.4 82.15 49.5 82.05 Q49.65 82.05 50.25 82.6 L50.45 82.35 Q49.85 82.2 49.7 81.65 L49.7 80.9 49.9 79.65 49.8 78.95 49.9 78.3 49.65 77.45 49.2 74.85 49.2 74.45 M50.45 79.1 L50.4 79.05 50.4 79.1 50.45 79.1 M44.3 79.1 L43.2 80.95 43.1 81.45 42.9 81.55 42.85 81.55 42.2 82.6 Q43.75 82.05 43.8 80.75 L43.45 80.6 Q43.45 80.25 44.5 80.2 L44.55 79.75 44.3 79.1 M48.3 82.5 L48.25 82.55 48.3 82.55 48.3 82.5" fill="#000000" fill-rule="evenodd" stroke="none"/>
      <path d="M47.15 48.7 L49.75 47.35 54.3 46.1 Q53.7 47.75 53.7 48.4 53.2 48.6 53.0 48.75 L50.05 48.55 47.15 48.7 M41.3 71.95 L41.75 69.95 44.4 61.2 44.1 60.8 43.8 60.85 41.45 68.55 40.3 72.7 39.7 73.35 39.7 71.6 Q39.65 70.45 38.5 70.45 35.95 71.65 35.85 71.75 L35.85 71.7 Q37.55 67.25 40.5 62.7 L42.35 60.05 Q43.45 59.25 43.65 58.3 44.9 59.15 47.15 59.55 L44.65 68.35 45.2 65.9 45.3 65.55 45.8 62.5 45.5 61.95 Q44.75 63.8 44.25 66.55 43.3 68.45 43.3 70.55 L43.3 71.3 42.8 73.3 Q41.95 71.95 41.35 71.95 L41.3 71.95 M39.25 54.8 L39.3 54.85 39.55 54.9 41.95 53.65 Q41.8 54.45 41.8 55.6 40.7 55.8 40.6 56.55 L39.2 57.3 38.05 58.1 36.2 60.0 Q34.55 61.9 33.3 61.9 L33.3 61.75 Q34.55 58.25 37.75 55.9 L39.25 54.8 M40.3 51.95 L40.4 52.15 37.35 51.9 40.25 51.1 Q41.65 50.7 41.65 50.3 L41.6 50.2 41.55 50.15 42.2 50.15 41.95 50.6 Q41.95 50.95 42.9 51.6 L43.25 51.85 Q42.35 52.05 42.1 52.65 L41.9 52.75 41.8 52.7 41.9 52.5 Q41.9 52.35 41.25 52.25 L40.6 51.8 Q40.4 51.8 40.3 51.95 M59.3 48.05 L57.7 48.1 Q60.95 47.35 65.25 47.35 L66.3 47.25 68.05 47.95 67.95 48.15 Q65.95 49.15 63.8 49.15 L61.6 48.95 61.4 48.95 Q61.4 48.05 59.3 48.05 M40.1 77.5 L39.95 77.5 41.05 72.95 41.35 72.6 42.3 74.0 42.6 74.45 42.45 75.9 Q42.0 77.5 40.1 77.5 M51.0 59.8 L51.15 59.8 51.75 59.8 51.5 71.6 Q51.25 71.3 50.75 71.3 L50.55 71.4 50.45 74.45 Q48.8 73.2 48.5 73.2 L48.3 73.3 48.3 73.05 49.0 72.4 Q49.75 71.3 50.05 67.3 51.05 62.7 51.05 60.65 L51.0 59.8 M51.15 72.3 L51.65 72.5 Q51.3 73.4 51.3 75.05 L51.1 78.5 Q50.35 77.75 50.25 76.15 L50.1 74.95 50.8 75.15 Q51.15 75.15 51.15 72.3" fill="#ffb600" fill-rule="evenodd" stroke="none"/>
      <path d="M71.3 54.8 L71.4 55.05 66.7 56.85 Q59.85 59.15 47.6 59.15 44.9 59.15 43.65 58.05 L43.65 58.0 43.5 57.75 43.35 57.7 Q42.9 57.2 42.75 56.55 L42.9 56.3 42.7 56.05 43.4 55.8 Q43.4 55.55 42.6 55.55 L42.55 55.55 42.55 55.2 42.55 55.05 43.05 52.7 Q43.25 52.45 43.55 52.3 L44.0 52.15 45.45 52.4 46.85 52.15 47.55 51.9 48.15 51.65 48.3 51.65 Q54.2 51.65 54.55 50.05 L56.2 50.3 58.55 50.2 58.3 50.35 Q59.45 51.65 62.15 52.9 66.2 54.8 70.85 54.8 L71.3 54.8" fill="#9cb9cb" fill-rule="evenodd" stroke="none"/>
      <path d="M47.8 59.65 L50.45 59.8 Q50.4 61.75 49.45 66.4 L49.0 69.35 45.25 69.05 45.15 69.1 47.8 59.75 47.8 59.65" fill="#a800a0" fill-rule="evenodd" stroke="none"/>
      <path d="M60.65 48.9 L58.85 49.45 54.55 49.9 54.55 49.8 54.5 49.5 59.1 48.7 60.65 48.9 M39.05 79.65 L39.9 79.2 41.1 79.4 42.9 79.05 40.85 82.75 39.6 82.55 Q39.35 82.55 39.2 83.0 L39.0 83.0 Q36.9 83.0 36.9 81.9 36.9 80.75 39.05 79.65 M39.85 78.4 L40.05 78.15 Q42.1 78.1 42.75 76.8 L43.05 77.65 Q43.05 78.75 41.05 78.75 L40.8 78.75 41.15 78.55 41.1 78.45 Q40.95 78.3 40.8 78.3 L39.95 78.45 39.85 78.4 M46.6 51.75 L46.4 51.7 43.75 51.55 42.55 50.6 43.4 50.1 Q45.05 50.0 45.05 49.6 L49.9 49.2 Q52.45 49.2 53.85 49.9 52.45 51.0 48.3 51.0 L46.8 51.2 47.15 51.5 47.05 51.55 46.6 51.75 M54.4 80.85 Q54.95 81.35 54.95 81.9 55.45 84.0 52.2 84.0 51.65 84.0 50.75 83.1 L50.55 82.85 50.75 82.75 50.8 82.85 51.05 82.9 Q51.8 82.9 51.8 81.65 51.8 81.25 51.5 81.2 51.05 81.4 50.9 81.8 50.3 81.35 50.3 80.85 L50.5 80.55 Q51.0 80.9 51.95 80.9 53.3 80.9 53.6 80.0 L54.4 80.85 M51.75 78.25 L51.9 78.35 Q52.35 79.45 53.05 79.5 53.55 80.25 51.45 80.25 L50.75 80.0 51.05 79.35 51.05 79.3 51.1 79.3 Q51.65 79.3 51.65 79.0 L51.75 78.25 M44.3 79.1 L44.55 79.75 44.5 80.2 Q43.45 80.25 43.45 80.6 L43.8 80.75 Q43.75 82.05 42.2 82.6 L42.85 81.55 42.9 81.55 43.1 81.45 43.2 80.95 44.3 79.1" fill="#ffffff" fill-rule="evenodd" stroke="none"/>
    </g>
  </defs>
</svg>
