<?xml version="1.0" encoding="UTF-8" standalone="no"?>
<svg xmlns:ffdec="https://www.free-decompiler.com/flash" xmlns:xlink="http://www.w3.org/1999/xlink" ffdec:objectType="frame" height="500.0px" width="500.0px" xmlns="http://www.w3.org/2000/svg">
  <g transform="matrix(5.0, 0.0, 0.0, 5.0, 0.0, 0.0)">
    <use ffdec:characterId="3" height="45.85" transform="matrix(1.0, 0.0, 0.0, 1.0, 0.0, 0.0)" width="48.2" xlink:href="#shape0"/>
  </g>
  <defs>
    <g id="shape0">
      <path d="M47.45 49.4 L59.45 42.8 59.85 42.85 59.9 43.3 Q59.9 44.8 58.5 47.15 L59.65 47.1 Q61.05 46.55 64.55 46.55 67.85 46.55 67.05 47.7 67.05 49.4 61.75 49.55 61.25 50.2 60.05 50.95 L58.4 51.75 58.5 51.8 Q59.4 51.8 61.75 52.8 L63.4 53.3 72.5 53.45 Q72.7 53.45 72.8 53.6 L73.6 53.05 Q74.4 52.45 75.05 52.45 L76.45 52.05 76.85 52.1 76.9 52.4 73.35 54.45 73.4 54.55 Q73.4 55.15 63.1 59.1 57.15 61.25 51.6 61.75 L51.6 62.1 51.6 62.3 51.65 62.55 51.65 62.65 52.95 66.55 Q53.55 67.85 56.1 70.0 L56.4 70.05 Q56.9 68.95 57.65 68.95 59.0 68.95 59.5 69.8 L59.55 69.8 Q60.3 69.8 61.05 71.0 61.95 72.4 62.3 72.6 L62.3 72.85 62.4 74.1 Q62.4 77.9 57.9 77.9 56.85 77.9 55.8 76.6 L55.8 76.3 55.65 76.3 Q54.6 76.3 54.35 75.2 L54.3 74.05 54.5 72.2 52.35 69.45 52.1 69.55 Q50.95 69.55 50.0 67.1 L48.65 70.0 48.9 70.25 46.9 73.4 48.6 75.85 48.6 76.0 49.2 76.3 49.2 76.05 49.2 75.5 Q49.3 75.1 50.2 74.35 51.25 73.45 52.05 73.45 52.7 73.45 52.55 74.95 L53.15 75.25 Q54.25 75.55 54.4 78.75 54.4 82.1 52.1 82.6 L56.15 86.25 55.55 87.55 Q54.85 88.65 54.3 88.65 53.15 88.65 49.55 85.95 46.2 84.65 46.2 83.5 L47.0 82.55 Q46.1 82.4 45.45 81.75 L45.45 81.3 45.5 81.3 45.3 80.9 45.35 80.65 Q44.45 80.15 43.2 78.65 41.7 76.9 41.2 75.45 L40.95 77.5 41.1 77.6 41.15 77.75 40.85 78.05 40.85 78.15 43.15 82.35 44.65 85.65 43.55 87.1 Q42.4 88.3 41.9 88.3 41.7 88.3 40.25 83.55 39.55 81.3 38.15 79.85 L36.95 78.65 39.8 77.75 40.45 74.9 39.65 75.35 37.6 76.3 37.3 76.0 Q38.9 72.9 39.1 71.1 L39.15 70.95 Q34.85 72.9 34.1 72.9 L33.7 72.75 Q37.35 66.1 40.35 62.6 L40.3 62.45 41.8 60.0 41.6 59.85 40.2 58.4 39.8 58.05 38.95 57.4 38.95 57.25 35.4 58.8 Q30.85 61.4 30.05 61.4 29.0 61.4 28.75 60.75 L28.7 60.05 Q28.7 58.1 34.0 55.65 36.15 54.65 38.3 53.9 38.6 53.7 39.25 53.5 38.15 53.25 37.15 52.25 36.05 51.15 36.05 50.65 36.05 50.25 39.35 49.8 L47.0 49.3 47.45 49.4 M54.0 49.2 L54.0 49.25 57.8 48.5 Q57.9 48.0 58.7 47.95 L58.8 47.65 58.25 47.65 57.95 47.35 58.2 47.2 58.05 46.95 Q58.05 46.65 59.2 43.6 L59.2 43.55 Q56.85 44.3 53.3 46.65 L48.25 49.6 51.25 49.95 51.85 49.55 Q52.8 49.05 53.55 49.05 L54.0 49.2 M60.1 47.75 L59.45 48.2 60.6 47.95 Q62.05 47.95 62.05 48.7 L62.05 48.75 Q66.45 48.35 66.45 47.75 L66.3 47.5 Q66.3 47.8 65.3 47.8 L60.3 47.7 60.1 47.75 M57.55 51.15 L59.05 50.65 Q60.35 50.1 60.95 49.55 L60.6 49.55 59.55 49.25 59.6 48.95 61.3 48.85 60.4 48.6 53.85 49.9 53.55 49.6 52.35 50.25 Q53.25 50.6 53.6 51.1 L53.9 51.05 54.65 51.25 56.85 50.8 Q57.55 50.8 57.55 51.1 L57.55 51.15 M38.15 54.5 L34.6 56.0 Q29.3 58.3 29.3 60.1 29.3 60.75 30.45 60.75 31.1 60.75 39.45 56.4 L39.3 55.15 39.3 54.3 38.4 54.55 38.15 54.5 M39.9 55.25 L40.0 56.1 40.75 55.7 41.05 56.0 40.1 56.7 40.45 57.75 41.6 59.05 Q44.2 61.25 48.15 61.25 56.25 61.25 65.15 57.8 69.3 56.2 72.55 54.6 L72.05 54.35 72.25 54.05 68.25 54.05 Q62.65 54.05 58.9 52.6 L58.85 52.6 58.6 52.5 58.05 52.25 58.05 52.15 57.7 51.9 55.7 52.15 55.4 52.1 55.3 51.85 55.3 51.8 54.6 51.9 53.8 51.7 53.8 51.8 Q53.8 53.9 49.8 53.9 L48.6 53.85 48.6 53.95 Q48.6 54.2 48.1 54.2 L46.4 53.75 46.25 53.7 45.8 53.8 Q43.7 53.8 42.9 53.2 42.75 53.55 41.95 53.55 L41.8 53.55 40.35 54.0 39.9 54.3 39.9 55.25 M40.15 53.1 L40.6 53.05 40.8 53.15 41.7 53.0 42.4 52.8 42.55 52.8 42.3 52.05 Q42.3 51.05 43.0 50.45 L36.8 50.85 Q37.1 51.55 40.15 53.1 M35.15 71.85 L36.95 71.0 Q38.3 70.3 39.15 70.3 L39.75 70.35 39.8 70.8 Q39.8 72.2 38.4 75.2 L38.4 75.25 38.35 75.3 38.45 75.25 40.75 74.0 40.0 71.65 39.95 69.2 Q39.95 65.05 41.3 63.45 L41.6 63.5 41.65 63.75 Q41.65 64.5 40.75 66.5 L40.55 69.15 Q40.55 77.05 46.35 80.2 L46.95 78.95 Q46.95 77.85 46.4 77.7 L45.1 76.8 44.05 74.9 43.05 74.7 43.05 74.35 43.05 74.1 43.35 74.05 43.75 74.2 Q42.7 71.85 42.7 69.85 42.7 65.5 43.55 65.2 L43.85 65.25 43.9 65.5 43.3 69.85 43.6 69.8 43.7 69.8 Q43.95 68.4 44.85 66.0 L46.25 63.05 46.3 61.8 Q44.0 61.45 42.3 60.35 L41.75 61.35 41.4 62.0 39.35 65.0 Q36.9 68.55 35.25 71.8 L35.15 71.85 M61.55 73.2 L61.55 73.05 Q61.1 72.75 60.65 71.85 L59.8 70.7 59.75 71.0 59.4 71.05 59.05 71.0 59.05 70.85 Q58.35 71.8 57.2 75.7 L58.55 76.35 58.9 76.05 59.25 76.1 59.3 76.35 Q59.3 77.15 58.55 77.15 58.2 77.15 57.35 76.45 L56.55 75.6 56.8 74.8 Q55.7 74.6 55.7 73.25 55.7 72.25 56.05 71.0 L55.6 70.65 Q54.9 73.3 54.9 74.05 54.9 74.95 55.05 75.15 L55.85 75.85 56.0 75.8 56.65 76.55 Q57.15 77.25 57.9 77.25 61.8 77.25 61.8 74.0 L61.55 73.2 M47.05 53.1 L47.3 52.95 49.8 53.25 Q53.2 53.25 53.2 51.9 53.2 51.05 51.6 50.65 L51.1 50.9 50.8 50.6 50.85 50.5 46.6 50.2 Q44.25 50.2 43.35 51.15 42.9 51.6 42.9 52.1 42.9 52.65 45.45 53.2 L45.4 53.1 Q45.4 52.85 45.7 52.85 L47.05 53.15 47.05 53.1 M51.65 51.8 L51.55 52.55 51.25 52.65 50.8 52.05 Q50.8 51.7 51.25 51.45 L51.65 51.8 M51.1 61.8 L48.15 61.9 47.1 61.85 47.05 62.2 47.25 62.25 47.4 62.5 46.85 63.55 46.8 63.75 46.7 63.8 45.9 65.15 Q44.65 67.65 44.3 70.1 L45.55 70.75 48.0 70.0 49.6 66.05 49.55 65.85 49.75 65.75 50.9 62.65 50.8 62.1 50.85 61.85 51.1 61.8 M51.3 63.95 L50.35 66.35 51.6 68.1 51.85 67.95 53.65 69.95 54.7 71.35 Q54.85 70.6 55.15 70.25 L54.4 69.5 52.4 66.95 51.3 63.95 M56.9 70.6 L57.65 71.2 Q57.65 71.55 57.25 71.55 L56.65 71.4 Q56.4 72.25 56.3 73.15 L57.05 74.1 57.7 72.6 58.9 70.35 Q58.55 69.6 57.65 69.6 57.25 69.6 56.9 70.6 M51.5 77.2 L51.95 75.9 51.95 74.2 Q50.05 74.7 49.85 75.8 L50.0 76.0 49.55 76.85 Q49.85 77.55 49.55 78.7 49.6 80.3 49.25 81.2 L49.4 81.3 50.05 81.8 50.8 82.0 Q53.85 82.0 53.8 78.75 53.8 77.75 52.9 76.0 L52.5 75.9 52.0 77.6 52.05 77.7 51.75 78.05 51.6 78.3 51.3 78.0 50.45 77.45 50.45 77.1 50.8 77.05 51.5 77.2 M46.1 76.25 Q46.2 75.9 46.95 75.85 L46.55 75.2 46.2 74.15 44.8 74.9 45.95 76.45 46.1 76.25 M46.45 76.9 L46.85 77.15 Q47.55 77.55 47.55 78.95 47.55 81.15 46.3 81.15 L46.05 81.1 45.95 80.85 46.0 80.8 45.7 80.75 45.9 81.25 46.85 81.9 47.65 81.75 47.7 81.7 47.75 81.7 48.15 81.45 47.95 80.95 48.25 80.8 48.55 80.85 Q48.95 80.05 48.95 78.6 49.4 76.45 47.5 76.45 L46.75 76.6 46.45 76.9" fill="#000000" fill-rule="evenodd" stroke="none"/>
      <path d="M60.1 47.75 L60.3 47.7 65.3 47.8 Q66.3 47.8 66.3 47.5 L66.45 47.75 Q66.45 48.35 62.05 48.75 L62.05 48.7 Q62.05 47.95 60.6 47.95 L59.45 48.2 60.1 47.75 M54.0 49.2 L53.55 49.05 Q52.8 49.05 51.85 49.55 L51.25 49.95 48.25 49.6 53.3 46.65 Q56.85 44.3 59.2 43.55 L59.2 43.6 Q58.05 46.65 58.05 46.95 L58.2 47.2 57.95 47.35 58.25 47.65 58.8 47.65 58.7 47.95 Q57.9 48.0 57.8 48.5 L54.0 49.25 54.0 49.2 M38.15 54.5 L38.4 54.55 39.3 54.3 39.3 55.15 39.45 56.4 Q31.1 60.75 30.45 60.75 29.3 60.75 29.3 60.1 29.3 58.3 34.6 56.0 L38.15 54.5 M35.15 71.85 L35.25 71.8 Q36.9 68.55 39.35 65.0 L41.4 62.0 41.75 61.35 42.3 60.35 Q44.0 61.45 46.3 61.8 L46.25 63.05 44.85 66.0 Q43.95 68.4 43.7 69.8 L43.6 69.8 43.3 69.85 43.9 65.5 43.85 65.25 43.55 65.2 Q42.7 65.5 42.7 69.85 42.7 71.85 43.75 74.2 L43.35 74.05 43.05 74.1 43.05 74.35 43.05 74.7 44.05 74.9 45.1 76.8 46.4 77.7 Q46.95 77.85 46.95 78.95 L46.35 80.2 Q40.55 77.05 40.55 69.15 L40.75 66.5 Q41.65 64.5 41.65 63.75 L41.6 63.5 41.3 63.45 Q39.95 65.05 39.95 69.2 L40.0 71.65 40.75 74.0 38.45 75.25 38.35 75.3 38.4 75.25 38.4 75.2 Q39.8 72.2 39.8 70.8 L39.75 70.35 39.15 70.3 Q38.3 70.3 36.95 71.0 L35.15 71.85 M40.15 53.1 Q37.1 51.55 36.8 50.85 L43.0 50.45 Q42.3 51.05 42.3 52.05 L42.55 52.8 42.4 52.8 41.7 53.0 40.8 53.15 40.6 53.05 40.15 53.1 M51.3 63.95 L52.4 66.95 54.4 69.5 55.15 70.25 Q54.85 70.6 54.7 71.35 L53.65 69.95 51.85 67.95 51.6 68.1 50.35 66.35 51.3 63.95" fill="#ffb600" fill-rule="evenodd" stroke="none"/>
      <path d="M39.9 55.25 L39.9 54.3 40.35 54.0 41.8 53.55 41.95 53.55 Q42.75 53.55 42.9 53.2 43.7 53.8 45.8 53.8 L46.25 53.7 46.4 53.75 48.1 54.2 Q48.6 54.2 48.6 53.95 L48.6 53.85 49.8 53.9 Q53.8 53.9 53.8 51.8 L53.8 51.7 54.6 51.9 55.3 51.8 55.3 51.85 55.4 52.1 55.7 52.15 57.7 51.9 58.05 52.15 58.05 52.25 58.6 52.5 58.85 52.6 58.9 52.6 Q62.65 54.05 68.25 54.05 L72.25 54.05 72.05 54.35 72.55 54.6 Q69.3 56.2 65.15 57.8 56.25 61.25 48.15 61.25 44.2 61.25 41.6 59.05 L40.45 57.75 40.1 56.7 41.05 56.0 40.75 55.7 40.0 56.1 39.9 55.25 M47.05 53.15 L47.05 53.1 47.05 53.15" fill="#9cb9cb" fill-rule="evenodd" stroke="none"/>
      <path d="M51.1 61.8 L50.85 61.85 50.8 62.1 50.9 62.65 49.75 65.75 49.55 65.85 49.6 66.05 48.0 70.0 45.55 70.75 44.3 70.1 Q44.65 67.65 45.9 65.15 L46.7 63.8 46.8 63.75 46.85 63.55 47.4 62.5 47.25 62.25 47.05 62.2 47.1 61.85 48.15 61.9 51.1 61.8" fill="#a800a0" fill-rule="evenodd" stroke="none"/>
      <path d="M57.55 51.1 Q57.55 50.8 56.85 50.8 L54.65 51.25 53.9 51.05 53.6 51.1 Q53.25 50.6 52.35 50.25 L53.55 49.6 53.85 49.9 60.4 48.6 61.3 48.85 59.6 48.95 59.55 49.25 60.6 49.55 60.95 49.55 Q60.35 50.1 59.05 50.65 L57.55 51.15 57.55 51.1 M47.05 53.15 L45.7 52.85 Q45.4 52.85 45.4 53.1 L45.45 53.2 Q42.9 52.65 42.9 52.1 42.9 51.6 43.35 51.15 44.25 50.2 46.6 50.2 L50.85 50.5 50.8 50.6 51.1 50.9 51.6 50.65 Q53.2 51.05 53.2 51.9 53.2 53.25 49.8 53.25 L47.3 52.95 47.05 53.1 47.05 53.15 M61.55 73.2 L61.8 74.0 Q61.8 77.25 57.9 77.25 57.15 77.25 56.65 76.55 L56.0 75.8 55.85 75.85 55.05 75.15 Q54.9 74.95 54.9 74.05 54.9 73.3 55.6 70.65 L56.05 71.0 Q55.7 72.25 55.7 73.25 55.7 74.6 56.8 74.8 L56.55 75.6 57.35 76.45 Q58.2 77.15 58.55 77.15 59.3 77.15 59.3 76.35 L59.25 76.1 58.9 76.05 58.55 76.35 57.2 75.7 Q58.35 71.8 59.05 70.85 L59.05 71.0 59.4 71.05 59.75 71.0 59.8 70.7 60.65 71.85 Q61.1 72.75 61.55 73.05 L61.55 73.2 M51.65 51.8 L51.25 51.45 Q50.8 51.7 50.8 52.05 L51.25 52.65 51.55 52.55 51.65 51.8 M51.5 77.2 L50.8 77.05 50.45 77.1 50.45 77.45 51.3 78.0 51.6 78.3 51.75 78.05 52.05 77.7 52.0 77.6 52.5 75.9 52.9 76.0 Q53.8 77.75 53.8 78.75 53.85 82.0 50.8 82.0 L50.05 81.8 49.4 81.3 49.25 81.2 Q49.6 80.3 49.55 78.7 49.85 77.55 49.55 76.85 L50.0 76.0 49.85 75.8 Q50.05 74.7 51.95 74.2 L51.95 75.9 51.5 77.2 M56.9 70.6 Q57.25 69.6 57.65 69.6 58.55 69.6 58.9 70.35 L57.7 72.6 57.05 74.1 56.3 73.15 Q56.4 72.25 56.65 71.4 L57.25 71.55 Q57.65 71.55 57.65 71.2 L56.9 70.6 M46.45 76.9 L46.75 76.6 47.5 76.45 Q49.4 76.45 48.95 78.6 48.95 80.05 48.55 80.85 L48.25 80.8 47.95 80.95 48.15 81.45 47.75 81.7 47.7 81.7 47.65 81.75 46.85 81.9 45.9 81.25 45.7 80.75 46.0 80.8 45.95 80.85 46.05 81.1 46.3 81.15 Q47.55 81.15 47.55 78.95 47.55 77.55 46.85 77.15 L46.45 76.9" fill="#ffffff" fill-rule="evenodd" stroke="none"/>
    </g>
  </defs>
</svg>
