<?xml version="1.0" encoding="UTF-8" standalone="no"?>
<svg xmlns:ffdec="https://www.free-decompiler.com/flash" xmlns:xlink="http://www.w3.org/1999/xlink" ffdec:objectType="frame" height="500.0px" width="500.0px" xmlns="http://www.w3.org/2000/svg">
  <g transform="matrix(5.0, 0.0, 0.0, 5.0, 0.0, 0.0)">
    <use ffdec:characterId="4" height="41.75" transform="matrix(1.0, 0.0, 0.0, 1.0, 0.0, 0.0)" width="50.95" xlink:href="#shape0"/>
  </g>
  <defs>
    <g id="shape0">
      <path d="M47.75 48.15 L58.75 42.3 59.1 42.65 Q59.05 43.2 58.0 44.8 L57.55 45.4 57.65 45.5 56.4 47.5 57.3 47.45 Q60.65 47.45 60.55 49.95 60.5 51.05 58.8 51.9 L60.3 52.45 64.5 53.15 71.25 52.95 71.25 52.85 Q73.05 50.9 75.55 50.2 L76.25 50.25 76.3 50.5 Q73.2 53.5 71.75 53.55 L72.1 53.8 69.3 56.3 Q66.4 58.55 65.55 58.9 61.3 60.45 55.9 61.2 L56.55 61.55 Q57.45 62.0 57.95 62.35 L58.35 62.35 Q59.0 61.3 60.2 61.3 61.35 61.3 61.75 62.35 L62.25 62.35 Q62.45 61.95 63.15 61.95 63.75 61.95 64.3 62.35 L64.6 62.35 Q66.1 62.65 67.3 64.7 L67.0 65.15 66.25 64.7 66.55 67.4 66.55 67.75 66.4 67.85 66.35 67.85 66.55 69.0 Q66.75 71.15 65.5 71.15 64.85 71.15 63.9 70.35 62.85 71.65 60.9 71.65 60.05 71.65 59.4 70.95 L58.9 70.25 57.8 69.35 Q57.1 70.55 56.2 70.55 55.35 70.55 54.45 69.65 L54.45 69.15 51.45 69.3 51.25 69.3 Q51.95 70.0 51.85 71.6 L51.65 74.5 51.6 74.7 51.4 74.8 Q51.15 74.8 50.35 73.5 49.55 72.2 48.8 72.2 L48.2 72.95 48.9 74.75 47.55 75.25 47.8 76.0 49.3 77.55 Q51.2 79.55 54.0 79.55 L54.35 79.6 54.4 79.9 53.35 82.1 Q53.1 84.05 52.3 84.05 L48.7 81.35 46.4 80.1 Q43.05 79.75 43.05 79.25 43.05 77.85 44.2 78.2 L43.95 77.85 Q43.95 77.6 45.3 76.6 45.85 76.15 46.3 75.95 L46.2 75.5 45.1 75.65 40.35 76.15 39.6 76.0 38.15 76.15 37.9 76.1 37.8 75.85 38.05 75.65 38.0 75.65 37.7 75.35 Q37.7 74.85 40.8 72.7 L40.9 72.6 40.7 71.95 Q40.4 70.85 39.4 70.85 38.2 70.85 35.1 73.55 L34.8 73.15 35.2 71.6 33.25 71.6 31.85 72.05 31.45 72.0 31.45 71.35 Q32.35 69.5 35.0 65.35 35.5 64.5 36.75 63.35 L36.95 62.0 36.35 62.35 35.3 62.35 35.8 61.95 37.0 61.1 37.0 61.0 Q37.0 60.55 37.35 60.45 L37.55 60.75 37.75 60.65 37.85 60.55 37.9 60.55 39.15 59.95 Q37.75 58.65 37.75 56.45 L37.85 55.6 34.35 56.7 Q27.5 59.65 26.75 59.65 25.35 59.65 25.35 58.6 25.35 56.75 31.15 55.1 34.2 54.2 39.75 53.05 L39.3 52.6 Q38.15 52.3 36.65 51.05 34.85 49.55 34.3 48.35 L34.55 48.2 38.75 48.5 47.05 48.05 47.75 48.15 M57.95 43.55 Q52.5 46.7 48.15 48.45 L48.65 48.45 Q50.9 48.45 52.05 49.2 L51.95 48.95 Q51.95 48.3 52.6 47.95 L52.8 48.3 Q53.85 47.65 55.8 47.5 55.8 46.4 56.55 45.75 L58.0 43.6 58.05 43.5 57.95 43.55 M43.95 48.95 L35.85 49.1 38.85 51.3 39.85 52.0 40.3 52.3 40.2 52.45 40.6 52.95 40.85 53.15 41.85 52.9 41.55 52.45 Q41.65 52.3 41.95 52.3 L42.6 52.55 42.5 51.55 Q42.5 49.6 44.85 48.9 L43.95 48.95 M57.0 51.85 L56.95 51.85 56.85 51.6 Q56.8 50.55 57.65 50.55 57.85 50.55 58.05 50.7 L58.1 50.85 57.4 51.8 58.5 51.35 Q59.85 50.65 59.85 49.9 59.85 48.1 57.0 48.1 55.5 48.1 54.1 48.65 L52.9 49.05 52.75 49.8 Q53.3 50.55 53.3 51.65 L53.2 52.2 53.75 52.25 57.0 51.9 57.1 51.9 57.0 51.85 M38.7 54.3 L38.8 54.4 39.55 54.15 38.6 54.15 38.45 54.1 32.0 55.5 Q30.3 55.8 28.2 56.95 26.05 58.1 26.05 58.65 L26.1 58.95 26.9 59.0 Q28.05 59.0 34.4 56.05 L37.75 54.8 38.3 54.6 38.7 54.3 M55.65 68.5 L55.8 68.0 Q55.8 66.9 55.4 66.25 L52.3 66.55 51.9 66.55 51.8 66.9 51.5 67.05 Q51.2 66.95 51.2 66.55 46.75 66.3 44.15 64.4 L42.3 62.35 43.4 62.35 44.7 63.8 45.15 64.1 45.3 63.75 45.3 62.35 44.8 62.35 45.2 61.8 Q41.6 61.7 39.75 60.45 L38.2 61.25 38.15 61.45 38.6 61.2 38.9 61.5 38.6 62.25 38.7 62.35 38.75 62.35 38.35 62.65 37.0 64.3 36.85 64.05 35.6 65.6 32.3 71.1 32.25 71.2 32.35 71.2 34.35 70.95 Q36.0 70.95 36.05 71.35 L35.75 72.05 37.15 71.05 Q38.35 70.2 39.4 70.2 L40.0 70.3 Q40.15 69.95 40.65 69.95 L41.4 70.05 41.95 68.75 41.8 68.45 Q41.9 68.3 42.15 68.3 42.8 67.05 43.45 66.55 L42.3 65.55 Q40.4 63.7 39.7 62.35 L40.45 62.35 40.1 61.95 40.1 61.1 40.45 61.05 41.75 62.35 40.75 62.35 42.15 64.6 43.95 66.25 44.2 66.2 44.5 66.25 44.65 66.5 44.6 66.7 Q47.5 68.6 51.4 68.6 L55.15 68.2 55.4 68.25 55.55 68.5 55.05 69.0 55.1 69.25 Q55.25 69.9 55.6 69.9 57.35 69.9 57.8 67.6 57.05 64.95 56.05 64.95 55.25 64.95 55.1 65.45 L55.05 65.8 Q55.7 65.7 55.55 65.6 56.2 66.1 56.4 68.1 L56.35 68.75 56.0 68.8 55.55 68.65 55.65 68.5 M71.7 53.55 L71.35 53.5 66.65 53.8 Q58.8 53.8 57.95 52.25 L53.65 52.9 52.65 52.9 51.4 53.7 Q49.2 54.8 46.1 54.8 43.7 54.8 42.9 53.4 L41.75 53.9 42.15 54.4 Q42.1 54.55 41.85 54.55 L40.9 54.1 38.9 55.2 38.45 56.45 Q38.45 61.15 45.95 61.15 64.55 61.15 71.7 53.6 L71.75 53.55 71.7 53.55 M65.65 62.3 L66.25 62.35 65.25 62.35 65.65 62.3 M63.9 63.85 L63.85 64.05 63.65 64.15 Q64.6 65.3 64.8 67.9 64.8 68.9 64.2 69.9 64.55 70.5 65.2 70.5 66.2 70.5 65.95 69.0 65.95 66.7 65.55 65.2 L65.8 65.05 65.85 64.35 65.6 64.05 Q64.65 62.95 64.05 62.95 L63.8 63.5 63.9 63.85 M63.25 62.7 L63.75 62.35 62.95 62.35 63.25 62.7 M61.15 62.35 L60.85 62.35 60.8 62.25 Q60.55 61.95 60.2 61.95 59.6 61.95 59.2 62.35 L58.5 62.35 Q57.95 62.95 57.85 64.55 L57.65 64.65 57.5 65.1 Q58.1 65.9 58.4 67.6 L58.05 68.85 58.95 69.6 59.0 69.55 Q59.45 69.55 60.9 71.0 62.45 71.0 63.4 69.9 L63.2 69.7 63.2 68.35 63.4 68.3 63.75 68.35 63.9 69.1 64.2 67.9 Q64.0 66.4 63.6 65.5 L63.35 65.65 Q62.9 65.65 62.8 65.05 L62.8 64.45 62.8 64.35 Q62.4 64.0 61.95 63.95 L61.9 63.95 61.9 64.0 61.85 64.2 61.65 64.3 Q61.3 64.3 61.15 64.1 L60.95 64.25 60.9 64.6 Q60.9 65.8 60.45 65.8 L60.05 65.65 59.85 65.8 59.45 65.65 Q59.65 64.4 60.3 63.8 L59.95 62.35 60.75 62.35 60.95 63.45 61.05 63.4 61.05 63.2 61.05 62.55 61.15 62.35 M61.7 63.3 L62.9 63.55 62.95 63.3 Q62.3 62.65 61.8 62.6 L61.65 63.2 61.65 63.3 61.7 63.3 M52.15 49.85 Q50.95 48.45 46.7 49.1 43.2 49.8 43.2 51.45 43.2 54.0 47.65 54.0 49.15 54.0 50.95 53.1 L51.55 52.75 51.15 52.65 51.15 52.1 51.5 52.05 52.4 52.15 52.6 51.65 Q52.7 50.8 52.45 50.25 L52.35 50.3 52.05 50.0 52.15 49.85 M52.05 61.75 L52.1 61.6 51.3 61.65 51.3 63.7 51.05 63.8 50.7 63.75 50.7 63.1 50.55 63.15 50.05 63.55 50.0 63.55 Q49.3 64.7 49.5 65.85 L50.3 65.9 51.25 65.9 Q51.35 64.3 52.1 62.35 L51.8 62.35 51.95 62.0 51.7 61.75 51.7 61.65 51.85 61.65 52.05 61.75 M57.45 63.05 L57.4 63.05 Q56.2 62.8 55.55 62.35 L55.75 62.35 Q55.0 61.95 54.75 61.35 L52.75 61.55 52.7 61.95 52.7 62.0 53.05 61.95 53.3 62.05 53.95 62.35 54.55 62.65 54.8 62.8 54.8 62.9 55.3 63.35 55.8 63.7 55.85 63.7 Q57.05 64.4 57.05 64.45 L56.95 64.55 57.05 64.6 57.35 64.1 57.3 63.75 Q57.3 63.45 57.45 63.05 M50.35 52.3 L50.9 52.65 Q50.85 53.3 49.8 53.3 L48.65 53.05 48.55 52.75 Q48.55 52.05 49.55 52.05 50.15 52.05 50.15 52.6 L50.35 52.3 M46.8 61.8 L46.7 62.35 46.9 62.35 46.5 62.95 46.1 64.1 46.0 64.15 45.95 64.2 45.85 64.55 Q47.4 65.4 48.8 65.75 L48.8 64.6 49.7 63.25 49.7 63.15 Q49.7 62.6 50.0 62.35 L49.75 62.35 50.25 61.7 46.8 61.8 M42.95 68.5 L43.3 68.75 Q43.9 68.8 46.15 69.55 L46.5 69.6 46.55 69.9 Q47.0 69.0 47.4 68.7 45.7 68.1 44.25 67.1 L43.1 68.25 42.95 68.5 M47.8 68.8 L47.75 68.8 47.8 68.85 Q47.8 69.55 46.45 71.1 L47.3 70.8 47.85 72.15 Q48.45 71.55 48.8 71.55 50.2 71.55 50.85 73.2 L50.95 73.2 51.25 69.3 47.8 68.8 M46.85 73.55 L46.8 73.5 46.85 73.55 M47.1 74.05 L47.0 73.95 47.1 74.1 47.1 74.05 M57.75 62.35 L57.4 62.35 57.65 62.55 57.7 62.45 57.75 62.35 M53.45 63.0 L52.75 62.65 52.05 65.9 54.45 65.85 54.45 65.25 Q54.6 64.45 55.65 64.35 L53.9 63.1 53.45 63.0 M52.7 62.0 L52.65 62.1 52.75 62.15 52.7 62.0 M44.2 78.95 L44.2 78.85 43.95 78.9 44.2 78.95" fill="#000000" fill-rule="evenodd" stroke="none"/>
      <path d="M58.0 43.6 L56.55 45.75 Q55.8 46.4 55.8 47.5 53.85 47.65 52.8 48.3 L52.6 47.95 Q51.95 48.3 51.95 48.95 L52.05 49.2 Q50.9 48.45 48.65 48.45 L48.15 48.45 Q52.5 46.7 57.95 43.55 L58.0 43.6 M43.95 48.95 L44.85 48.9 Q42.5 49.6 42.5 51.55 L42.6 52.55 41.95 52.3 Q41.65 52.3 41.55 52.45 L41.85 52.9 40.85 53.15 40.6 52.95 40.2 52.45 40.3 52.3 39.85 52.0 38.85 51.3 35.85 49.1 43.95 48.95 M32.3 71.1 L35.6 65.6 36.85 64.05 37.0 64.3 38.35 62.65 38.75 62.35 38.7 62.35 38.6 62.25 38.9 61.5 38.6 61.2 38.15 61.45 38.2 61.25 39.75 60.45 Q41.6 61.7 45.2 61.8 L44.8 62.35 45.3 62.35 45.3 63.75 45.15 64.1 44.7 63.8 43.4 62.35 42.3 62.35 44.15 64.4 Q46.75 66.3 51.2 66.55 51.2 66.95 51.5 67.05 L51.8 66.9 51.9 66.55 52.3 66.55 55.4 66.25 Q55.8 66.9 55.8 68.0 L55.65 68.5 55.55 68.5 55.4 68.25 55.15 68.2 51.4 68.6 Q47.5 68.6 44.6 66.7 L44.65 66.5 44.5 66.25 44.2 66.2 43.95 66.25 42.15 64.6 40.75 62.35 41.75 62.35 40.45 61.05 40.1 61.1 40.1 61.95 40.45 62.35 39.7 62.35 Q40.4 63.7 42.3 65.55 L43.45 66.55 Q42.8 67.05 42.15 68.3 41.9 68.3 41.8 68.45 L41.95 68.75 41.4 70.05 40.65 69.95 Q40.15 69.95 40.0 70.3 L39.4 70.2 Q38.35 70.2 37.15 71.05 L35.75 72.05 36.05 71.35 Q36.0 70.95 34.35 70.95 L32.35 71.2 32.3 71.1 M38.7 54.3 L38.3 54.6 37.75 54.8 34.4 56.05 Q28.05 59.0 26.9 59.0 L26.1 58.95 26.05 58.65 Q26.05 58.1 28.2 56.95 30.3 55.8 32.0 55.5 L38.45 54.1 38.6 54.15 39.55 54.15 38.8 54.4 38.7 54.3 M57.45 63.05 Q57.3 63.45 57.3 63.75 L57.35 64.1 57.05 64.6 56.95 64.55 57.05 64.45 Q57.05 64.4 55.85 63.7 L55.8 63.7 55.3 63.35 54.8 62.9 54.8 62.8 54.55 62.65 53.95 62.35 53.3 62.05 53.05 61.95 52.7 62.0 52.7 61.95 52.75 61.55 54.75 61.35 Q55.0 61.95 55.75 62.35 L55.55 62.35 Q56.2 62.8 57.4 63.05 L57.45 63.05 M52.05 61.75 L51.85 61.65 51.7 61.65 51.7 61.75 51.95 62.0 51.8 62.35 52.1 62.35 Q51.35 64.3 51.25 65.9 L50.3 65.9 49.5 65.85 Q49.3 64.7 50.0 63.55 L50.05 63.55 50.55 63.15 50.7 63.1 50.7 63.75 51.05 63.8 51.3 63.7 51.3 61.65 52.1 61.6 52.05 61.75 M47.8 68.85 L47.8 68.8 51.25 69.3 50.95 73.2 50.85 73.2 Q50.2 71.55 48.8 71.55 48.45 71.55 47.85 72.15 L47.3 70.8 46.45 71.1 Q47.8 69.55 47.8 68.85" fill="#ffb600" fill-rule="evenodd" stroke="none"/>
      <path d="M71.7 53.6 Q64.55 61.15 45.95 61.15 38.45 61.15 38.45 56.45 L38.9 55.2 40.9 54.1 41.85 54.55 Q42.1 54.55 42.15 54.4 L41.75 53.9 42.9 53.4 Q43.7 54.8 46.1 54.8 49.2 54.8 51.4 53.7 L52.65 52.9 53.65 52.9 57.95 52.25 Q58.8 53.8 66.65 53.8 L71.35 53.5 71.7 53.55 71.7 53.6" fill="#9cb9cb" fill-rule="evenodd" stroke="none"/>
      <path d="M42.95 68.5 L43.1 68.25 44.25 67.1 Q45.7 68.1 47.4 68.7 47.0 69.0 46.55 69.9 L46.5 69.6 46.15 69.55 Q43.9 68.8 43.3 68.75 L42.95 68.5 M46.8 61.8 L50.25 61.7 49.75 62.35 50.0 62.35 Q49.7 62.6 49.7 63.15 L49.7 63.25 48.8 64.6 48.8 65.75 Q47.4 65.4 45.85 64.55 L45.95 64.2 46.0 64.15 46.1 64.1 46.5 62.95 46.9 62.35 46.7 62.35 46.8 61.8" fill="#a800a0" fill-rule="evenodd" stroke="none"/>
      <path d="M57.0 51.9 L53.75 52.25 53.2 52.2 53.3 51.65 Q53.3 50.55 52.75 49.8 L52.9 49.05 54.1 48.65 Q55.5 48.1 57.0 48.1 59.85 48.1 59.85 49.9 59.85 50.65 58.5 51.35 L57.4 51.8 58.1 50.85 58.05 50.7 Q57.85 50.55 57.65 50.55 56.8 50.55 56.85 51.6 L56.95 51.85 57.0 51.85 57.0 51.9 M55.55 68.5 L55.65 68.5 55.55 68.65 56.0 68.8 56.35 68.75 56.4 68.1 Q56.2 66.1 55.55 65.6 55.7 65.7 55.05 65.8 L55.1 65.45 Q55.25 64.95 56.05 64.95 57.05 64.95 57.8 67.6 57.35 69.9 55.6 69.9 55.25 69.9 55.1 69.25 L55.05 69.0 55.55 68.5 M63.9 63.85 L63.8 63.5 64.05 62.95 Q64.65 62.95 65.6 64.05 L65.85 64.35 65.8 65.05 65.55 65.2 Q65.95 66.7 65.95 69.0 66.2 70.5 65.2 70.5 64.55 70.5 64.2 69.9 64.8 68.9 64.8 67.9 64.6 65.3 63.65 64.15 L63.85 64.05 63.9 63.85 M52.15 49.85 L52.05 50.0 52.35 50.3 52.45 50.25 Q52.7 50.8 52.6 51.65 L52.4 52.15 51.5 52.05 51.15 52.1 51.15 52.65 51.55 52.75 50.95 53.1 Q49.15 54.0 47.65 54.0 43.2 54.0 43.2 51.45 43.2 49.8 46.7 49.1 50.95 48.45 52.15 49.85 M61.7 63.3 L61.65 63.3 61.65 63.2 61.8 62.6 Q62.3 62.65 62.95 63.3 L62.9 63.55 61.7 63.3 M61.15 62.35 L61.05 62.55 61.05 63.2 61.05 63.4 60.95 63.45 60.75 62.35 59.95 62.35 60.3 63.8 Q59.65 64.4 59.45 65.65 L59.85 65.8 60.05 65.65 60.45 65.8 Q60.9 65.8 60.9 64.6 L60.95 64.25 61.15 64.1 Q61.3 64.3 61.65 64.3 L61.85 64.2 61.9 64.0 61.9 63.95 61.95 63.95 Q62.4 64.0 62.8 64.35 L62.8 64.45 62.8 65.05 Q62.9 65.65 63.35 65.65 L63.6 65.5 Q64.0 66.4 64.2 67.9 L63.9 69.1 63.75 68.35 63.4 68.3 63.2 68.35 63.2 69.7 63.4 69.9 Q62.45 71.0 60.9 71.0 59.45 69.55 59.0 69.55 L58.95 69.6 58.05 68.85 58.4 67.6 Q58.1 65.9 57.5 65.1 L57.65 64.65 57.85 64.55 Q57.95 62.95 58.5 62.35 L59.2 62.35 Q59.6 61.95 60.2 61.95 60.55 61.95 60.8 62.25 L60.85 62.35 61.15 62.35 M50.35 52.3 L50.15 52.6 Q50.15 52.05 49.55 52.05 48.55 52.05 48.55 52.75 L48.65 53.05 49.8 53.3 Q50.85 53.3 50.9 52.65 L50.35 52.3" fill="#ffffff" fill-rule="evenodd" stroke="none"/>
    </g>
  </defs>
</svg>
