<?xml version="1.0" encoding="UTF-8" standalone="no"?>
<svg xmlns:ffdec="https://www.free-decompiler.com/flash" xmlns:xlink="http://www.w3.org/1999/xlink" ffdec:objectType="frame" height="500.0px" width="500.0px" xmlns="http://www.w3.org/2000/svg">
  <g transform="matrix(5.0, 0.0, 0.0, 5.0, 0.0, 0.0)">
    <use ffdec:characterId="5" height="41.5" transform="matrix(1.0, 0.0, 0.0, 1.0, 0.0, 0.0)" width="42.55" xlink:href="#shape0"/>
  </g>
  <defs>
    <g id="shape0">
      <path d="M56.4 48.25 L57.85 48.3 58.0 48.45 58.35 48.6 58.95 49.1 Q59.4 49.55 59.4 50.35 59.4 51.3 57.15 52.4 L56.75 52.6 Q54.65 53.5 52.8 53.5 L52.0 53.2 52.45 51.85 Q52.45 50.75 51.8 50.1 L53.1 49.05 Q54.55 48.4 56.4 48.25 M34.65 60.9 L34.9 61.15 36.0 60.8 37.35 60.8 37.35 61.95 36.65 62.35 35.75 61.75 Q35.4 61.75 35.4 62.05 L37.75 63.75 38.1 63.45 37.15 62.75 37.65 62.5 38.25 62.9 Q39.0 63.45 39.0 64.6 39.0 65.3 38.25 66.2 37.3 67.3 35.95 67.3 32.55 67.3 32.55 64.95 32.55 64.5 32.95 64.0 L33.15 63.8 33.25 63.65 33.95 62.9 Q33.95 62.6 33.6 62.6 33.1 62.6 32.55 63.4 L31.95 63.55 Q31.6 63.55 31.6 63.1 31.6 62.9 32.5 62.15 L32.7 61.95 32.8 61.85 Q33.0 61.65 33.7 61.3 34.15 60.95 34.65 60.9 M39.8 66.7 L39.75 66.65 39.75 66.35 Q39.85 65.65 40.6 64.75 L41.7 64.0 41.75 64.0 42.05 63.8 42.5 63.65 42.4 63.95 Q42.4 64.3 42.7 64.3 L44.1 63.55 44.7 63.55 44.7 64.0 44.05 64.95 43.75 64.75 Q43.4 64.75 43.4 65.05 L43.85 65.6 44.5 66.05 Q44.95 66.05 44.95 65.65 L44.55 65.4 45.1 64.9 45.5 65.1 45.45 65.25 45.75 65.55 45.95 65.4 46.05 65.45 Q47.3 66.1 47.3 67.0 47.3 69.0 44.55 70.35 L44.3 70.25 43.6 70.4 Q40.9 70.4 40.9 67.3 L40.9 66.9 41.2 66.4 40.9 66.1 Q40.7 66.1 40.55 66.25 L39.8 66.7 M50.3 52.9 Q50.3 52.4 49.95 52.4 49.15 52.4 49.15 53.05 49.15 53.55 49.75 53.55 50.3 53.55 50.3 52.9 M51.85 51.85 Q51.85 52.45 51.05 53.4 49.65 54.8 48.0 54.8 L47.7 54.65 46.1 54.9 Q44.2 54.15 44.2 52.45 44.2 50.25 47.25 49.5 51.85 49.25 51.85 51.85 M56.75 51.15 Q56.05 51.15 56.05 51.55 56.05 52.55 56.75 52.55 57.1 52.55 57.1 51.85 57.1 51.15 56.75 51.15 M66.35 59.05 L65.95 60.25 66.35 61.9 Q66.9 63.4 67.75 63.4 68.5 63.4 68.5 63.0 L68.2 62.7 67.6 62.8 Q67.2 62.8 66.85 61.55 L66.55 60.2 Q66.55 59.4 68.3 57.5 L68.9 58.35 69.75 59.05 70.25 59.6 Q70.95 60.6 70.95 61.55 70.95 63.05 70.4 63.6 68.35 64.95 67.4 65.1 L67.4 65.05 66.8 64.55 Q66.8 63.95 66.5 63.95 L66.35 64.0 66.3 63.9 Q66.35 62.45 65.95 62.45 65.6 62.45 65.6 63.2 L65.6 63.45 Q64.6 62.75 64.6 62.05 L65.05 60.45 Q65.6 58.9 66.05 58.9 L66.35 59.05 M64.1 60.05 L64.5 60.25 Q64.0 61.45 64.0 62.05 64.0 62.6 64.5 63.35 L64.75 63.7 64.05 63.9 63.95 63.8 63.95 63.5 63.65 63.2 63.35 63.3 63.0 62.15 63.2 61.05 Q63.5 60.05 64.1 60.05 M51.35 68.05 L50.35 67.8 Q50.0 67.8 50.0 68.1 50.0 68.7 51.65 68.7 52.1 68.7 52.1 68.3 L52.1 68.2 Q52.5 67.95 52.5 67.1 L53.4 67.2 Q54.8 67.3 54.8 68.85 54.8 70.4 53.65 71.2 51.6 73.05 50.35 73.05 47.45 73.05 47.45 70.95 47.45 70.2 48.3 69.2 L49.15 68.05 48.85 67.75 Q48.35 67.75 47.6 69.05 L47.35 69.5 47.55 68.5 47.85 67.7 48.4 66.35 48.55 66.45 48.35 66.75 48.65 67.05 51.25 65.7 Q51.9 65.7 51.9 67.1 L51.35 68.0 51.35 68.05" fill="#ffffff" fill-rule="evenodd" stroke="none"/>
      <path d="M43.25 47.55 L47.0 47.55 47.75 47.45 47.6 47.3 Q49.4 46.0 50.4 44.3 52.05 41.2 52.5 41.2 L55.1 47.15 55.3 47.7 56.55 47.6 Q60.0 47.6 60.0 50.35 60.0 51.35 58.4 52.4 L58.5 52.55 59.3 53.0 62.75 53.45 Q66.4 53.45 67.9 52.5 L69.2 51.6 70.75 49.2 Q71.45 49.2 71.45 49.7 L70.75 51.3 69.65 52.45 Q68.75 54.1 64.1 59.15 L63.75 59.45 64.1 59.4 64.8 59.6 Q65.4 58.25 66.15 58.25 L66.6 58.5 66.7 58.35 Q67.55 56.85 68.35 56.85 L69.95 58.35 Q70.6 58.45 71.1 59.75 L71.55 61.5 Q71.55 63.3 70.9 63.95 68.7 65.7 67.15 65.7 66.5 65.7 66.3 65.15 65.9 64.85 65.75 64.25 L65.2 64.1 Q65.0 64.55 64.0 64.55 63.05 64.55 62.95 63.95 L62.55 63.25 62.3 63.25 Q61.3 63.25 60.15 62.5 L59.25 61.7 59.1 61.75 Q54.7 63.45 51.1 63.7 L51.15 63.85 50.7 64.7 50.45 65.25 51.4 65.05 Q52.1 65.05 52.4 66.55 55.4 66.55 55.4 68.85 55.4 70.6 53.4 72.2 51.55 73.65 50.1 73.65 L49.85 73.65 49.1 74.85 50.05 76.0 50.6 75.45 Q53.1 73.1 53.65 73.1 55.75 73.1 55.75 74.55 55.75 75.15 54.1 77.4 L53.2 78.55 53.45 79.6 Q53.45 80.35 49.8 81.55 46.3 82.65 44.6 82.65 L44.3 82.6 43.4 82.7 Q42.6 82.7 42.6 82.0 42.6 81.05 43.75 80.95 L43.75 80.85 Q43.75 80.4 44.55 79.35 L44.7 79.15 45.1 79.15 45.1 79.1 45.2 77.25 45.4 75.9 Q44.15 75.9 43.75 75.2 L43.7 75.25 Q41.85 79.0 41.15 79.0 L40.85 78.7 41.95 75.05 41.95 74.55 Q37.75 76.9 37.45 76.9 L37.15 76.6 Q38.6 74.05 37.6 72.6 L33.4 73.55 33.1 73.25 35.1 70.3 36.15 67.9 35.45 67.9 Q31.95 67.9 31.95 64.95 L32.15 64.2 31.9 64.2 Q31.0 64.2 31.0 63.15 31.0 62.7 31.7 61.95 31.2 61.6 31.2 60.6 31.2 57.55 36.25 57.4 L36.45 57.4 36.7 57.4 39.4 57.75 39.6 57.75 39.65 57.75 39.55 56.35 39.6 55.6 36.75 56.1 33.15 56.5 Q31.35 56.5 30.1 55.6 29.0 54.85 29.0 54.1 29.0 52.6 34.55 52.9 L33.0 52.9 39.95 53.35 42.3 53.7 40.1 50.5 39.1 48.8 37.7 47.0 38.1 46.7 Q38.55 46.7 38.95 47.1 L39.7 47.25 40.9 47.4 43.25 47.55 M48.25 48.85 L48.4 48.85 Q50.4 49.0 51.45 49.75 51.55 49.15 52.8 48.5 53.75 47.95 54.9 47.75 L54.6 47.25 54.6 47.2 52.45 42.2 Q49.85 46.7 48.45 47.45 L48.45 47.6 Q48.45 48.15 45.1 48.15 L39.45 47.8 39.2 47.8 42.9 53.65 42.9 53.8 43.85 53.95 Q43.6 53.3 43.6 52.4 43.6 49.1 48.25 48.85 M56.4 48.25 Q54.55 48.4 53.1 49.05 L51.8 50.1 Q52.45 50.75 52.45 51.85 L52.0 53.2 52.8 53.5 Q54.65 53.5 56.75 52.6 L57.15 52.4 Q59.4 51.3 59.4 50.35 59.4 49.55 58.95 49.1 L58.35 48.6 58.0 48.45 57.85 48.3 56.4 48.25 M39.8 53.95 L32.55 53.55 Q29.6 53.55 29.6 54.1 29.6 55.1 32.8 55.85 L32.8 55.9 33.65 55.9 39.15 55.15 39.6 55.3 Q39.7 54.2 40.1 54.0 L39.8 53.95 M32.2 61.5 Q33.2 60.55 34.4 60.45 L34.4 60.3 Q34.4 59.15 37.85 59.15 38.95 59.15 38.8 59.4 L38.25 59.65 38.15 60.05 37.95 60.75 37.95 61.3 37.85 62.05 38.7 62.25 38.5 60.95 Q38.5 59.9 38.85 59.9 39.3 59.9 39.3 62.25 L40.5 63.85 41.1 63.4 Q40.45 62.3 39.5 59.45 39.5 59.15 39.85 59.15 40.2 59.15 40.9 61.5 L41.75 63.15 42.15 63.1 42.45 63.2 42.75 63.3 Q43.25 62.9 44.55 62.9 45.3 62.9 45.3 63.75 L45.25 64.35 45.7 64.45 45.85 64.1 46.35 63.35 44.75 62.8 Q42.85 61.6 41.55 60.95 40.55 60.4 39.95 58.85 L39.75 58.25 39.65 58.25 39.65 58.3 39.6 58.25 39.05 58.15 36.0 58.05 Q31.8 58.05 31.8 60.6 31.8 61.1 32.2 61.5 M34.65 60.9 Q34.15 60.95 33.7 61.3 33.0 61.65 32.8 61.85 L32.7 61.95 32.5 62.15 Q31.6 62.9 31.6 63.1 31.6 63.55 31.95 63.55 L32.55 63.4 Q33.1 62.6 33.6 62.6 33.95 62.6 33.95 62.9 L33.25 63.65 33.15 63.8 32.95 64.0 Q32.55 64.5 32.55 64.95 32.55 67.3 35.95 67.3 37.3 67.3 38.25 66.2 39.0 65.3 39.0 64.6 39.0 63.45 38.25 62.9 L37.65 62.5 37.15 62.75 38.1 63.45 37.75 63.75 35.4 62.05 Q35.4 61.75 35.75 61.75 L36.65 62.35 37.35 61.95 37.35 60.8 36.0 60.8 34.9 61.15 34.65 60.9 M35.0 60.5 L35.65 60.35 37.5 60.15 37.6 59.85 37.65 59.7 37.2 59.7 35.8 59.85 34.9 60.35 35.0 60.5 M39.6 64.55 L39.55 65.2 39.95 64.5 40.0 64.45 39.6 63.95 39.6 64.55 M42.5 76.05 L43.9 73.3 Q44.0 71.65 44.25 70.9 L43.15 71.0 Q40.3 71.0 40.3 67.3 L40.3 67.15 39.75 67.45 39.15 66.5 39.25 65.9 38.7 66.65 Q37.85 67.55 36.6 67.8 L36.6 67.85 Q36.6 69.95 34.15 72.8 L34.1 72.85 34.2 72.85 Q36.75 71.85 38.1 71.85 39.25 71.85 39.25 72.7 L38.05 75.85 38.05 75.9 38.1 75.9 42.2 73.7 Q42.55 73.7 42.55 74.7 L42.45 76.05 42.45 76.1 42.5 76.05 M39.8 66.7 L40.55 66.25 Q40.7 66.1 40.9 66.1 L41.2 66.4 40.9 66.9 40.9 67.3 Q40.9 70.4 43.6 70.4 L44.3 70.25 44.55 70.35 Q47.3 69.0 47.3 67.0 47.3 66.1 46.05 65.45 L45.95 65.4 45.75 65.55 45.45 65.25 45.5 65.1 45.1 64.9 44.55 65.4 44.95 65.65 Q44.95 66.05 44.5 66.05 L43.85 65.6 43.4 65.05 Q43.4 64.75 43.75 64.75 L44.05 64.95 44.7 64.0 44.7 63.55 44.1 63.55 42.7 64.3 Q42.4 64.3 42.4 63.95 L42.5 63.65 42.05 63.8 41.75 64.0 41.7 64.0 40.6 64.75 Q39.85 65.65 39.75 66.35 L39.75 66.65 39.8 66.7 M68.8 52.7 L67.65 53.25 Q65.55 54.05 62.75 54.05 58.05 54.05 58.05 52.8 L58.05 52.75 58.0 52.65 58.05 52.65 57.6 52.85 Q55.2 54.1 52.8 54.1 51.75 54.1 51.5 53.75 L50.45 54.5 Q48.7 55.55 47.35 55.55 L46.35 55.5 Q44.6 55.5 43.95 54.25 L43.55 54.3 40.5 54.1 40.55 54.25 40.15 56.35 Q40.15 59.3 42.35 60.65 46.3 63.1 50.1 63.1 56.85 63.1 63.95 58.4 65.2 57.55 66.9 55.05 L68.8 52.7 M61.2 60.85 L59.85 61.45 60.8 62.2 Q61.3 62.6 62.2 62.65 L62.45 62.65 62.4 62.15 62.45 61.55 61.2 60.85 M62.5 61.0 L62.9 60.0 61.7 60.6 62.35 60.95 62.5 61.0 M64.1 60.05 Q63.5 60.05 63.2 61.05 L63.0 62.15 63.35 63.3 63.65 63.2 63.95 63.5 63.95 63.8 64.05 63.9 64.75 63.7 64.5 63.35 Q64.0 62.6 64.0 62.05 64.0 61.45 64.5 60.25 L64.1 60.05 M66.35 59.05 L66.05 58.9 Q65.6 58.9 65.05 60.45 L64.6 62.05 Q64.6 62.75 65.6 63.45 L65.6 63.2 Q65.6 62.45 65.95 62.45 66.35 62.45 66.3 63.9 L66.35 64.0 66.5 63.95 Q66.8 63.95 66.8 64.55 L67.4 65.05 67.4 65.1 Q68.35 64.95 70.4 63.6 70.95 63.05 70.95 61.55 70.95 60.6 70.25 59.6 L69.75 59.05 68.9 58.35 68.3 57.5 Q66.55 59.4 66.55 60.2 L66.85 61.55 Q67.2 62.8 67.6 62.8 L68.2 62.7 68.5 63.0 Q68.5 63.4 67.75 63.4 66.9 63.4 66.35 61.9 L65.95 60.25 66.35 59.05 M56.75 51.15 Q57.1 51.15 57.1 51.85 57.1 52.55 56.75 52.55 56.05 52.55 56.05 51.55 56.05 51.15 56.75 51.15 M51.85 51.85 Q51.85 49.25 47.25 49.5 44.2 50.25 44.2 52.45 44.2 54.15 46.1 54.9 L47.7 54.65 48.0 54.8 Q49.65 54.8 51.05 53.4 51.85 52.45 51.85 51.85 M50.3 52.9 Q50.3 53.55 49.75 53.55 49.15 53.55 49.15 53.05 49.15 52.4 49.95 52.4 50.3 52.4 50.3 52.9 M50.1 63.7 L46.9 63.45 46.35 64.6 46.3 64.75 47.45 65.6 47.85 66.3 48.5 65.7 Q49.0 65.7 49.15 65.95 L49.45 65.75 Q49.8 65.55 50.1 65.4 L50.0 65.1 Q50.0 64.05 50.45 63.7 L50.1 63.7 M51.35 68.0 L51.9 67.1 Q51.9 65.7 51.25 65.7 L48.65 67.05 48.35 66.75 48.55 66.45 48.4 66.35 47.85 67.7 47.55 68.5 47.35 69.5 47.6 69.05 Q48.35 67.75 48.85 67.75 L49.15 68.05 48.3 69.2 Q47.45 70.2 47.45 70.95 47.45 73.05 50.35 73.05 51.6 73.05 53.65 71.2 54.8 70.4 54.8 68.85 54.8 67.3 53.4 67.2 L52.5 67.1 Q52.5 67.95 52.1 68.2 L52.1 68.3 Q52.1 68.7 51.65 68.7 50.0 68.7 50.0 68.1 50.0 67.8 50.35 67.8 L51.35 68.05 51.4 68.05 51.35 68.0 M45.05 71.95 L47.1 72.85 47.65 72.95 Q46.85 72.25 46.85 70.95 46.85 70.65 47.0 70.25 46.75 70.15 46.75 69.7 L46.8 69.45 44.9 70.7 44.95 71.35 44.9 72.0 45.05 71.95 M48.4 75.45 L46.15 75.9 46.15 76.2 45.95 79.1 46.55 79.1 47.5 79.0 48.3 78.8 48.05 78.45 Q48.05 77.95 49.45 76.6 L49.3 76.4 48.4 75.45" fill="#000000" fill-rule="evenodd" stroke="none"/>
      <path d="M48.25 48.85 Q43.6 49.1 43.6 52.4 43.6 53.3 43.85 53.95 L42.9 53.8 42.9 53.65 39.2 47.8 39.45 47.8 45.1 48.15 Q48.45 48.15 48.45 47.6 L48.45 47.45 Q49.85 46.7 52.45 42.2 L54.6 47.2 54.6 47.25 54.9 47.75 Q53.75 47.95 52.8 48.5 51.55 49.15 51.45 49.75 50.4 49.0 48.4 48.85 L48.25 48.85 M32.2 61.5 Q31.8 61.1 31.8 60.6 31.8 58.05 36.0 58.05 L39.05 58.15 39.6 58.25 39.65 58.3 39.65 58.25 39.75 58.25 39.95 58.85 Q40.55 60.4 41.55 60.95 42.85 61.6 44.75 62.8 L46.35 63.35 45.85 64.1 45.7 64.45 45.25 64.35 45.3 63.75 Q45.3 62.9 44.55 62.9 43.25 62.9 42.75 63.3 L42.45 63.2 42.15 63.1 41.75 63.15 40.9 61.5 Q40.2 59.15 39.85 59.15 39.5 59.15 39.5 59.45 40.45 62.3 41.1 63.4 L40.5 63.85 39.3 62.25 Q39.3 59.9 38.85 59.9 38.5 59.9 38.5 60.95 L38.7 62.25 37.85 62.05 37.95 61.3 37.95 60.75 38.15 60.05 38.25 59.65 38.8 59.4 Q38.95 59.15 37.85 59.15 34.4 59.15 34.4 60.3 L34.4 60.45 Q33.2 60.55 32.2 61.5 M39.8 53.95 L40.1 54.0 Q39.7 54.2 39.6 55.3 L39.15 55.15 33.65 55.9 32.8 55.9 32.8 55.85 Q29.6 55.1 29.6 54.1 29.6 53.55 32.55 53.55 L39.8 53.95 M34.15 72.8 Q36.6 69.95 36.6 67.85 L36.6 67.8 Q37.85 67.55 38.7 66.65 L39.25 65.9 39.15 66.5 39.75 67.45 40.3 67.15 40.3 67.3 Q40.3 71.0 43.15 71.0 L44.25 70.9 Q44.0 71.65 43.9 73.3 L42.5 76.05 42.45 76.05 42.55 74.7 Q42.55 73.7 42.2 73.7 L38.1 75.9 38.05 75.85 39.25 72.7 Q39.25 71.85 38.1 71.85 36.75 71.85 34.2 72.85 L34.15 72.8 M39.6 64.55 L39.6 63.95 40.0 64.45 39.95 64.5 39.55 65.2 39.6 64.55 M61.2 60.85 L62.45 61.55 62.4 62.15 62.45 62.65 62.2 62.65 Q61.3 62.6 60.8 62.2 L59.85 61.45 61.2 60.85" fill="#ffb600" fill-rule="evenodd" stroke="none"/>
      <path d="M68.8 52.7 L66.9 55.05 Q65.2 57.55 63.95 58.4 56.85 63.1 50.1 63.1 46.3 63.1 42.35 60.65 40.15 59.3 40.15 56.35 L40.55 54.25 40.5 54.1 43.55 54.3 43.95 54.25 Q44.6 55.5 46.35 55.5 L47.35 55.55 Q48.7 55.55 50.45 54.5 L51.5 53.75 Q51.75 54.1 52.8 54.1 55.2 54.1 57.6 52.85 L58.05 52.65 58.0 52.65 58.05 52.75 58.05 52.8 Q58.05 54.05 62.75 54.05 65.55 54.05 67.65 53.25 L68.8 52.7" fill="#9cb9cb" fill-rule="evenodd" stroke="none"/>
      <path d="M50.1 63.7 L50.45 63.7 Q50.0 64.05 50.0 65.1 L50.1 65.4 Q49.8 65.55 49.45 65.75 L49.15 65.95 Q49.0 65.7 48.5 65.7 L47.85 66.3 47.45 65.6 46.3 64.75 46.35 64.6 46.9 63.45 50.1 63.7 M45.05 71.95 L44.9 72.0 44.95 71.35 44.9 70.7 46.8 69.45 46.75 69.7 Q46.75 70.15 47.0 70.25 46.85 70.65 46.85 70.95 46.85 72.25 47.65 72.95 L47.1 72.85 45.05 71.95" fill="#a800a0" fill-rule="evenodd" stroke="none"/>
    </g>
  </defs>
</svg>
