<?xml version="1.0" encoding="UTF-8" standalone="no"?>
<svg xmlns:ffdec="https://www.free-decompiler.com/flash" xmlns:xlink="http://www.w3.org/1999/xlink" ffdec:objectType="frame" height="500.0px" width="500.0px" xmlns="http://www.w3.org/2000/svg">
  <g transform="matrix(5.0, 0.0, 0.0, 5.0, 0.0, 0.0)">
    <use ffdec:characterId="6" height="41.75" transform="matrix(1.0, 0.0, 0.0, 1.0, 0.0, 0.0)" width="49.75" xlink:href="#shape0"/>
  </g>
  <defs>
    <g id="shape0">
      <path d="M47.55 46.6 L47.45 46.45 50.35 41.55 Q51.1 42.2 51.05 44.2 L51.05 44.3 53.6 48.3 56.3 47.7 Q59.3 47.7 59.05 51.1 59.05 52.5 58.35 53.35 L59.15 53.6 Q60.9 53.6 65.4 49.65 L65.3 49.6 65.2 49.35 Q65.2 49.15 66.15 47.9 67.1 46.65 67.55 46.45 L67.85 46.5 67.9 46.75 Q67.9 47.25 66.95 48.45 L66.3 49.2 Q66.2 50.2 64.9 53.6 L65.2 53.3 65.9 52.8 65.7 52.6 Q65.7 51.9 67.0 51.8 L66.95 51.6 Q66.95 50.75 67.75 50.7 L67.8 50.35 Q68.05 48.7 68.95 48.7 69.55 48.7 70.15 49.15 L70.6 48.8 Q71.5 48.8 72.9 51.55 L72.85 51.8 72.85 51.85 73.2 53.0 73.25 53.0 73.3 53.45 73.3 53.5 73.3 53.6 73.2 54.0 Q72.55 56.15 71.6 56.15 70.15 56.15 69.3 54.85 L68.9 54.2 Q67.85 56.8 67.15 56.8 66.55 56.8 66.55 56.3 L68.2 54.2 Q66.1 54.75 65.1 55.9 64.15 56.95 64.15 57.3 L64.3 58.25 64.25 58.5 63.95 58.55 63.55 58.5 63.55 58.0 62.6 59.0 62.55 58.95 Q61.75 60.25 60.05 61.6 57.7 63.45 54.6 64.2 L55.95 68.75 Q56.65 71.2 58.35 72.4 L59.9 73.35 59.85 73.55 59.55 73.65 57.25 72.8 57.15 73.05 58.05 75.4 58.05 75.95 57.8 76.05 Q55.55 75.05 54.75 74.05 L53.6 73.25 52.7 74.35 Q53.95 74.9 55.6 76.35 L57.3 78.15 Q58.45 77.1 59.1 75.7 60.55 72.55 60.7 72.55 61.8 72.55 63.65 75.15 58.55 83.15 58.1 83.15 57.05 83.15 57.05 80.95 L56.75 79.1 55.8 78.05 55.8 79.35 55.55 82.5 Q55.15 83.15 53.0 83.15 L49.35 82.95 47.15 83.3 Q46.55 83.3 46.45 82.95 L46.45 82.6 46.45 82.55 46.45 82.6 46.25 82.8 Q44.05 82.8 44.05 82.3 44.05 82.05 44.8 80.85 L45.75 79.6 45.75 79.25 46.05 77.2 45.85 75.65 Q45.35 75.25 45.3 74.6 L45.4 74.5 45.0 74.2 43.9 75.6 42.8 77.3 Q42.0 77.3 40.45 74.95 37.75 77.05 37.35 77.05 36.65 77.05 36.55 75.5 L36.55 73.9 Q36.55 65.05 38.55 63.2 38.25 62.8 38.1 61.9 L37.45 60.35 Q32.1 57.95 30.15 57.95 L29.9 58.0 29.95 58.3 30.2 58.3 30.25 58.3 30.95 58.35 31.5 58.3 Q33.4 58.3 33.15 59.65 33.15 60.7 32.65 61.25 L32.8 62.15 Q32.8 65.05 27.55 65.05 23.55 65.05 23.55 60.8 L23.65 60.15 Q23.8 59.7 24.1 59.6 24.25 58.9 25.1 58.9 L25.05 58.75 25.05 57.9 25.2 57.85 25.2 57.8 Q25.2 56.85 26.1 56.85 L26.65 56.95 26.85 56.65 Q27.1 54.7 29.45 54.7 33.0 54.7 40.15 59.0 L40.85 58.7 Q40.3 57.6 40.15 56.5 L39.9 56.55 39.45 56.4 39.3 56.35 39.4 56.4 39.1 56.65 36.25 55.15 36.25 55.1 36.2 55.05 33.8 53.8 32.2 52.45 Q32.05 52.3 32.05 51.5 32.05 49.7 34.1 49.7 36.55 49.7 37.75 50.5 L40.1 52.05 43.45 53.5 Q42.8 52.85 41.8 50.6 L39.3 44.95 Q39.45 44.8 39.65 44.8 L42.35 45.75 Q45.05 46.65 46.95 46.65 L47.55 46.6 M48.75 46.5 L48.9 46.75 Q48.9 47.3 47.6 47.3 44.8 47.3 40.4 45.7 L44.3 53.45 44.3 53.65 44.45 53.6 45.8 53.9 45.55 52.0 Q45.55 48.8 48.55 48.8 50.3 48.8 51.3 49.55 L51.5 49.4 Q51.75 49.2 51.95 49.1 52.0 48.9 53.05 48.5 L51.75 46.6 50.85 45.05 50.8 45.05 50.45 45.0 50.2 43.1 Q49.75 43.5 48.05 46.5 L48.45 46.45 48.75 46.5 M52.8 49.3 L51.85 50.1 Q52.55 51.0 52.55 52.6 L52.1 53.75 53.3 54.2 Q58.45 54.0 58.45 51.05 58.45 48.35 56.1 48.35 55.1 48.35 53.9 48.9 L52.8 49.3 M37.6 54.8 L40.1 56.25 40.05 55.35 40.05 54.0 Q40.15 53.05 40.45 52.85 L40.0 52.6 Q36.25 50.35 34.0 50.35 32.65 50.35 32.65 51.55 32.65 52.9 37.4 54.95 L37.6 54.8 M31.15 58.95 L30.35 59.05 29.85 59.05 Q29.5 60.4 27.45 60.4 26.55 60.4 25.75 59.7 L25.4 59.35 24.75 59.75 Q24.7 60.25 24.45 60.35 L24.15 60.8 Q24.15 61.7 24.7 62.8 25.5 64.4 27.0 64.4 32.2 64.4 32.2 62.15 L32.0 61.6 31.4 61.65 31.35 61.65 31.4 62.05 31.35 62.25 31.1 62.4 Q30.65 62.4 30.4 61.7 L30.2 61.0 30.5 60.7 Q30.9 60.85 31.15 61.1 31.65 61.15 32.1 60.6 L32.55 59.65 Q32.55 59.3 31.5 59.05 L31.15 58.95 M40.65 59.3 L40.35 59.65 40.0 59.55 39.6 59.6 39.35 59.35 39.5 59.3 35.8 57.5 Q31.4 55.35 29.45 55.35 27.85 55.35 27.5 56.2 L27.2 57.55 26.95 57.3 26.85 57.55 27.0 57.95 Q27.3 58.65 27.85 58.65 L28.6 58.0 Q29.4 57.3 30.1 57.3 32.4 57.3 37.65 59.8 L37.85 59.75 38.15 60.05 38.3 60.1 38.25 60.2 38.65 61.0 39.35 62.15 39.0 62.4 39.15 62.8 39.6 62.7 39.9 63.0 38.65 64.25 Q37.45 65.85 37.4 68.55 L37.15 73.95 Q37.15 75.85 37.3 76.35 40.05 74.3 40.4 74.3 41.15 74.3 42.65 76.45 43.15 75.35 43.6 74.6 44.5 73.2 45.9 73.2 47.35 73.2 48.3 73.95 L48.1 72.45 Q47.8 69.75 47.8 67.6 47.8 65.55 47.95 64.4 44.9 63.75 42.7 61.3 L41.1 59.1 40.65 59.3 M29.25 58.35 L28.9 58.65 27.95 59.3 Q26.3 59.3 26.3 57.6 L26.35 57.45 26.1 57.4 Q25.7 57.4 25.7 57.75 L25.8 58.1 25.75 58.3 Q26.15 59.75 27.05 59.75 29.1 59.75 29.3 58.7 L29.25 58.55 29.3 58.45 29.25 58.35 M72.05 50.95 Q71.2 49.45 70.5 49.45 L71.4 50.55 71.1 50.9 70.25 50.25 69.3 53.45 Q69.3 53.75 69.95 54.55 70.7 55.5 71.45 55.5 72.7 55.5 72.7 53.05 L72.75 53.05 72.6 52.7 71.95 51.15 72.05 50.95 M69.15 51.55 L69.3 51.05 69.85 49.7 Q69.45 49.35 69.05 49.35 68.5 49.35 68.35 50.8 L69.15 51.55 M66.95 52.45 L66.9 52.5 66.95 52.5 67.25 52.5 67.3 52.75 Q65.9 53.6 64.6 54.55 L64.55 54.5 63.65 56.55 63.85 56.7 64.75 55.25 Q66.0 53.95 67.9 53.8 67.3 53.2 67.55 52.45 L66.95 52.45 M67.6 51.8 L67.7 51.85 67.7 51.5 67.6 51.8 M68.75 53.2 L68.8 52.8 Q68.8 51.9 68.3 51.55 L68.3 52.05 68.7 53.2 68.7 53.3 68.75 53.2 M65.1 50.6 Q61.35 54.3 59.15 54.3 L57.65 53.95 Q56.4 54.8 53.9 54.8 L53.8 54.8 53.25 54.9 Q51.85 54.9 51.6 54.35 L50.2 55.0 Q49.95 55.4 48.9 55.4 L48.9 55.5 Q48.9 55.9 48.05 55.9 46.6 55.9 46.0 54.45 L45.85 54.45 45.7 54.45 45.4 54.5 44.95 54.8 Q43.9 54.8 41.05 53.2 L40.65 55.4 Q40.65 57.85 42.65 60.45 44.75 63.15 48.05 63.8 L48.1 63.55 Q48.45 63.65 48.6 63.9 L50.3 64.0 Q60.1 64.0 62.8 57.0 L64.5 52.7 65.1 50.6 M56.3 53.15 L55.45 52.35 Q55.45 51.8 56.05 51.8 56.55 51.8 56.65 52.8 L56.6 53.05 56.3 53.15 M51.0 53.85 Q51.95 53.35 51.95 52.65 51.95 49.45 48.45 49.45 46.75 49.45 46.3 50.7 46.05 51.35 46.15 52.0 46.15 55.2 48.4 55.2 L48.45 55.2 48.4 55.15 49.2 54.85 49.05 54.75 49.1 54.45 50.55 54.1 51.0 53.85 M50.5 54.05 Q49.7 54.05 49.7 53.4 L49.8 52.8 50.1 52.7 Q50.9 52.7 50.9 53.8 L50.5 54.05 M48.65 64.55 L48.4 65.55 48.4 67.55 48.75 72.25 49.55 72.15 51.05 71.85 51.15 71.85 52.75 71.25 51.95 65.2 52.0 64.6 50.35 64.65 48.65 64.55 M45.7 73.85 L45.5 73.9 45.7 74.1 45.7 74.0 45.7 73.85 M54.3 73.1 L54.6 72.95 57.0 74.7 56.55 72.85 Q56.55 72.2 56.95 71.85 54.3 68.55 54.3 65.15 54.3 64.35 54.6 64.2 L52.4 64.6 Q53.4 67.65 53.4 71.15 L53.7 71.3 53.75 71.2 54.05 71.95 53.85 72.85 54.3 73.15 54.3 73.1 M51.8 75.2 Q50.35 76.3 48.6 76.3 L46.95 76.15 47.05 77.2 46.55 80.7 47.15 80.85 Q49.75 80.85 55.2 77.45 L54.65 76.95 52.75 75.75 51.8 75.2" fill="#000000" fill-rule="evenodd" stroke="none"/>
      <path d="M48.75 46.5 L48.45 46.45 48.05 46.5 Q49.75 43.5 50.2 43.1 L50.45 45.0 50.8 45.05 50.85 45.05 51.75 46.6 53.05 48.5 Q52.0 48.9 51.95 49.1 51.75 49.2 51.5 49.4 L51.3 49.55 Q50.3 48.8 48.55 48.8 45.55 48.8 45.55 52.0 L45.8 53.9 44.45 53.6 44.3 53.65 44.3 53.45 40.4 45.7 Q44.8 47.3 47.6 47.3 48.9 47.3 48.9 46.75 L48.75 46.5 M37.6 54.8 L37.4 54.95 Q32.65 52.9 32.65 51.55 32.65 50.35 34.0 50.35 36.25 50.35 40.0 52.6 L40.45 52.85 Q40.15 53.05 40.05 54.0 L40.05 55.35 40.1 56.25 37.6 54.8 M40.65 59.3 L41.1 59.1 42.7 61.3 Q44.9 63.75 47.95 64.4 47.8 65.55 47.8 67.6 47.8 69.75 48.1 72.45 L48.3 73.95 Q47.35 73.2 45.9 73.2 44.5 73.2 43.6 74.6 43.15 75.35 42.65 76.45 41.15 74.3 40.4 74.3 40.05 74.3 37.3 76.35 37.15 75.85 37.15 73.95 L37.4 68.55 Q37.45 65.85 38.65 64.25 L39.9 63.0 39.6 62.7 39.15 62.8 39.0 62.4 39.35 62.15 38.65 61.0 38.25 60.2 38.3 60.1 38.15 60.05 37.85 59.75 37.65 59.8 Q32.4 57.3 30.1 57.3 29.4 57.3 28.6 58.0 L27.85 58.65 Q27.3 58.65 27.0 57.95 L26.85 57.55 26.95 57.3 27.2 57.55 27.5 56.2 Q27.85 55.35 29.45 55.35 31.4 55.35 35.8 57.5 L39.5 59.3 39.35 59.35 39.6 59.6 40.0 59.55 40.35 59.65 40.65 59.3 M66.95 52.5 L66.95 52.45 67.55 52.45 Q67.3 53.2 67.9 53.8 66.0 53.95 64.75 55.25 L63.85 56.7 63.65 56.55 64.55 54.5 64.6 54.55 Q65.9 53.6 67.3 52.75 L67.25 52.5 66.95 52.5 M54.3 73.15 L53.85 72.85 54.05 71.95 53.75 71.2 53.7 71.3 53.4 71.15 Q53.4 67.65 52.4 64.6 L54.6 64.2 Q54.3 64.35 54.3 65.15 54.3 68.55 56.95 71.85 56.55 72.2 56.55 72.85 L57.0 74.7 54.6 72.95 54.3 73.1 54.3 73.15" fill="#ffb600" fill-rule="evenodd" stroke="none"/>
      <path d="M65.1 50.6 L64.5 52.7 62.8 57.0 Q60.1 64.0 50.3 64.0 L48.6 63.9 Q48.45 63.65 48.1 63.55 L48.05 63.8 Q44.75 63.15 42.65 60.45 40.65 57.85 40.65 55.4 L41.05 53.2 Q43.9 54.8 44.95 54.8 L45.4 54.5 45.7 54.45 45.85 54.45 46.0 54.45 Q46.6 55.9 48.05 55.9 48.9 55.9 48.9 55.5 L48.9 55.4 Q49.95 55.4 50.2 55.0 L51.6 54.35 Q51.85 54.9 53.25 54.9 L53.8 54.8 53.9 54.8 Q56.4 54.8 57.65 53.95 L59.15 54.3 Q61.35 54.3 65.1 50.6" fill="#9cb9cb" fill-rule="evenodd" stroke="none"/>
      <path d="M48.65 64.55 L50.35 64.65 52.0 64.6 51.95 65.2 52.75 71.25 51.15 71.85 51.05 71.85 49.55 72.15 48.75 72.25 48.4 67.55 48.4 65.55 48.65 64.55" fill="#a800a0" fill-rule="evenodd" stroke="none"/>
      <path d="M52.8 49.3 L53.9 48.9 Q55.1 48.35 56.1 48.35 58.45 48.35 58.45 51.05 58.45 54.0 53.3 54.2 L52.1 53.75 52.55 52.6 Q52.55 51.0 51.85 50.1 L52.8 49.3 M31.15 58.95 L31.5 59.05 Q32.55 59.3 32.55 59.65 L32.1 60.6 Q31.65 61.15 31.15 61.1 30.9 60.85 30.5 60.7 L30.2 61.0 30.4 61.7 Q30.65 62.4 31.1 62.4 L31.35 62.25 31.4 62.05 31.35 61.65 31.4 61.65 32.0 61.6 32.2 62.15 Q32.2 64.4 27.0 64.4 25.5 64.4 24.7 62.8 24.15 61.7 24.15 60.8 L24.45 60.35 Q24.7 60.25 24.75 59.75 L25.4 59.35 25.75 59.7 Q26.55 60.4 27.45 60.4 29.5 60.4 29.85 59.05 L30.35 59.05 31.15 58.95 M69.15 51.55 L68.35 50.8 Q68.5 49.35 69.05 49.35 69.45 49.35 69.85 49.7 L69.3 51.05 69.15 51.55 M72.05 50.95 L71.95 51.15 72.6 52.7 72.75 53.05 72.7 53.05 Q72.7 55.5 71.45 55.5 70.7 55.5 69.95 54.55 69.3 53.75 69.3 53.45 L70.25 50.25 71.1 50.9 71.4 50.55 70.5 49.45 Q71.2 49.45 72.05 50.95 M29.25 58.35 L29.3 58.45 29.25 58.55 29.3 58.7 Q29.1 59.75 27.05 59.75 26.15 59.75 25.75 58.3 L25.8 58.1 25.7 57.75 Q25.7 57.4 26.1 57.4 L26.35 57.45 26.3 57.6 Q26.3 59.3 27.95 59.3 L28.9 58.65 29.25 58.35 M68.7 53.2 L68.3 52.05 68.3 51.55 Q68.8 51.9 68.8 52.8 L68.75 53.2 68.7 53.2 M50.55 54.1 L49.1 54.45 49.05 54.75 49.2 54.85 48.4 55.15 48.45 55.2 48.4 55.2 Q46.15 55.2 46.15 52.0 46.05 51.35 46.3 50.7 46.75 49.45 48.45 49.45 51.95 49.45 51.95 52.65 51.95 53.35 51.0 53.85 L50.9 53.8 Q50.9 52.7 50.1 52.7 L49.8 52.8 49.7 53.4 Q49.7 54.05 50.5 54.05 L50.55 54.1 M56.3 53.15 L56.6 53.05 56.65 52.8 Q56.55 51.8 56.05 51.8 55.45 51.8 55.45 52.35 L56.3 53.15" fill="#ffffff" fill-rule="evenodd" stroke="none"/>
    </g>
  </defs>
</svg>
