<?xml version="1.0" encoding="UTF-8" standalone="no"?>
<svg xmlns:ffdec="https://www.free-decompiler.com/flash" xmlns:xlink="http://www.w3.org/1999/xlink" ffdec:objectType="frame" height="500.0px" width="500.0px" xmlns="http://www.w3.org/2000/svg">
  <g transform="matrix(5.0, 0.0, 0.0, 5.0, 0.0, 0.0)">
    <use ffdec:characterId="7" height="49.6" transform="matrix(1.0, 0.0, 0.0, 1.0, 0.0, 0.0)" width="46.95" xlink:href="#shape0"/>
  </g>
  <defs>
    <g id="shape0">
      <path d="M49.1 38.3 L52.1 47.8 52.85 46.95 Q53.25 45.8 53.45 45.8 L53.65 45.85 Q54.3 44.7 54.3 43.1 54.15 42.25 54.3 41.5 54.65 40.05 56.3 40.05 58.2 40.05 58.05 42.75 58.05 45.25 57.2 47.05 L57.15 47.0 57.0 47.25 Q59.1 47.95 58.8 51.15 58.8 52.45 58.3 53.55 L59.6 52.7 59.55 52.5 62.75 47.7 65.1 44.05 Q64.8 43.65 64.8 43.05 64.8 41.8 65.85 41.6 65.9 40.75 66.55 39.55 67.5 37.7 68.85 37.7 70.1 37.7 70.2 38.7 L70.3 39.7 70.7 41.3 70.8 40.45 71.0 40.3 71.35 40.35 71.4 40.8 70.4 43.25 70.1 44.55 Q69.75 45.55 69.15 45.55 L68.35 45.4 66.4 48.15 65.95 49.2 66.05 49.85 Q64.25 62.35 54.5 63.85 L55.1 67.55 57.4 71.9 Q57.4 72.3 56.35 72.5 55.3 72.7 55.3 73.05 55.3 73.55 56.4 77.05 56.4 77.4 55.95 77.4 55.55 77.4 54.85 76.95 L54.15 76.3 54.15 76.7 Q55.65 78.2 57.85 82.45 58.4 81.4 59.65 79.7 61.35 75.7 61.85 75.7 62.4 75.7 63.1 76.2 L65.5 76.45 65.55 76.75 Q65.55 77.75 63.9 79.55 L61.45 82.05 Q58.8 87.05 58.55 87.05 58.1 87.05 57.8 86.15 L57.55 85.2 57.55 84.75 57.85 84.7 58.1 85.0 57.65 84.1 57.6 84.15 57.3 83.75 57.4 83.4 57.3 83.25 55.9 80.9 54.25 78.55 53.9 78.2 Q52.95 80.15 48.9 80.15 L47.65 80.05 Q47.7 82.25 47.9 82.85 L47.9 83.3 48.0 83.3 50.2 81.95 54.05 79.2 Q54.55 79.2 55.6 81.6 L56.55 84.05 Q56.55 84.4 54.65 84.95 L51.7 85.7 47.15 87.05 47.05 87.0 45.65 87.3 45.1 86.75 45.2 85.05 45.4 84.2 45.3 84.15 Q45.4 83.85 45.65 83.65 L45.9 83.5 46.6 83.35 46.95 83.35 46.85 81.55 46.65 79.75 46.1 79.45 45.45 78.75 45.45 78.25 45.35 78.3 Q44.55 77.95 44.2 77.95 L41.1 79.65 40.7 79.6 Q40.8 77.4 40.55 76.7 L40.55 64.1 40.6 64.1 40.4 62.55 35.85 58.55 31.25 54.65 Q30.25 55.9 29.6 55.9 28.75 55.9 28.45 55.3 L28.3 54.7 28.35 54.1 Q27.3 53.95 27.05 53.2 26.95 53.4 26.65 53.4 25.45 53.4 24.85 51.05 L24.45 48.6 24.55 47.55 Q24.7 47.25 25.7 47.2 26.4 47.1 28.1 45.95 29.35 45.95 29.7 47.35 L30.05 47.0 Q30.55 46.55 30.9 46.55 32.1 46.55 32.3 49.3 32.7 49.55 33.0 50.45 L33.2 50.5 Q33.05 49.9 33.05 49.3 33.05 46.95 35.1 46.95 36.9 46.95 39.4 51.1 L43.2 53.3 42.85 51.55 42.3 48.45 41.95 45.9 Q40.5 44.2 40.45 43.35 L40.45 42.6 40.8 42.55 45.35 45.55 47.0 46.0 46.8 45.75 48.95 38.3 49.1 38.3 M41.3 43.75 Q43.15 45.35 43.05 48.55 43.8 50.8 43.8 53.2 L43.75 53.4 43.65 53.55 Q44.2 53.8 44.8 54.15 L44.85 54.15 44.95 54.2 46.1 53.95 Q45.8 53.15 45.8 52.05 45.8 49.05 49.7 49.05 51.1 49.05 51.9 49.7 L52.1 49.05 Q51.55 48.9 50.65 45.55 L49.3 40.2 47.3 46.05 47.9 46.2 Q47.95 46.55 47.45 46.55 45.35 46.55 43.95 45.45 L41.6 43.8 41.3 43.75 M56.25 40.7 Q54.95 40.7 54.7 43.75 54.5 46.8 53.6 46.8 L53.45 46.8 Q52.7 48.25 52.3 48.3 L52.4 48.75 52.85 48.65 53.2 48.25 Q54.3 47.05 55.6 47.05 L56.55 47.15 56.85 46.55 57.45 42.75 Q57.45 40.7 56.25 40.7 M53.55 48.65 L52.6 49.9 52.45 50.15 52.45 50.3 Q53.0 51.2 52.9 52.8 L52.4 54.65 52.15 55.2 52.4 55.35 Q53.05 55.75 53.9 55.75 L55.2 55.6 55.25 55.6 Q56.35 55.1 57.55 53.6 L58.2 51.15 Q58.2 48.5 56.65 47.9 L56.35 48.2 56.1 47.95 56.2 47.75 55.6 47.7 Q54.4 47.7 53.55 48.65 M69.6 39.2 Q69.4 38.35 68.8 38.35 67.7 38.35 66.95 40.1 L66.45 41.6 66.55 41.6 66.65 42.0 66.6 42.25 66.55 42.25 Q66.95 43.1 69.05 44.85 70.1 43.2 70.55 41.75 L70.45 41.75 70.15 41.1 70.0 41.15 Q69.75 40.95 69.65 39.65 L69.55 39.35 69.6 39.2 M65.9 42.25 L65.4 42.9 65.65 43.35 66.1 42.8 65.9 42.25 M65.55 46.8 Q66.1 45.3 66.35 45.2 66.65 45.5 66.65 46.2 L66.6 46.85 67.95 45.15 67.55 44.8 67.3 44.8 65.6 44.5 60.35 52.25 64.0 49.95 64.95 48.85 Q64.95 48.25 65.55 46.8 M66.9 44.1 L66.8 43.95 66.35 43.25 66.1 43.7 66.9 44.1 M25.05 49.35 L27.0 53.05 26.95 52.75 27.25 52.7 28.9 53.45 29.5 53.2 29.75 53.25 29.9 53.5 Q29.9 54.1 29.1 54.15 L28.9 54.7 Q28.9 55.25 29.45 55.25 30.0 55.25 30.9 54.15 L30.8 53.85 30.85 53.6 31.1 53.55 31.25 53.7 32.45 51.85 32.8 51.25 32.55 50.6 32.3 50.15 Q32.15 53.3 30.4 53.3 29.95 53.3 29.6 52.7 L29.3 52.05 29.3 51.55 Q28.8 52.4 27.8 52.4 27.2 52.4 26.3 51.5 L26.3 50.75 26.6 50.7 27.45 51.75 Q29.35 51.75 29.2 49.0 29.2 46.6 28.05 46.6 25.95 47.8 25.05 47.95 L25.05 49.35 M29.8 47.85 L29.8 49.05 29.55 51.05 29.6 51.05 Q30.2 51.4 30.35 52.65 31.45 52.65 31.7 49.85 L31.7 49.6 31.45 49.45 31.65 49.2 Q31.55 48.1 30.95 47.2 L29.85 47.9 29.8 47.85 M33.65 49.35 Q33.65 51.15 35.5 52.9 37.35 54.6 40.05 55.35 L40.05 55.05 40.15 55.05 40.05 54.8 Q40.05 53.05 40.8 52.8 L38.7 51.4 Q36.25 47.6 34.9 47.6 34.1 47.6 33.8 48.45 L33.65 49.35 M33.4 51.15 L33.05 51.85 Q34.2 52.35 39.85 58.75 39.85 58.45 40.25 58.45 L40.5 58.7 40.5 58.8 40.6 58.7 Q40.8 58.7 40.85 59.0 L40.6 59.6 40.75 59.7 40.8 59.7 41.2 59.8 40.85 58.8 Q40.5 57.4 40.05 57.0 L40.05 55.8 Q39.3 55.75 37.25 54.75 35.1 53.7 34.6 53.05 L33.4 51.05 33.4 51.15 M31.7 54.1 L36.45 58.2 Q41.4 62.35 41.4 62.8 L41.35 62.95 41.1 63.15 41.0 63.05 41.1 64.05 41.45 65.9 41.2 66.2 41.0 65.95 41.15 71.4 41.3 78.8 44.2 77.3 45.25 77.6 Q45.55 76.65 46.0 75.9 46.9 74.45 48.3 74.45 L49.8 74.7 49.75 74.3 49.3 74.3 48.7 74.0 49.65 73.7 48.3 66.0 48.3 64.85 48.45 64.85 48.3 64.15 48.35 63.9 Q43.5 63.35 41.85 61.15 L41.5 60.55 41.15 60.35 40.85 60.55 Q40.2 60.55 36.95 57.05 34.25 54.25 32.8 52.3 L31.7 54.1 M40.2 59.1 L40.3 59.0 40.15 59.0 39.95 58.85 40.2 59.1 M65.15 50.6 L65.35 49.55 65.3 49.55 65.1 49.55 Q63.9 51.45 57.65 54.55 L57.5 54.7 Q56.4 56.0 55.2 56.15 L53.9 56.25 52.4 55.9 51.85 55.65 Q51.4 56.15 50.9 56.15 L50.85 56.15 50.35 56.2 Q48.35 56.2 48.0 55.7 46.85 55.35 46.35 54.4 L45.35 54.7 45.0 54.8 Q44.1 54.8 41.4 53.15 L41.3 53.1 40.55 54.8 40.6 55.0 40.6 55.05 40.7 55.35 40.65 55.55 Q40.9 57.85 41.75 59.45 43.75 63.4 48.6 63.4 L50.6 63.4 50.8 63.25 51.05 63.4 54.1 63.3 54.1 63.25 54.35 63.2 54.4 63.25 56.95 62.85 Q59.4 61.9 63.35 56.45 64.35 55.05 65.0 52.7 L65.15 50.6 M56.0 53.6 L55.6 53.65 Q55.15 53.65 55.05 53.35 L55.05 53.0 55.1 52.5 55.35 52.45 Q56.0 52.45 56.05 53.2 L56.0 53.6 M51.8 54.4 Q52.3 53.55 52.3 52.75 52.3 49.7 49.75 49.7 46.4 49.7 46.4 52.0 46.4 54.25 48.9 55.25 L50.75 55.65 51.35 55.05 51.4 54.95 51.8 54.4 M51.75 54.4 L51.2 54.4 50.7 54.8 Q50.1 54.8 49.95 54.45 L49.95 53.6 50.25 53.55 Q50.55 53.55 50.55 54.05 L51.1 53.7 Q51.75 53.7 51.8 54.2 L51.75 54.4 M50.45 64.05 L48.65 63.9 49.2 66.0 49.1 66.3 50.25 73.5 52.85 72.55 Q51.7 70.95 51.25 68.45 L50.6 64.7 50.45 64.1 50.45 64.05 M54.1 63.9 L51.7 64.05 50.95 64.05 50.95 64.1 51.05 64.45 51.85 68.3 Q52.2 70.5 53.35 72.25 53.85 72.45 54.05 74.5 L54.15 75.6 54.35 75.75 54.7 76.05 Q55.1 76.15 55.65 76.5 L55.7 76.35 54.7 73.0 Q54.7 72.5 54.95 72.4 L56.7 71.65 Q54.05 67.65 54.05 64.65 L54.1 63.9" fill="#000000" fill-rule="evenodd" stroke="none"/>
      <path d="M56.25 40.7 Q57.45 40.7 57.45 42.75 L56.85 46.55 56.55 47.15 55.6 47.05 Q54.3 47.05 53.2 48.25 L52.85 48.65 52.4 48.75 52.3 48.3 Q52.7 48.25 53.45 46.8 L53.6 46.8 Q54.5 46.8 54.7 43.75 54.95 40.7 56.25 40.7 M41.3 43.75 L41.6 43.8 43.95 45.45 Q45.35 46.55 47.45 46.55 47.95 46.55 47.9 46.2 L47.3 46.05 49.3 40.2 50.65 45.55 Q51.55 48.9 52.1 49.05 L51.9 49.7 Q51.1 49.05 49.7 49.05 45.8 49.05 45.8 52.05 45.8 53.15 46.1 53.95 L44.95 54.2 44.85 54.15 44.8 54.15 Q44.2 53.8 43.65 53.55 L43.75 53.4 43.8 53.2 Q43.8 50.8 43.05 48.55 43.15 45.35 41.3 43.75 M65.55 46.8 Q64.95 48.25 64.95 48.85 L64.0 49.95 60.35 52.25 65.6 44.5 67.3 44.8 67.55 44.8 67.95 45.15 66.6 46.85 66.65 46.2 Q66.65 45.5 66.35 45.2 66.1 45.3 65.55 46.8 M33.65 49.35 L33.8 48.45 Q34.1 47.6 34.9 47.6 36.25 47.6 38.7 51.4 L40.8 52.8 Q40.05 53.05 40.05 54.8 L40.15 55.05 40.05 55.05 40.05 55.35 Q37.35 54.6 35.5 52.9 33.65 51.15 33.65 49.35 M31.7 54.1 L32.8 52.3 Q34.25 54.25 36.95 57.05 40.2 60.55 40.85 60.55 L41.15 60.35 41.5 60.55 41.85 61.15 Q43.5 63.35 48.35 63.9 L48.3 64.15 48.45 64.85 48.3 64.85 48.3 66.0 49.65 73.7 48.7 74.0 49.3 74.3 49.75 74.3 49.8 74.7 48.3 74.45 Q46.9 74.45 46.0 75.9 45.55 76.65 45.25 77.6 L44.2 77.3 41.3 78.8 41.15 71.4 41.0 65.95 41.2 66.2 41.45 65.9 41.1 64.05 41.0 63.05 41.1 63.15 41.35 62.95 41.4 62.8 Q41.4 62.35 36.45 58.2 L31.7 54.1 M54.1 63.9 L54.05 64.65 Q54.05 67.65 56.7 71.65 L54.95 72.4 Q54.7 72.5 54.7 73.0 L55.7 76.35 55.65 76.5 Q55.1 76.15 54.7 76.05 L54.35 75.75 54.15 75.6 54.05 74.5 Q53.85 72.45 53.35 72.25 52.2 70.5 51.85 68.3 L51.05 64.45 50.95 64.1 50.95 64.05 51.7 64.05 54.1 63.9" fill="#ffb600" fill-rule="evenodd" stroke="none"/>
      <path d="M65.15 50.6 L65.0 52.7 Q64.35 55.05 63.35 56.45 59.4 61.9 56.95 62.85 L54.4 63.25 54.35 63.2 54.1 63.25 54.1 63.3 51.05 63.4 50.8 63.25 50.6 63.4 48.6 63.4 Q43.75 63.4 41.75 59.45 40.9 57.85 40.65 55.55 L40.7 55.35 40.6 55.05 40.6 55.0 40.55 54.8 41.3 53.1 41.4 53.15 Q44.1 54.8 45.0 54.8 L45.35 54.7 46.35 54.4 Q46.85 55.35 48.0 55.7 48.35 56.2 50.35 56.2 L50.85 56.15 50.9 56.15 Q51.4 56.15 51.85 55.65 L52.4 55.9 53.9 56.25 55.2 56.15 Q56.4 56.0 57.5 54.7 L57.65 54.55 Q63.9 51.45 65.1 49.55 L65.3 49.55 65.35 49.55 65.15 50.6" fill="#9cb9cb" fill-rule="evenodd" stroke="none"/>
      <path d="M50.45 64.05 L50.45 64.1 50.6 64.7 51.25 68.45 Q51.7 70.95 52.85 72.55 L50.25 73.5 49.1 66.3 49.2 66.0 48.65 63.9 50.45 64.05" fill="#a800a0" fill-rule="evenodd" stroke="none"/>
      <path d="M65.9 42.25 L66.1 42.8 65.65 43.35 65.4 42.9 65.9 42.25 M69.6 39.2 L69.55 39.35 69.65 39.65 Q69.75 40.95 70.0 41.15 L70.15 41.1 70.45 41.75 70.55 41.75 Q70.1 43.2 69.05 44.85 66.95 43.1 66.55 42.25 L66.6 42.25 66.65 42.0 66.55 41.6 66.45 41.6 66.95 40.1 Q67.7 38.35 68.8 38.35 69.4 38.35 69.6 39.2 M53.55 48.65 Q54.4 47.7 55.6 47.7 L56.2 47.75 56.1 47.95 56.35 48.2 56.65 47.9 Q58.2 48.5 58.2 51.15 L57.55 53.6 Q56.35 55.1 55.25 55.6 L55.2 55.6 53.9 55.75 Q53.05 55.75 52.4 55.35 L52.15 55.2 52.4 54.65 52.9 52.8 Q53.0 51.2 52.45 50.3 L52.45 50.15 52.6 49.9 53.55 48.65 M29.8 47.85 L29.85 47.9 30.95 47.2 Q31.55 48.1 31.65 49.2 L31.45 49.45 31.7 49.6 31.7 49.85 Q31.45 52.65 30.35 52.65 30.2 51.4 29.6 51.05 L29.55 51.05 29.8 49.05 29.8 47.85 M25.05 49.35 L25.05 47.95 Q25.95 47.8 28.05 46.6 29.2 46.6 29.2 49.0 29.35 51.75 27.45 51.75 L26.6 50.7 26.3 50.75 26.3 51.5 Q27.2 52.4 27.8 52.4 28.8 52.4 29.3 51.55 L29.3 52.05 29.6 52.7 Q29.95 53.3 30.4 53.3 32.15 53.3 32.3 50.15 L32.55 50.6 32.8 51.25 32.45 51.85 31.25 53.7 31.1 53.55 30.85 53.6 30.8 53.85 30.9 54.15 Q30.0 55.25 29.45 55.25 28.9 55.25 28.9 54.7 L29.1 54.15 Q29.9 54.1 29.9 53.5 L29.75 53.25 29.5 53.2 28.9 53.45 27.25 52.7 26.95 52.75 27.0 53.05 25.05 49.35 M66.9 44.1 L66.1 43.7 66.35 43.25 66.8 43.95 66.9 44.1 M51.75 54.4 L51.8 54.2 Q51.75 53.7 51.1 53.7 L50.55 54.05 Q50.55 53.55 50.25 53.55 L49.95 53.6 49.95 54.45 Q50.1 54.8 50.7 54.8 L51.2 54.4 51.75 54.4 M51.8 54.4 L51.4 54.95 51.35 55.05 50.75 55.65 48.9 55.25 Q46.4 54.25 46.4 52.0 46.4 49.7 49.75 49.7 52.3 49.7 52.3 52.75 52.3 53.55 51.8 54.4 M56.0 53.6 L56.05 53.2 Q56.0 52.45 55.35 52.45 L55.1 52.5 55.05 53.0 55.05 53.35 Q55.15 53.65 55.6 53.65 L56.0 53.6" fill="#ffffff" fill-rule="evenodd" stroke="none"/>
    </g>
  </defs>
</svg>
