<?xml version="1.0" encoding="UTF-8" standalone="no"?>
<svg xmlns:ffdec="https://www.free-decompiler.com/flash" xmlns:xlink="http://www.w3.org/1999/xlink" ffdec:objectType="frame" height="500.0px" width="500.0px" xmlns="http://www.w3.org/2000/svg">
  <g transform="matrix(5.0, 0.0, 0.0, 5.0, 0.0, 0.0)">
    <use ffdec:characterId="8" height="54.85" transform="matrix(1.0, 0.0, 0.0, 1.0, 0.0, 0.0)" width="36.95" xlink:href="#shape0"/>
  </g>
  <defs>
    <g id="shape0">
      <path d="M36.95 48.35 L36.95 48.1 37.3 48.05 Q38.15 48.05 40.05 51.2 L43.0 53.45 42.95 52.85 Q42.45 51.7 42.45 51.35 41.55 49.25 41.45 48.35 L40.8 42.45 Q40.8 42.05 41.1 42.05 46.25 45.15 46.75 45.15 47.9 45.15 48.05 42.85 48.2 39.8 48.5 39.3 L48.55 39.35 Q48.7 39.0 49.1 39.0 49.6 39.0 49.8 41.0 L49.65 41.3 50.2 43.35 Q50.6 44.4 52.3 46.45 L52.55 46.5 52.8 45.85 52.55 43.5 Q52.55 39.1 55.0 39.1 56.5 39.1 56.45 42.05 56.45 43.8 56.1 44.65 L55.45 46.5 Q57.8 46.65 57.4 49.75 57.3 52.3 56.5 53.75 L57.25 54.35 57.55 54.45 57.45 54.3 Q57.45 53.3 58.7 48.95 59.35 46.55 60.0 45.3 L59.4 44.85 59.25 44.9 58.95 44.6 58.95 44.5 58.9 44.45 59.3 43.8 59.35 43.8 59.4 43.75 59.5 43.55 59.8 43.25 59.85 43.25 59.7 43.25 Q59.15 43.25 58.8 42.45 L58.75 42.25 58.55 42.3 Q57.5 42.3 57.05 41.0 L56.8 39.7 Q56.8 39.15 57.15 38.3 57.6 37.05 58.4 37.05 L58.75 37.2 Q59.2 35.95 59.9 35.95 60.95 35.95 61.5 36.45 63.7 36.65 64.15 40.5 64.15 43.25 63.3 43.9 L63.65 45.35 Q63.65 46.15 62.7 46.15 L62.55 46.15 Q62.45 47.55 60.3 52.1 L60.4 52.3 59.9 53.55 59.7 54.0 60.6 53.4 62.8 50.65 64.55 47.45 64.55 47.35 64.6 47.35 64.75 47.05 64.8 47.1 64.8 47.05 65.3 45.35 65.6 45.3 65.9 45.65 65.65 47.2 65.05 48.0 65.15 49.85 Q65.15 57.0 62.05 61.1 59.35 64.65 55.0 65.1 L55.2 66.5 55.1 66.75 57.65 71.05 56.75 71.85 Q55.8 72.65 55.8 73.3 55.8 74.15 57.65 78.1 57.75 78.65 57.35 78.65 56.7 78.1 56.1 78.1 L55.4 79.1 55.6 79.3 57.35 81.55 58.35 83.4 58.5 83.15 Q59.7 81.4 60.15 81.1 L61.75 79.05 62.35 78.0 Q62.85 77.55 64.7 77.55 65.65 77.55 65.65 78.0 60.9 89.8 60.2 89.8 59.3 89.8 58.5 88.4 L57.55 86.75 57.55 86.25 57.5 86.15 56.8 84.6 Q56.8 84.05 57.35 84.05 L57.8 84.15 57.85 84.15 56.5 82.15 55.85 81.35 56.65 84.9 Q56.65 86.15 56.35 86.35 L53.05 87.9 49.0 90.8 Q47.9 90.8 47.45 88.7 L47.0 85.95 46.05 85.9 Q46.2 85.2 46.9 84.9 L46.9 84.45 46.5 80.7 46.5 80.65 45.75 80.3 Q44.55 79.65 44.45 79.0 L44.6 79.0 44.25 78.55 44.25 78.5 43.2 79.25 Q42.35 80.05 41.65 80.05 L41.2 80.0 41.2 62.8 40.9 62.15 Q40.05 62.15 37.55 55.15 37.1 53.9 35.15 50.55 L34.85 50.55 33.1 49.6 32.35 49.8 31.6 49.3 31.55 49.25 31.55 49.3 31.35 49.4 Q31.05 49.25 31.05 48.65 L31.1 48.1 Q29.95 47.85 29.35 45.9 L28.95 43.6 29.2 41.6 Q29.55 39.8 30.15 39.8 30.35 39.8 30.5 39.95 L30.55 40.1 30.5 40.4 32.8 38.3 Q34.05 38.3 34.25 40.05 L34.8 39.2 35.0 39.25 35.55 39.0 36.7 38.7 Q37.95 38.7 37.65 41.9 37.65 45.2 36.2 45.7 L36.7 45.75 36.95 45.55 38.15 46.1 38.3 46.75 Q38.3 47.75 36.65 47.75 L36.9 48.25 36.95 48.35 39.05 53.8 40.05 56.0 40.35 54.9 Q40.8 53.4 41.4 53.4 L39.7 51.75 36.95 48.35 M48.8 40.35 Q48.7 45.8 47.0 45.8 45.35 45.8 41.55 43.0 41.85 47.4 43.85 53.6 L44.9 54.05 Q45.5 54.05 45.45 53.85 L45.55 53.9 45.45 52.45 Q45.45 48.45 48.95 48.45 50.9 48.45 51.9 49.4 L51.9 49.2 Q51.9 48.2 52.25 48.2 L52.35 48.2 52.6 47.55 52.7 47.35 52.4 47.1 52.35 47.1 52.0 46.8 51.9 46.7 51.15 45.8 49.75 43.65 Q48.9 41.75 48.9 40.3 L48.8 40.35 M58.8 39.7 Q58.8 41.6 59.95 41.6 L61.35 41.05 Q62.95 41.05 63.05 42.15 63.0 42.3 62.75 42.3 62.15 41.7 61.45 41.7 L59.9 42.3 59.2 42.1 59.2 42.15 60.0 43.0 60.0 43.15 Q60.45 42.8 60.9 42.8 L61.5 42.85 61.5 42.9 Q62.1 42.95 62.4 43.35 L62.55 43.3 62.85 43.35 Q63.6 43.05 63.55 40.5 63.55 38.6 62.15 37.5 L62.0 37.45 61.8 37.55 Q60.55 36.6 59.9 36.6 59.35 36.6 59.05 38.1 L58.8 39.7 M58.45 41.0 L58.2 39.7 Q58.2 38.95 58.5 37.85 L57.4 39.65 Q57.4 40.15 58.0 40.75 L58.55 41.45 58.6 41.35 58.45 41.0 M53.05 45.05 Q53.35 45.05 53.3 45.45 L53.05 46.75 Q53.4 46.45 54.9 46.45 L55.45 44.85 Q55.95 43.65 55.95 42.05 55.9 39.6 55.3 39.6 53.3 39.6 53.1 43.1 L53.0 45.1 53.0 45.2 53.05 45.05 M52.45 49.3 L52.5 49.7 52.4 50.0 Q53.05 50.95 53.05 52.65 53.05 53.85 52.5 54.65 L52.65 54.55 Q52.95 54.55 53.2 54.85 54.8 54.85 55.7 53.85 56.8 52.6 56.8 49.8 56.8 47.1 55.0 47.1 53.35 47.1 52.85 48.15 L52.45 49.3 M62.15 44.1 L61.7 43.7 61.25 43.5 60.85 43.45 Q60.3 43.45 59.9 44.1 L59.6 44.6 60.05 44.85 60.2 44.9 Q60.8 43.8 61.35 43.8 61.9 43.8 62.2 44.25 L62.55 45.5 63.0 45.35 62.45 44.35 62.35 44.35 62.15 44.1 M61.1 44.45 Q59.8 46.2 59.3 49.55 58.7 53.0 57.8 54.55 L59.0 54.35 58.95 54.3 59.7 52.9 59.45 52.65 61.95 46.05 61.3 45.6 61.3 45.25 61.65 45.2 61.85 45.2 61.7 44.45 61.1 44.45 M29.55 43.6 Q29.55 46.65 31.3 47.55 31.55 46.9 32.3 46.45 30.8 46.15 30.8 44.8 30.8 43.95 31.6 43.2 32.05 43.4 32.05 43.5 L31.4 44.8 Q31.4 45.3 33.0 45.9 34.8 45.9 34.95 43.4 34.95 42.85 34.4 42.45 33.8 42.0 33.7 41.15 33.45 39.7 32.8 39.0 31.95 39.65 30.25 41.25 L29.55 43.6 M36.55 39.35 L34.85 40.15 34.8 40.1 34.4 40.5 34.3 40.4 34.3 40.85 35.25 42.2 Q35.55 42.55 35.55 43.4 35.45 44.95 34.9 45.75 L35.2 45.75 35.05 45.65 36.85 43.8 37.05 41.95 Q37.2 39.35 36.55 39.35 M32.1 48.0 L32.35 48.25 31.8 49.0 Q32.1 49.3 32.35 49.3 L32.5 49.3 32.2 49.1 32.25 48.9 32.5 48.8 33.3 49.05 34.0 48.6 34.0 48.55 33.95 48.55 Q33.45 48.3 33.45 48.05 33.45 47.65 34.6 47.2 L35.75 46.85 35.7 46.7 Q35.85 46.55 36.0 46.55 L36.5 47.35 37.1 47.15 Q37.8 47.05 37.8 46.75 L37.7 46.3 36.9 46.15 33.95 46.6 32.45 47.35 32.05 48.0 32.1 48.0 M33.8 49.25 L34.75 49.8 34.25 49.0 Q34.05 49.1 33.8 49.25 M35.45 49.45 L35.5 49.3 35.85 49.35 35.9 49.55 35.8 50.1 36.55 51.45 38.15 54.95 41.4 61.8 41.35 61.9 41.5 62.2 42.15 63.5 41.9 63.75 41.65 63.55 41.8 66.6 41.8 79.25 44.4 77.8 Q45.1 77.8 45.5 78.2 47.5 75.15 49.45 74.85 L48.2 67.3 48.2 64.35 Q46.15 63.7 44.35 62.55 L42.6 61.3 42.4 61.3 Q41.95 61.3 41.3 60.25 L40.3 58.75 Q40.1 58.45 40.05 57.95 L38.4 54.05 Q37.05 50.8 36.0 47.5 L34.65 48.25 34.8 48.45 34.8 48.55 35.45 49.45 M40.45 56.85 L41.35 58.55 43.95 61.5 Q47.85 64.5 53.7 64.5 64.6 64.5 64.6 49.05 L63.1 51.35 Q61.25 53.85 60.0 54.55 L59.95 54.5 59.9 54.5 Q58.8 55.05 57.7 55.05 L57.15 54.8 Q56.3 54.75 56.2 54.15 55.15 55.55 53.15 55.55 52.75 55.55 52.45 55.2 L52.45 54.75 Q51.35 56.15 48.3 56.15 L47.1 55.55 45.8 54.55 45.7 54.3 44.9 54.55 44.05 54.15 43.85 54.3 43.85 54.35 43.6 54.4 Q42.75 54.4 41.65 53.6 L41.65 53.65 41.05 54.7 Q40.45 55.7 40.45 56.65 L40.45 56.85 M51.05 54.9 L51.75 54.2 Q52.45 53.3 52.45 52.6 52.45 49.1 48.45 49.1 47.25 49.1 46.55 50.7 46.05 51.8 46.05 52.45 46.05 55.4 49.1 55.4 L50.5 55.15 49.85 54.55 Q49.85 53.8 50.3 53.8 51.1 53.8 51.1 54.45 L51.05 54.9 M55.3 52.9 Q55.8 52.9 55.8 53.3 L55.65 53.85 55.2 54.0 54.75 53.6 55.3 52.9 M54.6 65.8 L54.4 65.3 54.4 65.15 53.65 65.15 51.95 65.1 51.95 65.4 51.65 66.5 Q51.65 67.75 52.15 69.95 52.2 70.85 53.05 71.85 L53.9 73.15 53.85 73.2 Q54.2 73.9 54.05 76.6 L54.05 77.75 54.55 78.15 54.7 78.1 Q54.95 78.1 55.05 78.25 L55.4 77.65 56.75 77.55 Q55.2 74.6 55.2 73.35 55.2 71.8 56.8 70.9 55.5 69.6 54.2 65.95 54.35 65.8 54.55 65.8 L54.65 66.0 54.6 65.8 M51.2 65.0 L48.75 64.55 Q48.9 67.65 50.05 74.35 L50.25 74.2 Q50.5 74.2 50.6 74.4 51.4 74.4 53.1 73.05 51.85 72.4 51.45 69.8 L51.05 66.55 Q51.05 65.55 51.2 65.0 M55.2 78.45 L55.1 78.35 55.1 78.45 55.2 78.5 55.2 78.45 M53.85 79.2 Q52.95 81.15 49.3 81.15 L47.5 80.95 47.7 82.25 47.9 84.45 47.9 84.7 48.3 84.65 50.7 83.8 Q51.9 83.65 55.85 81.3 L54.9 80.1 53.9 79.15 53.85 79.2 M58.1 84.75 L58.35 85.0 58.15 84.65 58.1 84.75" fill="#000000" fill-rule="evenodd" stroke="none"/>
      <path d="M36.95 48.35 L39.7 51.75 41.4 53.4 Q40.8 53.4 40.35 54.9 L40.05 56.0 39.05 53.8 36.95 48.35 M48.8 40.35 L48.9 40.3 Q48.9 41.75 49.75 43.65 L51.15 45.8 51.9 46.7 52.0 46.8 52.35 47.1 52.4 47.1 52.7 47.35 52.6 47.55 52.35 48.2 52.25 48.2 Q51.9 48.2 51.9 49.2 L51.9 49.4 Q50.9 48.45 48.95 48.45 45.45 48.45 45.45 52.45 L45.55 53.9 45.45 53.85 Q45.5 54.05 44.9 54.05 L43.85 53.6 Q41.85 47.4 41.55 43.0 45.35 45.8 47.0 45.8 48.7 45.8 48.8 40.35 M53.0 45.1 L53.1 43.1 Q53.3 39.6 55.3 39.6 55.9 39.6 55.95 42.05 55.95 43.65 55.45 44.85 L54.9 46.45 Q53.4 46.45 53.05 46.75 L53.3 45.45 Q53.35 45.05 53.05 45.05 L53.0 45.1 M61.1 44.45 L61.7 44.45 61.85 45.2 61.65 45.2 61.3 45.25 61.3 45.6 61.95 46.05 59.45 52.65 59.7 52.9 58.95 54.3 59.0 54.35 57.8 54.55 Q58.7 53.0 59.3 49.55 59.8 46.2 61.1 44.45 M35.45 49.45 L34.8 48.55 34.8 48.45 34.65 48.25 36.0 47.5 Q37.05 50.8 38.4 54.05 L40.05 57.95 Q40.1 58.45 40.3 58.75 L41.3 60.25 Q41.95 61.3 42.4 61.3 L42.6 61.3 44.35 62.55 Q46.15 63.7 48.2 64.35 L48.2 67.3 49.45 74.85 Q47.5 75.15 45.5 78.2 45.1 77.8 44.4 77.8 L41.8 79.25 41.8 66.6 41.65 63.55 41.9 63.75 42.15 63.5 41.5 62.2 41.35 61.9 41.4 61.8 38.15 54.95 36.55 51.45 35.8 50.1 35.9 49.55 35.85 49.35 35.5 49.3 35.45 49.45 M54.55 65.8 Q54.35 65.8 54.2 65.95 55.5 69.6 56.8 70.9 55.2 71.8 55.2 73.35 55.2 74.6 56.75 77.55 L55.4 77.65 55.05 78.25 Q54.95 78.1 54.7 78.1 L54.55 78.15 54.05 77.75 54.05 76.6 Q54.2 73.9 53.85 73.2 L53.9 73.15 53.05 71.85 Q52.2 70.85 52.15 69.95 51.65 67.75 51.65 66.5 L51.95 65.4 51.95 65.1 53.65 65.15 54.4 65.15 54.4 65.3 54.6 65.8 54.55 65.8" fill="#ffb600" fill-rule="evenodd" stroke="none"/>
      <path d="M40.45 56.85 L40.45 56.65 Q40.45 55.7 41.05 54.7 L41.65 53.65 41.65 53.6 Q42.75 54.4 43.6 54.4 L43.85 54.35 43.85 54.3 44.05 54.15 44.9 54.55 45.7 54.3 45.8 54.55 47.1 55.55 48.3 56.15 Q51.35 56.15 52.45 54.75 L52.45 55.2 Q52.75 55.55 53.15 55.55 55.15 55.55 56.2 54.15 56.3 54.75 57.15 54.8 L57.7 55.05 Q58.8 55.05 59.9 54.5 L59.95 54.5 60.0 54.55 Q61.25 53.85 63.1 51.35 L64.6 49.05 Q64.6 64.5 53.7 64.5 47.85 64.5 43.95 61.5 L41.35 58.55 40.45 56.85" fill="#9cb9cb" fill-rule="evenodd" stroke="none"/>
      <path d="M51.2 65.0 Q51.05 65.55 51.05 66.55 L51.45 69.8 Q51.85 72.4 53.1 73.05 51.4 74.4 50.6 74.4 50.5 74.2 50.25 74.2 L50.05 74.35 Q48.9 67.65 48.75 64.55 L51.2 65.0" fill="#a800a0" fill-rule="evenodd" stroke="none"/>
      <path d="M58.45 41.0 L58.6 41.35 58.55 41.45 58.0 40.75 Q57.4 40.15 57.4 39.65 L58.5 37.85 Q58.2 38.95 58.2 39.7 L58.45 41.0 M58.8 39.7 L59.05 38.1 Q59.35 36.6 59.9 36.6 60.55 36.6 61.8 37.55 L62.0 37.45 62.15 37.5 Q63.55 38.6 63.55 40.5 63.6 43.05 62.85 43.35 L62.55 43.3 62.4 43.35 Q62.1 42.95 61.5 42.9 L61.5 42.85 60.9 42.8 Q60.45 42.8 60.0 43.15 L60.0 43.0 59.2 42.15 59.2 42.1 59.9 42.3 61.45 41.7 Q62.15 41.7 62.75 42.3 63.0 42.3 63.05 42.15 62.95 41.05 61.35 41.05 L59.95 41.6 Q58.8 41.6 58.8 39.7 M62.2 44.25 Q61.9 43.8 61.35 43.8 60.8 43.8 60.2 44.9 L60.05 44.85 59.6 44.6 59.9 44.1 Q60.3 43.45 60.85 43.45 L61.25 43.5 61.7 43.7 62.15 44.1 62.2 44.25 M52.45 49.3 L52.85 48.15 Q53.35 47.1 55.0 47.1 56.8 47.1 56.8 49.8 56.8 52.6 55.7 53.85 54.8 54.85 53.2 54.85 52.95 54.55 52.65 54.55 L52.5 54.65 Q53.05 53.85 53.05 52.65 53.05 50.95 52.4 50.0 L52.5 49.7 52.45 49.3 M32.1 48.0 L32.05 48.0 32.45 47.35 33.95 46.6 36.9 46.15 37.7 46.3 37.8 46.75 Q37.8 47.05 37.1 47.15 L36.5 47.35 36.0 46.55 Q35.85 46.55 35.7 46.7 L35.75 46.85 34.6 47.2 Q33.45 47.65 33.45 48.05 33.45 48.3 33.95 48.55 L34.0 48.55 34.0 48.6 33.3 49.05 32.5 48.8 32.25 48.9 32.2 49.1 32.5 49.3 32.35 49.3 Q32.1 49.3 31.8 49.0 L32.35 48.25 32.1 48.0 M36.55 39.35 Q37.2 39.35 37.05 41.95 L36.85 43.8 35.05 45.65 35.2 45.75 34.9 45.75 Q35.45 44.95 35.55 43.4 35.55 42.55 35.25 42.2 L34.3 40.85 34.3 40.4 34.4 40.5 34.8 40.1 34.85 40.15 36.55 39.35 M29.55 43.6 L30.25 41.25 Q31.95 39.65 32.8 39.0 33.45 39.7 33.7 41.15 33.8 42.0 34.4 42.45 34.95 42.85 34.95 43.4 34.8 45.9 33.0 45.9 31.4 45.3 31.4 44.8 L32.05 43.5 Q32.05 43.4 31.6 43.2 30.8 43.95 30.8 44.8 30.8 46.15 32.3 46.45 31.55 46.9 31.3 47.55 29.55 46.65 29.55 43.6 M55.3 52.9 L54.75 53.6 55.2 54.0 55.65 53.85 55.8 53.3 Q55.8 52.9 55.3 52.9 M51.05 54.9 L51.1 54.45 Q51.1 53.8 50.3 53.8 49.85 53.8 49.85 54.55 L50.5 55.15 49.1 55.4 Q46.05 55.4 46.05 52.45 46.05 51.8 46.55 50.7 47.25 49.1 48.45 49.1 52.45 49.1 52.45 52.6 52.45 53.3 51.75 54.2 L51.05 54.9" fill="#ffffff" fill-rule="evenodd" stroke="none"/>
    </g>
  </defs>
</svg>
