<?xml version="1.0" encoding="UTF-8" standalone="no"?>
<svg xmlns:ffdec="https://www.free-decompiler.com/flash" xmlns:xlink="http://www.w3.org/1999/xlink" ffdec:objectType="shape" height="222.5px" width="571.75px" xmlns="http://www.w3.org/2000/svg">
  <g transform="matrix(5.0, 0.0, 0.0, 5.0, 0.0, 0.0)">
    <path d="M11.4 8.8 Q14.15 7.8 16.3 9.85 L20.25 13.65 Q15.9 13.7 14.9 12.95 13.95 12.25 12.65 12.25 8.5 12.25 8.5 15.1 8.5 16.3 10.9 17.2 L16.25 18.8 Q22.25 20.65 23.6 23.9 24.0 24.85 24.0 25.9 24.0 30.0 19.85 35.5 L19.35 36.15 Q13.65 43.15 4.55 43.15 2.85 43.15 1.95 41.55 1.25 40.4 1.25 39.2 1.25 37.45 2.3 36.15 2.9 35.45 3.75 34.9 5.15 34.0 9.25 32.75 13.2 31.55 14.75 30.45 17.25 28.7 17.25 25.65 17.3 24.6 17.0 23.9 L16.15 22.9 Q14.2 21.65 11.75 21.6 9.0 21.5 7.4 20.75 1.25 17.75 1.25 14.65 1.25 12.85 4.7 11.1 7.6 9.6 11.4 8.8 M43.9 7.4 Q42.8 8.15 41.65 8.15 L36.65 8.0 Q35.25 8.45 35.25 12.8 35.25 13.6 36.75 19.95 L37.65 23.9 38.25 27.7 Q37.6 31.4 31.55 31.4 31.2 31.4 31.1 23.9 L31.0 9.3 Q32.55 5.75 28.4 5.75 L24.55 5.9 24.5 4.75 Q24.5 3.65 24.75 3.65 26.25 3.65 26.95 4.2 L34.25 4.75 44.15 4.8 44.95 5.25 44.9 6.3 Q44.9 6.75 43.9 7.4 M48.55 27.15 Q45.25 27.15 45.25 25.75 46.35 19.65 47.85 13.6 50.8 1.4 52.65 1.4 58.0 1.4 60.15 13.4 61.25 19.45 61.25 26.2 62.2 28.4 58.55 28.4 57.15 28.4 56.45 23.35 55.75 18.25 53.9 18.25 53.15 18.25 52.15 22.7 51.15 27.15 48.55 27.15 M113.0 19.45 L112.95 19.9 Q110.45 35.9 108.8 35.9 L107.75 35.75 Q108.3 33.0 108.25 31.45 108.15 28.5 105.15 28.5 103.1 28.5 103.15 32.6 L103.0 36.15 Q102.75 38.0 102.05 38.65 L101.75 38.4 101.7 36.15 101.25 23.0 Q101.25 21.25 101.4 19.9 101.7 16.8 102.8 16.05 103.25 16.85 103.2 19.9 L103.1 22.55 Q102.85 26.5 105.65 26.5 108.75 26.5 108.55 21.1 L108.5 19.9 Q108.45 18.1 108.7 17.35 109.2 15.65 111.15 15.65 113.0 15.65 113.0 19.45 M73.25 7.25 Q71.55 7.25 71.25 8.35 L71.25 10.05 Q71.25 11.75 71.9 12.25 72.5 11.95 73.55 10.4 L74.5 8.5 Q74.65 7.25 73.25 7.25 M95.5 12.85 L95.5 14.1 Q95.5 16.45 91.25 18.4 87.0 20.3 87.0 21.65 87.0 23.1 90.0 25.2 93.0 27.35 93.0 29.05 92.8 32.4 91.75 32.4 88.85 32.4 86.65 27.95 85.0 24.55 85.0 22.9 85.0 22.1 87.15 17.45 89.6 12.15 91.15 12.15 94.85 12.15 95.5 12.85 M57.25 10.8 Q57.95 9.25 55.15 9.25 51.75 12.5 51.75 12.8 51.75 13.15 52.25 13.7 53.05 14.5 54.5 14.5 55.2 14.5 56.25 13.0 57.25 11.55 57.25 10.8 M77.0 8.2 Q77.0 9.4 76.0 12.25 75.0 15.05 75.0 16.15 75.0 17.6 77.75 21.55 80.5 25.5 80.5 28.05 80.5 29.4 78.55 29.4 76.5 29.4 74.85 25.35 73.25 21.25 71.75 21.25 70.6 21.25 70.55 24.9 70.5 29.25 69.9 30.15 L68.3 30.15 68.25 18.5 Q67.95 14.75 68.25 11.2 68.85 4.15 72.0 4.15 77.0 4.15 77.0 8.2" fill="#ff0000" fill-rule="evenodd" stroke="none"/>
    <path d="M46.25 6.4 Q46.25 7.75 43.8 8.8 40.85 10.1 37.0 9.4 36.5 11.6 36.5 12.85 L38.0 19.4 39.0 23.9 39.5 27.7 Q39.5 29.1 38.3 30.55 36.55 32.75 32.9 32.75 29.6 32.75 29.45 27.65 L29.8 23.9 30.0 20.15 30.0 7.4 Q28.4 5.8 26.65 7.15 25.0 8.4 23.55 6.65 23.25 6.25 23.25 4.95 23.25 2.25 25.25 2.25 26.45 2.25 27.35 2.75 28.2 3.3 29.9 3.25 L41.5 3.0 Q46.55 3.0 46.25 6.4 M43.9 7.4 Q44.9 6.75 44.9 6.3 L44.95 5.25 44.15 4.8 34.25 4.75 26.95 4.2 Q26.25 3.65 24.75 3.65 24.5 3.65 24.5 4.75 L24.55 5.9 28.4 5.75 Q32.55 5.75 31.0 9.3 L31.1 23.9 Q31.2 31.4 31.55 31.4 37.6 31.4 38.25 27.7 L37.65 23.9 36.75 19.95 Q35.25 13.6 35.25 12.8 35.25 8.45 36.65 8.0 L41.65 8.15 Q42.8 8.15 43.9 7.4 M11.4 8.8 Q7.6 9.6 4.7 11.1 1.25 12.85 1.25 14.65 1.25 17.75 7.4 20.75 9.0 21.5 11.75 21.6 14.2 21.65 16.15 22.9 L17.0 23.9 Q17.3 24.6 17.25 25.65 17.25 28.7 14.75 30.45 13.2 31.55 9.25 32.75 5.15 34.0 3.75 34.9 2.9 35.45 2.3 36.15 1.25 37.45 1.25 39.2 1.25 40.4 1.95 41.55 2.85 43.15 4.55 43.15 13.65 43.15 19.35 36.15 L19.85 35.5 Q24.0 30.0 24.0 25.9 24.0 24.85 23.6 23.9 22.25 20.65 16.25 18.8 L10.9 17.2 Q8.5 16.3 8.5 15.1 8.5 12.25 12.65 12.25 13.95 12.25 14.9 12.95 15.9 13.7 20.25 13.65 L16.3 9.85 Q14.15 7.8 11.4 8.8 M18.8 10.8 L21.05 12.6 Q21.75 13.2 21.75 13.9 21.75 15.0 20.25 15.0 15.45 15.0 14.5 14.35 13.5 13.65 12.5 13.65 11.65 13.65 10.65 14.3 L9.75 15.05 Q9.75 15.6 12.15 16.35 L17.5 18.05 Q23.7 20.3 24.95 23.9 L25.25 25.8 Q25.25 30.1 20.9 36.15 14.9 44.5 5.15 44.5 0.0 44.5 0.0 39.2 0.0 37.5 0.65 36.15 1.3 34.9 2.5 34.0 4.15 32.8 8.0 31.7 12.25 30.55 13.5 29.85 16.0 28.45 16.0 25.8 16.0 24.6 15.6 24.25 L15.1 23.9 Q13.55 23.15 9.65 23.25 L4.9 20.55 Q0.0 18.1 0.0 14.75 0.0 12.35 4.1 10.0 8.4 7.5 13.4 7.5 17.55 7.5 18.15 8.65 L18.8 10.8 M48.55 27.15 Q51.15 27.15 52.15 22.7 53.15 18.25 53.9 18.25 55.75 18.25 56.45 23.35 57.15 28.4 58.55 28.4 62.2 28.4 61.25 26.2 61.25 19.45 60.15 13.4 58.0 1.4 52.65 1.4 50.8 1.4 47.85 13.6 46.35 19.65 45.25 25.75 45.25 27.15 48.55 27.15 M43.5 26.55 Q43.5 23.75 46.65 12.9 50.35 0.0 53.5 0.0 59.35 0.0 61.5 13.15 62.6 19.75 62.5 26.4 L62.4 28.4 Q61.8 29.75 59.25 29.75 55.75 29.75 55.05 25.95 54.85 21.45 54.05 20.15 53.0 23.65 52.35 26.95 51.7 28.5 48.65 28.5 46.3 28.5 45.25 27.85 44.2 27.15 43.55 27.15 L43.5 26.55 M114.2 19.9 Q112.35 32.9 110.35 36.15 109.7 37.25 109.0 37.25 107.3 37.25 106.65 36.15 106.2 35.45 106.15 34.3 106.05 30.5 105.4 29.8 104.85 30.55 104.8 35.75 L104.8 36.15 Q104.65 40.0 102.5 40.0 101.45 40.0 100.5 39.25 99.75 38.65 99.75 38.3 L100.3 36.15 100.5 34.7 100.0 22.95 99.9 19.9 100.0 18.55 Q100.5 14.75 102.9 14.75 105.25 14.75 104.8 19.9 L104.5 22.2 Q104.5 25.15 105.8 25.15 107.0 25.15 107.2 23.45 L107.25 19.9 107.25 19.7 Q107.3 14.25 111.65 14.25 114.8 14.25 114.25 19.5 L114.2 19.9 M113.0 19.45 Q113.0 15.65 111.15 15.65 109.2 15.65 108.7 17.35 108.45 18.1 108.5 19.9 L108.55 21.1 Q108.75 26.5 105.65 26.5 102.85 26.5 103.1 22.55 L103.2 19.9 Q103.25 16.85 102.8 16.05 101.7 16.8 101.4 19.9 101.25 21.25 101.25 23.0 L101.7 36.15 101.75 38.4 102.05 38.65 Q102.75 38.0 103.0 36.15 L103.15 32.6 Q103.1 28.5 105.15 28.5 108.15 28.5 108.25 31.45 108.3 33.0 107.75 35.75 L108.8 35.9 Q110.45 35.9 112.95 19.9 L113.0 19.45 M92.5 19.2 Q88.25 21.25 88.25 21.7 88.25 23.05 91.25 24.65 94.25 26.25 94.25 29.0 94.35 34.0 90.5 34.0 88.4 34.0 88.25 33.5 88.25 32.95 88.9 32.75 L89.65 32.65 Q83.75 28.5 83.75 22.95 83.75 21.1 86.3 16.5 89.5 10.75 93.15 10.75 97.7 10.75 96.75 14.3 96.75 17.2 92.5 19.2 M95.5 12.85 Q94.85 12.15 91.15 12.15 89.6 12.15 87.15 17.45 85.0 22.1 85.0 22.9 85.0 24.55 86.65 27.95 88.85 32.4 91.75 32.4 92.8 32.4 93.0 29.05 93.0 27.35 90.0 25.2 87.0 23.1 87.0 21.65 87.0 20.3 91.25 18.4 95.5 16.45 95.5 14.1 L95.5 12.85 M73.25 7.25 Q74.65 7.25 74.5 8.5 L73.55 10.4 Q72.5 11.95 71.9 12.25 71.25 11.75 71.25 10.05 L71.25 8.35 Q71.55 7.25 73.25 7.25 M72.5 9.0 L72.5 9.8 72.75 8.9 72.5 9.0 M77.25 12.75 Q76.25 15.35 76.25 16.15 76.25 16.75 79.0 21.1 81.75 25.45 81.75 28.15 81.75 30.75 78.9 30.75 75.85 30.75 74.05 27.35 72.65 23.7 72.15 23.15 72.05 24.1 72.45 28.0 72.4 31.5 69.65 31.5 67.35 31.5 66.55 30.2 L66.25 28.9 Q67.0 20.25 67.0 15.4 66.1 10.6 66.5 7.85 67.2 2.75 73.65 2.75 78.65 2.75 78.25 8.05 78.25 10.15 77.25 12.75 M77.0 8.2 Q77.0 4.15 72.0 4.15 68.85 4.15 68.25 11.2 67.95 14.75 68.25 18.5 L68.3 30.15 69.9 30.15 Q70.5 29.25 70.55 24.9 70.6 21.25 71.75 21.25 73.25 21.25 74.85 25.35 76.5 29.4 78.55 29.4 80.5 29.4 80.5 28.05 80.5 25.5 77.75 21.55 75.0 17.6 75.0 16.15 75.0 15.05 76.0 12.25 77.0 9.4 77.0 8.2 M57.25 10.8 Q57.25 11.55 56.25 13.0 55.2 14.5 54.5 14.5 53.05 14.5 52.25 13.7 51.75 13.15 51.75 12.8 51.75 12.5 55.15 9.25 57.95 9.25 57.25 10.8 M54.65 10.65 Q54.0 12.1 54.0 13.05 L54.05 13.15 Q56.0 12.55 56.0 10.65 L54.65 10.65" fill="#000000" fill-rule="evenodd" stroke="none"/>
  </g>
</svg>
