<?xml version="1.0" encoding="UTF-8" standalone="no"?>
<svg xmlns:ffdec="https://www.free-decompiler.com/flash" xmlns:xlink="http://www.w3.org/1999/xlink" ffdec:objectType="shape" height="277.5px" width="526.75px" xmlns="http://www.w3.org/2000/svg">
  <g transform="matrix(5.0, 0.0, 0.0, 5.0, 0.0, 0.0)">
    <path d="M97.5 1.4 Q96.8 1.4 96.25 1.9 95.75 2.35 95.4 3.15 94.75 4.65 94.5 7.4 L94.45 8.65 94.4 9.15 Q94.3 11.3 94.5 13.45 L94.55 17.15 Q94.7 21.15 95.15 22.55 L95.95 24.9 Q97.3 29.4 97.4 31.75 L97.65 32.0 Q100.1 28.45 101.3 24.9 L102.25 20.8 103.3 17.15 Q104.0 13.85 104.0 9.85 L104.0 9.15 104.0 8.65 103.65 5.25 Q103.25 4.0 102.45 3.15 101.65 2.35 100.55 1.9 99.25 1.4 97.5 1.4 M99.25 0.0 Q101.4 0.0 102.8 1.15 L103.5 1.9 104.3 3.15 104.9 4.9 Q105.35 6.8 105.35 8.65 L105.3 9.15 105.25 9.9 104.4 17.15 Q103.75 21.7 102.95 24.9 100.95 32.9 98.0 32.9 97.65 32.9 97.8 33.45 L98.0 34.4 97.4 34.75 94.4 24.9 93.6 22.15 Q93.35 20.9 93.3 17.15 L93.25 13.4 Q93.0 11.2 93.1 9.15 L93.1 8.65 Q93.15 7.55 93.35 6.5 93.65 4.55 94.35 3.15 94.65 2.45 95.1 1.9 L95.85 1.15 Q97.2 0.0 99.25 0.0 M68.4 8.55 L70.05 8.65 72.75 9.15 Q75.2 9.8 77.15 11.05 L77.65 11.35 Q81.05 13.7 82.9 18.05 L83.0 18.25 83.4 19.3 Q84.45 22.1 84.7 24.9 L84.75 28.05 Q84.75 32.95 83.4 37.2 82.0 41.65 79.15 45.4 L77.15 47.75 Q73.2 51.85 68.4 52.6 L66.25 52.75 62.95 52.1 62.75 52.1 62.1 51.75 63.35 52.75 62.95 53.1 Q62.65 53.1 60.75 51.9 L58.2 50.0 56.9 48.5 55.15 48.0 Q53.35 47.1 52.2 44.65 51.4 43.0 50.9 40.7 L50.6 39.05 Q50.15 36.05 50.15 32.3 L50.25 28.65 Q49.85 24.45 50.9 20.6 51.2 19.4 51.65 18.25 52.9 14.9 55.15 12.7 57.75 10.15 61.65 9.15 L64.45 8.65 67.25 8.5 68.4 8.55 M77.15 12.45 Q73.7 10.15 68.4 9.95 L67.25 9.9 Q59.2 9.9 55.15 14.65 53.5 16.6 52.55 19.3 50.9 24.0 51.5 28.7 51.5 36.55 51.95 38.8 52.6 42.35 54.4 44.65 L55.15 45.55 Q56.45 46.9 58.25 47.75 L58.15 47.95 59.75 48.85 59.75 46.9 60.4 46.75 Q60.8 46.75 61.5 49.1 62.85 51.4 66.2 51.4 L68.4 51.3 Q73.65 50.65 77.15 46.85 79.0 44.85 80.4 41.95 82.95 36.7 83.4 30.65 L83.5 27.95 83.4 25.2 83.4 24.9 82.9 21.7 Q81.65 15.75 77.65 12.8 L77.15 12.45 M67.0 25.15 Q64.65 25.15 64.1 27.9 63.8 29.3 64.0 30.7 64.0 32.65 64.15 33.9 64.5 36.65 65.55 36.65 L68.4 36.1 Q69.65 35.55 70.55 34.4 71.75 32.9 71.75 31.8 70.75 26.6 68.4 25.5 67.75 25.15 67.0 25.15 M63.05 26.65 Q64.1 23.75 68.0 23.75 L68.4 23.8 Q71.75 24.2 73.0 31.8 73.0 33.45 71.45 35.35 70.2 36.9 68.4 37.55 L65.65 38.0 Q64.6 38.0 63.55 37.05 L62.75 36.0 Q63.25 35.7 63.25 35.05 L62.75 30.55 Q62.75 27.5 63.05 26.65 M43.15 33.1 L44.5 34.4 45.65 35.85 Q46.6 37.15 47.0 38.5 47.0 39.7 45.65 40.2 L43.25 40.5 43.15 40.5 Q41.95 40.5 41.15 40.1 L40.65 39.9 39.7 39.65 Q39.3 39.65 38.25 42.25 L37.35 44.65 37.25 44.95 Q37.25 45.25 38.0 46.4 L37.4 47.0 36.95 46.95 36.7 49.8 36.55 50.65 37.15 50.25 37.5 49.95 37.25 51.75 37.05 51.85 36.0 52.45 34.9 53.85 34.6 53.55 34.8 53.05 Q29.6 55.5 24.65 55.5 14.55 55.5 7.1 49.0 0.0 42.85 0.0 35.5 0.0 31.05 1.45 28.35 4.1 24.35 6.4 19.55 10.15 11.8 17.05 7.6 22.5 4.25 27.4 4.25 L31.65 4.65 Q39.0 6.25 39.0 14.15 39.0 16.8 38.5 17.9 37.05 21.0 32.15 21.0 L31.65 20.95 27.95 19.95 24.5 18.9 Q19.95 18.9 16.55 26.6 14.0 32.45 14.0 35.4 14.0 36.65 16.4 39.5 19.2 42.9 21.9 42.9 27.75 42.9 29.15 41.8 29.5 41.55 29.5 40.5 29.5 39.4 26.4 37.4 23.25 35.4 23.25 34.2 23.25 30.85 31.65 30.35 L34.9 30.25 Q38.1 30.25 40.65 31.45 L43.15 33.1 M45.75 38.3 L45.65 38.1 Q44.35 35.55 43.15 34.5 L43.05 34.4 Q42.0 33.5 40.65 32.95 37.6 31.55 33.05 31.55 L31.65 31.6 Q28.3 31.7 26.3 32.55 24.5 33.3 24.5 34.2 24.5 34.65 27.65 36.75 30.75 38.9 30.75 40.35 30.75 42.0 30.25 42.65 28.95 44.25 24.5 44.25 18.55 44.25 15.1 40.25 12.75 37.5 12.75 35.45 12.75 30.3 16.9 23.95 21.15 17.5 24.65 17.5 26.45 17.5 31.0 19.65 L31.65 19.65 Q36.05 19.5 37.3 17.1 37.75 16.25 37.75 14.05 37.75 7.65 31.65 6.15 L27.3 5.65 Q17.55 5.65 8.75 18.35 5.45 23.1 3.25 28.35 1.25 33.1 1.25 35.55 1.25 44.25 10.8 49.8 18.25 54.15 24.65 54.15 30.45 54.15 35.15 51.55 L35.15 51.5 34.95 51.15 Q35.9 48.7 35.95 47.5 L36.0 46.05 36.0 45.0 36.05 44.65 Q36.2 43.6 37.15 41.4 38.55 38.25 39.9 38.25 L40.65 38.4 41.25 38.7 43.15 39.15 Q44.65 39.15 45.65 38.4 L45.75 38.3 M93.05 42.65 Q92.9 43.15 93.0 43.7 93.0 44.95 93.9 47.25 L94.15 47.25 94.25 45.4 94.9 45.25 Q95.15 45.25 95.8 47.45 96.4 49.65 97.9 49.65 103.4 49.65 103.5 45.7 103.5 43.95 102.5 43.15 100.6 41.65 94.75 41.65 93.4 41.65 93.05 42.65 M97.15 40.25 Q104.75 40.25 104.75 45.6 104.75 47.2 103.75 48.65 102.15 51.0 98.65 51.0 95.25 51.0 93.35 48.4 91.75 46.3 91.75 43.7 91.75 42.2 92.15 41.65 93.25 40.25 97.15 40.25" fill="#000000" fill-rule="evenodd" stroke="none"/>
    <path d="M97.5 1.4 Q99.25 1.4 100.55 1.9 101.65 2.35 102.45 3.15 103.25 4.0 103.65 5.25 L104.0 8.65 104.0 9.15 104.0 9.85 Q104.0 13.85 103.3 17.15 L102.25 20.8 101.3 24.9 Q100.1 28.45 97.65 32.0 L97.4 31.75 Q97.3 29.4 95.95 24.9 L95.15 22.55 Q94.7 21.15 94.55 17.15 L94.5 13.45 Q94.3 11.3 94.4 9.15 L94.45 8.65 94.5 7.4 Q94.75 4.65 95.4 3.15 95.75 2.35 96.25 1.9 96.8 1.4 97.5 1.4 M77.15 12.45 L77.65 12.8 Q81.65 15.75 82.9 21.7 L83.4 24.9 83.4 25.2 83.5 27.95 83.4 30.65 Q82.95 36.7 80.4 41.95 79.0 44.85 77.15 46.85 73.65 50.65 68.4 51.3 L66.2 51.4 Q62.85 51.4 61.5 49.1 60.8 46.75 60.4 46.75 L59.75 46.9 59.75 48.85 58.15 47.95 58.25 47.75 Q56.45 46.9 55.15 45.55 L54.4 44.65 Q52.6 42.35 51.95 38.8 51.5 36.55 51.5 28.7 50.9 24.0 52.55 19.3 53.5 16.6 55.15 14.65 59.2 9.9 67.25 9.9 L68.4 9.95 Q73.7 10.15 77.15 12.45 M63.05 26.65 Q62.75 27.5 62.75 30.55 L63.25 35.05 Q63.25 35.7 62.75 36.0 L63.55 37.05 Q64.6 38.0 65.65 38.0 L68.4 37.55 Q70.2 36.9 71.45 35.35 73.0 33.45 73.0 31.8 71.75 24.2 68.4 23.8 L68.0 23.75 Q64.1 23.75 63.05 26.65 M93.05 42.65 Q93.4 41.65 94.75 41.65 100.6 41.65 102.5 43.15 103.5 43.95 103.5 45.7 103.4 49.65 97.9 49.65 96.4 49.65 95.8 47.45 95.15 45.25 94.9 45.25 L94.25 45.4 94.15 47.25 93.9 47.25 Q93.0 44.95 93.0 43.7 92.9 43.15 93.05 42.65 M45.75 38.3 L45.65 38.4 Q44.65 39.15 43.15 39.15 L41.25 38.7 40.65 38.4 39.9 38.25 Q38.55 38.25 37.15 41.4 36.2 43.6 36.05 44.65 L36.0 45.0 36.0 46.05 35.95 47.5 Q35.9 48.7 34.95 51.15 L35.15 51.5 35.15 51.55 Q30.45 54.15 24.65 54.15 18.25 54.15 10.8 49.8 1.25 44.25 1.25 35.55 1.25 33.1 3.25 28.35 5.45 23.1 8.75 18.35 17.55 5.65 27.3 5.65 L31.65 6.15 Q37.75 7.65 37.75 14.05 37.75 16.25 37.3 17.1 36.05 19.5 31.65 19.65 L31.0 19.65 Q26.45 17.5 24.65 17.5 21.15 17.5 16.9 23.95 12.75 30.3 12.75 35.45 12.75 37.5 15.1 40.25 18.55 44.25 24.5 44.25 28.95 44.25 30.25 42.65 30.75 42.0 30.75 40.35 30.75 38.9 27.65 36.75 24.5 34.65 24.5 34.2 24.5 33.3 26.3 32.55 28.3 31.7 31.65 31.6 L33.05 31.55 Q37.6 31.55 40.65 32.95 42.0 33.5 43.05 34.4 L43.15 34.5 Q44.35 35.55 45.65 38.1 L45.75 38.3" fill="#ff0000" fill-rule="evenodd" stroke="none"/>
  </g>
</svg>
