<?xml version="1.0" encoding="UTF-8" standalone="no"?>
<svg xmlns:ffdec="https://www.free-decompiler.com/flash" xmlns:xlink="http://www.w3.org/1999/xlink" ffdec:objectType="shape" height="502.5px" width="693.75px" xmlns="http://www.w3.org/2000/svg">
  <g transform="matrix(5.0, 0.0, 0.0, 5.0, 0.0, 0.0)">
    <path d="M100.0 50.4 Q104.25 46.2 104.25 37.15 L104.25 36.85 104.85 36.6 105.65 36.75 Q108.7 36.75 120.35 32.95 131.7 29.25 134.3 27.55 L134.4 27.65 Q131.9 30.1 129.8 33.95 L125.9 40.8 Q121.95 46.8 115.45 50.75 L111.85 52.5 104.9 53.4 100.15 50.5 100.05 50.55 100.0 50.55 100.0 50.4 M95.0 2.9 L95.05 3.0 Q90.25 12.6 90.25 13.95 90.25 14.6 90.9 14.75 L92.05 13.3 92.0 15.3 92.0 19.7 92.2 21.35 Q89.45 20.5 86.25 20.5 81.85 20.5 77.9 26.0 L75.65 29.6 75.25 29.65 74.0 32.4 73.45 33.6 Q69.6 27.5 62.9 27.5 L61.65 27.65 Q51.4 29.6 48.05 35.15 L47.5 36.2 46.4 34.5 46.2 34.55 Q44.5 31.6 37.75 23.4 L26.75 9.8 Q29.8 12.75 38.3 15.55 49.5 19.25 62.25 19.25 L71.9 19.0 Q72.5 18.9 72.5 18.3 L72.4 17.9 67.6 17.9 81.75 10.6 Q91.85 5.5 95.0 2.9 M43.5 44.0 L43.9 43.75 44.65 43.75 46.25 43.65 46.25 44.2 Q46.25 48.1 46.8 49.4 47.4 50.65 49.05 51.95 L47.3 53.85 Q45.75 55.75 45.75 56.2 L45.8 56.65 45.45 57.0 41.4 56.5 Q42.75 56.35 42.75 55.8 42.75 55.3 38.9 55.0 L37.1 54.5 37.25 54.05 37.15 53.65 Q20.8 49.3 12.9 43.05 10.05 40.75 7.45 37.55 L3.4 32.25 Q41.15 44.0 43.5 44.0" fill="#ffb600" fill-rule="evenodd" stroke="none"/>
    <path d="M138.75 25.45 Q134.65 29.15 132.5 32.4 130.2 37.35 128.15 39.9 124.6 44.4 119.95 48.6 113.75 54.25 110.65 54.25 L110.3 54.2 107.25 54.8 111.5 57.45 109.3 61.55 Q107.05 66.0 106.9 69.05 L106.4 69.25 Q105.95 69.15 105.8 68.5 L102.0 74.85 Q97.15 82.45 94.9 84.15 85.55 91.15 79.45 95.15 L79.1 95.4 74.65 98.15 72.9 99.1 Q70.2 100.5 69.0 100.5 L68.65 100.2 66.4 98.15 Q41.6 76.0 31.25 68.5 36.85 65.4 41.75 60.75 L44.85 57.65 43.95 57.75 42.0 58.0 38.95 57.5 Q35.4 57.0 32.4 55.75 28.5 54.15 28.5 52.95 L28.5 52.8 Q25.65 51.65 22.0 49.85 12.65 45.15 10.05 42.4 0.0 31.75 0.0 30.05 0.0 29.5 0.9 29.5 2.1 29.5 24.15 37.8 26.75 38.7 34.2 40.15 39.25 41.15 42.65 42.55 L44.65 42.5 46.3 42.6 Q46.4 39.9 46.95 37.9 L46.5 37.15 46.2 36.5 46.15 36.5 Q45.3 36.5 24.25 8.45 L24.3 7.9 25.0 7.75 30.5 10.65 Q36.55 13.7 39.55 14.3 45.6 15.5 46.3 16.95 L66.35 17.85 66.25 17.55 Q66.25 16.55 82.9 8.55 96.8 0.0 96.9 0.0 97.5 0.0 97.5 0.7 94.95 8.15 92.85 11.95 L94.15 22.1 Q98.15 24.0 100.9 28.1 103.55 32.0 104.1 35.35 L104.9 35.25 105.65 35.4 105.75 35.75 121.65 32.05 Q123.25 31.6 130.25 28.05 136.7 24.75 138.0 24.75 138.75 24.75 138.75 25.45 M100.0 50.55 L100.05 50.55 100.15 50.5 104.9 53.4 111.85 52.5 115.45 50.75 Q121.95 46.8 125.9 40.8 L129.8 33.95 Q131.9 30.1 134.4 27.65 L134.3 27.55 Q131.7 29.25 120.35 32.95 108.7 36.75 105.65 36.75 L104.85 36.6 104.25 36.85 104.25 37.15 Q104.25 46.2 100.0 50.4 L99.75 50.65 100.0 50.55 M95.0 2.9 Q91.85 5.5 81.75 10.6 L67.6 17.9 72.4 17.9 72.5 18.3 Q72.5 18.9 71.9 19.0 L62.25 19.25 Q49.5 19.25 38.3 15.55 29.8 12.75 26.75 9.8 L37.75 23.4 Q44.5 31.6 46.2 34.55 L46.4 34.5 47.5 36.2 48.05 35.15 Q51.4 29.6 61.65 27.65 L62.9 27.5 Q69.6 27.5 73.45 33.6 L74.0 32.4 75.25 29.65 75.65 29.6 77.9 26.0 Q81.85 20.5 86.25 20.5 89.45 20.5 92.2 21.35 L92.0 19.7 92.0 15.3 92.05 13.3 90.9 14.75 Q90.25 14.6 90.25 13.95 90.25 12.6 95.05 3.0 L95.0 2.9 M94.15 23.75 Q94.25 24.0 93.65 24.0 92.9 24.0 92.45 22.65 90.15 21.8 87.4 21.8 83.05 21.8 79.25 26.45 75.95 30.6 76.0 33.65 L75.4 34.0 75.15 33.3 74.25 34.95 74.25 35.05 Q76.5 39.25 76.5 42.2 L76.15 45.0 80.25 48.3 80.25 48.5 82.75 49.95 Q87.25 52.65 89.5 52.65 98.4 52.65 101.55 45.4 103.0 42.05 103.0 37.15 L103.0 36.9 102.75 36.3 102.95 36.0 Q102.5 32.9 99.9 28.9 97.55 25.2 94.25 23.45 L94.15 23.75 M89.75 36.9 Q90.3 36.25 90.9 36.25 92.15 36.25 92.0 37.5 91.55 39.25 90.4 39.25 89.7 39.25 89.4 38.65 L89.25 38.0 Q89.25 37.45 89.75 36.9 M104.85 55.2 L104.25 55.25 102.3 54.9 102.25 54.55 Q102.25 54.25 102.8 54.0 L100.95 52.7 100.5 53.0 Q99.75 53.0 99.05 52.15 L98.6 51.55 Q95.1 54.0 89.4 54.0 87.35 54.0 82.85 52.05 77.85 49.8 77.3 47.8 L76.65 47.25 75.65 46.4 74.0 49.25 Q69.7 55.25 60.0 55.25 56.15 55.25 55.55 54.7 55.0 54.15 54.55 54.15 54.25 54.15 54.25 54.45 L53.9 54.75 Q51.65 53.7 50.1 52.7 L49.45 53.65 49.5 53.8 Q49.5 55.1 43.15 61.25 L39.0 64.7 Q36.3 66.85 33.15 68.4 37.5 71.3 43.1 76.0 L52.3 83.75 61.85 92.75 67.7 98.15 68.65 98.9 69.0 99.05 Q70.6 99.05 72.9 98.15 75.2 97.25 78.15 95.4 L78.55 95.15 Q84.9 91.1 94.3 82.9 97.3 80.2 100.35 74.75 103.7 68.65 105.9 66.25 L106.1 66.35 107.65 62.35 Q108.85 59.55 109.8 57.65 L104.85 55.2 M48.65 38.75 Q48.75 39.0 48.15 39.0 47.45 41.5 47.5 44.2 L47.75 48.4 Q48.75 52.25 52.4 52.25 53.05 52.25 53.15 51.75 L56.9 53.9 Q68.55 53.9 73.0 48.4 74.2 46.9 74.75 45.3 L74.75 45.25 74.95 44.7 75.25 42.25 Q75.25 39.65 73.7 36.7 73.15 36.55 73.0 35.95 L73.0 35.45 72.65 34.9 Q68.8 28.9 61.5 28.9 52.5 28.9 49.15 36.25 L48.55 37.8 48.75 38.2 48.65 38.75 M43.5 44.0 Q41.15 44.0 3.4 32.25 L7.45 37.55 Q10.05 40.75 12.9 43.05 20.8 49.3 37.15 53.65 L37.25 54.05 37.1 54.5 38.9 55.0 Q42.75 55.3 42.75 55.8 42.75 56.35 41.4 56.5 L45.45 57.0 45.8 56.65 45.75 56.2 Q45.75 55.75 47.3 53.85 L49.05 51.95 Q47.4 50.65 46.8 49.4 46.25 48.1 46.25 44.2 L46.25 43.65 44.65 43.75 43.9 43.75 43.5 44.0 M59.35 40.5 Q59.95 39.5 60.5 39.5 62.55 39.5 63.0 43.4 63.0 44.25 62.25 44.25 L60.9 42.9 59.65 43.25 58.8 43.15 58.75 42.2 Q58.75 41.45 59.35 40.5 M35.55 54.9 L35.45 54.75 32.9 54.3 33.9 55.05 36.0 55.75 35.5 55.1 35.55 54.9 M79.75 58.9 Q76.3 63.65 73.75 64.85 71.85 66.0 70.25 66.0 69.3 66.0 69.25 65.05 L69.4 64.05 68.25 62.15 Q68.25 61.3 69.55 60.05 L69.5 59.7 Q69.5 55.5 74.9 55.5 76.4 55.5 79.75 58.9 M69.65 62.5 L69.75 62.5 69.65 61.75 69.5 62.1 69.65 62.5" fill="#000000" fill-rule="evenodd" stroke="none"/>
    <path d="M104.85 55.2 L109.8 57.65 Q108.85 59.55 107.65 62.35 L106.1 66.35 105.9 66.25 Q103.7 68.65 100.35 74.75 97.3 80.2 94.3 82.9 84.9 91.1 78.55 95.15 L78.15 95.4 Q75.2 97.25 72.9 98.15 70.6 99.05 69.0 99.05 L68.65 98.9 67.7 98.15 61.85 92.75 52.3 83.75 43.1 76.0 Q37.5 71.3 33.15 68.4 36.3 66.85 39.0 64.7 L43.15 61.25 Q49.5 55.1 49.5 53.8 L49.45 53.65 50.1 52.7 Q51.65 53.7 53.9 54.75 L54.25 54.45 Q54.25 54.15 54.55 54.15 55.0 54.15 55.55 54.7 56.15 55.25 60.0 55.25 69.7 55.25 74.0 49.25 L75.65 46.4 76.65 47.25 77.3 47.8 Q77.85 49.8 82.85 52.05 87.35 54.0 89.4 54.0 95.1 54.0 98.6 51.55 L99.05 52.15 Q99.75 53.0 100.5 53.0 L100.95 52.7 102.8 54.0 Q102.25 54.25 102.25 54.55 L102.3 54.9 104.25 55.25 104.85 55.2 M79.75 58.9 Q76.4 55.5 74.9 55.5 69.5 55.5 69.5 59.7 L69.55 60.05 Q68.25 61.3 68.25 62.15 L69.4 64.05 69.25 65.05 Q69.3 66.0 70.25 66.0 71.85 66.0 73.75 64.85 76.3 63.65 79.75 58.9" fill="#9cb9cb" fill-rule="evenodd" stroke="none"/>
    <path d="M89.75 36.9 Q89.25 37.45 89.25 38.0 L89.4 38.65 Q89.7 39.25 90.4 39.25 91.55 39.25 92.0 37.5 92.15 36.25 90.9 36.25 90.3 36.25 89.75 36.9 M94.15 23.75 L94.25 23.45 Q97.55 25.2 99.9 28.9 102.5 32.9 102.95 36.0 L102.75 36.3 103.0 36.9 103.0 37.15 Q103.0 42.05 101.55 45.4 98.4 52.65 89.5 52.65 87.25 52.65 82.75 49.95 L80.25 48.5 80.25 48.3 76.15 45.0 76.5 42.2 Q76.5 39.25 74.25 35.05 L74.25 34.95 75.15 33.3 75.4 34.0 76.0 33.65 Q75.95 30.6 79.25 26.45 83.05 21.8 87.4 21.8 90.15 21.8 92.45 22.65 92.9 24.0 93.65 24.0 94.25 24.0 94.15 23.75 M48.65 38.75 L48.75 38.2 48.55 37.8 49.15 36.25 Q52.5 28.9 61.5 28.9 68.8 28.9 72.65 34.9 L73.0 35.45 73.0 35.95 Q73.15 36.55 73.7 36.7 75.25 39.65 75.25 42.25 L74.95 44.7 74.75 45.25 74.75 45.3 Q74.2 46.9 73.0 48.4 68.55 53.9 56.9 53.9 L53.15 51.75 Q53.05 52.25 52.4 52.25 48.75 52.25 47.75 48.4 L47.5 44.2 Q47.45 41.5 48.15 39.0 48.75 39.0 48.65 38.75 M59.35 40.5 Q58.75 41.45 58.75 42.2 L58.8 43.15 59.65 43.25 60.9 42.9 62.25 44.25 Q63.0 44.25 63.0 43.4 62.55 39.5 60.5 39.5 59.95 39.5 59.35 40.5" fill="#ffffff" fill-rule="evenodd" stroke="none"/>
  </g>
</svg>
