<?xml version="1.0" encoding="UTF-8" standalone="no"?>
<svg xmlns:ffdec="https://www.free-decompiler.com/flash" xmlns:xlink="http://www.w3.org/1999/xlink" ffdec:objectType="frame" height="500.0px" width="500.0px" xmlns="http://www.w3.org/2000/svg">
  <g transform="matrix(5.0, 0.0, 0.0, 5.0, 0.0, 0.0)">
    <use ffdec:characterId="1" height="59.25" transform="matrix(1.0, 0.0, 0.0, 1.0, 0.0, 0.0)" width="55.75" xlink:href="#shape0"/>
  </g>
  <defs>
    <g id="shape0">
      <path d="M63.3 20.8 Q63.85 19.0 64.75 19.0 66.55 19.0 72.0 37.65 L74.75 46.15 Q77.0 53.6 77.0 56.25 77.0 57.35 74.2 59.8 70.75 62.75 67.0 62.75 L63.75 62.3 59.8 61.85 Q56.65 61.85 54.2 63.85 52.95 64.85 52.25 66.0 L50.6 68.25 Q49.6 69.2 47.3 69.05 45.05 68.9 44.0 69.9 43.5 70.45 41.4 74.5 38.7 78.25 34.5 78.25 30.7 78.25 30.0 77.1 L30.1 75.85 Q24.75 64.5 23.5 59.15 21.25 45.55 21.25 42.45 21.25 40.25 22.6 40.25 22.8 40.25 24.55 41.2 26.25 42.1 28.4 42.1 32.05 42.1 34.3 40.1 L37.55 35.7 Q39.45 32.55 41.25 31.25 44.0 29.25 48.5 29.25 53.45 29.25 53.9 30.4 60.15 30.4 62.2 24.7 L63.3 20.8 M52.0 32.4 Q51.35 31.75 50.5 31.75 45.65 31.75 42.7 33.8 40.8 35.1 38.7 38.25 36.45 41.6 35.05 42.7 32.55 44.75 28.5 44.75 L24.8 44.25 23.75 43.75 26.25 59.65 Q26.75 61.6 29.6 68.65 31.85 74.2 31.5 75.25 L34.55 75.6 Q38.0 75.6 40.35 71.8 43.2 67.1 43.65 66.85 45.75 65.6 47.9 65.85 49.4 66.05 50.0 64.9 50.6 63.75 51.75 62.65 55.6 59.25 59.85 59.25 64.65 59.25 66.95 60.1 71.3 60.1 74.25 56.1 74.25 52.2 65.0 24.25 62.9 33.0 56.0 33.0 52.65 33.0 52.0 32.4 M42.25 37.85 Q42.25 36.25 43.5 36.25 L45.7 41.5 Q48.5 39.25 51.35 39.25 52.95 39.25 53.0 40.45 53.0 41.5 50.6 42.1 47.65 42.85 46.7 43.95 L47.7 46.4 Q48.15 46.15 48.7 45.85 53.65 43.25 54.6 43.25 58.8 43.25 58.5 46.35 58.5 48.15 55.0 52.35 53.3 54.45 51.5 55.7 L52.5 58.15 Q52.5 60.25 51.25 60.25 50.2 60.25 48.65 57.1 L46.1 57.5 Q44.1 57.5 42.85 56.5 42.0 55.75 42.0 55.25 42.0 54.0 43.25 54.0 44.05 54.0 45.6 54.9 L47.6 54.65 46.05 50.45 Q43.95 51.25 42.1 51.25 40.35 51.25 39.9 50.55 L39.75 49.8 Q39.75 47.7 43.25 43.8 L43.8 43.25 42.25 37.85 M44.7 46.3 L42.85 48.35 42.75 48.65 45.15 47.7 44.7 46.3 M48.8 49.1 L50.5 53.25 Q53.4 51.15 56.0 46.5 L55.9 46.0 54.65 45.85 Q53.95 45.85 49.7 48.55 L48.8 49.1" fill="#000000" fill-rule="evenodd" stroke="none"/>
      <path d="M48.8 49.1 L49.7 48.55 Q53.95 45.85 54.65 45.85 L55.9 46.0 56.0 46.5 Q53.4 51.15 50.5 53.25 L48.8 49.1 M44.7 46.3 L45.15 47.7 42.75 48.65 42.85 48.35 44.7 46.3 M42.25 37.85 L43.8 43.25 43.25 43.8 Q39.75 47.7 39.75 49.8 L39.9 50.55 Q40.35 51.25 42.1 51.25 43.95 51.25 46.05 50.45 L47.6 54.65 45.6 54.9 Q44.05 54.0 43.25 54.0 42.0 54.0 42.0 55.25 42.0 55.75 42.85 56.5 44.1 57.5 46.1 57.5 L48.65 57.1 Q50.2 60.25 51.25 60.25 52.5 60.25 52.5 58.15 L51.5 55.7 Q53.3 54.45 55.0 52.35 58.5 48.15 58.5 46.35 58.8 43.25 54.6 43.25 53.65 43.25 48.7 45.85 48.15 46.15 47.7 46.4 L46.7 43.95 Q47.65 42.85 50.6 42.1 53.0 41.5 53.0 40.45 52.95 39.25 51.35 39.25 48.5 39.25 45.7 41.5 L43.5 36.25 Q42.25 36.25 42.25 37.85 M52.0 32.4 Q52.65 33.0 56.0 33.0 62.9 33.0 65.0 24.25 74.25 52.2 74.25 56.1 71.3 60.1 66.95 60.1 64.65 59.25 59.85 59.25 55.6 59.25 51.75 62.65 50.6 63.75 50.0 64.9 49.4 66.05 47.9 65.85 45.75 65.6 43.65 66.85 43.2 67.1 40.35 71.8 38.0 75.6 34.55 75.6 L31.5 75.25 Q31.85 74.2 29.6 68.65 26.75 61.6 26.25 59.65 L23.75 43.75 24.8 44.25 28.5 44.75 Q32.55 44.75 35.05 42.7 36.45 41.6 38.7 38.25 40.8 35.1 42.7 33.8 45.65 31.75 50.5 31.75 51.35 31.75 52.0 32.4" fill="#33cc00" fill-rule="evenodd" stroke="none"/>
    </g>
  </defs>
</svg>
