<?xml version="1.0" encoding="UTF-8" standalone="no"?>
<svg xmlns:ffdec="https://www.free-decompiler.com/flash" xmlns:xlink="http://www.w3.org/1999/xlink" ffdec:objectType="frame" height="500.0px" width="500.0px" xmlns="http://www.w3.org/2000/svg">
  <g transform="matrix(5.0, 0.0, 0.0, 5.0, 0.0, 0.0)">
    <use ffdec:characterId="2" height="52.25" transform="matrix(1.0, 0.0, 0.0, 1.0, 0.0, 0.0)" width="62.25" xlink:href="#shape0"/>
  </g>
  <defs>
    <g id="shape0">
      <path d="M56.95 36.1 Q60.4 36.1 64.75 29.3 69.1 22.5 69.75 22.5 71.05 22.5 72.45 28.2 74.25 35.7 74.85 37.0 L81.5 51.45 Q81.5 52.7 76.75 55.45 71.4 58.5 66.85 58.5 L58.95 57.85 Q53.4 57.85 47.65 61.9 44.7 64.0 42.65 66.25 40.5 68.25 39.0 71.0 37.85 72.9 35.5 73.0 L30.05 72.95 Q27.3 73.05 26.6 73.9 26.05 74.75 25.5 74.75 23.25 74.75 21.85 69.6 L20.25 61.65 Q19.25 57.5 19.25 48.7 L19.25 47.0 Q19.6 45.75 21.25 45.75 L23.75 46.55 Q25.6 47.35 28.8 47.35 32.4 47.35 34.75 45.5 35.7 44.75 38.25 41.45 42.85 35.5 51.6 35.5 L56.95 36.1 M44.55 44.25 L43.5 42.3 Q43.5 40.75 44.75 40.75 45.8 40.75 47.3 43.15 L50.25 42.75 Q52.0 42.75 52.0 43.95 52.0 44.6 48.9 46.05 L49.9 48.3 Q53.05 47.25 54.25 47.25 58.25 47.25 57.5 49.4 57.5 50.6 52.05 53.0 51.9 53.05 51.8 53.15 L52.75 55.75 52.6 56.45 Q55.95 55.25 58.85 55.25 L66.8 55.85 Q75.75 55.85 78.5 50.85 71.25 34.35 69.4 27.0 L69.15 27.0 Q66.85 31.85 65.35 33.8 61.7 38.75 57.25 38.75 L51.7 38.1 Q46.6 38.1 43.45 39.95 41.4 41.15 39.2 44.05 L35.5 48.15 Q32.9 50.0 28.85 50.0 L23.75 49.45 21.75 48.4 21.75 49.35 Q21.75 51.6 22.65 60.35 22.95 63.15 25.5 70.75 32.55 70.75 35.05 69.7 38.4 68.25 42.35 62.6 43.45 60.95 48.25 58.4 49.8 57.55 51.3 56.95 L49.7 54.0 Q46.45 55.25 45.25 55.25 44.2 55.25 43.85 54.65 L43.75 53.95 Q43.75 53.25 44.4 52.85 39.0 52.7 39.0 50.15 39.0 48.5 42.2 45.85 43.35 44.9 44.55 44.25 M46.1 47.25 Q42.35 48.9 41.85 49.5 L42.1 49.85 43.75 50.15 47.15 49.2 46.1 47.25 M51.65 50.25 L53.6 49.75 51.85 50.15 51.65 50.25 M51.15 50.45 L51.25 50.35 51.1 50.4 50.8 50.5 50.85 50.6 51.15 50.45 M48.3 51.45 L48.25 51.5 48.35 51.5 48.3 51.45" fill="#000000" fill-rule="evenodd" stroke="none"/>
      <path d="M51.65 50.25 L51.85 50.15 53.6 49.75 51.65 50.25 M46.1 47.25 L47.15 49.2 43.75 50.15 42.1 49.85 41.85 49.5 Q42.35 48.9 46.1 47.25 M44.55 44.25 Q43.35 44.9 42.2 45.85 39.0 48.5 39.0 50.15 39.0 52.7 44.4 52.85 43.75 53.25 43.75 53.95 L43.85 54.65 Q44.2 55.25 45.25 55.25 46.45 55.25 49.7 54.0 L51.3 56.95 Q49.8 57.55 48.25 58.4 43.45 60.95 42.35 62.6 38.4 68.25 35.05 69.7 32.55 70.75 25.5 70.75 22.95 63.15 22.65 60.35 21.75 51.6 21.75 49.35 L21.75 48.4 23.75 49.45 28.85 50.0 Q32.9 50.0 35.5 48.15 L39.2 44.05 Q41.4 41.15 43.45 39.95 46.6 38.1 51.7 38.1 L57.25 38.75 Q61.7 38.75 65.35 33.8 66.85 31.85 69.15 27.0 L69.4 27.0 Q71.25 34.35 78.5 50.85 75.75 55.85 66.8 55.85 L58.85 55.25 Q55.95 55.25 52.6 56.45 L52.75 55.75 51.8 53.15 Q51.9 53.05 52.05 53.0 57.5 50.6 57.5 49.4 58.25 47.25 54.25 47.25 53.05 47.25 49.9 48.3 L48.9 46.05 Q52.0 44.6 52.0 43.95 52.0 42.75 50.25 42.75 L47.3 43.15 Q45.8 40.75 44.75 40.75 43.5 40.75 43.5 42.3 L44.55 44.25 M51.1 50.4 L51.15 50.45 50.85 50.6 50.8 50.5 51.1 50.4" fill="#33cc00" fill-rule="evenodd" stroke="none"/>
    </g>
  </defs>
</svg>
