<?xml version="1.0" encoding="UTF-8" standalone="no"?>
<svg xmlns:ffdec="https://www.free-decompiler.com/flash" xmlns:xlink="http://www.w3.org/1999/xlink" ffdec:objectType="frame" height="500.0px" width="500.0px" xmlns="http://www.w3.org/2000/svg">
  <g transform="matrix(5.0, 0.0, 0.0, 5.0, 0.0, 0.0)">
    <use ffdec:characterId="1" height="65.8" transform="matrix(1.0, 0.0, 0.0, 1.0, 0.0, 0.0)" width="59.75" xlink:href="#shape0"/>
  </g>
  <defs>
    <g id="shape0">
      <path d="M52.5 30.3 L55.6 25.05 Q59.6 20.6 66.7 20.15 74.2 19.65 77.7 23.3 79.8 25.5 80.0 28.45 80.45 35.15 77.05 42.2 75.0 46.5 69.0 56.9 67.1 60.6 59.75 71.2 53.0 84.95 52.05 85.0 48.15 85.25 33.8 62.0 L25.05 50.25 Q20.7 44.45 20.3 38.75 20.95 33.95 23.6 29.25 28.8 19.9 38.65 19.25 46.6 18.7 50.1 23.95 51.9 26.65 52.35 30.05 L52.5 30.3 M53.7 34.45 Q53.35 36.55 52.75 36.6 51.35 36.7 50.8 34.25 L49.65 29.0 Q47.15 21.3 36.5 22.0 34.0 22.15 30.25 25.5 27.0 28.4 25.7 30.65 L23.3 34.95 Q22.65 36.35 22.8 38.7 23.1 42.8 27.25 48.85 L34.3 58.45 Q36.9 62.3 43.55 70.4 49.15 77.2 49.2 77.6 L48.35 78.95 49.45 80.55 Q50.1 81.45 51.2 81.9 52.5 78.35 57.15 70.75 L66.25 56.3 Q78.05 37.0 77.5 28.65 77.35 26.8 75.6 24.75 73.45 22.2 70.45 22.4 58.05 23.25 54.85 29.95 54.1 31.55 53.7 34.45" fill="#000000" fill-rule="evenodd" stroke="none"/>
      <path d="M53.7 34.45 Q54.1 31.55 54.85 29.95 58.05 23.25 70.45 22.4 73.45 22.2 75.6 24.75 77.35 26.8 77.5 28.65 78.05 37.0 66.25 56.3 L57.15 70.75 Q52.5 78.35 51.2 81.9 50.1 81.45 49.45 80.55 L48.35 78.95 49.2 77.6 Q49.15 77.2 43.55 70.4 36.9 62.3 34.3 58.45 L27.25 48.85 Q23.1 42.8 22.8 38.7 22.65 36.35 23.3 34.95 L25.7 30.65 Q27.0 28.4 30.25 25.5 34.0 22.15 36.5 22.0 47.15 21.3 49.65 29.0 L50.8 34.25 Q51.35 36.7 52.75 36.6 53.35 36.55 53.7 34.45" fill="#ff0000" fill-rule="evenodd" stroke="none"/>
    </g>
  </defs>
</svg>
