<?xml version="1.0" encoding="UTF-8" standalone="no"?>
<svg xmlns:ffdec="https://www.free-decompiler.com/flash" xmlns:xlink="http://www.w3.org/1999/xlink" ffdec:objectType="frame" height="500.0px" width="500.0px" xmlns="http://www.w3.org/2000/svg">
  <g transform="matrix(5.0, 0.0, 0.0, 5.0, 0.0, 0.0)">
    <use ffdec:characterId="2" height="55.05" transform="matrix(1.0, 0.0, 0.0, 1.0, 0.0, 0.0)" width="65.85" xlink:href="#shape0"/>
  </g>
  <defs>
    <g id="shape0">
      <path d="M52.05 34.75 Q59.9 28.7 63.4 27.4 64.9 26.85 72.15 26.2 L80.5 26.45 Q84.35 27.6 84.75 32.1 85.5 39.95 72.85 56.5 L61.95 71.3 Q54.85 80.75 53.75 80.85 L50.7 80.15 Q48.35 80.35 40.6 72.9 33.6 66.05 29.25 60.15 22.6 51.15 21.6 49.25 19.75 45.8 19.15 39.3 18.65 34.1 19.3 32.55 21.1 27.75 29.75 26.2 L32.35 25.9 Q38.85 25.25 45.95 29.85 49.5 32.1 52.05 34.75 M52.15 37.85 Q51.4 37.9 49.75 36.3 L45.9 32.85 Q39.25 27.85 29.75 28.75 23.1 29.35 21.75 34.05 21.0 36.45 21.65 39.15 22.2 45.15 24.2 48.75 25.15 50.4 32.0 59.45 35.6 64.25 42.05 70.4 50.05 78.05 53.0 77.8 55.05 77.6 71.05 54.65 L78.8 43.15 Q82.65 36.55 82.25 32.2 81.4 27.85 78.15 28.15 62.7 29.6 57.15 33.75 56.1 34.5 54.4 36.5 53.35 37.7 52.15 37.85" fill="#000000" fill-rule="evenodd" stroke="none"/>
      <path d="M52.15 37.85 Q53.35 37.7 54.4 36.5 56.1 34.5 57.15 33.75 62.7 29.6 78.15 28.15 81.4 27.85 82.25 32.2 82.65 36.55 78.8 43.15 L71.05 54.65 Q55.05 77.6 53.0 77.8 50.05 78.05 42.05 70.4 35.6 64.25 32.0 59.45 25.15 50.4 24.2 48.75 22.2 45.15 21.65 39.15 21.0 36.45 21.75 34.05 23.1 29.35 29.75 28.75 39.25 27.85 45.9 32.85 L49.75 36.3 Q51.4 37.9 52.15 37.85" fill="#ff0000" fill-rule="evenodd" stroke="none"/>
    </g>
  </defs>
</svg>
