<?xml version="1.0" encoding="UTF-8" standalone="no"?>
<svg xmlns:ffdec="https://www.free-decompiler.com/flash" xmlns:xlink="http://www.w3.org/1999/xlink" ffdec:objectType="frame" height="500.0px" width="500.0px" xmlns="http://www.w3.org/2000/svg">
  <g transform="matrix(5.0, 0.0, 0.0, 5.0, 0.0, 0.0)">
    <use ffdec:characterId="1" height="59.75" transform="matrix(1.0, 0.0, 0.0, 1.0, 0.0, 0.0)" width="65.85" xlink:href="#shape0"/>
  </g>
  <defs>
    <g id="shape0">
      <path d="M62.45 26.2 L57.35 38.1 Q54.9 43.9 53.5 45.6 L55.35 45.65 60.35 44.25 Q61.6 44.25 61.75 45.45 61.75 48.25 53.75 48.25 45.8 48.25 41.3 43.25 39.85 41.65 38.1 37.75 38.5 39.65 38.5 47.1 39.25 58.25 36.25 58.25 35.25 58.25 35.05 57.5 L35.0 56.7 35.05 56.5 34.6 56.5 Q31.5 56.5 25.8 52.5 L18.5 46.85 18.5 49.25 Q20.15 55.25 24.15 59.75 25.5 61.3 32.0 65.6 L38.0 69.75 Q38.0 71.0 36.75 71.0 L36.35 71.0 Q41.8 76.15 42.9 76.15 53.8 76.15 60.05 74.5 66.7 72.8 70.45 68.65 74.15 64.6 76.2 57.0 77.95 50.45 79.25 38.15 L79.25 35.75 Q70.85 48.75 69.25 48.75 L68.5 48.55 68.5 50.4 Q68.9 55.25 67.25 55.25 66.2 55.25 65.75 49.65 L65.0 40.65 Q63.6 31.05 62.5 26.25 L62.5 26.1 62.5 26.15 62.45 26.2 M51.25 44.8 L57.25 31.85 60.1 24.35 Q62.15 19.0 62.75 19.0 64.65 19.0 66.65 34.65 L67.95 42.85 68.4 46.7 Q69.4 44.85 73.5 38.85 79.25 30.5 80.5 30.5 82.15 30.5 81.75 35.05 81.75 56.75 74.35 67.4 66.45 78.75 49.35 78.75 43.75 78.75 38.75 76.75 32.35 74.2 32.25 69.65 30.0 68.4 27.2 66.1 22.55 62.2 20.5 59.25 16.0 52.65 16.0 47.2 16.0 43.25 17.6 43.25 18.2 43.25 20.2 44.85 L24.6 48.4 Q30.5 52.85 35.4 53.4 L36.0 47.25 Q36.0 40.55 34.4 34.0 32.75 28.6 32.75 27.55 32.75 26.0 34.0 26.0 35.35 26.0 36.5 29.05 L39.15 35.85 Q43.0 43.85 51.35 45.3 L51.25 44.8" fill="#000000" fill-rule="evenodd" stroke="none"/>
      <path d="M62.5 26.25 L62.45 26.2 62.5 26.15 62.5 26.25" fill="#9cb9cb" fill-rule="evenodd" stroke="none"/>
      <path d="M62.5 26.25 Q63.6 31.05 65.0 40.65 L65.75 49.65 Q66.2 55.25 67.25 55.25 68.9 55.25 68.5 50.4 L68.5 48.55 69.25 48.75 Q70.85 48.75 79.25 35.75 L79.25 38.15 Q77.95 50.45 76.2 57.0 74.15 64.6 70.45 68.65 66.7 72.8 60.05 74.5 53.8 76.15 42.9 76.15 41.8 76.15 36.35 71.0 L36.75 71.0 Q38.0 71.0 38.0 69.75 L32.0 65.6 Q25.5 61.3 24.15 59.75 20.15 55.25 18.5 49.25 L18.5 46.85 25.8 52.5 Q31.5 56.5 34.6 56.5 L35.05 56.5 35.0 56.7 35.05 57.5 Q35.25 58.25 36.25 58.25 39.25 58.25 38.5 47.1 38.5 39.65 38.1 37.75 39.85 41.65 41.3 43.25 45.8 48.25 53.75 48.25 61.75 48.25 61.75 45.45 61.6 44.25 60.35 44.25 L55.35 45.65 53.5 45.6 Q54.9 43.9 57.35 38.1 L62.45 26.2 62.5 26.25" fill="#ffb600" fill-rule="evenodd" stroke="none"/>
    </g>
  </defs>
</svg>
