<?xml version="1.0" encoding="UTF-8" standalone="no"?>
<svg xmlns:ffdec="https://www.free-decompiler.com/flash" xmlns:xlink="http://www.w3.org/1999/xlink" ffdec:objectType="frame" height="500.0px" width="500.0px" xmlns="http://www.w3.org/2000/svg">
  <g transform="matrix(5.0, 0.0, 0.0, 5.0, 0.0, 0.0)">
    <use ffdec:characterId="2" height="50.5" transform="matrix(1.0, 0.0, 0.0, 1.0, 0.0, 0.0)" width="77.6" xlink:href="#shape0"/>
  </g>
  <defs>
    <g id="shape0">
      <path d="M86.45 42.5 Q84.8 49.75 81.5 55.75 71.3 74.25 49.35 74.25 L40.2 73.2 39.6 73.25 Q30.05 73.25 19.75 64.0 10.0 55.25 10.0 48.8 10.0 46.75 11.4 46.75 20.9 54.05 24.1 55.25 L33.35 58.6 32.4 55.1 30.4 46.75 Q26.25 37.15 26.25 33.3 26.25 32.0 27.5 32.0 28.15 32.0 30.9 36.1 33.9 40.6 34.75 41.25 38.55 44.2 42.35 45.25 48.3 46.85 53.5 47.35 L53.5 47.3 Q53.5 46.9 56.4 43.05 60.0 38.3 61.65 35.5 L65.35 28.65 Q68.05 23.75 69.0 23.75 69.95 23.75 70.5 37.0 L71.55 46.3 86.25 33.5 Q87.9 33.5 87.5 35.35 87.5 37.8 86.45 42.5 M67.4 30.95 L61.45 41.65 Q59.0 45.8 57.15 47.55 60.25 47.65 60.25 48.45 L60.0 49.25 54.75 49.75 Q44.0 49.75 36.85 45.8 35.1 44.8 31.0 41.1 L33.35 48.75 Q35.5 56.3 35.5 58.35 L35.4 59.35 35.55 59.4 Q34.75 60.7 34.75 62.25 L34.8 62.35 Q30.6 61.15 25.05 58.5 17.8 55.05 13.7 52.15 L17.2 57.85 Q19.55 61.15 22.9 63.4 26.9 66.1 34.8 68.85 37.75 69.85 39.3 70.65 44.05 71.6 49.45 71.6 64.7 71.6 73.9 62.1 82.0 53.7 84.25 39.25 L84.15 39.0 77.8 44.55 Q73.15 48.5 72.0 48.5 L71.8 48.5 71.8 48.55 72.0 50.1 Q72.0 52.75 70.75 52.75 69.05 52.75 68.3 44.3 L67.5 31.0 67.4 30.9 67.4 30.95" fill="#000000" fill-rule="evenodd" stroke="none"/>
      <path d="M72.0 48.5 Q73.15 48.5 77.8 44.55 L84.15 39.0 84.25 39.25 Q82.0 53.7 73.9 62.1 64.7 71.6 49.45 71.6 44.05 71.6 39.3 70.65 37.75 69.85 34.8 68.85 26.9 66.1 22.9 63.4 19.55 61.15 17.2 57.85 L13.7 52.15 Q17.8 55.05 25.05 58.5 30.6 61.15 34.8 62.35 L34.75 62.25 Q34.75 60.7 35.55 59.4 L35.4 59.35 35.5 58.35 Q35.5 56.3 33.35 48.75 L31.0 41.1 Q35.1 44.8 36.85 45.8 44.0 49.75 54.75 49.75 L60.0 49.25 60.25 48.45 Q60.25 47.65 57.15 47.55 59.0 45.8 61.45 41.65 L67.4 30.95 67.5 31.0 68.3 44.3 Q69.05 52.75 70.75 52.75 72.0 52.75 72.0 50.1 L71.8 48.55 72.0 48.5" fill="#ffb600" fill-rule="evenodd" stroke="none"/>
    </g>
  </defs>
</svg>
