<?xml version="1.0" encoding="UTF-8" standalone="no"?>
<svg xmlns:ffdec="https://www.free-decompiler.com/flash" xmlns:xlink="http://www.w3.org/1999/xlink" ffdec:objectType="frame" height="120.0px" width="120.0px" xmlns="http://www.w3.org/2000/svg">
  <g transform="matrix(5.0, 0.0, 0.0, 5.0, 0.0, 0.0)">
    <use ffdec:characterId="1" height="18.25" transform="matrix(1.0, 0.0, 0.0, 1.0, 0.0, 0.0)" width="17.6" xlink:href="#shape0"/>
  </g>
  <defs>
    <g id="shape0">
      <path d="M12.85 9.3 L13.1 9.05 12.85 8.8 Q12.6 8.8 12.6 9.05 L12.85 9.3 M16.65 9.4 L16.2 9.35 Q15.25 9.35 14.2 11.15 13.15 12.9 11.85 12.9 9.7 12.9 8.6 11.4 7.55 9.9 7.0 9.9 L6.25 10.0 6.8 8.95 7.9 7.4 Q8.05 7.2 9.1 6.7 10.3 6.1 10.9 6.1 13.4 6.1 15.25 7.55 15.95 8.1 16.65 9.4 M9.7 9.45 L9.95 9.75 10.25 9.5 Q10.25 9.1 9.95 9.1 9.7 9.1 9.7 9.45" fill="#ffcc00" fill-rule="evenodd" stroke="none"/>
      <path d="M15.55 4.45 L14.6 3.95 11.55 3.5 Q6.1 3.8 4.75 7.5 3.4 10.9 3.4 12.85 3.4 15.75 4.65 17.55 L6.35 19.7 Q7.8 20.75 10.8 20.75 15.9 20.75 18.35 17.75 20.0 15.7 20.0 13.15 20.0 10.25 18.8 7.9 17.85 6.05 17.2 5.5 L15.55 4.45 M17.55 5.15 L19.25 7.6 Q20.5 10.05 20.5 13.15 20.5 15.8 18.7 18.05 16.1 21.25 10.85 21.25 7.3 21.25 5.85 20.1 L4.15 17.75 Q2.9 15.85 2.9 12.85 2.9 10.35 4.4 7.15 6.25 3.0 12.5 3.0 15.1 3.0 15.85 4.05 L17.55 5.15 M12.85 9.3 L12.6 9.05 Q12.6 8.8 12.85 8.8 L13.1 9.05 12.85 9.3 M16.35 9.9 Q15.55 9.95 14.5 11.65 L13.5 12.85 13.75 16.1 13.6 18.65 Q15.3 18.3 16.3 17.35 L16.05 16.35 16.25 13.05 16.1 10.45 Q16.1 9.95 16.35 9.95 16.75 9.95 16.75 13.05 L16.6 17.0 Q17.7 15.65 17.7 13.4 17.7 11.95 17.15 10.5 16.95 10.45 16.95 10.2 17.0 9.9 16.35 9.9 M16.65 9.4 Q15.95 8.1 15.25 7.55 13.4 6.1 10.9 6.1 10.3 6.1 9.1 6.7 8.05 7.2 7.9 7.4 L6.8 8.95 6.25 10.0 7.0 9.9 Q7.55 9.9 8.6 11.4 9.7 12.9 11.85 12.9 13.15 12.9 14.2 11.15 15.25 9.35 16.2 9.35 L16.65 9.4 M16.75 8.55 Q18.2 10.9 18.2 13.45 18.2 18.4 13.4 19.2 L13.25 19.25 11.3 19.35 10.55 19.25 10.35 19.35 10.25 19.2 10.05 19.15 9.7 19.3 Q8.4 19.3 7.05 17.95 5.95 16.9 5.8 16.3 5.2 14.4 5.2 12.6 5.2 9.75 7.05 7.7 8.95 5.55 11.65 5.55 14.9 5.55 16.75 8.55 M5.9 11.0 L5.7 12.6 Q5.7 13.95 6.15 15.8 6.3 16.4 6.95 17.25 L6.9 17.0 6.9 15.8 6.5 10.75 5.9 11.0 M7.0 10.5 Q7.3 11.2 7.3 14.0 L7.4 15.95 7.6 17.9 7.6 17.95 Q8.3 18.55 8.8 18.55 L9.1 18.3 10.1 18.5 9.35 12.95 9.4 12.8 Q8.8 12.45 8.35 11.9 L7.15 10.4 7.0 10.5 M9.7 9.45 Q9.7 9.1 9.95 9.1 10.25 9.1 10.25 9.5 L9.95 9.75 9.7 9.45 M10.1 13.9 L10.2 15.8 10.55 18.65 11.3 18.85 13.05 18.75 13.25 16.05 13.1 13.15 13.1 13.1 11.85 13.4 10.0 13.1 10.1 13.9" fill="#000000" fill-rule="evenodd" stroke="none"/>
      <path d="M15.55 4.45 L17.2 5.5 Q17.85 6.05 18.8 7.9 20.0 10.25 20.0 13.15 20.0 15.7 18.35 17.75 15.9 20.75 10.8 20.75 7.8 20.75 6.35 19.7 L4.65 17.55 Q3.4 15.75 3.4 12.85 3.4 10.9 4.75 7.5 6.1 3.8 11.55 3.5 L14.6 3.95 15.55 4.45 M16.75 8.55 Q14.9 5.55 11.65 5.55 8.95 5.55 7.05 7.7 5.2 9.75 5.2 12.6 5.2 14.4 5.8 16.3 5.95 16.9 7.05 17.95 8.4 19.3 9.7 19.3 L10.05 19.15 10.25 19.2 10.35 19.35 10.55 19.25 11.3 19.35 13.25 19.25 13.4 19.2 Q18.2 18.4 18.2 13.45 18.2 10.9 16.75 8.55" fill="#ff9900" fill-rule="evenodd" stroke="none"/>
      <path d="M16.35 9.9 Q17.0 9.9 16.95 10.2 16.95 10.45 17.15 10.5 17.7 11.95 17.7 13.4 17.7 15.65 16.6 17.0 L16.75 13.05 Q16.75 9.95 16.35 9.95 16.1 9.95 16.1 10.45 L16.25 13.05 16.05 16.35 16.3 17.35 Q15.3 18.3 13.6 18.65 L13.75 16.1 13.5 12.85 14.5 11.65 Q15.55 9.95 16.35 9.9 M7.0 10.5 L7.15 10.4 8.35 11.9 Q8.8 12.45 9.4 12.8 L9.35 12.95 10.1 18.5 9.1 18.3 8.8 18.55 Q8.3 18.55 7.6 17.95 L7.6 17.9 7.4 15.95 7.3 14.0 Q7.3 11.2 7.0 10.5 M5.9 11.0 L6.5 10.75 6.9 15.8 6.9 17.0 6.95 17.25 Q6.3 16.4 6.15 15.8 5.7 13.95 5.7 12.6 L5.9 11.0 M10.1 13.9 L10.0 13.1 11.85 13.4 13.1 13.1 13.1 13.15 13.25 16.05 13.05 18.75 11.3 18.85 10.55 18.65 10.2 15.8 10.1 13.9" fill="#ffffff" fill-rule="evenodd" stroke="none"/>
    </g>
  </defs>
</svg>
