<?xml version="1.0" encoding="UTF-8" standalone="no"?>
<svg xmlns:ffdec="https://www.free-decompiler.com/flash" xmlns:xlink="http://www.w3.org/1999/xlink" ffdec:objectType="frame" height="120.0px" width="120.0px" xmlns="http://www.w3.org/2000/svg">
  <g transform="matrix(5.0, 0.0, 0.0, 5.0, 0.0, 0.0)">
    <use ffdec:characterId="2" height="18.5" transform="matrix(1.0, 0.0, 0.0, 1.0, 0.0, 0.0)" width="11.9" xlink:href="#shape0"/>
  </g>
  <defs>
    <g id="shape0">
      <path d="M10.35 3.6 Q8.6 3.55 7.75 5.3 7.55 5.6 6.9 8.0 6.1 10.15 6.15 13.15 6.15 14.95 6.45 16.8 6.5 17.6 6.85 18.5 7.25 19.7 7.8 20.05 L7.7 20.25 Q8.5 21.05 10.65 21.05 15.15 21.05 16.55 18.4 17.15 17.15 17.1 14.15 17.1 9.45 16.8 8.45 15.55 4.55 14.4 3.9 L10.35 3.6 M14.15 9.15 L13.9 9.4 13.65 9.15 Q13.65 8.9 13.9 8.9 L14.15 9.15 M11.25 11.8 Q10.75 11.8 10.7 12.15 L10.45 12.5 Q10.5 16.75 11.15 18.6 L11.25 15.85 Q11.25 12.65 11.55 12.25 L11.25 11.8 M12.2 9.3 Q12.2 9.05 12.45 9.05 L12.7 9.3 12.45 9.55 12.2 9.3 M12.1 12.15 Q12.45 12.95 13.15 12.95 14.2 12.95 15.6 10.75 L15.6 8.1 Q15.15 5.55 12.8 5.55 10.0 5.55 10.45 11.55 10.65 11.3 11.05 11.3 11.7 11.3 12.1 12.15 M15.65 11.95 L15.65 11.6 14.95 12.35 14.05 13.15 14.1 14.35 13.65 19.35 Q15.6 18.45 15.65 13.1 L15.45 14.4 15.2 16.5 14.95 15.3 15.5 11.9 15.65 11.95 M16.1 11.35 Q16.65 20.05 12.75 20.05 L11.35 19.8 11.2 20.0 Q10.95 20.0 10.95 19.6 L11.0 19.55 10.55 19.0 10.05 16.35 9.95 11.85 Q9.95 8.7 10.1 8.05 10.7 5.0 13.25 5.0 15.55 5.0 16.05 7.9 L16.1 11.35 M15.55 4.45 L17.25 8.2 Q17.55 8.75 17.6 14.15 17.6 17.5 16.95 18.8 15.5 21.5 10.65 21.55 8.95 21.55 7.65 20.8 6.5 20.1 6.5 19.6 L6.65 19.2 Q5.85 16.95 5.85 16.2 5.7 14.85 5.7 13.15 5.65 11.4 6.45 7.75 7.0 4.75 8.3 3.85 9.3 3.05 11.85 3.05 14.55 3.05 15.55 4.45 M13.75 13.3 L13.15 13.45 Q12.35 13.45 11.9 12.9 L11.5 19.35 11.7 19.3 12.7 19.55 13.3 19.5 13.15 18.95 13.55 15.85 13.75 13.3" fill="#000000" fill-rule="evenodd" stroke="none"/>
      <path d="M10.35 3.6 L14.4 3.9 Q15.55 4.55 16.8 8.45 17.1 9.45 17.1 14.15 17.15 17.15 16.55 18.4 15.15 21.05 10.65 21.05 8.5 21.05 7.7 20.25 L7.8 20.05 Q7.25 19.7 6.85 18.5 6.5 17.6 6.45 16.8 6.15 14.95 6.15 13.15 6.1 10.15 6.9 8.0 7.55 5.6 7.75 5.3 8.6 3.55 10.35 3.6 M16.1 11.35 L16.05 7.9 Q15.55 5.0 13.25 5.0 10.7 5.0 10.1 8.05 9.95 8.7 9.95 11.85 L10.05 16.35 10.55 19.0 11.0 19.55 10.95 19.6 Q10.95 20.0 11.2 20.0 L11.35 19.8 12.75 20.05 Q16.65 20.05 16.1 11.35" fill="#ff9900" fill-rule="evenodd" stroke="none"/>
      <path d="M14.15 9.15 L13.9 8.9 Q13.65 8.9 13.65 9.15 L13.9 9.4 14.15 9.15 M12.1 12.15 Q11.7 11.3 11.05 11.3 10.65 11.3 10.45 11.55 10.0 5.55 12.8 5.55 15.15 5.55 15.6 8.1 L15.6 10.75 Q14.2 12.95 13.15 12.95 12.45 12.95 12.1 12.15 M12.2 9.3 L12.45 9.55 12.7 9.3 12.45 9.05 Q12.2 9.05 12.2 9.3" fill="#ffcc00" fill-rule="evenodd" stroke="none"/>
      <path d="M11.25 11.8 L11.55 12.25 Q11.25 12.65 11.25 15.85 L11.15 18.6 Q10.5 16.75 10.45 12.5 L10.7 12.15 Q10.75 11.8 11.25 11.8 M15.65 11.95 L15.5 11.9 14.95 15.3 15.2 16.5 15.45 14.4 15.65 13.1 Q15.6 18.45 13.65 19.35 L14.1 14.35 14.05 13.15 14.95 12.35 15.65 11.6 15.65 11.95 M13.75 13.3 L13.55 15.85 13.15 18.95 13.3 19.5 12.7 19.55 11.7 19.3 11.5 19.35 11.9 12.9 Q12.35 13.45 13.15 13.45 L13.75 13.3" fill="#ffffff" fill-rule="evenodd" stroke="none"/>
    </g>
  </defs>
</svg>
