<?xml version="1.0" encoding="UTF-8" standalone="no"?>
<svg xmlns:ffdec="https://www.free-decompiler.com/flash" xmlns:xlink="http://www.w3.org/1999/xlink" ffdec:objectType="frame" height="120.0px" width="120.0px" xmlns="http://www.w3.org/2000/svg">
  <g transform="matrix(5.0, 0.0, 0.0, 5.0, 0.0, 0.0)">
    <use ffdec:characterId="3" height="18.25" transform="matrix(1.0, 0.0, 0.0, 1.0, 0.0, 0.0)" width="5.7" xlink:href="#shape0"/>
  </g>
  <defs>
    <g id="shape0">
      <path d="M10.3 3.65 Q9.35 3.65 9.3 4.2 L9.3 5.75 9.3 19.1 Q9.3 20.05 9.5 20.15 L11.4 20.85 Q13.15 20.85 13.5 20.05 L13.5 18.85 13.4 14.95 Q13.4 10.3 13.95 8.9 L13.95 3.65 10.3 3.65 M14.45 6.2 Q14.45 11.35 13.9 14.95 L13.95 20.4 Q12.9 21.35 11.4 21.35 L9.35 20.7 9.05 20.85 Q8.8 20.85 8.8 16.8 L8.8 12.7 8.8 7.65 Q8.65 4.15 9.15 3.55 9.55 3.1 12.2 3.1 L14.35 3.2 14.45 3.4 14.45 6.2" fill="#000000" fill-rule="evenodd" stroke="none"/>
      <path d="M10.3 3.65 L13.95 3.65 13.95 8.9 Q13.4 10.3 13.4 14.95 L13.5 18.85 13.5 20.05 Q13.15 20.85 11.4 20.85 L9.5 20.15 Q9.3 20.05 9.3 19.1 L9.3 5.75 9.3 4.2 Q9.35 3.65 10.3 3.65" fill="#ff9900" fill-rule="evenodd" stroke="none"/>
    </g>
  </defs>
</svg>
