<?xml version="1.0" encoding="UTF-8" standalone="no"?>
<svg xmlns:ffdec="https://www.free-decompiler.com/flash" xmlns:xlink="http://www.w3.org/1999/xlink" ffdec:objectType="frame" height="120.0px" width="120.0px" xmlns="http://www.w3.org/2000/svg">
  <g transform="matrix(5.0, 0.0, 0.0, 5.0, 0.0, 0.0)">
    <use ffdec:characterId="4" height="18.5" transform="matrix(1.0, 0.0, 0.0, 1.0, 0.0, 0.0)" width="11.9" xlink:href="#shape0"/>
  </g>
  <defs>
    <g id="shape0">
      <path d="M8.9 13.6 L8.35 18.75 Q7.65 17.25 7.35 13.65 L7.6 13.85 7.75 13.85 7.5 13.4 7.55 13.25 7.4 13.15 7.4 12.95 7.55 12.9 9.0 13.55 8.9 13.6 M9.0 16.6 L9.25 13.65 10.6 13.9 12.15 13.8 12.0 14.15 11.75 14.15 11.6 15.75 11.6 18.5 11.7 18.8 Q11.1 19.7 9.5 19.7 L8.85 19.45 Q9.1 18.85 9.0 16.6 M12.85 13.7 L13.2 13.6 Q13.2 15.5 12.75 16.25 12.2 17.05 12.0 17.75 L12.15 16.35 12.5 14.15 12.45 14.15 12.55 13.75 12.85 13.65 12.85 13.7" fill="#ffffff" fill-rule="evenodd" stroke="none"/>
      <path d="M14.4 3.9 L10.35 3.6 Q8.6 3.55 7.75 5.3 7.55 5.6 6.9 8.0 6.1 10.15 6.15 13.15 6.15 14.95 6.45 16.8 6.5 17.6 6.85 18.5 7.25 19.7 7.8 20.05 L7.7 20.25 Q8.5 21.05 10.65 21.05 15.15 21.05 16.55 18.4 17.15 17.15 17.1 14.15 17.1 9.45 16.8 8.45 15.55 4.55 14.4 3.9 M17.25 8.2 Q17.55 8.75 17.6 14.15 17.6 17.5 16.95 18.8 15.5 21.5 10.65 21.55 8.95 21.55 7.65 20.8 6.5 20.1 6.5 19.6 L6.65 19.2 Q5.85 16.95 5.85 16.2 5.7 14.85 5.7 13.15 5.65 11.4 6.45 7.75 7.0 4.75 8.3 3.85 9.3 3.05 11.85 3.05 14.55 3.05 15.55 4.45 L17.25 8.2 M13.75 12.35 Q13.85 14.95 13.15 16.7 L11.9 19.2 11.9 19.25 Q11.05 20.2 9.5 20.2 7.2 20.2 6.8 13.5 6.35 4.65 10.4 4.65 14.25 4.65 13.75 12.35 M12.95 8.55 Q12.6 5.2 9.9 5.2 6.65 5.2 7.25 12.45 L7.45 12.4 Q7.75 12.4 8.55 12.9 9.4 13.4 10.55 13.4 L12.5 13.2 11.9 13.1 11.9 12.95 12.6 13.15 13.1 12.7 13.2 12.7 13.2 12.35 12.95 8.55 M9.75 9.4 Q9.7 9.1 10.0 9.1 L10.4 9.4 10.05 9.7 9.75 9.4 M8.45 9.7 L8.15 10.0 7.85 9.7 Q7.8 9.35 8.1 9.35 L8.45 9.7 M8.9 13.6 L9.0 13.55 7.55 12.9 7.4 12.95 7.4 13.15 7.55 13.25 7.5 13.4 7.75 13.85 7.6 13.85 7.35 13.65 Q7.65 17.25 8.35 18.75 L8.9 13.6 M9.0 16.6 Q9.1 18.85 8.85 19.45 L9.5 19.7 Q11.1 19.7 11.7 18.8 L11.6 18.5 11.6 15.75 11.75 14.15 12.0 14.15 12.15 13.8 10.6 13.9 9.25 13.65 9.0 16.6 M12.85 13.7 L12.85 13.65 12.55 13.75 12.45 14.15 12.5 14.15 12.15 16.35 12.0 17.75 Q12.2 17.05 12.75 16.25 13.2 15.5 13.2 13.6 L12.85 13.7" fill="#000000" fill-rule="evenodd" stroke="none"/>
      <path d="M14.4 3.9 Q15.55 4.55 16.8 8.45 17.1 9.45 17.1 14.15 17.15 17.15 16.55 18.4 15.15 21.05 10.65 21.05 8.5 21.05 7.7 20.25 L7.8 20.05 Q7.25 19.7 6.85 18.5 6.5 17.6 6.45 16.8 6.15 14.95 6.15 13.15 6.1 10.15 6.9 8.0 7.55 5.6 7.75 5.3 8.6 3.55 10.35 3.6 L14.4 3.9 M13.75 12.35 Q14.25 4.65 10.4 4.65 6.35 4.65 6.8 13.5 7.2 20.2 9.5 20.2 11.05 20.2 11.9 19.25 L11.9 19.2 13.15 16.7 Q13.85 14.95 13.75 12.35" fill="#ff9900" fill-rule="evenodd" stroke="none"/>
      <path d="M8.45 9.7 L8.1 9.35 Q7.8 9.35 7.85 9.7 L8.15 10.0 8.45 9.7 M9.75 9.4 L10.05 9.7 10.4 9.4 10.0 9.1 Q9.7 9.1 9.75 9.4 M12.95 8.55 L13.2 12.35 13.2 12.7 13.1 12.7 12.6 13.15 11.9 12.95 11.9 13.1 12.5 13.2 10.55 13.4 Q9.4 13.4 8.55 12.9 7.75 12.4 7.45 12.4 L7.25 12.45 Q6.65 5.2 9.9 5.2 12.6 5.2 12.95 8.55" fill="#ffcc00" fill-rule="evenodd" stroke="none"/>
    </g>
  </defs>
</svg>
