<?xml version="1.0" encoding="UTF-8" standalone="no"?>
<svg xmlns:ffdec="https://www.free-decompiler.com/flash" xmlns:xlink="http://www.w3.org/1999/xlink" ffdec:objectType="frame" height="120.0px" width="120.0px" xmlns="http://www.w3.org/2000/svg">
  <g transform="matrix(5.0, 0.0, 0.0, 5.0, 0.0, 0.0)">
    <use ffdec:characterId="5" height="18.2" transform="matrix(1.0, 0.0, 0.0, 1.0, 0.0, 0.0)" width="17.75" xlink:href="#shape0"/>
  </g>
  <defs>
    <g id="shape0">
      <path d="M20.8 13.75 Q20.8 14.85 20.2 16.2 L19.05 18.45 Q18.5 19.2 16.45 20.3 13.8 21.7 11.5 21.7 L8.0 21.1 6.35 20.05 3.9 17.6 Q3.05 16.35 3.05 12.5 3.05 3.5 11.55 3.5 15.8 3.5 16.7 4.4 L18.05 5.75 Q19.2 6.7 19.8 8.35 L20.55 11.0 Q20.6 13.35 20.8 13.75 M16.4 4.8 Q15.65 4.05 10.45 4.05 3.55 4.05 3.55 12.5 3.55 16.1 4.35 17.3 L6.45 19.5 7.8 20.4 8.8 20.75 11.4 20.85 11.5 20.95 11.5 21.2 12.0 21.2 Q15.65 20.85 18.6 18.15 L19.6 16.2 20.3 13.7 20.05 11.0 19.25 8.5 Q18.65 6.95 17.65 6.05 L16.4 4.8 M10.7 6.3 Q9.25 6.3 7.7 7.6 6.45 8.65 6.3 9.15 5.45 11.35 5.35 12.7 5.8 12.25 6.8 12.25 L10.5 12.6 Q13.2 12.6 15.5 11.7 16.65 11.7 17.05 12.15 L17.55 12.05 16.9 9.95 Q16.3 8.55 15.55 7.95 13.7 6.55 13.05 6.4 L10.7 6.3 M12.9 8.95 Q13.15 8.95 13.15 9.4 13.15 9.8 12.75 9.8 L12.3 9.5 12.9 8.95 M18.15 12.1 Q18.6 12.2 18.6 12.65 18.6 13.05 18.3 13.05 L18.35 14.1 Q18.35 15.75 17.1 17.4 15.3 19.75 11.85 19.75 L10.6 19.7 10.6 19.75 10.35 20.1 10.15 19.6 9.8 19.45 9.25 19.15 7.85 18.5 5.9 16.65 Q4.85 15.3 4.85 12.95 4.85 10.65 5.95 8.75 7.65 5.75 11.6 5.75 15.5 5.75 17.3 9.6 L18.15 12.1 M9.75 9.75 L10.05 9.35 Q10.45 9.35 10.45 9.8 10.45 10.15 10.05 10.15 L9.75 9.75 M9.55 12.95 L6.9 12.8 7.15 15.05 7.55 17.35 7.5 17.6 8.05 18.05 9.7 18.55 10.0 18.65 9.8 16.65 Q9.5 14.65 9.5 13.25 L9.55 12.95 M6.6 12.8 Q5.45 12.9 5.45 13.75 L5.55 14.0 5.45 14.2 Q5.65 15.5 6.35 16.4 L7.05 17.15 Q6.75 16.25 6.5 13.6 L6.6 12.8 M16.95 12.85 L16.9 13.35 16.55 17.2 16.55 17.25 16.6 17.2 Q17.85 15.65 17.85 14.1 L17.7 12.6 17.2 12.65 16.95 12.85 M16.1 17.2 L16.35 12.5 15.8 12.2 Q15.0 12.65 13.65 12.9 L13.75 15.45 13.95 18.3 13.9 19.0 16.2 17.7 16.1 17.2 M13.15 13.8 L13.35 12.95 10.5 13.1 9.95 13.0 10.25 16.2 10.55 18.85 10.85 19.2 11.85 19.25 13.65 19.05 13.35 16.5 13.15 13.8" fill="#000000" fill-rule="evenodd" stroke="none"/>
      <path d="M12.9 8.95 L12.3 9.5 12.75 9.8 Q13.15 9.8 13.15 9.4 13.15 8.95 12.9 8.95 M10.7 6.3 L13.05 6.4 Q13.7 6.55 15.55 7.95 16.3 8.55 16.9 9.95 L17.55 12.05 17.05 12.15 Q16.65 11.7 15.5 11.7 13.2 12.6 10.5 12.6 L6.8 12.25 Q5.8 12.25 5.35 12.7 5.45 11.35 6.3 9.15 6.45 8.65 7.7 7.6 9.25 6.3 10.7 6.3 M9.75 9.75 L10.05 10.15 Q10.45 10.15 10.45 9.8 10.45 9.35 10.05 9.35 L9.75 9.75" fill="#ffcc00" fill-rule="evenodd" stroke="none"/>
      <path d="M16.4 4.8 L17.65 6.05 Q18.65 6.95 19.25 8.5 L20.05 11.0 20.3 13.7 19.6 16.2 18.6 18.15 Q15.65 20.85 12.0 21.2 L11.5 21.2 11.5 20.95 11.4 20.85 8.8 20.75 7.8 20.4 6.45 19.5 4.35 17.3 Q3.55 16.1 3.55 12.5 3.55 4.05 10.45 4.05 15.65 4.05 16.4 4.8 M18.15 12.1 L17.3 9.6 Q15.5 5.75 11.6 5.75 7.65 5.75 5.95 8.75 4.85 10.65 4.85 12.95 4.85 15.3 5.9 16.65 L7.85 18.5 9.25 19.15 9.8 19.45 10.15 19.6 10.35 20.1 10.6 19.75 10.6 19.7 11.85 19.75 Q15.3 19.75 17.1 17.4 18.35 15.75 18.35 14.1 L18.3 13.05 Q18.6 13.05 18.6 12.65 18.6 12.2 18.15 12.1" fill="#ff9900" fill-rule="evenodd" stroke="none"/>
      <path d="M16.55 17.2 L16.9 13.35 16.95 12.85 17.2 12.65 17.7 12.6 17.85 14.1 Q17.85 15.65 16.6 17.2 L16.55 17.2 M6.6 12.8 L6.5 13.6 Q6.75 16.25 7.05 17.15 L6.35 16.4 Q5.65 15.5 5.45 14.2 L5.55 14.0 5.45 13.75 Q5.45 12.9 6.6 12.8 M9.55 12.95 L9.5 13.25 Q9.5 14.65 9.8 16.65 L10.0 18.65 9.7 18.55 8.05 18.05 7.5 17.6 7.55 17.35 7.15 15.05 6.9 12.8 9.55 12.95 M13.15 13.8 L13.35 16.5 13.65 19.05 11.85 19.25 10.85 19.2 10.55 18.85 10.25 16.2 9.95 13.0 10.5 13.1 13.35 12.95 13.15 13.8 M16.1 17.2 L16.2 17.7 13.9 19.0 13.95 18.3 13.75 15.45 13.65 12.9 Q15.0 12.65 15.8 12.2 L16.35 12.5 16.1 17.2" fill="#ffffff" fill-rule="evenodd" stroke="none"/>
    </g>
  </defs>
</svg>
