<?xml version="1.0" encoding="UTF-8" standalone="no"?>
<svg xmlns:ffdec="https://www.free-decompiler.com/flash" xmlns:xlink="http://www.w3.org/1999/xlink" ffdec:objectType="frame" height="120.0px" width="120.0px" xmlns="http://www.w3.org/2000/svg">
  <g transform="matrix(5.0, 0.0, 0.0, 5.0, 0.0, 0.0)">
    <use ffdec:characterId="6" height="18.5" transform="matrix(1.0, 0.0, 0.0, 1.0, 0.0, 0.0)" width="11.9" xlink:href="#shape0"/>
  </g>
  <defs>
    <g id="shape0">
      <path d="M11.35 3.05 Q13.9 3.05 14.95 3.85 16.2 4.75 16.8 7.75 17.55 11.4 17.55 13.15 L17.4 16.2 16.6 19.2 16.7 19.6 Q16.7 20.1 15.55 20.8 14.25 21.55 12.6 21.55 7.7 21.5 6.25 18.8 5.6 17.5 5.65 14.15 5.65 8.75 5.95 8.2 L7.65 4.45 Q8.65 3.05 11.35 3.05 M14.8 9.7 Q14.8 9.35 15.1 9.35 15.4 9.35 15.4 9.7 L15.1 10.0 14.8 9.7 M13.2 9.1 L13.5 9.4 13.2 9.7 12.85 9.4 Q12.85 9.1 13.2 9.1 M15.5 5.3 Q14.6 3.55 12.85 3.6 L8.85 3.9 Q7.65 4.55 6.4 8.45 6.1 9.45 6.1 14.15 6.05 17.15 6.65 18.4 8.05 21.05 12.6 21.05 14.7 21.05 15.55 20.25 L15.4 20.05 Q15.95 19.7 16.35 18.5 L16.8 16.8 17.1 13.15 Q17.1 10.15 16.3 8.0 L15.5 5.3 M13.35 5.2 Q10.6 5.2 10.3 8.55 L10.05 12.35 10.05 12.7 10.1 12.7 10.6 13.15 11.3 12.95 11.3 13.1 10.7 13.2 12.65 13.4 Q13.8 13.4 14.65 12.9 15.45 12.4 15.75 12.4 L15.95 12.45 Q16.55 5.2 13.35 5.2 M15.85 13.15 L15.8 12.95 15.65 12.9 14.2 13.55 14.35 13.6 14.85 18.75 Q15.55 17.25 15.85 13.65 L15.6 13.85 15.5 13.85 15.7 13.4 15.65 13.25 15.85 13.15 M10.35 13.65 L10.35 13.7 10.0 13.6 Q10.0 15.5 10.45 16.25 L11.2 17.75 11.05 16.35 10.75 14.15 10.8 14.15 10.7 13.75 10.35 13.65 M12.6 13.9 L11.1 13.8 11.2 14.15 11.5 14.15 11.6 15.75 11.65 18.5 11.55 18.8 Q12.1 19.7 13.75 19.7 L14.35 19.45 Q14.1 18.85 14.2 16.6 13.9 14.6 13.95 13.65 L12.6 13.9 M13.7 20.2 Q12.15 20.2 11.3 19.25 L11.3 19.2 10.1 16.7 Q9.35 14.95 9.45 12.35 9.0 4.65 12.85 4.65 16.85 4.65 16.45 13.5 16.0 20.2 13.7 20.2" fill="#000000" fill-rule="evenodd" stroke="none"/>
      <path d="M15.5 5.3 L16.3 8.0 Q17.1 10.15 17.1 13.15 L16.8 16.8 16.35 18.5 Q15.95 19.7 15.4 20.05 L15.55 20.25 Q14.7 21.05 12.6 21.05 8.05 21.05 6.65 18.4 6.05 17.15 6.1 14.15 6.1 9.45 6.4 8.45 7.65 4.55 8.85 3.9 L12.85 3.6 Q14.6 3.55 15.5 5.3 M13.7 20.2 Q16.0 20.2 16.45 13.5 16.85 4.65 12.85 4.65 9.0 4.65 9.45 12.35 9.35 14.95 10.1 16.7 L11.3 19.2 11.3 19.25 Q12.15 20.2 13.7 20.2" fill="#ff9900" fill-rule="evenodd" stroke="none"/>
      <path d="M13.2 9.1 Q12.85 9.1 12.85 9.4 L13.2 9.7 13.5 9.4 13.2 9.1 M14.8 9.7 L15.1 10.0 15.4 9.7 Q15.4 9.35 15.1 9.35 14.8 9.35 14.8 9.7 M13.35 5.2 Q16.55 5.2 15.95 12.45 L15.75 12.4 Q15.45 12.4 14.65 12.9 13.8 13.4 12.65 13.4 L10.7 13.2 11.3 13.1 11.3 12.95 10.6 13.15 10.1 12.7 10.05 12.7 10.05 12.35 10.3 8.55 Q10.6 5.2 13.35 5.2" fill="#ffcc00" fill-rule="evenodd" stroke="none"/>
      <path d="M10.35 13.65 L10.7 13.75 10.8 14.15 10.75 14.15 11.05 16.35 11.2 17.75 10.45 16.25 Q10.0 15.5 10.0 13.6 L10.35 13.7 10.35 13.65 M15.85 13.15 L15.65 13.25 15.7 13.4 15.5 13.85 15.6 13.85 15.85 13.65 Q15.55 17.25 14.85 18.75 L14.35 13.6 14.2 13.55 15.65 12.9 15.8 12.95 15.85 13.15 M12.6 13.9 L13.95 13.65 Q13.9 14.6 14.2 16.6 14.1 18.85 14.35 19.45 L13.75 19.7 Q12.1 19.7 11.55 18.8 L11.65 18.5 11.6 15.75 11.5 14.15 11.2 14.15 11.1 13.8 12.6 13.9" fill="#ffffff" fill-rule="evenodd" stroke="none"/>
    </g>
  </defs>
</svg>
