<?xml version="1.0" encoding="UTF-8" standalone="no"?>
<svg xmlns:ffdec="https://www.free-decompiler.com/flash" xmlns:xlink="http://www.w3.org/1999/xlink" ffdec:objectType="frame" height="120.0px" width="120.0px" xmlns="http://www.w3.org/2000/svg">
  <g transform="matrix(5.0, 0.0, 0.0, 5.0, 0.0, 0.0)">
    <use ffdec:characterId="7" height="18.5" transform="matrix(1.0, 0.0, 0.0, 1.0, 0.0, 0.0)" width="11.9" xlink:href="#shape0"/>
  </g>
  <defs>
    <g id="shape0">
      <path d="M11.35 3.05 Q13.9 3.05 14.95 3.85 16.2 4.75 16.8 7.75 17.55 11.4 17.55 13.15 L17.4 16.2 16.6 19.2 16.7 19.6 Q16.7 20.1 15.55 20.8 14.25 21.55 12.6 21.55 7.7 21.5 6.25 18.8 5.6 17.5 5.65 14.15 5.65 8.75 5.95 8.2 L7.65 4.45 Q8.65 3.05 11.35 3.05 M11.1 12.15 Q11.5 11.3 12.15 11.3 12.55 11.3 12.8 11.55 13.2 5.55 10.4 5.55 8.05 5.55 7.6 8.1 L7.6 10.75 Q9.0 12.95 10.05 12.95 10.75 12.95 11.1 12.15 M10.75 9.55 L10.5 9.3 Q10.55 9.05 10.75 9.05 L11.0 9.3 10.75 9.55 M11.95 11.8 L11.65 12.25 Q11.95 12.65 11.95 15.85 L12.1 18.6 Q12.7 16.75 12.75 12.5 12.5 12.5 12.5 12.15 12.45 11.8 11.95 11.8 M15.5 5.3 Q14.6 3.55 12.85 3.6 L8.85 3.9 Q7.65 4.55 6.4 8.45 6.1 9.45 6.1 14.15 6.05 17.15 6.65 18.4 8.05 21.05 12.6 21.05 14.7 21.05 15.55 20.25 L15.4 20.05 Q15.95 19.7 16.35 18.5 L16.8 16.8 17.1 13.15 Q17.1 10.15 16.3 8.0 L15.5 5.3 M13.1 8.05 L13.25 11.85 13.15 16.35 12.65 19.0 12.25 19.55 12.25 19.6 12.0 20.0 11.85 19.8 10.45 20.05 Q6.55 20.05 7.1 11.35 L7.15 7.9 Q7.65 5.0 9.95 5.0 12.5 5.0 13.1 8.05 M9.3 8.9 L9.55 9.15 9.3 9.4 9.05 9.15 Q9.1 8.9 9.3 8.9 M9.45 13.3 L9.65 15.85 10.05 18.95 9.9 19.5 10.5 19.55 11.5 19.3 11.75 19.35 Q11.45 17.85 11.3 12.9 10.85 13.45 10.05 13.45 L9.45 13.3 M7.6 11.6 L7.55 11.95 7.7 11.9 8.25 15.3 8.0 16.5 7.75 14.4 7.55 13.1 Q7.6 18.45 9.6 19.35 9.3 18.25 9.1 14.35 L9.2 13.15 8.25 12.35 7.6 11.6" fill="#000000" fill-rule="evenodd" stroke="none"/>
      <path d="M13.1 8.05 Q12.5 5.0 9.95 5.0 7.65 5.0 7.15 7.9 L7.1 11.35 Q6.55 20.05 10.45 20.05 L11.85 19.8 12.0 20.0 12.25 19.6 12.25 19.55 12.65 19.0 13.15 16.35 13.25 11.85 13.1 8.05 M15.5 5.3 L16.3 8.0 Q17.1 10.15 17.1 13.15 L16.8 16.8 16.35 18.5 Q15.95 19.7 15.4 20.05 L15.55 20.25 Q14.7 21.05 12.6 21.05 8.05 21.05 6.65 18.4 6.05 17.15 6.1 14.15 6.1 9.45 6.4 8.45 7.65 4.55 8.85 3.9 L12.85 3.6 Q14.6 3.55 15.5 5.3" fill="#ff9900" fill-rule="evenodd" stroke="none"/>
      <path d="M10.75 9.55 L11.0 9.3 10.75 9.05 Q10.55 9.05 10.5 9.3 L10.75 9.55 M11.1 12.15 Q10.75 12.95 10.05 12.95 9.0 12.95 7.6 10.75 L7.6 8.1 Q8.05 5.55 10.4 5.55 13.2 5.55 12.8 11.55 12.55 11.3 12.15 11.3 11.5 11.3 11.1 12.15 M9.3 8.9 Q9.1 8.9 9.05 9.15 L9.3 9.4 9.55 9.15 9.3 8.9" fill="#ffcc00" fill-rule="evenodd" stroke="none"/>
      <path d="M11.95 11.8 Q12.45 11.8 12.5 12.15 12.5 12.5 12.75 12.5 12.7 16.75 12.1 18.6 L11.95 15.85 Q11.95 12.65 11.65 12.25 L11.95 11.8 M7.6 11.6 L8.25 12.35 9.2 13.15 9.1 14.35 Q9.3 18.25 9.6 19.35 7.6 18.45 7.55 13.1 L7.75 14.4 8.0 16.5 8.25 15.3 7.7 11.9 7.55 11.95 7.6 11.6 M9.45 13.3 L10.05 13.45 Q10.85 13.45 11.3 12.9 11.45 17.85 11.75 19.35 L11.5 19.3 10.5 19.55 9.9 19.5 10.05 18.95 9.65 15.85 9.45 13.3" fill="#ffffff" fill-rule="evenodd" stroke="none"/>
    </g>
  </defs>
</svg>
