<?xml version="1.0" encoding="UTF-8" standalone="no"?>
<svg xmlns:ffdec="https://www.free-decompiler.com/flash" xmlns:xlink="http://www.w3.org/1999/xlink" ffdec:objectType="frame" height="320.0px" width="640.0px" xmlns="http://www.w3.org/2000/svg">
  <g transform="matrix(5.0, 0.0, 0.0, 5.0, 0.0, 0.0)">
    <use ffdec:characterId="1" height="33.25" transform="matrix(1.0, 0.0, 0.0, 1.0, 0.0, 0.0)" width="61.75" xlink:href="#shape0"/>
  </g>
  <defs>
    <g id="shape0">
      <path d="M101.0 23.1 L101.5 23.4 102.25 24.15 Q102.6 24.95 102.6 25.65 102.6 32.85 76.5 32.85 L72.9 32.75 Q74.85 34.65 74.85 36.05 74.85 46.6 70.85 46.6 L66.35 45.75 Q67.5 51.1 63.25 51.1 58.15 51.1 53.35 44.95 L52.6 43.95 52.0 44.35 Q50.5 44.35 48.7 42.35 L48.15 41.65 Q47.3 42.35 44.75 43.35 41.95 43.35 41.1 38.5 L40.85 33.55 Q40.85 30.65 41.75 27.25 43.25 21.85 46.25 21.85 48.65 21.85 50.2 25.75 54.55 22.45 54.9 21.65 56.2 19.35 61.35 17.85 63.15 17.85 63.35 21.05 L63.4 22.9 82.1 22.85 Q100.75 23.0 101.0 23.1 M101.35 25.65 Q101.35 24.85 100.5 24.4 100.15 24.25 63.4 24.0 L63.35 25.85 Q63.65 28.0 64.15 29.35 L64.35 29.35 Q68.8 29.35 71.95 31.9 L76.25 31.25 86.5 30.4 Q101.35 29.0 101.35 25.65 M61.75 19.15 L58.5 20.9 Q56.6 21.9 55.4 23.15 L52.75 25.3 50.3 27.05 50.25 27.1 Q50.35 27.35 49.75 27.35 47.6 23.25 46.3 23.25 44.1 23.25 42.85 28.35 42.25 30.95 42.1 33.55 L42.35 37.85 Q42.95 42.0 44.6 42.0 45.55 42.0 46.55 41.2 L47.4 40.6 46.85 39.9 46.85 38.75 47.5 38.6 Q47.9 38.6 51.25 41.95 49.35 38.95 49.35 37.25 49.35 35.6 49.55 35.15 50.2 33.7 52.65 33.75 51.85 32.85 51.85 31.75 51.85 29.85 54.35 29.1 L55.1 29.2 Q55.7 27.9 57.25 27.35 57.75 27.65 57.85 27.85 L55.9 29.75 55.85 31.5 Q55.85 36.25 59.8 36.25 65.55 36.25 64.1 33.9 64.1 32.05 63.4 30.85 L63.1 30.2 62.6 29.9 62.85 29.6 Q62.4 28.35 62.1 26.65 L61.85 19.5 61.75 19.15 M54.35 30.65 Q53.1 31.3 53.1 31.9 53.1 32.75 55.85 36.05 L55.75 36.65 Q55.85 36.85 55.25 36.85 54.5 36.85 53.7 36.05 52.85 35.25 51.75 35.25 50.8 35.25 50.6 36.25 L50.6 37.3 Q50.6 39.2 54.35 44.0 58.85 49.75 63.3 49.75 65.4 49.75 65.45 47.75 L65.15 44.5 66.1 44.35 67.45 44.8 70.65 45.25 Q73.45 45.25 73.55 43.45 L73.1 40.5 73.6 36.0 Q73.6 33.6 68.1 31.85 L64.8 30.8 Q65.35 31.95 65.35 33.9 65.35 35.9 65.0 36.35 64.0 37.6 59.85 37.6 57.2 37.6 55.9 36.05 54.6 34.5 54.6 31.5 L54.7 30.5 54.35 30.65" fill="#000000" fill-rule="evenodd" stroke="none"/>
      <path d="M54.35 30.65 L54.7 30.5 54.6 31.5 Q54.6 34.5 55.9 36.05 57.2 37.6 59.85 37.6 64.0 37.6 65.0 36.35 65.35 35.9 65.35 33.9 65.35 31.95 64.8 30.8 L68.1 31.85 Q73.6 33.6 73.6 36.0 L73.1 40.5 73.55 43.45 Q73.45 45.25 70.65 45.25 L67.45 44.8 66.1 44.35 65.15 44.5 65.45 47.75 Q65.4 49.75 63.3 49.75 58.85 49.75 54.35 44.0 50.6 39.2 50.6 37.3 L50.6 36.25 Q50.8 35.25 51.75 35.25 52.85 35.25 53.7 36.05 54.5 36.85 55.25 36.85 55.85 36.85 55.75 36.65 L55.85 36.05 Q53.1 32.75 53.1 31.9 53.1 31.3 54.35 30.65 M61.75 19.15 L61.85 19.5 62.1 26.65 Q62.4 28.35 62.85 29.6 L62.6 29.9 63.1 30.2 63.4 30.85 Q64.1 32.05 64.1 33.9 65.55 36.25 59.8 36.25 55.85 36.25 55.85 31.5 L55.9 29.75 57.85 27.85 Q57.75 27.65 57.25 27.35 55.7 27.9 55.1 29.2 L54.35 29.1 Q51.85 29.85 51.85 31.75 51.85 32.85 52.65 33.75 50.2 33.7 49.55 35.15 49.35 35.6 49.35 37.25 49.35 38.95 51.25 41.95 47.9 38.6 47.5 38.6 L46.85 38.75 46.85 39.9 47.4 40.6 46.55 41.2 Q45.55 42.0 44.6 42.0 42.95 42.0 42.35 37.85 L42.1 33.55 Q42.25 30.95 42.85 28.35 44.1 23.25 46.3 23.25 47.6 23.25 49.75 27.35 50.35 27.35 50.25 27.1 L50.3 27.05 52.75 25.3 55.4 23.15 Q56.6 21.9 58.5 20.9 L61.75 19.15 M101.35 25.65 Q101.35 29.0 86.5 30.4 L76.25 31.25 71.95 31.9 Q68.8 29.35 64.35 29.35 L64.15 29.35 Q63.65 28.0 63.35 25.85 L63.4 24.0 Q100.15 24.25 100.5 24.4 101.35 24.85 101.35 25.65" fill="#ffffff" fill-rule="evenodd" stroke="none"/>
    </g>
  </defs>
</svg>
