<?xml version="1.0" encoding="UTF-8" standalone="no"?>
<svg xmlns:ffdec="https://www.free-decompiler.com/flash" xmlns:xlink="http://www.w3.org/1999/xlink" ffdec:objectType="frame" height="320.0px" width="640.0px" xmlns="http://www.w3.org/2000/svg">
  <g transform="matrix(5.0, 0.0, 0.0, 5.0, 0.0, 0.0)">
    <use ffdec:characterId="2" height="33.75" transform="matrix(1.0, 0.0, 0.0, 1.0, 0.0, 0.0)" width="53.25" xlink:href="#shape0"/>
  </g>
  <defs>
    <g id="shape0">
      <path d="M55.65 22.65 L55.9 22.85 56.65 22.55 57.4 22.7 Q58.2 22.7 59.5 20.3 60.8 17.9 63.8 17.9 L64.5 18.35 Q65.15 19.0 65.9 18.6 66.5 18.25 66.95 18.95 L67.45 20.3 67.95 22.95 67.7 25.7 67.9 27.25 Q67.2 27.3 67.2 27.85 67.2 28.2 67.95 28.45 67.7 33.2 65.6 33.2 L64.65 32.95 Q63.0 33.95 61.7 33.95 L61.35 32.45 62.2 30.2 Q62.65 28.85 64.0 28.65 65.2 28.5 65.2 28.0 65.35 27.35 63.85 27.35 62.85 27.35 62.05 28.25 61.2 27.7 58.65 27.7 56.35 27.7 56.35 30.5 56.35 31.0 57.25 32.8 52.9 34.15 51.9 34.95 51.1 35.6 51.1 37.4 51.1 38.75 52.1 41.1 L52.45 41.9 51.4 41.7 51.0 41.8 Q50.25 40.9 49.8 39.75 49.35 38.7 49.35 36.5 49.35 33.5 50.1 28.85 51.05 23.4 52.35 20.6 L55.1 23.35 Q55.6 23.35 55.6 22.7 L55.65 22.65 M88.95 18.5 Q91.8 18.5 95.25 20.15 100.1 22.45 100.1 26.55 100.1 29.85 94.45 29.85 93.35 29.85 87.3 27.3 81.2 24.7 75.75 24.7 71.45 24.7 71.45 25.5 L71.55 25.8 71.1 26.0 Q69.6 26.8 69.6 27.1 L69.95 27.35 69.15 27.25 68.95 25.7 69.2 22.95 69.15 21.8 72.6 20.05 80.6 18.6 88.95 18.5 M57.6 30.5 Q57.6 29.0 59.05 29.0 L61.35 29.15 61.05 29.7 Q60.1 31.5 60.1 32.5 60.1 33.55 60.25 33.95 60.65 35.2 62.1 35.2 63.45 35.2 64.85 34.25 L65.95 34.45 Q69.15 34.45 69.2 28.7 L69.45 28.7 Q72.7 28.95 74.7 29.75 L76.85 31.3 77.1 31.5 Q76.85 31.6 76.85 32.0 L77.85 33.35 Q78.85 34.7 78.85 35.4 78.85 36.95 74.6 42.45 L72.95 44.25 71.35 45.1 Q69.2 45.25 67.4 45.75 66.7 45.85 65.7 47.45 65.0 49.1 63.45 49.1 60.9 49.1 56.95 45.75 52.35 41.85 52.35 37.45 52.35 35.8 55.5 34.85 58.6 33.9 58.6 32.95 L57.6 30.5" fill="#ffffff" fill-rule="evenodd" stroke="none"/>
      <path d="M98.75 21.25 Q101.35 23.8 101.35 26.55 101.35 31.1 95.4 31.1 93.4 31.1 89.95 29.9 L86.8 28.65 Q85.05 28.2 84.25 27.65 L83.1 26.85 73.65 26.1 70.8 27.5 72.0 27.75 Q74.85 28.35 75.95 29.1 L78.4 30.45 Q79.85 31.3 79.85 32.0 79.85 32.6 79.25 32.6 L79.15 32.6 Q79.7 33.6 80.1 35.45 80.1 36.95 78.45 39.3 76.45 41.9 75.7 43.05 73.65 46.2 70.1 46.85 67.4 47.3 66.9 47.65 L66.35 48.6 Q65.3 50.35 63.85 50.35 60.0 50.35 54.0 44.35 L53.25 43.35 52.4 43.45 51.55 43.35 51.3 43.35 Q49.35 43.35 48.55 39.95 L48.1 36.5 Q48.3 31.9 48.9 27.65 50.1 19.2 52.3 19.2 53.85 19.2 55.3 22.1 L56.45 21.1 Q57.5 20.35 57.95 20.25 L58.7 19.25 Q59.0 18.65 60.1 17.75 61.55 16.6 63.05 16.6 65.3 16.6 65.35 17.35 L67.6 17.6 67.85 18.1 68.6 19.7 68.85 20.35 Q70.0 19.7 72.45 18.8 76.2 17.2 85.65 17.2 94.6 17.2 98.75 21.25 M88.95 18.5 L80.6 18.6 72.6 20.05 69.15 21.8 69.2 22.95 68.95 25.7 69.15 27.25 69.95 27.35 69.6 27.1 Q69.6 26.8 71.1 26.0 L71.55 25.8 71.45 25.5 Q71.45 24.7 75.75 24.7 81.2 24.7 87.3 27.3 93.35 29.85 94.45 29.85 100.1 29.85 100.1 26.55 100.1 22.45 95.25 20.15 91.8 18.5 88.95 18.5 M55.6 22.7 Q55.6 23.35 55.1 23.35 L52.35 20.6 Q51.05 23.4 50.1 28.85 49.35 33.5 49.35 36.5 49.35 38.7 49.8 39.75 50.25 40.9 51.0 41.8 L51.4 41.7 52.45 41.9 52.1 41.1 Q51.1 38.75 51.1 37.4 51.1 35.6 51.9 34.95 52.9 34.15 57.25 32.8 56.35 31.0 56.35 30.5 56.35 27.7 58.65 27.7 61.2 27.7 62.05 28.25 62.85 27.35 63.85 27.35 65.35 27.35 65.2 28.0 65.2 28.5 64.0 28.65 62.65 28.85 62.2 30.2 L61.35 32.45 61.7 33.95 Q63.0 33.95 64.65 32.95 L65.6 33.2 Q67.7 33.2 67.95 28.45 67.2 28.2 67.2 27.85 67.2 27.3 67.9 27.25 L67.7 25.7 67.95 22.95 67.45 20.3 66.95 18.95 Q66.5 18.25 65.9 18.6 65.15 19.0 64.5 18.35 L63.8 17.9 Q60.8 17.9 59.5 20.3 58.2 22.7 57.4 22.7 L56.65 22.55 55.9 22.85 55.65 22.65 55.55 22.55 55.6 22.7 M57.6 30.5 L58.6 32.95 Q58.6 33.9 55.5 34.85 52.35 35.8 52.35 37.45 52.35 41.85 56.95 45.75 60.9 49.1 63.45 49.1 65.0 49.1 65.7 47.45 66.7 45.85 67.4 45.75 69.2 45.25 71.35 45.1 L72.95 44.25 74.6 42.45 Q78.85 36.95 78.85 35.4 78.85 34.7 77.85 33.35 L76.85 32.0 Q76.85 31.6 77.1 31.5 L76.85 31.3 74.7 29.75 Q72.7 28.95 69.45 28.7 L69.2 28.7 Q69.15 34.45 65.95 34.45 L64.85 34.25 Q63.45 35.2 62.1 35.2 60.65 35.2 60.25 33.95 60.1 33.55 60.1 32.5 60.1 31.5 61.05 29.7 L61.35 29.15 59.05 29.0 Q57.6 29.0 57.6 30.5" fill="#000000" fill-rule="evenodd" stroke="none"/>
    </g>
  </defs>
</svg>
