<?xml version="1.0" encoding="UTF-8" standalone="no"?>
<svg xmlns:ffdec="https://www.free-decompiler.com/flash" xmlns:xlink="http://www.w3.org/1999/xlink" ffdec:objectType="frame" height="320.0px" width="640.0px" xmlns="http://www.w3.org/2000/svg">
  <g transform="matrix(5.0, 0.0, 0.0, 5.0, 0.0, 0.0)">
    <use ffdec:characterId="2" height="35.5" transform="matrix(1.0, 0.0, 0.0, 1.0, 0.0, 0.0)" width="44.75" xlink:href="#shape0"/>
  </g>
  <defs>
    <g id="shape0">
      <path d="M72.1 21.0 L72.6 21.1 Q73.5 21.1 74.25 20.4 L75.9 18.95 Q78.75 16.75 85.4 16.75 93.3 16.75 96.9 20.5 99.1 22.85 99.1 25.3 99.1 29.5 94.4 29.5 L90.0 26.2 Q85.9 22.85 83.75 22.85 81.6 22.85 79.75 24.5 78.1 25.95 78.1 27.15 L78.3 27.65 77.5 27.6 Q74.85 27.6 74.85 28.4 L74.9 28.75 Q75.2 29.1 75.6 29.1 82.1 29.1 82.1 34.55 82.1 39.45 78.9 42.4 77.2 44.0 75.75 44.1 L71.5 44.6 Q71.35 44.85 71.35 45.75 71.35 46.4 71.9 48.1 71.65 49.5 67.9 49.5 65.65 49.5 63.6 44.5 L62.6 41.6 62.55 41.4 61.1 37.5 61.1 33.75 64.35 34.35 65.0 34.15 65.1 33.55 Q63.6 31.9 63.6 30.25 63.6 29.7 63.9 29.5 L66.25 30.8 Q66.1 31.45 66.1 32.75 66.1 36.1 69.5 36.1 73.6 36.1 73.6 29.85 73.6 28.45 73.0 26.9 72.15 24.75 71.85 23.0 L72.05 21.0 72.1 21.0 M69.75 17.4 Q70.5 17.4 70.55 19.75 L70.6 23.5 Q70.95 25.7 71.7 27.05 72.35 28.15 72.35 29.8 72.15 34.75 68.9 34.75 67.35 34.75 67.35 32.55 67.35 31.7 68.1 30.2 L68.85 28.4 68.25 27.85 66.75 29.75 65.8 29.0 Q64.45 28.1 63.75 28.1 62.35 28.1 62.35 30.2 62.35 31.3 63.0 32.5 59.85 31.3 59.85 35.4 L61.5 41.35 61.35 41.4 Q61.35 43.25 59.65 43.25 57.95 43.25 57.25 40.35 56.85 38.8 56.85 37.15 56.85 35.6 57.6 29.8 58.4 23.15 59.1 21.25 61.95 25.85 62.6 25.85 L63.15 25.7 63.25 25.85 Q63.95 25.0 65.0 21.0 66.45 17.4 69.75 17.4" fill="#ffffff" fill-rule="evenodd" stroke="none"/>
      <path d="M98.25 19.9 Q100.35 22.45 100.35 25.3 100.35 30.85 94.75 30.85 93.75 30.85 89.6 27.55 85.45 24.25 83.65 24.25 81.4 24.25 80.15 25.9 L78.95 27.75 Q83.3 28.55 83.35 34.65 83.35 38.2 81.65 41.0 78.9 45.45 72.6 45.75 L72.95 48.55 Q72.6 50.85 69.35 50.85 65.2 50.85 62.25 43.7 61.55 44.6 59.75 44.6 56.95 44.6 56.0 40.95 L55.6 37.2 Q55.6 35.2 56.6 28.25 57.85 19.85 59.0 19.85 60.85 19.85 62.8 23.95 63.15 22.45 64.45 20.1 66.7 16.1 69.1 16.1 71.8 16.1 72.0 19.05 L72.05 20.05 Q72.7 19.25 75.75 17.75 80.55 15.35 85.35 15.35 94.5 15.35 98.25 19.9 M72.05 21.0 L71.85 23.0 Q72.15 24.75 73.0 26.9 73.6 28.45 73.6 29.85 73.6 36.1 69.5 36.1 66.1 36.1 66.1 32.75 66.1 31.45 66.25 30.8 L63.9 29.5 Q63.6 29.7 63.6 30.25 63.6 31.9 65.1 33.55 L65.0 34.15 64.35 34.35 61.1 33.75 61.1 37.5 62.55 41.4 62.6 41.6 63.6 44.5 Q65.65 49.5 67.9 49.5 71.65 49.5 71.9 48.1 71.35 46.4 71.35 45.75 71.35 44.85 71.5 44.6 L75.75 44.1 Q77.2 44.0 78.9 42.4 82.1 39.45 82.1 34.55 82.1 29.1 75.6 29.1 75.2 29.1 74.9 28.75 L74.85 28.4 Q74.85 27.6 77.5 27.6 L78.3 27.65 78.1 27.15 Q78.1 25.95 79.75 24.5 81.6 22.85 83.75 22.85 85.9 22.85 90.0 26.2 L94.4 29.5 Q99.1 29.5 99.1 25.3 99.1 22.85 96.9 20.5 93.3 16.75 85.4 16.75 78.75 16.75 75.9 18.95 L74.25 20.4 Q73.5 21.1 72.6 21.1 L72.1 21.0 72.05 20.95 72.05 21.0 M69.75 17.4 Q66.45 17.4 65.0 21.0 63.95 25.0 63.25 25.85 L63.15 25.7 62.6 25.85 Q61.95 25.85 59.1 21.25 58.4 23.15 57.6 29.8 56.85 35.6 56.85 37.15 56.85 38.8 57.25 40.35 57.95 43.25 59.65 43.25 61.35 43.25 61.35 41.4 L61.5 41.35 59.85 35.4 Q59.85 31.3 63.0 32.5 62.35 31.3 62.35 30.2 62.35 28.1 63.75 28.1 64.45 28.1 65.8 29.0 L66.75 29.75 68.25 27.85 68.85 28.4 68.1 30.2 Q67.35 31.7 67.35 32.55 67.35 34.75 68.9 34.75 72.15 34.75 72.35 29.8 72.35 28.15 71.7 27.05 70.95 25.7 70.6 23.5 L70.55 19.75 Q70.5 17.4 69.75 17.4" fill="#000000" fill-rule="evenodd" stroke="none"/>
    </g>
  </defs>
</svg>
