<?xml version="1.0" encoding="UTF-8" standalone="no"?>
<svg xmlns:ffdec="https://www.free-decompiler.com/flash" xmlns:xlink="http://www.w3.org/1999/xlink" ffdec:objectType="frame" height="500.0px" width="500.0px" xmlns="http://www.w3.org/2000/svg">
  <g transform="matrix(5.0, 0.0, 0.0, 5.0, 0.0, 0.0)">
    <use ffdec:characterId="1" height="44.5" transform="matrix(1.0, 0.0, 0.0, 1.0, 0.0, 0.0)" width="40.3" xlink:href="#shape0"/>
  </g>
  <defs>
    <g id="shape0">
      <path d="M50.65 49.25 Q50.35 50.2 50.0 52.45 49.75 52.45 49.75 51.55 49.75 50.6 50.4 48.4 51.2 45.7 52.05 45.7 53.75 45.7 53.65 49.8 53.7 52.8 53.25 53.3 54.15 54.4 54.15 57.3 54.15 58.35 53.65 59.6 52.9 61.4 51.55 61.4 50.35 61.4 50.35 60.7 50.35 60.45 50.6 60.45 50.9 60.45 51.55 60.9 53.25 60.9 53.65 57.3 L53.35 54.95 Q52.75 53.05 51.2 53.05 49.9 53.05 48.95 53.9 48.2 54.6 48.2 55.15 L48.4 55.75 48.4 55.85 Q49.6 56.75 49.85 59.15 49.85 62.25 46.8 62.25 44.9 62.25 43.85 60.9 43.35 60.3 43.35 59.1 43.35 55.3 46.5 55.3 47.3 55.3 47.9 55.6 L47.7 55.15 Q47.7 52.55 51.6 52.55 52.3 52.55 52.85 52.95 L53.1 51.5 53.15 49.8 Q53.2 46.2 52.1 46.2 51.45 46.2 50.65 49.25 M43.45 47.3 L49.3 52.3 49.05 52.55 44.05 48.2 44.0 48.2 44.85 52.05 44.65 53.2 44.85 53.2 Q45.85 53.25 45.85 53.55 L44.65 53.8 Q42.55 53.8 40.4 53.05 L36.65 51.6 39.05 55.65 40.25 57.75 41.55 59.7 41.25 59.95 38.25 55.25 35.45 50.65 Q35.45 50.4 35.7 50.4 L39.9 52.25 41.85 53.0 44.35 53.2 44.2 53.05 44.35 52.05 43.9 49.7 43.2 47.55 Q43.2 47.3 43.45 47.3 M32.25 58.7 Q32.25 59.8 35.15 60.75 L37.4 61.45 39.5 61.8 Q39.9 61.0 40.35 61.0 L40.65 61.25 40.1 61.95 Q39.55 62.45 39.55 63.1 39.55 65.6 43.15 67.45 46.1 68.95 48.4 68.95 54.2 68.95 58.9 64.25 60.75 62.3 60.75 57.75 L60.65 56.9 Q60.25 58.85 58.1 60.1 55.95 61.3 53.55 61.3 53.05 61.3 53.05 61.05 L56.65 60.05 Q60.25 58.8 60.25 55.95 L60.2 54.6 59.85 53.55 57.7 51.8 Q57.7 51.55 57.95 51.55 L58.3 51.9 58.35 51.9 Q58.35 51.55 58.65 51.55 59.7 51.55 60.4 52.5 L60.9 53.6 60.85 53.9 61.25 57.75 60.95 60.3 62.15 59.55 Q63.65 58.85 64.95 58.85 66.15 58.85 66.8 59.65 66.95 59.4 67.75 59.4 68.45 59.4 68.75 60.0 L70.1 59.85 Q71.05 59.85 71.3 60.3 L71.55 60.95 72.05 62.15 Q72.05 63.05 71.4 63.95 L71.6 65.1 Q71.6 67.25 69.9 67.25 68.9 67.25 67.8 66.5 L67.3 66.1 65.95 66.95 Q65.2 66.95 64.5 66.45 L63.9 65.75 Q63.9 65.2 64.6 64.4 L65.05 63.95 Q64.65 63.65 64.65 63.0 64.65 62.0 65.05 62.0 L65.35 62.25 65.15 62.95 Q65.15 63.45 65.6 63.65 L65.8 63.6 66.0 63.7 66.1 63.7 Q67.05 63.7 67.85 62.5 68.45 61.55 68.45 61.0 68.45 59.9 68.0 59.9 L67.05 60.05 67.2 60.4 Q67.45 60.4 67.6 61.1 L67.15 62.05 66.2 62.85 Q65.8 62.85 65.7 62.4 65.6 61.95 64.45 61.95 62.25 61.95 60.85 63.25 L59.8 64.55 59.55 64.25 59.3 64.6 Q58.3 65.9 56.1 67.2 52.45 69.45 48.4 69.45 46.8 69.45 44.3 68.4 L44.1 69.0 44.2 69.2 42.85 71.35 Q42.65 71.9 42.65 73.7 42.65 75.55 43.5 76.8 L44.45 77.9 44.95 77.8 Q46.25 77.8 49.0 79.25 L50.25 79.05 50.25 79.0 50.3 79.0 50.35 79.05 Q52.3 78.4 53.5 76.2 L53.75 76.45 Q53.75 77.1 52.45 78.3 51.55 79.1 50.5 79.5 L50.45 80.05 50.55 80.1 Q50.65 80.0 50.9 79.85 L50.85 79.8 53.35 78.5 53.45 78.55 53.65 78.45 Q53.1 78.45 53.1 78.1 L53.3 77.85 53.7 77.95 53.8 77.95 Q53.85 77.85 54.0 77.85 L54.1 77.9 Q54.5 77.7 54.5 77.05 53.9 73.9 52.7 73.9 51.2 73.9 51.2 74.5 L51.35 75.1 51.1 75.35 50.7 74.45 Q50.7 73.4 52.15 73.4 L52.25 73.4 51.95 73.05 Q51.95 72.75 52.3 72.15 L51.75 71.0 51.15 69.9 Q51.15 69.65 51.4 69.65 51.7 69.65 52.55 71.75 53.25 70.75 53.95 70.75 54.75 70.75 55.05 71.5 55.35 71.15 56.3 71.15 56.75 71.15 57.1 73.55 L57.9 74.75 Q58.3 75.2 58.3 76.0 58.3 78.7 55.7 78.7 54.65 78.7 54.55 78.2 L54.4 78.35 54.8 80.8 Q54.8 81.3 53.9 82.25 53.05 83.1 52.15 83.3 L54.5 85.0 56.65 86.35 56.0 85.2 55.85 85.25 55.6 85.0 56.1 84.35 56.7 83.8 Q56.9 83.8 59.1 86.95 L61.05 89.9 57.6 90.2 52.7 89.8 52.9 88.55 Q52.9 87.45 53.25 87.45 L55.6 87.6 Q53.95 86.6 50.65 84.1 L50.75 84.45 50.5 84.7 Q50.15 84.7 49.4 83.85 48.7 83.0 48.15 83.0 L46.5 84.75 45.4 86.6 43.1 84.6 42.15 84.95 Q41.85 84.95 41.85 84.55 L41.9 83.75 41.85 83.7 37.95 81.05 39.45 79.75 Q40.4 78.35 40.8 78.35 41.25 78.35 42.25 80.0 L42.3 80.05 Q42.6 78.05 42.9 78.05 L43.15 78.3 42.85 80.45 43.9 81.2 43.85 80.5 43.9 79.5 43.75 79.2 Q43.75 78.5 44.05 78.15 L43.1 77.1 Q42.15 75.95 42.15 73.7 42.15 69.55 43.5 69.05 L43.95 68.25 Q42.8 67.75 41.5 67.05 39.05 65.7 39.05 63.1 L39.3 62.15 39.05 62.15 Q36.65 62.15 34.15 60.9 31.75 59.7 31.75 58.7 31.75 57.75 32.95 57.75 33.95 57.75 37.35 59.25 L39.95 59.9 42.65 60.5 42.3 60.75 Q40.25 60.75 36.9 59.55 L32.95 58.3 Q32.25 58.3 32.25 58.7 M62.25 60.1 L60.85 61.2 60.75 61.1 60.7 61.4 60.1 63.25 60.7 62.65 Q62.2 61.4 64.45 61.4 65.95 61.4 66.1 61.7 L66.2 62.3 66.25 62.35 Q67.1 61.5 67.1 61.05 L66.9 60.65 Q66.35 59.35 64.55 59.35 63.4 59.35 62.25 60.1 M68.9 60.5 L68.95 61.0 Q68.95 61.6 68.25 62.75 67.3 64.2 66.05 64.2 L65.75 64.2 65.25 64.55 Q64.4 65.1 64.4 65.75 64.4 66.0 66.0 66.45 L67.0 65.8 66.75 65.25 Q66.75 65.0 67.0 65.0 L67.5 65.45 67.55 65.4 67.85 65.65 67.75 65.75 67.9 65.9 Q68.95 66.75 69.95 66.75 70.9 66.75 71.1 65.65 L71.05 64.8 70.8 64.0 Q71.55 63.05 71.55 62.15 L71.1 61.15 Q70.5 60.35 69.7 60.35 L68.9 60.5 M44.25 57.3 Q43.85 57.85 43.85 59.1 43.85 61.25 45.45 61.25 L45.8 61.15 46.0 61.55 46.8 61.75 Q49.35 61.75 49.35 59.15 49.1 55.85 46.05 55.85 45.6 55.85 44.9 56.5 L44.25 57.3 M45.4 58.65 Q45.9 58.65 45.9 59.2 L45.25 59.65 Q44.6 59.65 44.6 59.35 44.6 58.65 45.4 58.65 M50.35 56.95 Q50.9 56.95 50.9 57.75 L50.6 58.1 Q49.9 58.1 49.9 57.55 49.9 56.95 50.35 56.95 M45.15 72.15 Q45.45 70.25 45.9 70.25 L46.15 70.5 45.45 74.2 Q45.45 76.4 47.55 76.4 L49.7 76.15 48.95 73.15 Q47.85 70.7 47.85 70.05 47.85 69.75 48.1 69.75 48.35 69.75 49.45 73.1 L50.15 76.0 Q51.2 75.6 51.8 74.8 52.9 74.8 52.9 76.05 L52.65 76.35 Q52.05 76.35 52.05 75.3 L50.65 76.25 50.05 76.5 49.95 76.55 47.55 76.9 Q44.95 76.9 44.95 74.2 L45.15 72.15 M52.45 73.4 Q55.0 73.55 55.0 77.1 L54.85 77.85 55.65 78.2 Q57.8 78.2 57.8 76.05 57.8 75.3 57.3 75.05 56.75 74.7 56.6 74.0 L56.3 71.75 56.2 71.7 55.25 72.05 55.2 72.0 55.25 72.7 55.25 73.0 55.6 73.15 55.9 73.45 55.6 73.75 54.5 73.15 Q54.5 72.9 54.75 72.9 L54.8 72.9 54.7 72.25 Q54.55 71.25 54.0 71.25 53.4 71.25 52.9 72.1 L52.5 73.2 52.45 73.4 M50.1 79.85 L50.15 79.6 49.75 79.7 50.0 79.8 50.1 79.85 M42.4 84.05 L42.4 84.25 42.55 84.15 42.4 84.05 M49.85 81.6 Q47.6 80.5 46.55 80.5 46.2 80.5 46.2 80.65 L46.4 81.05 46.7 81.0 Q47.8 81.0 48.15 81.7 L47.65 82.75 Q48.0 82.5 48.3 82.5 49.05 82.5 49.95 83.7 L50.0 83.7 49.8 81.85 49.85 81.6" fill="#000000" fill-rule="evenodd" stroke="none"/>
    </g>
  </defs>
</svg>
