<?xml version="1.0" encoding="UTF-8" standalone="no"?>
<svg xmlns:ffdec="https://www.free-decompiler.com/flash" xmlns:xlink="http://www.w3.org/1999/xlink" ffdec:objectType="frame" height="500.0px" width="500.0px" xmlns="http://www.w3.org/2000/svg">
  <g transform="matrix(5.0, 0.0, 0.0, 5.0, 0.0, 0.0)">
    <use ffdec:characterId="2" height="44.15" transform="matrix(1.0, 0.0, 0.0, 1.0, 0.0, 0.0)" width="40.8" xlink:href="#shape0"/>
  </g>
  <defs>
    <g id="shape0">
      <path d="M50.55 46.3 Q52.1 46.3 52.05 49.75 L51.75 52.05 52.25 52.85 53.2 54.2 Q54.0 55.9 54.0 57.0 54.0 61.05 51.2 61.05 50.35 61.05 50.35 60.6 L50.55 60.35 51.2 60.55 Q53.5 60.55 53.5 57.0 L52.75 54.45 Q52.25 53.0 51.65 52.5 L51.3 53.55 Q51.05 53.55 51.05 53.2 L51.25 52.25 50.9 52.15 Q50.05 52.15 49.45 52.85 L49.75 53.05 Q49.75 53.3 49.45 53.3 L49.15 53.2 48.9 53.6 Q48.4 54.6 48.4 55.3 48.4 55.9 48.7 56.55 L48.55 56.8 Q49.8 57.65 49.8 59.45 49.8 61.95 46.55 61.95 45.55 61.95 45.55 61.55 45.55 61.25 45.8 61.25 L46.55 61.45 Q49.3 61.45 49.3 59.45 49.3 58.35 48.15 57.4 47.1 56.55 46.2 56.55 42.8 56.55 42.8 58.65 42.8 60.35 44.15 60.85 45.45 61.4 45.45 61.55 L45.2 61.8 Q43.5 61.8 42.8 60.4 42.3 59.65 42.3 58.65 42.3 56.05 45.4 56.05 47.05 56.05 48.1 56.55 L47.95 56.05 47.9 55.3 Q47.9 54.5 48.45 53.35 L48.65 52.95 47.1 51.9 44.45 49.65 Q45.0 51.75 45.0 53.35 L45.45 52.8 Q45.7 52.8 45.75 53.05 45.75 54.05 43.6 54.05 L38.7 53.4 36.6 52.65 38.05 54.6 39.1 56.55 Q39.55 57.7 41.45 60.35 L41.45 60.5 42.4 60.65 Q42.4 60.9 41.75 60.9 L40.9 60.85 40.55 61.4 Q39.95 62.4 39.95 63.15 39.95 64.95 41.65 66.75 43.8 69.05 47.55 69.05 49.5 69.05 54.55 66.95 57.55 65.45 58.55 64.0 59.1 63.15 59.75 60.55 L60.3 57.55 Q59.5 61.25 53.55 61.25 52.8 61.25 52.8 61.0 L56.35 60.4 Q59.9 59.6 59.9 56.3 L59.85 55.2 Q59.3 54.45 59.3 54.15 L59.3 54.1 59.0 53.85 Q58.05 53.15 58.05 52.75 L58.65 52.15 Q60.15 52.15 60.8 54.4 60.8 54.85 60.6 54.9 L60.85 56.4 Q60.85 57.85 60.3 60.6 59.95 62.95 58.85 64.45 57.3 66.45 53.35 68.05 L51.65 68.7 52.7 71.65 53.1 72.8 Q53.35 72.1 54.05 72.1 54.85 72.1 55.15 72.9 L56.0 72.8 Q58.1 72.8 58.3 76.55 58.3 79.4 56.2 79.4 L55.2 78.95 54.75 79.4 54.8 79.6 Q54.8 80.85 53.6 82.3 L52.7 83.2 54.55 84.35 54.65 84.3 55.0 84.5 Q55.05 84.0 55.5 84.0 L61.25 88.5 61.25 88.55 61.65 88.9 Q61.65 89.75 61.3 89.95 L57.7 90.4 Q55.45 90.4 55.15 89.95 L54.35 89.9 54.35 90.2 54.05 90.45 53.65 88.1 Q53.65 87.3 54.2 87.3 L55.65 87.35 51.55 84.15 51.6 84.05 51.5 83.8 51.25 83.8 50.85 83.95 50.6 84.25 Q49.05 83.0 48.75 83.0 L47.1 84.4 Q46.85 84.4 46.7 84.0 L46.35 84.05 45.65 84.8 Q44.15 86.1 43.65 86.1 43.1 84.3 41.3 82.4 L39.35 80.5 37.4 78.6 41.7 76.1 42.5 78.6 44.4 80.95 44.05 79.7 Q44.05 78.7 45.15 78.4 42.75 76.75 42.75 72.9 42.75 71.85 42.9 70.9 43.15 69.0 43.75 69.0 L44.05 69.25 43.4 71.05 43.25 72.9 Q43.25 74.95 44.25 76.35 45.15 77.6 46.45 78.3 L48.55 79.05 50.1 79.15 Q52.6 79.15 53.65 78.4 L54.55 77.55 54.8 77.85 54.35 78.55 54.6 78.85 54.85 77.9 54.85 77.85 54.65 76.8 Q54.2 75.6 53.3 75.6 52.55 75.6 52.55 76.05 52.5 76.45 52.25 76.45 52.0 76.45 52.0 76.05 52.0 75.15 53.0 75.05 L52.95 74.65 52.95 73.75 52.95 73.55 52.9 73.35 52.3 71.95 Q51.25 69.6 51.25 69.05 L51.3 68.85 48.7 69.5 Q49.2 70.3 50.1 73.0 L51.25 76.6 51.0 76.9 Q50.7 76.9 49.65 73.25 L48.1 69.55 47.5 69.55 Q43.55 69.55 41.25 67.05 39.45 65.15 39.45 63.2 39.45 62.15 39.85 61.45 L40.4 60.75 37.45 60.05 Q34.95 59.3 33.25 59.3 32.2 59.3 32.0 59.6 L32.0 59.9 Q32.0 62.05 38.45 62.05 L39.25 61.95 39.55 62.2 Q39.55 62.55 38.45 62.55 31.5 62.55 31.5 59.9 31.5 58.8 32.9 58.8 35.55 58.8 37.75 59.6 L40.65 60.35 40.7 60.3 Q39.95 59.4 38.45 56.3 L35.65 52.05 Q35.65 51.8 35.9 51.8 36.4 51.8 38.85 52.8 L43.6 53.55 44.65 53.45 44.25 50.85 43.05 48.25 Q43.05 48.0 43.3 48.0 L44.8 49.3 46.3 50.6 48.95 52.5 49.0 52.45 48.75 52.15 Q48.75 51.6 49.2 50.7 L49.2 49.15 Q49.1 46.3 50.55 46.3 M49.6 48.0 L49.7 49.7 49.45 52.0 Q49.95 51.65 50.55 51.65 L51.35 51.8 51.55 49.75 Q51.55 46.8 50.75 46.8 49.7 46.8 49.6 48.0 M64.65 61.05 Q64.65 60.8 64.9 60.8 L66.0 61.4 66.6 61.25 66.75 61.3 Q67.85 60.9 67.9 59.2 L67.9 59.0 Q67.9 58.25 67.55 58.25 L67.05 58.4 67.25 58.85 Q67.5 58.85 67.45 59.2 L67.1 60.15 66.55 60.9 Q66.55 60.55 65.25 60.55 63.15 60.55 61.75 61.4 L60.3 63.0 Q60.05 63.0 60.05 62.55 60.05 61.7 61.6 60.9 63.25 60.0 65.3 60.0 L66.45 60.25 66.95 59.2 Q66.2 58.45 65.85 58.45 62.3 58.45 61.35 59.4 61.05 60.3 60.7 60.3 L60.45 60.0 Q60.45 57.95 65.15 57.95 L66.3 58.05 Q66.45 57.75 67.3 57.75 68.55 57.75 68.45 58.9 L68.75 58.7 69.9 58.3 Q71.05 58.3 72.3 60.65 L71.7 62.3 70.95 63.45 71.55 64.9 Q71.55 65.9 69.75 65.9 68.3 65.9 67.25 65.25 66.6 64.85 66.45 64.45 L65.35 64.7 Q64.35 64.7 64.35 63.8 64.35 63.25 64.9 62.4 L65.55 61.65 64.65 61.05 M68.4 59.4 Q68.2 61.7 66.4 61.9 L65.85 62.25 Q64.85 62.95 64.85 63.8 64.85 64.2 65.35 64.2 L67.1 63.55 67.0 63.4 Q67.0 63.15 67.25 63.15 L67.8 63.65 68.25 64.05 Q68.25 64.3 67.95 64.3 L67.6 64.1 67.5 64.1 67.3 64.0 66.95 64.2 67.4 64.7 Q68.25 65.4 69.7 65.4 71.05 65.4 71.05 64.8 L70.45 63.45 Q70.45 62.15 71.3 62.05 L71.8 60.65 Q70.5 58.8 70.0 58.8 L68.4 59.4 M58.6 52.7 L60.25 54.2 Q60.05 53.1 58.6 52.7 M44.55 59.15 Q44.55 58.5 45.05 58.5 45.3 58.5 45.3 58.85 45.3 59.45 44.85 59.45 L44.55 59.15 M50.1 58.15 L49.7 57.85 Q49.7 57.1 50.25 57.1 50.7 57.1 50.6 57.55 50.6 58.15 50.1 58.15 M46.05 70.4 L45.4 73.35 Q45.4 74.4 45.95 75.55 L46.6 76.5 47.0 77.0 49.05 77.4 51.95 76.9 53.1 76.1 53.2 76.1 53.15 76.1 52.95 75.95 Q52.95 75.7 53.2 75.7 54.2 75.7 54.55 76.95 L54.3 77.3 53.85 76.6 53.3 76.2 53.35 76.4 Q53.35 76.85 52.2 77.35 50.85 77.9 49.05 77.9 L46.9 77.6 Q46.25 77.25 45.45 75.7 44.9 74.6 44.9 73.4 44.9 70.15 45.8 70.15 L46.05 70.4 M53.45 73.65 L53.85 74.6 53.6 74.85 53.7 75.15 Q54.35 75.35 54.85 76.2 55.35 77.1 55.35 77.9 L55.3 78.6 56.2 78.9 Q57.8 78.9 57.8 76.6 57.8 75.8 57.4 74.7 56.9 73.3 56.25 73.3 L55.3 73.6 55.3 74.0 55.3 74.15 55.9 74.05 56.15 74.3 Q56.15 74.65 55.1 74.65 L54.15 74.25 Q54.15 74.0 54.4 74.0 L54.85 74.1 54.65 73.5 Q54.45 72.65 54.0 72.65 53.55 72.65 53.45 73.2 L53.45 73.65 M49.35 79.65 L50.55 80.85 50.7 79.65 50.05 79.65 49.35 79.65 M50.45 83.0 L47.55 80.7 Q45.95 80.7 45.9 81.3 L45.9 81.55 46.95 83.35 47.15 83.65 Q47.85 82.45 48.75 82.45 49.7 82.45 50.4 83.5 L50.45 83.45 50.45 83.0" fill="#000000" fill-rule="evenodd" stroke="none"/>
    </g>
  </defs>
</svg>
