<?xml version="1.0" encoding="UTF-8" standalone="no"?>
<svg xmlns:ffdec="https://www.free-decompiler.com/flash" xmlns:xlink="http://www.w3.org/1999/xlink" ffdec:objectType="frame" height="1250.0px" width="1250.0px" xmlns="http://www.w3.org/2000/svg">
  <g transform="matrix(5.0, 0.0, 0.0, 5.0, 0.0, 0.0)">
    <use ffdec:characterId="1" height="227.25" transform="matrix(1.0, 0.0, 0.0, 1.0, 0.0, 0.0)" width="224.6" xlink:href="#shape0"/>
    <use ffdec:characterId="2" height="175.4" transform="matrix(1.0, 0.0, 0.0, 1.0, 0.0, 0.0)" width="188.9" xlink:href="#shape1"/>
  </g>
  <defs>
    <g id="shape0">
      <path d="M233.8 18.9 Q234.7 24.8 234.9 38.45 L235.55 77.3 235.55 187.25 Q235.8 188.55 236.45 199.95 L237.05 214.9 Q238.15 238.55 233.9 238.55 233.25 238.55 232.75 237.9 L231.15 238.05 Q229.25 238.05 228.4 237.3 L110.25 237.3 18.15 237.5 Q17.45 239.05 16.5 239.05 12.8 239.05 12.7 216.9 L13.3 182.5 13.3 68.8 Q12.65 46.55 12.7 34.6 12.75 22.4 13.95 17.05 12.8 16.0 12.8 14.85 12.8 13.5 14.05 12.5 14.55 12.0 15.25 12.0 L60.75 11.8 Q107.05 12.25 108.25 12.55 L113.75 13.0 Q232.0 13.25 232.65 13.5 235.05 14.3 235.05 16.5 235.05 17.65 233.8 18.9 M228.3 30.5 Q228.55 23.1 229.35 19.1 L173.4 19.55 131.55 19.75 Q130.75 19.3 130.0 19.3 L127.2 19.3 Q125.4 18.3 120.5 18.3 L114.2 18.75 111.6 19.25 109.75 19.25 107.75 19.0 Q96.75 16.5 82.85 17.8 L73.2 19.1 35.25 18.8 34.8 18.8 28.25 18.3 Q24.0 18.3 22.55 19.0 21.5 19.5 21.35 20.85 L19.45 20.1 Q20.1 25.45 20.15 34.8 20.2 46.9 19.55 69.5 L19.55 183.05 20.15 217.05 Q20.1 226.35 19.45 231.75 L114.0 231.0 171.9 230.8 Q226.7 231.0 230.95 231.25 230.45 226.65 230.5 219.3 230.6 194.45 229.3 188.3 L229.3 78.5 Q228.3 57.5 228.3 46.9 228.0 38.6 228.3 30.5" fill="#000000" fill-rule="evenodd" stroke="none"/>
      <path d="M228.3 30.5 Q228.0 38.6 228.3 46.9 228.3 57.5 229.3 78.5 L229.3 188.3 Q230.6 194.45 230.5 219.3 230.45 226.65 230.95 231.25 226.7 231.0 171.9 230.8 L114.0 231.0 19.45 231.75 Q20.1 226.35 20.15 217.05 L19.55 183.05 19.55 69.5 Q20.2 46.9 20.15 34.8 20.1 25.45 19.45 20.1 L21.35 20.85 Q21.5 19.5 22.55 19.0 24.0 18.3 28.25 18.3 L34.8 18.8 35.25 18.8 73.2 19.1 82.85 17.8 Q96.75 16.5 107.75 19.0 L109.75 19.25 111.6 19.25 114.2 18.75 120.5 18.3 Q125.4 18.3 127.2 19.3 L130.0 19.3 Q130.75 19.3 131.55 19.75 L173.4 19.55 229.35 19.1 Q228.55 23.1 228.3 30.5" fill="#ffffff" fill-rule="evenodd" stroke="none"/>
    </g>
    <g id="shape1">
      <path d="M206.15 136.2 L203.5 139.1 200.35 141.9 196.75 144.75 195.0 146.25 Q192.35 148.4 183.6 148.05 L165.25 147.15 153.8 147.65 Q153.9 147.3 153.6 146.65 L153.5 146.25 153.15 145.5 152.25 144.0 Q151.2 142.35 149.75 140.85 L146.9 137.3 145.0 134.45 Q145.0 133.5 146.0 133.5 L146.35 133.95 Q146.65 133.8 147.1 133.75 150.25 133.3 162.5 133.35 L181.75 133.25 201.85 132.3 Q201.6 132.9 201.75 133.75 L201.9 134.25 Q201.9 134.85 201.55 135.05 L205.9 135.35 206.15 136.2 M183.4 120.05 Q182.6 128.4 175.85 128.4 171.55 128.4 169.85 125.15 L169.0 121.9 Q169.0 119.65 170.6 115.75 172.9 110.25 176.5 110.25 180.7 110.25 182.5 115.1 183.35 117.55 183.4 120.05 M188.0 112.4 Q188.6 109.75 191.75 109.75 195.65 109.75 197.65 115.15 198.7 117.9 198.9 120.65 198.9 122.5 198.0 124.2 196.4 127.15 192.85 127.15 190.95 127.15 189.15 125.7 187.75 124.55 187.75 124.2 187.75 123.45 188.75 123.25 188.0 121.35 188.0 115.65 L188.0 112.4 M189.7 113.55 L189.9 115.8 190.0 120.45 Q190.3 122.35 191.6 124.65 191.75 125.25 192.15 125.25 197.3 125.25 197.0 120.6 197.0 111.75 190.0 111.75 189.6 111.75 189.7 113.55 M170.9 121.9 Q170.9 122.55 172.0 124.3 173.45 126.5 175.15 126.5 179.05 126.5 180.65 123.3 181.5 121.7 181.5 120.05 181.3 112.25 175.4 112.25 173.45 112.25 171.95 117.05 171.25 119.45 170.9 121.9 M163.4 119.0 Q163.4 121.3 162.0 123.75 159.75 127.65 155.1 127.65 152.4 127.65 151.4 123.9 L151.0 120.05 Q151.0 118.3 152.35 115.5 154.4 111.25 158.1 111.25 161.65 111.25 162.85 115.1 163.5 117.0 163.4 119.0 M197.55 135.2 Q155.95 135.3 147.15 135.0 L155.1 145.25 187.35 145.15 Q193.05 145.05 194.4 144.35 L195.5 143.25 Q196.2 142.15 198.0 141.15 200.3 139.95 202.85 137.0 197.5 136.8 197.5 135.45 L197.55 135.2 M89.3 67.0 L88.6 65.95 Q87.3 63.75 86.9 63.75 L84.5 64.65 Q82.75 63.75 81.85 63.75 80.9 63.75 80.4 65.25 L80.15 66.85 Q80.15 68.3 84.8 68.6 89.4 68.95 89.4 69.75 89.4 70.65 86.6 70.65 82.7 70.65 80.65 69.85 L80.65 70.15 Q80.65 71.0 78.85 71.0 78.6 71.0 77.75 71.5 L77.65 71.8 Q77.65 72.1 78.5 72.6 79.5 73.15 80.8 73.15 83.8 73.15 83.5 72.5 84.3 72.5 84.4 73.5 L84.3 74.05 85.25 73.9 86.35 73.75 Q87.35 73.75 88.25 74.2 88.4 73.7 89.65 72.95 91.0 72.1 91.0 71.4 L89.25 67.3 89.3 67.0 M92.9 71.4 Q92.9 74.95 89.65 75.15 91.5 76.8 93.15 80.45 93.3 81.9 92.25 81.9 L90.1 78.85 89.6 78.15 89.5 78.15 88.85 78.35 89.15 83.1 89.4 89.45 Q89.75 102.15 88.5 102.15 L87.6 101.85 87.25 86.95 87.35 81.8 87.65 78.8 Q86.9 79.05 86.8 79.2 L86.0 79.15 85.25 78.9 Q85.6 82.05 85.4 89.65 85.75 99.4 85.0 102.1 L86.0 102.0 Q91.55 102.0 91.15 108.45 L90.4 110.9 93.15 110.9 Q98.55 110.9 102.8 105.7 L105.75 101.9 105.75 101.85 Q105.75 99.5 106.0 97.9 106.55 94.5 108.1 94.5 109.9 94.5 109.4 96.65 L108.75 101.2 Q108.2 104.0 107.5 104.85 L107.4 105.9 Q107.4 107.15 105.85 110.95 103.85 115.95 100.75 120.2 93.45 130.3 83.05 132.5 L83.15 133.0 81.6 138.15 Q80.0 143.2 79.9 145.85 79.8 148.75 79.05 152.85 78.1 157.9 77.1 157.9 76.45 157.9 74.75 156.35 L72.4 154.6 Q71.8 156.15 71.0 156.15 70.0 156.15 70.0 155.3 70.0 154.85 70.9 153.4 71.8 152.0 72.0 152.0 72.75 152.0 76.4 154.85 77.65 152.75 77.95 149.35 L78.25 143.4 Q78.5 139.75 79.45 136.35 80.15 133.95 80.95 132.9 L77.9 133.15 77.9 133.25 Q72.7 152.25 63.4 153.8 L48.9 169.25 52.25 169.15 60.1 168.7 Q60.65 169.1 60.4 170.55 60.4 175.05 59.65 176.75 L104.5 176.5 Q110.7 176.5 110.9 177.15 L110.6 178.8 Q110.25 180.5 110.4 182.25 L110.4 188.05 Q110.4 189.8 111.15 200.1 L111.3 206.0 Q111.35 209.6 111.85 211.9 112.35 214.35 113.15 223.3 113.9 232.15 113.9 235.4 113.9 237.15 113.0 237.15 111.4 237.15 109.85 215.0 108.3 193.1 108.75 178.5 99.0 178.5 98.25 178.65 L40.0 178.65 39.9 178.6 Q20.6 193.4 18.25 193.4 L17.35 193.1 Q17.25 193.15 17.25 192.55 L27.9 185.15 27.75 185.15 Q26.75 185.15 26.75 184.3 26.75 182.5 28.4 176.4 30.4 169.0 32.35 169.0 33.4 169.0 33.4 170.0 L31.95 173.15 Q30.4 175.9 30.15 177.75 29.55 183.35 28.5 184.75 L39.05 177.4 39.15 177.15 Q34.75 176.5 34.75 176.05 34.75 175.5 40.1 172.65 45.1 170.0 45.75 169.9 48.4 166.9 61.35 153.9 57.9 153.8 56.4 152.0 L56.05 151.3 42.0 160.75 34.9 166.75 Q29.65 170.9 28.0 170.9 27.0 170.9 27.0 170.05 27.0 169.35 40.5 159.5 53.35 150.1 55.55 149.55 L55.6 149.1 56.5 148.75 Q57.0 148.75 57.65 150.35 58.25 151.9 61.7 151.9 66.0 151.9 69.05 148.5 L67.1 148.65 64.0 148.15 Q62.8 147.85 62.25 147.4 61.85 149.15 60.85 149.15 60.15 149.15 58.4 147.45 56.65 145.75 55.35 145.75 53.6 145.75 51.0 148.35 48.4 150.9 47.5 150.9 46.5 150.9 46.5 150.05 L47.75 148.25 Q49.1 146.65 49.35 145.6 41.7 150.4 40.0 150.4 38.75 150.4 38.75 149.55 38.75 148.45 45.4 144.4 L52.65 140.0 60.25 130.75 Q61.15 130.75 61.15 131.75 61.15 133.15 56.7 137.95 52.7 142.25 50.9 143.5 51.4 144.2 51.4 145.35 54.35 143.75 55.5 143.75 57.55 143.75 60.25 146.6 60.25 144.2 63.55 139.5 66.75 135.0 68.0 135.0 L68.75 135.35 68.9 136.0 66.45 138.5 Q63.75 141.0 62.9 142.85 L62.5 145.55 62.85 145.5 Q63.65 145.5 65.25 146.75 69.2 146.95 69.8 147.55 71.4 145.35 72.6 142.1 L74.75 135.3 Q75.25 133.9 75.8 133.15 67.95 132.8 64.4 127.95 L63.45 126.4 Q60.7 126.2 59.05 120.1 L58.15 119.6 59.3 122.15 62.9 129.15 Q62.9 130.15 62.0 130.15 60.3 130.15 57.1 122.95 55.65 119.7 54.8 116.95 53.3 115.5 51.75 113.45 46.75 107.0 46.75 104.5 46.75 102.0 50.0 102.0 51.65 102.0 53.65 103.05 L53.55 96.05 53.0 96.15 Q51.15 96.15 50.5 93.6 L50.25 91.05 Q50.25 86.75 56.35 86.75 58.2 86.75 59.35 88.0 L59.75 88.1 59.75 84.2 Q58.55 85.15 56.85 85.15 L55.6 85.1 55.65 85.5 Q55.65 86.9 52.85 86.9 50.3 86.9 49.65 84.5 L49.5 82.05 Q49.45 81.3 49.55 80.6 49.7 79.4 50.35 79.3 L56.85 70.25 Q61.15 70.25 62.4 78.3 62.4 79.9 61.55 81.8 61.95 82.9 61.65 85.15 62.2 89.4 60.5 90.05 L60.8 91.1 62.1 92.0 Q66.25 94.9 67.25 95.25 67.75 93.8 67.75 92.05 67.75 90.1 66.65 88.05 L65.5 85.8 Q65.5 84.75 66.6 84.75 68.15 84.75 69.85 87.95 L72.0 92.75 Q74.9 99.1 74.9 100.65 74.9 101.9 74.0 101.9 73.25 101.9 71.85 98.05 L69.65 92.25 Q69.65 97.65 67.6 97.65 62.9 95.0 61.15 94.2 L61.05 95.3 64.75 102.9 Q68.65 111.35 68.65 113.75 68.65 114.65 67.75 114.65 L59.85 97.05 59.55 97.15 59.2 107.35 61.9 110.25 Q64.75 113.4 70.9 117.75 70.9 118.65 70.0 118.65 67.35 118.65 60.55 111.35 L59.35 110.05 Q59.7 113.55 60.65 116.85 L61.05 118.1 62.9 119.25 62.95 119.0 Q63.8 116.25 64.75 116.25 65.55 116.25 65.65 117.25 L64.9 119.05 Q64.15 120.8 64.15 121.9 64.15 123.85 66.15 126.95 69.0 131.25 73.5 131.25 L84.8 130.35 Q89.55 129.1 93.85 125.0 98.25 120.8 99.75 117.9 103.2 112.9 104.1 110.6 L105.0 106.85 105.35 105.7 103.45 107.75 Q98.45 112.9 93.35 112.9 L89.45 112.6 Q87.5 115.4 83.85 115.4 L81.65 115.1 Q80.15 118.65 74.75 118.65 71.15 118.65 69.6 116.1 L68.75 113.5 Q68.75 111.8 70.25 109.75 72.6 106.5 77.25 106.5 L79.9 106.9 Q80.3 106.05 81.1 104.95 82.15 103.55 83.35 102.8 L83.25 102.1 83.5 89.35 83.85 81.45 83.1 81.65 Q81.55 81.65 81.25 79.95 L81.25 78.15 Q81.25 76.35 81.55 75.8 L82.05 75.1 80.85 75.15 Q77.8 75.15 76.5 73.5 L75.75 71.85 Q75.75 69.0 79.0 69.0 L79.15 69.0 Q78.25 68.2 78.25 67.0 78.25 65.65 78.85 64.15 79.9 61.75 82.0 61.75 83.15 61.75 84.35 62.6 84.75 62.6 86.75 61.75 88.5 61.75 91.65 67.05 L91.65 67.3 Q92.4 68.55 92.9 71.4 M86.3 75.75 Q83.8 75.75 83.25 76.95 82.95 77.55 83.15 78.2 L83.95 80.15 Q84.2 76.75 84.5 76.75 84.85 76.75 85.05 77.65 85.35 76.4 87.7 76.3 86.95 75.75 86.3 75.75 M59.4 75.2 Q58.25 72.9 57.25 72.25 L54.3 77.45 Q52.75 80.45 51.4 81.0 L51.4 81.25 Q51.65 80.75 52.25 80.75 52.6 80.75 53.6 82.0 54.55 83.25 55.5 83.25 57.3 83.25 58.5 82.6 58.0 82.4 58.0 81.8 58.0 80.5 59.85 80.5 L60.15 80.55 60.5 78.3 Q60.5 77.35 59.4 75.2 M52.5 85.0 L54.05 84.7 Q53.2 84.35 52.5 83.75 L51.4 82.55 Q51.4 85.0 52.5 85.0 M56.2 88.75 Q53.0 88.75 52.25 90.0 51.9 90.6 52.15 91.2 52.15 92.4 53.05 93.7 L53.55 94.45 53.5 92.25 53.5 92.2 53.5 92.05 53.5 91.4 Q53.5 90.5 54.6 90.5 L54.75 90.55 Q55.6 90.0 56.75 90.0 56.8 89.4 57.45 89.3 56.9 88.75 56.2 88.75 M55.5 92.3 L55.85 98.05 55.8 104.45 57.25 105.6 57.15 92.0 Q56.05 91.85 55.5 92.3 M71.65 110.95 Q71.0 112.2 70.65 113.5 70.65 114.0 71.6 115.3 72.7 116.75 73.75 116.75 81.35 116.75 80.25 111.95 80.75 110.75 80.3 110.0 79.4 108.5 74.5 108.5 72.95 108.5 71.65 110.95 M75.5 110.65 Q75.5 109.75 76.5 109.75 78.75 109.75 78.65 111.0 78.65 111.9 77.35 111.9 76.05 111.9 75.65 111.3 L75.5 110.65 M62.35 121.35 L62.45 120.9 62.35 120.9 62.15 120.9 62.35 121.35 M53.7 105.3 Q51.55 104.0 49.9 104.0 48.65 104.0 48.65 104.65 48.65 106.4 53.5 112.65 L53.95 113.15 53.75 110.75 53.7 105.3 M55.75 106.75 L55.65 110.0 Q55.65 112.2 56.5 115.15 L58.2 116.25 Q57.65 113.1 57.25 109.0 L57.25 108.05 55.75 106.75 M46.1 171.65 L45.35 171.5 39.25 175.35 47.9 176.5 57.5 176.25 57.75 175.85 57.85 175.1 58.25 173.6 58.5 171.0 47.05 171.0 46.1 171.65 M152.9 120.1 Q152.9 122.8 154.0 124.75 L155.0 124.25 Q155.55 124.25 155.8 124.6 L157.45 124.9 Q161.15 124.9 161.5 119.0 162.05 113.25 156.65 113.25 154.95 113.25 153.75 116.65 153.15 118.35 152.9 120.1 M82.1 109.2 Q82.55 110.6 82.15 112.0 L81.9 114.25 Q83.55 113.5 85.25 112.7 89.25 110.8 89.25 108.4 89.05 104.0 87.15 104.0 83.3 104.0 82.15 106.6 81.85 107.15 81.6 108.2 L82.1 109.2 M86.75 108.65 Q85.75 108.65 85.75 107.8 85.75 106.75 86.75 106.75 87.65 106.75 87.65 107.75 87.65 108.65 86.75 108.65" fill="#000000" fill-rule="evenodd" stroke="none"/>
    </g>
  </defs>
</svg>
