<?xml version="1.0" encoding="UTF-8" standalone="no"?>
<svg xmlns:ffdec="https://www.free-decompiler.com/flash" xmlns:xlink="http://www.w3.org/1999/xlink" ffdec:objectType="frame" height="1250.0px" width="1250.0px" xmlns="http://www.w3.org/2000/svg">
  <g transform="matrix(5.0, 0.0, 0.0, 5.0, 0.0, 0.0)">
    <use ffdec:characterId="1" height="227.25" transform="matrix(1.0, 0.0, 0.0, 1.0, 0.0, 0.0)" width="224.6" xlink:href="#shape0"/>
    <use ffdec:characterId="3" height="225.4" transform="matrix(1.0, 0.0, 0.0, 1.0, 0.0, 0.0)" width="219.65" xlink:href="#shape1"/>
  </g>
  <defs>
    <g id="shape0">
      <path d="M228.3 30.5 Q228.55 23.1 229.35 19.1 L173.4 19.55 131.55 19.75 Q130.75 19.3 130.0 19.3 L127.2 19.3 Q125.4 18.3 120.5 18.3 L114.2 18.75 111.6 19.25 109.75 19.25 107.75 19.0 Q96.75 16.5 82.85 17.8 L73.2 19.1 35.25 18.8 34.8 18.8 28.25 18.3 Q24.0 18.3 22.55 19.0 21.5 19.5 21.35 20.85 L19.45 20.1 Q20.1 25.45 20.15 34.8 20.2 46.9 19.55 69.5 L19.55 183.05 20.15 217.05 Q20.1 226.35 19.45 231.75 L114.0 231.0 171.9 230.8 Q226.7 231.0 230.95 231.25 230.45 226.65 230.5 219.3 230.6 194.45 229.3 188.3 L229.3 78.5 Q228.3 57.5 228.3 46.9 228.0 38.6 228.3 30.5 M233.8 18.9 Q234.7 24.8 234.9 38.45 L235.55 77.3 235.55 187.25 Q235.8 188.55 236.45 199.95 L237.05 214.9 Q238.15 238.55 233.9 238.55 233.25 238.55 232.75 237.9 L231.15 238.05 Q229.25 238.05 228.4 237.3 L110.25 237.3 18.15 237.5 Q17.45 239.05 16.5 239.05 12.8 239.05 12.7 216.9 L13.3 182.5 13.3 68.8 Q12.65 46.55 12.7 34.6 12.75 22.4 13.95 17.05 12.8 16.0 12.8 14.85 12.8 13.5 14.05 12.5 14.55 12.0 15.25 12.0 L60.75 11.8 Q107.05 12.25 108.25 12.55 L113.75 13.0 Q232.0 13.25 232.65 13.5 235.05 14.3 235.05 16.5 235.05 17.65 233.8 18.9" fill="#000000" fill-rule="evenodd" stroke="none"/>
      <path d="M228.3 30.5 Q228.0 38.6 228.3 46.9 228.3 57.5 229.3 78.5 L229.3 188.3 Q230.6 194.45 230.5 219.3 230.45 226.65 230.95 231.25 226.7 231.0 171.9 230.8 L114.0 231.0 19.45 231.75 Q20.1 226.35 20.15 217.05 L19.55 183.05 19.55 69.5 Q20.2 46.9 20.15 34.8 20.1 25.45 19.45 20.1 L21.35 20.85 Q21.5 19.5 22.55 19.0 24.0 18.3 28.25 18.3 L34.8 18.8 35.25 18.8 73.2 19.1 82.85 17.8 Q96.75 16.5 107.75 19.0 L109.75 19.25 111.6 19.25 114.2 18.75 120.5 18.3 Q125.4 18.3 127.2 19.3 L130.0 19.3 Q130.75 19.3 131.55 19.75 L173.4 19.55 229.35 19.1 Q228.55 23.1 228.3 30.5" fill="#ffffff" fill-rule="evenodd" stroke="none"/>
    </g>
    <g id="shape1">
      <path d="M223.35 47.4 L220.85 47.0 208.5 47.15 202.75 46.5 194.15 46.5 Q194.8 49.0 196.9 55.0 L222.55 54.8 224.6 55.0 224.65 55.6 224.9 56.25 Q224.9 57.15 221.25 57.15 L195.25 56.6 Q195.0 56.45 195.0 55.85 L194.75 54.35 193.5 51.35 192.65 48.45 192.0 45.65 Q192.0 44.85 192.35 44.75 L197.75 44.5 Q224.4 45.2 224.4 46.5 224.4 47.3 223.35 47.4 M172.8 43.95 L165.9 40.5 Q157.85 33.9 155.5 33.9 154.3 33.9 147.35 30.7 141.0 27.75 137.25 25.65 126.75 19.85 124.5 17.75 L124.5 17.85 Q127.45 25.1 127.8 36.2 L128.25 54.75 164.85 54.4 168.15 54.15 173.5 53.9 178.0 53.9 Q178.75 49.5 178.75 47.4 178.75 46.95 172.8 43.95 M173.1 41.8 Q180.65 45.85 180.65 47.15 180.65 49.3 179.9 53.35 179.95 54.0 180.9 55.3 180.55 56.3 173.75 55.9 L168.1 56.1 Q163.6 56.65 145.6 56.65 L126.75 56.35 126.5 56.0 126.5 55.4 126.25 54.1 126.25 51.5 126.0 46.25 125.75 35.9 125.75 30.8 121.5 30.9 Q103.4 30.9 97.5 30.35 91.6 29.75 69.9 29.75 61.0 29.75 53.75 30.95 46.45 32.15 38.75 32.15 19.0 31.9 19.0 29.55 19.0 28.5 20.75 28.5 27.2 30.15 38.6 30.15 47.3 30.15 53.9 28.95 60.5 27.75 69.75 27.75 L125.7 29.8 125.5 25.4 Q125.2 23.35 123.1 19.15 L121.0 15.2 Q121.0 14.0 122.1 14.0 123.1 14.0 133.5 21.5 143.95 27.1 149.05 28.9 L149.0 28.45 Q149.0 27.5 150.0 27.5 151.05 27.5 156.8 31.5 161.7 34.9 165.0 37.6 L173.1 41.8 M178.65 175.0 Q178.85 174.5 179.5 174.5 182.2 174.5 191.35 189.25 194.25 193.95 205.9 204.1 L223.5 221.0 Q235.65 232.65 235.65 233.4 L235.5 234.1 Q235.35 234.4 234.75 234.4 233.15 234.4 204.25 205.0 198.2 198.85 189.9 189.75 178.5 177.2 178.5 175.6 L178.65 175.0 M170.4 177.55 L159.35 182.4 Q139.05 190.35 135.5 191.25 125.8 193.65 109.15 200.0 L95.85 205.0 Q96.65 205.0 100.05 210.45 L105.25 219.0 114.65 233.05 Q114.65 234.15 113.75 234.15 112.05 234.15 94.95 206.2 L94.9 206.3 Q91.9 228.4 91.9 230.15 L92.4 233.7 Q92.4 234.9 91.5 234.9 90.8 234.9 90.35 233.05 L89.85 233.15 Q86.4 233.15 74.25 218.05 74.25 217.55 74.5 217.3 70.9 214.0 50.85 193.4 L53.4 201.0 55.75 208.8 Q57.6 210.4 62.1 216.65 L67.9 225.05 Q67.9 226.15 67.0 226.15 66.55 226.15 60.4 217.6 56.0 212.6 54.55 210.55 53.6 209.95 52.9 207.2 L51.75 202.1 Q49.25 195.35 49.25 193.75 49.25 192.5 50.25 192.5 L50.55 192.8 Q50.65 192.0 51.5 192.0 52.45 192.0 64.4 204.5 L76.15 217.0 76.15 217.15 Q77.8 217.75 79.85 220.3 L83.0 224.65 87.3 228.4 90.1 231.05 90.0 230.05 Q90.65 223.65 91.45 217.35 92.65 208.1 93.45 205.65 92.75 205.5 92.75 204.8 92.75 203.05 108.4 197.55 122.7 192.5 133.9 189.75 137.6 188.85 158.0 180.85 L167.55 176.45 Q175.4 172.75 176.35 172.75 177.4 172.75 177.4 173.75 177.4 174.25 170.4 177.55 M238.65 175.25 Q238.65 176.4 237.25 176.4 236.25 176.4 236.25 175.55 236.25 174.25 237.75 174.25 238.65 174.25 238.65 175.25 M83.35 39.75 Q87.65 39.75 86.9 46.4 L86.8 47.6 Q87.45 46.75 88.0 46.75 89.8 46.75 89.65 51.1 88.75 61.85 86.7 64.8 86.9 66.9 85.75 66.9 L84.85 66.6 84.8 65.9 84.6 65.9 84.9 69.35 85.75 69.0 Q86.05 69.0 88.25 82.75 L88.1 74.1 Q88.1 68.0 89.25 68.0 89.95 68.0 92.25 80.55 L94.4 93.15 Q94.4 94.15 93.5 94.15 92.15 94.15 90.25 79.75 L90.15 79.75 90.4 84.85 Q90.35 88.65 89.0 88.65 87.35 88.65 86.75 84.4 L86.65 84.4 86.85 96.9 86.8 99.9 88.3 101.15 Q90.4 96.5 96.0 96.5 97.8 96.5 99.05 97.4 L99.0 94.55 Q99.0 91.15 99.5 89.25 100.8 84.5 104.75 84.5 L105.5 84.6 Q105.5 81.3 106.4 68.75 L107.2 59.8 106.6 59.9 Q105.2 59.9 104.75 58.25 L104.5 56.55 Q104.5 55.15 105.5 53.35 L105.0 53.4 Q103.15 53.4 102.5 49.35 L102.25 45.25 102.25 43.0 Q102.6 41.25 104.25 41.25 L104.4 41.25 104.25 39.4 Q104.25 37.65 104.95 35.5 106.1 32.0 108.35 32.0 111.85 32.0 113.25 36.1 113.9 38.15 113.9 40.2 114.25 43.15 113.0 43.15 L112.1 42.85 Q112.3 39.75 112.0 37.75 111.4 34.0 108.65 34.0 107.15 34.0 106.5 36.6 106.2 37.9 106.15 39.25 106.15 40.0 106.65 42.35 107.6 43.65 107.4 46.65 107.4 48.65 106.5 48.65 L105.6 48.35 105.5 46.1 Q104.9 45.3 104.6 43.6 L104.15 43.25 104.15 47.4 Q104.6 51.3 106.05 52.4 107.8 49.75 110.75 49.75 115.8 49.75 115.15 54.2 115.15 56.15 114.25 56.15 L113.35 55.85 Q113.6 54.55 113.45 53.6 113.15 51.75 110.95 51.75 108.95 51.75 107.6 53.85 L108.0 53.5 Q109.15 52.75 110.6 52.75 113.35 52.75 113.15 54.95 113.15 60.55 111.6 70.4 113.55 71.3 113.4 78.75 L113.4 81.6 Q115.5 84.5 116.15 102.05 L116.45 108.85 Q116.5 116.05 115.15 121.85 L114.75 123.4 120.2 128.15 123.45 131.1 Q124.25 131.3 124.15 132.0 L124.0 132.65 123.9 133.4 Q123.9 137.35 122.9 147.65 L123.1 156.4 Q123.05 161.65 122.0 161.65 L121.1 161.35 121.0 152.0 Q120.9 146.9 121.1 141.85 121.4 134.8 122.2 132.7 L115.85 134.25 107.05 136.35 Q102.1 140.15 94.6 140.15 L94.05 140.15 94.0 140.15 Q94.35 141.1 94.35 143.2 L94.15 149.15 94.4 157.05 97.0 157.0 98.55 157.05 99.25 151.9 Q100.15 139.5 102.5 139.5 103.3 139.5 103.4 140.5 103.4 141.7 100.9 153.75 L100.35 157.25 Q101.65 157.45 101.65 158.0 101.65 158.65 101.15 158.75 L100.0 158.85 99.45 160.55 Q97.85 164.05 94.3 165.15 94.0 166.9 93.35 166.9 L91.75 165.8 88.85 177.35 95.8 176.25 96.25 173.5 Q98.15 162.25 99.0 162.25 99.9 162.25 99.9 163.25 L99.85 163.55 100.25 163.5 Q101.2 163.5 102.25 165.75 L103.75 168.75 103.25 155.8 Q103.25 151.5 104.25 151.5 L105.7 152.35 107.5 153.65 Q107.5 149.75 107.0 146.9 106.5 144.1 106.5 141.5 106.5 136.5 107.5 136.5 108.55 136.5 108.6 140.05 L108.5 146.0 Q108.55 147.35 109.9 155.6 109.9 156.9 109.0 156.9 L105.15 154.4 Q105.15 158.5 105.65 166.7 L105.65 167.2 108.6 160.85 Q112.75 152.0 113.25 152.0 114.05 152.0 114.15 153.05 106.25 170.9 105.5 170.9 L105.0 170.75 104.25 171.15 Q102.85 171.15 100.9 167.85 L99.6 165.2 97.8 175.95 116.0 173.4 118.75 173.25 120.5 173.3 Q120.7 173.0 121.25 173.0 122.45 173.0 127.65 179.5 L132.65 186.0 Q132.65 186.9 131.75 186.9 129.85 186.9 120.9 174.9 116.25 176.1 97.35 178.65 L97.3 178.85 97.75 178.75 109.15 185.25 107.9 185.95 Q106.5 187.05 105.65 189.65 L105.3 191.8 Q104.75 193.65 103.5 193.65 102.1 193.65 99.6 191.65 97.25 189.8 97.25 189.15 97.25 188.0 98.25 188.0 98.75 188.0 103.15 191.5 103.85 188.15 105.65 185.5 L100.55 182.75 Q97.75 181.2 97.05 180.3 95.9 186.15 95.5 186.15 L94.6 185.85 94.55 185.5 Q90.25 199.4 88.35 199.4 86.25 199.4 82.65 194.45 L79.5 189.45 Q79.5 188.95 82.35 184.65 84.6 181.3 85.9 180.35 L86.0 180.1 82.6 180.5 Q81.55 180.65 77.45 182.05 L77.4 183.45 Q77.1 186.9 76.0 186.9 L75.1 186.6 75.0 185.95 75.3 182.8 Q71.75 184.0 66.6 185.9 53.1 190.9 51.0 190.9 L50.1 190.6 50.0 190.05 Q50.0 189.7 62.45 184.9 70.8 181.7 75.6 180.2 L76.0 177.25 76.75 173.4 Q77.45 167.6 79.25 158.0 78.95 150.25 79.0 145.8 L67.15 151.3 Q50.0 159.4 48.75 159.4 47.5 159.4 47.5 158.55 L64.05 150.55 Q73.7 145.9 79.05 143.55 79.25 137.0 80.75 137.0 82.0 137.0 81.65 139.2 L81.55 142.4 84.75 141.1 90.15 139.2 Q86.95 137.7 84.75 133.85 L83.75 133.25 83.75 131.85 Q83.1 130.35 82.6 128.6 82.2 129.9 81.75 129.9 L80.85 129.6 80.75 128.2 81.0 121.15 80.95 120.9 80.6 120.9 Q79.6 120.9 78.2 117.5 77.0 114.6 76.5 112.0 L76.25 103.05 Q76.25 97.95 76.65 94.5 77.6 86.75 80.35 86.75 L81.25 86.95 81.15 76.8 81.45 70.35 81.0 70.4 Q79.8 70.4 79.5 68.5 L79.5 66.55 Q79.5 61.0 84.1 61.0 L85.35 61.15 Q87.2 55.4 87.75 52.25 L87.75 49.85 87.65 49.65 Q87.05 50.05 86.9 51.2 86.75 52.0 86.2 52.15 85.45 56.9 84.75 56.9 L83.85 56.6 83.75 55.35 Q85.0 48.15 85.0 46.35 85.0 43.05 84.0 41.75 L82.9 41.75 83.1 52.1 Q83.05 58.9 82.0 58.9 81.2 58.9 81.05 54.2 L81.0 49.5 Q80.8 46.7 81.0 44.35 81.4 39.75 83.35 39.75 M109.4 55.2 L108.15 70.65 107.95 79.95 Q107.7 84.7 106.95 85.65 108.3 87.45 108.65 92.0 109.0 95.7 108.65 99.45 108.85 105.25 108.6 109.35 109.3 106.95 109.5 104.6 L109.75 96.9 109.6 87.8 109.65 86.1 Q109.0 85.95 109.0 85.3 109.0 76.9 109.6 71.9 L111.25 54.9 111.15 54.75 Q110.2 54.75 109.4 55.2 M107.0 55.05 L106.4 56.5 Q106.4 57.5 107.35 58.6 L107.7 55.85 107.1 55.6 107.0 55.05 M83.95 63.0 Q81.95 63.0 81.5 64.75 81.25 65.65 81.4 66.6 L81.65 68.35 Q82.2 64.8 83.3 64.55 83.55 63.25 84.0 63.25 L84.35 64.05 84.65 63.15 83.95 63.0 M83.4 84.0 L83.4 89.65 83.75 90.5 83.75 86.15 83.4 84.0 M81.35 91.15 L80.15 88.85 Q78.6 93.3 78.3 96.4 78.15 97.7 78.15 103.1 78.15 108.55 79.9 114.4 L80.6 116.65 80.5 114.65 Q80.5 112.1 81.25 111.6 L81.5 98.2 Q79.0 95.9 79.0 95.45 79.0 94.5 80.1 94.5 L81.5 95.55 81.35 91.15 M100.3 98.65 Q101.15 99.9 101.6 101.95 102.2 104.65 101.9 107.45 L101.8 112.3 102.9 113.25 105.25 115.05 Q106.2 112.45 106.6 108.65 L106.75 99.45 Q107.55 86.5 104.5 86.5 101.45 86.5 101.05 92.7 100.75 97.65 100.3 98.65 M111.85 84.15 L111.6 84.1 Q111.85 86.75 111.65 92.3 112.3 113.15 108.6 113.15 L108.2 113.1 107.3 116.65 Q110.3 119.1 113.1 121.8 L113.4 120.5 Q114.7 114.9 114.6 108.1 L114.25 102.0 Q114.25 96.9 112.9 89.1 L111.9 84.15 111.85 84.15 M103.1 93.0 Q104.1 93.0 104.15 94.0 104.15 95.15 102.85 95.15 101.75 95.15 101.75 94.3 101.75 93.0 103.1 93.0 M36.75 147.0 L47.4 158.75 Q47.4 159.65 46.5 159.65 44.15 159.65 40.35 154.85 L35.1 147.9 Q24.5 137.05 24.5 136.3 24.5 135.25 25.5 135.25 26.25 135.25 36.75 147.0 M80.15 169.75 L79.1 173.0 79.05 173.2 79.1 173.25 Q80.85 171.75 81.75 171.75 83.05 171.75 83.7 172.3 L84.35 173.0 Q84.95 169.2 85.55 166.95 86.75 162.75 89.35 162.75 L89.4 162.75 Q89.6 162.5 90.0 162.5 90.65 162.5 90.85 163.2 L91.15 163.35 91.25 163.0 Q92.05 163.0 92.15 163.8 L92.5 163.8 92.4 158.45 92.35 158.4 Q92.25 158.65 92.25 158.05 92.25 157.65 92.4 157.45 L92.0 140.75 86.6 142.4 Q85.9 142.6 81.45 144.7 L79.45 168.75 Q80.05 168.85 80.15 169.75 M47.25 160.25 Q48.8 160.25 48.7 175.2 48.6 194.65 49.1 199.4 52.9 234.15 52.9 238.3 52.9 239.4 52.0 239.4 50.05 239.4 48.95 224.45 48.0 206.4 47.25 200.25 46.65 195.15 46.4 178.6 L46.25 161.4 Q46.25 160.25 47.25 160.25 M78.15 179.4 L79.75 179.0 86.7 177.7 90.45 165.65 Q89.25 165.55 89.0 164.9 88.3 165.7 87.0 170.7 85.5 176.65 84.75 176.65 84.05 176.65 83.45 175.2 82.9 173.75 82.4 173.75 80.3 173.75 79.0 177.2 L78.15 179.4 M104.1 119.65 Q101.7 119.65 101.0 117.9 100.75 117.3 100.75 115.95 L100.75 115.55 Q98.9 118.65 94.35 118.65 92.8 118.65 92.25 117.5 L92.0 116.3 Q92.0 115.25 93.0 115.25 94.1 115.25 94.1 116.75 98.25 116.75 99.55 113.0 L89.2 104.75 89.15 107.15 Q89.15 109.7 90.55 112.5 L91.9 115.5 Q91.9 116.4 91.0 116.4 89.0 116.4 87.95 111.75 L87.25 107.05 Q87.25 105.0 87.6 103.4 L86.6 102.6 Q86.4 104.25 86.05 104.75 L86.4 111.9 86.25 112.6 85.85 112.9 85.9 130.45 88.3 133.75 Q91.55 137.8 93.0 138.2 L100.25 135.65 106.3 133.85 Q110.2 130.4 112.3 124.35 L106.15 118.7 Q105.25 119.65 104.1 119.65 M102.8 115.65 Q102.9 117.25 103.75 117.75 L104.3 117.0 102.8 115.65 M100.0 107.4 Q101.0 98.5 95.85 98.5 91.4 98.5 89.8 102.4 L99.9 110.75 100.0 107.4 M94.25 100.55 Q94.25 99.5 95.6 99.5 96.95 99.5 96.9 100.5 96.9 101.4 95.6 101.4 94.25 101.4 94.25 100.55 M83.4 99.9 L83.45 117.55 83.3 122.3 83.75 125.45 83.75 105.8 83.6 100.75 83.5 99.95 83.4 99.9 M114.0 125.9 Q112.6 129.9 110.5 132.8 116.05 131.4 120.15 131.1 L114.0 125.9 M116.65 165.75 Q115.8 168.4 114.75 168.4 L113.85 168.1 Q113.75 168.15 113.75 167.55 113.75 167.2 114.5 166.0 115.3 164.75 115.75 164.75 116.55 164.75 116.65 165.75 M98.0 158.9 L97.0 158.9 94.4 158.85 94.5 163.25 Q96.75 162.15 97.95 158.95 L98.0 158.9 M94.55 184.65 L95.4 178.9 88.1 179.8 88.0 180.15 Q89.75 180.6 91.9 182.2 94.05 183.75 94.55 184.65 M87.55 181.6 L87.5 181.6 Q86.7 183.65 86.25 183.65 L85.85 183.6 81.5 189.1 Q81.5 190.15 84.25 193.45 86.95 196.65 87.9 197.0 92.75 187.35 92.75 185.25 92.75 184.75 90.35 183.45 87.95 182.15 87.55 181.6 M157.7 197.7 Q159.5 199.7 160.45 203.5 161.4 207.55 161.15 211.8 161.15 215.9 159.5 220.45 158.4 223.4 156.85 225.25 L157.0 225.25 159.3 225.45 162.0 219.7 Q165.25 212.8 165.25 205.8 166.35 197.5 160.0 197.5 L157.7 197.7 M155.95 196.35 Q158.3 195.5 160.1 195.5 165.55 195.5 166.9 200.7 167.6 203.3 167.15 205.95 167.15 210.4 165.0 218.2 162.5 227.4 159.75 227.4 L159.15 227.2 154.1 227.4 Q152.5 228.15 150.6 228.15 146.55 228.15 145.25 226.1 L144.75 223.9 Q144.75 222.25 145.75 222.25 146.55 222.25 146.65 222.85 L146.7 224.2 Q146.9 226.15 150.35 226.15 L152.0 226.0 153.4 225.45 Q156.4 223.95 158.0 219.05 158.75 216.8 159.05 214.15 L159.25 211.85 Q159.45 200.75 156.05 198.25 L154.25 198.9 Q153.25 198.9 153.25 198.05 153.25 197.8 153.6 197.5 147.45 197.6 145.65 205.25 144.8 209.15 145.15 213.25 145.15 214.4 145.9 220.9 145.9 221.9 144.85 221.9 143.55 221.9 143.25 217.6 L143.25 213.25 Q142.95 208.55 143.95 204.15 145.9 195.5 152.5 195.5 154.4 195.5 155.95 196.35 M94.95 205.35 L94.95 205.3 94.95 205.35 M75.9 230.25 Q75.9 231.05 74.85 231.15 L74.7 231.15 76.9 234.25 Q76.9 235.15 76.0 235.15 L69.5 228.45 Q69.5 227.6 70.3 227.5 L68.0 225.05 Q68.0 224.0 69.0 224.0 69.95 224.0 73.0 227.1 L75.9 230.25 M188.1 209.25 Q191.9 209.25 191.9 224.85 192.25 234.4 189.5 234.4 188.7 234.4 188.5 233.85 L188.5 233.25 190.0 224.8 189.5 217.4 Q189.4 214.65 188.2 212.5 L187.5 211.2 183.1 211.4 Q184.2 213.1 185.0 215.75 186.05 219.35 186.15 223.05 186.15 226.05 185.1 228.4 183.8 231.4 181.35 231.4 180.25 231.4 180.25 230.55 L182.25 227.85 Q184.25 225.25 184.25 223.05 183.4 213.85 181.2 211.4 L180.5 211.4 Q178.5 211.4 178.5 210.55 172.95 211.05 171.35 218.2 170.5 222.05 170.9 226.05 170.9 227.55 171.4 231.5 171.4 232.4 170.5 232.4 169.3 232.4 169.0 229.25 L169.0 226.1 Q169.0 219.0 169.5 216.7 171.3 208.5 178.1 208.5 179.8 208.5 181.15 209.4 L181.75 209.4 184.85 209.25 187.5 209.35 188.1 209.25" fill="#000000" fill-rule="evenodd" stroke="none"/>
    </g>
  </defs>
</svg>
