<?xml version="1.0" encoding="UTF-8" standalone="no"?>
<svg xmlns:ffdec="https://www.free-decompiler.com/flash" xmlns:xlink="http://www.w3.org/1999/xlink" ffdec:objectType="frame" height="1250.0px" width="1250.0px" xmlns="http://www.w3.org/2000/svg">
  <g transform="matrix(5.0, 0.0, 0.0, 5.0, 0.0, 0.0)">
    <use ffdec:characterId="1" height="227.25" transform="matrix(1.0, 0.0, 0.0, 1.0, 0.0, 0.0)" width="224.6" xlink:href="#shape0"/>
    <use ffdec:characterId="4" height="200.5" transform="matrix(1.0, 0.0, 0.0, 1.0, 0.0, 0.0)" width="218.0" xlink:href="#shape1"/>
  </g>
  <defs>
    <g id="shape0">
      <path d="M228.3 30.5 Q228.55 23.1 229.35 19.1 L173.4 19.55 131.55 19.75 Q130.75 19.3 130.0 19.3 L127.2 19.3 Q125.4 18.3 120.5 18.3 L114.2 18.75 111.6 19.25 109.75 19.25 107.75 19.0 Q96.75 16.5 82.85 17.8 L73.2 19.1 35.25 18.8 34.8 18.8 28.25 18.3 Q24.0 18.3 22.55 19.0 21.5 19.5 21.35 20.85 L19.45 20.1 Q20.1 25.45 20.15 34.8 20.2 46.9 19.55 69.5 L19.55 183.05 20.15 217.05 Q20.1 226.35 19.45 231.75 L114.0 231.0 171.9 230.8 Q226.7 231.0 230.95 231.25 230.45 226.65 230.5 219.3 230.6 194.45 229.3 188.3 L229.3 78.5 Q228.3 57.5 228.3 46.9 228.0 38.6 228.3 30.5 M233.8 18.9 Q234.7 24.8 234.9 38.45 L235.55 77.3 235.55 187.25 Q235.8 188.55 236.45 199.95 L237.05 214.9 Q238.15 238.55 233.9 238.55 233.25 238.55 232.75 237.9 L231.15 238.05 Q229.25 238.05 228.4 237.3 L110.25 237.3 18.15 237.5 Q17.45 239.05 16.5 239.05 12.8 239.05 12.7 216.9 L13.3 182.5 13.3 68.8 Q12.65 46.55 12.7 34.6 12.75 22.4 13.95 17.05 12.8 16.0 12.8 14.85 12.8 13.5 14.05 12.5 14.55 12.0 15.25 12.0 L60.75 11.8 Q107.05 12.25 108.25 12.55 L113.75 13.0 Q232.0 13.25 232.65 13.5 235.05 14.3 235.05 16.5 235.05 17.65 233.8 18.9" fill="#000000" fill-rule="evenodd" stroke="none"/>
      <path d="M228.3 30.5 Q228.0 38.6 228.3 46.9 228.3 57.5 229.3 78.5 L229.3 188.3 Q230.6 194.45 230.5 219.3 230.45 226.65 230.95 231.25 226.7 231.0 171.9 230.8 L114.0 231.0 19.45 231.75 Q20.1 226.35 20.15 217.05 L19.55 183.05 19.55 69.5 Q20.2 46.9 20.15 34.8 20.1 25.45 19.45 20.1 L21.35 20.85 Q21.5 19.5 22.55 19.0 24.0 18.3 28.25 18.3 L34.8 18.8 35.25 18.8 73.2 19.1 82.85 17.8 Q96.75 16.5 107.75 19.0 L109.75 19.25 111.6 19.25 114.2 18.75 120.5 18.3 Q125.4 18.3 127.2 19.3 L130.0 19.3 Q130.75 19.3 131.55 19.75 L173.4 19.55 229.35 19.1 Q228.55 23.1 228.3 30.5" fill="#ffffff" fill-rule="evenodd" stroke="none"/>
    </g>
    <g id="shape1">
      <path d="M234.1 20.65 Q234.1 21.2 233.75 21.25 L231.1 21.35 208.75 21.6 183.1 20.5 184.85 33.55 184.75 34.15 Q184.85 34.35 184.25 34.35 183.55 34.35 181.6 19.9 L181.65 19.25 182.35 19.1 217.1 19.75 234.1 20.65 M176.1 37.15 Q176.1 36.45 179.3 35.6 182.0 34.9 182.75 34.9 L184.1 34.85 Q185.85 34.85 186.1 35.35 L186.1 57.25 185.5 57.6 Q184.75 55.6 184.75 52.25 L184.85 46.75 184.85 36.15 182.25 36.15 Q180.15 36.4 176.75 37.85 176.1 37.7 176.1 37.15 M173.0 27.7 Q170.95 25.65 160.0 22.5 159.95 24.1 157.1 30.25 L156.75 30.35 156.1 29.55 158.1 25.15 Q158.15 24.05 158.35 23.05 158.7 21.1 159.6 21.1 160.45 21.1 168.0 24.35 L171.05 25.0 Q173.8 25.7 174.5 26.65 175.1 27.45 175.1 33.15 L175.0 43.6 Q174.75 53.65 174.1 57.0 L173.75 57.1 Q173.1 56.8 173.1 56.15 173.85 40.9 173.85 33.15 L173.95 30.05 Q173.9 28.65 173.0 27.7 M200.35 46.65 Q202.05 50.5 202.6 52.65 L202.6 54.5 202.0 54.85 201.65 54.0 201.6 54.75 Q201.6 57.7 199.85 61.0 197.05 66.35 191.35 66.35 178.75 66.35 155.6 56.5 149.7 54.0 143.9 51.2 L142.5 53.6 Q141.85 53.45 141.85 52.8 L142.65 50.6 Q136.7 47.7 130.9 44.5 L130.6 46.5 130.0 46.85 Q129.35 46.45 129.35 44.4 L129.35 43.65 115.75 35.55 115.55 35.95 119.25 44.0 Q121.1 47.8 121.1 51.6 120.9 61.1 116.75 61.1 113.0 61.1 102.35 58.5 91.25 55.8 79.35 51.85 48.3 41.55 41.15 32.85 41.1 36.9 41.35 45.05 41.25 61.35 35.85 61.35 31.6 61.35 25.75 54.85 20.85 49.5 20.1 47.0 20.35 46.6 20.75 46.6 L25.85 53.3 Q31.7 60.0 35.65 60.0 39.65 60.0 39.9 45.45 L39.85 35.4 Q39.9 30.85 40.5 30.85 L56.25 40.9 58.85 42.3 Q58.6 41.05 58.6 39.4 L59.35 28.75 59.35 24.15 52.85 24.5 44.35 25.1 Q43.45 25.1 43.15 24.75 L43.1 24.4 Q43.1 23.5 52.85 23.25 L59.5 22.85 Q61.0 22.85 60.6 26.25 L59.85 34.85 Q59.35 39.5 59.95 42.85 69.15 47.5 78.35 50.85 81.6 52.0 96.7 55.7 113.3 59.75 116.6 59.75 120.0 59.75 119.85 51.75 119.85 48.05 117.55 43.4 L114.45 36.75 Q114.1 36.55 114.1 36.15 L114.15 36.0 113.6 34.4 113.6 33.25 114.25 33.1 114.75 33.4 115.1 31.55 Q115.1 28.75 114.5 23.25 L114.1 19.1 Q114.05 16.35 109.7 16.1 L104.0 16.35 104.6 23.5 104.6 34.95 106.85 34.85 Q107.6 34.85 107.6 35.75 L106.6 42.9 Q105.6 50.05 105.6 52.75 L105.0 53.1 Q104.35 52.4 104.35 51.15 104.35 48.55 105.0 43.2 105.7 37.65 106.25 36.25 L98.1 36.6 94.9 36.25 94.85 35.9 Q94.85 35.45 102.0 35.15 L103.85 35.0 Q102.6 29.45 102.6 15.65 102.6 14.6 103.35 14.6 L104.3 14.75 104.2 15.1 113.25 15.35 Q114.4 15.35 114.85 16.25 115.35 17.2 115.35 18.5 L115.75 22.85 Q116.35 28.45 116.35 31.55 L116.15 34.2 122.55 38.1 129.3 42.0 Q129.15 38.55 128.5 37.2 126.3 32.6 118.15 30.25 L118.1 29.9 118.25 29.4 125.25 29.35 126.45 29.35 126.35 27.95 126.35 23.2 Q126.35 17.1 127.1 17.1 L128.75 17.55 135.4 18.0 149.6 17.1 150.25 17.25 150.35 17.9 Q150.35 19.55 148.35 33.65 L160.35 31.85 162.1 50.55 162.0 52.6 161.5 52.85 Q160.2 51.55 160.1 48.35 L160.0 43.0 Q159.85 41.7 159.85 33.25 154.35 34.55 148.2 34.6 L148.0 36.0 Q146.75 44.75 144.45 50.05 174.4 65.0 191.3 65.0 196.0 65.0 198.9 60.05 201.65 55.5 200.35 52.4 L200.85 52.2 198.55 47.05 Q196.25 41.95 196.1 38.75 L196.75 38.6 Q197.55 38.6 216.5 51.75 L216.6 50.65 217.25 50.35 217.85 50.85 217.85 53.25 Q217.85 53.6 217.25 53.6 L197.75 40.65 200.35 46.65 M163.75 90.1 L161.1 87.85 Q158.95 86.2 157.5 85.9 L158.1 89.25 158.1 93.0 157.5 93.35 Q156.1 91.45 156.1 85.05 L156.15 84.25 156.75 84.1 Q159.25 84.1 161.65 85.9 164.0 87.6 164.35 89.6 L163.75 90.1 M217.1 82.65 Q217.1 79.75 215.4 79.75 213.45 79.75 212.6 81.95 212.15 83.1 212.1 84.25 212.1 86.1 212.45 86.85 L214.35 89.0 Q214.35 89.35 213.75 89.35 211.6 89.35 211.0 86.85 L210.85 84.3 Q210.85 82.85 211.75 81.05 213.1 78.35 215.5 78.35 219.35 78.35 218.35 82.75 218.35 87.6 215.75 87.6 L214.45 87.35 214.35 86.9 215.75 86.2 Q216.7 85.7 216.9 84.9 217.1 84.35 217.1 82.65 M203.35 98.65 Q202.8 100.3 202.6 103.5 L202.6 108.25 228.0 108.6 Q228.6 108.6 228.6 109.15 L228.8 109.55 228.2 109.75 217.6 109.85 201.65 109.25 Q201.35 108.95 201.35 108.15 L201.35 106.05 Q201.35 101.05 201.7 99.45 202.1 97.75 203.5 97.4 L207.75 97.2 215.5 96.15 221.35 96.1 Q227.85 96.1 227.85 96.65 227.85 97.4 225.8 97.5 L211.75 97.9 203.35 98.65 M223.0 86.35 Q222.35 85.7 222.35 84.4 222.35 83.6 223.0 82.25 223.8 80.6 224.75 80.6 228.75 80.6 228.6 85.4 228.6 88.85 226.25 88.85 225.7 88.85 225.4 88.5 L225.35 88.15 Q227.35 86.3 227.35 85.4 227.35 81.9 225.1 81.9 223.95 81.9 223.5 86.1 L223.0 86.35 M176.7 113.4 Q179.1 118.7 179.1 121.25 L179.0 121.9 Q179.1 122.1 178.5 122.1 174.05 110.8 171.9 106.6 170.15 103.15 166.05 97.4 L161.35 91.0 162.0 90.85 Q165.95 90.85 173.1 106.15 L176.7 113.4 M171.1 119.15 Q171.1 120.0 159.5 126.75 L144.0 135.65 124.75 146.65 Q125.7 149.25 125.95 153.05 L126.25 160.1 127.6 174.15 Q127.6 179.15 128.9 188.05 130.35 198.35 130.6 202.1 L130.6 209.2 131.5 209.25 141.6 209.25 Q133.45 203.6 130.85 200.75 130.55 200.1 131.6 200.1 L139.3 203.3 Q147.7 206.8 153.9 208.0 L162.45 210.2 163.65 209.5 Q165.15 208.8 165.15 208.4 165.15 207.6 163.75 206.9 162.35 206.15 162.35 205.6 162.35 205.3 163.75 204.15 165.1 203.0 165.1 201.95 165.1 196.4 158.25 196.4 153.45 196.4 151.1 199.25 149.6 201.05 149.6 202.8 149.6 203.3 150.3 203.8 151.05 204.3 151.35 206.0 151.35 206.35 150.75 206.35 148.35 206.35 148.35 202.9 148.35 200.55 150.5 198.15 153.45 194.85 158.5 195.15 L160.6 195.1 Q164.4 195.1 165.75 198.5 166.45 200.25 166.35 202.05 166.35 204.7 164.25 205.85 L166.0 207.0 Q167.35 208.05 167.35 208.5 L164.25 210.65 171.4 212.25 Q178.35 212.25 176.6 211.2 176.6 209.85 172.8 205.9 L168.35 201.5 Q168.75 201.1 169.25 201.1 171.4 201.1 179.1 204.75 L186.85 206.15 204.1 209.25 205.5 209.25 191.35 199.1 191.35 198.5 192.1 198.35 211.75 206.0 Q220.9 208.35 228.65 209.6 232.35 210.2 232.35 210.9 232.35 211.6 230.6 211.6 225.55 211.6 212.35 207.2 L198.0 202.0 Q206.85 207.55 206.85 209.4 206.85 210.6 205.1 210.6 201.05 210.6 188.45 207.9 176.1 205.2 172.35 203.65 177.85 209.85 177.85 211.25 L177.6 212.65 Q176.9 213.6 174.1 213.6 171.8 213.6 162.95 211.5 L162.75 211.6 162.25 211.3 155.85 209.7 Q143.05 206.4 138.35 204.9 L141.35 207.3 Q143.1 208.65 143.1 209.55 143.1 210.15 142.75 210.25 L137.0 210.6 130.6 210.35 130.6 210.5 130.0 210.85 129.9 210.3 Q125.45 209.85 121.8 208.85 112.1 206.25 105.1 205.25 113.35 213.5 113.35 214.3 L113.1 215.0 111.0 215.1 Q107.55 215.1 91.2 210.95 L73.15 205.9 75.5 208.85 Q76.6 210.25 76.6 211.35 76.6 212.6 75.5 212.6 66.9 212.6 59.35 210.05 55.3 208.7 49.0 205.35 49.85 206.8 49.85 208.05 49.85 211.85 47.5 211.85 39.45 211.85 32.8 207.15 26.95 201.95 25.1 200.85 25.45 205.0 25.85 206.85 26.25 212.85 24.0 212.85 21.5 212.85 19.1 208.9 17.1 205.6 16.6 202.4 L17.25 202.1 18.95 205.45 Q21.15 209.2 23.75 211.15 24.6 210.65 24.6 206.8 24.6 205.2 23.6 201.95 L22.6 198.7 Q22.6 198.5 22.75 198.25 L23.25 198.1 Q24.4 198.1 31.05 204.3 38.9 210.5 46.25 210.5 49.15 210.5 48.6 208.05 48.6 206.55 47.0 205.15 44.5 202.9 43.6 201.65 L44.25 201.35 56.5 207.65 Q58.2 208.5 64.15 209.5 L74.65 211.25 Q75.35 211.75 75.35 211.1 75.35 210.65 72.15 207.3 L68.1 203.35 68.1 202.75 69.0 202.6 76.55 205.5 Q84.9 208.7 90.85 209.75 L98.75 211.8 Q106.35 213.75 108.85 213.75 L111.5 213.75 Q104.3 206.1 102.6 203.75 L103.25 203.6 Q106.45 203.6 117.4 206.45 125.85 208.6 129.7 209.1 129.25 206.4 129.1 202.7 L128.65 194.75 Q126.75 183.9 126.5 178.85 124.0 150.15 123.85 147.1 L115.75 151.6 Q93.4 163.95 89.15 166.5 L77.85 173.5 Q76.0 175.1 70.35 181.35 68.05 181.35 66.1 168.2 66.1 167.2 77.5 159.55 L90.75 150.85 Q99.0 145.2 114.1 133.75 L126.5 125.55 Q135.1 119.85 139.1 116.75 L160.25 100.1 Q161.2 100.1 166.25 109.6 L171.1 119.15 M166.05 112.15 L160.1 102.0 Q152.8 108.45 138.55 118.4 L114.25 135.25 Q100.05 146.3 91.4 151.9 L78.25 160.35 Q67.35 167.45 67.35 168.3 67.35 170.9 68.25 173.65 L70.25 179.25 70.35 179.35 Q75.2 172.7 89.75 164.35 L115.5 150.0 Q121.55 146.35 143.35 134.6 L159.1 125.5 Q169.6 119.45 169.6 118.9 169.6 118.4 166.05 112.15 M180.35 140.4 Q180.35 135.85 185.6 135.85 189.75 135.85 190.1 140.6 190.1 141.5 188.6 143.0 187.0 144.6 185.6 144.6 L185.1 144.5 184.85 143.9 186.85 142.55 Q188.85 141.35 188.85 140.55 188.85 137.15 184.5 137.15 181.6 137.15 181.6 140.5 181.6 140.85 182.55 141.4 183.6 142.05 184.1 143.5 L183.5 144.1 Q181.3 144.1 180.6 142.25 L180.35 140.4 M213.85 183.85 Q212.75 183.85 211.95 183.25 L211.35 182.6 211.35 182.0 212.0 181.85 213.15 182.5 Q215.75 182.5 215.35 178.65 215.35 177.5 214.5 176.1 213.3 174.25 211.4 174.25 210.05 174.25 208.7 175.1 L206.75 176.5 211.35 179.5 210.75 180.1 Q209.8 180.1 207.5 178.35 L205.35 176.5 Q205.35 175.6 207.6 174.25 209.85 172.85 211.35 172.85 216.35 172.85 216.6 178.6 216.6 183.85 213.85 183.85 M148.85 18.5 L135.25 19.35 129.4 19.0 127.6 18.6 127.6 28.5 127.75 29.4 Q134.4 29.55 132.35 30.9 132.35 33.25 131.1 43.0 136.9 46.25 142.45 49.05 L143.1 49.4 Q145.9 41.05 146.75 35.65 L146.8 34.4 146.65 34.25 146.6 33.9 146.8 33.9 Q147.1 23.6 148.85 18.6 L148.85 18.5 M93.6 21.45 L93.6 29.15 94.7 28.9 100.6 28.1 Q102.35 28.1 102.35 28.65 102.35 29.5 95.35 30.0 L93.6 30.45 93.6 30.85 Q93.6 35.8 94.35 46.3 94.35 50.85 92.75 53.1 92.1 52.95 92.1 52.4 93.1 49.55 93.1 46.3 L92.25 31.8 92.2 30.6 Q91.65 30.55 91.4 30.25 L91.35 29.9 Q91.35 29.8 92.1 29.55 91.35 19.0 90.9 16.65 L76.6 17.35 76.5 29.85 76.0 30.1 Q75.35 28.4 75.35 23.05 L75.25 17.7 Q75.3 16.3 76.1 16.1 L79.4 16.05 86.75 15.4 89.1 15.35 Q92.9 15.35 93.6 21.45 M84.75 96.85 Q86.85 96.85 91.2 99.75 L96.6 103.6 95.85 104.35 Q95.25 104.35 86.0 98.15 L84.9 98.25 Q85.75 99.95 90.6 104.25 L90.4 104.55 91.6 104.65 Q91.6 105.35 89.6 105.35 L78.35 104.25 Q79.35 106.0 85.35 110.6 85.35 111.35 84.75 111.35 83.4 111.35 80.6 108.8 77.7 106.15 76.85 103.9 L76.85 102.75 77.85 102.6 Q80.9 102.6 83.9 103.65 L88.45 104.3 Q87.15 103.4 85.5 101.3 L83.1 97.7 Q83.1 96.85 84.75 96.85 M115.5 95.35 Q116.1 95.7 116.1 97.9 L115.85 100.25 Q116.75 100.9 116.6 105.55 116.6 109.6 112.95 114.45 116.7 113.25 120.9 107.6 123.5 104.1 124.3 101.85 L124.25 101.85 123.7 101.75 Q123.3 101.85 123.0 102.15 L122.6 102.75 123.35 103.75 122.75 104.35 Q121.8 104.35 121.5 103.6 121.35 103.3 121.35 102.8 121.35 101.25 122.6 100.6 L122.2 99.9 120.75 100.85 Q120.1 100.7 120.1 100.15 120.1 99.75 122.75 97.8 122.95 97.55 123.3 97.35 123.9 96.9 124.65 96.35 128.85 93.25 131.55 91.9 L130.05 90.1 Q120.6 98.55 118.75 101.35 118.1 101.2 118.1 100.55 118.1 99.8 123.5 94.3 127.35 90.35 129.15 89.15 L128.8 88.8 128.25 89.1 Q127.6 88.45 127.6 87.85 L127.6 87.8 127.35 87.65 Q127.35 87.0 127.8 86.9 128.45 85.35 131.5 85.35 L132.85 85.5 132.85 85.4 Q132.85 84.7 135.65 82.4 138.5 80.1 139.5 80.1 141.0 80.1 140.6 81.8 L140.6 82.6 140.75 82.5 Q142.7 81.85 144.6 81.85 148.6 81.85 147.6 83.35 147.6 84.7 145.0 87.05 141.55 90.1 136.75 90.1 L136.1 90.05 136.1 92.3 135.25 93.5 134.4 94.1 Q135.05 94.95 135.35 96.6 133.05 102.6 129.25 102.6 128.7 102.6 128.4 102.25 L128.6 103.8 128.5 105.1 128.0 105.35 Q127.65 105.15 127.4 103.1 127.25 101.75 125.65 101.55 L124.9 103.2 Q125.8 103.45 126.1 104.7 126.1 110.35 117.5 116.25 110.1 121.35 106.75 121.35 105.95 121.35 105.7 120.55 101.3 122.6 95.6 122.6 91.6 122.6 89.85 118.85 L89.85 116.75 90.5 116.6 Q91.15 116.6 91.5 118.95 92.6 121.25 97.25 121.25 111.75 121.25 115.35 105.6 L115.0 101.5 114.75 101.6 114.4 101.05 111.85 104.5 Q108.35 108.85 106.5 108.85 L105.5 108.6 Q105.05 112.1 102.1 112.1 100.6 112.1 100.6 111.2 100.6 111.0 100.75 110.75 104.35 112.1 104.35 107.15 L103.85 104.4 Q99.2 105.0 98.85 105.9 98.65 106.45 98.75 107.85 100.55 109.25 100.6 112.8 L100.45 114.2 Q100.0 114.85 98.1 114.85 97.45 114.85 97.15 114.5 L97.1 114.15 Q97.1 113.85 98.25 113.45 99.35 113.05 99.35 112.65 99.35 111.5 98.65 110.25 97.55 108.15 95.25 108.15 91.9 108.15 90.65 109.8 90.05 110.6 90.1 111.5 90.1 113.0 90.6 113.0 91.95 113.0 93.25 112.1 L94.0 112.25 94.1 112.65 Q94.1 113.55 91.1 114.35 89.3 114.35 88.9 112.95 L88.85 111.5 Q88.85 106.85 95.5 106.85 L97.65 107.2 97.6 106.85 Q97.6 103.1 102.0 103.1 106.15 103.1 105.6 107.15 L105.6 108.05 Q109.7 106.15 113.9 99.35 L113.85 98.35 113.95 96.8 Q114.15 96.4 115.5 95.35 M139.25 81.5 Q135.95 84.8 133.9 85.95 135.3 86.75 135.85 88.8 L136.0 89.25 143.1 86.5 Q145.7 85.6 146.35 83.15 L141.0 83.6 140.15 84.4 Q139.5 85.85 137.75 85.85 L137.1 85.75 136.85 85.15 Q139.35 83.55 139.35 82.15 L139.35 81.85 139.25 81.5 M124.35 98.45 L123.6 98.95 123.35 99.5 Q123.35 99.9 123.9 100.2 L125.1 100.1 125.25 100.1 125.3 100.1 Q127.7 100.15 128.35 102.1 L128.35 101.9 Q134.1 98.65 134.1 96.55 L133.0 94.4 Q130.2 94.4 128.65 96.15 128.0 96.9 127.7 97.75 L128.1 98.15 Q128.3 98.35 127.95 98.6 L127.35 98.85 127.2 98.75 127.0 98.85 126.75 98.55 125.6 98.25 124.35 98.45 M126.75 96.85 L126.5 97.0 126.6 97.0 126.75 96.85 M132.85 92.25 L132.75 92.65 Q132.85 92.85 132.35 92.85 L133.5 92.85 Q134.85 92.85 134.85 92.1 135.05 86.65 132.25 86.65 130.25 86.65 129.4 87.2 131.4 88.1 132.85 91.8 L132.85 92.15 132.85 92.25 M131.9 93.15 L132.15 93.1 132.1 92.95 131.9 93.15 M41.9 21.6 L42.85 27.15 42.8 29.0 41.5 31.35 Q40.85 31.2 40.85 30.65 41.6 29.2 41.6 27.05 L39.6 17.15 33.75 17.15 30.0 17.85 Q29.2 17.85 28.9 17.5 L28.85 17.15 Q28.85 16.7 32.25 16.25 L37.0 15.85 Q40.95 15.85 41.7 18.15 42.15 19.4 41.9 21.6 M77.85 36.9 Q77.85 40.25 77.1 47.0 L76.5 47.35 Q75.85 46.95 75.85 46.4 75.85 45.35 76.6 40.1 76.6 38.6 74.95 37.1 71.65 34.0 63.4 33.75 L63.35 33.4 63.5 32.9 70.6 32.85 78.2 32.5 Q77.8 32.8 77.85 33.35 L77.85 36.9 M79.25 114.5 Q81.2 112.1 84.85 112.1 86.6 112.1 86.6 112.65 L82.85 114.35 Q79.1 115.9 79.1 118.05 79.1 119.5 79.65 119.5 L85.9 118.95 88.5 117.85 89.1 118.4 Q89.1 119.45 86.1 120.25 L81.5 120.85 Q78.85 120.85 78.1 119.4 L77.85 117.9 Q77.85 116.2 79.25 114.5 M63.6 147.1 Q58.85 155.85 58.85 162.95 58.85 164.25 59.8 167.8 61.0 172.25 62.35 173.35 L61.6 174.1 Q59.8 174.1 58.5 168.5 L57.6 162.9 Q57.6 160.65 59.0 154.45 60.8 146.6 62.85 146.6 63.35 146.6 63.6 147.1 M79.85 147.05 Q79.85 145.45 82.25 142.05 84.85 138.4 86.75 138.6 L87.5 138.75 87.6 139.15 85.75 140.65 Q83.35 142.6 81.1 146.35 L81.1 147.5 83.75 147.5 Q86.0 146.25 89.35 139.35 L90.0 139.5 90.05 139.8 Q92.7 138.3 94.75 136.0 L96.4 133.65 96.5 133.55 95.0 131.15 Q94.55 131.4 93.3 133.75 92.15 135.85 91.35 135.85 L90.65 135.75 90.6 134.05 Q90.6 131.85 93.25 127.25 95.55 123.3 96.25 122.85 96.85 123.2 96.85 123.55 96.85 125.15 93.75 130.2 94.3 129.85 95.0 129.85 96.1 129.85 97.55 132.3 98.2 131.6 98.5 131.6 99.1 131.6 99.1 132.15 99.1 132.6 98.3 133.7 L98.75 134.65 98.85 134.65 Q99.1 132.4 100.9 127.6 102.75 122.6 103.6 122.6 104.1 122.6 104.35 123.1 102.6 126.5 100.85 132.25 99.6 136.35 99.0 136.35 98.35 136.35 97.35 134.95 L95.5 137.0 Q91.7 141.1 90.0 141.1 L89.8 141.1 Q87.15 148.85 82.1 148.85 80.2 148.85 79.85 148.0 L79.85 147.05 M38.35 106.1 Q38.35 108.55 37.6 114.15 37.6 115.05 38.3 118.7 38.15 120.2 36.8 121.0 37.55 121.15 37.7 121.35 L37.1 121.35 37.1 121.4 Q37.1 122.1 26.6 133.15 L19.0 144.6 Q18.35 144.45 18.35 143.8 18.35 142.0 26.6 132.05 33.1 124.25 36.0 121.35 L32.35 121.85 Q20.95 121.85 20.35 120.0 20.6 119.6 21.6 119.6 27.4 119.6 27.65 120.5 L36.3 120.9 36.1 120.1 36.1 119.0 36.35 117.25 36.35 113.9 Q36.35 109.05 37.1 107.15 37.1 105.65 16.15 105.25 L16.1 104.9 Q16.1 104.35 16.75 104.35 L37.6 104.1 Q38.65 104.1 38.35 106.1 M27.6 189.6 Q28.5 189.6 29.6 190.5 L30.85 190.5 30.85 189.15 Q29.3 185.75 28.15 185.75 27.15 185.75 26.75 189.65 L26.25 189.85 Q25.6 189.55 25.6 188.3 25.6 187.5 26.2 186.2 27.0 184.35 28.25 184.35 31.55 184.35 32.1 190.05 L32.1 191.25 Q31.9 191.85 30.6 191.85 27.4 191.85 26.85 190.0 27.25 189.6 27.6 189.6 M59.95 177.0 Q62.35 180.1 65.0 182.25 64.9 179.45 63.85 176.75 L63.85 175.65 64.5 175.35 Q65.3 175.35 65.9 179.0 L66.35 182.75 66.25 183.9 Q66.35 184.1 65.75 184.1 63.45 184.1 60.6 180.85 58.25 178.15 57.35 175.65 L57.35 174.5 58.0 174.35 59.95 177.0 M47.85 177.3 Q47.85 173.75 44.15 173.75 42.6 173.75 42.6 175.8 42.6 176.45 43.1 177.85 43.75 179.65 44.5 179.65 47.85 179.65 47.85 177.3 M41.35 175.65 Q41.35 172.35 45.0 172.35 49.8 172.35 49.1 177.3 49.1 181.35 45.0 181.35 43.2 181.35 42.1 178.65 41.35 176.8 41.35 175.65 M124.3 104.45 Q118.95 115.35 113.25 115.35 L112.4 115.2 Q110.05 118.05 107.0 119.85 114.25 117.55 119.3 113.3 124.6 108.85 124.6 104.75 L124.3 104.45 M103.85 106.85 L103.65 107.4 Q103.85 107.6 103.25 107.6 L102.65 107.25 102.6 106.9 Q102.6 106.5 103.25 106.35 103.75 106.65 103.85 106.85 M104.1 117.65 Q104.1 119.85 103.0 119.85 L102.15 119.75 102.1 118.8 Q102.1 116.9 103.5 115.85 104.0 116.4 104.1 117.65 M107.35 123.1 Q105.15 132.6 102.6 132.6 L101.35 131.9 Q104.2 129.3 104.75 127.4 105.9 123.35 106.75 121.85 107.35 122.45 107.35 123.1 M119.25 121.1 L115.1 121.5 115.35 125.4 115.25 128.6 114.75 128.85 Q113.6 127.25 113.6 121.05 113.6 120.55 116.65 120.05 L119.75 119.6 Q120.9 119.6 120.6 120.65 120.6 127.55 116.25 131.6 115.6 131.45 115.6 130.9 115.6 130.35 117.25 127.1 118.95 123.65 119.25 121.15 L119.25 121.1 M97.75 110.1 Q98.25 110.4 98.35 110.6 L98.15 111.15 Q98.35 111.35 97.75 111.35 L97.15 111.0 97.1 110.65 Q97.1 110.25 97.75 110.1 M99.6 116.3 L98.65 118.0 97.5 119.35 Q96.6 119.35 96.1 118.4 L96.1 116.15 96.75 115.85 Q97.35 115.85 97.35 117.65 L99.0 115.6 Q99.6 115.8 99.6 116.3 M91.9 133.0 L91.85 133.1 91.85 133.15 91.9 133.0 M115.1 129.55 L115.0 130.1 Q115.1 130.35 114.5 130.35 L112.65 129.4 Q109.75 129.4 108.45 129.95 107.45 130.65 106.75 130.85 106.1 130.7 106.1 130.15 106.1 130.0 108.25 129.1 110.55 128.1 111.75 128.1 112.6 128.1 113.9 128.75 115.1 129.35 115.1 129.55 M111.5 165.55 L113.5 180.25 116.1 204.05 116.0 205.4 115.5 205.6 Q114.7 203.35 114.45 199.65 L114.1 193.65 Q112.65 185.7 112.35 181.85 112.05 177.55 108.85 158.0 L108.85 156.5 109.5 156.35 Q110.05 156.35 111.5 165.55 M157.9 198.8 L158.25 198.35 158.7 199.4 Q160.25 200.7 160.35 201.5 160.35 201.85 159.75 201.85 L158.85 201.55 Q158.8 203.85 158.1 203.85 L157.6 203.75 157.35 203.15 Q157.35 201.5 157.5 200.4 156.35 199.25 156.35 198.8 L156.4 198.25 157.0 198.1 157.9 198.8 M155.35 200.6 L157.1 201.85 156.35 202.6 Q155.75 202.6 155.0 202.2 L154.55 203.5 Q153.55 206.05 152.5 206.1 151.85 205.95 151.85 205.4 153.0 203.9 153.5 202.4 L153.65 201.15 152.6 200.0 152.65 199.25 153.25 199.1 154.3 199.85 154.75 199.6 Q155.35 199.8 155.35 200.3 L155.35 200.6" fill="#000000" fill-rule="evenodd" stroke="none"/>
    </g>
  </defs>
</svg>
